<?xml version="1.0" encoding="utf-8"?>
<!-- Generator: Adobe Illustrator 16.0.0, SVG Export Plug-In . SVG Version: 6.00 Build 0)  -->
<!DOCTYPE svg PUBLIC "-//W3C//DTD SVG 1.1//EN" "http://www.w3.org/Graphics/SVG/1.1/DTD/svg11.dtd">
<svg version="1.1" id="Layer_1" xmlns="http://www.w3.org/2000/svg" xmlns:xlink="http://www.w3.org/1999/xlink" x="0px" y="0px"
	 width="274.521px" height="128.5px" viewBox="0 0 274.521 128.5" enable-background="new 0 0 274.521 128.5" xml:space="preserve">
<g>
	<path fill="#EBB433" d="M197.991,56.483L160.308,18.66c-4.88-4.879-12.605-4.879-17.486,0c-4.882,4.881-4.882,12.607-0.002,17.487
		l16.673,16.676H85.207c-6.777,0-12.338,5.559-12.338,12.337c0,6.775,5.557,12.333,12.334,12.333h74.288l-16.54,16.678
		c-4.882,4.881-4.882,12.606-0.003,17.488c2.441,2.44,5.561,3.661,8.679,3.661c3.116,0,6.37-1.221,8.678-3.661l37.688-37.688
		c2.304-2.306,3.661-5.421,3.661-8.675C201.652,62.039,200.295,58.788,197.991,56.483z"/>
</g>
</svg>
