<?xml version="1.0" encoding="utf-8"?>
<!-- Generator: Adobe Illustrator 16.0.0, SVG Export Plug-In . SVG Version: 6.00 Build 0)  -->
<!DOCTYPE svg PUBLIC "-//W3C//DTD SVG 1.1//EN" "http://www.w3.org/Graphics/SVG/1.1/DTD/svg11.dtd">
<svg version="1.1" id="Layer_1" xmlns="http://www.w3.org/2000/svg" xmlns:xlink="http://www.w3.org/1999/xlink" x="0px" y="0px"
	 width="49.23px" height="48.461px" viewBox="0 0 49.23 48.461" enable-background="new 0 0 49.23 48.461" xml:space="preserve">
<g>
	<path fill-rule="evenodd" clip-rule="evenodd" fill="#FEFEFD" d="M24.368,21.734c-2.643,0-5.285-0.014-7.927,0.011
		c-0.559,0.005-0.716-0.178-0.703-0.719c0.033-1.385,0.023-2.773,0.004-4.16c-0.006-0.432,0.089-0.644,0.576-0.642
		c5.373,0.011,10.745,0.01,16.115,0c0.438-0.002,0.572,0.166,0.565,0.585c-0.012,1.431-0.018,2.863,0.005,4.293
		c0.008,0.489-0.154,0.645-0.646,0.642C29.693,21.723,27.031,21.734,24.368,21.734z"/>
	<path fill-rule="evenodd" clip-rule="evenodd" fill="#FEFEFD" d="M24.468,27.034c2.599,0,5.199,0.016,7.797-0.012
		c0.592-0.009,0.758,0.178,0.744,0.753c-0.04,1.342-0.034,2.689-0.004,4.034c0.012,0.525-0.128,0.731-0.698,0.729
		c-5.286-0.021-10.576-0.021-15.864,0c-0.557,0-0.719-0.182-0.704-0.726c0.034-1.299,0.011-2.6,0.011-3.899
		c0-0.878,0-0.88,0.852-0.88C19.223,27.034,21.844,27.034,24.468,27.034z"/>
	<path fill-rule="evenodd" clip-rule="evenodd" fill="#FEFEFD" d="M8.821,24.438c0,2.489,0.001,4.979-0.003,7.469
		c-0.001,0.21,0.104,0.504-0.11,0.614c-0.244,0.128-0.364-0.177-0.507-0.32c-2.465-2.452-4.917-4.921-7.393-7.368
		c-0.35-0.347-0.358-0.544-0.003-0.896c2.488-2.465,4.953-4.95,7.43-7.424c0.131-0.131,0.248-0.391,0.467-0.286
		c0.199,0.096,0.117,0.357,0.117,0.548C8.822,19.329,8.821,21.884,8.821,24.438z"/>
	<path fill-rule="evenodd" clip-rule="evenodd" fill="#FEFEFD" d="M39.944,24.386c0-2.532-0.004-5.065,0.002-7.598
		c0.002-0.188-0.104-0.45,0.096-0.55c0.254-0.127,0.372,0.168,0.514,0.309c2.463,2.459,4.915,4.931,7.387,7.382
		c0.34,0.337,0.38,0.533,0.019,0.894c-2.494,2.461-4.965,4.947-7.445,7.42c-0.128,0.128-0.241,0.39-0.463,0.286
		c-0.206-0.094-0.104-0.356-0.104-0.54C39.94,29.457,39.944,26.921,39.944,24.386z"/>
	<path fill-rule="evenodd" clip-rule="evenodd" fill="#FEFEFD" d="M24.335,8.801c-2.514,0-5.025,0.001-7.536-0.004
		c-0.189,0-0.455,0.096-0.554-0.091c-0.133-0.256,0.169-0.369,0.308-0.51c2.456-2.468,4.926-4.921,7.374-7.396
		c0.34-0.347,0.532-0.369,0.888-0.008c2.445,2.476,4.913,4.93,7.376,7.394c0.134,0.136,0.384,0.262,0.321,0.461
		c-0.086,0.272-0.38,0.146-0.579,0.148C29.4,8.804,26.867,8.801,24.335,8.801z"/>
	<path fill-rule="evenodd" clip-rule="evenodd" fill="#FEFEFD" d="M24.353,39.959c2.53,0,5.061-0.002,7.589,0.004
		c0.189,0.002,0.451-0.099,0.55,0.092c0.132,0.256-0.166,0.369-0.307,0.51c-2.452,2.464-4.918,4.914-7.361,7.387
		c-0.339,0.342-0.525,0.379-0.883,0.014c-2.457-2.488-4.94-4.954-7.41-7.433c-0.129-0.128-0.393-0.235-0.304-0.454
		c0.089-0.222,0.353-0.113,0.536-0.113C19.292,39.958,21.822,39.959,24.353,39.959z"/>
</g>
</svg>
