<?xml version="1.0" encoding="utf-8"?>
<!-- Generator: Adobe Illustrator 16.0.0, SVG Export Plug-In . SVG Version: 6.00 Build 0)  -->
<!DOCTYPE svg PUBLIC "-//W3C//DTD SVG 1.1//EN" "http://www.w3.org/Graphics/SVG/1.1/DTD/svg11.dtd">
<svg version="1.1" id="Layer_1" xmlns="http://www.w3.org/2000/svg" xmlns:xlink="http://www.w3.org/1999/xlink" x="0px" y="0px"
	 width="61.905px" height="53.44px" viewBox="0 0 61.905 53.44" enable-background="new 0 0 61.905 53.44" xml:space="preserve">
<g>
	<path fill="#FFFFFF" d="M20.893,48.74v1.531c-0.001,0.011-0.005,0.023-0.005,0.035c0,0.013,0.004,0.025,0.005,0.036
		c0.016,0.379,0.325,0.681,0.707,0.688c0.005,0,0.009,0.002,0.014,0.002s0.012-0.002,0.018-0.002h17.964
		c0.005,0,0.01,0.002,0.015,0.002s0.011-0.002,0.016-0.002c0.393-0.007,0.706-0.327,0.708-0.719c0-0.001,0.002-0.002,0.002-0.005
		c0,0-0.002-0.003-0.002-0.005v-1.733c10.112-3.315,17.689-11.511,19.354-21.5c0.004-0.021,0.006-0.041,0.01-0.06
		c0.005-0.035,0.009-0.067,0.009-0.101c0-0.402-0.324-0.726-0.726-0.726H2.071H1.729C1.325,26.182,1,26.506,1,26.908l0.038,0.327
		C2.788,37.318,10.572,45.56,20.893,48.74"/>
	<path fill="#FFFFFF" d="M40.318,1.745c-0.236,0.335-5.768,8.299,0.124,14.739c2.702,2.956,2.467,5.563,1.696,7.325h3.779
		c0.765-2.601,0.449-5.862-2.618-9.214C38.958,9.85,43.354,3.436,43.42,3.336c0.518-0.731,0.241-1.675-0.613-2.115
		C41.949,0.784,40.838,1.018,40.318,1.745"/>
	<path fill="#FFFFFF" d="M30.748,23.809h3.78c0.764-2.602,0.447-5.862-2.621-9.214c-4.342-4.746,0.051-11.156,0.12-11.262
		c0.516-0.728,0.243-1.67-0.615-2.111c-0.854-0.436-1.967-0.204-2.485,0.523c-0.237,0.334-5.773,8.299,0.123,14.739
		C31.752,19.44,31.517,22.049,30.748,23.809"/>
	<path fill="#FFFFFF" d="M17.536,1.745c-0.239,0.335-5.771,8.299,0.122,14.739c2.703,2.957,2.469,5.564,1.7,7.325h3.779
		c0.764-2.6,0.448-5.861-2.623-9.214C16.171,9.85,20.567,3.436,20.637,3.334c0.513-0.729,0.24-1.672-0.618-2.112
		C19.166,0.782,18.054,1.017,17.536,1.745"/>
</g>
</svg>
