<?xml version="1.0" encoding="utf-8"?>
<!-- Generator: Adobe Illustrator 16.0.0, SVG Export Plug-In . SVG Version: 6.00 Build 0)  -->
<!DOCTYPE svg PUBLIC "-//W3C//DTD SVG 1.1//EN" "http://www.w3.org/Graphics/SVG/1.1/DTD/svg11.dtd">
<svg version="1.1" id="Layer_1" xmlns="http://www.w3.org/2000/svg" xmlns:xlink="http://www.w3.org/1999/xlink" x="0px" y="0px"
	 width="49.231px" height="48.462px" viewBox="0 0 49.231 48.462" enable-background="new 0 0 49.231 48.462" xml:space="preserve">
<g>
	<path fill="#FFFFFF" d="M42.259,0.387c0,0-0.995,1.364-0.705,2.694c0.291,1.33,1.756,2.121,1.756,2.121s0.997-1.365,0.705-2.693
		C43.726,1.177,42.259,0.387,42.259,0.387"/>
	<path fill="#FFFFFF" d="M40.639,8.179c0,0,0.994-1.365,0.705-2.695c-0.292-1.33-1.758-2.119-1.758-2.119s-0.995,1.363-0.706,2.694
		C39.171,7.388,40.639,8.179,40.639,8.179"/>
	<path fill="#FFFFFF" d="M44.725,6.718c0,0,1.05,1.094,2.246,0.985c1.195-0.11,2.082-1.382,2.082-1.382s-1.049-1.094-2.246-0.984
		C45.612,5.445,44.725,6.718,44.725,6.718"/>
	<path fill="#FFFFFF" d="M46.446,0.873c-0.973,1.02-0.836,2.825-0.836,2.825s1.716,0.155,2.69-0.864
		c0.974-1.02,0.836-2.825,0.836-2.825S47.418-0.146,46.446,0.873"/>
	<path fill="#FFFFFF" d="M44.298,10.774c1.192,0.146,2.313-0.911,2.313-0.911s-0.813-1.293-2.002-1.439
		c-1.193-0.143-2.314,0.914-2.314,0.914S43.106,10.628,44.298,10.774"/>
	<path fill="#FFFFFF" d="M45.363,30.57h-8.905c-0.698,0-1.262,0.58-1.262,1.301c0,0.719,0.564,1.302,1.262,1.302h8.905
		c0.696,0,1.259-0.583,1.259-1.302C46.622,31.149,46.059,30.57,45.363,30.57"/>
	<path fill="#FFFFFF" d="M45.363,44.921h-8.905c-0.698,0-1.262,0.581-1.262,1.302c0,0.718,0.564,1.301,1.262,1.301h8.905
		c0.696,0,1.259-0.583,1.259-1.301C46.622,45.502,46.059,44.921,45.363,44.921"/>
	<path fill="#FFFFFF" d="M5.307,27.408c-0.21-0.067-0.417-0.125-0.619-0.164C4.688,27.244,4.917,27.317,5.307,27.408"/>
	<path fill="#FFFFFF" d="M45.035,34.083h-8.254c-0.396,0-0.717,0.332-0.717,0.741v2.582l-5.387,0.613l-7.871-0.187v-4.968
		c1.045-0.138,2.091-0.353,3.132-0.657c7.577-2.209,9.229-7.085,9.063-11.564c-0.165-4.561,1.248-6.332,3.277-7.119
		c0.582-0.226,1.156-0.368,1.682-0.461c0.022,1.12,0.243,2.422,0.728,3.975c0.179-0.01,0.358-0.026,0.536-0.046
		c-0.512-1.588-0.73-2.894-0.742-4.007c1.049-0.128,1.797-0.056,1.797-0.056s-0.709-0.393-1.71-1.258
		c0.341-2.16,1.585-3.486,2.869-4.842c0.705-0.748,1.434-1.518,2.007-2.436l-0.447-0.298c-0.542,0.872-1.255,1.623-1.941,2.349
		c-1.252,1.323-2.515,2.675-2.942,4.818c-0.406-0.378-0.847-0.827-1.296-1.348c-1.869-2.166-4.273-0.575-7.704,2.725
		c-3.432,3.298-7.747,3.411-11.961-1.044c-5.56-5.882-10.41-5.849-13.736-5.515C7.692,7.08,8.489,9.277,9.64,14.86
		c1.208,5.86,4.251,8.511,8.416,8.876c-1.931,0.323-2.431,0.6-5.534,2.814c-2.423,1.728-5.832,1.182-7.214,0.857
		c2.537,0.817,5.542,3.568,8.23,4.524c1.566,0.557,3.216,0.901,4.908,1.039v4.756L3.514,37.396v3.317l27.163-0.623l5.387,0.613
		v2.581c0,0.408,0.321,0.741,0.717,0.741h8.254c0.396,0,0.718-0.333,0.718-0.741v-8.46C45.753,34.415,45.431,34.083,45.035,34.083z
		 M19.742,33.042c0.586,0.01,1.176-0.009,1.766-0.05v4.809l-1.766-0.042V33.042z"/>
	<path fill="#FFFFFF" d="M2.744,40.165c0,0.699-0.473,1.267-1.056,1.267H1.054C0.474,41.432,0,40.864,0,40.165v-2.294
		c0-0.701,0.474-1.267,1.054-1.267h0.634c0.583,0,1.056,0.566,1.056,1.267V40.165z"/>
</g>
</svg>
