<?xml version="1.0" encoding="utf-8"?>
<!-- Generator: Adobe Illustrator 16.0.0, SVG Export Plug-In . SVG Version: 6.00 Build 0)  -->
<!DOCTYPE svg PUBLIC "-//W3C//DTD SVG 1.1//EN" "http://www.w3.org/Graphics/SVG/1.1/DTD/svg11.dtd">
<svg version="1.1" id="Layer_1" xmlns="http://www.w3.org/2000/svg" xmlns:xlink="http://www.w3.org/1999/xlink" x="0px" y="0px"
	 width="65.08px" height="53.44px" viewBox="0 0 65.08 53.44" enable-background="new 0 0 65.08 53.44" xml:space="preserve">
<g>
	<polygon fill="#FFFFFF" points="25.622,16.223 5.512,4.611 5.512,42.176 25.622,48.244 	"/>
	<polygon fill="#FFFFFF" points="27.833,16.3 27.833,48.257 48.075,42.171 48.075,4.612 	"/>
	<path fill="#FFFFFF" d="M63.862,3.661c0-1.315-1.066-2.38-2.378-2.38c-1.316,0-2.38,1.065-2.38,2.38v2.564h4.758V3.661z"/>
	<polygon fill="#FFFFFF" points="59.694,41.51 59.104,41.51 61.484,49.826 63.86,41.51 63.27,41.51 63.86,41.51 63.86,8.088 
		63.27,8.088 62.679,8.088 62.053,8.088 60.869,8.088 60.285,8.088 59.694,8.088 59.103,8.088 59.103,41.51 	"/>
	<polygon fill="#FFFFFF" points="52.395,6.225 50.239,4.521 50.239,43.195 27.894,50.416 26.859,50.416 26.655,50.416 
		25.622,50.416 3.376,44.201 3.376,4.521 1.219,6.225 1.219,45.713 25.52,52.44 26.655,52.44 26.859,52.44 27.994,52.44 
		50.414,45.322 52.395,44.74 	"/>
</g>
</svg>
