<?xml version="1.0" encoding="utf-8"?>
<!-- Generator: Adobe Illustrator 20.1.0, SVG Export Plug-In . SVG Version: 6.00 Build 0)  -->
<svg version="1.1" id="Layer_1" xmlns="http://www.w3.org/2000/svg" xmlns:xlink="http://www.w3.org/1999/xlink" x="0px" y="0px"
	 width="124.9px" height="53.4px" viewBox="0 0 124.9 53.4" style="enable-background:new 0 0 124.9 53.4;" xml:space="preserve">
<style type="text/css">
	.st0{fill:#F2F2F2;}
	.st1{fill:#F2F2F2;stroke:#FFFFFF;stroke-width:1.3067;stroke-linecap:round;stroke-miterlimit:10;}
</style>
<g>
	<path class="st0" d="M107.9,5.5c0-2.5,2-4.5,4.5-4.5c2.5,0,4.4,2,4.4,4.5c0,2.5-2,4.5-4.4,4.5C109.9,9.9,107.9,7.9,107.9,5.5"/>
	<path class="st0" d="M117.6,11.6c3,0.3,5.4,2.8,5.4,5.9V19v0.6v10.2c0,1-0.8,1.7-1.7,1.7c-1,0-1.7-0.8-1.7-1.7V19.3
		c0-0.4-0.1-0.9-0.8-0.9c-0.5,0-0.6,0.5-0.6,0.9V51c0,1.4-1.1,2.5-2.5,2.5s-2.5-1.1-2.5-2.5V32.7c0-0.2-0.1-0.7-0.7-0.7h0
		c-0.6,0-0.7,0.5-0.7,0.7V51c0,1.4-1.1,2.5-2.5,2.5c-1.4,0-2.5-1.1-2.5-2.5V19.2c0-0.3-0.1-0.9-0.6-0.9c-0.7,0-0.8,0.5-0.8,0.9v10.6
		c0,1-0.8,1.7-1.7,1.7c-1,0-1.7-0.8-1.7-1.7V19.7V19v-1.5c0-3.1,2.4-5.6,5.4-5.9c0.1,0,0.2,0,0.3,0h4.9h4.9
		C117.4,11.6,117.5,11.6,117.6,11.6"/>
</g>
<g>
	<path class="st0" d="M81.4,7.8c0-2.3-1.9-4.2-4.2-4.2c-2.3,0-4.2,1.9-4.2,4.2c0,2.3,1.9,4.2,4.2,4.2C79.6,12,81.4,10.1,81.4,7.8"/>
	<path class="st0" d="M68.7,17.4l-3.5,11.4c0,0-0.6,2.1,1.2,2.6c1.8,0.5,2.3-1.5,2.3-1.5l2.8-9.5c0,0,0.2-0.7,0.7-0.6
		c0.6,0.2,0.3,0.9,0.3,0.9l-4.9,17.9h4.6v12.8c0,1.2,1,2.2,2.2,2.2c1.2,0,2.2-1,2.2-2.2V38.6h0.6h0.6v12.8c0,1.2,1,2.2,2.2,2.2
		c1.2,0,2.2-1,2.2-2.2V38.6h4.6l-4.9-17.9c0,0-0.2-0.8,0.3-0.9c0.6-0.2,0.7,0.6,0.7,0.6l2.8,9.5c0,0,0.5,2,2.3,1.5
		c1.8-0.5,1.2-2.6,1.2-2.6l-3.5-11.4c0,0-1.3-3.3-4-3.3h-4.5h-4.5C70,14.1,68.7,17.4,68.7,17.4"/>
</g>
<g>
	<path class="st0" d="M56.2,7.8c0-2.3-1.9-4.2-4.2-4.2c-2.3,0-4.2,1.9-4.2,4.2c0,2.3,1.9,4.2,4.2,4.2C54.3,12,56.2,10.1,56.2,7.8"/>
	<path class="st0" d="M43.5,17.4L40,28.8c0,0-0.6,2.1,1.1,2.6c1.8,0.5,2.3-1.5,2.3-1.5l2.8-9.5c0,0,0.2-0.7,0.7-0.6
		c0.6,0.2,0.3,0.9,0.3,0.9l-4.9,17.9h4.6v12.8c0,1.2,1,2.2,2.2,2.2c1.2,0,2.2-1,2.2-2.2V38.6H52h0.6v12.8c0,1.2,1,2.2,2.2,2.2
		c1.2,0,2.2-1,2.2-2.2V38.6h4.6l-4.9-17.9c0,0-0.2-0.8,0.3-0.9c0.6-0.2,0.7,0.6,0.7,0.6l2.8,9.5c0,0,0.5,2,2.3,1.5
		c1.8-0.5,1.2-2.6,1.2-2.6l-3.5-11.4c0,0-1.2-3.3-4-3.3H52h-4.5C44.7,14.1,43.5,17.4,43.5,17.4"/>
</g>
<g>
	<path class="st0" d="M95.6,31.4c1.9,0,3.5-1.6,3.5-3.5c0-1.9-1.6-3.5-3.5-3.5c-1.9,0-3.5,1.6-3.5,3.5
		C92.1,29.8,93.7,31.4,95.6,31.4"/>
	<path class="st0" d="M87.2,42.3c-0.2,0.4-0.3,1.3,0.5,1.7c1,0.4,1.5-0.5,1.5-0.5l1.9-6.1c0,0,0.3-0.4,0.3,0v14.3h0
		c0,1,0.8,1.8,1.8,1.8c1,0,1.8-0.8,1.8-1.8v-5.7c0,0-0.1-0.8,0.5-0.8s0.5,0.8,0.5,0.8v5.7c0,1,0.8,1.8,1.8,1.8c1,0,1.8-0.8,1.8-1.8
		V37.4c0-0.4,0.2-0.1,0.2-0.1l1.5,4.2c0,0,0.7,1.9,0.8,1.9c0.7,0.3,1.5,0,1.7-0.7c0.2-0.4,0.1-0.9-0.1-1.3l0,0
		c0-0.1-2.2-5.5-2.5-6.3c-0.8-2.3-2.2-2.3-3.6-2.3c-1.4,0-2.2,0-2.2,0s-0.9,0-2.7,0c-1.8,0.1-2.4,1-4.4,6.2
		C88.2,39.7,87.2,42.2,87.2,42.3L87.2,42.3z"/>
</g>
<g>
	<g>
		<path class="st0" d="M18.5,5.5C18.5,3,16.5,1,14,1c-2.5,0-4.4,2-4.4,4.5c0,2.5,2,4.5,4.4,4.5C16.5,9.9,18.5,7.9,18.5,5.5"/>
		<path class="st0" d="M8.8,11.6c-3,0.3-5.4,2.8-5.4,5.9V19v0.6v10.2c0,1,0.8,1.7,1.7,1.7c1,0,1.7-0.8,1.7-1.7V19.3
			c0-0.4,0.1-0.9,0.8-0.9c0.5,0,0.6,0.5,0.6,0.9V51c0,1.4,1.1,2.5,2.5,2.5c1.4,0,2.5-1.1,2.5-2.5V32.7c0-0.2,0.1-0.7,0.7-0.7h0
			c0.6,0,0.7,0.5,0.7,0.7V51c0,1.4,1.1,2.5,2.5,2.5c1.4,0,2.5-1.1,2.5-2.5V19.2c0-0.3,0.1-0.9,0.6-0.9c0.7,0,0.8,0.5,0.8,0.9v10.6
			c0,1,0.8,1.7,1.7,1.7s1.7-0.8,1.7-1.7V19.7V19v-1.5c0-3.1-2.4-5.6-5.4-5.9c-0.1,0-0.2,0-0.3,0H14H9.2C9.1,11.6,8.9,11.6,8.8,11.6"
			/>
	</g>
	<line class="st1" x1="5" y1="31.7" x2="1" y2="52.7"/>
</g>
<g>
	<path class="st0" d="M26.8,29.6c-0.2-0.4-0.6-0.6-1.1-0.6c-0.7,0-1.3,0.6-1.3,1.3c0,0.2,0.1,0.6,0.1,0.6l3.5,6.4
		c0,0,0.2,0.4,0.2,0.8v13.8h0c0,1,0.8,1.7,1.7,1.7c1,0,1.7-0.8,1.7-1.7v-5.4c0,0-0.1-0.8,0.5-0.8c0.6,0,0.5,0.8,0.5,0.8v5.4
		c0,1,0.8,1.7,1.7,1.7c1,0,1.7-0.8,1.7-1.7V38.1c0-0.4,0.2-0.8,0.2-0.8l3.3-5.9c0,0,0.4-0.8,0.4-1.1c0-0.7-0.6-1.3-1.3-1.3
		c-0.5,0-0.9,0.2-1.1,0.6l0,0c-0.1,0.1-1.7,3-2.3,3.5c-0.6,0.6-1.1,0.5-1.1,0.5h-2.1h-2.1c0,0-0.5,0.1-1.1-0.5
		C28.5,32.6,26.9,29.6,26.8,29.6L26.8,29.6z"/>
	<path class="st0" d="M32.3,31.4c1.9,0,3.5-1.6,3.5-3.5c0-1.9-1.6-3.5-3.5-3.5c-1.9,0-3.5,1.6-3.5,3.5
		C28.8,29.8,30.3,31.4,32.3,31.4"/>
	<polygon class="st0" points="32.3,36.3 36.2,39.2 38.1,46.2 32.3,46.2 26.4,46.2 28.3,39.2 	"/>
</g>
</svg>
