<?xml version="1.0" encoding="utf-8"?>
<!-- Generator: Adobe Illustrator 16.0.0, SVG Export Plug-In . SVG Version: 6.00 Build 0)  -->
<!DOCTYPE svg PUBLIC "-//W3C//DTD SVG 1.1//EN" "http://www.w3.org/Graphics/SVG/1.1/DTD/svg11.dtd">
<svg version="1.1" id="Layer_1" xmlns="http://www.w3.org/2000/svg" xmlns:xlink="http://www.w3.org/1999/xlink" x="0px" y="0px"
	 width="49.231px" height="48.462px" viewBox="0 0 49.231 48.462" enable-background="new 0 0 49.231 48.462" xml:space="preserve">
<g>
	<path fill="#FFFFFF" d="M24.535,11.308c-7.125,0-12.902,5.777-12.902,12.903c0,7.13,5.777,12.905,12.902,12.905
		c7.126,0,12.903-5.775,12.903-12.905C37.438,17.085,31.661,11.308,24.535,11.308 M23.58,16.406c0-0.43,0.431-0.902,0.96-0.902
		c0.529,0,0.956,0.473,0.956,0.902v4.43c0,0.428-0.427,0.896-0.956,0.896c-0.529,0-0.96-0.468-0.96-0.896V16.406z M24.537,30.824
		c-3.707,0-6.711-3.004-6.711-6.711c0-3.013,1.983-5.561,4.717-6.41v2.499c-1.423,0.727-2.399,2.204-2.399,3.912
		c0,2.427,1.966,4.394,4.394,4.394s4.394-1.967,4.394-4.394c0-1.713-0.981-3.192-2.41-3.917v-2.496
		c2.739,0.846,4.729,3.396,4.729,6.414C31.249,27.82,28.245,30.824,24.537,30.824"/>
	<path fill="#FFFFFF" d="M9.723,24.099c0-0.585-0.519-1.059-0.992-1.059H3.081c-0.477,0-1,0.474-1,1.059
		c0,0.586,0.523,1.063,1,1.063h5.651C9.205,25.162,9.723,24.686,9.723,24.099"/>
	<path fill="#FFFFFF" d="M46.995,24.099c0-0.585-0.518-1.059-0.992-1.059h-5.65c-0.476,0-0.999,0.474-0.999,1.059
		c0,0.586,0.523,1.063,0.999,1.063h5.65C46.477,25.162,46.995,24.686,46.995,24.099"/>
	<path fill="#FFFFFF" d="M24.54,9.286c0.584,0,1.059-0.518,1.059-0.991V2.644c0-0.477-0.475-0.999-1.059-0.999
		c-0.586,0-1.063,0.522-1.063,0.999v5.651C23.477,8.768,23.954,9.286,24.54,9.286"/>
	<path fill="#FFFFFF" d="M24.54,46.557c0.584,0,1.059-0.519,1.059-0.992v-5.65c0-0.476-0.475-1-1.059-1
		c-0.586,0-1.063,0.524-1.063,1v5.65C23.477,46.039,23.954,46.557,24.54,46.557"/>
	<path fill="#FFFFFF" d="M11.681,16.74c0.291-0.508,0.077-1.177-0.334-1.412l-4.904-2.807c-0.414-0.237-1.103-0.085-1.394,0.422
		c-0.291,0.509-0.074,1.182,0.34,1.419l4.904,2.807C10.703,17.405,11.389,17.25,11.681,16.74"/>
	<path fill="#FFFFFF" d="M44.029,35.254c0.29-0.507,0.076-1.177-0.334-1.412l-4.904-2.807c-0.414-0.237-1.103-0.085-1.393,0.423
		c-0.292,0.508-0.074,1.183,0.339,1.419l4.904,2.806C43.052,35.919,43.738,35.763,44.029,35.254"/>
	<path fill="#FFFFFF" d="M31.899,11.244c0.508,0.29,1.175,0.076,1.411-0.334l2.807-4.904c0.237-0.414,0.085-1.104-0.422-1.394
		c-0.508-0.292-1.183-0.074-1.419,0.34l-2.807,4.904C31.233,10.266,31.389,10.953,31.899,11.244"/>
	<path fill="#FFFFFF" d="M13.385,43.592c0.507,0.29,1.176,0.076,1.411-0.335l2.807-4.904c0.237-0.414,0.085-1.104-0.422-1.394
		c-0.508-0.291-1.183-0.074-1.419,0.339l-2.807,4.904C12.72,42.613,12.876,43.301,13.385,43.592"/>
	<path fill="#FFFFFF" d="M17.154,11.257c0.507-0.292,0.66-0.977,0.424-1.388L14.761,4.97c-0.238-0.413-0.909-0.629-1.417-0.337
		c-0.509,0.292-0.661,0.983-0.422,1.396l2.816,4.898C15.975,11.337,16.645,11.549,17.154,11.257"/>
	<path fill="#FFFFFF" d="M35.734,43.567c0.507-0.292,0.66-0.978,0.424-1.387l-2.817-4.899c-0.238-0.413-0.909-0.63-1.417-0.338
		c-0.509,0.292-0.661,0.983-0.422,1.396l2.816,4.898C34.554,43.648,35.226,43.859,35.734,43.567"/>
	<path fill="#FFFFFF" d="M37.382,16.717c0.291,0.506,0.977,0.659,1.387,0.424l4.897-2.817c0.414-0.238,0.632-0.909,0.34-1.417
		c-0.292-0.508-0.983-0.661-1.396-0.423l-4.898,2.816C37.302,15.537,37.089,16.209,37.382,16.717"/>
	<path fill="#FFFFFF" d="M5.072,35.297c0.292,0.507,0.977,0.66,1.387,0.423l4.898-2.817c0.414-0.237,0.631-0.909,0.338-1.416
		c-0.291-0.509-0.983-0.661-1.396-0.424l-4.898,2.817C4.991,34.117,4.78,34.789,5.072,35.297"/>
</g>
</svg>
