<?xml version="1.0" encoding="utf-8"?>
<!-- Generator: Adobe Illustrator 16.0.0, SVG Export Plug-In . SVG Version: 6.00 Build 0)  -->
<!DOCTYPE svg PUBLIC "-//W3C//DTD SVG 1.1//EN" "http://www.w3.org/Graphics/SVG/1.1/DTD/svg11.dtd">
<svg version="1.1" id="Layer_1" xmlns="http://www.w3.org/2000/svg" xmlns:xlink="http://www.w3.org/1999/xlink" x="0px" y="0px"
	 width="124.868px" height="53.44px" viewBox="0 0 124.868 53.44" enable-background="new 0 0 124.868 53.44" xml:space="preserve">
<g>
	<path fill="#FFFFFF" d="M107.935,4.457c0-2.463,1.998-4.457,4.459-4.457c2.457,0,4.447,1.994,4.447,4.457
		c0,2.46-1.99,4.456-4.447,4.456C109.933,8.912,107.935,6.917,107.935,4.457"/>
	<path fill="#FFFFFF" d="M117.593,10.63c3.023,0.273,5.393,2.816,5.393,5.917v1.48v0.647v10.222c0,0.95-0.773,1.726-1.725,1.726
		c-0.959,0-1.729-0.776-1.729-1.726V18.29c0-0.398-0.115-0.937-0.844-0.937c-0.502,0-0.607,0.533-0.625,0.873v31.791
		c0,1.366-1.107,2.481-2.48,2.481s-2.486-1.115-2.486-2.481v-18.32c-0.006-0.202-0.074-0.728-0.703-0.728h-0.004
		c-0.633,0-0.709,0.525-0.717,0.728v18.32c0,1.366-1.105,2.481-2.479,2.481c-1.375,0-2.482-1.115-2.482-2.481V18.226
		c-0.016-0.339-0.125-0.873-0.623-0.873c-0.732,0-0.842,0.539-0.842,0.937v10.606c0,0.95-0.775,1.726-1.729,1.726
		c-0.955,0-1.725-0.776-1.725-1.726V18.674v-0.647v-1.48c0-3.101,2.371-5.643,5.398-5.917c0.098-0.013,0.207-0.027,0.326-0.027
		h4.875h4.861C117.382,10.603,117.488,10.617,117.593,10.63"/>
</g>
<g>
	<path fill="#FFFFFF" d="M81.443,6.796c0-2.33-1.884-4.223-4.215-4.223c-2.332,0-4.221,1.893-4.221,4.223
		c0,2.331,1.889,4.219,4.221,4.219C79.56,11.016,81.443,9.127,81.443,6.796"/>
	<path fill="#FFFFFF" d="M68.728,16.353l-3.507,11.416c0,0-0.625,2.093,1.15,2.615c1.767,0.523,2.303-1.52,2.303-1.52l2.828-9.528
		c0,0,0.153-0.733,0.704-0.574c0.552,0.158,0.345,0.942,0.345,0.942l-4.922,17.855h4.577v12.789c0,1.21,0.985,2.195,2.2,2.195
		c1.213,0,2.194-0.985,2.194-2.195V37.559h0.628h0.621v12.789c0,1.21,0.979,2.195,2.196,2.195c1.218,0,2.201-0.985,2.201-2.195
		V37.559h4.575l-4.918-17.855c0,0-0.207-0.784,0.343-0.942c0.552-0.159,0.705,0.574,0.705,0.574l2.827,9.528
		c0,0,0.538,2.043,2.302,1.52c1.779-0.522,1.151-2.615,1.151-2.615l-3.507-11.416c0,0-1.253-3.3-4.028-3.3h-4.469h-4.471
		C69.983,13.052,68.728,16.353,68.728,16.353"/>
</g>
<g>
	<path fill="#FFFFFF" d="M56.177,6.796c0-2.33-1.887-4.223-4.217-4.223c-2.332,0-4.219,1.893-4.219,4.223
		c0,2.331,1.887,4.219,4.219,4.219C54.29,11.016,56.177,9.127,56.177,6.796"/>
	<path fill="#FFFFFF" d="M43.459,16.353l-3.505,11.416c0,0-0.627,2.093,1.149,2.615c1.766,0.523,2.302-1.52,2.302-1.52l2.828-9.528
		c0,0,0.153-0.733,0.704-0.574c0.553,0.158,0.344,0.942,0.344,0.942l-4.92,17.855h4.576v12.789c0,1.21,0.988,2.195,2.2,2.195
		c1.215,0,2.196-0.985,2.196-2.195V37.559h0.63h0.619v12.789c0,1.21,0.978,2.195,2.197,2.195c1.218,0,2.198-0.985,2.198-2.195
		V37.559h4.577l-4.917-17.855c0,0-0.209-0.784,0.34-0.942c0.551-0.159,0.706,0.574,0.706,0.574l2.825,9.528
		c0,0,0.538,2.043,2.303,1.52c1.778-0.522,1.15-2.615,1.15-2.615l-3.507-11.416c0,0-1.25-3.3-4.026-3.3h-4.466H47.49
		C44.717,13.052,43.459,16.353,43.459,16.353"/>
</g>
<g>
	<path fill="#FFFFFF" d="M95.611,30.407c1.943,0,3.51-1.572,3.51-3.515c0-1.941-1.566-3.508-3.51-3.508
		c-1.942,0-3.511,1.567-3.511,3.508C92.1,28.835,93.669,30.407,95.611,30.407"/>
	<path fill="#FFFFFF" d="M87.192,41.316c-0.172,0.411-0.313,1.281,0.512,1.661c0.967,0.444,1.505-0.49,1.505-0.49l1.909-6.087
		c0,0,0.331-0.408,0.331,0.014v14.331h0.009c0,0.998,0.803,1.802,1.802,1.802c0.997,0,1.801-0.804,1.801-1.802v-5.655
		c0,0-0.104-0.799,0.54-0.799s0.545,0.799,0.545,0.799v5.655c0,0.998,0.809,1.802,1.805,1.802c0.994,0,1.805-0.804,1.805-1.802
		V36.413c0-0.421,0.223-0.121,0.223-0.121l1.496,4.168c0,0,0.65,1.863,0.85,1.945c0.676,0.284,1.455-0.039,1.74-0.72
		c0.188-0.444,0.115-0.921-0.143-1.281l0.014-0.013c-0.043-0.135-2.236-5.513-2.494-6.268c-0.793-2.312-2.234-2.292-3.621-2.33
		c-1.389-0.033-2.219,0-2.219,0s-0.887-0.036-2.72,0.018c-1.829,0.058-2.407,0.995-4.426,6.188
		c-0.288,0.748-1.263,3.168-1.275,3.313L87.192,41.316z"/>
</g>
<g>
	<g>
		<path fill="#FFFFFF" d="M18.501,4.457C18.501,1.994,16.502,0,14.042,0c-2.458,0-4.449,1.994-4.449,4.457
			c0,2.46,1.991,4.456,4.449,4.456C16.502,8.912,18.501,6.917,18.501,4.457"/>
		<path fill="#FFFFFF" d="M8.841,10.63c-3.021,0.273-5.394,2.816-5.394,5.917v1.48v0.647v10.222c0,0.95,0.774,1.726,1.729,1.726
			c0.955,0,1.728-0.776,1.728-1.726V18.29c0-0.398,0.115-0.937,0.843-0.937c0.502,0,0.606,0.533,0.628,0.873v31.791
			c0,1.366,1.104,2.481,2.479,2.481c1.372,0,2.481-1.115,2.481-2.481v-18.32c0.011-0.202,0.077-0.728,0.708-0.728h0.002
			c0.633,0,0.71,0.525,0.716,0.728v18.32c0,1.366,1.107,2.481,2.479,2.481c1.375,0,2.481-1.115,2.481-2.481V18.226
			c0.015-0.339,0.128-0.873,0.626-0.873c0.731,0,0.841,0.539,0.841,0.937v10.606c0,0.95,0.774,1.726,1.729,1.726
			s1.726-0.776,1.726-1.726V18.674v-0.647v-1.48c0-3.101-2.37-5.643-5.397-5.917c-0.101-0.013-0.207-0.027-0.327-0.027h-4.875H9.181
			C9.053,10.603,8.946,10.617,8.841,10.63"/>
	</g>
	
		<line fill="none" stroke="#FFFFFF" stroke-width="1.3067" stroke-linecap="round" stroke-miterlimit="10" x1="4.956" y1="30.691" x2="1" y2="51.66"/>
</g>
<g>
	<path fill="#FFFFFF" d="M26.757,28.567c-0.23-0.36-0.627-0.6-1.084-0.6c-0.705,0-1.279,0.574-1.279,1.276
		c0,0.204,0.125,0.562,0.125,0.562l3.54,6.406c0,0,0.217,0.441,0.217,0.845v13.756h0.007c0,0.96,0.774,1.73,1.731,1.73
		c0.955,0,1.726-0.771,1.726-1.73v-5.429c0,0-0.098-0.768,0.522-0.768c0.618,0,0.521,0.768,0.521,0.768v5.429
		c0,0.96,0.776,1.73,1.732,1.73c0.955,0,1.733-0.771,1.733-1.73V37.056c0-0.403,0.214-0.845,0.214-0.845l3.272-5.914
		c0,0,0.4-0.85,0.4-1.054c0-0.702-0.572-1.276-1.28-1.276c-0.463,0-0.858,0.24-1.083,0.6l-0.015-0.007
		c-0.103,0.088-1.741,3.007-2.282,3.547c-0.572,0.577-1.084,0.513-1.084,0.513h-2.13h-2.125c0,0-0.516,0.064-1.085-0.513
		c-0.548-0.541-2.18-3.459-2.284-3.547L26.757,28.567z"/>
	<path fill="#FFFFFF" d="M32.262,30.407c1.942,0,3.51-1.572,3.51-3.515c0-1.941-1.567-3.508-3.51-3.508
		c-1.941,0-3.51,1.567-3.51,3.508C28.752,28.835,30.32,30.407,32.262,30.407"/>
	<polygon fill="#FFFFFF" points="32.268,35.336 36.236,38.23 38.122,45.175 32.268,45.175 26.408,45.175 28.299,38.23 	"/>
</g>
<g>
	<path fill="#FFFFFF" d="M107.935,4.457c0-2.463,1.998-4.457,4.459-4.457c2.457,0,4.447,1.994,4.447,4.457
		c0,2.46-1.99,4.456-4.447,4.456C109.933,8.912,107.935,6.917,107.935,4.457"/>
	<path fill="#FFFFFF" d="M117.593,10.63c3.023,0.273,5.393,2.816,5.393,5.917v1.48v0.647v10.222c0,0.95-0.773,1.726-1.725,1.726
		c-0.959,0-1.729-0.776-1.729-1.726V18.29c0-0.398-0.115-0.937-0.844-0.937c-0.502,0-0.607,0.533-0.625,0.873v31.791
		c0,1.366-1.107,2.481-2.48,2.481s-2.486-1.115-2.486-2.481v-18.32c-0.006-0.202-0.074-0.728-0.703-0.728h-0.004
		c-0.633,0-0.709,0.525-0.717,0.728v18.32c0,1.366-1.105,2.481-2.479,2.481c-1.375,0-2.482-1.115-2.482-2.481V18.226
		c-0.016-0.339-0.125-0.873-0.623-0.873c-0.732,0-0.842,0.539-0.842,0.937v10.606c0,0.95-0.775,1.726-1.729,1.726
		c-0.955,0-1.725-0.776-1.725-1.726V18.674v-0.647v-1.48c0-3.101,2.371-5.643,5.398-5.917c0.098-0.013,0.207-0.027,0.326-0.027
		h4.875h4.861C117.382,10.603,117.488,10.617,117.593,10.63"/>
</g>
<g>
	<path fill="#FFFFFF" d="M81.443,6.796c0-2.33-1.884-4.223-4.215-4.223c-2.332,0-4.221,1.893-4.221,4.223
		c0,2.331,1.889,4.219,4.221,4.219C79.56,11.016,81.443,9.127,81.443,6.796"/>
	<path fill="#FFFFFF" d="M68.728,16.353l-3.507,11.416c0,0-0.625,2.093,1.15,2.615c1.767,0.523,2.303-1.52,2.303-1.52l2.828-9.528
		c0,0,0.153-0.733,0.704-0.574c0.552,0.158,0.345,0.942,0.345,0.942l-4.922,17.855h4.577v12.789c0,1.21,0.985,2.195,2.2,2.195
		c1.213,0,2.194-0.985,2.194-2.195V37.559h0.628h0.621v12.789c0,1.21,0.979,2.195,2.196,2.195c1.218,0,2.201-0.985,2.201-2.195
		V37.559h4.575l-4.918-17.855c0,0-0.207-0.784,0.343-0.942c0.552-0.159,0.705,0.574,0.705,0.574l2.827,9.528
		c0,0,0.538,2.043,2.302,1.52c1.779-0.522,1.151-2.615,1.151-2.615l-3.507-11.416c0,0-1.253-3.3-4.028-3.3h-4.469h-4.471
		C69.983,13.052,68.728,16.353,68.728,16.353"/>
</g>
<g>
	<path fill="#FFFFFF" d="M56.177,6.796c0-2.33-1.887-4.223-4.217-4.223c-2.332,0-4.219,1.893-4.219,4.223
		c0,2.331,1.887,4.219,4.219,4.219C54.29,11.016,56.177,9.127,56.177,6.796"/>
	<path fill="#FFFFFF" d="M43.459,16.353l-3.505,11.416c0,0-0.627,2.093,1.149,2.615c1.766,0.523,2.302-1.52,2.302-1.52l2.828-9.528
		c0,0,0.153-0.733,0.704-0.574c0.553,0.158,0.344,0.942,0.344,0.942l-4.92,17.855h4.576v12.789c0,1.21,0.988,2.195,2.2,2.195
		c1.215,0,2.196-0.985,2.196-2.195V37.559h0.63h0.619v12.789c0,1.21,0.978,2.195,2.197,2.195c1.218,0,2.198-0.985,2.198-2.195
		V37.559h4.577l-4.917-17.855c0,0-0.209-0.784,0.34-0.942c0.551-0.159,0.706,0.574,0.706,0.574l2.825,9.528
		c0,0,0.538,2.043,2.303,1.52c1.778-0.522,1.15-2.615,1.15-2.615l-3.507-11.416c0,0-1.25-3.3-4.026-3.3h-4.466H47.49
		C44.717,13.052,43.459,16.353,43.459,16.353"/>
</g>
<g>
	<path fill="#FFFFFF" d="M95.611,30.407c1.943,0,3.51-1.572,3.51-3.515c0-1.941-1.566-3.508-3.51-3.508
		c-1.942,0-3.511,1.567-3.511,3.508C92.1,28.835,93.669,30.407,95.611,30.407"/>
	<path fill="#FFFFFF" d="M87.192,41.316c-0.172,0.411-0.313,1.281,0.512,1.661c0.967,0.444,1.505-0.49,1.505-0.49l1.909-6.087
		c0,0,0.331-0.408,0.331,0.014v14.331h0.009c0,0.998,0.803,1.802,1.802,1.802c0.997,0,1.801-0.804,1.801-1.802v-5.655
		c0,0-0.104-0.799,0.54-0.799s0.545,0.799,0.545,0.799v5.655c0,0.998,0.809,1.802,1.805,1.802c0.994,0,1.805-0.804,1.805-1.802
		V36.413c0-0.421,0.223-0.121,0.223-0.121l1.496,4.168c0,0,0.65,1.863,0.85,1.945c0.676,0.284,1.455-0.039,1.74-0.72
		c0.188-0.444,0.115-0.921-0.143-1.281l0.014-0.013c-0.043-0.135-2.236-5.513-2.494-6.268c-0.793-2.312-2.234-2.292-3.621-2.33
		c-1.389-0.033-2.219,0-2.219,0s-0.887-0.036-2.72,0.018c-1.829,0.058-2.407,0.995-4.426,6.188
		c-0.288,0.748-1.263,3.168-1.275,3.313L87.192,41.316z"/>
</g>
<g>
	<g>
		<path fill="#FFFFFF" d="M18.501,4.457C18.501,1.994,16.502,0,14.042,0c-2.458,0-4.449,1.994-4.449,4.457
			c0,2.46,1.991,4.456,4.449,4.456C16.502,8.912,18.501,6.917,18.501,4.457"/>
		<path fill="#FFFFFF" d="M8.841,10.63c-3.021,0.273-5.394,2.816-5.394,5.917v1.48v0.647v10.222c0,0.95,0.774,1.726,1.729,1.726
			c0.955,0,1.728-0.776,1.728-1.726V18.29c0-0.398,0.115-0.937,0.843-0.937c0.502,0,0.606,0.533,0.628,0.873v31.791
			c0,1.366,1.104,2.481,2.479,2.481c1.372,0,2.481-1.115,2.481-2.481v-18.32c0.011-0.202,0.077-0.728,0.708-0.728h0.002
			c0.633,0,0.71,0.525,0.716,0.728v18.32c0,1.366,1.107,2.481,2.479,2.481c1.375,0,2.481-1.115,2.481-2.481V18.226
			c0.015-0.339,0.128-0.873,0.626-0.873c0.731,0,0.841,0.539,0.841,0.937v10.606c0,0.95,0.774,1.726,1.729,1.726
			s1.726-0.776,1.726-1.726V18.674v-0.647v-1.48c0-3.101-2.37-5.643-5.397-5.917c-0.101-0.013-0.207-0.027-0.327-0.027h-4.875H9.181
			C9.053,10.603,8.946,10.617,8.841,10.63"/>
	</g>
	
		<line fill="none" stroke="#FFFFFF" stroke-width="1.3067" stroke-linecap="round" stroke-miterlimit="10" x1="4.956" y1="30.691" x2="1" y2="51.66"/>
</g>
<g>
	<path fill="#FFFFFF" d="M26.757,28.567c-0.23-0.36-0.627-0.6-1.084-0.6c-0.705,0-1.279,0.574-1.279,1.276
		c0,0.204,0.125,0.562,0.125,0.562l3.54,6.406c0,0,0.217,0.441,0.217,0.845v13.756h0.007c0,0.96,0.774,1.73,1.731,1.73
		c0.955,0,1.726-0.771,1.726-1.73v-5.429c0,0-0.098-0.768,0.522-0.768c0.618,0,0.521,0.768,0.521,0.768v5.429
		c0,0.96,0.776,1.73,1.732,1.73c0.955,0,1.733-0.771,1.733-1.73V37.056c0-0.403,0.214-0.845,0.214-0.845l3.272-5.914
		c0,0,0.4-0.85,0.4-1.054c0-0.702-0.572-1.276-1.28-1.276c-0.463,0-0.858,0.24-1.083,0.6l-0.015-0.007
		c-0.103,0.088-1.741,3.007-2.282,3.547c-0.572,0.577-1.084,0.513-1.084,0.513h-2.13h-2.125c0,0-0.516,0.064-1.085-0.513
		c-0.548-0.541-2.18-3.459-2.284-3.547L26.757,28.567z"/>
	<path fill="#FFFFFF" d="M32.262,30.407c1.942,0,3.51-1.572,3.51-3.515c0-1.941-1.567-3.508-3.51-3.508
		c-1.941,0-3.51,1.567-3.51,3.508C28.752,28.835,30.32,30.407,32.262,30.407"/>
	<polygon fill="#FFFFFF" points="32.268,35.336 36.236,38.23 38.122,45.175 32.268,45.175 26.408,45.175 28.299,38.23 	"/>
</g>
</svg>
