<?xml version="1.0" encoding="utf-8"?>
<!-- Generator: Adobe Illustrator 16.0.0, SVG Export Plug-In . SVG Version: 6.00 Build 0)  -->
<!DOCTYPE svg PUBLIC "-//W3C//DTD SVG 1.1//EN" "http://www.w3.org/Graphics/SVG/1.1/DTD/svg11.dtd">
<svg version="1.1" id="Layer_1" xmlns="http://www.w3.org/2000/svg" xmlns:xlink="http://www.w3.org/1999/xlink" x="0px" y="0px"
	 width="49.231px" height="48.462px" viewBox="0 0 49.231 48.462" enable-background="new 0 0 49.231 48.462" xml:space="preserve">
<g>
	<path fill="#FFFFFF" d="M16.867,27.917c0.117,0,0.212,0.095,0.212,0.212v6.996c0,0.119-0.095,0.213-0.212,0.213h-2.831
		c-0.118,0-0.213-0.094-0.213-0.213V28.13c0-0.117,0.095-0.212,0.213-0.212H16.867z"/>
	<path fill="#FFFFFF" d="M47.956,38.342H1.303c-0.117,0-0.213,0.1-0.213,0.219v2.851c0,0.116,0.096,0.21,0.213,0.21h46.653
		c0.115,0,0.213-0.094,0.213-0.21v-2.851C48.169,38.442,48.071,38.342,47.956,38.342"/>
	<path fill="#FFFFFF" d="M47.956,44.009H1.303c-0.117,0-0.213,0.094-0.213,0.21v2.86c0,0.114,0.096,0.21,0.213,0.21h46.653
		c0.115,0,0.213-0.096,0.213-0.21v-2.86C48.169,44.103,48.071,44.009,47.956,44.009"/>
	<path fill="#FFFFFF" d="M39.079,20.174c-0.583-0.456-2.139-1.521-4.036-1.521c-1.356,0-2.617,0.534-3.746,1.592
		c-0.08,0.076-0.125,0.181-0.125,0.292v0.254c0,0.125,0.042,0.242,0.133,0.319c0.101,0.077,0.208,0.105,0.329,0.077
		c0.027-0.004,0.06-0.013,0.087-0.023c0.086-0.03,0.167-0.082,0.233-0.147c0.245-0.165,0.914-0.389,1.869-0.389
		c0.988,0,2.93,0.265,4.807,2.015l0.043,0.039c0.105,0.109,0.251,0.169,0.406,0.169c0.147,0,0.299-0.062,0.395-0.165l0.038-0.04
		c1.887-1.752,3.826-2.018,4.813-2.018c0.963,0,1.628,0.224,1.873,0.389c0.067,0.066,0.149,0.119,0.258,0.158
		c0.042,0.013,0.161,0.036,0.273,0.008c0.173-0.048,0.294-0.204,0.294-0.384v-0.225c0-0.106-0.046-0.214-0.125-0.289
		c-1.139-1.086-2.414-1.635-3.792-1.635C41.226,18.651,39.678,19.699,39.079,20.174"/>
	<path fill="#FFFFFF" d="M36.183,1.58c-0.099,0.046-0.171,0.137-0.204,0.246l-0.047,0.156c-0.035,0.123-0.013,0.251,0.061,0.351
		c0.072,0.095,0.175,0.152,0.289,0.157c0.021,0.003,0.042,0.008,0.058,0.003c0.082-0.003,0.154-0.02,0.226-0.058
		c0.041-0.008,0.127-0.031,0.283-0.031c0.208,0,2.089,0.063,3.333,2.177l0.016,0.03c0.067,0.123,0.173,0.207,0.298,0.239
		c0.037,0.012,0.105,0.023,0.149,0.023c0.086,0,0.173-0.023,0.235-0.058l0.031-0.015c0.68-0.34,1.385-0.515,2.081-0.515
		c1.179,0,1.948,0.48,2.128,0.681c0.037,0.068,0.093,0.127,0.156,0.174c0.04,0.023,0.109,0.058,0.151,0.073
		c0.021,0.005,0.045,0.008,0.069,0.01c0.013,0.003,0.028,0.003,0.042,0.003c0.063,0,0.125-0.016,0.185-0.046
		c0.096-0.048,0.167-0.135,0.199-0.239l0.039-0.137c0.012-0.035,0.016-0.073,0.016-0.113c0-0.073-0.019-0.144-0.055-0.201
		c-0.906-1.573-2.22-1.902-3.164-1.902c-0.703,0-1.317,0.182-1.679,0.315c-0.428-0.575-1.507-1.763-3.146-1.763
		C37.356,1.137,36.769,1.285,36.183,1.58"/>
	<path fill="#FFFFFF" d="M26.326,8.758l0.013,0.21c0.006,0.131,0.076,0.244,0.187,0.314c0.092,0.058,0.21,0.078,0.313,0.047
		c0.023-0.005,0.049-0.014,0.069-0.021c0.08-0.033,0.148-0.084,0.202-0.149c0.198-0.143,0.837-0.404,1.779-0.404
		c0.906,0,2.284,0.242,3.688,1.395l0.033,0.034c0.101,0.087,0.229,0.136,0.36,0.136h0.034c0.147-0.011,0.283-0.079,0.366-0.176
		l0.031-0.035c1.555-1.645,3.23-1.89,4.09-1.89c0.613,0,1.047,0.126,1.216,0.222c0.064,0.055,0.144,0.099,0.243,0.126
		c0.028,0.006,0.097,0.019,0.171,0.011c0.03-0.003,0.068-0.014,0.098-0.023c0.167-0.059,0.276-0.221,0.265-0.401l-0.01-0.183
		c-0.007-0.108-0.058-0.207-0.141-0.277c-0.928-0.781-1.93-1.174-2.984-1.174c-1.641,0-2.95,0.969-3.492,1.444
		c-0.496-0.338-1.7-1.033-3.113-1.033c-1.241,0-2.354,0.516-3.31,1.529C26.359,8.539,26.321,8.648,26.326,8.758"/>
	<path fill="#FFFFFF" d="M2.717,12.502c0-2.793,2.265-5.057,5.058-5.057c0.109,0,0.216,0.009,0.324,0.016
		c0.267-3.535,3.212-6.324,6.816-6.324c3.78,0,6.844,3.063,6.844,6.843c0,1.071-0.253,2.08-0.692,2.982
		c3.425,0.759,5.989,3.809,5.989,7.461c0,4.223-3.424,7.647-7.647,7.647c-0.309,0-10.206-0.06-10.206-0.06l0,0
		c-2.991-0.001-5.416-2.424-5.416-5.415c0-1.437,0.563-2.738,1.477-3.708C3.744,16.017,2.717,14.381,2.717,12.502z"/>
</g>
</svg>
