<?xml version="1.0" encoding="utf-8"?>
<!-- Generator: Adobe Illustrator 16.0.0, SVG Export Plug-In . SVG Version: 6.00 Build 0)  -->
<!DOCTYPE svg PUBLIC "-//W3C//DTD SVG 1.1//EN" "http://www.w3.org/Graphics/SVG/1.1/DTD/svg11.dtd">
<svg version="1.1" id="Layer_1" xmlns="http://www.w3.org/2000/svg" xmlns:xlink="http://www.w3.org/1999/xlink" x="0px" y="0px"
	 width="49.231px" height="48.462px" viewBox="0 0 49.231 48.462" enable-background="new 0 0 49.231 48.462" xml:space="preserve">
<g>
	<g>
		<path fill="#FFFFFF" d="M1.306,33.191h0.106h10.258c0.141,0,0.254-0.114,0.254-0.255c0-0.064-0.027-0.124-0.066-0.169
			l-0.015-0.015L6.688,26.08l-0.05-0.055c-0.047-0.051-0.114-0.083-0.188-0.083c-0.064,0-0.122,0.026-0.167,0.065l-0.031,0.036
			l-0.048,0.055L1.172,32.7l-0.077,0.094c-0.028,0.04-0.043,0.089-0.043,0.142C1.052,33.077,1.166,33.191,1.306,33.191z"/>
		<path fill="#FFFFFF" d="M11.64,34.132H1.254C1.114,34.132,1,34.246,1,34.386v8.127c0,0.14,0.114,0.255,0.254,0.255h3.343v-5.113
			c0-0.142,0.113-0.254,0.254-0.254h3.103c0.14,0,0.254,0.113,0.254,0.254v5.113h3.432c0.14,0,0.254-0.115,0.254-0.255v-8.127
			C11.894,34.246,11.78,34.132,11.64,34.132z"/>
	</g>
	<path fill="#FFFFFF" d="M47.533,32.004H37.254c-0.138,0-0.25,0.108-0.25,0.245v10.379c0,0.135,0.112,0.245,0.25,0.245h10.279
		c0.14,0,0.252-0.109,0.252-0.245V32.249C47.785,32.112,47.673,32.004,47.533,32.004 M41.91,38.78c0,0.137-0.113,0.246-0.251,0.246
		h-3.071c-0.14,0-0.252-0.109-0.252-0.246v-1.865c0-0.137,0.112-0.246,0.252-0.246h3.071c0.139,0,0.251,0.109,0.251,0.246V38.78z
		 M41.91,35.332c0,0.135-0.113,0.245-0.251,0.245h-3.071c-0.14,0-0.252-0.109-0.252-0.245v-1.868c0-0.135,0.112-0.244,0.252-0.244
		h3.071c0.139,0,0.251,0.109,0.251,0.244V35.332z M46.603,38.78c0,0.137-0.112,0.246-0.251,0.246h-3.07
		c-0.14,0-0.252-0.109-0.252-0.246v-1.865c0-0.137,0.112-0.246,0.252-0.246h3.07c0.139,0,0.251,0.109,0.251,0.246V38.78z
		 M46.603,35.332c0,0.135-0.112,0.245-0.251,0.245h-3.07c-0.14,0-0.252-0.109-0.252-0.245v-1.868c0-0.135,0.112-0.244,0.252-0.244
		h3.07c0.139,0,0.251,0.109,0.251,0.244V35.332z"/>
	<path fill="#FFFFFF" d="M23.639,7.911H13.58c-0.135,0-0.246,0.109-0.246,0.247v34.378c0,0.136,0.111,0.246,0.246,0.246h10.06
		c0.134,0,0.248-0.11,0.248-0.246V8.158C23.887,8.021,23.773,7.911,23.639,7.911 M17.655,38.866c0,0.073-0.059,0.132-0.132,0.132
		H15.22c-0.073,0-0.132-0.06-0.132-0.132v-2.566c0-0.073,0.059-0.132,0.132-0.132h2.303c0.073,0,0.132,0.059,0.132,0.132V38.866z
		 M17.655,32.97c0,0.075-0.059,0.132-0.132,0.132H15.22c-0.073,0-0.132-0.058-0.132-0.132v-2.565c0-0.074,0.059-0.132,0.132-0.132
		h2.303c0.073,0,0.132,0.058,0.132,0.132V32.97z M17.655,27.077c0,0.073-0.059,0.132-0.132,0.132H15.22
		c-0.073,0-0.132-0.059-0.132-0.132v-2.568c0-0.072,0.059-0.132,0.132-0.132h2.303c0.073,0,0.132,0.06,0.132,0.132V27.077z
		 M17.655,21.182c0,0.073-0.059,0.132-0.132,0.132H15.22c-0.073,0-0.132-0.06-0.132-0.132v-2.567c0-0.072,0.059-0.131,0.132-0.131
		h2.303c0.073,0,0.132,0.059,0.132,0.131V21.182z M17.655,15.289c0,0.071-0.059,0.131-0.132,0.131H15.22
		c-0.073,0-0.132-0.06-0.132-0.131V12.72c0-0.073,0.059-0.132,0.132-0.132h2.303c0.073,0,0.132,0.059,0.132,0.132V15.289z
		 M22.172,38.866c0,0.073-0.059,0.132-0.133,0.132h-2.302c-0.074,0-0.132-0.06-0.132-0.132v-2.566c0-0.073,0.058-0.132,0.132-0.132
		h2.302c0.074,0,0.133,0.059,0.133,0.132V38.866z M22.172,32.97c0,0.075-0.059,0.132-0.133,0.132h-2.302
		c-0.074,0-0.132-0.058-0.132-0.132v-2.565c0-0.074,0.058-0.132,0.132-0.132h2.302c0.074,0,0.133,0.058,0.133,0.132V32.97z
		 M22.172,27.077c0,0.073-0.059,0.132-0.133,0.132h-2.302c-0.074,0-0.132-0.059-0.132-0.132v-2.568c0-0.072,0.058-0.132,0.132-0.132
		h2.302c0.074,0,0.133,0.06,0.133,0.132V27.077z M22.172,21.182c0,0.073-0.059,0.132-0.133,0.132h-2.302
		c-0.074,0-0.132-0.06-0.132-0.132v-2.567c0-0.072,0.058-0.131,0.132-0.131h2.302c0.074,0,0.133,0.059,0.133,0.131V21.182z
		 M22.172,15.289c0,0.071-0.059,0.131-0.133,0.131h-2.302c-0.074,0-0.132-0.06-0.132-0.131V12.72c0-0.073,0.058-0.132,0.132-0.132
		h2.302c0.074,0,0.133,0.059,0.133,0.132V15.289z"/>
	<path fill="#FFFFFF" d="M47.773,30.96c0,0.116-0.092,0.208-0.207,0.208H37.221c-0.113,0-0.207-0.092-0.207-0.208v-2.069
		c0-0.114,0.094-0.206,0.207-0.206h10.346c0.115,0,0.207,0.092,0.207,0.206V30.96z"/>
	<path fill="#FFFFFF" d="M35.79,14.404c-0.034-0.11-0.132-0.193-0.252-0.193c-0.054,0-0.102,0.02-0.144,0.048
		c-0.006,0.004-0.012,0.007-0.019,0.012l-0.084,0.107L25.403,26.92l-0.046,0.061c-0.051,0.05-0.083,0.119-0.085,0.196v0.017v15.395
		c0,0.136,0.11,0.245,0.247,0.245h10.049c0.136,0,0.246-0.109,0.246-0.245V14.506C35.813,14.469,35.804,14.434,35.79,14.404z
		 M31.627,21.214l0.07-0.088c0.677-0.869,1.817-2.272,2.373-2.954l0.072-0.087c0.053-0.063,0.132-0.104,0.222-0.104
		c0.137,0,0.247,0.1,0.274,0.23v0.111v0.09v2.971c0,0.153-0.122,0.276-0.273,0.283c-0.005,0-0.009,0.002-0.013,0.002
		c-0.004,0-0.008-0.002-0.013-0.002h-2.348H31.87c-0.005,0-0.009,0.002-0.013,0.002c-0.004,0-0.008-0.002-0.012-0.002
		c-0.151-0.007-0.273-0.13-0.273-0.283C31.571,21.32,31.592,21.262,31.627,21.214z M30.063,38.779c0,0.135-0.11,0.246-0.246,0.246
		h-2.998c-0.136,0-0.246-0.11-0.246-0.246v-1.877c0-0.136,0.11-0.246,0.246-0.246h2.998c0.136,0,0.246,0.11,0.246,0.246V38.779z
		 M30.063,35.312c0,0.137-0.11,0.246-0.246,0.246h-2.998c-0.136,0-0.246-0.109-0.246-0.246v-1.877c0-0.137,0.11-0.246,0.246-0.246
		h2.998c0.136,0,0.246,0.108,0.246,0.246V35.312z M30.063,31.844c0,0.134-0.11,0.244-0.246,0.244h-2.998
		c-0.136,0-0.246-0.11-0.246-0.244v-1.878c0-0.136,0.11-0.246,0.246-0.246h2.998c0.136,0,0.246,0.109,0.246,0.246V31.844z
		 M30.071,24.246v0.09v4.044c0,0.136-0.111,0.246-0.246,0.246h-2.998c-0.137,0-0.247-0.109-0.247-0.246v-0.5v-0.021
		c0.001-0.033,0.007-0.063,0.018-0.092c0.005-0.01,0.006-0.014,0.016-0.029c0.006-0.012,0.014-0.022,0.022-0.032
		c0.007-0.012,0.019-0.027,0.028-0.041c0.383-0.549,2.112-2.679,2.838-3.569l0.073-0.088c0.053-0.063,0.132-0.104,0.221-0.104
		c0.138,0,0.248,0.101,0.274,0.23V24.246z M34.646,38.779c0,0.135-0.111,0.246-0.246,0.246h-2.998c-0.137,0-0.248-0.11-0.248-0.246
		v-1.877c0-0.136,0.11-0.246,0.248-0.246H34.4c0.134,0,0.246,0.11,0.246,0.246V38.779z M34.646,35.312
		c0,0.137-0.111,0.246-0.246,0.246h-2.998c-0.137,0-0.248-0.109-0.248-0.246v-1.877c0-0.137,0.11-0.246,0.248-0.246H34.4
		c0.134,0,0.246,0.108,0.246,0.246V35.312z M34.646,31.844c0,0.134-0.111,0.244-0.246,0.244h-2.998c-0.137,0-0.248-0.11-0.248-0.244
		v-1.878c0-0.136,0.11-0.246,0.248-0.246H34.4c0.134,0,0.246,0.109,0.246,0.246V31.844z M34.646,28.376
		c0,0.135-0.111,0.245-0.246,0.245h-2.998c-0.137,0-0.248-0.109-0.248-0.245V26.5c0-0.137,0.11-0.246,0.248-0.246H34.4
		c0.134,0,0.246,0.109,0.246,0.246V28.376z M34.646,24.907c0,0.136-0.111,0.246-0.246,0.246h-2.998c-0.137,0-0.248-0.11-0.248-0.246
		v-1.876c0-0.137,0.11-0.247,0.248-0.247H34.4c0.134,0,0.246,0.109,0.246,0.247V24.907z"/>
</g>
</svg>
