<?xml version="1.0" encoding="utf-8"?>
<!-- Generator: Adobe Illustrator 16.0.0, SVG Export Plug-In . SVG Version: 6.00 Build 0)  -->
<!DOCTYPE svg PUBLIC "-//W3C//DTD SVG 1.1//EN" "http://www.w3.org/Graphics/SVG/1.1/DTD/svg11.dtd">
<svg version="1.1" id="Layer_1" xmlns="http://www.w3.org/2000/svg" xmlns:xlink="http://www.w3.org/1999/xlink" x="0px" y="0px"
	 width="41.005px" height="53.44px" viewBox="0 0 41.005 53.44" enable-background="new 0 0 41.005 53.44" xml:space="preserve">
<path fill="#FFFFFF" d="M38.659,0.688c-0.086-0.094-0.203-0.146-0.334-0.146H1.43c-0.127,0-0.245,0.052-0.331,0.146
	c-0.081,0.103-0.113,0.23-0.093,0.349l6.199,37.489c0.034,0.208,0.215,0.362,0.425,0.362h7.607l0.521,6.106l-3.201,0.003
	l7.449,7.449l7.466-7.466l-3.2,0.004l0.52-6.096h7.742c0.213,0,0.392-0.154,0.423-0.368l5.799-37.483
	C38.775,0.909,38.738,0.786,38.659,0.688z M24.399,30.702c0,0-1.676,1.722-4.403,1.536c-2.732,0.187-4.407-1.536-4.407-1.536
	c-2.764-2.762-1.778-6.197-0.815-7.973c0.594-1.112,4.841-7.49,5.206-8.032v-0.043c0,0,0.006,0.008,0.017,0.021l0.015-0.021v0.043
	c0.356,0.542,4.609,6.919,5.204,8.032C26.178,24.504,27.161,27.94,24.399,30.702z M36.103,8.576c-1-0.44-2.268-0.281-3.485,0.212
	c-4.578,1.855-7.693,2.522-12.508,1.015c-3.032-0.949-5.869-2.937-9.223-1.727C8.662,8.876,6.588,9.64,4.072,9.621L2.619,2.17
	h34.529L36.103,8.576z"/>
</svg>
