<?xml version="1.0" encoding="utf-8"?>
<!-- Generator: Adobe Illustrator 16.0.0, SVG Export Plug-In . SVG Version: 6.00 Build 0)  -->
<!DOCTYPE svg PUBLIC "-//W3C//DTD SVG 1.1//EN" "http://www.w3.org/Graphics/SVG/1.1/DTD/svg11.dtd">
<svg version="1.1" id="Layer_1" xmlns="http://www.w3.org/2000/svg" xmlns:xlink="http://www.w3.org/1999/xlink" x="0px" y="0px"
	 width="75.097px" height="53.44px" viewBox="0 0 75.097 53.44" enable-background="new 0 0 75.097 53.44" xml:space="preserve">
<g>
	<path fill="#FFFFFF" d="M75.097,28.219c0-3.152-2.021-5.707-5.084-5.707c-1.532,0-3.379,1.678-4.382,2.708
		c-1.003-1.033-2.728-2.711-4.26-2.711c-3.063,0-5.209,2.555-5.209,5.708c0,1.576,0.621,3.002,1.625,4.036l0,0l7.851,7.865
		l7.841-7.857l-0.006-0.006C74.477,31.223,75.097,29.796,75.097,28.219z"/>
	<g>
		<path fill="#FFFFFF" d="M41.671,52.96c-0.026,0-0.053,0-0.081-0.002c-0.596-0.037-1.089-0.479-1.19-1.07l-3.988-23.226
			l-6.041,11.201c-0.265,0.49-0.817,0.754-1.36,0.657c-0.549-0.098-0.971-0.536-1.051-1.086l-2.564-17.925l-4.692,10.539
			c-0.207,0.465-0.668,0.764-1.178,0.764H1.289C0.577,32.812,0,32.235,0,31.523s0.577-1.29,1.289-1.29h17.4l6.17-13.862
			c0.235-0.524,0.788-0.831,1.357-0.752c0.569,0.079,1.017,0.525,1.099,1.094l2.644,18.483l5.958-11.045
			c0.261-0.485,0.8-0.751,1.344-0.661c0.542,0.089,0.968,0.512,1.062,1.054l3.693,21.511l13.459-44.71
			c0.154-0.509,0.604-0.872,1.133-0.914c0.532-0.039,1.032,0.246,1.263,0.724l7.083,14.683c0.309,0.641,0.04,1.412-0.601,1.721
			c-0.641,0.31-1.413,0.04-1.722-0.601L56.988,5.262L42.905,52.042C42.74,52.59,42.236,52.96,41.671,52.96z"/>
	</g>
</g>
</svg>
