<?xml version="1.0" encoding="utf-8"?>
<!-- Generator: Adobe Illustrator 16.0.0, SVG Export Plug-In . SVG Version: 6.00 Build 0)  -->
<!DOCTYPE svg PUBLIC "-//W3C//DTD SVG 1.1//EN" "http://www.w3.org/Graphics/SVG/1.1/DTD/svg11.dtd">
<svg version="1.1" id="Layer_1" xmlns="http://www.w3.org/2000/svg" xmlns:xlink="http://www.w3.org/1999/xlink" x="0px" y="0px"
	 width="49.231px" height="48.462px" viewBox="0 0 49.231 48.462" enable-background="new 0 0 49.231 48.462" xml:space="preserve">
<path fill="#FFFFFF" d="M46.389,26.709l-10.356-5.977V8.776c0-0.252-0.134-0.486-0.353-0.612L24.974,1.983
	c-0.219-0.125-0.487-0.125-0.706,0L13.56,8.164c-0.219,0.126-0.353,0.36-0.353,0.612v11.956L2.853,26.709
	C2.634,26.835,2.5,27.069,2.5,27.321v12.365c0,0.252,0.134,0.486,0.353,0.612l10.707,6.18c0.11,0.063,0.231,0.095,0.354,0.095
	s0.244-0.032,0.353-0.095l10.355-5.977l10.353,5.977c0.109,0.063,0.231,0.095,0.353,0.095c0.123,0,0.244-0.031,0.354-0.095
	l10.709-6.18c0.219-0.126,0.353-0.36,0.353-0.612V27.321C46.742,27.069,46.607,26.835,46.389,26.709z M23.915,38.463l-8.589-4.959
	l8.589-4.959V38.463z M33.914,21.141l-8.587,4.957v-9.915L33.914,21.141z M23.915,26.097l-8.588-4.957l8.588-4.958V26.097z
	 M26.033,27.321l9.293-5.365l9.296,5.365l-9.296,5.367L26.033,27.321z M34.62,19.917l-8.587-4.959L34.62,10V19.917z M23.208,14.958
	l-8.588,4.959V10L23.208,14.958z M13.207,44.644l-9.294-5.365V28.544l9.294,5.367V44.644z M14.62,44.644v-9.917l8.588,4.959
	L14.62,44.644z M45.329,39.278l-9.296,5.365V33.912l9.296-5.367V39.278z"/>
</svg>
