<?xml version="1.0" encoding="utf-8"?>
<!-- Generator: Adobe Illustrator 16.0.0, SVG Export Plug-In . SVG Version: 6.00 Build 0)  -->
<!DOCTYPE svg PUBLIC "-//W3C//DTD SVG 1.1//EN" "http://www.w3.org/Graphics/SVG/1.1/DTD/svg11.dtd">
<svg version="1.1" id="Layer_1" xmlns="http://www.w3.org/2000/svg" xmlns:xlink="http://www.w3.org/1999/xlink" x="0px" y="0px"
	 width="49.231px" height="48.462px" viewBox="0 0 49.231 48.462" enable-background="new 0 0 49.231 48.462" xml:space="preserve">
<g>
	<path fill="#FFFFFF" d="M42.059,12.256L32.93,20.94c-0.345,0.343-0.521,0.595-0.521,1.304v24.337c0,0.286,0.233,0.52,0.521,0.52
		h9.429c0.288,0,0.52-0.234,0.52-0.52V12.475C42.879,12.188,42.654,11.664,42.059,12.256"/>
	<path fill="#FFFFFF" d="M15.761,23.569l-9.129,8.683c-0.343,0.343-0.521,0.595-0.521,1.303v13.026c0,0.284,0.234,0.518,0.521,0.518
		h9.43c0.288,0,0.52-0.234,0.52-0.518V23.788C16.581,23.5,16.354,22.975,15.761,23.569"/>
	<path fill="#FFFFFF" d="M46.208,1.726c0.003-0.069-0.021-0.144-0.077-0.198c-0.048-0.047-0.11-0.068-0.169-0.074l-0.05,0.003
		l-0.074,0.004l-6.99,1.577L38.72,3.051c-0.05,0.01-0.098,0.035-0.136,0.072c-0.103,0.104-0.103,0.272,0,0.376l0.08,0.079
		l1.596,1.596L24.421,21.012l-7.316-7.316c-0.083-0.083-0.214-0.083-0.297,0l-1.985,1.986c-0.002,0-0.002,0.002-0.002,0.002
		L3.095,27.408c-0.082,0.083-0.082,0.217,0,0.298l1.987,1.987c0.082,0.083,0.213,0.083,0.296,0l11.58-11.578l5.309,5.309
		c0.005,0.008,0.008,0.017,0.017,0.025l1.985,1.983c0.082,0.083,0.215,0.083,0.297,0L42.542,7.457l1.676,1.675
		c0.104,0.104,0.271,0.104,0.373,0c0.049-0.049,0.073-0.109,0.076-0.172l0.001-0.022l1.535-7.135L46.208,1.726z"/>
	<path fill="#FFFFFF" d="M28.961,25.093l-4.417,4.454c-0.084,0.069-0.207,0.067-0.284-0.011l-4.001-4.079
		c-0.733-0.729-0.891-0.138-0.891,0.149v20.975c0,0.285,0.23,0.519,0.517,0.519h9.432c0.285,0,0.519-0.234,0.519-0.519V25.258
		C29.835,24.971,29.609,24.445,28.961,25.093"/>
</g>
</svg>
