<?xml version="1.0" encoding="utf-8"?>
<!-- Generator: Adobe Illustrator 16.0.0, SVG Export Plug-In . SVG Version: 6.00 Build 0)  -->
<!DOCTYPE svg PUBLIC "-//W3C//DTD SVG 1.1//EN" "http://www.w3.org/Graphics/SVG/1.1/DTD/svg11.dtd">
<svg version="1.1" id="Layer_1" xmlns="http://www.w3.org/2000/svg" xmlns:xlink="http://www.w3.org/1999/xlink" x="0px" y="0px"
	 width="41.005px" height="53.44px" viewBox="0 0 41.005 53.44" enable-background="new 0 0 41.005 53.44" xml:space="preserve">
<g>
	<path fill="#FFFFFF" d="M39.501,0.549H27.322c-0.083,0-0.155,0.069-0.155,0.155v4.047c0,0.087,0.071,0.156,0.155,0.156h4.85
		l-5.385,5.386c-2.712-2.131-6.125-3.407-9.834-3.407C8.157,6.887,1,14.043,1,22.839c0,8.098,6.068,14.8,13.893,15.814v4.664h-4.804
		c-0.089,0-0.157,0.069-0.157,0.154v4.338c0,0.086,0.068,0.155,0.157,0.155h4.804v4.589c0,0.085,0.069,0.155,0.154,0.155h4.336
		c0.086,0,0.157-0.069,0.157-0.155v-4.589h4.804c0.085,0,0.155-0.069,0.155-0.155V43.47c0-0.084-0.069-0.154-0.155-0.154H19.54
		v-4.739c7.569-1.241,13.363-7.824,13.363-15.738c0-3.414-1.08-6.578-2.913-9.175l5.308-5.309v4.529
		c0,0.086,0.071,0.155,0.157,0.155h4.046c0.087,0,0.158-0.069,0.158-0.155V0.705C39.659,0.618,39.588,0.549,39.501,0.549
		 M16.952,34.58c-6.475,0-11.741-5.268-11.741-11.741c0-6.475,5.266-11.742,11.741-11.742s11.742,5.267,11.742,11.742
		C28.694,29.313,23.427,34.58,16.952,34.58"/>
	<path fill="#FFFFFF" d="M24.124,18.019H9.882c-0.085,0-0.154,0.063-0.154,0.139v3.447c0,0.081,0.069,0.142,0.154,0.142h14.242
		c0.088,0,0.157-0.061,0.157-0.142v-3.447C24.281,18.083,24.212,18.019,24.124,18.019"/>
	<path fill="#FFFFFF" d="M24.124,24.175H9.882c-0.085,0-0.154,0.065-0.154,0.144v3.448c0,0.077,0.069,0.139,0.154,0.139h14.242
		c0.088,0,0.157-0.062,0.157-0.139v-3.448C24.281,24.24,24.212,24.175,24.124,24.175"/>
</g>
</svg>
