<?xml version="1.0" encoding="utf-8"?>
<!-- Generator: Adobe Illustrator 16.0.0, SVG Export Plug-In . SVG Version: 6.00 Build 0)  -->
<!DOCTYPE svg PUBLIC "-//W3C//DTD SVG 1.1//EN" "http://www.w3.org/Graphics/SVG/1.1/DTD/svg11.dtd">
<svg version="1.1" id="Layer_1" xmlns="http://www.w3.org/2000/svg" xmlns:xlink="http://www.w3.org/1999/xlink" x="0px" y="0px"
	 width="49.231px" height="48.462px" viewBox="0 0 49.231 48.462" enable-background="new 0 0 49.231 48.462" xml:space="preserve">
<path fill="#FFFFFF" stroke="#FFFFFF" stroke-width="0.73" stroke-miterlimit="10" d="M44.227,16.406
	c-3.401-2.686-7.906-2.741-9.556-2.349l-0.191,0.045c-1.905,0.45-4.933,1.195-8.476,5.591c-0.02,0.024-0.04,0.049-0.059,0.074
	L25.9,19.823c-0.034,0.049-0.059,0.106-0.059,0.17c0,0.053,0.013,0.103,0.038,0.148l0.083,0.135
	c0.444,0.744,1.005,1.702,1.479,2.584c0.005,0.009,0.009,0.017,0.013,0.027c0.05,0.098,0.151,0.167,0.27,0.167
	c0.083,0,0.156-0.033,0.209-0.085c0.022-0.029,0.045-0.06,0.064-0.09c3.145-4.349,5.618-4.949,7.29-5.343l0.2-0.047
	c0.869-0.208,4.169-0.196,6.553,1.685c1.86,1.468,2.804,3.804,2.804,6.943c0,5.265-2.561,7.325-4.71,8.125
	c-3.329,1.244-6.521-0.419-6.545-0.432l-0.143-0.07c-1.829-0.794-4.557-2.446-7.129-7.611c-5.184-10.411-9.52-11.392-12.389-12.042
	l-0.153-0.034c-1.307-0.296-5.844-0.506-9.41,2.341c-1.863,1.486-4.083,4.376-4.083,9.701c0,3.244,0.667,5.386,2.379,7.64
	c0.375,0.514,4.215,5.445,11.637,4.023c1.188-0.228,2.797-0.795,4.567-2.121l1.634,1.473c0.106,0.097,0.276,0.089,0.375-0.019
	c0.046-0.05,0.066-0.114,0.065-0.177v-0.022l1.178-7.249l0.001-0.08c-0.001-0.071-0.03-0.143-0.088-0.193
	c-0.049-0.047-0.111-0.065-0.172-0.065l-0.05,0.004l-0.077,0.007l-6.944,1.944l-0.126,0.021c-0.05,0.011-0.097,0.037-0.133,0.078
	c-0.1,0.11-0.091,0.278,0.02,0.376l0.082,0.075l1.556,1.405c-1.005,0.65-1.88,0.949-2.549,1.079
	c-5.37,1.024-8.021-2.493-8.122-2.631l-0.038-0.051c-1.248-1.639-1.669-3.031-1.669-5.518c0-3.148,0.927-5.485,2.756-6.946
	c2.322-1.854,5.525-1.863,6.43-1.658l0.156,0.035c2.352,0.533,5.573,1.26,10.011,10.174c2.304,4.627,5.19,7.653,8.824,9.249
	c0.462,0.236,2.667,1.282,5.53,1.282c1.197,0,2.508-0.183,3.853-0.682c2.105-0.787,7.003-3.472,7.003-11.432
	C48.371,20.795,46.118,17.899,44.227,16.406"/>
</svg>
