<?xml version="1.0" encoding="utf-8"?>
<!-- Generator: Adobe Illustrator 16.0.0, SVG Export Plug-In . SVG Version: 6.00 Build 0)  -->
<!DOCTYPE svg PUBLIC "-//W3C//DTD SVG 1.1//EN" "http://www.w3.org/Graphics/SVG/1.1/DTD/svg11.dtd">
<svg version="1.1" id="Layer_1" xmlns="http://www.w3.org/2000/svg" xmlns:xlink="http://www.w3.org/1999/xlink" x="0px" y="0px"
	 width="49.231px" height="48.462px" viewBox="0 0 49.231 48.462" enable-background="new 0 0 49.231 48.462" xml:space="preserve">
<path fill="#FFFFFF" d="M49.005,22.957c-1.75-2.455-9.669-12.258-24.388-12.258c-14.721,0-22.637,9.803-24.39,12.258
	c-0.075,0.105-0.139,0.196-0.191,0.273c0.052,0.08,0.116,0.169,0.191,0.276c1.753,2.455,9.669,12.258,24.39,12.258
	c14.719,0,22.637-9.803,24.388-12.258c0.077-0.106,0.139-0.196,0.19-0.276C49.145,23.152,49.082,23.062,49.005,22.957
	 M16.407,16.897c0.132-0.195,0.573-0.75,0.627-0.821c0.113-0.146,0.338-0.176,0.497-0.204c0.156-0.03,0.364,0.058,0.389,0.175
	c0.027,0.117-0.061,0.573-0.137,0.652c-0.216,0.224-0.778,0.54-1.088,0.49C16.455,17.153,16.361,16.968,16.407,16.897
	 M15.881,17.943c0.023-0.028,0.044-0.051,0.053-0.062c0.185-0.211,0.553-0.256,0.809-0.296c0.255-0.044,0.596,0.085,0.636,0.254
	c0.044,0.168-0.64,0.479-0.765,0.594c-0.354,0.326-0.909,0.991-1.233,1.062c-0.106,0.024-0.193,0.008-0.265-0.027
	C15.33,18.937,15.585,18.425,15.881,17.943 M21.389,29.244c-0.199,0.784-0.432,1.066-0.63,1.313
	c-0.198,0.25-0.932,0.569-1.398,0.535c-0.466-0.035-0.532-1.279-0.532-1.919c0-0.222-0.313,0.434-0.476-0.898
	c-0.104-0.853-0.652,0.089-0.69-0.48c-0.039-0.567-0.313-0.454-0.601-0.809c-0.286-0.354-0.643,0.035-1.042,0.214
	c-0.398,0.177-0.234,0.27-0.8,0.092c-0.015-0.005-0.022-0.009-0.036-0.014c-0.519-1.227-0.806-2.576-0.806-3.991
	c0-0.346,0.019-0.686,0.051-1.023c0.019-0.034,0.04-0.067,0.063-0.095c0.542-0.642,0.53-0.792,0.53-0.792l0.6-0.208
	c0,0,0.958,0.147,1.68,0.419c0.594,0.223,1.53,0.727,2.075,0.505c0.394-0.163,0.702-0.378,0.665-0.706
	c-0.044-0.411-0.368-0.509-0.76-0.231c-0.145,0.102-0.453-0.62-0.694-0.583c-0.242,0.036,0.299,0.848,0.094,0.882
	c-0.206,0.035-0.619-0.847-0.689-0.989c-0.069-0.142-0.388-0.496-0.674-0.226c-0.605,0.575-1.587,0.54-1.785,0.687
	c-0.6,0.45-0.759-0.147-0.745-0.511c0.024-0.083,0.049-0.167,0.075-0.249c0.196-0.216,0.9-0.288,1.141-0.126
	c0.265,0.177,0.456-0.046,0.56-0.154c0.105-0.105,0.068-0.275,0.002-0.417c-0.067-0.143,0.132-0.247,0.27-0.283
	c0.138-0.037,0.595-0.356,0.777-0.463c0.184-0.106,1.132-0.221,1.557-0.009c0.425,0.214,0.814,0.04,1.023-0.207
	c0.262-0.311,0.596-0.548,0.744-0.62c0.148-0.07-0.366-0.55-0.789-0.026c-0.424,0.521-0.64,0.569-0.839,0.569
	s-1.383-0.295-1.529-0.669c-0.145-0.374,0.37-0.653,0.807-0.866c0.437-0.208,1.632-0.205,1.938-0.274
	c0.621-0.136,1.416-0.448,1.815-0.176c0.398,0.268-1.671,0.739-0.991,1.106c0.242,0.132,1.336-0.63,1.711-0.825
	c0.882-0.455-0.855-0.605-0.63-1.53c0.255-1.045-2.13-0.641-3.319-0.552c1.594-1.022,3.488-1.616,5.522-1.616
	c4.837,0,8.89,3.352,9.97,7.858c0.007,0.223-0.027,0.383-0.05,0.475c-0.093,0.37-0.794,0.688-1.201,0.092
	c-0.104-0.15-0.543-0.565-0.529,0.145c0.015,0.711,0.691,0.784,0.035,1.21c-0.655,0.427-0.775,0.324-1.078,0.431
	c-0.302,0.107-0.595,0.839-0.523,1.231c0.073,0.392,1.008,1.46,0.314,1.416c-0.163-0.012-1.388-0.849-1.59-1.387
	c-0.213-0.566-0.446-1.121-0.612-1.548c-0.167-0.425-0.599-0.534-0.966-0.284c-0.365,0.25,0.102,0.499-0.161,1.033
	c-0.261,0.533-0.449,1.009-0.834,0.569c-1.001-1.147-2.456-0.581-2.684-1.857c-0.123-0.692-0.719-0.626-1.217-1.018
	c-0.501-0.389-0.78-0.601-0.864-0.319c-0.074,0.248,1.567,1.549,1.684,1.883c0.174,0.495-0.492,0.932-0.979,1.049
	c-0.485,0.116-0.699-0.273-1.177-0.771c-0.478-0.497-0.687-0.853-0.72-0.462c-0.047,0.564,0.454,1.393,0.94,1.703
	c0.415,0.263,0.88,0.382,0.746,0.808c-0.135,0.428-0.002,0.186-0.467,0.646c-0.466,0.462-0.554,0.611-0.521,1.249
	c0.033,0.641-0.133,0.677-0.233,1.209C21.822,28.924,21.591,28.463,21.389,29.244 M32.39,25.155c0.345-0.028,0.862,0.45,0.66,0.633
	c-0.202,0.182-0.719,0.115-0.978-0.087C31.814,25.5,32.235,25.167,32.39,25.155 M31.954,24.84c-0.11-0.041-0.208-0.146-0.292-0.398
	c-0.083-0.251,0.128-0.395,0.335-0.294c0.211,0.107,0.484,0.421,0.484,0.589C32.48,24.904,32.067,24.884,31.954,24.84
	 M27.428,24.822c-0.203,0.18-0.721,0.114-0.98-0.088c-0.258-0.201,0.164-0.534,0.318-0.546
	C27.111,24.158,27.629,24.64,27.428,24.822 M23.24,26.858c-0.141,0.23-0.526,1.955-0.785,1.754c-0.26-0.201,0.104-2,0.18-2.137
	C23.04,25.733,23.916,25.77,23.24,26.858 M24.635,33.542c-1.002,0-1.968-0.146-2.882-0.413c-0.131-0.107-0.207-0.286-0.125-0.501
	c0.317-0.828,1.263-1.151,2.008-1.223c1.663-0.162,3.849,1.08,4.196,0.879c0.349-0.201,1.052-1.115,2.083-1.076
	c0.704,0.027,0.699,0.146,0.935,0.234C29.125,32.758,26.973,33.542,24.635,33.542 M31.866,30.557
	c-0.103-0.029-0.208-0.063-0.322-0.119c-0.56-0.285-0.493,0.17-0.768,0.07c-0.277-0.103,0.311-0.741-0.517-0.201
	c-0.823,0.539-0.601-0.083-0.96-0.996c-0.363-0.914,0.413-1.956,1.061-2.191c0.891-0.322,1.444-0.388,1.862-0.491
	c1.231-0.308,1.492-1.039,1.716-0.594c0.042,0.083,0.083,0.163,0.12,0.237c0.072,0.133,0.155,0.402,0.159,0.668
	C33.694,28.311,32.888,29.541,31.866,30.557 M34.675,25.38c-0.275-0.075-1.426-1.667-0.516-2.714
	c0.151-0.172-0.306-0.679-0.181-0.689c0.498-0.038,0.763,0.271,0.894,0.716c0.01,0.196,0.018,0.395,0.018,0.594
	C34.89,24.004,34.815,24.704,34.675,25.38"/>
</svg>
