<?xml version="1.0" encoding="utf-8"?>
<!-- Generator: Adobe Illustrator 16.0.0, SVG Export Plug-In . SVG Version: 6.00 Build 0)  -->
<!DOCTYPE svg PUBLIC "-//W3C//DTD SVG 1.1//EN" "http://www.w3.org/Graphics/SVG/1.1/DTD/svg11.dtd">
<svg version="1.1" id="Layer_1" xmlns="http://www.w3.org/2000/svg" xmlns:xlink="http://www.w3.org/1999/xlink" x="0px" y="0px"
	 width="49.231px" height="48.462px" viewBox="0 0 49.231 48.462" enable-background="new 0 0 49.231 48.462" xml:space="preserve">
<g>
	<path fill="#FFFFFF" d="M49.131,36.409c-1.109-1.498-8.272-10.631-18.315-10.631c-8.721,0-18.05,7.91-18.05,7.91
		S9.26,26.515,2.091,25.825c-0.042,0-0.087-0.009-0.135-0.009H1.912c-0.149,0.008-0.29,0.154-0.274,0.284
		c0.021,0.126,0.113,0.262,0.113,0.262c0.924,1.535,3.282,5.898,3.282,10.259c0,4.375-2.372,8.75-3.287,10.277l-0.063,0.097
		c-0.026,0.046-0.045,0.092-0.045,0.151c0,0.151,0.118,0.269,0.265,0.282l0.078-0.007c0.024,0,0.049,0,0.075-0.006
		c7.191-0.67,10.709-7.865,10.709-7.865s9.329,7.911,18.05,7.911c10.043,0,17.206-9.133,18.315-10.628
		c0.03-0.042,0.055-0.076,0.077-0.104c0.013-0.035,0.023-0.067,0.023-0.109c0-0.04-0.01-0.079-0.023-0.109
		C49.186,36.481,49.161,36.446,49.131,36.409 M36.399,37.774c-1.619,0-2.931-1.314-2.931-2.932s1.312-2.929,2.931-2.929
		c1.623,0,2.935,1.311,2.935,2.929S38.022,37.774,36.399,37.774"/>
	<path fill="#FFFFFF" d="M1.865,8.611C1.843,8.606,1.829,8.599,1.81,8.599c-0.159,0-0.288,0.129-0.288,0.291v1.999
		c0,0.083,0.032,0.157,0.083,0.207c4.848,4.212,9.438,0.266,10.501-0.777c0.022-0.032,0.044-0.063,0.076-0.081
		c0.047-0.031,0.1-0.052,0.159-0.052c0.075,0,0.146,0.029,0.195,0.077c0.004,0.005,0.009,0.01,0.014,0.012
		c5.476,5.226,11.218,0.994,12.413,0l0.118-0.107c0.033-0.016,0.07-0.021,0.109-0.021c0.041,0,0.081,0.005,0.114,0.021l0.118,0.107
		c1.194,0.994,6.936,5.226,12.412,0c0-0.002,0.008-0.007,0.011-0.012c0.051-0.048,0.119-0.077,0.194-0.077
		c0.06,0,0.114,0.021,0.159,0.052c0.033,0.019,0.056,0.049,0.081,0.081c1.062,1.043,5.647,4.99,10.5,0.777
		c0.05-0.05,0.083-0.123,0.083-0.207V8.89c0-0.162-0.125-0.291-0.284-0.291c-0.021,0-0.04,0.007-0.063,0.012
		c-0.044,0.025-0.091,0.05-0.145,0.075c-1.491,0.747-6.115,2.523-10.313-1.448c-0.04-0.037-0.081-0.074-0.122-0.117
		c-0.039-0.016-0.075-0.026-0.122-0.026c-0.03,0-0.061,0.008-0.087,0.013c-0.063,0.025-0.112,0.065-0.146,0.114
		c-1.251,0.954-6.993,4.841-12.107,0.071L25.397,7.22c-0.054-0.047-0.126-0.086-0.208-0.086c-0.076,0-0.15,0.039-0.2,0.086
		l-0.08,0.073c-5.111,4.77-10.859,0.883-12.108-0.071c-0.033-0.048-0.081-0.089-0.142-0.114c-0.029-0.005-0.059-0.013-0.091-0.013
		c-0.041,0-0.082,0.01-0.121,0.026c-0.038,0.043-0.082,0.08-0.123,0.117C8.127,11.21,3.505,9.434,2.013,8.687
		C1.96,8.661,1.911,8.637,1.865,8.611"/>
	<path fill="#FFFFFF" d="M12.106,17.591c0.023-0.033,0.044-0.057,0.077-0.08c0.047-0.029,0.1-0.054,0.158-0.054
		c0.075,0,0.146,0.03,0.196,0.08c0.003,0.004,0.008,0.009,0.013,0.012c5.475,5.219,11.218,0.989,12.413,0l0.118-0.112
		c0.033-0.013,0.07-0.018,0.108-0.018c0.042,0,0.082,0.005,0.116,0.018l0.117,0.112c1.194,0.989,6.936,5.219,12.412,0
		c0.001-0.003,0.006-0.008,0.011-0.012c0.051-0.05,0.118-0.08,0.194-0.08c0.061,0,0.115,0.024,0.159,0.054
		c0.034,0.023,0.057,0.047,0.081,0.08c1.061,1.044,5.646,4.992,10.5,0.776c0.051-0.052,0.084-0.119,0.084-0.203v-2.004
		c0-0.16-0.128-0.287-0.286-0.287c-0.021,0-0.04,0.008-0.063,0.012c-0.044,0.021-0.092,0.047-0.145,0.073
		c-1.49,0.747-6.116,2.52-10.313-1.447c-0.039-0.037-0.08-0.075-0.121-0.115c-0.04-0.022-0.076-0.029-0.123-0.029
		c-0.03,0-0.061,0.007-0.087,0.021c-0.063,0.016-0.112,0.056-0.146,0.107c-1.25,0.952-6.993,4.841-12.107,0.071l-0.075-0.075
		c-0.053-0.051-0.126-0.08-0.208-0.08c-0.075,0-0.149,0.029-0.199,0.08l-0.08,0.075c-5.111,4.771-10.859,0.881-12.108-0.071
		c-0.033-0.052-0.081-0.092-0.142-0.107c-0.029-0.015-0.061-0.021-0.092-0.021c-0.042,0-0.081,0.007-0.119,0.029
		c-0.04,0.04-0.082,0.078-0.125,0.115c-4.197,3.966-8.819,2.194-10.311,1.447c-0.053-0.026-0.102-0.051-0.147-0.073
		c-0.022-0.004-0.037-0.012-0.055-0.012c-0.159,0-0.289,0.127-0.289,0.287v2.004c0,0.083,0.032,0.151,0.083,0.203
		C6.454,22.583,11.044,18.635,12.106,17.591"/>
</g>
</svg>
