<?xml version="1.0" encoding="utf-8"?>
<!-- Generator: Adobe Illustrator 16.0.0, SVG Export Plug-In . SVG Version: 6.00 Build 0)  -->
<!DOCTYPE svg PUBLIC "-//W3C//DTD SVG 1.1//EN" "http://www.w3.org/Graphics/SVG/1.1/DTD/svg11.dtd">
<svg version="1.1" id="Layer_1" xmlns="http://www.w3.org/2000/svg" xmlns:xlink="http://www.w3.org/1999/xlink" x="0px" y="0px"
	 width="49.231px" height="48.462px" viewBox="0 0 49.231 48.462" enable-background="new 0 0 49.231 48.462" xml:space="preserve">
<path fill="#FFFFFF" d="M49.209,21.388c0-6.921-5.506-12.576-12.365-12.827C35.081,3.58,30.322,0,24.742,0
	c-5.579,0-10.336,3.58-12.103,8.562C5.78,8.813,0.277,14.467,0.277,21.388c0,4.106,1.941,7.767,4.953,10.119
	c-0.327,1.132-0.507,2.327-0.507,3.563c0,7.076,5.758,12.834,12.837,12.834c2.686,0,5.181-0.832,7.244-2.248
	c2.04,1.365,4.488,2.162,7.121,2.162c7.078,0,12.836-5.758,12.836-12.833c0-1.211-0.172-2.382-0.487-3.493
	C47.275,29.14,49.209,25.486,49.209,21.388 M34.995,12.836c0,5.138-3.803,9.392-8.74,10.127c-0.08-0.514-0.134-1.039-0.134-1.575
	c0-5.139,3.803-9.394,8.739-10.128C34.94,11.774,34.995,12.298,34.995,12.836 M24.791,42.328c-1.919-1.864-3.117-4.466-3.117-7.343
	c0-2.834,1.158-5.403,3.021-7.26c1.918,1.863,3.116,4.466,3.116,7.345C27.812,37.902,26.655,40.47,24.791,42.328 M14.625,11.259
	c4.937,0.734,8.74,4.99,8.74,10.129c0,0.536-0.055,1.061-0.134,1.575c-4.938-0.735-8.74-4.989-8.74-10.127
	C14.491,12.298,14.545,11.774,14.625,11.259 M22.269,25.974c-1.686,3.354-5.152,5.666-9.155,5.666c-1.698,0-3.298-0.423-4.709-1.156
	c1.687-3.354,5.153-5.666,9.157-5.666C19.259,24.817,20.857,25.239,22.269,25.974 M27.184,25.904
	c1.42-0.745,3.031-1.172,4.742-1.172c4.031,0,7.515,2.345,9.19,5.735c-1.421,0.745-3.034,1.172-4.743,1.172
	C32.342,31.639,28.857,29.295,27.184,25.904 M24.742,2.584c4.201,0,7.814,2.541,9.397,6.165c-4.17,0.735-7.651,3.488-9.397,7.213
	c-1.744-3.726-5.226-6.479-9.396-7.213C16.929,5.125,20.542,2.584,24.742,2.584 M2.861,21.388c0-5.283,4.015-9.642,9.153-10.192
	c-0.069,0.538-0.108,1.085-0.108,1.64c0,3.752,1.62,7.134,4.194,9.482c-4.257,0.484-7.89,3.058-9.842,6.67
	C4.179,27.111,2.861,24.403,2.861,21.388 M7.308,35.069c0-0.729,0.078-1.438,0.224-2.124c1.689,0.818,3.583,1.278,5.581,1.278
	c2.247,0,4.359-0.583,6.198-1.6c-0.143,0.765-0.222,1.554-0.222,2.361c0,3.467,1.386,6.616,3.628,8.928
	c-1.517,0.888-3.277,1.407-5.157,1.407C11.906,45.319,7.308,40.721,7.308,35.069 M42.178,34.984c0,5.651-4.599,10.25-10.252,10.25
	c-1.839,0-3.561-0.494-5.054-1.346c2.18-2.301,3.525-5.407,3.525-8.82c0-0.84-0.085-1.661-0.239-2.456
	c1.843,1.024,3.961,1.61,6.216,1.61c2.006,0,3.906-0.463,5.598-1.288C42.107,33.599,42.178,34.283,42.178,34.984 M33.464,22.243
	c2.528-2.346,4.115-5.694,4.115-9.407c0-0.555-0.039-1.102-0.107-1.64c5.137,0.55,9.153,4.909,9.153,10.192
	c0,3.001-1.304,5.696-3.368,7.573C41.325,25.342,37.711,22.753,33.464,22.243"/>
</svg>
