<?xml version="1.0" encoding="utf-8"?>
<!-- Generator: Adobe Illustrator 20.1.0, SVG Export Plug-In . SVG Version: 6.00 Build 0)  -->
<svg version="1.1" id="Layer_1" xmlns="http://www.w3.org/2000/svg" xmlns:xlink="http://www.w3.org/1999/xlink" x="0px" y="0px"
	 width="218px" height="218px" viewBox="0 0 218 218" style="enable-background:new 0 0 218 218;" xml:space="preserve">
<style type="text/css">
	.st0{fill:#1A96D4;}
	.st1{fill:#FFFFFF;}
</style>
<g>
	<circle class="st0" cx="109.3821716" cy="108.9393158" r="108"/>
</g>
<g>
	<path class="st1" d="M53.3564453,31.4570312v31.9521484H45.355957V39.4077148l-5.550293,0.2001953v-5.550293l9.550293-2.6005859
		H53.3564453z"/>
	<path class="st1" d="M81.8564453,53.2587891h5.1005859v7.550293h-5.1005859v8.8505859H74.105957V60.809082H58.3051758v-4.9501953
		l17.1508789-24.3515625h6.4003906V53.2587891z M74.105957,53.2587891l0.1000977-8.8007812l-6.2001953,8.9506836
		L74.105957,53.2587891z"/>
</g>
<g>
	<path class="st1" d="M96.1972656,40.3808594h4.8500977v2.3369141h-7.4111328V30.7128906h2.5610352V40.3808594z"/>
	<path class="st1" d="M102.1323242,42.7177734V30.7128906h2.5610352v12.0048828H102.1323242z"/>
	<path class="st1" d="M113.4306641,37.8198242h-4.5297852v4.8979492h-2.5610352V30.7128906h7.5712891v2.3369141h-5.0102539v2.480957
		h4.5297852V37.8198242z"/>
	<path class="st1" d="M122.1025391,37.659668h-4.6259766v2.7211914h5.0898438v2.3369141h-7.6503906V30.7128906h7.6503906v2.3369141
		h-5.0898438v2.3208008h4.6259766V37.659668z"/>
	<path class="st1" d="M127.0761719,30.7128906h4.3056641c3.0410156,0,3.8740234,1.4404297,3.8740234,3.3935547
		c0,1.0244141-0.5126953,1.8564453-1.296875,2.2729492c0.8964844,0.3037109,1.6484375,1.184082,1.6484375,2.6728516
		c0,2.0810547-0.9443359,3.6655273-4.1611328,3.6655273h-4.3701172V30.7128906z M131.2861328,32.8896484h-1.6494141v2.5771484
		h1.6494141c1.0556641,0,1.2480469-0.7363281,1.2480469-1.2802734
		C132.5341797,33.6259766,132.3583984,32.8896484,131.2861328,32.8896484z M129.6367188,40.5410156h1.7773438
		c1.0722656,0,1.4726562-0.6245117,1.4726562-1.5048828c0-0.8959961-0.4160156-1.4882812-1.4726562-1.4882812h-1.7773438V40.5410156
		z"/>
	<path class="st1" d="M143.8789062,37.659668h-4.6259766v2.7211914h5.0908203v2.3369141h-7.6513672V30.7128906h7.6513672v2.3369141
		h-5.0908203v2.3208008h4.6259766V37.659668z"/>
	<path class="st1" d="M148.2128906,40.3808594h4.8505859v2.3369141h-7.4111328V30.7128906h2.5605469V40.3808594z"/>
	<path class="st1" d="M153.0917969,36.715332c0-3.6655273,1.0087891-6.2265625,4.7861328-6.2265625
		s4.7861328,2.5610352,4.7861328,6.2265625s-1.0087891,6.2265625-4.7861328,6.2265625S153.0917969,40.3808594,153.0917969,36.715332
		z M155.6845703,36.715332c0,2.8012695,0.6083984,3.9057617,2.1933594,3.9057617
		c1.5839844,0,2.1923828-1.1044922,2.1923828-3.9057617s-0.6083984-3.9057617-2.1923828-3.9057617
		C156.2929688,32.8095703,155.6845703,33.9140625,155.6845703,36.715332z"/>
	<path class="st1" d="M172.1191406,30.7128906l1.328125,8.371582l0.9765625-8.371582h2.7373047l-1.8564453,12.0688477h-3.3300781
		l-1.5361328-9.0117188l-1.5371094,9.0117188h-3.3291016l-1.8564453-12.0688477h2.7373047l0.9755859,8.371582l1.3291016-8.371582
		H172.1191406z"/>
	<path class="st1" d="M101.7036133,49.9130859l1.3286133,8.371582l0.9760742-8.371582h2.7373047l-1.8569336,12.0688477h-3.3291016
		l-1.5366211-9.0117188l-1.5366211,9.0117188h-3.3295898L93.300293,49.9130859h2.7368164l0.9765625,8.371582l1.3286133-8.371582
		H101.7036133z"/>
	<path class="st1" d="M106.5004883,61.9179688l3.3291016-12.0688477h2.9458008l3.3291016,12.0688477h-2.7207031
		l-0.5605469-2.4648438h-3.0415039l-0.5605469,2.4648438H106.5004883z M110.2783203,57.4199219h2.0488281l-1.0244141-4.5454102
		L110.2783203,57.4199219z"/>
	<path class="st1" d="M120.5986328,52.25v9.6679688h-2.5615234V52.25h-2.8964844v-2.3369141h8.3554688V52.25H120.5986328z"/>
	<path class="st1" d="M131.6552734,56.8598633h-4.6259766v2.7211914h5.0908203v2.3369141H124.46875V49.9130859h7.6513672V52.25
		h-5.0908203v2.3208008h4.6259766V56.8598633z"/>
	<path class="st1" d="M135.9892578,61.9179688h-2.5605469V49.9130859h4.0820312
		c3.2324219,0,4.2890625,1.4726562,4.2890625,3.7617188c0,1.4882812-0.4160156,2.625-1.6806641,3.2329102l2.1289062,5.0102539
		h-2.9931641l-1.6162109-4.4980469h-1.6494141V61.9179688z M135.9892578,55.0991211h1.7451172
		c1.1367188,0,1.2802734-0.7680664,1.2802734-1.4243164c0-0.6723633-0.1435547-1.4248047-1.2802734-1.4248047h-1.7451172V55.0991211
		z"/>
</g>
<g>
	<path class="st1" d="M139.5203094,117.5597763c-1.3655243-1.7922516-10.0707703-12.9725189-22.360527-12.9725189
		c-10.66819,0-22.0191498,9.6440506-22.0191498,9.6440506s-4.2672806-8.790596-13.057869-9.5587006
		c-0.0853424,0-0.0853424,0-0.1706924,0l0,0c-0.1706848,0-0.3413849,0.1706924-0.3413849,0.3413849
		s0.1706924,0.3413849,0.1706924,0.3413849c1.1094971,1.8776016,4.0112381,7.1690292,4.0112381,12.5457916
		c0,5.37677-2.9017487,10.6681976-4.0112381,12.5457916l-0.0853424,0.0853577c0,0.0853424-0.08535,0.0853424-0.08535,0.1706848
		c0,0.1706848,0.1706924,0.3413696,0.3413849,0.3413696h0.08535h0.0853424
		c8.7905884-0.8534546,13.057869-9.5586929,13.057869-9.5586929s11.3509598,9.6440506,22.0191498,9.6440506
		c12.2897568,0,20.9950027-11.1802673,22.360527-12.9725189c0-0.08535,0.0853577-0.08535,0.0853577-0.08535
		c0-0.0853424,0-0.0853424,0-0.1706848s0-0.0853424,0-0.1706924
		C139.6056671,117.6451263,139.5203094,117.6451263,139.5203094,117.5597763 M123.9874268,119.2666931
		c-1.9629517,0-3.5845108-1.6215668-3.5845108-3.5845108c0-1.9629517,1.6215668-3.5845108,3.5845108-3.5845108
		c1.9629517,0,3.5845108,1.6215668,3.5845108,3.5845108S125.9503784,119.2666931,123.9874268,119.2666931"/>
	<path class="st1" d="M81.8267288,83.6776047L81.8267288,83.6776047c-0.2560425,0-0.4267273,0.1706848-0.4267273,0.3413849
		v2.4750214c0,0.0853424,0,0.1706848,0.0853424,0.2560349c5.8888474,5.1207352,11.5216522,0.3413849,12.8018341-0.938797
		l0.0853424-0.0853424c0.0853424,0,0.0853424-0.08535,0.1706924-0.08535c0.0853424,0,0.1706848,0,0.2560349,0.08535l0,0
		c6.6569519,6.4009094,13.6552887,1.1948318,15.1915054,0l0.1706848-0.1706924c0,0,0.0853424,0,0.1706924,0
		c0.0853424,0,0.0853424,0,0.1706848,0l0.1706924,0.1706924c1.4508667,1.1948318,8.4492035,6.4009094,15.1061554,0l0,0
		c0.08535-0.08535,0.1706848-0.08535,0.2560425-0.08535c0.08535,0,0.1706848,0,0.1706848,0.08535l0.08535,0.0853424
		c1.2801819,1.2801819,6.913002,6.0595322,12.8018265,0.938797c0.0853577-0.0853424,0.0853577-0.1706848,0.0853577-0.2560349
		v-2.4750214c0-0.1706924-0.1706848-0.3413849-0.3413849-0.3413849h-0.0853424
		c-0.0853577,0-0.0853577,0.0853424-0.1706848,0.0853424c-1.7922668,0.938797-7.4250641,3.0724411-12.5457993-1.7922592
		c-0.08535-0.0853424-0.08535-0.0853424-0.1706848-0.1706848c-0.08535,0-0.08535,0-0.1706924,0h-0.08535
		c-0.08535,0-0.1706848,0.0853424-0.1706848,0.1706848c-1.5362244,1.1948395-8.5345535,5.8888474-14.7647858,0.08535
		l-0.0853424-0.08535c-0.0853424-0.0853424-0.1706848-0.0853424-0.2560425-0.0853424
		c-0.0853424,0-0.1706848,0.0853424-0.2560349,0.0853424l-0.0853424,0.08535
		c-6.2302322,5.8034973-13.2285614,1.1094894-14.7647858-0.08535c0-0.0853424-0.0853424-0.0853424-0.1706848-0.1706848h-0.0853424
		c-0.08535,0-0.08535,0-0.1706924,0c-0.0853424,0.0853424-0.1706848,0.1706848-0.1706848,0.1706848
		c-5.1207352,4.8647003-10.75354,2.6457138-12.5457916,1.7922592
		C81.9120712,83.7629471,81.9120712,83.6776047,81.8267288,83.6776047"/>
	<path class="st1" d="M94.3725204,94.6018372l0.0853424-0.08535c0.08535,0,0.08535-0.0853424,0.1706924-0.0853424
		s0.1706848,0,0.2560349,0.0853424l0,0c6.6569595,6.4009171,13.6552887,1.1948395,15.1915131,0l0.1706848-0.1706848
		c0,0,0.0853424,0,0.1706924,0c0.0853424,0,0.0853424,0,0.1706848,0l0.1706924,0.1706848
		c1.4508667,1.1948395,8.4492111,6.4009171,15.1061554,0l0,0c0.08535-0.0853424,0.1706924-0.0853424,0.2560425-0.0853424
		s0.1706848,0,0.1706848,0.0853424c0.08535,0,0.08535,0.08535,0.08535,0.08535
		c1.2801819,1.2801819,6.9129944,6.0595322,12.8018341,0.938797c0.0853424-0.0853424,0.0853424-0.1706924,0.0853424-0.2560425
		v-2.4750214c0-0.1706848-0.1706848-0.3413849-0.3413696-0.3413849h-0.0853577c-0.0853424,0-0.0853424,0.08535-0.1706848,0.08535
		c-1.7922516,0.938797-7.4250641,3.0724335-12.5457916-1.7922592c-0.08535-0.0853424-0.08535-0.0853424-0.1706848-0.1706848
		c-0.08535,0-0.08535,0-0.1706924,0h-0.08535c-0.08535,0-0.1706848,0.0853424-0.1706848,0.1706848
		c-1.5362244,1.1948395-8.5345535,5.8888474-14.7647858,0.0853424l-0.0853424-0.0853424
		c-0.0853424-0.0853424-0.1706848-0.0853424-0.2560349-0.0853424s-0.1706924,0-0.2560425,0.0853424l-0.0853424,0.0853424
		c-6.2302322,5.8035049-13.2285614,1.1094971-14.7647858-0.0853424c0-0.0853424-0.0853424-0.0853424-0.1706848-0.1706848h-0.0853424
		c-0.08535,0-0.08535,0-0.1706924,0c-0.0853424,0.0853424-0.0853424,0.0853424-0.1706848,0.1706848
		c-5.1207352,4.8646927-10.75354,2.6457138-12.5457916,1.7922592c-0.08535,0-0.08535-0.08535-0.1706924-0.08535h-0.0853424
		c-0.1706848,0-0.3413849,0.1706924-0.3413849,0.3413849v2.4750214c0,0.08535,0,0.1706924,0.0853424,0.2560425
		C87.4595337,100.7467117,93.0069962,95.882019,94.3725204,94.6018372"/>
</g>
<g>
	<g>
		<path class="st1" d="M27.6000004,143.3999939c0.8999996,0,1.2999992,0.1999969,1.6000004,0.3000031v1.5
			c-0.3999996-0.1999969-0.7999992-0.3000031-1.3999996-0.3000031c-1.2000008,0-1.7999992,0.5-1.7999992,2.3999939
			s0.6000004,2.3999939,1.7999992,2.3999939c0.6000004,0,0.8999996-0.1000061,1.3999996-0.3000031v1.5
			c-0.2999992,0.1000061-0.7000008,0.3000031-1.6000004,0.3000031c-2.2000008,0-3.2000008-1.1000061-3.2000008-3.8999939
			C24.3999996,144.3999939,25.3999996,143.3999939,27.6000004,143.3999939z"/>
	</g>
	<g>
		<path class="st1" d="M30,147.3000031c0-2.3000031,0.6000004-3.8999939,3-3.8999939s3,1.6000061,3,3.8999939
			s-0.5999985,3.8999939-3,3.8999939C30.6000004,151.1000061,30,149.5,30,147.3000031z M31.5999985,147.3000031
			C31.5999985,149,32,149.6999969,33,149.6999969S34.4000015,149,34.4000015,147.3000031S34,144.9000092,33,144.9000092
			C32,144.8000031,31.5999985,145.5,31.5999985,147.3000031z"/>
	</g>
	<g>
		<path class="st1" d="M40.7999992,151l-2.4000015-4.5v4.5h-1.5999985v-7.5h1.5999985l2.4000015,4.5v-4.5h1.5999985v7.5H40.7999992z
			"/>
	</g>
	<g>
		<path class="st1" d="M48.5,148.6000061c0,1.8999939-1.2000008,2.5-2.9000015,2.5c-0.7999992,0-1.7999992-0.1000061-2.2999992-0.5
			V149C43.5999985,149.1999969,44.5,149.6000061,45.5,149.6000061c1.0999985,0,1.5-0.3999939,1.5-0.8999939
			c0-0.6000061-0.2000008-0.8000031-1-0.8999939c-1.9000015-0.1999969-2.5999985-0.8000031-2.5999985-2.3000031
			c0-1.3999939,0.7999992-2.3000031,2.7999992-2.3000031c1,0,1.7999992,0.1999969,2.0999985,0.3999939v1.5
			c-0.4000015-0.1999969-1.2000008-0.3999939-2-0.3999939S45,145.0000153,45,145.4000092
			c0,0.5,0.2999992,0.6999969,1.0999985,0.8000031C47.5999985,146.6999969,48.5,147,48.5,148.6000061z"/>
	</g>
	<g>
		<path class="st1" d="M53.7000008,147.8000031h-2.9000015V149.5H54v1.5h-4.7999992v-7.5H54v1.5h-3.2000008v1.3999939h2.9000015
			V147.8000031z"/>
	</g>
	<g>
		<path class="st1" d="M56.5,151h-1.5999985v-7.5h2.5c2,0,2.7000008,0.8999939,2.7000008,2.3000031
			c0,0.8999939-0.2999992,1.6000061-1,2l1.2999992,3.1000061H58.5l-1-2.8000031h-1V151z M56.5,146.6999969h1.0999985
			c0.7000008,0,0.7999992-0.5,0.7999992-0.8999939s-0.0999985-0.8999939-0.7999992-0.8999939H56.5V146.6999969z"/>
	</g>
	<g>
		<path class="st1" d="M66.1999969,143.5l-2.0999985,7.5h-1.7999992l-2.0999985-7.5h1.7000008l1.3000031,5.6999969L64.5000076,143.5
			H66.1999969z"/>
	</g>
	<g>
		<path class="st1" d="M71.4000015,147.8000031H68.5V149.5h3.1999969v1.5h-4.8000031v-7.5h4.8000031v1.5H68.5v1.3999939h2.9000015
			V147.8000031z"/>
	</g>
	<g>
		<path class="st1" d="M74.1999969,151l2.0999985-7.5h1.8000031l2.0999985,7.5H78.5l-0.3000031-1.5h-1.9000015l-0.3000031,1.5
			H74.1999969z M76.5999985,148.1999969h1.3000031l-0.5999985-2.8000031L76.5999985,148.1999969z"/>
	</g>
	<g>
		<path class="st1" d="M84.9000015,151L82.5,146.5v4.5h-1.5999985v-7.5H82.5l2.4000015,4.5v-4.5H86.5v7.5H84.9000015z"/>
	</g>
	<g>
		<path class="st1" d="M87.4000015,151v-7.5h2.4000015c2.5,0,3.1999969,1.6000061,3.1999969,3.6999969
			s-0.6999969,3.6999969-3.1999969,3.6999969h-2.4000015V151z M89,149.5h0.9000015c1.1999969,0,1.5-0.8000031,1.5-2.3000031
			c0-1.3999939-0.3000031-2.3000031-1.5-2.3000031H89V149.5z"/>
	</g>
	<g>
		<path class="st1" d="M101,148.6000061c0,1.8999939-1.1999969,2.5-2.9000015,2.5c-0.8000031,0-1.8000031-0.1000061-2.3000031-0.5
			V149c0.3000031,0.1999969,1.1999969,0.6000061,2.1999969,0.6000061c1.0999985,0,1.5-0.3999939,1.5-0.8999939
			c0-0.6000061-0.1999969-0.8000031-1-0.8999939c-1.9000015-0.1999969-2.5999985-0.8000031-2.5999985-2.3000031
			c0-1.3999939,0.8000031-2.3000031,2.8000031-2.3000031c1,0,1.8000031,0.1999969,2.0999985,0.3999939v1.5
			c-0.4000015-0.1999969-1.1999969-0.3999939-2-0.3999939s-1.3000031,0.3000031-1.3000031,0.6999969
			c0,0.5,0.3000031,0.6999969,1.0999985,0.8000031C100.0999985,146.6999969,101,147,101,148.6000061z"/>
	</g>
	<g>
		<path class="st1" d="M101.6999969,148.6000061V143.5h1.5999985v5c0,1,0.5999985,1.1000061,1.1999969,1.1000061
			s1.1999969-0.1999969,1.1999969-1.1000061v-5h1.5999985v5.1000061c0,2.1000061-1.5999985,2.5-2.8000031,2.5
			S101.6999969,150.6999969,101.6999969,148.6000061z"/>
	</g>
	<g>
		<path class="st1" d="M113.3000031,148.6000061c0,1.8999939-1.1999969,2.5-2.9000015,2.5
			c-0.8000031,0-1.8000031-0.1000061-2.3000031-0.5V149c0.3000031,0.1999969,1.1999969,0.6000061,2.1999969,0.6000061
			c1.0999985,0,1.5-0.3999939,1.5-0.8999939c0-0.6000061-0.1999969-0.8000031-1-0.8999939
			c-1.9000015-0.1999969-2.5999985-0.8000031-2.5999985-2.3000031c0-1.3999939,0.8000031-2.3000031,2.8000031-2.3000031
			c1,0,1.8000031,0.1999969,2.0999985,0.3999939v1.5c-0.4000015-0.1999969-1.1999969-0.3999939-2-0.3999939
			s-1.3000031,0.3000031-1.3000031,0.6999969c0,0.5,0.3000031,0.6999969,1.0999985,0.8000031
			C112.4000015,146.6999969,113.3000031,147,113.3000031,148.6000061z"/>
	</g>
	<g>
		<path class="st1" d="M116.9000015,145v6h-1.5999985v-6H113.5v-1.5h5.1999969v1.5H116.9000015z"/>
	</g>
	<g>
		<path class="st1" d="M118.3000031,151l2.0999985-7.5h1.8000031l2.0999985,7.5h-1.6999969l-0.3000031-1.5h-1.9000015L120,151
			H118.3000031z M120.5999985,148.1999969h1.3000031l-0.5999985-2.8000031L120.5999985,148.1999969z"/>
	</g>
	<g>
		<path class="st1" d="M125,151v-7.5h1.5999985v7.5H125z"/>
	</g>
	<g>
		<path class="st1" d="M131.6000061,151l-2.3999939-4.5v4.5h-1.6000061v-7.5h1.6000061l2.3999939,4.5v-4.5h1.6000061v7.5
			H131.6000061z"/>
	</g>
	<g>
		<path class="st1" d="M133.8999939,151L136,143.5h1.8000031l2.1000061,7.5h-1.6999969l-0.3000031-1.5h-1.8999939l-0.3000031,1.5
			H133.8999939z M136.1999969,148.1999969H137.5l-0.6000061-2.8000031L136.1999969,148.1999969z"/>
	</g>
	<g>
		<path class="st1" d="M140.5,143.5h2.6999969c1.8999939,0,2.3999939,0.8999939,2.3999939,2.1000061
			c0,0.6000061-0.3000031,1.1999969-0.8000031,1.3999939c0.6000061,0.1999969,1,0.6999969,1,1.6999969
			C145.7999878,150,145.1999817,151,143.1999817,151h-2.6999969v-7.5H140.5z M143.1999969,144.8999939h-1V146.5h1
			C143.8999939,146.5,144,146,144,145.6999969C143.8999939,145.3000031,143.8000031,144.8999939,143.1999969,144.8999939z
			 M142.1000061,149.6000061h1.1000061c0.6999969,0,0.8999939-0.3999939,0.8999939-0.8999939
			c0-0.6000061-0.3000031-0.8999939-0.8999939-0.8999939h-1.1000061V149.6000061z"/>
	</g>
	<g>
		<path class="st1" d="M148.1000061,149.5h3v1.5H146.5v-7.5h1.6000061V149.5z"/>
	</g>
	<g>
		<path class="st1" d="M153.8999939,148.1000061V151h-1.6000061v-2.8999939L149.8999939,143.5h1.8000031l1.3999939,3.1000061
			L154.4999847,143.5h1.8000031L153.8999939,148.1000061z"/>
	</g>
	<g>
		<path class="st1" d="M158.6000061,148.6000061V143.5h1.6000061v5c0,1,0.6000061,1.1000061,1.1999969,1.1000061
			s1.1999969-0.1999969,1.1999969-1.1000061v-5h1.6000061v5.1000061c0,2.1000061-1.6999969,2.5-2.8000031,2.5
			S158.6000061,150.6999969,158.6000061,148.6000061z"/>
	</g>
	<g>
		<path class="st1" d="M170.1999969,148.6000061c0,1.8999939-1.1999969,2.5-2.8999939,2.5
			C166.5,151.1000061,165.5,151,165,150.6000061V149c0.3000031,0.1999969,1.1999969,0.6000061,2.1999969,0.6000061
			c1.1000061,0,1.5-0.3999939,1.5-0.8999939c0-0.6000061-0.1999969-0.8000031-1-0.8999939
			c-1.8999939-0.1999969-2.6000061-0.8000031-2.6000061-2.3000031c0-1.3999939,0.8000031-2.3000031,2.8000031-2.3000031
			c1,0,1.8000031,0.1999969,2.1000061,0.3999939v1.5c-0.3999939-0.1999969-1.1999969-0.3999939-2-0.3999939
			s-1.3000031,0.3000031-1.3000031,0.6999969c0,0.5,0.3000031,0.6999969,1.1000061,0.8000031
			C169.3000031,146.6999969,170.1999969,147,170.1999969,148.6000061z"/>
	</g>
	<g>
		<path class="st1" d="M175.5,147.8000031h-2.8999939V149.5h3.1999969v1.5H171v-7.5h4.8000031v1.5h-3.1999969v1.3999939H175.5
			V147.8000031z"/>
	</g>
	<g>
		<path class="st1" d="M181.3999939,145v6h-1.6000061v-6H178v-1.5h5.1999969v1.5H181.3999939z"/>
	</g>
	<g>
		<path class="st1" d="M187.6999969,151v-3.1000061h-2.3000031V151h-1.6000061v-7.5h1.6000061v2.8999939h2.3000031V143.5h1.6000061
			v7.5H187.6999969z"/>
	</g>
	<g>
		<path class="st1" d="M194.6999969,147.8000031h-2.8999939V149.5H195v1.5h-4.8000031v-7.5H195v1.5h-3.1999969v1.3999939h2.8999939
			V147.8000031z"/>
	</g>
	<g>
		<path class="st1" d="M20.3999996,159.3000031c0-2.3000031,0.6000004-3.8999939,3-3.8999939s3,1.6000061,3,3.8999939
			s-0.6000004,3.8999939-3,3.8999939C21,163.1000061,20.3999996,161.5,20.3999996,159.3000031z M22,159.3000031
			c0,1.6999969,0.3999996,2.3999939,1.3999996,2.3999939S24.7999992,161,24.7999992,159.3000031
			s-0.3999996-2.3999939-1.3999996-2.3999939C22.3999996,156.8000031,22,157.5,22,159.3000031z"/>
	</g>
	<g>
		<path class="st1" d="M30.3999996,155.3999939c0.8999996,0,1.3000011,0.1999969,1.6000004,0.3000031v1.5
			c-0.4000015-0.1999969-0.7999992-0.3000031-1.3999996-0.3000031c-1.2000008,0-1.7999992,0.5-1.7999992,2.3999939
			s0.6000004,2.3999939,1.7999992,2.3999939c0.6000004,0,0.8999996-0.1000061,1.3999996-0.3000031v1.5
			c-0.2999992,0.1000061-0.7000008,0.3000031-1.6000004,0.3000031c-2.2000008,0-3.2000008-1.1000061-3.2000008-3.8999939
			C27.2000008,156.3999939,28.2000008,155.3999939,30.3999996,155.3999939z"/>
	</g>
	<g>
		<path class="st1" d="M37.2999992,159.8000031h-2.9000015V161.5h3.2000008v1.5h-4.7999992v-7.5h4.7999992v1.5h-3.2000008v1.3999939
			h2.9000015V159.8000031z"/>
	</g>
	<g>
		<path class="st1" d="M38.2000008,163l2.0999985-7.5h1.7999992l2.0999985,7.5h-1.7000008l-0.2999992-1.5h-1.9000015l-0.2999992,1.5
			H38.2000008z M40.5,160.1999969h1.2999992l-0.5999985-2.8000031L40.5,160.1999969z"/>
	</g>
	<g>
		<path class="st1" d="M48.7999992,163l-2.4000015-4.5v4.5h-1.5999985v-7.5h1.5999985l2.4000015,4.5v-4.5h1.5999985v7.5H48.7999992z
			"/>
	</g>
	<g>
		<path class="st1" d="M56.5,160.6000061c0,1.8999939-1.2000008,2.5-2.9000015,2.5c-0.7999992,0-1.7999992-0.1000061-2.2999992-0.5
			V161C51.5999985,161.1999969,52.5,161.6000061,53.5,161.6000061c1.0999985,0,1.5-0.3999939,1.5-0.8999939
			c0-0.6000061-0.2000008-0.8000031-1-0.8999939c-1.9000015-0.1999969-2.5999985-0.8000031-2.5999985-2.3000031
			c0-1.3999939,0.7999992-2.3000031,2.7999992-2.3000031c1,0,1.7999992,0.1999969,2.0999985,0.3999939v1.5
			c-0.4000015-0.1999969-1.2000008-0.3999939-2-0.3999939S53,157.0000153,53,157.4000092
			c0,0.5,0.2999992,0.6999969,1.0999985,0.8000031C55.5999985,158.6999969,56.5,159,56.5,160.6000061z"/>
	</g>
	<g>
		<path class="st1" d="M56.7999992,164.1999969L57.0999985,161.5h1.7000008l-0.9000015,2.6999969H56.7999992z"/>
	</g>
	<g>
		<path class="st1" d="M66.8000031,160.6000061c0,1.8999939-1.1999969,2.5-2.9000015,2.5
			c-0.8000031,0-1.7999992-0.1000061-2.2999992-0.5V161c0.2999992,0.1999969,1.2000008,0.6000061,2.2000008,0.6000061
			c1.0999985,0,1.5-0.3999939,1.5-0.8999939c0-0.6000061-0.1999969-0.8000031-1-0.8999939
			c-1.9000015-0.1999969-2.5999985-0.8000031-2.5999985-2.3000031c0-1.3999939,0.7999992-2.3000031,2.8000031-2.3000031
			c1,0,1.8000031,0.1999969,2.0999985,0.3999939v1.5c-0.4000015-0.1999969-1.1999969-0.3999939-2-0.3999939
			s-1.3000031,0.3000031-1.3000031,0.6999969c0,0.5,0.3000031,0.6999969,1.0999985,0.8000031
			C65.9000015,158.6999969,66.8000031,159,66.8000031,160.6000061z"/>
	</g>
	<g>
		<path class="st1" d="M72.0999985,159.8000031h-2.9000015V161.5h3.1999969v1.5h-4.8000031v-7.5h4.8000031v1.5h-3.1999969v1.3999939
			h2.9000015V159.8000031z"/>
	</g>
	<g>
		<path class="st1" d="M72.9000015,163L75,155.5h1.8000031l2.0999985,7.5h-1.6999969l-0.3000031-1.5H75l-0.3000031,1.5H72.9000015z
			 M75.3000031,160.1999969h1.3000031l-0.5999985-2.8000031L75.3000031,160.1999969z"/>
	</g>
	<g>
		<path class="st1" d="M84.5999985,160.6000061c0,1.8999939-1.1999969,2.5-2.9000015,2.5
			c-0.8000031,0-1.8000031-0.1000061-2.3000031-0.5V161c0.3000031,0.1999969,1.1999969,0.6000061,2.1999969,0.6000061
			c1.0999985,0,1.5-0.3999939,1.5-0.8999939c0-0.6000061-0.1999969-0.8000031-1-0.8999939
			c-1.9000015-0.1999969-2.5999985-0.8000031-2.5999985-2.3000031c0-1.3999939,0.8000031-2.3000031,2.8000031-2.3000031
			c1,0,1.8000031,0.1999969,2.0999985,0.3999939v1.5c-0.4000015-0.1999969-1.1999969-0.3999939-2-0.3999939
			s-1.3000031,0.3000031-1.3000031,0.6999969c0,0.5,0.3000031,0.6999969,1.0999985,0.8000031
			C83.6999969,158.6999969,84.5999985,159,84.5999985,160.6000061z"/>
	</g>
	<g>
		<path class="st1" d="M87.0999985,163l2.0999985-7.5H91l2.0999985,7.5h-1.6999969l-0.3000031-1.5h-1.9000015l-0.3000031,1.5
			H87.0999985z M89.4000015,160.1999969h1.3000031l-0.5999985-2.8000031L89.4000015,160.1999969z"/>
	</g>
	<g>
		<path class="st1" d="M97.6999969,163l-2.4000015-4.5v4.5h-1.5999985v-7.5h1.5999985l2.4000015,4.5v-4.5h1.5999985v7.5H97.6999969z
			"/>
	</g>
	<g>
		<path class="st1" d="M100.1999969,163v-7.5h2.4000015c2.5,0,3.1999969,1.6000061,3.1999969,3.6999969
			s-0.6999969,3.6999969-3.1999969,3.6999969h-2.4000015V163z M101.8000031,161.5h0.9000015
			c1.1999969,0,1.5-0.8000031,1.5-2.3000031c0-1.3999939-0.3000031-2.3000031-1.5-2.3000031h-0.9000015V161.5z"/>
	</g>
	<g>
		<path class="st1" d="M113,162.1000061h-1.5999985l-1.1999969-3.6999969l0.0999985,4.6000061h-1.5999985v-7.5h2l1.5,4.6999969
			l1.5-4.6999969h2v7.5h-1.5999985v-4.6000061L113,162.1000061z"/>
	</g>
	<g>
		<path class="st1" d="M116.3000031,163l2.0999985-7.5h1.8000031l2.0999985,7.5h-1.6999969l-0.3000031-1.5h-1.9000015L118,163
			H116.3000031z M118.6999969,160.1999969H120l-0.5999985-2.8000031L118.6999969,160.1999969z"/>
	</g>
	<g>
		<path class="st1" d="M124.5999985,163H123v-7.5h2.5c2,0,2.6999969,0.8999939,2.6999969,2.3000031
			c0,0.8999939-0.3000031,1.6000061-1,2L128.5,162.9000092h-1.9000015l-1-2.8000031h-1V163z M124.5999985,158.6999969h1.0999985
			c0.6999969,0,0.8000031-0.5,0.8000031-0.8999939s-0.0999985-0.8999939-0.8000031-0.8999939h-1.0999985V158.6999969z"/>
	</g>
	<g>
		<path class="st1" d="M129.1000061,163v-7.5h1.6000061v7.5H129.1000061z"/>
	</g>
	<g>
		<path class="st1" d="M135.6999969,163l-2.3999939-4.5v4.5h-1.6000061v-7.5h1.6000061l2.3999939,4.5v-4.5h1.6000061v7.5
			H135.6999969z"/>
	</g>
	<g>
		<path class="st1" d="M142.6999969,159.8000031h-2.8999939V161.5H143v1.5h-4.8000031v-7.5H143v1.5h-3.1999969v1.3999939h2.8999939
			V159.8000031z"/>
	</g>
	<g>
		<path class="st1" d="M147.3999939,163h-1.6000061v-7.5h2.5c2,0,2.6999969,0.8999939,2.6999969,2.3000031
			c0,0.8999939-0.3000031,1.6000061-1,2l1.3000031,3.1000061h-1.8999939l-1-2.8000031h-1V163z M147.3999939,158.6999969H148.5
			c0.6999969,0,0.8000031-0.5,0.8000031-0.8999939s-0.1000061-0.8999939-0.8000031-0.8999939h-1.1000061V158.6999969z"/>
	</g>
	<g>
		<path class="st1" d="M156.3999939,159.8000031H153.5V161.5h3.1999969v1.5h-4.8000031v-7.5h4.8000031v1.5H153.5v1.3999939
			h2.8999939V159.8000031z"/>
	</g>
	<g>
		<path class="st1" d="M162.6000061,160.6000061c0,1.8999939-1.1999969,2.5-2.8999939,2.5
			c-0.8000031,0-1.8000031-0.1000061-2.3000031-0.5V161c0.3000031,0.1999969,1.1999969,0.6000061,2.1999969,0.6000061
			c1.1000061,0,1.5-0.3999939,1.5-0.8999939c0-0.6000061-0.1999969-0.8000031-1-0.8999939
			C158.2000122,159.6000214,157.5,159.0000153,157.5,157.5000153c0-1.3999939,0.8000031-2.3000031,2.8000031-2.3000031
			c1,0,1.8000031,0.1999969,2.1000061,0.3999939v1.5c-0.3999939-0.1999969-1.1999969-0.3999939-2-0.3999939
			s-1.3000031,0.3000031-1.3000031,0.6999969c0,0.5,0.3000031,0.6999969,1.1000061,0.8000031
			C161.6999969,158.6999969,162.6000061,159,162.6000061,160.6000061z"/>
	</g>
	<g>
		<path class="st1" d="M163.3999939,159.3000031c0-2.3000031,0.6000061-3.8999939,3-3.8999939s3,1.6000061,3,3.8999939
			s-0.6000061,3.8999939-3,3.8999939C164,163.1000061,163.3999939,161.5,163.3999939,159.3000031z M165,159.3000031
			c0,1.6999969,0.3999939,2.3999939,1.3999939,2.3999939s1.3999939-0.6999969,1.3999939-2.3999939
			s-0.3999939-2.3999939-1.3999939-2.3999939C165.3999939,156.8000031,165,157.5,165,159.3000031z"/>
	</g>
	<g>
		<path class="st1" d="M170.1999969,160.6000061V155.5h1.6000061v5c0,1,0.6000061,1.1000061,1.1999969,1.1000061
			s1.1999969-0.1999969,1.1999969-1.1000061v-5h1.6000061v5.1000061c0,2.1000061-1.6999969,2.5-2.8000031,2.5
			S170.1999969,162.6999969,170.1999969,160.6000061z"/>
	</g>
	<g>
		<path class="st1" d="M178.1999969,163h-1.6000061v-7.5h2.5c2,0,2.6999969,0.8999939,2.6999969,2.3000031
			c0,0.8999939-0.3000031,1.6000061-1,2l1.3000031,3.1000061h-1.8999939l-1-2.8000031h-1V163z M178.1999969,158.6999969h1.1000061
			c0.6999969,0,0.8000031-0.5,0.8000031-0.8999939S180,156.9000092,179.3000031,156.9000092h-1.1000061V158.6999969z"/>
	</g>
	<g>
		<path class="st1" d="M185.8999939,155.3999939c0.8999939,0,1.3000031,0.1999969,1.6000061,0.3000031v1.5
			c-0.5-0.1999969-0.8000031-0.3000031-1.3999939-0.3000031c-1.1999969,0-1.8000031,0.5-1.8000031,2.3999939
			s0.6000061,2.3999939,1.8000031,2.3999939c0.6000061,0,0.8999939-0.1000061,1.3999939-0.3000031v1.5
			c-0.3000031,0.1000061-0.6999969,0.3000031-1.6000061,0.3000031c-2.1999969,0-3.1999969-1.1000061-3.1999969-3.8999939
			C182.6000061,156.3999939,183.6999969,155.3999939,185.8999939,155.3999939z"/>
	</g>
	<g>
		<path class="st1" d="M192.8000031,159.8000031h-2.8999939V161.5h3.1999969v1.5h-4.8000031v-7.5h4.8000031v1.5h-3.1999969
			v1.3999939h2.8999939V159.8000031z"/>
	</g>
	<g>
		<path class="st1" d="M199.1000061,160.6000061c0,1.8999939-1.1999969,2.5-2.8999939,2.5
			c-0.8000031,0-1.8000031-0.1000061-2.3000031-0.5V161c0.3999939,0.1999969,1.1999969,0.6000061,2.1999969,0.6000061
			c1.1000061,0,1.5-0.3999939,1.5-0.8999939c0-0.6000061-0.1999969-0.8000031-1-0.8999939
			C194.7000122,159.6000214,194,159.0000153,194,157.5000153c0-1.3999939,0.8000031-2.3000031,2.8000031-2.3000031
			c1,0,1.8000031,0.1999969,2.1000061,0.3999939v1.5c-0.3999939-0.1999969-1.1999969-0.3999939-2-0.3999939
			s-1.3000031,0.3000031-1.3000031,0.6999969c0,0.5,0.3000031,0.6999969,1.1000061,0.8000031
			C198.1999969,158.6999969,199.1000061,159,199.1000061,160.6000061z"/>
	</g>
	<g>
		<path class="st1" d="M40.4000015,171.8999939h-2.7999992V175H36v-7.5h4.7000008v1.5h-3.0999985v1.5h2.7999992V171.8999939z"/>
	</g>
	<g>
		<path class="st1" d="M41.2999992,171.3000031c0-2.3000031,0.5999985-3.8999939,3-3.8999939s3,1.6000061,3,3.8999939
			s-0.5999985,3.8999939-3,3.8999939C41.9000015,175.1000061,41.2999992,173.5,41.2999992,171.3000031z M42.9000015,171.3000031
			c0,1.6999969,0.4000015,2.3999939,1.4000015,2.3999939S45.7000046,173,45.7000046,171.3000031
			s-0.4000015-2.3999939-1.4000015-2.3999939C43.2999992,168.8000031,42.9000015,169.5,42.9000015,171.3000031z"/>
	</g>
	<g>
		<path class="st1" d="M49.7000008,175h-1.5999985v-7.5h2.5c2,0,2.7000008,0.8999939,2.7000008,2.3000031
			c0,0.8999939-0.2999992,1.6000061-1,2l1.2999992,3.1000061h-1.9000015l-1-2.8000031h-1V175z M49.7000008,170.6999969h1.0999985
			c0.7000008,0,0.7999992-0.5,0.7999992-0.8999939S51.5,168.9000092,50.7999992,168.9000092h-1.0999985V170.6999969z"/>
	</g>
	<g>
		<path class="st1" d="M61.4000015,172.6000061c0,1.8999939-1.2000008,2.5-2.9000015,2.5
			c-0.7999992,0-1.7999992-0.1000061-2.2999992-0.5V173c0.2999992,0.1999969,1.2000008,0.6000061,2.2000008,0.6000061
			c1.0999985,0,1.5-0.3999939,1.5-0.8999939c0-0.6000061-0.2000008-0.8000031-1-0.8999939
			c-1.9000015-0.1999969-2.5999985-0.8000031-2.5999985-2.3000031c0-1.3999939,0.7999992-2.3000031,2.7999992-2.3000031
			c1,0,1.7999992,0.1999969,2.0999985,0.3999939v1.5c-0.4000015-0.1999969-1.2000008-0.3999939-2-0.3999939
			s-1.2999992,0.3000031-1.2999992,0.6999969c0,0.5,0.2999992,0.6999969,1.0999985,0.8000031
			C60.5,170.6999969,61.4000015,171,61.4000015,172.6000061z"/>
	</g>
	<g>
		<path class="st1" d="M62.0999985,172.6000061V167.5h1.5999985v5c0,1,0.5999985,1.1000061,1.1999969,1.1000061
			s1.1999969-0.1999969,1.1999969-1.1000061v-5h1.5999985v5.1000061c0,2.1000061-1.5999985,2.5-2.8000031,2.5
			S62.0999985,174.6999969,62.0999985,172.6000061z"/>
	</g>
	<g>
		<path class="st1" d="M73.6999969,172.6000061c0,1.8999939-1.1999969,2.5-2.9000015,2.5
			c-0.8000031,0-1.8000031-0.1000061-2.3000031-0.5V173c0.3000031,0.1999969,1.1999969,0.6000061,2.1999969,0.6000061
			c1.0999985,0,1.5-0.3999939,1.5-0.8999939c0-0.6000061-0.1999969-0.8000031-1-0.8999939
			c-1.9000015-0.1999969-2.5999985-0.8000031-2.5999985-2.3000031c0-1.3999939,0.8000031-2.3000031,2.8000031-2.3000031
			c1,0,1.8000031,0.1999969,2.0999985,0.3999939v1.5c-0.4000015-0.1999969-1.1999969-0.3999939-2-0.3999939
			s-1.3000031,0.3000031-1.3000031,0.6999969c0,0.5,0.3000031,0.6999969,1.0999985,0.8000031
			C72.8000031,170.6999969,73.6999969,171,73.6999969,172.6000061z"/>
	</g>
	<g>
		<path class="st1" d="M77.3000031,169v6h-1.5999985v-6h-1.8000031v-1.5h5.1999969v1.5H77.3000031z"/>
	</g>
	<g>
		<path class="st1" d="M78.6999969,175l2.0999985-7.5h1.8000031l2.0999985,7.5H83l-0.3000031-1.5h-1.9000015l-0.3000031,1.5
			H78.6999969z M81,172.1999969h1.3000031l-0.5999985-2.8000031L81,172.1999969z"/>
	</g>
	<g>
		<path class="st1" d="M85.4000015,175v-7.5H87v7.5H85.4000015z"/>
	</g>
	<g>
		<path class="st1" d="M92,175l-2.4000015-4.5v4.5H88v-7.5h1.5999985L92,172v-4.5h1.5999985v7.5H92z"/>
	</g>
	<g>
		<path class="st1" d="M94.3000031,175l2.0999985-7.5h1.8000031l2.0999985,7.5h-1.6999969l-0.3000031-1.5h-1.9000015L96,175
			H94.3000031z M96.5999985,172.1999969h1.3000031l-0.5999985-2.8000031L96.5999985,172.1999969z"/>
	</g>
	<g>
		<path class="st1" d="M100.9000015,167.5h2.6999969C105.5,167.5,106,168.3999939,106,169.6000061
			c0,0.6000061-0.3000031,1.1999969-0.8000031,1.3999939c0.5999985,0.1999969,1,0.6999969,1,1.6999969
			C106.1999969,174,105.5999985,175,103.5999985,175h-2.6999969V167.5z M103.5,168.8999939h-1V170.5h1
			c0.6999969,0,0.8000031-0.5,0.8000031-0.8000031C104.3000031,169.3000031,104.1999969,168.8999939,103.5,168.8999939z
			 M102.5,173.6000061h1.0999985c0.6999969,0,0.9000015-0.3999939,0.9000015-0.8999939
			c0-0.6000061-0.3000031-0.8999939-0.9000015-0.8999939H102.5V173.6000061z"/>
	</g>
	<g>
		<path class="st1" d="M108.5,173.5h3v1.5h-4.5999985v-7.5H108.5V173.5z"/>
	</g>
	<g>
		<path class="st1" d="M116.5999985,171.8000031h-2.9000015V173.5h3.1999969v1.5h-4.8000031v-7.5h4.8000031v1.5h-3.1999969
			v1.3999939h2.9000015V171.8000031z"/>
	</g>
	<g>
		<path class="st1" d="M119.6999969,175v-7.5h2.4000015c2.5,0,3.1999969,1.6000061,3.1999969,3.6999969
			s-0.6999969,3.6999969-3.1999969,3.6999969h-2.4000015V175z M121.3000031,173.5h0.9000015
			c1.1999969,0,1.5-0.8000031,1.5-2.3000031c0-1.3999939-0.3000031-2.3000031-1.5-2.3000031h-0.9000015V173.5z"/>
	</g>
	<g>
		<path class="st1" d="M130.6999969,171.8000031h-2.8999939V173.5H131v1.5h-4.8000031v-7.5H131v1.5h-3.1999969v1.3999939h2.8999939
			V171.8000031z"/>
	</g>
	<g>
		<path class="st1" d="M137.5,167.5l-2.1000061,7.5h-1.8000031l-2.1000061-7.5h1.6999969l1.3000031,5.6999969L135.7999878,167.5
			H137.5z"/>
	</g>
	<g>
		<path class="st1" d="M142.6999969,171.8000031h-2.8999939V173.5H143v1.5h-4.8000031v-7.5H143v1.5h-3.1999969v1.3999939h2.8999939
			V171.8000031z"/>
	</g>
	<g>
		<path class="st1" d="M145.3999939,173.5h3v1.5h-4.6000061v-7.5h1.6000061V173.5z"/>
	</g>
	<g>
		<path class="st1" d="M148.3999939,171.3000031c0-2.3000031,0.6000061-3.8999939,3-3.8999939s3,1.6000061,3,3.8999939
			s-0.6000061,3.8999939-3,3.8999939C149.1000061,175.1000061,148.3999939,173.5,148.3999939,171.3000031z M150,171.3000031
			c0,1.6999969,0.3999939,2.3999939,1.3999939,2.3999939s1.3999939-0.6999969,1.3999939-2.3999939
			s-0.3999939-2.3999939-1.3999939-2.3999939C150.3999939,168.8000031,150,169.5,150,171.3000031z"/>
	</g>
	<g>
		<path class="st1" d="M156.8999939,175h-1.6000061v-7.5h2.5c2,0,2.6999969,1.1999969,2.6999969,2.3999939
			c0,1.3000031-0.6999969,2.3999939-2.6999969,2.3999939h-0.8999939V175z M156.8999939,171h0.8999939
			c0.8000031,0,0.8999939-0.6000061,0.8999939-1s-0.1999969-1-0.8999939-1h-0.8999939V171z"/>
	</g>
	<g>
		<path class="st1" d="M165.3999939,174.1000061h-1.6000061l-1.1999969-3.6999969l0.1000061,4.6000061h-1.6000061v-7.5h2
			l1.5,4.6999969l1.5-4.6999969h2v7.5h-1.6000061v-4.6000061L165.3999939,174.1000061z"/>
	</g>
	<g>
		<path class="st1" d="M173.5,171.8000031h-2.8999939V173.5h3.1999969v1.5H169v-7.5h4.8000031v1.5h-3.1999969v1.3999939H173.5
			V171.8000031z"/>
	</g>
	<g>
		<path class="st1" d="M178.5,175l-2.3999939-4.5v4.5H174.5v-7.5h1.6000061L178.5,172v-4.5h1.6000061v7.5H178.5z"/>
	</g>
	<g>
		<path class="st1" d="M184.1000061,169v6H182.5v-6h-1.8000031v-1.5h5.1999969v1.5H184.1000061z"/>
	</g>
</g>
</svg>
