<?xml version="1.0" encoding="utf-8"?>
<!-- Generator: Adobe Illustrator 20.1.0, SVG Export Plug-In . SVG Version: 6.00 Build 0)  -->
<svg version="1.1" id="Layer_1" xmlns="http://www.w3.org/2000/svg" xmlns:xlink="http://www.w3.org/1999/xlink" x="0px" y="0px"
	 width="218px" height="218px" viewBox="0 0 218 218" style="enable-background:new 0 0 218 218;" xml:space="preserve">
<style type="text/css">
	.st0{fill:#C7212F;}
	.st1{fill:#FFFFFF;}
	.st2{enable-background:new    ;}
</style>
<g>
	<circle class="st0" cx="109.4063339" cy="108.9393158" r="108"/>
</g>
<g>
	<path class="st1" d="M71.9067383,48.2587891h5.1005859v7.550293h-5.1005859v8.8505859H64.15625V55.809082H48.3554688v-4.9501953
		l17.1508789-24.3515625h6.4003906V48.2587891z M64.15625,48.2587891l0.1000977-8.8007812l-6.2001953,8.9506836L64.15625,48.2587891
		z"/>
</g>
<g>
	<path class="st1" d="M96.409668,40.0600586l2.8330078,0.5761719v2.5771484L91.6875,40.6040039
		c-2.3369141-0.8164062-2.9931641-2.9291992-2.9931641-5.9863281c0-3.6655273,0.9921875-6.2265625,4.7861328-6.2265625
		c3.7773438,0,4.7856445,2.5610352,4.7856445,6.2265625c0,2.4331055-0.4482422,4.4018555-1.8564453,5.4262695V40.0600586z
		 M91.2875977,34.6176758c0,2.8012695,0.6079102,3.9057617,2.1928711,3.9057617
		c1.5844727,0,2.1928711-1.1044922,2.1928711-3.9057617s-0.6083984-3.9057617-2.1928711-3.9057617
		C91.8955078,30.7119141,91.2875977,31.8164062,91.2875977,34.6176758z"/>
	<path class="st1" d="M99.5742188,36.8266602v-8.2114258h2.5610352v8.0834961c0,1.5522461,1.0083008,1.824707,1.9047852,1.824707
		s1.9047852-0.2724609,1.9047852-1.824707v-8.0834961h2.5610352v8.2114258c0,3.2973633-2.6411133,4.0175781-4.4658203,4.0175781
		S99.5742188,40.1240234,99.5742188,36.8266602z"/>
	<path class="st1" d="M109.1582031,40.6201172l3.3291016-12.0688477h2.9453125l3.3291016,12.0688477h-2.7207031
		l-0.5605469-2.4648438h-3.0410156l-0.5605469,2.4648438H109.1582031z M112.9355469,36.1220703h2.0488281l-1.0244141-4.5454102
		L112.9355469,36.1220703z"/>
	<path class="st1" d="M122.375,38.2832031h4.8505859v2.3369141h-7.4111328V28.6152344H122.375V38.2832031z"/>
	<path class="st1" d="M128.3105469,40.6201172V28.6152344h2.5615234v12.0048828H128.3105469z"/>
	<path class="st1" d="M137.4794922,30.9521484v9.6679688h-2.5605469v-9.6679688h-2.8974609v-2.3369141h8.3554688v2.3369141
		H137.4794922z"/>
	<path class="st1" d="M147.1601562,35.9624023v4.6577148h-2.59375v-4.6577148l-3.8085938-7.347168h2.9287109l2.1767578,5.0102539
		l2.1767578-5.0102539h2.9296875L147.1601562,35.9624023z"/>
	<path class="st1" d="M95.9614258,54.762207h-4.6259766v2.7211914h5.0898438v2.3369141h-7.6508789V47.8154297h7.6508789v2.3369141
		h-5.0898438v2.3208008h4.6259766V54.762207z"/>
	<path class="st1" d="M97.734375,59.8203125V47.8154297h3.8896484c4.0654297,0,5.1220703,2.5932617,5.1220703,6.0024414
		s-1.0566406,6.0024414-5.1220703,6.0024414H97.734375z M100.2954102,57.4833984h1.3764648
		c1.8730469,0,2.4169922-1.3447266,2.4169922-3.6655273c0-2.3046875-0.5439453-3.6655273-2.4169922-3.6655273h-1.3764648V57.4833984
		z"/>
	<path class="st1" d="M107.9741211,56.0268555v-8.2114258h2.5610352v8.0834961c0,1.5522461,1.0078125,1.824707,1.9042969,1.824707
		s1.9052734-0.2724609,1.9052734-1.824707v-8.0834961h2.5605469v8.2114258c0,3.2973633-2.640625,4.0175781-4.4658203,4.0175781
		C110.6152344,60.0444336,107.9741211,59.3242188,107.9741211,56.0268555z"/>
	<path class="st1" d="M123.4003906,47.5913086c1.3925781,0,2.0166016,0.2563477,2.4970703,0.4482422v2.4169922
		c-0.7207031-0.2880859-1.28125-0.4643555-2.2412109-0.4643555c-1.953125,0-2.8496094,0.784668-2.8496094,3.8256836
		s0.8964844,3.8256836,2.8496094,3.8256836c0.9599609,0,1.5205078-0.1762695,2.2412109-0.4643555v2.4169922
		c-0.4804688,0.1918945-1.1044922,0.4482422-2.4970703,0.4482422c-3.5058594,0-5.1708984-1.7128906-5.1865234-6.2265625
		C118.2294922,49.3041992,119.8945312,47.5913086,123.4003906,47.5913086z"/>
	<path class="st1" d="M126.7099609,59.8203125l3.3291016-12.0688477h2.9453125l3.3291016,12.0688477h-2.7207031
		l-0.5605469-2.4648438h-3.0410156l-0.5605469,2.4648438H126.7099609z M130.4873047,55.3222656h2.0488281l-1.0244141-4.5454102
		L130.4873047,55.3222656z"/>
	<path class="st1" d="M140.8085938,50.1523438v9.6679688h-2.5605469v-9.6679688h-2.8974609v-2.3369141h8.3554688v2.3369141
		H140.8085938z"/>
	<path class="st1" d="M144.8535156,59.8203125V47.8154297h2.5615234v12.0048828H144.8535156z"/>
	<path class="st1" d="M148.9824219,53.8178711c0-3.6655273,1.0087891-6.2265625,4.7861328-6.2265625
		s4.7861328,2.5610352,4.7861328,6.2265625s-1.0087891,6.2265625-4.7861328,6.2265625
		S148.9824219,57.4833984,148.9824219,53.8178711z M151.5751953,53.8178711c0,2.8012695,0.6083984,3.9057617,2.1933594,3.9057617
		c1.5839844,0,2.1923828-1.1044922,2.1923828-3.9057617s-0.6083984-3.9057617-2.1923828-3.9057617
		C152.1835938,49.9121094,151.5751953,51.0166016,151.5751953,53.8178711z"/>
	<path class="st1" d="M166.2802734,59.8203125l-3.8740234-7.1708984l0.0644531,7.1708984h-2.5292969V47.8154297h2.5292969
		l3.8730469,7.1708984l-0.0634766-7.1708984h2.5283203v12.0048828H166.2802734z"/>
</g>
<g>
	<polygon class="st1" points="101.6999969,95.6999969 79,82.5999985 79,125 101.6999969,131.8999939 	"/>
	<polygon class="st1" points="104.1999969,95.8000031 104.1999969,131.8999939 127,125 127,82.5999985 	"/>
	<path class="st1" d="M144.8999939,81.5c0-1.5-1.1999969-2.6999969-2.6999969-2.6999969S139.5,80,139.5,81.5v2.9000015h5.3999939
		V81.5L144.8999939,81.5z"/>
	<polygon class="st1" points="140.1999969,124.3000031 139.5,124.3000031 142.1999969,133.6000061 144.8999939,124.3000031 
		144.1999969,124.3000031 144.8999939,124.3000031 144.8999939,86.5 144.1999969,86.5 143.5,86.5 142.8000031,86.5 141.5,86.5 
		140.8000031,86.5 140.1999969,86.5 139.5,86.5 139.5,124.3000031 	"/>
	<polygon class="st1" points="131.8999939,84.4000015 129.5,82.5 129.5,126.1999969 104.3000031,134.3000031 
		103.0999985,134.3000031 102.9000015,134.3000031 101.6999969,134.3000031 76.5999985,127.3000031 76.5999985,82.5 
		74.1999969,84.4000015 74.1999969,129 101.5999985,136.6000061 102.9000015,136.6000061 103.0999985,136.6000061 
		104.4000015,136.6000061 129.6999969,128.6000061 131.8999939,127.9000015 	"/>
</g>
<g class="st2">
	<path class="st1" d="M35.0999985,153.1999969h-2.9000015v1.6999969h3.2000008v1.5h-4.7999992v-7.5h4.7999992v1.5h-3.2000008
		v1.3999939h2.9000015V153.1999969z"/>
	<path class="st1" d="M40.2000008,156.3999939l-2.4000015-4.5v4.5h-1.5999985v-7.5h1.5999985l2.4000015,4.5v-4.5h1.5999985v7.5
		H40.2000008z"/>
	<path class="st1" d="M47.9000015,154c0,1.8999939-1.2000008,2.5-2.9000015,2.5c-0.7999992,0-1.7999992-0.1000061-2.2999992-0.5
		v-1.6000061C43,154.5999908,43.9000015,155,44.9000015,155c1.0999985,0,1.5-0.3999939,1.5-0.8999939
		c0-0.6000061-0.2000008-0.8000031-1-0.8999939c-1.9000015-0.1999969-2.5999985-0.8000031-2.5999985-2.3000031
		c0-1.3999939,0.7999992-2.3000031,2.7999992-2.3000031c1,0,1.7999992,0.1999969,2.0999985,0.3999939v1.5
		c-0.4000015-0.1999969-1.2000008-0.3999939-2-0.3999939s-1.2999992,0.3000031-1.2999992,0.6999969
		c0,0.5,0.2999992,0.6999969,1.0999985,0.8000031C46.9000015,152,47.9000015,152.3999939,47.9000015,154z"/>
	<path class="st1" d="M48.5999985,154v-5.1000061h1.5999985v5c0,1,0.5999985,1.1000061,1.2000008,1.1000061
		s1.2000008-0.1999969,1.2000008-1.1000061v-5h1.5999985V154c0,2.1000061-1.5999985,2.5-2.7999992,2.5
		S48.5999985,156,48.5999985,154z"/>
	<path class="st1" d="M56.5999985,156.3999939H55v-7.5h2.5c2,0,2.7000008,0.8999939,2.7000008,2.3000031
		c0,0.8999939-0.2999992,1.6000061-1,2L60.5,156.3000031h-1.9000015l-1-2.8000031h-1V156.3999939L56.5999985,156.3999939z
		 M56.5999985,152.1000061h1.0999985c0.7000008,0,0.7999992-0.5,0.7999992-0.8999939s-0.0999985-0.8999939-0.7999992-0.8999939
		h-1.0999985V152.1000061z"/>
	<path class="st1" d="M65.5999985,153.1999969h-2.9000015v1.6999969h3.1999969v1.5h-4.7999992v-7.5h4.7999992v1.5h-3.2000008
		v1.3999939h2.8999977C65.5999908,151.7999878,65.5999908,153.1999969,65.5999985,153.1999969z"/>
	<path class="st1" d="M68.8000031,156.3999939v-7.5h1.5999985v7.5H68.8000031z"/>
	<path class="st1" d="M75.4000015,156.3999939l-2.4000015-4.5v4.5h-1.5999985v-7.5H73l2.4000015,4.5v-4.5H77v7.5H75.4000015z"/>
	<path class="st1" d="M81.0999985,148.6999969c0.9000015,0,1.3000031,0.1999969,1.5999985,0.3000031v1.5
		c-0.4000015-0.1999969-0.8000031-0.3000031-1.4000015-0.3000031c-1.1999969,0-1.8000031,0.5-1.8000031,2.3999939
		s0.5999985,2.3999939,1.8000031,2.3999939c0.5999985,0,0.9000015-0.1000061,1.4000015-0.3000031v1.5
		c-0.3000031,0.1000061-0.6999969,0.3000031-1.5999985,0.3000031c-2.1999969,0-3.1999969-1.1000061-3.1999969-3.8999939
		C77.8000031,149.8000031,78.9000015,148.6999969,81.0999985,148.6999969z"/>
	<path class="st1" d="M85.0999985,154.8999939h3v1.5H83.5v-7.5h1.5999985V154.8999939z"/>
	<path class="st1" d="M88.5999985,154v-5.1000061h1.5999985v5c0,1,0.5999985,1.1000061,1.1999969,1.1000061
		s1.1999969-0.1999969,1.1999969-1.1000061v-5h1.5999985V154c0,2.1000061-1.5999985,2.5-2.8000031,2.5
		S88.5999985,156,88.5999985,154z"/>
	<path class="st1" d="M100.3000031,154c0,1.8999939-1.1999969,2.5-2.9000015,2.5c-0.8000031,0-1.8000031-0.1000061-2.3000031-0.5
		v-1.6000061C95.4000015,154.5999908,96.2999954,155,97.2999954,155c1.0999985,0,1.5-0.3999939,1.5-0.8999939
		c0-0.6000061-0.1999969-0.8000031-1-0.8999939c-1.9000015-0.1999969-2.5999985-0.8000031-2.5999985-2.3000031
		c0-1.3999939,0.8000031-2.3000031,2.8000031-2.3000031c1,0,1.8000031,0.1999969,2.0999985,0.3999939v1.5
		c-0.4000015-0.1999969-1.1999969-0.3999939-2-0.3999939s-1.3000031,0.3000031-1.3000031,0.6999969
		c0,0.5,0.3000031,0.6999969,1.0999985,0.8000031C99.4000015,152,100.3000031,152.3999939,100.3000031,154z"/>
	<path class="st1" d="M101.1999969,156.3999939v-7.5h1.5999985v7.5H101.1999969z"/>
	<path class="st1" d="M109.5,148.8999939l-2.0999985,7.5h-1.8000031l-2.0999985-7.5h1.6999969L106.5,154.5999908
		l1.3000031-5.6999969H109.5z"/>
	<path class="st1" d="M114.6999969,153.1999969h-2.9000015v1.6999969h3.1999969v1.5h-4.8000031v-7.5h4.8000031v1.5h-3.1999969
		v1.3999939h2.9000015V153.1999969z"/>
	<path class="st1" d="M117.5,156.3999939l2.0999985-7.5h1.8000031l2.0999985,7.5h-1.6999969l-0.3000031-1.5h-1.9000015
		l-0.3000031,1.5H117.5z M119.9000015,153.5h1.3000031l-0.5999985-2.8000031L119.9000015,153.5z"/>
	<path class="st1" d="M128.1000061,156.3999939l-2.4000092-4.5v4.5h-1.5999985v-7.5h1.5999985l2.4000092,4.5v-4.5h1.5999908v7.5
		H128.1000061z"/>
	<path class="st1" d="M130.6000061,156.3999939v-7.5H133c2.5,0,3.1999969,1.6000061,3.1999969,3.6999969
		S135.5,156.2999878,133,156.2999878h-2.3999939V156.3999939z M132.1999969,154.8999939h0.8999939
		c1.1999969,0,1.5-0.8000031,1.5-2.3000031c0-1.3999939-0.3000031-2.3000031-1.5-2.3000031h-0.8999939V154.8999939z"/>
	<path class="st1" d="M143.6000061,153.1999969h-2.8999939v1.6999969h3.1999969v1.5h-4.8000031v-7.5h4.8000031v1.5h-3.1999969
		v1.3999939h2.8999939V153.1999969z"/>
	<path class="st1" d="M149.5,156l1.8000031,0.3999939V158l-4.6999969-1.6000061c-1.5-0.5-1.8999939-1.8000031-1.8999939-3.6999969
		c0-2.3000031,0.6000061-3.8999939,3-3.8999939s3,1.6000061,3,3.8999939C150.6000061,154.1000061,150.3000031,155.3999939,149.5,156
		L149.5,156z M146.3000031,152.6000061c0,1.6999969,0.3999939,2.3999939,1.3999939,2.3999939
		s1.3999939-0.6999969,1.3999939-2.3999939s-0.3999939-2.3999939-1.3999939-2.3999939
		C146.6000061,150.1999969,146.3000031,150.8999939,146.3000031,152.6000061z"/>
	<path class="st1" d="M151.3999939,154v-5.1000061H153v5c0,1,0.6000061,1.1000061,1.1999969,1.1000061
		s1.1999969-0.1999969,1.1999969-1.1000061v-5H157V154c0,2.1000061-1.6000061,2.5-2.8000031,2.5
		C153.1000061,156.5,151.3999939,156,151.3999939,154z"/>
	<path class="st1" d="M158,156.3999939v-7.5h1.6000061v7.5H158z"/>
	<path class="st1" d="M163.6999969,150.3000031v6h-1.6000061v-6h-1.8000031v-1.5h5.1999969v1.5H163.6999969z"/>
	<path class="st1" d="M165.1000061,156.3999939l2.1000061-7.5h1.8000031l2.1000061,7.5h-1.6999969l-0.3999939-1.5h-1.8999939
		l-0.3999939,1.5H165.1000061z M167.5,153.5h1.3000031l-0.6000061-2.8000031L167.5,153.5z"/>
	<path class="st1" d="M171.8000031,148.8999939H174.5c1.8999939,0,2.3999939,0.8999939,2.3999939,2.1000061
		c0,0.6000061-0.3000031,1.1999969-0.8000031,1.3999939c0.6000061,0.1999969,1,0.6999969,1,1.6999969
		c0,1.3000031-0.6000061,2.3000031-2.6000061,2.3000031h-2.6999969L171.8000031,148.8999939L171.8000031,148.8999939z
		 M174.3999939,150.1999969h-1v1.6000061h1c0.6999969,0,0.8000031-0.5,0.8000031-0.8000031
		S175.1000061,150.1999969,174.3999939,150.1999969z M173.3999939,155H174.5c0.6999969,0,0.8999939-0.3999939,0.8999939-0.8999939
		c0-0.6000061-0.3000031-0.8999939-0.8999939-0.8999939h-1.1000061V155z"/>
	<path class="st1" d="M179.3999939,154.8999939h3v1.5h-4.6000061v-7.5h1.6000061V154.8999939z"/>
	<path class="st1" d="M187.5,153.1999969h-2.8999939v1.6999969h3.1999969v1.5H183v-7.5h4.8000031v1.5h-3.1999969v1.3999939H187.5
		V153.1999969z"/>
</g>
<g class="st2">
	<path class="st1" d="M57.2999992,168l1.7999992,0.3999939V170l-4.7000008-1.6000061
		c-1.5-0.5-1.9000015-1.8000031-1.9000015-3.6999969c0-2.3000031,0.5999985-3.8999939,3-3.8999939s3,1.6000061,3,3.8999939
		C58.5,166.1000061,58.2000008,167.3999939,57.2999992,168L57.2999992,168z M54.0999985,164.6000061
		C54.0999985,166.3000031,54.5,167,55.5,167s1.4000015-0.6999969,1.4000015-2.3999939S56.5,162.2000122,55.5,162.2000122
		C54.5,162.1999969,54.0999985,162.8999939,54.0999985,164.6000061z"/>
	<path class="st1" d="M59.2999992,166v-5.1000061h1.5999985v5c0,1,0.5999985,1.1000061,1.2000008,1.1000061
		s1.2000008-0.1999969,1.2000008-1.1000061v-5h1.5999947V166c0,2.1000061-1.5999947,2.5-2.7999954,2.5
		S59.2999992,168,59.2999992,166z"/>
	<path class="st1" d="M65.3000031,168.3999939l2.0999985-7.5h1.8000031l2.0999985,7.5h-1.6999969l-0.3000031-1.5h-1.9000015
		l-0.3000031,1.5H65.3000031z M67.5999985,165.5h1.3000031l-0.5999985-2.8000031L67.5999985,165.5z"/>
	<path class="st1" d="M73.5,166.8999939h3v1.5h-4.5999985v-7.5H73.5V166.8999939z"/>
	<path class="st1" d="M77.1999969,168.3999939v-7.5h1.5999985v7.5H77.1999969z"/>
	<path class="st1" d="M83,162.3000031v6h-1.5999985v-6h-1.8000031v-1.5h5.1999969v1.5H83z"/>
	<path class="st1" d="M89,165.3999939v2.8999939h-1.5999985v-2.8999939L85,160.7999878h1.8000031l1.4000015,3.1000061
		l1.4000015-3.1000061h1.8000031L89,165.3999939z"/>
	<path class="st1" d="M98.1999969,165.1999969h-2.9000015v1.6999969h3.1999969v1.5h-4.8000031v-7.5h4.8000031v1.5h-3.1999969
		v1.3999939h2.9000015V165.1999969z"/>
	<path class="st1" d="M99.4000015,168.3999939v-7.5h2.4000015c2.5,0,3.1999969,1.6000061,3.1999969,3.6999969
		s-0.6999969,3.6999969-3.1999969,3.6999969h-2.4000015V168.3999939z M101,166.8999939h0.9000015
		c1.1999969,0,1.5-0.8000031,1.5-2.3000031c0-1.3999939-0.3000031-2.3000031-1.5-2.3000031H101V166.8999939z"/>
	<path class="st1" d="M105.8000031,166v-5.1000061h1.5999985v5c0,1,0.5999985,1.1000061,1.1999969,1.1000061
		s1.1999969-0.1999969,1.1999969-1.1000061v-5h1.5999985V166c0,2.1000061-1.6999969,2.5-2.8000031,2.5
		S105.8000031,168,105.8000031,166z"/>
	<path class="st1" d="M115.4000015,160.6999969c0.9000015,0,1.3000031,0.1999969,1.5999985,0.3000031v1.5
		c-0.4000015-0.1999969-0.8000031-0.3000031-1.4000015-0.3000031c-1.1999969,0-1.8000031,0.5-1.8000031,2.3999939
		s0.5999985,2.3999939,1.8000031,2.3999939c0.5999985,0,0.9000015-0.1000061,1.4000015-0.3000031v1.5
		c-0.3000031,0.1000061-0.6999969,0.3000031-1.5999985,0.3000031c-2.1999969,0-3.1999969-1.1000061-3.1999969-3.8999939
		C112.1999969,161.8000031,113.1999969,160.6999969,115.4000015,160.6999969z"/>
	<path class="st1" d="M117.5,168.3999939l2.0999985-7.5h1.8000031l2.0999985,7.5h-1.6999969l-0.3000031-1.5h-1.9000015
		l-0.3000031,1.5H117.5z M119.8000031,165.5h1.3000031l-0.5999985-2.8000031L119.8000031,165.5z"/>
	<path class="st1" d="M126.3000031,162.3000031v6h-1.5999985v-6h-1.8000031v-1.5h5.2000046v1.5H126.3000031z"/>
	<path class="st1" d="M128.8000031,168.3999939v-7.5h1.6000061v7.5H128.8000031z"/>
	<path class="st1" d="M131.3999939,164.6000061c0-2.3000031,0.6000061-3.8999939,3-3.8999939s3,1.6000061,3,3.8999939
		s-0.6000061,3.8999939-3,3.8999939S131.3999939,166.8999939,131.3999939,164.6000061z M133,164.6000061
		C133,166.3000031,133.3999939,167,134.3999939,167s1.3999939-0.6999969,1.3999939-2.3999939
		s-0.3999939-2.3999939-1.3999939-2.3999939C133.3999939,162.1999969,133,162.8999939,133,164.6000061z"/>
	<path class="st1" d="M142.1999969,168.3999939l-2.3999939-4.5v4.5h-1.6000061v-7.5h1.6000061l2.3999939,4.5v-4.5h1.6000061v7.5
		H142.1999969z"/>
	<path class="st1" d="M146.3999939,168.3999939l2.1000061-7.5h1.8000031l2.1000061,7.5h-1.6999969l-0.3999939-1.5h-1.8999939
		l-0.3999939,1.5H146.3999939z M148.8000031,165.5h1.3000031L149.5,162.6999969L148.8000031,165.5z"/>
	<path class="st1" d="M157.1000061,168.3999939l-2.3999939-4.5v4.5h-1.6000061v-7.5h1.6000061l2.3999939,4.5v-4.5h1.6000061v7.5
		H157.1000061z"/>
	<path class="st1" d="M159.6000061,168.3999939v-7.5H162c2.5,0,3.1999969,1.6000061,3.1999969,3.6999969
		S164.5,168.2999878,162,168.2999878h-2.3999939V168.3999939z M161.1999969,166.8999939h0.8999939
		c1.1999969,0,1.5-0.8000031,1.5-2.3000031c0-1.3999939-0.3000031-2.3000031-1.5-2.3000031h-0.8999939V166.8999939z"/>
</g>
<g class="st2">
	<path class="st1" d="M42.7999992,180.3999939h-1.5999985v-7.5h2.5c2,0,2.7000008,1.1999969,2.7000008,2.3999939
		c0,1.3000031-0.7000008,2.3999939-2.7000008,2.3999939h-0.9000015V180.3999939L42.7999992,180.3999939z M42.7999992,176.3000031
		h0.9000015c0.7999992,0,1-0.6000061,1-1s-0.2000008-1-1-1h-0.9000015V176.3000031z"/>
	<path class="st1" d="M48.5999985,180.3999939H47v-7.5h2.5c2,0,2.7000008,0.8999939,2.7000008,2.3000031
		c0,0.8999939-0.2999992,1.6000061-1,2L52.5,180.3000031h-1.9000015l-1-2.8000031h-1V180.3999939L48.5999985,180.3999939z
		 M48.5999985,176.1000061h1.0999985c0.7000008,0,0.7999992-0.5,0.7999992-0.8999939s-0.0999985-0.8999939-0.7999992-0.8999939
		h-1.0999985V176.1000061z"/>
	<path class="st1" d="M53,176.6000061c0-2.3000031,0.5999985-3.8999939,3-3.8999939s3,1.6000061,3,3.8999939
		S58.4000015,180.5,56,180.5S53,178.8999939,53,176.6000061z M54.5999985,176.6000061C54.5999985,178.3000031,55,179,56,179
		s1.4000015-0.6999969,1.4000015-2.3999939S57,174.2000122,56,174.2000122
		C55,174.1999969,54.5999985,174.8999939,54.5999985,176.6000061z"/>
	<path class="st1" d="M64.1999969,179.3999939h-1.5999947l-1.2000008-3.6999969v4.6000061h-1.5999985v-7.5h2l1.5,4.6999969
		l1.5-4.6999969h2v7.5h-1.5999985l0.0999985-4.6000061L64.1999969,179.3999939z"/>
	<path class="st1" d="M67.6999969,176.6000061c0-2.3000031,0.5999985-3.8999939,3-3.8999939s3,1.6000061,3,3.8999939
		s-0.5999985,3.8999939-3,3.8999939S67.6999969,178.8999939,67.6999969,176.6000061z M69.3000031,176.6000061
		c0,1.6999969,0.4000015,2.3999939,1.4000015,2.3999939s1.4000015-0.6999969,1.4000015-2.3999939
		s-0.4000015-2.3999939-1.4000015-2.3999939C69.6999969,174.1999969,69.3000031,174.8999939,69.3000031,176.6000061z"/>
	<path class="st1" d="M77.3000031,174.3000031v6h-1.5999985v-6h-1.8000031v-1.5h5.1999969v1.5H77.3000031z"/>
	<path class="st1" d="M84.1999969,177.1999969h-2.9000015v1.6999969h3.1999969v1.5h-4.8000031v-7.5h4.8000031v1.5h-3.1999969
		v1.3999939h2.9000015V177.1999969z"/>
	<path class="st1" d="M88.9000015,178.8999939h3v1.5h-4.5999985v-7.5h1.5999985V178.8999939z"/>
	<path class="st1" d="M92.5999985,180.3999939v-7.5h1.5999985v7.5H92.5999985z"/>
	<path class="st1" d="M99.6999969,177.3000031h-2.8000031v3.1000061h-1.5999985v-7.5H100v1.5h-3.0999985v1.6000061h2.8000031
		C99.7000046,176.0000153,99.7000046,177.3000031,99.6999969,177.3000031z"/>
	<path class="st1" d="M105.0999985,177.1999969h-2.9000015v1.6999969h3.1999969v1.5h-4.8000031v-7.5h4.8000031v1.5h-3.1999969
		v1.3999939h2.9000015V177.1999969z"/>
	<path class="st1" d="M107.8000031,178.8999939h3v1.5h-4.5999985v-7.5h1.5999985V178.8999939z"/>
	<path class="st1" d="M110.8000031,176.6000061c0-2.3000031,0.5999985-3.8999939,3-3.8999939s3,1.6000061,3,3.8999939
		s-0.5999985,3.8999939-3,3.8999939C111.5,180.5,110.8000031,178.8999939,110.8000031,176.6000061z M112.5,176.6000061
		C112.5,178.3000031,112.9000015,179,113.9000015,179s1.4000015-0.6999969,1.4000015-2.3999939
		s-0.4000015-2.3999939-1.4000015-2.3999939C112.8000031,174.1999969,112.5,174.8999939,112.5,176.6000061z"/>
	<path class="st1" d="M121.6999969,180.3999939l-2.4000015-4.5v4.5h-1.5999985v-7.5h1.5999985l2.4000015,4.5v-4.5h1.5999985v7.5
		H121.6999969z"/>
	<path class="st1" d="M124.0999985,176.6000061c0-2.6000061,0.9000015-3.8999939,3.1999969-3.8999939
		c0.9999924,0,1.7999954,0.1000061,2.2000046,0.3999939v1.6000061c-0.6000061-0.3000031-1.3000031-0.3999939-1.9000015-0.3999939
		c-1.4000015,0-1.9000015,0.6000061-1.9000015,2.3999939c0,1.8999939,0.5,2.3999939,1.9000015,2.3999939
		c0.0999985,0,0.4000015,0,0.5000076,0v-1.5H127V176h2.6999969v4c-0.3999939,0.3000031-1.3000031,0.5-2.4000015,0.5
		C125,180.5,124.0999985,179.1999969,124.0999985,176.6000061z"/>
	<path class="st1" d="M134.1999969,178.8999939h3v1.5h-4.6000061v-7.5h1.6000061V178.8999939z"/>
	<path class="st1" d="M142.3000031,177.1999969h-2.8999939v1.6999969h3.1999969v1.5h-4.8000031v-7.5h4.8000031v1.5h-3.1999969
		v1.3999939h2.8999939V177.1999969z"/>
	<path class="st1" d="M143.1000061,180.3999939l2.1000061-7.5h1.8000031l2.1000061,7.5h-1.6999969l-0.3999939-1.5h-1.8999939
		l-0.3999939,1.5H143.1000061z M145.5,177.5h1.3000031l-0.6000061-2.8000031L145.5,177.5z"/>
	<path class="st1" d="M151.3999939,180.3999939h-1.6000061v-7.5h2.5c2,0,2.6999969,0.8999939,2.6999969,2.3000031
		c0,0.8999939-0.3000031,1.6000061-1.1000061,2l1.3000031,3.1000061h-1.8999939l-1-2.8000031h-1L151.3999939,180.3999939
		L151.3999939,180.3999939z M151.3999939,176.1000061H152.5c0.6999969,0,0.8000031-0.5,0.8000031-0.8999939
		s-0.1000061-0.8999939-0.8000031-0.8999939h-1.1000061V176.1000061z"/>
	<path class="st1" d="M159.8000031,180.3999939l-2.3999939-4.5v4.5h-1.6000061v-7.5h1.6000061l2.3999939,4.5v-4.5h1.6000061v7.5
		H159.8000031z"/>
	<path class="st1" d="M162.3999939,180.3999939v-7.5H164v7.5H162.3999939z"/>
	<path class="st1" d="M169,180.3999939l-2.3999939-4.5v4.5H165v-7.5h1.6000061l2.3999939,4.5v-4.5h1.6000061v7.5H169z"/>
	<path class="st1" d="M171.3999939,176.6000061c0-2.6000061,0.8999939-3.8999939,3.1999969-3.8999939
		c1,0,1.8000031,0.1000061,2.1999969,0.3999939v1.6000061c-0.6000061-0.3000031-1.3000031-0.3999939-1.8999939-0.3999939
		C173.5,174.3000183,173,174.9000244,173,176.7000122c0,1.8999939,0.5,2.3999939,1.8999939,2.3999939c0.1000061,0,0.3999939,0,0.5,0
		v-1.5h-1.1000061V176h2.6999969v4c-0.3999939,0.3000031-1.3000031,0.5-2.3999939,0.5
		C172.3999939,180.5,171.3999939,179.1999969,171.3999939,176.6000061z"/>
</g>
<g class="st2">
	<path class="st1" d="M55.2999992,188.6000061c0-2.3000031,0.5999985-3.8999939,3-3.8999939s3,1.6000061,3,3.8999939
		s-0.5999985,3.8999939-3,3.8999939C56,192.5,55.2999992,190.8999939,55.2999992,188.6000061z M57,188.6000061
		C57,190.3000031,57.4000015,191,58.4000015,191s1.4000015-0.6999969,1.4000015-2.3999939s-0.4000015-2.3999939-1.4000015-2.3999939
		C57.2999992,186.1999969,57,186.8999939,57,188.6000061z"/>
	<path class="st1" d="M63.7999992,192.3999939h-1.5999985v-7.5h2.4999962c2,0,2.7000046,1.1999969,2.7000046,2.3999939
		c0,1.3000031-0.6999969,2.3999939-2.7000046,2.3999939h-0.8999977V192.3999939L63.7999992,192.3999939z M63.7999992,188.3000031
		h0.8999977c0.8000031,0,0.9000015-0.6000061,0.9000015-1s-0.1999969-1-0.9000015-1h-0.9000015
		C63.7999954,186.3000031,63.7999954,188.3000031,63.7999992,188.3000031z"/>
	<path class="st1" d="M69.5999985,192.3999939H68v-7.5h2.5c2,0,2.6999969,1.1999969,2.6999969,2.3999939
		c0,1.3000031-0.6999969,2.3999939-2.6999969,2.3999939h-0.9000015V192.3999939L69.5999985,192.3999939z M69.5999985,188.3000031
		H70.5c0.8000031,0,0.9000015-0.6000061,0.9000015-1s-0.1999969-1-0.9000015-1h-0.9000015V188.3000031z"/>
	<path class="st1" d="M73.8000031,188.6000061c0-2.3000031,0.5999985-3.8999939,3-3.8999939s3,1.6000061,3,3.8999939
		s-0.5999985,3.8999939-3,3.8999939S73.8000031,190.8999939,73.8000031,188.6000061z M75.4000015,188.6000061
		c0,1.6999969,0.4000015,2.3999939,1.4000015,2.3999939s1.4000015-0.6999969,1.4000015-2.3999939
		s-0.4000015-2.3999939-1.4000015-2.3999939C75.6999969,186.1999969,75.4000015,186.8999939,75.4000015,188.6000061z"/>
	<path class="st1" d="M82.1999969,192.3999939h-1.5999985v-7.5h2.5c2,0,2.6999969,0.8999939,2.6999969,2.3000031
		c0,0.8999939-0.3000031,1.6000061-1.0999985,2L86,192.3000031h-1.9000015l-1-2.8000031h-1
		C82.1999969,189.5,82.1999969,192.3999939,82.1999969,192.3999939z M82.1999969,188.1000061h1.0999985
		c0.6999969,0,0.8000031-0.5,0.8000031-0.8999939S84,186.3000183,83.2999954,186.3000183h-1.0999985V188.1000061z"/>
	<path class="st1" d="M89.3000031,186.3000031v6h-1.5999985v-6h-1.8000031v-1.5h5.1999969v1.5H89.3000031z"/>
	<path class="st1" d="M91.6999969,190v-5.1000061h1.5999985v5c0,1,0.5999985,1.1000061,1.1999969,1.1000061
		s1.1999969-0.1999969,1.1999969-1.1000061v-5h1.5999985V190c0,2.1000061-1.5999985,2.5-2.8000031,2.5
		C93.4000015,192.5,91.6999969,192,91.6999969,190z"/>
	<path class="st1" d="M102.0999985,192.3999939l-2.4000015-4.5v4.5h-1.5999985v-7.5h1.5999985l2.4000015,4.5v-4.5h1.5999985v7.5
		H102.0999985z"/>
	<path class="st1" d="M104.6999969,192.3999939v-7.5h1.5999985v7.5H104.6999969z"/>
	<path class="st1" d="M110.5,186.3000031v6h-1.5999985v-6h-1.8000031v-1.5h5.1999969v1.5H110.5z"/>
	<path class="st1" d="M113,192.3999939v-7.5h1.5999985v7.5H113z"/>
	<path class="st1" d="M120.0999985,189.1999969h-2.9000015v1.6999969h3.1999969v1.5h-4.8000031v-7.5h4.8000031v1.5h-3.1999969
		v1.3999939h2.9000015V189.1999969z"/>
	<path class="st1" d="M126.4000015,190c0,1.8999939-1.1999969,2.5-2.9000015,2.5c-0.8000031,0-1.8000031-0.1000061-2.3000031-0.5
		v-1.6000061C121.5,190.5999908,122.3999939,191,123.3999939,191c1.0999985,0,1.5-0.3999939,1.5-0.8999939
		c0-0.6000061-0.1999969-0.8000031-1-0.8999939c-1.9000015-0.1999969-2.5999985-0.8000031-2.5999985-2.3000031
		c0-1.3999939,0.8000031-2.3000031,2.8000031-2.3000031c1,0,1.8000031,0.1999969,2.0999985,0.3999939v1.5
		c-0.4000015-0.1999969-1.1999969-0.3999939-2-0.3999939s-1.3000031,0.3000031-1.3000031,0.6999969
		c0,0.5,0.3000031,0.6999969,1.0999985,0.8000031C125.5,188,126.4000015,188.3999939,126.4000015,190z"/>
	<path class="st1" d="M133.6000061,189.3000031h-2.8000031v3.1000061h-1.6000061v-7.5h4.6999969v1.5h-3.1000061v1.6000061h2.8000031
		L133.6000061,189.3000031L133.6000061,189.3000031z"/>
	<path class="st1" d="M134.5,188.6000061c0-2.3000031,0.6000061-3.8999939,3-3.8999939s3,1.6000061,3,3.8999939
		S139.8999939,192.5,137.5,192.5S134.5,190.8999939,134.5,188.6000061z M136.1000061,188.6000061
		C136.1000061,190.3000031,136.5,191,137.5,191s1.3999939-0.6999969,1.3999939-2.3999939S138.5,186.2000122,137.5,186.2000122
		C136.5,186.1999969,136.1000061,186.8999939,136.1000061,188.6000061z"/>
	<path class="st1" d="M142.8999939,192.3999939h-1.6000061v-7.5h2.5c2,0,2.6999969,0.8999939,2.6999969,2.3000031
		c0,0.8999939-0.3000031,1.6000061-1,2l1.3000031,3.1000061H145L144,189.5h-1v2.8999939H142.8999939z M142.8999939,188.1000061H144
		c0.6999969,0,0.8000031-0.5,0.8000031-0.8999939S144.6999969,186.3000183,144,186.3000183h-1.1000061V188.1000061z"/>
	<path class="st1" d="M149.1000061,192.3999939l2.1000061-7.5h1.8000031l2.1000061,7.5h-1.6999969l-0.3999939-1.5h-1.8999939
		l-0.3999939,1.5H149.1000061z M151.5,189.5h1.3000031l-0.6000061-2.8000031L151.5,189.5z"/>
	<path class="st1" d="M157.3999939,190.8999939h3v1.5h-4.6000061v-7.5h1.6000061V190.8999939z"/>
	<path class="st1" d="M162.6000061,190.8999939h3v1.5H161v-7.5h1.6000061V190.8999939z"/>
</g>
</svg>
