<?xml version="1.0" encoding="utf-8"?>
<!-- Generator: Adobe Illustrator 20.1.0, SVG Export Plug-In . SVG Version: 6.00 Build 0)  -->
<svg version="1.1" id="Layer_1" xmlns="http://www.w3.org/2000/svg" xmlns:xlink="http://www.w3.org/1999/xlink" x="0px" y="0px"
	 width="218px" height="218px" viewBox="0 0 218 218" style="enable-background:new 0 0 218 218;" xml:space="preserve">
<style type="text/css">
	.st0{fill:#DDA839;}
	.st1{fill:#FFFFFF;}
	.st2{enable-background:new    ;}
</style>
<g>
	<circle class="st0" cx="109.4063339" cy="108.9393158" r="108"/>
</g>
<g>
	<path class="st1" d="M78.2563477,31.7075195c-3.4003906,0-6.0004883,0.75-8.4008789,1.8500977v-7.5004883
		c2.0004883-0.8999023,5.4003906-1.6000977,9.3007812-1.6000977c10.1005859,0,11.5004883,5.2006836,11.5004883,9.8007812
		c0,6.300293-5.25,10.4008789-11.7504883,14.8007812l12.1508789-0.1499023v7.5004883H68.3056641v-5.2504883
		C78.9560547,42.8583984,82.40625,38.9082031,82.40625,35.3081055C82.40625,33.0078125,81.5561523,31.7075195,78.2563477,31.7075195
		z"/>
</g>
<g>
	<path class="st1" d="M102.5180664,36.6201172v-1.6967773l5.3623047-7.8432617l-4.8818359,0.0483398v-2.5131836h8.387207v1.6967773
		l-5.3618164,7.8432617l5.6020508-0.0483398v2.5131836H102.5180664z"/>
	<path class="st1" d="M120.0253906,31.5620117h-4.6259766v2.7211914h5.0898438v2.3369141h-7.6513672V24.6152344h7.6513672v2.3369141
		h-5.0898438v2.3208008h4.6259766V31.5620117z"/>
	<path class="st1" d="M124.359375,36.6201172h-2.5615234V24.6152344h4.0820312c3.2333984,0,4.2900391,1.4726562,4.2900391,3.7617188
		c0,1.4882812-0.4169922,2.625-1.6806641,3.2329102l2.1279297,5.0102539h-2.9931641l-1.6162109-4.4980469h-1.6484375V36.6201172z
		 M124.359375,29.8012695h1.7441406c1.1367188,0,1.28125-0.7680664,1.28125-1.4243164
		c0-0.6723633-0.1445312-1.4248047-1.28125-1.4248047h-1.7441406V29.8012695z"/>
	<path class="st1" d="M131.3984375,30.6176758c0-3.6655273,1.0078125-6.2265625,4.7861328-6.2265625
		c3.7773438,0,4.7861328,2.5610352,4.7861328,6.2265625s-1.0087891,6.2265625-4.7861328,6.2265625
		C132.40625,36.8442383,131.3984375,34.2832031,131.3984375,30.6176758z M133.9912109,30.6176758
		c0,2.8012695,0.6083984,3.9057617,2.1933594,3.9057617c1.5839844,0,2.1923828-1.1044922,2.1923828-3.9057617
		s-0.6083984-3.9057617-2.1923828-3.9057617C134.5996094,26.7119141,133.9912109,27.8164062,133.9912109,30.6176758z"/>
	<path class="st1" d="M108.9848633,55.8203125v-5.0258789h-3.6494141v5.0258789h-2.5610352V43.8154297h2.5610352v4.6420898
		h3.6494141v-4.6420898h2.5610352v12.0048828H108.9848633z"/>
	<path class="st1" d="M112.9345703,52.0268555v-8.2114258h2.5605469v8.0834961c0,1.5522461,1.0087891,1.824707,1.9052734,1.824707
		s1.9042969-0.2724609,1.9042969-1.824707v-8.0834961h2.5615234v8.2114258c0,3.2973633-2.6416016,4.0175781-4.4658203,4.0175781
		C115.5751953,56.0444336,112.9345703,55.3242188,112.9345703,52.0268555z"/>
	<path class="st1" d="M129.5927734,55.8203125l-3.8740234-7.1708984l0.0644531,7.1708984h-2.5292969V43.8154297h2.5292969
		l3.8730469,7.1708984l-0.0634766-7.1708984h2.5292969v12.0048828H129.5927734z"/>
	<path class="st1" d="M133.5097656,49.8178711c0-4.1777344,1.5048828-6.2265625,5.1542969-6.2265625
		c1.6328125,0,2.8173828,0.2402344,3.5380859,0.5600586v2.4970703c-0.9931641-0.4160156-2.0654297-0.65625-3.0576172-0.65625
		c-2.2890625,0-3.0410156,1.0244141-3.0410156,3.8256836c0,2.9931641,0.8164062,3.8256836,3.0410156,3.8256836
		c0.2402344,0,0.5605469-0.0161133,0.7363281-0.0483398v-2.4326172h-1.6962891v-2.2890625h4.2568359v6.3544922
		c-0.7197266,0.4482422-2.1279297,0.8164062-3.8574219,0.8164062
		C135.0146484,56.0444336,133.5097656,53.9956055,133.5097656,49.8178711z"/>
	<path class="st1" d="M151.0322266,50.762207H146.40625v2.7211914h5.0908203v2.3369141h-7.6513672V43.8154297h7.6513672v2.3369141
		H146.40625v2.3208008h4.6259766V50.762207z"/>
	<path class="st1" d="M155.3671875,55.8203125h-2.5605469V43.8154297h4.0820312
		c3.2324219,0,4.2890625,1.4726562,4.2890625,3.7617188c0,1.4882812-0.4160156,2.625-1.6806641,3.2329102l2.1289062,5.0102539
		h-2.9931641l-1.6162109-4.4980469h-1.6494141V55.8203125z M155.3671875,49.0014648h1.7451172
		c1.1367188,0,1.2802734-0.7680664,1.2802734-1.4243164c0-0.6723633-0.1435547-1.4248047-1.2802734-1.4248047h-1.7451172V49.0014648
		z"/>
</g>
<g>
	<path class="st1" d="M100.8470001,133.6790009v1.8560028c-0.0019989,0.0130005-0.0059967,0.0279999-0.0059967,0.0420074
		c0,0.0160065,0.0049973,0.0299988,0.0059967,0.0440063c0.0189972,0.4589996,0.3939972,0.8249969,0.8560028,0.8339996
		c0.0059967,0,0.0100021,0.003006,0.0169983,0.003006c0.0059967,0,0.0139999-0.003006,0.0220032-0.003006h21.7720032
		c0.0059967,0,0.012001,0.003006,0.0179977,0.003006s0.0130005-0.003006,0.0189972-0.003006
		c0.4759979-0.0090027,0.8550034-0.3959961,0.8590012-0.8710022c0-0.0019989,0.0029984-0.003006,0.0029984-0.0059967
		c0,0-0.0029984-0.003006-0.0029984-0.0059967v-2.1000061c12.2559967-4.0180054,21.4380035-13.951004,23.4570007-26.0569992
		c0.0050049-0.026001,0.0079956-0.0500031,0.0119934-0.0719986c0.0070038-0.0419998,0.0119934-0.0810013,0.0119934-0.1220016
		c0-0.4869995-0.3919983-0.8799973-0.8800049-0.8799973H78.0360031h-0.4150009
		c-0.4889984,0-0.8830032,0.3929977-0.8830032,0.8799973l0.0459976,0.3960037
		C78.9049988,119.8359985,88.3379974,129.8249969,100.8470001,133.6790009"/>
	<path class="st1" d="M124.3899994,76.7229996c-0.2860031,0.4069977-6.9899979,10.0589981,0.1500015,17.862999
		c3.2740021,3.5820007,2.9899979,6.7419968,2.0550003,8.8769989h4.5800018
		c0.927002-3.1520004,0.5449982-7.1050034-3.1730042-11.1669998c-5.2610016-5.7509995,0.0670013-13.5240021,0.1470032-13.6439972
		c0.628006-0.887001,0.2920074-2.0299988-0.7429962-2.5630035
		C126.3659973,75.5589981,125.0199966,75.8420029,124.3899994,76.7229996"/>
	<path class="st1" d="M112.7910004,103.4629974h4.5820007c0.9260025-3.1529999,0.5410004-7.1040039-3.177002-11.1669998
		c-5.262001-5.7519989,0.0619965-13.5210037,0.1460037-13.6480026c0.625-0.8830032,0.2939987-2.0240021-0.7450027-2.5589981
		c-1.0350037-0.5289993-2.3840027-0.2480011-3.012001,0.6340027c-0.288002,0.4049988-6.9970016,10.0589981,0.1490021,17.862999
		C114.0080032,98.1689987,113.7229996,101.3300018,112.7910004,103.4629974"/>
	<path class="st1" d="M96.7779999,76.7229996c-0.2900009,0.4069977-6.9940033,10.0589981,0.1470032,17.862999
		c3.276001,3.5839996,2.9919968,6.7440033,2.0599976,8.8769989h4.5800018
		c0.9260025-3.1500015,0.5429993-7.1029968-3.1780014-11.1669998c-5.262001-5.7509995,0.0660019-13.5240021,0.1500015-13.6480026
		c0.6220016-0.8840027,0.2910004-2.026001-0.7480011-2.5599976C98.7539978,75.5559998,97.4059982,75.8410034,96.7779999,76.7229996"
		/>
</g>
<g class="st2">
	<path class="st1" d="M27.5950127,158.3170166h-2.8880005v1.6990051h3.1779995v1.4589996h-4.7770004v-7.4960022h4.7770004v1.4589996
		h-3.1779995v1.4490051h2.8880005V158.3170166z"/>
	<path class="st1" d="M32.6660156,161.4760284l-2.4180012-4.4779968l0.0400009,4.4779968h-1.5790005v-7.4960022h1.5790005
		l2.4180012,4.4779968l-0.0400009-4.4779968h1.5789948v7.4960022H32.6660156z"/>
	<path class="st1" d="M35.1680145,161.4760284v-7.4960022h2.4280014c2.5390015,0,3.197998,1.6190033,3.197998,3.7480011
		s-0.6590042,3.7480011-3.197998,3.7480011H35.1680145z M36.7670135,160.0170288h0.8590012
		c1.1689987,0,1.5089951-0.8399963,1.5089951-2.2890015c0-1.4389954-0.3399963-2.2890015-1.5089951-2.2890015h-0.8590012
		V160.0170288z"/>
	<path class="st1" d="M47.4950104,161.4760284v-3.1390076h-2.2779999v3.1390076h-1.598999v-7.4960022h1.598999v2.897995h2.2779999
		v-2.897995h1.598999v7.4960022H47.4950104z"/>
	<path class="st1" d="M49.9680099,159.1070251v-5.1269989h1.598999v5.0480042c0,0.9689941,0.6300049,1.1390076,1.189003,1.1390076
		s1.1889954-0.1699982,1.1889954-1.1390076v-5.0480042h1.598999v5.1269989c0,2.0599976-1.6489944,2.5090027-2.7890015,2.5090027
		C51.6150055,161.6160278,49.9680099,161.1660309,49.9680099,159.1070251z"/>
	<path class="st1" d="M60.3750153,161.4760284l-2.4179993-4.4779968l0.0400009,4.4779968h-1.5790024v-7.4960022h1.5790024
		l2.4179993,4.4779968l-0.0400009-4.4779968H61.95401v7.4960022H60.3750153z"/>
	<path class="st1" d="M62.8270111,157.7280273c0-2.6080017,0.939003-3.8880005,3.2180023-3.8880005
		c1.0199966,0,1.7590027,0.1490021,2.2089996,0.3500061v1.5599976c-0.6200027-0.2599945-1.2900009-0.4100037-1.9089966-0.4100037
		c-1.4290009,0-1.8990021,0.6399994-1.8990021,2.3889923c0,1.8690033,0.5100021,2.3890076,1.8990021,2.3890076
		c0.1500015,0,0.3499985-0.0099945,0.4599991-0.0299988v-1.5189972H65.745018v-1.4299927h2.6589966v3.9680023
		c-0.4499969,0.2799988-1.3300018,0.5099945-2.4089966,0.5099945
		C63.7670135,161.6150208,62.8270111,160.3360291,62.8270111,157.7280273z"/>
	<path class="st1" d="M73.7750168,158.3170166h-2.8880005v1.6990051h3.1780014v1.4589996h-4.7770004v-7.4960022h4.7770004v1.4589996
		h-3.1780014v1.4490051h2.8880005V158.3170166z"/>
	<path class="st1" d="M76.4870148,161.4760284h-1.598999v-7.4960022h2.5479965c2.0189972,0,2.6790009,0.9199982,2.6790009,2.348999
		c0,0.9299927-0.2600021,1.6399994-1.0500031,2.0200043l1.3300018,3.128006h-1.8690033l-1.0090027-2.8090057h-1.0289993v2.8079987
		H76.4870148z M76.4870148,157.2180176h1.0889969c0.7089996,0,0.7990036-0.4790039,0.7990036-0.8899994
		c0-0.4199982-0.0899963-0.8899994-0.7990036-0.8899994h-1.0889969V157.2180176z"/>
	<path class="st1" d="M80.518013,162.7250214l0.3099976-2.7480011h1.6989975l-0.9189987,2.7480011H80.518013z"/>
	<path class="st1" d="M85.0770187,161.4760284l2.0790024-7.5359955h1.8389969l2.0790024,7.5359955h-1.6989975l-0.3499985-1.5390015
		h-1.8990021l-0.3499985,1.5390015H85.0770187z M87.4360123,158.6670227h1.2789993l-0.6399994-2.8379974L87.4360123,158.6670227z"/>
	<path class="st1" d="M94.7260132,153.8400269c0.8700027,0,1.2590027,0.1600037,1.5589981,0.2799988v1.5090027
		c-0.4499969-0.1799927-0.7990036-0.2899933-1.3990021-0.2899933c-1.2200012,0-1.7789993,0.4900055-1.7789993,2.3890076
		s0.5599976,2.3890076,1.7789993,2.3890076c0.5999985,0,0.9489975-0.1089935,1.3990021-0.2899933v1.5099945
		c-0.3000031,0.1199951-0.689003,0.279007-1.5589981,0.279007c-2.189003,0-3.2279968-1.0690002-3.237999-3.8880005
		C91.4980164,154.9090271,92.5370178,153.8400269,94.7260132,153.8400269z"/>
	<path class="st1" d="M101.0350189,161.4760284v-3.1390076H98.757019v3.1390076H97.15802v-7.4960022h1.598999v2.897995h2.2779999
		v-2.897995h1.598999v7.4960022H101.0350189z"/>
	<path class="st1" d="M103.6680145,161.4760284v-7.4960022h1.598999v7.4960022H103.6680145z"/>
	<path class="st1" d="M110.7850189,158.3170166h-2.8880005v1.6990051h3.1780014v1.4589996h-4.7770004v-7.4960022h4.7770004
		v1.4589996h-3.1780014v1.4490051h2.8880005V158.3170166z"/>
	<path class="st1" d="M117.6350174,153.9800262l-2.0790024,7.5359955h-1.8389969l-2.0790024-7.5359955h1.6989975
		l1.2990036,5.7070007l1.2990036-5.7070007H117.6350174z"/>
	<path class="st1" d="M122.7850189,158.3170166h-2.8880005v1.6990051h3.1780014v1.4589996h-4.7770004v-7.4960022h4.7770004
		v1.4589996h-3.1780014v1.4490051h2.8880005V158.3170166z"/>
	<path class="st1" d="M130.3240204,158.4170227h-2.8280029v3.0590057h-1.598999v-7.4960022h4.727005v1.4589996h-3.1279984v1.5500031
		h2.8279953V158.4170227z"/>
	<path class="st1" d="M131.207016,157.7280273c0-2.2890015,0.6300049-3.8880005,2.9880066-3.8880005
		c2.3589935,0,2.9889984,1.598999,2.9889984,3.8880005s-0.6300049,3.8880005-2.9889984,3.8880005
		C131.8370209,161.6150208,131.207016,160.0170288,131.207016,157.7280273z M132.8260193,157.7280273
		c0,1.7489929,0.3800049,2.4380035,1.3690033,2.4380035c0.9900055,0,1.3699951-0.6889954,1.3699951-2.4380035
		s-0.3800049-2.4380035-1.3699951-2.4380035C133.2060089,155.2890167,132.8260193,155.9790192,132.8260193,157.7280273z"/>
	<path class="st1" d="M138.007019,157.7280273c0-2.2890015,0.6300049-3.8880005,2.9880066-3.8880005
		c2.3589935,0,2.9889984,1.598999,2.9889984,3.8880005s-0.6300049,3.8880005-2.9889984,3.8880005
		C138.6370087,161.6150208,138.007019,160.0170288,138.007019,157.7280273z M139.6260223,157.7280273
		c0,1.7489929,0.3800049,2.4380035,1.3690033,2.4380035c0.9900055,0,1.3699951-0.6889954,1.3699951-2.4380035
		s-0.3800049-2.4380035-1.3699951-2.4380035C140.006012,155.2890167,139.6260223,155.9790192,139.6260223,157.7280273z"/>
	<path class="st1" d="M144.8570099,161.4760284v-7.4960022h2.4279938c2.5390015,0,3.197998,1.6190033,3.197998,3.7480011
		s-0.6589966,3.7480011-3.197998,3.7480011H144.8570099z M146.4560089,160.0170288h0.8589935
		c1.1690063,0,1.5090027-0.8399963,1.5090027-2.2890015c0-1.4389954-0.3399963-2.2890015-1.5090027-2.2890015h-0.8589935
		V160.0170288z"/>
	<path class="st1" d="M160.4840088,159.0870209c0,1.8589935-1.1690063,2.5279999-2.9380035,2.5279999
		c-0.8099976,0-1.798996-0.1399994-2.3390045-0.4600067v-1.6390076c0.3500061,0.1999969,1.1889954,0.5800018,2.1790009,0.5800018
		c1.1289978,0,1.4589996-0.3509979,1.4589996-0.8589935c0-0.5700073-0.25-0.7599945-1.0090027-0.8600006
		c-1.8990021-0.25-2.628006-0.8099976-2.628006-2.2779999c0-1.3589935,0.8300018-2.2590027,2.8090057-2.2590027
		c1.0189972,0,1.7689972,0.1799927,2.1190033,0.3699951v1.548996c-0.4100037-0.1999969-1.2389984-0.3990021-1.9989929-0.3990021
		c-0.8300018,0-1.2890015,0.2599945-1.2890015,0.7389984c0,0.5399933,0.2899933,0.7100067,1.0690002,0.8190002
		C159.5740204,157.1490173,160.4840088,157.48703,160.4840088,159.0870209z"/>
	<path class="st1" d="M165.7440186,158.3170166h-2.8880005v1.6990051h3.1779938v1.4589996h-4.7769928v-7.4960022h4.7769928
		v1.4589996h-3.1779938v1.4490051h2.8880005V158.3170166z"/>
	<path class="st1" d="M170.0450134,153.8400269c0.8699951,0,1.2590027,0.1600037,1.5590057,0.2799988v1.5090027
		c-0.4499969-0.1799927-0.798996-0.2899933-1.3990021-0.2899933c-1.2200012,0-1.779007,0.4900055-1.779007,2.3890076
		s0.5599976,2.3890076,1.779007,2.3890076c0.6000061,0,0.9490051-0.1089935,1.3990021-0.2899933v1.5099945
		c-0.3000031,0.1199951-0.6889954,0.279007-1.5590057,0.279007c-2.1889954,0-3.2279968-1.0690002-3.2380066-3.8880005
		C166.8170166,154.9090271,167.8560181,153.8400269,170.0450134,153.8400269z"/>
	<path class="st1" d="M172.4270172,159.1070251v-5.1269989h1.598999v5.0480042c0,0.9689941,0.6300049,1.1390076,1.1889954,1.1390076
		s1.1889954-0.1699982,1.1889954-1.1390076v-5.0480042h1.598999v5.1269989c0,2.0599976-1.6490021,2.5090027-2.7890015,2.5090027
		S172.4270172,161.1660309,172.4270172,159.1070251z"/>
	<path class="st1" d="M180.4760132,161.4760284h-1.598999v-7.4960022h2.5480042c2.0189972,0,2.6790009,0.9199982,2.6790009,2.348999
		c0,0.9299927-0.2599945,1.6399994-1.048996,2.0200043l1.3289948,3.128006h-1.8690033l-1.0090027-2.8090057h-1.029007v2.8079987
		H180.4760132z M180.4760132,157.2180176h1.0890045c0.7089996,0,0.798996-0.4790039,0.798996-0.8899994
		c0-0.4199982-0.0899963-0.8899994-0.798996-0.8899994h-1.0890045V157.2180176z"/>
	<path class="st1" d="M185.0370178,161.4760284v-7.4960022h1.598999v7.4960022H185.0370178z"/>
	<path class="st1" d="M190.7650146,155.4390259v6.0370026h-1.598999v-6.0370026h-1.8090057v-1.4589996h5.2169952v1.4589996
		H190.7650146z"/>
	<path class="st1" d="M196.8150177,158.5670166v2.9080048h-1.6190033v-2.9080048l-2.3789978-4.5879974h1.8289948
		l1.3589935,3.1289978l1.3589935-3.1289978h1.8289948L196.8150177,158.5670166z"/>
</g>
<g class="st2">
	<path class="st1" d="M40.733017,173.4760284l2.0789948-7.5359955h1.8390045l2.0789948,7.5359955h-1.6989975l-0.3499985-1.5390015
		h-1.8990021l-0.3499985,1.5390015H40.733017z M43.0920105,170.6670227h1.2789993l-0.6399994-2.8379974L43.0920105,170.6670227z"/>
	<path class="st1" d="M51.3500137,173.4760284l-2.4179993-4.4779968l0.0400009,4.4779968H47.393013v-7.4960022h1.5790024
		l2.4179993,4.4779968l-0.0400009-4.4779968h1.5789948v7.4960022H51.3500137z"/>
	<path class="st1" d="M53.8530121,173.4760284v-7.4960022h2.4280014c2.5390015,0,3.1980057,1.6190033,3.1980057,3.7480011
		s-0.6590042,3.7480011-3.197998,3.7480011H53.8530121z M55.4520111,172.0170288h0.8590012
		c1.1689987,0,1.5090027-0.8399963,1.5090027-2.2890015c0-1.4389954-0.340004-2.2890015-1.5090027-2.2890015h-0.8590012V172.0170288
		z"/>
	<path class="st1" d="M62.4120102,173.4760284v-7.4960022h1.5990067v7.4960022H62.4120102z"/>
	<path class="st1" d="M69.3500137,172.5670166h-1.6190033l-1.1600037-3.6790009l0.0500031,4.5879974h-1.5790024v-7.4960022
		h2.0090027l1.4889984,4.6679993l1.4889984-4.6679993h2.0090027v7.4960022h-1.5779953l0.0500031-4.5879974L69.3500137,172.5670166z"
		/>
	<path class="st1" d="M74.5620117,173.4760284h-1.598999v-7.4960022h2.5390015c1.9990005,0,2.6880035,1.1699982,2.6880035,2.4490051
		c0,1.298996-0.6900024,2.447998-2.6880035,2.447998h-0.939003v2.598999H74.5620117z M74.5620117,169.4380188h0.9489975
		c0.8000031,0,0.9499969-0.6089935,0.9499969-0.9989929s-0.1500015-1-0.9499969-1h-0.9489975V169.4380188z"/>
	<path class="st1" d="M80.3620148,173.4760284h-1.598999v-7.4960022h2.5479965c2.0189972,0,2.6790009,0.9199982,2.6790009,2.348999
		c0,0.9299927-0.2600021,1.6399994-1.0490036,2.0200043l1.3290024,3.128006h-1.8699951l-1.0090027-2.8090057h-1.0289993V173.4760284
		z M80.3620148,169.2180176h1.0889969c0.7089996,0,0.7990036-0.4790039,0.7990036-0.8899994
		c0-0.4199982-0.0899963-0.8899994-0.7990036-0.8899994h-1.0889969V169.2180176z"/>
	<path class="st1" d="M84.7620163,169.7280273c0-2.2890015,0.6299973-3.8880005,2.987999-3.8880005
		c2.3590012,0,2.9889984,1.598999,2.9889984,3.8880005s-0.6299973,3.8880005-2.9889984,3.8880005
		C85.3920135,173.6150208,84.7620163,172.0170288,84.7620163,169.7280273z M86.381012,169.7280273
		c0,1.7489929,0.3799973,2.4380035,1.3690033,2.4380035c0.9899979,0,1.3700027-0.6889954,1.3700027-2.4380035
		s-0.3799973-2.4380035-1.3700027-2.4380035C86.7610168,167.2890167,86.381012,167.9790192,86.381012,169.7280273z"/>
	<path class="st1" d="M97.1490173,165.9800262l-2.0790024,7.5359955h-1.8389969l-2.0790024-7.5359955h1.6989975l1.2990036,5.7070007
		l1.2990036-5.7070007H97.1490173z"/>
	<path class="st1" d="M102.3000183,170.3170166h-2.8880005v1.6990051h3.1780014v1.4589996h-4.7770004v-7.4960022h4.7770004
		v1.4589996h-3.1780014v1.4490051h2.8880005V170.3170166z"/>
	<path class="st1" d="M103.4120178,173.4760284v-7.4960022h2.4280014c2.5390015,0,3.197998,1.6190033,3.197998,3.7480011
		s-0.6589966,3.7480011-3.197998,3.7480011H103.4120178z M105.0110168,172.0170288h0.8590012
		c1.1689987,0,1.5090027-0.8399963,1.5090027-2.2890015c0-1.4389954-0.3399963-2.2890015-1.5090027-2.2890015h-0.8590012
		V172.0170288z"/>
	<path class="st1" d="M115.820015,173.4760284l-2.4179993-4.4779968l0.0400009,4.4779968h-1.5790024v-7.4960022h1.5790024
		l2.4179993,4.4779968l-0.0400009-4.4779968h1.5790024v7.4960022H115.820015z"/>
	<path class="st1" d="M118.2720184,171.1070251v-5.1269989h1.598999v5.0480042c0,0.9689941,0.6299973,1.1390076,1.189003,1.1390076
		s1.189003-0.1699982,1.189003-1.1390076v-5.0480042h1.598999v5.1269989c0,2.0599976-1.6490021,2.5090027-2.7890015,2.5090027
		S118.2720184,173.1660309,118.2720184,171.1070251z"/>
	<path class="st1" d="M127.8210144,167.4390259v6.0370026h-1.598999v-6.0370026h-1.8089981v-1.4589996h5.2170029v1.4589996
		H127.8210144z"/>
	<path class="st1" d="M131.8410187,173.4760284h-1.598999v-7.4960022h2.5480042c2.0189972,0,2.6790009,0.9199982,2.6790009,2.348999
		c0,0.9299927-0.2599945,1.6399994-1.048996,2.0200043l1.3289948,3.128006h-1.8690033l-1.0090027-2.8090057h-1.029007v2.8079987
		H131.8410187z M131.8410187,169.2180176h1.0890045c0.7089996,0,0.798996-0.4790039,0.798996-0.8899994
		c0-0.4199982-0.0899963-0.8899994-0.798996-0.8899994h-1.0890045V169.2180176z"/>
	<path class="st1" d="M136.4020081,173.4760284v-7.4960022h1.598999v7.4960022H136.4020081z"/>
	<path class="st1" d="M142.1300201,167.4390259v6.0370026h-1.598999v-6.0370026h-1.8090057v-1.4589996h5.2169952v1.4589996
		H142.1300201z"/>
	<path class="st1" d="M144.6610107,173.4760284v-7.4960022h1.598999v7.4960022H144.6610107z"/>
	<path class="st1" d="M147.2410126,169.7280273c0-2.2890015,0.6300049-3.8880005,2.9880066-3.8880005
		c2.3589935,0,2.9889984,1.598999,2.9889984,3.8880005s-0.6300049,3.8880005-2.9889984,3.8880005
		C147.8710175,173.6150208,147.2410126,172.0170288,147.2410126,169.7280273z M148.8610077,169.7280273
		c0,1.7489929,0.3800049,2.4380035,1.3690033,2.4380035c0.9900055,0,1.3699951-0.6889954,1.3699951-2.4380035
		s-0.3800049-2.4380035-1.3699951-2.4380035C149.2400208,167.2890167,148.8610077,167.9790192,148.8610077,169.7280273z"/>
	<path class="st1" d="M158.0490112,173.4760284l-2.4179993-4.4779968l0.0399933,4.4779968h-1.5789948v-7.4960022h1.5789948
		l2.4179993,4.4779968l-0.0399933-4.4779968h1.5789948v7.4960022H158.0490112z"/>
	<path class="st1" d="M162.2910156,173.4760284l2.0789948-7.5359955h1.8390045l2.0789948,7.5359955h-1.6990051l-0.3500061-1.5390015
		h-1.8990021l-0.3500061,1.5390015H162.2910156z M164.6500092,170.6670227h1.279007l-0.6399994-2.8379974L164.6500092,170.6670227z"
		/>
	<path class="st1" d="M172.9090118,173.4760284l-2.4179993-4.4779968l0.0399933,4.4779968h-1.5789948v-7.4960022h1.5789948
		l2.4179993,4.4779968l-0.0399933-4.4779968h1.5789948v7.4960022H172.9090118z"/>
	<path class="st1" d="M175.4110107,173.4760284v-7.4960022h2.4279938c2.5390015,0,3.197998,1.6190033,3.197998,3.7480011
		s-0.6589966,3.7480011-3.197998,3.7480011H175.4110107z M177.0100098,172.0170288h0.8589935
		c1.1690063,0,1.5090027-0.8399963,1.5090027-2.2890015c0-1.4389954-0.3399963-2.2890015-1.5090027-2.2890015h-0.8589935
		V172.0170288z"/>
</g>
<g class="st2">
	<path class="st1" d="M58.5670166,185.4760284h-1.598999v-7.4960022h2.5390015c1.9990005,0,2.6879959,1.1699982,2.6879959,2.4490051
		c0,1.298996-0.6899948,2.447998-2.6879959,2.447998h-0.939003v2.598999H58.5670166z M58.5670166,181.4380188h0.9489975
		c0.8000031,0,0.9500046-0.6089935,0.9500046-0.9989929s-0.1500015-1-0.9500046-1h-0.9489975V181.4380188z"/>
	<path class="st1" d="M64.367012,185.4760284h-1.598999v-7.4960022h2.5479965c2.0189972,0,2.6790009,0.9199982,2.6790009,2.348999
		c0,0.9299927-0.2600021,1.6399994-1.0490036,2.0200043l1.3290024,3.128006h-1.8690033l-1.0090027-2.8090057h-1.0289993v2.8079987
		H64.367012z M64.367012,181.2180176h1.0889969c0.7089996,0,0.7990036-0.4790039,0.7990036-0.8899994
		c0-0.4199982-0.0899963-0.8899994-0.7990036-0.8899994H64.367012V181.2180176z"/>
	<path class="st1" d="M68.7670135,181.7280273c0-2.2890015,0.6299973-3.8880005,2.987999-3.8880005
		c2.3590012,0,2.9889984,1.598999,2.9889984,3.8880005s-0.6299973,3.8880005-2.9889984,3.8880005
		C69.3970184,185.6150208,68.7670135,184.0170288,68.7670135,181.7280273z M70.3860168,181.7280273
		c0,1.7489929,0.3799973,2.4380035,1.3690033,2.4380035c0.9899979,0,1.3700027-0.6889954,1.3700027-2.4380035
		s-0.3799973-2.4380035-1.3700027-2.4380035C70.7660141,179.2890167,70.3860168,179.9790192,70.3860168,181.7280273z"/>
	<path class="st1" d="M79.9260178,184.5670166h-1.6190033l-1.1600037-3.6790009l0.0500031,4.5879974h-1.5790024v-7.4960022
		h2.0090027l1.4889984,4.6679993l1.4889984-4.6679993h2.0090027v7.4960022h-1.5790024l0.0500031-4.5879974L79.9260178,184.5670166z"
		/>
	<path class="st1" d="M83.4880142,181.7280273c0-2.2890015,0.6299973-3.8880005,2.987999-3.8880005
		c2.3590012,0,2.9889984,1.598999,2.9889984,3.8880005s-0.6299973,3.8880005-2.9889984,3.8880005
		C84.117012,185.6150208,83.4880142,184.0170288,83.4880142,181.7280273z M85.1070175,181.7280273
		c0,1.7489929,0.3799973,2.4380035,1.3690033,2.4380035c0.9899979,0,1.3700027-0.6889954,1.3700027-2.4380035
		s-0.3799973-2.4380035-1.3700027-2.4380035C85.4870148,179.2890167,85.1070175,179.9790192,85.1070175,181.7280273z"/>
	<path class="st1" d="M93.0360184,179.4390259v6.0370026h-1.598999v-6.0370026h-1.8089981v-1.4589996h5.2170029v1.4589996
		H93.0360184z"/>
	<path class="st1" d="M99.945015,182.3170166h-2.8880005v1.6990051h3.1780014v1.4589996h-4.7770004v-7.4960022h4.7770004v1.4589996
		h-3.1780014v1.4490051h2.8880005V182.3170166z"/>
	<path class="st1" d="M108.2340164,183.0870209c0,1.8589935-1.1689987,2.5279999-2.9380035,2.5279999
		c-0.8099976,0-1.7990036-0.1399994-2.3389969-0.4600067v-1.6390076c0.3499985,0.1999969,1.189003,0.5800018,2.1790009,0.5800018
		c1.1289978,0,1.4589996-0.3509979,1.4589996-0.8589935c0-0.5700073-0.25-0.7599945-1.0090027-0.8600006
		c-1.8990021-0.25-2.6279984-0.8099976-2.6279984-2.2779999c0-1.3589935,0.8300018-2.2590027,2.8089981-2.2590027
		c1.0189972,0,1.7689972,0.1799927,2.1190033,0.3699951v1.548996c-0.4100037-0.1999969-1.2389984-0.3990021-1.9990005-0.3990021
		c-0.8300018,0-1.2890015,0.2599945-1.2890015,0.7389984c0,0.5399933,0.2900009,0.7100067,1.0690002,0.8190002
		C107.3250122,181.1490173,108.2340164,181.48703,108.2340164,183.0870209z"/>
	<path class="st1" d="M108.957016,183.1070251v-5.1269989h1.598999v5.0480042c0,0.9689941,0.6299973,1.1390076,1.189003,1.1390076
		s1.189003-0.1699982,1.189003-1.1390076v-5.0480042h1.598999v5.1269989c0,2.0599976-1.6490021,2.5090027-2.7890015,2.5090027
		S108.957016,185.1660309,108.957016,183.1070251z"/>
	<path class="st1" d="M120.5840149,183.0870209c0,1.8589935-1.1689987,2.5279999-2.9380035,2.5279999
		c-0.8099976,0-1.7990036-0.1399994-2.3389969-0.4600067v-1.6390076c0.3499985,0.1999969,1.189003,0.5800018,2.1790009,0.5800018
		c1.1289978,0,1.4589996-0.3509979,1.4589996-0.8589935c0-0.5700073-0.25-0.7599945-1.0100021-0.8600006
		c-1.8990021-0.25-2.6279984-0.8099976-2.6279984-2.2779999c0-1.3589935,0.8300018-2.2590027,2.8089981-2.2590027
		c1.0189972,0,1.7689972,0.1799927,2.1190033,0.3699951v1.548996c-0.4100037-0.1999969-1.2389984-0.3990021-1.9990005-0.3990021
		c-0.8300018,0-1.2890015,0.2599945-1.2890015,0.7389984c0,0.5399933,0.2900009,0.7100067,1.0690002,0.8190002
		C119.6750183,181.1490173,120.5840149,181.48703,120.5840149,183.0870209z"/>
	<path class="st1" d="M124.1560135,179.4390259v6.0370026h-1.598999v-6.0370026h-1.8089981v-1.4589996h5.2170029v1.4589996
		H124.1560135z"/>
	<path class="st1" d="M125.5170135,185.4760284l2.0790024-7.5359955h1.8389969l2.0789948,7.5359955h-1.6990051l-0.3500061-1.5390015
		h-1.8990021l-0.3499985,1.5390015H125.5170135z M127.8760147,182.6670227h1.2789993l-0.6399994-2.8379974L127.8760147,182.6670227z
		"/>
	<path class="st1" d="M132.2870178,185.4760284v-7.4960022h1.598999v7.4960022H132.2870178z"/>
	<path class="st1" d="M138.8750153,185.4760284l-2.4179993-4.4779968l0.0399933,4.4779968h-1.5789948v-7.4960022h1.5789948
		l2.4179993,4.4779968l-0.0399933-4.4779968h1.5789948v7.4960022H138.8750153z"/>
	<path class="st1" d="M141.1170197,185.4760284l2.0789948-7.5359955h1.8390045l2.0789948,7.5359955h-1.6990051l-0.3500061-1.5390015
		h-1.8990021l-0.3500061,1.5390015H141.1170197z M143.4760132,182.6670227h1.279007l-0.6399994-2.8379974L143.4760132,182.6670227z"
		/>
	<path class="st1" d="M147.7770081,177.9800262h2.6880035c1.8990021,0,2.4179993,0.8990021,2.4179993,2.1190033
		c0,0.6399994-0.3200073,1.1589966-0.8099976,1.4190063c0.5599976,0.1900024,1.029007,0.7400055,1.029007,1.6690063
		c0,1.3000031-0.5890045,2.2890015-2.5980072,2.2890015h-2.7290039v-7.4960175H147.7770081z M150.4060211,179.3390198h-1.029007
		v1.6089935h1.029007c0.6600037,0,0.779007-0.4600067,0.779007-0.8000031
		C151.1850128,179.7990265,151.0750122,179.3390198,150.4060211,179.3390198z M149.3760223,184.1160278h1.1089935
		c0.6690063,0,0.9190063-0.3899994,0.9190063-0.9389954c0-0.5599976-0.2599945-0.9299927-0.9190063-0.9299927h-1.1089935
		V184.1160278z"/>
	<path class="st1" d="M155.3860168,184.0170288h3.0279999v1.4589996h-4.6269989v-7.4960022h1.598999V184.0170288z"/>
	<path class="st1" d="M163.4740143,182.3170166h-2.8880005v1.6990051h3.1779938v1.4589996h-4.7769928v-7.4960022h4.7769928
		v1.4589996h-3.1779938v1.4490051h2.8880005V182.3170166z"/>
</g>
<g class="st2">
	<path class="st1" d="M81.0720139,197.4760284l2.0790024-7.5359955h1.8389969l2.0790024,7.5359955H85.370018l-0.3499985-1.5390015
		h-1.8990021l-0.3499985,1.5390015H81.0720139z M83.431015,194.6670227h1.2789993l-0.6399994-2.8379974L83.431015,194.6670227z"/>
	<path class="st1" d="M87.4820175,193.7280273c0-2.6080017,0.939003-3.8880005,3.2180023-3.8880005
		c1.0199966,0,1.7590027,0.1490021,2.2089996,0.3500061v1.5599976c-0.6200027-0.2599945-1.2900009-0.4100037-1.9089966-0.4100037
		c-1.4290009,0-1.8990021,0.6399994-1.8990021,2.3889923c0,1.8690033,0.5100021,2.3890076,1.8990021,2.3890076
		c0.1500015,0,0.3499985-0.0099945,0.4599991-0.0299988v-1.5189972h-1.0599976v-1.4299927h2.6589966v3.9680023
		c-0.4499969,0.2799988-1.3300018,0.5099945-2.4089966,0.5099945
		C88.4220123,197.6150208,87.4820175,196.3360291,87.4820175,193.7280273z"/>
	<path class="st1" d="M95.5410156,197.4760284h-1.598999v-7.4960022h2.5479965c2.0189972,0,2.6790009,0.9199982,2.6790009,2.348999
		c0,0.9299927-0.2600021,1.6399994-1.0500031,2.0200043l1.3300018,3.128006h-1.8689957l-1.0090027-2.8090057h-1.0289993v2.8079987
		H95.5410156z M95.5410156,193.2180176h1.0889969c0.7089996,0,0.7990036-0.4790039,0.7990036-0.8899994
		c0-0.4199982-0.0899963-0.8899994-0.7990036-0.8899994h-1.0889969V193.2180176z"/>
	<path class="st1" d="M100.1020126,197.4760284v-7.4960022h1.598999v7.4960022H100.1020126z"/>
	<path class="st1" d="M105.9200134,189.8400269c0.8700027,0,1.2590027,0.1600037,1.5589981,0.2799988v1.5090027
		c-0.4499969-0.1799927-0.7990036-0.2899933-1.3990021-0.2899933c-1.2200012,0-1.7789993,0.4900055-1.7789993,2.3890076
		s0.5599976,2.3890076,1.7789993,2.3890076c0.5999985,0,0.9489975-0.1089935,1.3990021-0.2899933v1.5099945
		c-0.3000031,0.1199951-0.689003,0.279007-1.5589981,0.279007c-2.189003,0-3.2279968-1.0690002-3.237999-3.8880005
		C102.6920166,190.9090271,103.7310181,189.8400269,105.9200134,189.8400269z"/>
	<path class="st1" d="M108.3020172,195.1070251v-5.1269989h1.598999v5.0480042c0,0.9689941,0.6299973,1.1390076,1.189003,1.1390076
		s1.189003-0.1699982,1.189003-1.1390076v-5.0480042h1.598999v5.1269989c0,2.0599976-1.6490021,2.5090027-2.7890015,2.5090027
		S108.3020172,197.1660309,108.3020172,195.1070251z"/>
	<path class="st1" d="M116.3510132,196.0170288h3.0279999v1.4589996h-4.6269989v-7.4960022h1.598999V196.0170288z"/>
	<path class="st1" d="M122.0500183,191.4390259v6.0370026h-1.598999v-6.0370026h-1.8089981v-1.4589996h5.2170029v1.4589996
		H122.0500183z"/>
	<path class="st1" d="M124.4220123,195.1070251v-5.1269989h1.598999v5.0480042c0,0.9689941,0.6299973,1.1390076,1.189003,1.1390076
		s1.189003-0.1699982,1.189003-1.1390076v-5.0480042h1.598999v5.1269989c0,2.0599976-1.6490021,2.5090027-2.7890015,2.5090027
		S124.4220123,197.1660309,124.4220123,195.1070251z"/>
	<path class="st1" d="M132.4710083,197.4760284h-1.598999v-7.4960022h2.5480042c2.0189972,0,2.6790009,0.9199982,2.6790009,2.348999
		c0,0.9299927-0.2599945,1.6399994-1.0500031,2.0200043l1.3300018,3.128006h-1.8690033l-1.0090027-2.8090057h-1.029007v2.8079987
		H132.4710083z M132.4710083,193.2180176h1.0890045c0.7089996,0,0.798996-0.4790039,0.798996-0.8899994
		c0-0.4199982-0.0899963-0.8899994-0.798996-0.8899994h-1.0890045V193.2180176z"/>
	<path class="st1" d="M141.4090118,194.3170166h-2.8880005v1.6990051h3.1779938v1.4589996h-4.7769928v-7.4960022h4.7769928
		v1.4589996h-3.1779938v1.4490051h2.8880005V194.3170166z"/>
</g>
</svg>
