<?xml version="1.0" encoding="utf-8"?>
<!-- Generator: Adobe Illustrator 20.1.0, SVG Export Plug-In . SVG Version: 6.00 Build 0)  -->
<svg version="1.1" id="Layer_1" xmlns="http://www.w3.org/2000/svg" xmlns:xlink="http://www.w3.org/1999/xlink" x="0px" y="0px"
	 width="218px" height="218px" viewBox="0 0 218 218" style="enable-background:new 0 0 218 218;" xml:space="preserve">
<style type="text/css">
	.st0{fill:#BE8B2C;}
	.st1{fill:#FFFFFF;}
	.st2{fill:#FFFFFF;stroke:#FFFFFF;stroke-width:0.73;stroke-miterlimit:10;}
	.st3{fill:#F7F5F5;}
</style>
<g>
	<circle class="st0" cx="109.4" cy="108.9" r="108"/>
</g>
<g>
	<path class="st1" d="M43.4,40.5v32h-8v-24l-5.6,0.2v-5.6l9.6-2.6C39.4,40.5,43.4,40.5,43.4,40.5z"/>
	<path class="st1" d="M59.2,47.7c-3.4,0-6,0.8-8.4,1.9v-7.5c2-0.9,5.4-1.6,9.3-1.6c10.1,0,11.5,5.2,11.5,9.8
		c0,6.3-5.2,10.4-11.8,14.8L72,64.9v7.5H49.3v-5.3C60,58.8,63.4,54.8,63.4,51.2C63.4,49,62.5,47.7,59.2,47.7z"/>
</g>
<path class="st2" d="M150.6,99.1c-7.1-5.6-16.5-5.7-20-4.9l-0.4,0.1c-4,0.9-10.3,2.5-17.7,11.7c0,0.1-0.1,0.1-0.1,0.2l-0.1,0.1
	c-0.1,0.1-0.1,0.2-0.1,0.4c0,0.1,0,0.2,0.1,0.3l0.2,0.3c0.9,1.6,2.1,3.6,3.1,5.4c0,0,0,0,0,0.1c0.1,0.2,0.3,0.3,0.6,0.3
	c0.2,0,0.3-0.1,0.4-0.2c0-0.1,0.1-0.1,0.1-0.2c6.6-9.1,11.7-10.3,15.2-11.2l0.4-0.1c1.8-0.4,8.7-0.4,13.7,3.5
	c3.9,3.1,5.9,8,5.9,14.5c0,11-5.4,15.3-9.8,17c-7,2.6-13.6-0.9-13.7-0.9l-0.3-0.1c-3.8-1.7-9.5-5.1-14.9-15.9
	c-10.8-21.8-19.9-23.8-25.9-25.2L87,94.2c-2.7-0.6-12.2-1.1-19.7,4.9c-3.9,3.1-8.5,9.1-8.5,20.3c0,6.8,1.4,11.3,5,16
	c0.8,1.1,8.8,11.4,24.3,8.4c2.5-0.5,5.8-1.7,9.5-4.4l3.4,3.1c0.2,0.2,0.6,0.2,0.8,0c0.1-0.1,0.1-0.2,0.1-0.4l0,0l2.5-15.1v-0.2
	c0-0.1-0.1-0.3-0.2-0.4s-0.2-0.1-0.4-0.1h-0.1h-0.2L89,130.4h-0.3c-0.1,0-0.2,0.1-0.3,0.2c-0.2,0.2-0.2,0.6,0,0.8l0.2,0.2l3.3,2.9
	c-2.1,1.4-3.9,2-5.3,2.3c-11.2,2.1-16.8-5.2-17-5.5l-0.1-0.1c-2.6-3.4-3.5-6.3-3.5-11.5c0-6.6,1.9-11.5,5.8-14.5
	c4.9-3.9,11.5-3.9,13.4-3.5l0.3,0.1c4.9,1.1,11.6,2.6,20.9,21.3c4.8,9.7,10.8,16,18.4,19.3c1,0.5,5.6,2.7,11.6,2.7
	c2.5,0,5.2-0.4,8.1-1.4c4.4-1.6,14.6-7.3,14.6-23.9C159.3,108.3,154.5,102.2,150.6,99.1"/>
<g>
	<path class="st1" d="M31.8,164.8h-2.9v1.7h3.2v1.5h-4.8v-7.5h4.8v1.5h-3.2v1.4h2.9C31.8,163.4,31.8,164.8,31.8,164.8z"/>
	<path class="st1" d="M36.8,168l-2.4-4.5v4.5h-1.6v-7.5h1.6l2.4,4.5v-4.5h1.6v7.5H36.8z"/>
	<path class="st1" d="M44.5,165.6c0,1.9-1.2,2.5-2.9,2.5c-0.8,0-1.8-0.1-2.3-0.5V166c0.3,0.2,1.2,0.6,2.2,0.6c1.1,0,1.5-0.4,1.5-0.9
		c0-0.6-0.2-0.8-1-0.9c-1.9-0.2-2.6-0.8-2.6-2.3c0-1.4,0.8-2.3,2.8-2.3c1,0,1.8,0.2,2.1,0.4v1.5c-0.4-0.2-1.2-0.4-2-0.4
		S41,162,41,162.4c0,0.5,0.3,0.7,1.1,0.8C43.6,163.7,44.5,164,44.5,165.6z"/>
	<path class="st1" d="M45.2,165.6v-5.1h1.6v5c0,1,0.6,1.1,1.2,1.1s1.2-0.2,1.2-1.1v-5h1.6v5.1c0,2.1-1.6,2.5-2.8,2.5
		C46.9,168.1,45.2,167.7,45.2,165.6z"/>
	<path class="st1" d="M53.3,168h-1.6v-7.5h2.5c2,0,2.7,0.9,2.7,2.3c0,0.9-0.3,1.6-1,2l1.3,3.1h-1.9l-1-2.8h-1V168L53.3,168z
		 M53.3,163.7h1.1c0.7,0,0.8-0.5,0.8-0.9s-0.1-0.9-0.8-0.9h-1.1V163.7z"/>
	<path class="st1" d="M62.2,164.8h-2.9v1.7h3.2v1.5h-4.8v-7.5h4.8v1.5h-3.2v1.4h2.9V164.8z"/>
	<path class="st1" d="M70.5,165.6c0,1.9-1.2,2.5-2.9,2.5c-0.8,0-1.8-0.1-2.3-0.5V166c0.3,0.2,1.2,0.6,2.2,0.6c1.1,0,1.5-0.4,1.5-0.9
		c0-0.6-0.2-0.8-1-0.9c-1.9-0.2-2.6-0.8-2.6-2.3c0-1.4,0.8-2.3,2.8-2.3c1,0,1.8,0.2,2.1,0.4v1.5c-0.4-0.2-1.2-0.4-2-0.4
		S67,162,67,162.4c0,0.5,0.3,0.7,1.1,0.8C69.6,163.7,70.5,164,70.5,165.6z"/>
	<path class="st1" d="M71.2,165.6v-5.1h1.6v5c0,1,0.6,1.1,1.2,1.1s1.2-0.2,1.2-1.1v-5h1.6v5.1c0,2.1-1.6,2.5-2.8,2.5
		S71.2,167.7,71.2,165.6z"/>
	<path class="st1" d="M82.9,165.6c0,1.9-1.2,2.5-2.9,2.5c-0.8,0-1.8-0.1-2.3-0.5V166c0.3,0.2,1.2,0.6,2.2,0.6c1.1,0,1.5-0.4,1.5-0.9
		c0-0.6-0.2-0.8-1-0.9c-1.9-0.2-2.6-0.8-2.6-2.3c0-1.4,0.8-2.3,2.8-2.3c1,0,1.8,0.2,2.1,0.4v1.5c-0.4-0.2-1.2-0.4-2-0.4
		s-1.3,0.3-1.3,0.7c0,0.5,0.3,0.7,1.1,0.8C82,163.7,82.9,164,82.9,165.6z"/>
	<path class="st1" d="M86.4,162v6h-1.6v-6H83v-1.5h5.2v1.5H86.4z"/>
	<path class="st1" d="M87.8,168l2.1-7.5h1.8l2.1,7.5h-1.7l-0.3-1.5h-1.9l-0.3,1.5H87.8z M90.2,165.2h1.3l-0.6-2.8L90.2,165.2z"/>
	<path class="st1" d="M94.6,168v-7.5h1.6v7.5H94.6z"/>
	<path class="st1" d="M101.2,168l-2.4-4.5v4.5h-1.6v-7.5h1.6l2.4,4.5v-4.5h1.6v7.5H101.2z"/>
	<path class="st1" d="M103.4,168l2.1-7.5h1.8l2.1,7.5h-1.7l-0.3-1.5h-1.9l-0.3,1.5H103.4z M105.8,165.2h1.3l-0.6-2.8L105.8,165.2z"
		/>
	<path class="st1" d="M110.1,160.5h2.7c1.9,0,2.4,0.9,2.4,2.1c0,0.6-0.3,1.2-0.8,1.4c0.6,0.2,1,0.7,1,1.7c0,1.3-0.6,2.3-2.6,2.3
		h-2.7V160.5L110.1,160.5z M112.7,161.9h-1v1.6h1c0.7,0,0.8-0.5,0.8-0.8C113.5,162.3,113.4,161.9,112.7,161.9z M111.7,166.6h1.1
		c0.7,0,0.9-0.4,0.9-0.9c0-0.6-0.3-0.9-0.9-0.9h-1.1V166.6z"/>
	<path class="st1" d="M117.7,166.5h3v1.5h-4.6v-7.5h1.6V166.5z"/>
	<path class="st1" d="M125.8,164.8h-2.9v1.7h3.2v1.5h-4.8v-7.5h4.8v1.5h-3.2v1.4h2.9V164.8z"/>
	<path class="st1" d="M132.1,160.4c0.9,0,1.3,0.2,1.6,0.3v1.5c-0.4-0.2-0.8-0.3-1.4-0.3c-1.2,0-1.8,0.5-1.8,2.4s0.6,2.4,1.8,2.4
		c0.6,0,0.9-0.1,1.4-0.3v1.5c-0.3,0.1-0.7,0.3-1.6,0.3c-2.2,0-3.2-1.1-3.2-3.9C128.8,161.4,129.9,160.4,132.1,160.4z"/>
	<path class="st1" d="M134.4,164.3c0-2.3,0.6-3.9,3-3.9s3,1.6,3,3.9s-0.6,3.9-3,3.9C135.1,168.1,134.4,166.5,134.4,164.3z
		 M136.1,164.3c0,1.7,0.4,2.4,1.4,2.4s1.4-0.7,1.4-2.4s-0.4-2.4-1.4-2.4C136.4,161.8,136.1,162.5,136.1,164.3z"/>
	<path class="st1" d="M145.2,168l-2.4-4.5v4.5h-1.6v-7.5h1.6l2.4,4.5v-4.5h1.6v7.5H145.2z"/>
	<path class="st1" d="M152.9,165.6c0,1.9-1.2,2.5-2.9,2.5c-0.8,0-1.8-0.1-2.3-0.5V166c0.4,0.2,1.2,0.6,2.2,0.6
		c1.1,0,1.5-0.4,1.5-0.9c0-0.6-0.2-0.8-1-0.9c-1.9-0.2-2.6-0.8-2.6-2.3c0-1.4,0.8-2.3,2.8-2.3c1,0,1.8,0.2,2.1,0.4v1.5
		c-0.4-0.2-1.2-0.4-2-0.4s-1.3,0.3-1.3,0.7c0,0.5,0.3,0.7,1.1,0.8C152,163.7,152.9,164,152.9,165.6z"/>
	<path class="st1" d="M153.6,165.6v-5.1h1.6v5c0,1,0.6,1.1,1.2,1.1s1.2-0.2,1.2-1.1v-5h1.6v5.1c0,2.1-1.6,2.5-2.8,2.5
		S153.6,167.7,153.6,165.6z"/>
	<path class="st1" d="M164.4,167.1h-1.6l-1.2-3.7l0.1,4.6h-1.6v-7.5h2l1.5,4.7l1.5-4.7h2v7.5h-1.6l0.1-4.6L164.4,167.1z"/>
	<path class="st1" d="M169.6,168H168v-7.5h2.5c2,0,2.7,1.2,2.7,2.4c0,1.3-0.7,2.4-2.7,2.4h-0.9V168L169.6,168z M169.6,164h0.9
		c0.8,0,0.9-0.6,0.9-1s-0.1-1-0.9-1h-0.9V164z"/>
	<path class="st1" d="M176.9,162v6h-1.6v-6h-1.8v-1.5h5.2v1.5H176.9z"/>
	<path class="st1" d="M179.4,168v-7.5h1.6v7.5H179.4z"/>
	<path class="st1" d="M182,164.3c0-2.3,0.6-3.9,3-3.9s3,1.6,3,3.9s-0.6,3.9-3,3.9C182.7,168.1,182,166.5,182,164.3z M183.6,164.3
		c0,1.7,0.4,2.4,1.4,2.4s1.4-0.7,1.4-2.4s-0.4-2.4-1.4-2.4C184,161.8,183.6,162.5,183.6,164.3z"/>
	<path class="st1" d="M192.8,168l-2.4-4.5v4.5h-1.6v-7.5h1.6l2.4,4.5v-4.5h1.6v7.5H192.8z"/>
	<path class="st1" d="M48.4,182l2.1-7.5h1.8l2.1,7.5h-1.7l-0.3-1.5h-1.9l-0.3,1.5H48.4z M50.7,179.2H52l-0.6-2.8L50.7,179.2z"/>
	<path class="st1" d="M59,182l-2.4-4.5v4.5H55v-7.5h1.6L59,179v-4.5h1.6v7.5H59z"/>
	<path class="st1" d="M61.5,182v-7.5h2.4c2.5,0,3.2,1.6,3.2,3.7s-0.7,3.7-3.2,3.7h-2.4C61.5,181.9,61.5,182,61.5,182z M63.1,180.5
		H64c1.2,0,1.5-0.8,1.5-2.3c0-1.4-0.3-2.3-1.5-2.3h-0.9V180.5z"/>
	<path class="st1" d="M71.5,182h-1.6v-7.5h2.5c2,0,2.7,1.2,2.7,2.4c0,1.3-0.7,2.4-2.7,2.4h-0.9V182L71.5,182z M71.5,178h0.9
		c0.8,0,0.9-0.6,0.9-1s-0.2-1-0.9-1h-0.9V178z"/>
	<path class="st1" d="M77.3,182h-1.6v-7.5h2.5c2,0,2.7,0.9,2.7,2.3c0,0.9-0.3,1.6-1,2l1.3,3.1h-1.9l-1-2.8h-1V182L77.3,182z
		 M77.3,177.7h1.1c0.7,0,0.8-0.5,0.8-0.9s-0.1-0.9-0.8-0.9h-1.1V177.7z"/>
	<path class="st1" d="M81.7,178.3c0-2.3,0.6-3.9,3-3.9s3,1.6,3,3.9s-0.6,3.9-3,3.9C82.4,182.1,81.7,180.5,81.7,178.3z M83.4,178.3
		c0,1.7,0.4,2.4,1.4,2.4s1.4-0.7,1.4-2.4s-0.4-2.4-1.4-2.4C83.7,175.8,83.4,176.5,83.4,178.3z"/>
	<path class="st1" d="M88.6,182v-7.5H91c2.5,0,3.2,1.6,3.2,3.7S93.6,182,91,182H88.6z M90.2,180.5h0.9c1.2,0,1.5-0.8,1.5-2.3
		c0-1.4-0.3-2.3-1.5-2.3h-0.9V180.5z"/>
	<path class="st1" d="M95,179.6v-5.1h1.6v5c0,1,0.6,1.1,1.2,1.1s1.2-0.2,1.2-1.1v-5h1.6v5.1c0,2.1-1.6,2.5-2.8,2.5
		S95,181.7,95,179.6z"/>
	<path class="st1" d="M104.6,174.4c0.9,0,1.3,0.2,1.6,0.3v1.5c-0.4-0.2-0.8-0.3-1.4-0.3c-1.2,0-1.8,0.5-1.8,2.4s0.6,2.4,1.8,2.4
		c0.6,0,0.9-0.1,1.4-0.3v1.5c-0.3,0.1-0.7,0.3-1.6,0.3c-2.2,0-3.2-1.1-3.2-3.9C101.4,175.4,102.4,174.4,104.6,174.4z"/>
	<path class="st1" d="M110,176v6h-1.6v-6h-1.8v-1.5h5.2v1.5H110z"/>
	<path class="st1" d="M112.5,182v-7.5h1.6v7.5H112.5z"/>
	<path class="st1" d="M115.1,178.3c0-2.3,0.6-3.9,3-3.9s3,1.6,3,3.9s-0.6,3.9-3,3.9C115.7,182.1,115.1,180.5,115.1,178.3z
		 M116.7,178.3c0,1.7,0.4,2.4,1.4,2.4s1.4-0.7,1.4-2.4s-0.4-2.4-1.4-2.4C117.1,175.8,116.7,176.5,116.7,178.3z"/>
	<path class="st1" d="M125.9,182l-2.4-4.5v4.5h-1.6v-7.5h1.6l2.4,4.5v-4.5h1.6v7.5H125.9z"/>
	<path class="st1" d="M132,182h-1.6v-7.5h2.5c2,0,2.7,1.2,2.7,2.4c0,1.3-0.7,2.4-2.7,2.4H132V182L132,182z M132,178h0.9
		c0.8,0,0.9-0.6,0.9-1s-0.1-1-0.9-1H132V178z"/>
	<path class="st1" d="M135.2,182l2.1-7.5h1.8l2.1,7.5h-1.7l-0.4-1.5h-1.9l-0.4,1.5H135.2z M137.5,179.2h1.3l-0.6-2.8L137.5,179.2z"
		/>
	<path class="st1" d="M144,176v6h-1.6v-6h-1.8v-1.5h5.2v1.5H144z"/>
	<path class="st1" d="M149.5,176v6h-1.6v-6h-1.8v-1.5h5.2v1.5H149.5z"/>
	<path class="st1" d="M156.4,178.8h-2.9v1.7h3.2v1.5h-4.8v-7.5h4.8v1.5h-3.2v1.4h2.9V178.8z"/>
	<path class="st1" d="M159.1,182h-1.6v-7.5h2.5c2,0,2.7,0.9,2.7,2.3c0,0.9-0.3,1.6-1.1,2l1.3,3.1H161l-1-2.8h-1L159.1,182L159.1,182
		z M159.1,177.7h1.1c0.7,0,0.8-0.5,0.8-0.9s-0.1-0.9-0.8-0.9h-1.1V177.7z"/>
	<path class="st1" d="M167.5,182l-2.4-4.5v4.5h-1.6v-7.5h1.6l2.4,4.5v-4.5h1.6v7.5H167.5z"/>
	<path class="st1" d="M175.2,179.6c0,1.9-1.2,2.5-2.9,2.5c-0.8,0-1.8-0.1-2.3-0.5V180c0.4,0.2,1.2,0.6,2.2,0.6
		c1.1,0,1.5-0.4,1.5-0.9c0-0.6-0.2-0.8-1-0.9c-1.9-0.2-2.6-0.8-2.6-2.3c0-1.4,0.8-2.3,2.8-2.3c1,0,1.8,0.2,2.1,0.4v1.5
		c-0.4-0.2-1.2-0.4-2-0.4s-1.3,0.3-1.3,0.7c0,0.5,0.3,0.7,1.1,0.8C174.3,177.7,175.2,178,175.2,179.6z"/>
</g>
<g>
	<path class="st3" d="M85.8,31.7h-3.5v2h3.8v1.8h-5.7v-9h5.7v1.8h-3.8V30h3.5V31.7z"/>
	<path class="st3" d="M91.9,35.5L89,30.1v5.4h-1.9v-9H89l2.9,5.4v-5.4h1.9v9H91.9z"/>
	<path class="st3" d="M101.1,32.6c0,2.2-1.4,3-3.5,3c-1,0-2.2-0.2-2.8-0.6v-2c0.4,0.2,1.4,0.7,2.6,0.7c1.4,0,1.8-0.4,1.8-1
		c0-0.7-0.3-0.9-1.2-1c-2.3-0.3-3.2-1-3.2-2.7c0-1.6,1-2.7,3.4-2.7c1.2,0,2.1,0.2,2.5,0.4v1.9c-0.5-0.2-1.5-0.5-2.4-0.5
		c-1,0-1.5,0.3-1.5,0.9s0.3,0.9,1.3,1C100,30.3,101.1,30.7,101.1,32.6z"/>
	<path class="st3" d="M102,32.6v-6.2h1.9v6.1c0,1.2,0.8,1.4,1.4,1.4s1.4-0.2,1.4-1.4v-6.1h1.9v6.2c0,2.5-2,3-3.3,3
		S102,35.1,102,32.6z"/>
	<path class="st3" d="M111.7,35.5h-1.9v-9h3.1c2.4,0,3.2,1.1,3.2,2.8c0,1.1-0.3,2-1.3,2.4l1.6,3.8h-2.2l-1.2-3.4h-1.2L111.7,35.5
		L111.7,35.5z M111.7,30.3h1.3c0.9,0,1-0.6,1-1.1s-0.1-1.1-1-1.1h-1.3V30.3z"/>
	<path class="st3" d="M122.4,31.7h-3.5v2h3.8v1.8H117v-9h5.7v1.8h-3.8V30h3.5C122.4,30,122.4,31.7,122.4,31.7z"/>
	<path class="st3" d="M86.7,47c0,2.2-1.4,3-3.5,3c-1,0-2.2-0.2-2.8-0.6v-2c0.4,0.2,1.4,0.7,2.6,0.7c1.4,0,1.8-0.4,1.8-1
		c0-0.7-0.3-0.9-1.2-1c-2.3-0.3-3.2-1-3.2-2.7c0-1.6,1-2.7,3.4-2.7c1.2,0,2.1,0.2,2.5,0.4V43c-0.5-0.2-1.5-0.5-2.4-0.5
		c-1,0-1.5,0.3-1.5,0.9c0,0.6,0.3,0.9,1.3,1C85.6,44.7,86.7,45.1,86.7,47z"/>
	<path class="st3" d="M87.5,47v-6.2h1.9v6.1c0,1.2,0.8,1.4,1.4,1.4s1.4-0.2,1.4-1.4v-6.1h1.9V47c0,2.5-2,3-3.3,3S87.5,49.5,87.5,47z
		"/>
	<path class="st3" d="M101.5,47c0,2.2-1.4,3-3.5,3c-1,0-2.2-0.2-2.8-0.6v-2c0.4,0.2,1.4,0.7,2.6,0.7c1.4,0,1.8-0.4,1.8-1
		c0-0.7-0.3-0.9-1.2-1c-2.3-0.3-3.2-1-3.2-2.7c0-1.6,1-2.7,3.4-2.7c1.2,0,2.1,0.2,2.5,0.4V43c-0.5-0.2-1.5-0.5-2.4-0.5
		c-1,0-1.5,0.3-1.5,0.9c0,0.6,0.3,0.9,1.3,1C100.4,44.7,101.5,45.1,101.5,47z"/>
	<path class="st3" d="M105.8,42.6v7.2h-1.9v-7.2h-2.2v-1.8h6.3v1.8H105.8z"/>
	<path class="st3" d="M107.4,49.9l2.5-9h2.2l2.5,9h-2l-0.4-1.8h-2.3l-0.4,1.8H107.4z M110.2,46.5h1.5l-0.8-3.4L110.2,46.5z"/>
	<path class="st3" d="M115.5,49.9v-9h1.9v9H115.5z"/>
	<path class="st3" d="M123.4,49.9l-2.9-5.4v5.4h-1.9v-9h1.9l2.9,5.4v-5.4h1.9v9H123.4z"/>
	<path class="st3" d="M126.1,49.9l2.5-9h2.2l2.5,9h-2l-0.4-1.8h-2.3l-0.4,1.8H126.1z M129,46.5h1.5l-0.8-3.4L129,46.5z"/>
	<path class="st3" d="M134.1,40.9h3.2c2.3,0,2.9,1.1,2.9,2.5c0,0.8-0.4,1.4-1,1.7c0.7,0.2,1.2,0.9,1.2,2c0,1.6-0.7,2.7-3.1,2.7H134
		v-8.9H134.1z M137.3,42.5H136v1.9h1.2c0.8,0,0.9-0.6,0.9-1C138.2,43,138.1,42.5,137.3,42.5z M136,48.2h1.3c0.8,0,1.1-0.5,1.1-1.1
		c0-0.7-0.3-1.1-1.1-1.1H136V48.2z"/>
	<path class="st3" d="M143.2,48.1h3.6v1.8h-5.6v-9h1.9v7.2H143.2z"/>
	<path class="st3" d="M153,46.1h-3.5v2h3.8v1.8h-5.7v-9h5.7v1.8h-3.8v1.7h3.5V46.1z"/>
	<path class="st3" d="M84.3,55.1c1,0,1.5,0.2,1.9,0.3v1.8c-0.5-0.2-1-0.3-1.7-0.3c-1.5,0-2.1,0.6-2.1,2.9s0.7,2.9,2.1,2.9
		c0.7,0,1.1-0.1,1.7-0.3v1.8c-0.4,0.1-0.8,0.3-1.9,0.3c-2.6,0-3.9-1.3-3.9-4.7C80.4,56.4,81.7,55.1,84.3,55.1z"/>
	<path class="st3" d="M87.1,59.8c0-2.7,0.8-4.7,3.6-4.7c2.8,0,3.6,1.9,3.6,4.7s-0.8,4.7-3.6,4.7C87.9,64.4,87.1,62.5,87.1,59.8z
		 M89.1,59.8c0,2.1,0.5,2.9,1.6,2.9c1.2,0,1.6-0.8,1.6-2.9c0-2.1-0.5-2.9-1.6-2.9C89.5,56.8,89.1,57.7,89.1,59.8z"/>
	<path class="st3" d="M100.1,64.3l-2.9-5.4v5.4h-1.9v-9h1.9l2.9,5.4v-5.4h1.9v9H100.1z"/>
	<path class="st3" d="M109.3,61.4c0,2.2-1.4,3-3.5,3c-1,0-2.2-0.2-2.8-0.6v-2c0.4,0.2,1.4,0.7,2.6,0.7c1.4,0,1.8-0.4,1.8-1
		c0-0.7-0.3-0.9-1.2-1c-2.3-0.3-3.2-1-3.2-2.7c0-1.6,1-2.7,3.4-2.7c1.2,0,2.1,0.2,2.5,0.4v1.9c-0.5-0.2-1.5-0.5-2.4-0.5
		c-1,0-1.5,0.3-1.5,0.9c0,0.6,0.3,0.9,1.3,1C108.2,59.1,109.3,59.5,109.3,61.4z"/>
	<path class="st3" d="M110.2,61.4v-6.2h1.9v6.1c0,1.2,0.8,1.4,1.4,1.4s1.4-0.2,1.4-1.4v-6.1h1.9v6.2c0,2.5-2,3-3.3,3
		S110.2,63.9,110.2,61.4z"/>
	<path class="st3" d="M123.1,63.2h-1.9l-1.4-4.4l0.1,5.5H118v-9h2.4l1.8,5.6l1.8-5.6h2.4v9h-1.9l0.1-5.5L123.1,63.2z"/>
	<path class="st3" d="M129.3,64.3h-1.9v-9h3c2.4,0,3.2,1.4,3.2,2.9c0,1.6-0.8,2.9-3.2,2.9h-1.1L129.3,64.3L129.3,64.3z M129.3,59.4
		h1.1c1,0,1.1-0.7,1.1-1.2s-0.2-1.2-1.1-1.2h-1.1V59.4z"/>
	<path class="st3" d="M138.1,57v7.2h-1.9V57H134v-1.8h6.3V57H138.1z"/>
	<path class="st3" d="M141.1,64.3v-9h1.9v9H141.1z"/>
	<path class="st3" d="M144.2,59.8c0-2.7,0.8-4.7,3.6-4.7s3.6,1.9,3.6,4.7s-0.8,4.7-3.6,4.7C145,64.4,144.2,62.5,144.2,59.8z
		 M146.2,59.8c0,2.1,0.5,2.9,1.6,2.9c1.2,0,1.6-0.8,1.6-2.9c0-2.1-0.5-2.9-1.6-2.9C146.6,56.8,146.2,57.7,146.2,59.8z"/>
	<path class="st3" d="M157.2,64.3l-2.9-5.4v5.4h-1.9v-9h1.9l2.9,5.4v-5.4h1.9v9H157.2z"/>
	<path class="st3" d="M162.3,64.3l2.5-9h2.2l2.5,9h-2l-0.4-1.8h-2.3l-0.4,1.8H162.3z M165.1,60.9h1.5l-0.8-3.4L165.1,60.9z"/>
	<path class="st3" d="M175,64.3l-2.9-5.4v5.4h-1.9v-9h1.9l2.9,5.4v-5.4h1.9v9H175z"/>
	<path class="st3" d="M178,64.3v-9h2.9c3,0,3.8,1.9,3.8,4.5s-0.8,4.5-3.8,4.5H178z M180,62.5h1c1.4,0,1.8-1,1.8-2.7
		s-0.4-2.7-1.8-2.7h-1V62.5z"/>
	<path class="st3" d="M82.4,78.7h-1.9v-9h3c2.4,0,3.2,1.4,3.2,2.9c0,1.6-0.8,2.9-3.2,2.9h-1.1V78.7z M82.4,73.8h1.1
		c1,0,1.1-0.7,1.1-1.2s-0.2-1.2-1.1-1.2h-1.1V73.8z"/>
	<path class="st3" d="M89.3,78.7h-1.9v-9h3.1c2.4,0,3.2,1.1,3.2,2.8c0,1.1-0.3,2-1.3,2.4l1.6,3.8h-2.2l-1.2-3.4h-1.2L89.3,78.7
		L89.3,78.7z M89.3,73.5h1.3c0.9,0,1-0.6,1-1.1s-0.1-1.1-1-1.1h-1.3V73.5z"/>
	<path class="st3" d="M94.6,74.2c0-2.7,0.8-4.7,3.6-4.7c2.8,0,3.6,1.9,3.6,4.7s-0.8,4.7-3.6,4.7C95.4,78.8,94.6,76.9,94.6,74.2z
		 M96.6,74.2c0,2.1,0.5,2.9,1.6,2.9c1.2,0,1.6-0.8,1.6-2.9s-0.5-2.9-1.6-2.9C97,71.2,96.6,72.1,96.6,74.2z"/>
	<path class="st3" d="M102.8,78.7v-9h2.9c3,0,3.8,1.9,3.8,4.5s-0.8,4.5-3.8,4.5H102.8z M104.8,76.9h1c1.4,0,1.8-1,1.8-2.7
		s-0.4-2.7-1.8-2.7h-1V76.9z"/>
	<path class="st3" d="M110.5,75.8v-6.2h1.9v6.1c0,1.2,0.8,1.4,1.4,1.4s1.4-0.2,1.4-1.4v-6.1h1.9v6.2c0,2.5-2,3-3.3,3
		S110.5,78.3,110.5,75.8z"/>
	<path class="st3" d="M122.1,69.5c1,0,1.5,0.2,1.9,0.3v1.8c-0.5-0.2-1-0.3-1.7-0.3c-1.5,0-2.1,0.6-2.1,2.9s0.7,2.9,2.1,2.9
		c0.7,0,1.1-0.1,1.7-0.3v1.8c-0.4,0.1-0.8,0.3-1.9,0.3c-2.6,0-3.9-1.3-3.9-4.7C118.2,70.8,119.5,69.5,122.1,69.5z"/>
	<path class="st3" d="M128.5,71.4v7.2h-1.9v-7.2h-2.2v-1.8h6.3v1.8H128.5z"/>
	<path class="st3" d="M131.5,78.7v-9h1.9v9H131.5z"/>
	<path class="st3" d="M134.6,74.2c0-2.7,0.8-4.7,3.6-4.7s3.6,1.9,3.6,4.7s-0.8,4.7-3.6,4.7C135.4,78.8,134.6,76.9,134.6,74.2z
		 M136.5,74.2c0,2.1,0.5,2.9,1.6,2.9c1.2,0,1.6-0.8,1.6-2.9s-0.5-2.9-1.6-2.9C137,71.2,136.5,72.1,136.5,74.2z"/>
	<path class="st3" d="M147.6,78.7l-2.9-5.4v5.4h-1.9v-9h1.9l2.9,5.4v-5.4h1.9v9H147.6z"/>
	<path class="st3" d="M154.9,78.7H153v-9h3c2.4,0,3.2,1.4,3.2,2.9c0,1.6-0.8,2.9-3.2,2.9h-1.1V78.7z M154.9,73.8h1.1
		c1,0,1.1-0.7,1.1-1.2s-0.2-1.2-1.1-1.2h-1.1V73.8z"/>
	<path class="st3" d="M158.7,78.7l2.5-9h2.2l2.5,9h-2l-0.4-1.8h-2.3l-0.4,1.8H158.7z M161.6,75.3h1.5l-0.8-3.4L161.6,75.3z"/>
	<path class="st3" d="M169.3,71.4v7.2h-1.9v-7.2h-2.2v-1.8h6.3v1.8H169.3z"/>
	<path class="st3" d="M175.9,71.4v7.2H174v-7.2h-2.2v-1.8h6.3v1.8H175.9z"/>
	<path class="st3" d="M184.2,74.9h-3.5v2h3.8v1.8h-5.7v-9h5.7v1.8h-3.8v1.7h3.5V74.9z"/>
	<path class="st3" d="M187.5,78.7h-1.9v-9h3.1c2.4,0,3.2,1.1,3.2,2.8c0,1.1-0.3,2-1.3,2.4l1.6,3.8H190l-1.2-3.4h-1.2v3.4H187.5z
		 M187.5,73.5h1.3c0.9,0,1-0.6,1-1.1s-0.1-1.1-1-1.1h-1.3V73.5z"/>
	<path class="st3" d="M197.6,78.7l-2.9-5.4v5.4h-1.9v-9h1.9l2.9,5.4v-5.4h1.9v9H197.6z"/>
	<path class="st3" d="M206.8,75.8c0,2.2-1.4,3-3.5,3c-1,0-2.2-0.2-2.8-0.6v-2c0.4,0.2,1.4,0.7,2.6,0.7c1.4,0,1.8-0.4,1.8-1
		c0-0.7-0.3-0.9-1.2-1c-2.3-0.3-3.2-1-3.2-2.7c0-1.6,1-2.7,3.4-2.7c1.2,0,2.1,0.2,2.5,0.4v1.9c-0.5-0.2-1.5-0.5-2.4-0.5
		c-1,0-1.5,0.3-1.5,0.9s0.3,0.9,1.3,1C205.7,73.5,206.8,73.9,206.8,75.8z"/>
</g>
<rect x="76.8" y="22" class="st0" width="80.3" height="56.9"/>
<path class="st0" d="M182,89.1h-28.3c-3.8,0-6.8-3.1-6.8-6.8V53.9c0-3.8,3.1-6.8,6.8-6.8H182c3.8,0,6.8,3.1,6.8,6.8v28.3
	C188.8,86,185.7,89.1,182,89.1z"/>
<rect x="184" y="69.5" class="st0" width="23.7" height="13.5"/>
<rect x="187" y="65.2" class="st0" width="19.7" height="18.8"/>
<g>
	<path class="st1" d="M88.7,42.6c0,2.6-1.6,3.5-4.1,3.5c-1.1,0-2.5-0.2-3.3-0.6v-2.3c0.5,0.3,1.7,0.8,3.1,0.8c1.6,0,2-0.5,2-1.2
		c0-0.8-0.3-1.1-1.4-1.2c-2.7-0.4-3.7-1.1-3.7-3.2c0-1.9,1.2-3.2,3.9-3.2c1.4,0,2.5,0.3,3,0.5v2.2c-0.6-0.3-1.7-0.6-2.8-0.6
		c-1.2,0-1.8,0.4-1.8,1c0,0.8,0.4,1,1.5,1.1C87.4,39.8,88.7,40.3,88.7,42.6z"/>
	<path class="st1" d="M89.7,42.6v-7.2h2.2v7.1c0,1.4,0.9,1.6,1.7,1.6s1.7-0.2,1.7-1.6v-7.1h2.2v7.2c0,2.9-2.3,3.5-3.9,3.5
		S89.7,45.5,89.7,42.6z"/>
	<path class="st1" d="M106,42.6c0,2.6-1.6,3.5-4.1,3.5c-1.1,0-2.5-0.2-3.3-0.6v-2.3c0.5,0.3,1.7,0.8,3.1,0.8c1.6,0,2-0.5,2-1.2
		c0-0.8-0.4-1.1-1.4-1.2c-2.7-0.4-3.7-1.1-3.7-3.2c0-1.9,1.2-3.2,3.9-3.2c1.4,0,2.5,0.3,3,0.5v2.2c-0.6-0.3-1.7-0.6-2.8-0.6
		c-1.2,0-1.8,0.4-1.8,1c0,0.8,0.4,1,1.5,1.1C104.7,39.8,106,40.3,106,42.6z"/>
	<path class="st1" d="M111,37.4v8.5h-2.2v-8.5h-2.5v-2h7.3v2H111z"/>
	<path class="st1" d="M112.9,45.9l2.9-10.6h2.6l2.9,10.6h-2.4l-0.5-2.2h-2.7l-0.5,2.2H112.9z M116.2,42h1.8l-0.9-4L116.2,42z"/>
	<path class="st1" d="M122.4,45.9V35.4h2.2v10.5H122.4z"/>
	<path class="st1" d="M131.6,45.9l-3.4-6.3l0.1,6.3H126V35.4h2.2l3.4,6.3l-0.1-6.3h2.2v10.5H131.6z"/>
	<path class="st1" d="M134.7,45.9l2.9-10.6h2.6l2.9,10.6h-2.4l-0.5-2.2h-2.7l-0.5,2.2H134.7z M138,42h1.8l-0.9-4L138,42z"/>
	<path class="st1" d="M144.1,35.4h3.8c2.7,0,3.4,1.3,3.4,3c0,0.9-0.4,1.6-1.1,2c0.8,0.3,1.4,1,1.4,2.3c0,1.8-0.8,3.2-3.6,3.2h-3.8
		V35.4z M147.7,37.3h-1.4v2.3h1.4c0.9,0,1.1-0.6,1.1-1.1C148.8,37.9,148.7,37.3,147.7,37.3z M146.3,44h1.6c0.9,0,1.3-0.5,1.3-1.3
		c0-0.8-0.4-1.3-1.3-1.3h-1.6V44z"/>
	<path class="st1" d="M154.7,43.9h4.2v2h-6.5V35.4h2.2V43.9z"/>
	<path class="st1" d="M166,41.5h-4v2.4h4.5v2h-6.7V35.4h6.7v2H162v2h4V41.5z"/>
	<path class="st1" d="M85.9,52c1.2,0,1.8,0.2,2.2,0.4v2.1c-0.6-0.3-1.1-0.4-2-0.4c-1.7,0-2.5,0.7-2.5,3.3c0,2.7,0.8,3.3,2.5,3.3
		c0.8,0,1.3-0.2,2-0.4v2.1c-0.4,0.2-1,0.4-2.2,0.4c-3.1,0-4.5-1.5-4.5-5.4C81.4,53.5,82.8,52,85.9,52z"/>
	<path class="st1" d="M89.2,57.4c0-3.2,0.9-5.4,4.2-5.4s4.2,2.2,4.2,5.4c0,3.2-0.9,5.4-4.2,5.4S89.2,60.7,89.2,57.4z M91.5,57.4
		c0,2.5,0.5,3.4,1.9,3.4s1.9-1,1.9-3.4S94.8,54,93.4,54S91.5,55,91.5,57.4z"/>
	<path class="st1" d="M104.4,62.7l-3.4-6.3l0.1,6.3h-2.2V52.2h2.2l3.4,6.3l-0.1-6.3h2.2v10.5H104.4z"/>
	<path class="st1" d="M115.1,59.4c0,2.6-1.6,3.5-4.1,3.5c-1.1,0-2.5-0.2-3.3-0.6V60c0.5,0.3,1.7,0.8,3.1,0.8c1.6,0,2-0.5,2-1.2
		c0-0.8-0.3-1.1-1.4-1.2c-2.7-0.4-3.7-1.1-3.7-3.2c0-1.9,1.2-3.2,3.9-3.2c1.4,0,2.5,0.3,3,0.5v2.2c-0.6-0.3-1.7-0.6-2.8-0.6
		c-1.2,0-1.8,0.4-1.8,1c0,0.8,0.4,1,1.5,1.1C113.9,56.6,115.1,57.1,115.1,59.4z"/>
	<path class="st1" d="M116.1,59.4v-7.2h2.2v7.1c0,1.4,0.9,1.6,1.7,1.6s1.7-0.2,1.7-1.6v-7.1h2.2v7.2c0,2.9-2.3,3.5-3.9,3.5
		S116.1,62.3,116.1,59.4z"/>
	<path class="st1" d="M131.2,61.4h-2.3l-1.6-5.2l0.1,6.4h-2.2V52.2h2.8l2.1,6.5l2.1-6.5h2.8v10.5h-2.2l0.1-6.4L131.2,61.4z"/>
	<path class="st1" d="M138.5,62.7h-2.2V52.2h3.6c2.8,0,3.8,1.6,3.8,3.4c0,1.8-1,3.4-3.8,3.4h-1.3V62.7z M138.5,57h1.3
		c1.1,0,1.3-0.9,1.3-1.4c0-0.5-0.2-1.4-1.3-1.4h-1.3V57z"/>
	<path class="st1" d="M148.7,54.2v8.5h-2.2v-8.5h-2.5v-2h7.3v2H148.7z"/>
	<path class="st1" d="M152.3,62.7V52.2h2.2v10.5H152.3z"/>
	<path class="st1" d="M155.9,57.4c0-3.2,0.9-5.4,4.2-5.4s4.2,2.2,4.2,5.4c0,3.2-0.9,5.4-4.2,5.4S155.9,60.7,155.9,57.4z M158.1,57.4
		c0,2.5,0.5,3.4,1.9,3.4s1.9-1,1.9-3.4s-0.5-3.4-1.9-3.4S158.1,55,158.1,57.4z"/>
	<path class="st1" d="M171,62.7l-3.4-6.3l0.1,6.3h-2.2V52.2h2.2l3.4,6.3l-0.1-6.3h2.2v10.5H171z"/>
	<path class="st1" d="M81.1,79.5L84,68.9h2.6l2.9,10.6h-2.4l-0.5-2.2H84l-0.5,2.2H81.1z M84.4,75.6h1.8l-0.9-4L84.4,75.6z"/>
	<path class="st1" d="M96,79.5l-3.4-6.3l0.1,6.3h-2.2V69h2.2l3.4,6.3L96,69h2.2v10.5H96z"/>
	<path class="st1" d="M99.4,79.5V69h3.4c3.6,0,4.5,2.3,4.5,5.3c0,3-0.9,5.3-4.5,5.3H99.4z M101.7,77.5h1.2c1.6,0,2.1-1.2,2.1-3.2
		c0-2-0.5-3.2-2.1-3.2h-1.2V77.5z"/>
	<path class="st1" d="M113.5,79.5h-2.2V69h3.6c2.8,0,3.8,1.6,3.8,3.4c0,1.8-1,3.4-3.8,3.4h-1.3V79.5z M113.5,73.8h1.3
		c1.1,0,1.3-0.9,1.3-1.4c0-0.5-0.2-1.4-1.3-1.4h-1.3V73.8z"/>
	<path class="st1" d="M121.6,79.5h-2.2V69h3.6c2.8,0,3.8,1.3,3.8,3.3c0,1.3-0.4,2.3-1.5,2.8l1.9,4.4h-2.6l-1.4-3.9h-1.4V79.5z
		 M121.6,73.5h1.5c1,0,1.1-0.7,1.1-1.2c0-0.6-0.1-1.2-1.1-1.2h-1.5V73.5z"/>
	<path class="st1" d="M127.8,74.2c0-3.2,0.9-5.4,4.2-5.4s4.2,2.2,4.2,5.4c0,3.2-0.9,5.4-4.2,5.4S127.8,77.5,127.8,74.2z M130.1,74.2
		c0,2.5,0.5,3.4,1.9,3.4s1.9-1,1.9-3.4c0-2.5-0.5-3.4-1.9-3.4S130.1,71.8,130.1,74.2z"/>
	<path class="st1" d="M137.4,79.5V69h3.4c3.6,0,4.5,2.3,4.5,5.3c0,3-0.9,5.3-4.5,5.3H137.4z M139.6,77.5h1.2c1.6,0,2.1-1.2,2.1-3.2
		c0-2-0.5-3.2-2.1-3.2h-1.2V77.5z"/>
	<path class="st1" d="M146.3,76.2V69h2.2v7.1c0,1.4,0.9,1.6,1.7,1.6s1.7-0.2,1.7-1.6V69h2.2v7.2c0,2.9-2.3,3.5-3.9,3.5
		S146.3,79.1,146.3,76.2z"/>
	<path class="st1" d="M159.8,68.8c1.2,0,1.8,0.2,2.2,0.4v2.1c-0.6-0.3-1.1-0.4-2-0.4c-1.7,0-2.5,0.7-2.5,3.3c0,2.7,0.8,3.3,2.5,3.3
		c0.8,0,1.3-0.2,2-0.4v2.1c-0.4,0.2-1,0.4-2.2,0.4c-3.1,0-4.5-1.5-4.5-5.4C155.3,70.3,156.8,68.8,159.8,68.8z"/>
	<path class="st1" d="M167.3,71v8.5h-2.2V71h-2.5v-2h7.3v2H167.3z"/>
	<path class="st1" d="M170.8,79.5V69h2.2v10.5H170.8z"/>
	<path class="st1" d="M174.5,74.2c0-3.2,0.9-5.4,4.2-5.4s4.2,2.2,4.2,5.4c0,3.2-0.9,5.4-4.2,5.4S174.5,77.5,174.5,74.2z M176.7,74.2
		c0,2.5,0.5,3.4,1.9,3.4s1.9-1,1.9-3.4c0-2.5-0.5-3.4-1.9-3.4S176.7,71.8,176.7,74.2z"/>
	<path class="st1" d="M189.6,79.5l-3.4-6.3l0.1,6.3H184V69h2.2l3.4,6.3l-0.1-6.3h2.2v10.5H189.6z"/>
</g>
</svg>
