<?xml version="1.0" encoding="utf-8"?>
<!-- Generator: Adobe Illustrator 20.1.0, SVG Export Plug-In . SVG Version: 6.00 Build 0)  -->
<svg version="1.1" id="Layer_1" xmlns="http://www.w3.org/2000/svg" xmlns:xlink="http://www.w3.org/1999/xlink" x="0px" y="0px"
	 width="218px" height="218px" viewBox="0 0 218 218" style="enable-background:new 0 0 218 218;" xml:space="preserve">
<style type="text/css">
	.st0{fill:#00689D;}
	.st1{fill:#FFFFFF;}
	.st2{fill:#F9F9FA;}
</style>
<g>
	<circle class="st0" cx="109.3821716" cy="108.9393158" r="108"/>
</g>
<g>
	<path class="st1" d="M46.0615234,33.5664062v26.8427734H39.340332V40.2456055l-4.6625977,0.1679688v-4.6625977l8.0229492-2.1845703
		H46.0615234z"/>
	<path class="st1" d="M57.6103516,43.1020508c1.4702148-2.0581055,4.1166992-2.6044922,6.5112305-2.6044922
		c7.6455078,0,8.9057617,5.5869141,8.9057617,10.2919922c0,4.6625977-1.3862305,10.2075195-10.6279297,10.2075195
		c-8.7797852,0-11.2158203-4.6625977-11.2158203-14.0302734c0-11.0058594,2.0161133-18.6513672,12.8120117-18.6513672
		c3.612793,0,6.5952148,0.8823242,7.8134766,1.512207v6.2172852c-1.9326172-1.0083008-4.2006836-1.5541992-7.0571289-1.5541992
		C58.7026367,34.4907227,57.8203125,37.8930664,57.6103516,43.1020508z M62.6933594,46.4628906
		c-3.4443359,0-4.746582,1.2602539-4.746582,4.3266602s1.3022461,4.3266602,4.2426758,4.3266602
		s4.284668-1.2602539,4.284668-4.3266602S65.171875,46.4628906,62.6933594,46.4628906z"/>
</g>
<g>
	<path class="st1" d="M79.7856445,33.7177734h-2.2412109V23.2119141h3.5576172c2.8017578,0,3.7680664,1.6391602,3.7680664,3.4321289
		c0,1.8208008-0.9663086,3.4316406-3.7680664,3.4316406h-1.3164062V33.7177734z M79.7856445,28.0585938h1.3305664
		c1.1206055,0,1.3305664-0.8544922,1.3305664-1.4003906c0-0.5463867-0.2099609-1.4008789-1.3305664-1.4008789h-1.3305664V28.0585938
		z"/>
	<path class="st1" d="M91.953125,29.2915039h-4.0478516v2.3813477h4.4541016v2.0449219h-6.6953125V23.2119141h6.6953125v2.0454102
		h-4.4541016v2.0307617h4.0478516V29.2915039z"/>
	<path class="st1" d="M93.1401367,33.7177734L96.0537109,23.15625h2.5771484l2.9135742,10.5615234h-2.3813477l-0.4902344-2.1572266
		h-2.6611328l-0.4902344,2.1572266H93.1401367z M96.4458008,29.7817383h1.7929688l-0.8964844-3.9780273L96.4458008,29.7817383z"/>
	<path class="st1" d="M106.652832,23.0161133c1.21875,0,1.7651367,0.2241211,2.1850586,0.3920898v2.1152344
		c-0.6303711-0.2524414-1.1206055-0.40625-1.9609375-0.40625c-1.7089844,0-2.4931641,0.6865234-2.4931641,3.3476562
		c0,2.6616211,0.7841797,3.3476562,2.4931641,3.3476562c0.840332,0,1.3305664-0.1538086,1.9609375-0.4057617v2.1147461
		c-0.4199219,0.168457-0.9663086,0.3925781-2.1850586,0.3925781c-3.0678711,0-4.5244141-1.4990234-4.5385742-5.4492188
		C102.128418,24.5146484,103.5849609,23.0161133,106.652832,23.0161133z"/>
	<path class="st1" d="M116.3417969,29.2915039h-4.0478516v2.3813477h4.4541016v2.0449219h-6.6953125V23.2119141h6.6953125v2.0454102
		h-4.4541016v2.0307617h4.0478516V29.2915039z"/>
	<path class="st1" d="M117.3037109,35.46875l0.4345703-3.8520508h2.3808594l-1.2880859,3.8520508H117.3037109z"/>
	<path class="st1" d="M123.5205078,31.5185547c0.2236328,0.0981445,0.7285156,0.2382812,1.2041016,0.2382812
		c0.5888672,0,1.0087891-0.3081055,1.0087891-0.9526367v-7.5922852h2.2695312v8.0966797
		c0,1.7368164-0.953125,2.6054688-3.0957031,2.6054688c-0.3222656,0-0.9804688-0.0703125-1.3867188-0.2524414V31.5185547z"/>
	<path class="st1" d="M129.1484375,30.3979492v-7.1860352h2.2412109v7.0742188c0,1.3583984,0.8828125,1.5966797,1.6669922,1.5966797
		s1.6669922-0.2382812,1.6669922-1.5966797v-7.0742188h2.2412109v7.1860352c0,2.8857422-2.3115234,3.5161133-3.9082031,3.5161133
		S129.1484375,33.2836914,129.1484375,30.3979492z"/>
	<path class="st1" d="M145.4345703,30.3701172c0,2.6054688-1.6386719,3.5439453-4.1181641,3.5439453
		c-1.1347656,0-2.5214844-0.1962891-3.2783203-0.6445312V30.972168c0.4902344,0.2802734,1.6669922,0.8125,3.0537109,0.8125
		c1.5830078,0,2.0458984-0.4902344,2.0458984-1.2045898c0-0.7983398-0.3505859-1.0644531-1.4150391-1.2045898
		c-2.6621094-0.3500977-3.6845703-1.1347656-3.6845703-3.1938477c0-1.9047852,1.1630859-3.1655273,3.9365234-3.1655273
		c1.4287109,0,2.4794922,0.2519531,2.9697266,0.5180664v2.1713867c-0.5742188-0.2802734-1.7373047-0.5605469-2.8017578-0.5605469
		c-1.1621094,0-1.8066406,0.3642578-1.8066406,1.0366211c0,0.7563477,0.40625,0.9946289,1.4990234,1.1484375
		C144.1601562,27.6523438,145.4345703,28.1289062,145.4345703,30.3701172z"/>
	<path class="st1" d="M150.4296875,25.2573242v8.4604492h-2.2412109v-8.4604492h-2.5351562v-2.0454102h7.3125v2.0454102H150.4296875
		z"/>
	<path class="st1" d="M153.9707031,33.7177734V23.2119141h2.2412109v10.5058594H153.9707031z"/>
	<path class="st1" d="M162.1191406,23.0161133c1.21875,0,1.765625,0.2241211,2.1855469,0.3920898v2.1152344
		c-0.6298828-0.2524414-1.1201172-0.40625-1.9609375-0.40625c-1.7089844,0-2.4931641,0.6865234-2.4931641,3.3476562
		c0,2.6616211,0.7841797,3.3476562,2.4931641,3.3476562c0.8408203,0,1.3310547-0.1538086,1.9609375-0.4057617v2.1147461
		c-0.4199219,0.168457-0.9667969,0.3925781-2.1855469,0.3925781c-3.0673828,0-4.5244141-1.4990234-4.5380859-5.4492188
		C157.5947266,24.5146484,159.0517578,23.0161133,162.1191406,23.0161133z"/>
	<path class="st1" d="M171.8085938,29.2915039h-4.0478516v2.3813477h4.4541016v2.0449219h-6.6953125V23.2119141h6.6953125v2.0454102
		h-4.4541016v2.0307617h4.0478516V29.2915039z"/>
	<path class="st1" d="M77.1801758,50.5175781L80.09375,39.9560547h2.5771484l2.9135742,10.5615234H83.203125l-0.4902344-2.1572266
		h-2.6611328l-0.4902344,2.1572266H77.1801758z M80.4858398,46.581543h1.7929688l-0.8964844-3.9780273L80.4858398,46.581543z"/>
	<path class="st1" d="M92.0512695,50.5175781l-3.3896484-6.2753906l0.0556641,6.2753906h-2.2128906V40.0117188h2.2128906
		l3.3901367,6.2753906l-0.0561523-6.2753906h2.2128906v10.5058594H92.0512695z"/>
	<path class="st1" d="M95.5483398,50.5175781V40.0117188h3.4038086c3.5576172,0,4.4824219,2.2695312,4.4824219,5.2529297
		c0,2.9838867-0.9248047,5.2529297-4.4824219,5.2529297H95.5483398z M97.7895508,48.4726562h1.2045898
		c1.6386719,0,2.1152344-1.1767578,2.1152344-3.2080078c0-2.0170898-0.4765625-3.2075195-2.1152344-3.2075195h-1.2045898V48.4726562
		z"/>
	<path class="st1" d="M114.6347656,47.1699219c0,2.6054688-1.6386719,3.5439453-4.1181641,3.5439453
		c-1.1352539,0-2.5219727-0.1962891-3.2783203-0.6445312v-2.2973633c0.4902344,0.2802734,1.6669922,0.8125,3.0537109,0.8125
		c1.5830078,0,2.0449219-0.4902344,2.0449219-1.2045898c0-0.7983398-0.3496094-1.0644531-1.4140625-1.2045898
		c-2.6621094-0.3500977-3.6845703-1.1347656-3.6845703-3.1938477c0-1.9047852,1.1625977-3.1655273,3.9365234-3.1655273
		c1.4287109,0,2.4794922,0.2519531,2.9697266,0.5180664v2.1713867c-0.5742188-0.2802734-1.7373047-0.5605469-2.8017578-0.5605469
		c-1.1630859,0-1.8071289,0.3642578-1.8071289,1.0366211c0,0.7563477,0.4057617,0.9946289,1.4995117,1.1484375
		C113.3603516,44.4521484,114.6347656,44.9287109,114.6347656,47.1699219z"/>
	<path class="st1" d="M119.6298828,42.0571289v8.4604492h-2.2412109v-8.4604492h-2.5351562v-2.0454102h7.3125v2.0454102H119.6298828
		z"/>
	<path class="st1" d="M125.2578125,50.5175781h-2.2412109V40.0117188h3.5712891
		c2.8300781,0,3.7548828,1.2890625,3.7548828,3.2919922c0,1.3027344-0.3642578,2.2973633-1.4707031,2.8295898l1.8623047,4.3842773
		h-2.6191406l-1.4150391-3.9360352h-1.4423828V50.5175781z M125.2578125,44.550293h1.5263672
		c0.9951172,0,1.1210938-0.6723633,1.1210938-1.246582c0-0.5883789-0.1259766-1.246582-1.1210938-1.246582h-1.5263672V44.550293z"/>
	<path class="st1" d="M131.4160156,45.2646484c0-3.2075195,0.8828125-5.4487305,4.1884766-5.4487305
		s4.1884766,2.2412109,4.1884766,5.4487305c0,3.2080078-0.8828125,5.4492188-4.1884766,5.4492188
		S131.4160156,48.4726562,131.4160156,45.2646484z M133.6855469,45.2646484c0,2.4511719,0.5322266,3.4179688,1.9189453,3.4179688
		s1.9189453-0.9667969,1.9189453-3.4179688s-0.5322266-3.4179688-1.9189453-3.4179688
		S133.6855469,42.8134766,133.6855469,45.2646484z"/>
	<path class="st1" d="M146.5527344,50.5175781l-3.3896484-6.2753906l0.0556641,6.2753906h-2.2128906V40.0117188h2.2128906
		l3.3896484,6.2753906l-0.0556641-6.2753906h2.2128906v10.5058594H146.5527344z"/>
	<path class="st1" d="M149.9794922,45.2646484c0-3.6557617,1.3164062-5.4487305,4.5107422-5.4487305
		c1.4287109,0,2.4648438,0.2099609,3.0957031,0.4902344v2.1850586c-0.8691406-0.3642578-1.8076172-0.5742188-2.6757812-0.5742188
		c-2.0029297,0-2.6611328,0.8964844-2.6611328,3.3476562c0,2.6196289,0.7138672,3.3476562,2.6611328,3.3476562
		c0.2099609,0,0.4902344-0.0136719,0.6445312-0.0419922v-2.1289062h-1.4853516v-2.0029297h3.7265625v5.5610352
		c-0.6308594,0.3920898-1.8632812,0.7143555-3.3759766,0.7143555
		C151.2958984,50.7138672,149.9794922,48.9208984,149.9794922,45.2646484z"/>
	<path class="st1" d="M77.6982422,67.3178711V56.8120117h2.2412109v10.5058594H77.6982422z"/>
	<path class="st1" d="M86.9272461,67.3178711l-3.3896484-6.2753906l0.0556641,6.2753906h-2.2128906V56.8120117h2.2128906
		l3.3901367,6.2753906l-0.0561523-6.2753906h2.2128906v10.5058594H86.9272461z"/>
	<path class="st1" d="M97.6801758,63.9702148c0,2.6054688-1.6391602,3.5439453-4.1181641,3.5439453
		c-1.1347656,0-2.5214844-0.1962891-3.277832-0.6445312v-2.2973633c0.4902344,0.2802734,1.6669922,0.8125,3.0537109,0.8125
		c1.5825195,0,2.0449219-0.4902344,2.0449219-1.2045898c0-0.7983398-0.3500977-1.0644531-1.4145508-1.2045898
		c-2.6616211-0.3500977-3.684082-1.1347656-3.684082-3.1938477c0-1.9047852,1.1625977-3.1655273,3.9360352-3.1655273
		c1.4287109,0,2.4794922,0.2519531,2.9697266,0.5180664v2.1713867c-0.5742188-0.2802734-1.7373047-0.5605469-2.8017578-0.5605469
		c-1.1625977,0-1.8066406,0.3642578-1.8066406,1.0366211c0,0.7563477,0.4057617,0.9946289,1.4985352,1.1489258
		C96.4052734,61.2524414,97.6801758,61.7290039,97.6801758,63.9702148z"/>
	<path class="st1" d="M102.6762695,58.8574219v8.4604492h-2.2412109v-8.4604492h-2.5356445v-2.0454102h7.3120117v2.0454102
		H102.6762695z"/>
	<path class="st1" d="M106.2158203,67.3178711V56.8120117h2.2412109v10.5058594H106.2158203z"/>
	<path class="st1" d="M114.2402344,58.8574219v8.4604492h-2.2412109v-8.4604492h-2.5361328v-2.0454102h7.3125v2.0454102H114.2402344
		z"/>
	<path class="st1" d="M117.5556641,63.9980469v-7.1860352h2.2412109v7.0742188c0,1.3583984,0.8828125,1.5966797,1.6669922,1.5966797
		s1.6669922-0.2382812,1.6669922-1.5966797v-7.0742188h2.2412109v7.1860352c0,2.8857422-2.3115234,3.5161133-3.9082031,3.5161133
		S117.5556641,66.8837891,117.5556641,63.9980469z"/>
	<path class="st1" d="M130.9277344,58.8574219v8.4604492h-2.2412109v-8.4604492h-2.5351562v-2.0454102h7.3125v2.0454102H130.9277344
		z"/>
	<path class="st1" d="M134.4677734,67.3178711V56.8120117h2.2412109v10.5058594H134.4677734z"/>
	<path class="st1" d="M138.0791016,62.0649414c0-3.2075195,0.8828125-5.4487305,4.1884766-5.4487305
		s4.1884766,2.2412109,4.1884766,5.4487305c0,3.2080078-0.8828125,5.4492188-4.1884766,5.4492188
		S138.0791016,65.2729492,138.0791016,62.0649414z M140.3486328,62.0649414c0,2.4516602,0.5322266,3.4179688,1.9189453,3.4179688
		s1.9189453-0.9663086,1.9189453-3.4179688c0-2.4511719-0.5322266-3.4179688-1.9189453-3.4179688
		S140.3486328,59.6137695,140.3486328,62.0649414z"/>
	<path class="st1" d="M153.2167969,67.3178711l-3.3896484-6.2753906l0.0556641,6.2753906h-2.2128906V56.8120117h2.2128906
		l3.3896484,6.2753906l-0.0556641-6.2753906h2.2128906v10.5058594H153.2167969z"/>
	<path class="st1" d="M163.9697266,63.9702148c0,2.6054688-1.6386719,3.5439453-4.1181641,3.5439453
		c-1.1347656,0-2.5214844-0.1962891-3.2783203-0.6445312v-2.2973633c0.4902344,0.2802734,1.6669922,0.8125,3.0537109,0.8125
		c1.5830078,0,2.0458984-0.4902344,2.0458984-1.2045898c0-0.7983398-0.3505859-1.0644531-1.4150391-1.2045898
		c-2.6621094-0.3500977-3.6845703-1.1347656-3.6845703-3.1938477c0-1.9047852,1.1630859-3.1655273,3.9365234-3.1655273
		c1.4287109,0,2.4794922,0.2519531,2.9697266,0.5180664v2.1713867c-0.5742188-0.2802734-1.7373047-0.5605469-2.8017578-0.5605469
		c-1.1621094,0-1.8066406,0.3642578-1.8066406,1.0366211c0,0.7563477,0.40625,0.9946289,1.4990234,1.1489258
		C162.6953125,61.2524414,163.9697266,61.7290039,163.9697266,63.9702148z"/>
</g>
<g>
	<path class="st1" d="M126.9741364,72.416832c0,0-1.0471115,1.3680954-0.7329788,2.7361832
		c0.3141403,1.3680954,1.780098,2.1047516,1.780098,2.1047516s1.0471191-1.3680878,0.7329712-2.7361755
		C128.5448151,73.2587357,126.9741364,72.416832,126.9741364,72.416832"/>
	<path class="st1" d="M125.2987442,80.3096619c0,0,1.0471191-1.3680878,0.7329788-2.7361755
		c-0.3141403-1.3680954-1.7800903-2.1047516-1.7800903-2.1047516s-1.0471191,1.3680878-0.7329788,2.7361755
		S125.2987442,80.3096619,125.2987442,80.3096619"/>
	<path class="st1" d="M129.5919189,78.8363342c0,0,1.0471191,1.1576157,2.3036652,0.9471436
		c1.2565308-0.1052399,2.1989441-1.3680954,2.1989441-1.3680954s-1.0471191-1.1576157-2.3036499-0.9471436
		C130.534317,77.5734787,129.5919189,78.8363342,129.5919189,78.8363342"/>
	<path class="st1" d="M131.3720245,72.9430237c-1.0471191,1.0523758-0.8377075,2.8414154-0.8377075,2.8414154
		s1.7801056,0.1052399,2.8272095-0.8419037c1.0471191-1.0523758,0.8377075-2.8414154,0.8377075-2.8414154
		S132.4191284,71.8906479,131.3720245,72.9430237"/>
	<path class="st1" d="M129.1730804,82.9406052c1.256546,0.1052399,2.408371-0.9471359,2.408371-0.9471359
		s-0.8376923-1.2628479-2.094223-1.4733353c-1.256546-0.1052322-2.408371,0.9471436-2.408371,0.9471436
		S127.9165344,82.8353653,129.1730804,82.9406052"/>
	<path class="st1" d="M130.2201996,103.0410156h-9.3193283c-0.7329788,0-1.3612518,0.631424-1.3612518,1.3680954
		c0,0.7366638,0.6282654,1.3680878,1.3612518,1.3680878h9.3193283c0.7329865,0,1.3612518-0.631424,1.3612518-1.3680878
		C131.5814514,103.6724396,130.953186,103.0410156,130.2201996,103.0410156"/>
	<path class="st1" d="M130.2201996,117.5638123h-9.3193283c-0.7329788,0-1.3612518,0.6314316-1.3612518,1.3680954
		s0.6282654,1.3680954,1.3612518,1.3680954h9.3193283c0.7329865,0,1.3612518-0.631424,1.3612518-1.3680954
		C131.5814362,118.1952515,130.953186,117.5638123,130.2201996,117.5638123"/>
	<path class="st1" d="M88.5450058,99.7786484c-0.2094193-0.1052399-0.4188538-0.1052399-0.628273-0.2104721
		C87.9167252,99.6734009,88.126152,99.7786484,88.5450058,99.7786484"/>
	<path class="st1" d="M129.9060669,106.6190948h-8.5863495c-0.4188461,0-0.7329712,0.3157196-0.7329712,0.7366638v2.6309433
		l-5.6544266,0.631424l-8.1675034-0.2104721v-5.0514145c1.0471115-0.1052322,2.1989365-0.315712,3.2460556-0.631424
		c7.853363-2.2099915,9.633461-7.1561661,9.4240341-11.6813889c-0.2094193-4.6304626,1.2565384-6.4194946,3.4554901-7.2614059
		c0.6282654-0.2104721,1.2565308-0.4209518,1.7800903-0.4209518c0,1.1576157,0.2094193,2.4204712,0.7329788,3.9990387
		c0.2094193,0,0.4188385,0,0.5235596,0c-0.5235596-1.5785675-0.7329788-2.9466553-0.7329788-4.1042709
		c1.0471115-0.1052399,1.8848114-0.1052399,1.8848114-0.1052399s-0.7329788-0.4209518-1.780098-1.2628479
		c0.3141403-2.2099915,1.6753922-3.5780869,3.0366287-4.946167c0.7329865-0.7366638,1.4659576-1.5785675,2.0942383-2.4204712
		l-0.4188385-0.3157196c-0.5235596,0.8419037-1.256546,1.6837997-1.9895172,2.4204712
		c-1.2565384,1.3680954-2.6177902,2.7361832-3.0366287,4.8409348c-0.4188461-0.4209518-0.8376999-0.8419037-1.3612518-1.3680954
		c-1.9895248-2.2099915-4.5026016-0.631424-8.0627899,2.7361832c-3.5601959,3.3675995-8.0627823,3.472847-12.4606781-1.0523758
		c-5.7591324-5.9985504-10.8899994-5.8933182-14.3454742-5.5776062c2.408371,1.0523758,3.2460556,3.2623672,4.3978806,8.9452057
		c1.2565384,5.8933105,4.3978806,8.6294937,8.7957687,8.9452057c-1.9895172,0.3157196-2.5130768,0.631424-5.7591324,2.8414154
		c-2.5130768,1.7890396-6.0732727,1.1576157-7.5392303,0.8419113c2.6177902,0.8419037,5.75914,3.5780792,8.5863495,4.630455
		c1.6753769,0.5261917,3.3507614,0.9471436,5.130867,1.0523834v4.8409348l-15.4973145-0.3157196v3.3676071l28.2721176-0.6314316
		l5.6544266,0.6314316v2.6309433c0,0.4209518,0.3141327,0.7366562,0.7329788,0.7366562h8.5863342
		c0.4188385,0,0.7329865-0.315712,0.7329865-0.7366562v-8.6294861
		C130.6390381,106.9348068,130.3249054,106.6190948,129.9060669,106.6190948z M103.5187531,105.5667191
		c0.6282654,0,1.2565308,0,1.8848114,0v4.8409348h-1.8848114V105.5667191z"/>
	<path class="st1" d="M85.8224945,112.7228851c0,0.7366562-0.5235519,1.2628479-1.0471115,1.2628479h-0.6282654
		c-0.628273,0-1.0471191-0.5261917-1.0471191-1.2628479v-2.3152313c0-0.7366562,0.5235596-1.2628479,1.0471191-1.2628479h0.6282654
		c0.6282654,0,1.0471115,0.5261917,1.0471115,1.2628479V112.7228851z"/>
</g>
<g>
	<g>
		<path class="st2" d="M5.7999969,131.3499908H4.1999969v-7.5h2.5c2,0,2.6999998,1.1999969,2.6999998,2.3999939
			c0,1.3000031-0.6999998,2.3999939-2.6999998,2.3999939H5.7999969V131.3499908z M5.7999969,127.2499847h0.9000001
			c0.8000002,0,0.8999996-0.6000061,0.8999996-1s-0.1000004-1-0.9000001-1H5.7999969V127.2499847z"/>
	</g>
	<g>
		<path class="st2" d="M11.5999966,131.3499908H9.9999962v-7.5h2.5c2,0,2.7000008,0.8999939,2.7000008,2.3999939
			c0,0.8999939-0.2999992,1.6000061-1.1000004,2l1.2999992,3.1000061h-1.6999989l-1-2.8000031h-1L11.5999966,131.3499908
			L11.5999966,131.3499908z M11.5999966,127.0499878h1.1000004c0.6999998,0,0.8000002-0.5,0.8000002-0.8999939
			S13.3999968,125.25,12.6999969,125.25h-1.1000004V127.0499878z"/>
	</g>
	<g>
		<path class="st2" d="M15.9999962,127.5499878c0-2.3000031,0.6000004-3.8999939,3-3.8999939s3,1.6000061,3,3.8999939
			s-0.6000004,3.8999939-3,3.8999939C16.5999966,131.4499969,15.9999962,129.8499908,15.9999962,127.5499878z
			 M17.5999966,127.5499878c0,1.6999969,0.3999996,2.3999939,1.3999996,2.3999939s1.3999996-0.6999969,1.3999996-2.3999939
			s-0.3999996-2.3999939-1.3999996-2.3999939S17.5999966,125.8499908,17.5999966,127.5499878z"/>
	</g>
	<g>
		<path class="st2" d="M27.1999969,130.3499908h-1.6000004l-1.2000008-3.6999969V131.25h-1.6000004v-7.5h2l1.5,4.6999969
			l1.5-4.6999969h2v7.5H28.199995v-4.6000061L27.1999969,130.3499908z"/>
	</g>
	<g>
		<path class="st2" d="M30.6999969,127.5499878c0-2.3000031,0.5999985-3.8999939,3-3.8999939s3,1.6000061,3,3.8999939
			s-0.5999985,3.8999939-3,3.8999939C31.3999977,131.4499969,30.6999969,129.8499908,30.6999969,127.5499878z
			 M32.3999977,127.5499878c0,1.6999969,0.4000015,2.3999939,1.4000015,2.3999939s1.4000015-0.6999969,1.4000015-2.3999939
			s-0.4000015-2.3999939-1.4000015-2.3999939C32.6999969,125.1499939,32.3999977,125.8499908,32.3999977,127.5499878z"/>
	</g>
	<g>
		<path class="st2" d="M40.2999954,125.2499847v6h-1.5999985v-6h-1.7999992v-1.5h5.2000008v1.5H40.2999954z"/>
	</g>
	<g>
		<path class="st2" d="M47.1999969,128.1499939h-2.9000015v1.6999969h3.2000008v1.5h-4.7999992v-7.5h4.7999992v1.5h-3.2000008
			v1.3999939h2.9000015V128.1499939z"/>
	</g>
	<g>
		<path class="st2" d="M51.8999977,131.3499908h-1.5999985v-7.5h2.5c2,0,2.7000008,1.1999969,2.7000008,2.3999939
			c0,1.3000031-0.7000008,2.3999939-2.7000008,2.3999939h-0.9000015V131.3499908L51.8999977,131.3499908z M51.8999977,127.2499847
			h0.9000015c0.7999992,0,1-0.6000061,1-1s-0.2000008-1-1-1h-0.9000015V127.2499847z"/>
	</g>
	<g>
		<path class="st2" d="M60.5999985,128.1499939h-2.9000015v1.6999969h3.2000008v1.5h-4.7999992v-7.5h4.7999992v1.5h-3.2000008
			v1.3999939h2.9000015V128.1499939z"/>
	</g>
	<g>
		<path class="st2" d="M61.3999977,131.3499908l2.1000023-7.5h1.8000031l2.0999985,7.5h-1.7000046l-0.3000031-1.5h-1.9000015
			l-0.3000031,1.5H61.3999977z M63.7999954,128.4499969h1.3000031L64.5,125.6499939L63.7999954,128.4499969z"/>
	</g>
	<g>
		<path class="st2" d="M71.0999985,123.6499939c0.9000015,0,1.3000031,0.1999969,1.5999985,0.3000031v1.5
			c-0.4000015-0.1999969-0.8000031-0.3000031-1.4000015-0.3000031c-1.1999969,0-1.8000031,0.5-1.8000031,2.3999939
			s0.5999985,2.3999939,1.8000031,2.3999939c0.5999985,0,0.9000015-0.1000061,1.4000015-0.3000031v1.5
			c-0.3000031,0.1000061-0.6999969,0.3000031-1.5999985,0.3000031c-2.1999969,0-3.1999969-1.1000061-3.1999969-3.8999939
			C67.8999939,124.7499847,68.8999939,123.6499939,71.0999985,123.6499939z"/>
	</g>
	<g>
		<path class="st2" d="M78,128.1499939h-2.9000015v1.6999969h3.1999969v1.5h-4.8000031v-7.5h4.8000031v1.5h-3.1999969v1.3999939H78
			V128.1499939z"/>
	</g>
	<g>
		<path class="st2" d="M83.5999985,128.2499847h-2.9000015v3.1000061h-1.5999985v-7.5h4.6999969v1.5h-3.0999985v1.6000061H83.5
			v1.2999878H83.5999985z"/>
	</g>
	<g>
		<path class="st2" d="M84.3999939,128.9499969v-5.1000061h1.5999985v5c0,1,0.5999985,1.1000061,1.1999969,1.1000061
			s1.1999969-0.1999969,1.1999969-1.1000061v-5h1.5999985v5.1000061c0,2.1000061-1.5999985,2.5-2.8000031,2.5
			S84.3999939,130.9499969,84.3999939,128.9499969z"/>
	</g>
	<g>
		<path class="st2" d="M92.5,129.8499908h3v1.5h-4.5999985v-7.5H92.5V129.8499908z"/>
	</g>
	<g>
		<path class="st2" d="M97.7999954,131.3499908l2.0999985-7.5h1.8000031l2.0999985,7.5h-1.6999969l-0.3000031-1.5h-1.9000015
			l-0.3000031,1.5H97.7999954z M100.1999969,128.4499969H101.5l-0.5999985-2.8000031L100.1999969,128.4499969z"/>
	</g>
	<g>
		<path class="st2" d="M108.3999939,131.3499908l-2.4000015-4.5v4.5h-1.5999985v-7.5h1.5999985l2.4000015,4.5v-4.5h1.5999985v7.5
			H108.3999939z"/>
	</g>
	<g>
		<path class="st2" d="M110.8999939,131.3499908v-7.5h2.4000015c2.5,0,3.1999969,1.6000061,3.1999969,3.6999969
			s-0.6999969,3.6999969-3.1999969,3.6999969h-2.4000015V131.3499908z M112.5,129.8499908h0.9000015
			c1.1999969,0,1.5-0.8000031,1.5-2.3000031c0-1.3999939-0.3000031-2.3000031-1.5-2.3000031H112.5V129.8499908z"/>
	</g>
	<g>
		<path class="st2" d="M119.5,131.3499908v-7.5h1.5999985v7.5H119.5z"/>
	</g>
	<g>
		<path class="st2" d="M126.0999985,131.3499908l-2.4000015-4.5v4.5h-1.5999985v-7.5h1.5999985l2.4000015,4.5v-4.5h1.5999985v7.5
			H126.0999985z"/>
	</g>
	<g>
		<path class="st2" d="M131.8000031,123.6499939c0.8999939,0,1.3000031,0.1999969,1.6000061,0.3000031v1.5
			c-0.3999939-0.1999969-0.8000031-0.3000031-1.3999939-0.3000031c-1.1999969,0-1.8000031,0.5-1.8000031,2.3999939
			s0.6000061,2.3999939,1.8000031,2.3999939c0.6000061,0,0.8999939-0.1000061,1.3999939-0.3000031v1.5
			c-0.3000031,0.1000061-0.6999969,0.3000031-1.6000061,0.3000031c-2.1999969,0-3.1999969-1.1000061-3.1999969-3.8999939
			C128.5999908,124.7499847,129.5999908,123.6499939,131.8000031,123.6499939z"/>
	</g>
	<g>
		<path class="st2" d="M135.8000031,129.8499908h3v1.5h-4.6000061v-7.5h1.6000061V129.8499908z"/>
	</g>
	<g>
		<path class="st2" d="M139.3999939,128.9499969v-5.1000061H141v5c0,1,0.6000061,1.1000061,1.1999969,1.1000061
			s1.1999969-0.1999969,1.1999969-1.1000061v-5H145v5.1000061c0,2.1000061-1.6000061,2.5-2.8000031,2.5
			S139.3999939,130.9499969,139.3999939,128.9499969z"/>
	</g>
	<g>
		<path class="st2" d="M151,128.9499969c0,1.8999939-1.1999969,2.5-2.8999939,2.5c-0.8000031,0-1.8000031-0.1000061-2.3000031-0.5
			v-1.6000061C146.1999969,129.5499878,147,129.9499969,148,129.9499969c1.1000061,0,1.5-0.3999939,1.5-0.8999939
			c0-0.6000061-0.1999969-0.8000031-1-0.8999939c-1.8999939-0.1999969-2.6000061-0.8000031-2.6000061-2.3000031
			c0-1.3999939,0.8000031-2.3000031,2.8000031-2.3000031c1,0,1.8000031,0.1999969,2.1000061,0.3999939v1.5
			c-0.3999939-0.1999969-1.1999969-0.3999939-2-0.3999939S147.5,125.3500061,147.5,125.75
			c0,0.5,0.3000031,0.6999969,1.1000061,0.8000031C150.0999908,126.9499969,151,127.3499908,151,128.9499969z"/>
	</g>
	<g>
		<path class="st2" d="M151.8999939,131.3499908v-7.5H153.5v7.5H151.8999939z"/>
	</g>
	<g>
		<path class="st2" d="M160.1999969,123.8499908l-2.1000061,7.5h-1.8000031l-2.1000061-7.5h1.6999969l1.3000031,5.6999969
			l1.3000031-5.6999969H160.1999969z"/>
	</g>
	<g>
		<path class="st2" d="M165.3999939,128.1499939H162.5v1.6999969h3.1999969v1.5h-4.8000031v-7.5h4.8000031v1.5H162.5v1.3999939
			h2.8999939V128.1499939L165.3999939,128.1499939z"/>
	</g>
	<g>
		<path class="st2" d="M173.6999969,128.9499969c0,1.8999939-1.1999969,2.5-2.8999939,2.5
			c-0.8000031,0-1.8000031-0.1000061-2.3000031-0.5v-1.6000061c0.3999939,0.1999969,1.1999969,0.6000061,2.1999969,0.6000061
			c1.1000061,0,1.5-0.3999939,1.5-0.8999939c0-0.6000061-0.1999969-0.8000031-1-0.8999939
			c-1.8999939-0.1999969-2.6000061-0.8000031-2.6000061-2.3000031c0-1.3999939,0.8000031-2.3000031,2.8000031-2.3000031
			c1,0,1.8000031,0.1999969,2.1000061,0.3999939v1.5c-0.3999939-0.1999969-1.1999969-0.3999939-2-0.3999939
			s-1.3000031,0.3000031-1.3000031,0.6999969c0,0.5,0.3000031,0.6999969,1.1000061,0.8000031
			C172.8000031,126.9499969,173.6999969,127.3499908,173.6999969,128.9499969z"/>
	</g>
	<g>
		<path class="st2" d="M174.3999939,127.5499878c0-2.3000031,0.6000061-3.8999939,3-3.8999939s3,1.6000061,3,3.8999939
			s-0.6000061,3.8999939-3,3.8999939C175,131.4499969,174.3999939,129.8499908,174.3999939,127.5499878z M176,127.5499878
			c0,1.6999969,0.3999939,2.3999939,1.3999939,2.3999939s1.3999939-0.6999969,1.3999939-2.3999939
			s-0.3999939-2.3999939-1.3999939-2.3999939S176,125.8499908,176,127.5499878z"/>
	</g>
	<g>
		<path class="st2" d="M184.3999939,123.6499939c0.8999939,0,1.3000031,0.1999969,1.6000061,0.3000031v1.5
			c-0.3999939-0.1999969-0.8000031-0.3000031-1.3999939-0.3000031c-1.1999969,0-1.8000031,0.5-1.8000031,2.3999939
			s0.6000061,2.3999939,1.8000031,2.3999939c0.6000061,0,0.8999939-0.1000061,1.3999939-0.3000031v1.5
			c-0.3000031,0.1000061-0.6999969,0.3000031-1.6000061,0.3000031c-2.1999969,0-3.1999969-1.1000061-3.1999969-3.8999939
			C181.1999969,124.7499847,182.3000031,123.6499939,184.3999939,123.6499939z"/>
	</g>
	<g>
		<path class="st2" d="M187,131.3499908v-7.5h1.6000061v7.5H187z"/>
	</g>
	<g>
		<path class="st2" d="M194.0999908,128.1499939h-2.8999939v1.6999969h3.1999969v1.5h-4.8000031v-7.5h4.8000031v1.5h-3.1999969
			v1.3999939h2.8999939V128.1499939z"/>
	</g>
	<g>
		<path class="st2" d="M198.3000031,125.2499847v6h-1.6000061v-6h-1.8000031v-1.5h5.1999969v1.5H198.3000031z"/>
	</g>
	<g>
		<path class="st2" d="M200.8000031,131.3499908v-7.5h1.6000061v7.5H200.8000031z"/>
	</g>
	<g>
		<path class="st2" d="M208,128.1499939h-2.8999939v1.6999969h3.1999969v1.5H203.5v-7.5h4.8000031v1.5h-3.1999969v1.3999939H208
			V128.1499939z"/>
	</g>
	<g>
		<path class="st2" d="M214.1999969,128.9499969c0,1.8999939-1.1999969,2.5-2.8999939,2.5
			c-0.8000031,0-1.8000031-0.1000061-2.3000031-0.5v-1.6000061c0.3999939,0.1999969,1.1999969,0.6000061,2.1999969,0.6000061
			c1.1000061,0,1.5-0.3999939,1.5-0.8999939c0-0.6000061-0.1999969-0.8000031-1-0.8999939
			c-1.8999939-0.1999969-2.6000061-0.8000031-2.6000061-2.3000031c0-1.3999939,0.8000031-2.3000031,2.8000031-2.3000031
			c1,0,1.8000031,0.1999969,2.1000061,0.3999939v1.5c-0.3999939-0.1999969-1.1999969-0.3999939-2-0.3999939
			s-1.3000031,0.3000031-1.3000031,0.6999969c0,0.5,0.3000031,0.6999969,1.1000061,0.8000031
			C213.3000031,126.9499969,214.1999969,127.3499908,214.1999969,128.9499969z"/>
	</g>
	<g>
		<path class="st2" d="M18.1999969,142.2499847h-2.7999992v3.1000061h-1.6000004v-7.5h4.6999989v1.5h-3.1000004v1.6000061h2.7999992
			C18.199995,140.9499969,18.199995,142.2499847,18.1999969,142.2499847z"/>
	</g>
	<g>
		<path class="st2" d="M19.0999966,141.5499878c0-2.3000031,0.6000004-3.8999939,3-3.8999939s3,1.6000061,3,3.8999939
			c0,2.3000031-0.6000004,3.8999939-3,3.8999939C19.6999969,145.4499969,19.0999966,143.8499908,19.0999966,141.5499878z
			 M20.6999969,141.5499878c0,1.6999969,0.3999996,2.3999939,1.3999996,2.3999939s1.3999996-0.6999969,1.3999996-2.3999939
			s-0.3999996-2.3999939-1.3999996-2.3999939S20.6999969,139.8499908,20.6999969,141.5499878z"/>
	</g>
	<g>
		<path class="st2" d="M27.4999962,145.3499908h-1.6000004v-7.5h2.5c2,0,2.6999989,0.8999939,2.6999989,2.3999939
			c0,0.8999939-0.2999992,1.6000061-1,2l1.2999992,3.1000061h-1.8999996l-1-2.8000031h-1L27.4999962,145.3499908
			L27.4999962,145.3499908z M27.4999962,141.0499878h1.1000004c0.7000008,0,0.7999992-0.5,0.7999992-0.8999939
			S29.2999954,139.25,28.5999966,139.25h-1.1000004V141.0499878z"/>
	</g>
	<g>
		<path class="st2" d="M39.0999985,142.9499969c0,1.8999939-1.2000008,2.5-2.9000015,2.5
			c-0.7999992,0-1.7999992-0.1000061-2.2999992-0.5v-1.6000061c0.2999992,0.1999969,1.2000008,0.6000061,2.2000008,0.6000061
			c1.0999985,0,1.5-0.3999939,1.5-0.8999939c0-0.6000061-0.2000008-0.8000031-1-0.8999939
			C34.6999969,141.9500122,34,141.3500061,34,139.8500061c0-1.3999939,0.7999992-2.3000031,2.7999992-2.3000031
			c1,0,1.7999992,0.1999969,2.0999985,0.3999939v1.5c-0.4000015-0.1999969-1.2000008-0.3999939-2-0.3999939
			s-1.2999992,0.3000031-1.2999992,0.6999969c0,0.5,0.2999992,0.6999969,1.0999985,0.8000031
			C38.1999969,140.9499969,39.0999985,141.3499908,39.0999985,142.9499969z"/>
	</g>
	<g>
		<path class="st2" d="M39.8999977,142.9499969v-5.1000061h1.5999985v5c0,1,0.5999985,1.1000061,1.2000008,1.1000061
			s1.2000008-0.1999969,1.2000008-1.1000061v-5h1.5999985v5.1000061c0,2.1000061-1.5999985,2.5-2.7999992,2.5
			S39.8999977,144.9499969,39.8999977,142.9499969z"/>
	</g>
	<g>
		<path class="st2" d="M51.4999962,142.9499969c0,1.8999939-1.2000008,2.5-2.9000015,2.5
			c-0.7999992,0-1.7999992-0.1000061-2.2999992-0.5v-1.6000061c0.2999992,0.1999969,1.2000008,0.6000061,2.2000008,0.6000061
			c1.0999985,0,1.5-0.3999939,1.5-0.8999939c0-0.6000061-0.2000008-0.8000031-1-0.8999939
			c-1.9000015-0.1999969-2.5999985-0.8000031-2.5999985-2.3000031c0-1.3999939,0.7999992-2.3000031,2.7999992-2.3000031
			c1,0,1.7999992,0.1999969,2.0999985,0.3999939v1.5c-0.4000015-0.1999969-1.2000008-0.3999939-2-0.3999939
			s-1.2999992,0.3000031-1.2999992,0.6999969c0,0.5,0.2999992,0.6999969,1.0999985,0.8000031
			C50.5999985,140.9499969,51.4999962,141.3499908,51.4999962,142.9499969z"/>
	</g>
	<g>
		<path class="st2" d="M55.0999985,139.2499847v6H53.5v-6h-1.8000031v-1.5h5.2000008v1.5H55.0999985z"/>
	</g>
	<g>
		<path class="st2" d="M56.3999977,145.3499908l2.0999985-7.5h1.7999992l2.0999985,7.5h-1.6999969l-0.2999992-1.5h-1.9000015
			l-0.2999992,1.5H56.3999977z M58.7999954,142.4499969h1.2999992l-0.5999985-2.8000031L58.7999954,142.4499969z"/>
	</g>
	<g>
		<path class="st2" d="M63.1999969,145.3499908v-7.5h1.5999985v7.5H63.1999969z"/>
	</g>
	<g>
		<path class="st2" d="M69.7999954,145.3499908l-2.4000015-4.5v4.5h-1.5999985v-7.5h1.5999985l2.4000015,4.5v-4.5h1.5999985v7.5
			H69.7999954z"/>
	</g>
	<g>
		<path class="st2" d="M72,145.3499908l2.0999985-7.5h1.8000031l2.0999985,7.5h-1.6999969l-0.3000031-1.5h-1.9000015l-0.4000015,1.5
			H72z M74.3999939,142.4499969h1.3000031l-0.5999985-2.8000031L74.3999939,142.4499969z"/>
	</g>
	<g>
		<path class="st2" d="M78.6999969,137.8499908h2.6999969c1.9000015,0,2.4000015,0.8999939,2.4000015,2.1000061
			c0,0.6000061-0.3000031,1.1999969-0.8000031,1.3999939c0.5999985,0.1999969,1,0.6999969,1,1.6999969
			c0,1.3000031-0.5999985,2.3000031-2.5999985,2.3000031h-2.6999969V137.8499908L78.6999969,137.8499908z M81.2999954,139.1499939
			h-1V140.75h1c0.6999969,0,0.8000031-0.5,0.8000031-0.8000031S82,139.1499939,81.2999954,139.1499939z M80.2999954,143.9499969
			h1.0999985c0.6999969,0,0.9000015-0.3999939,0.9000015-0.8999939c0-0.6000061-0.3000031-0.8999939-0.9000015-0.8999939h-1.0999985
			V143.9499969z"/>
	</g>
	<g>
		<path class="st2" d="M86.2999954,143.8499908h3v1.5h-4.5999985v-7.5h1.5999985V143.8499908z"/>
	</g>
	<g>
		<path class="st2" d="M94.3999939,142.1499939h-2.9000015v1.6999969h3.2000046v1.5h-4.8000031v-7.5h4.8000031v1.5H91.5v1.3999939
			h2.9000015C94.4000015,140.7499847,94.4000015,142.1499939,94.3999939,142.1499939z"/>
	</g>
	<g>
		<path class="st2" d="M97.5,145.3499908v-7.5h2.4000015c2.5,0,3.1999969,1.6000061,3.1999969,3.6999969
			s-0.6999969,3.6999969-3.1999969,3.6999969H97.5V145.3499908z M99.0999985,143.8499908H100
			c1.1999969,0,1.5-0.8000031,1.5-2.3000031c0-1.3999939-0.3000031-2.3000031-1.5-2.3000031h-0.9000015V143.8499908z"/>
	</g>
	<g>
		<path class="st2" d="M108.3999939,142.1499939h-2.9000015v1.6999969h3.1999969v1.5h-4.8000031v-7.5h4.8000031v1.5h-3.1999969
			v1.3999939h2.9000015V142.1499939z"/>
	</g>
	<g>
		<path class="st2" d="M115.2999954,137.8499908l-2.0999985,7.5h-1.8000031l-2.0999985-7.5h1.6999969l1.3000031,5.6999969
			l1.3000031-5.6999969H115.2999954z"/>
	</g>
	<g>
		<path class="st2" d="M120.3999939,142.1499939h-2.9000015v1.6999969h3.1999969v1.5h-4.8000031v-7.5h4.8000031v1.5h-3.1999969
			v1.3999939h2.9000015V142.1499939z"/>
	</g>
	<g>
		<path class="st2" d="M123.0999985,143.8499908h3v1.5H121.5v-7.5h1.5999985V143.8499908z"/>
	</g>
	<g>
		<path class="st2" d="M126.1999969,141.5499878c0-2.3000031,0.6000061-3.8999939,3-3.8999939s3,1.6000061,3,3.8999939
			c0,2.3000031-0.6000061,3.8999939-3,3.8999939C126.8000031,145.4499969,126.1999969,143.8499908,126.1999969,141.5499878z
			 M127.8000031,141.5499878c0,1.6999969,0.3999939,2.3999939,1.3999939,2.3999939s1.3999939-0.6999969,1.3999939-2.3999939
			s-0.3999939-2.3999939-1.3999939-2.3999939S127.8000031,139.8499908,127.8000031,141.5499878z"/>
	</g>
	<g>
		<path class="st2" d="M134.5999908,145.3499908h-1.6000061v-7.5h2.5c2,0,2.6999969,1.1999969,2.6999969,2.3999939
			c0,1.3000031-0.6999969,2.3999939-2.6999969,2.3999939h-0.8999939V145.3499908z M134.5999908,141.2499847h0.8999939
			c0.8000031,0,0.8999939-0.6000061,0.8999939-1s-0.1000061-1-0.8999939-1h-0.8999939V141.2499847z"/>
	</g>
	<g>
		<path class="st2" d="M143.1999969,144.3499908h-1.6000061l-1.1999969-3.6999969L140.5,145.25h-1.6000061v-7.5h2l1.5,4.6999969
			l1.5-4.6999969h2v7.5h-1.6000061l0.1000061-4.6000061L143.1999969,144.3499908z"/>
	</g>
	<g>
		<path class="st2" d="M151.3000031,142.1499939h-2.8999939v1.6999969h3.1999969v1.5h-4.8000031v-7.5h4.8000031v1.5h-3.1999969
			v1.3999939h2.8999939V142.1499939z"/>
	</g>
	<g>
		<path class="st2" d="M156.3000031,145.3499908l-2.3999939-4.5v4.5h-1.6000061v-7.5h1.6000061l2.3999939,4.5v-4.5h1.6000061v7.5
			H156.3000031z"/>
	</g>
	<g>
		<path class="st2" d="M161.8999939,139.2499847v6h-1.6000061v-6h-1.8000031v-1.5h5.1999969v1.5H161.8999939z"/>
	</g>
	<g>
		<path class="st2" d="M163,146.5499878l0.3000031-2.6999969H165l-0.8999939,2.6999969H163z"/>
	</g>
	<g>
		<path class="st2" d="M169.3999939,145.3499908h-1.6000061v-7.5h2.5c2,0,2.6999969,1.1999969,2.6999969,2.3999939
			c0,1.3000031-0.6999969,2.3999939-2.6999969,2.3999939h-0.8999939V145.3499908z M169.3999939,141.2499847h0.8999939
			c0.8000031,0,0.8999939-0.6000061,0.8999939-1s-0.1000061-1-0.8999939-1h-0.8999939V141.2499847z"/>
	</g>
	<g>
		<path class="st2" d="M175.1999969,145.3499908h-1.6000061v-7.5h2.5c2,0,2.6999969,0.8999939,2.6999969,2.3999939
			c0,0.8999939-0.3000031,1.6000061-1,2l1.3000031,3.1000061h-1.8999939l-1-2.8000031h-1V145.3499908L175.1999969,145.3499908z
			 M175.1999969,141.0499878h1.1000061c0.6999969,0,0.8000031-0.5,0.8000031-0.8999939S177,139.25,176.3000031,139.25h-1.1000061
			V141.0499878z"/>
	</g>
	<g>
		<path class="st2" d="M179.5999908,141.5499878c0-2.3000031,0.6000061-3.8999939,3-3.8999939s3,1.6000061,3,3.8999939
			c0,2.3000031-0.6000061,3.8999939-3,3.8999939C180.3000031,145.4499969,179.5999908,143.8499908,179.5999908,141.5499878z
			 M181.3000031,141.5499878c0,1.6999969,0.3999939,2.3999939,1.3999939,2.3999939s1.3999939-0.6999969,1.3999939-2.3999939
			s-0.3999939-2.3999939-1.3999939-2.3999939C181.5999908,139.1499939,181.3000031,139.8499908,181.3000031,141.5499878z"/>
	</g>
	<g>
		<path class="st2" d="M192,137.8499908l-2.1000061,7.5h-1.8000031l-2.1000061-7.5h1.6999969l1.3000031,5.6999969
			l1.3000031-5.6999969H192z"/>
	</g>
	<g>
		<path class="st2" d="M192.8000031,145.3499908v-7.5h1.6000061v7.5H192.8000031z"/>
	</g>
	<g>
		<path class="st2" d="M195.3999939,145.3499908v-7.5h2.3999939c2.5,0,3.1999969,1.6000061,3.1999969,3.6999969
			s-0.6999969,3.6999969-3.1999969,3.6999969h-2.3999939V145.3499908z M197,143.8499908h0.8999939
			c1.1999969,0,1.5-0.8000031,1.5-2.3000031c0-1.3999939-0.3000031-2.3000031-1.5-2.3000031H197V143.8499908z"/>
	</g>
	<g>
		<path class="st2" d="M206.3999939,142.1499939H203.5v1.6999969h3.1999969v1.5h-4.8000031v-7.5h4.8000031v1.5H203.5v1.3999939
			h2.8999939V142.1499939z"/>
	</g>
	<g>
		<path class="st2" d="M22.8999977,159.3499908l2.1000004-7.5h1.7999992l2.1000004,7.5h-1.7000008l-0.3999996-1.5h-1.8999996
			l-0.3999996,1.5H22.8999977z M25.1999969,156.4499969h1.2999992l-0.6000004-2.8000031L25.1999969,156.4499969z"/>
	</g>
	<g>
		<path class="st2" d="M32.4999962,151.6499939c0.9000015,0,1.2999992,0.1999969,1.5999985,0.3000031v1.5
			c-0.5-0.1999969-0.7999992-0.3000031-1.4000015-0.3000031c-1.2000008,0-1.7999992,0.5-1.7999992,2.3999939
			s0.5999985,2.3999939,1.7999992,2.3999939c0.5999985,0,0.9000015-0.1000061,1.4000015-0.3000031v1.5
			c-0.2999992,0.1000061-0.7000008,0.3000031-1.5999985,0.3000031c-2.2000008,0-3.2000008-1.1000061-3.2000008-3.8999939
			C29.2999973,152.7499847,30.2999973,151.6499939,32.4999962,151.6499939z"/>
	</g>
	<g>
		<path class="st2" d="M38.0999985,151.6499939c0.9000015,0,1.2999992,0.1999969,1.5999985,0.3000031v1.5
			c-0.5-0.1999969-0.7999992-0.3000031-1.4000015-0.3000031c-1.2000008,0-1.7999992,0.5-1.7999992,2.3999939
			s0.5999985,2.3999939,1.7999992,2.3999939c0.5999985,0,0.9000015-0.1000061,1.4000015-0.3000031v1.5
			c-0.2999992,0.1000061-0.7000008,0.3000031-1.5999985,0.3000031c-2.2000008,0-3.2000008-1.1000061-3.2000008-3.8999939
			C34.8999977,152.7499847,35.8999977,151.6499939,38.0999985,151.6499939z"/>
	</g>
	<g>
		<path class="st2" d="M45.0999985,156.1499939h-2.9000015v1.6999969h3.2000008v1.5h-4.7999992v-7.5h4.7999992v1.5h-3.2000008
			v1.3999939h2.9000015V156.1499939z"/>
	</g>
	<g>
		<path class="st2" d="M51.2999954,156.9499969c0,1.8999939-1.2000008,2.5-2.9000015,2.5
			c-0.7999992,0-1.7999992-0.1000061-2.2999992-0.5v-1.6000061c0.2999992,0.1999969,1.2000008,0.6000061,2.2000008,0.6000061
			c1.0999985,0,1.5-0.3999939,1.5-0.8999939c0-0.6000061-0.2000008-0.8000031-1-0.8999939
			c-1.9000015-0.1999969-2.5999985-0.8000031-2.5999985-2.3000031c0-1.3999939,0.7999992-2.3000031,2.7999992-2.3000031
			c1,0,1.7999992,0.1999969,2.0999985,0.3999939v1.5c-0.4000015-0.1999969-1.2000008-0.3999939-2-0.3999939
			s-1.2999992,0.3000031-1.2999992,0.6999969c0,0.5,0.2999992,0.6999969,1.0999985,0.8000031
			C50.3999977,154.9499969,51.2999954,155.3499908,51.2999954,156.9499969z"/>
	</g>
	<g>
		<path class="st2" d="M57.2999954,156.9499969c0,1.8999939-1.2000008,2.5-2.9000015,2.5
			c-0.7999992,0-1.7999992-0.1000061-2.2999992-0.5v-1.6000061c0.2999992,0.1999969,1.2000008,0.6000061,2.2000008,0.6000061
			c1.0999985,0,1.5-0.3999939,1.5-0.8999939c0-0.6000061-0.2000008-0.8000031-1-0.8999939
			c-1.9000015-0.1999969-2.5999985-0.8000031-2.5999985-2.3000031c0-1.3999939,0.7999992-2.3000031,2.7999992-2.3000031
			c1,0,1.7999992,0.1999969,2.0999985,0.3999939v1.5c-0.4000015-0.1999969-1.2000008-0.3999939-2-0.3999939
			s-1.2999992,0.3000031-1.2999992,0.6999969c0,0.5,0.2999992,0.6999969,1.0999985,0.8000031
			C56.3999977,154.9499969,57.2999954,155.3499908,57.2999954,156.9499969z"/>
	</g>
	<g>
		<path class="st2" d="M62.8999939,153.2499847v6h-1.5999985v-6h-1.7999992v-1.5h5.2000008v1.5H62.8999939z"/>
	</g>
	<g>
		<path class="st2" d="M64.8999939,155.5499878c0-2.3000031,0.5999985-3.8999939,3-3.8999939s3,1.6000061,3,3.8999939
			s-0.5999985,3.8999939-3,3.8999939C65.5999985,159.4499969,64.8999939,157.8499908,64.8999939,155.5499878z
			 M66.5999985,155.5499878c0,1.6999969,0.4000015,2.3999939,1.4000015,2.3999939s1.4000015-0.6999969,1.4000015-2.3999939
			S69,153.1499939,68,153.1499939C66.8999939,153.1499939,66.5999985,153.8499908,66.5999985,155.5499878z"/>
	</g>
	<g>
		<path class="st2" d="M73.3999939,157.7499847c0.1999969,0.1000061,0.5,0.1999969,0.9000015,0.1999969
			s0.6999969-0.1999969,0.6999969-0.6999969v-5.3999939h1.5999985v5.8000031c0,1.1999969-0.6999969,1.8999939-2.1999969,1.8999939
			c-0.1999969,0-0.6999969-0.1000061-1-0.1999969C73.3999939,159.2499847,73.3999939,157.7499847,73.3999939,157.7499847z"/>
	</g>
	<g>
		<path class="st2" d="M77.3999939,156.9499969v-5.1000061h1.5999985v5c0,1,0.5999985,1.1000061,1.1999969,1.1000061
			s1.1999969-0.1999969,1.1999969-1.1000061v-5h1.5999985v5.1000061c0,2.1000061-1.5999985,2.5-2.8000031,2.5
			S77.3999939,158.9499969,77.3999939,156.9499969z"/>
	</g>
	<g>
		<path class="st2" d="M89,156.9499969c0,1.8999939-1.1999969,2.5-2.9000015,2.5c-0.8000031,0-1.8000031-0.1000061-2.3000031-0.5
			v-1.6000061c0.3000031,0.1999969,1.1999969,0.6000061,2.1999969,0.6000061c1.0999985,0,1.5-0.3999939,1.5-0.8999939
			c0-0.6000061-0.1999969-0.8000031-1-0.8999939c-1.9000015-0.1999969-2.5999985-0.8000031-2.5999985-2.3000031
			c0-1.3999939,0.8000031-2.3000031,2.8000031-2.3000031c1,0,1.8000031,0.1999969,2.0999985,0.3999939v1.5
			c-0.4000015-0.1999969-1.1999969-0.3999939-2-0.3999939s-1.3000031,0.3000031-1.3000031,0.6999969
			c0,0.5,0.3000031,0.6999969,1.0999985,0.8000031C88.0999985,154.9499969,89,155.3499908,89,156.9499969z"/>
	</g>
	<g>
		<path class="st2" d="M92.5999985,153.2499847v6H91v-6h-1.8000031v-1.5h5.1999969v1.5H92.5999985z"/>
	</g>
	<g>
		<path class="st2" d="M95.1999969,159.3499908v-7.5h1.5999985v7.5H95.1999969z"/>
	</g>
	<g>
		<path class="st2" d="M101,151.6499939c0.9000015,0,1.3000031,0.1999969,1.5999985,0.3000031v1.5
			c-0.4000015-0.1999969-0.8000031-0.3000031-1.4000015-0.3000031c-1.1999969,0-1.8000031,0.5-1.8000031,2.3999939
			s0.5999985,2.3999939,1.8000031,2.3999939c0.5999985,0,0.9000015-0.1000061,1.4000015-0.3000031v1.5
			c-0.3000031,0.1000061-0.6999969,0.3000031-1.5999985,0.3000031c-2.1999969,0-3.1999969-1.1000061-3.1999969-3.8999939
			C97.6999969,152.7499847,98.7999954,151.6499939,101,151.6499939z"/>
	</g>
	<g>
		<path class="st2" d="M107.8999939,156.1499939h-2.9000015v1.6999969h3.1999969v1.5h-4.8000031v-7.5h4.8000031v1.5h-3.1999969
			v1.3999939h2.9000015V156.1499939z"/>
	</g>
	<g>
		<path class="st2" d="M115.3999939,156.2499847h-2.8000031v3.1000061h-1.5999985v-7.5h4.6999969v1.5h-3.0999985v1.6000061
			h2.8000031V156.2499847z"/>
	</g>
	<g>
		<path class="st2" d="M116.2999954,155.5499878c0-2.3000031,0.5999985-3.8999939,3-3.8999939s3,1.6000061,3,3.8999939
			s-0.5999985,3.8999939-3,3.8999939S116.2999954,157.8499908,116.2999954,155.5499878z M117.8999939,155.5499878
			c0,1.6999969,0.4000015,2.3999939,1.4000015,2.3999939s1.4000015-0.6999969,1.4000015-2.3999939
			s-0.4000015-2.3999939-1.4000015-2.3999939S117.8999939,153.8499908,117.8999939,155.5499878z"/>
	</g>
	<g>
		<path class="st2" d="M124.7999954,159.3499908h-1.5999985v-7.5h2.5c2,0,2.6999969,0.8999939,2.6999969,2.3999939
			c0,0.8999939-0.3000031,1.6000061-1,2l1.3000031,3.1000061h-1.8999939l-1-2.8000031h-1
			C124.7999954,156.4499969,124.7999954,159.3499908,124.7999954,159.3499908z M124.7999954,155.0499878h1.0999985
			c0.6999969,0,0.8000031-0.5,0.8000031-0.8999939S126.5999985,153.25,125.8999939,153.25h-1.0999985V155.0499878z"/>
	</g>
	<g>
		<path class="st2" d="M131,159.3499908l2.1000061-7.5h1.8000031l2.1000061,7.5h-1.6999969l-0.3999939-1.5h-1.8999939
			l-0.3000336,1.5H131z M133.3000031,156.4499969h1.3000031L134,153.6499939L133.3000031,156.4499969z"/>
	</g>
	<g>
		<path class="st2" d="M139.1999969,157.8499908h3v1.5h-4.6000061v-7.5h1.6000061V157.8499908L139.1999969,157.8499908z"/>
	</g>
	<g>
		<path class="st2" d="M144.3999939,157.8499908h3v1.5h-4.6000061v-7.5h1.6000061V157.8499908z"/>
	</g>
	<g>
		<path class="st2" d="M149.8000031,159.3499908l2.1000061-7.5h1.8000031l2.1000061,7.5h-1.6999969l-0.3999939-1.5h-1.8999939
			l-0.3999939,1.5H149.8000031z M152.0999908,156.4499969h1.3000031l-0.6000061-2.8000031L152.0999908,156.4499969z"/>
	</g>
	<g>
		<path class="st2" d="M160.3999939,159.3499908l-2.3999939-4.5v4.5h-1.6000061v-7.5H158l2.3999939,4.5v-4.5H162v7.5H160.3999939z"
			/>
	</g>
	<g>
		<path class="st2" d="M162.8999939,159.3499908v-7.5h2.3999939c2.5,0,3.1999969,1.6000061,3.1999969,3.6999969
			s-0.6999969,3.6999969-3.1999969,3.6999969h-2.3999939V159.3499908z M164.5,157.8499908h0.8999939
			c1.1999969,0,1.5-0.8000031,1.5-2.3000031c0-1.3999939-0.3000031-2.3000031-1.5-2.3000031H164.5V157.8499908z"/>
	</g>
	<g>
		<path class="st2" d="M171.3000031,151.8499908H174c1.8999939,0,2.3999939,0.8999939,2.3999939,2.1000061
			c0,0.6000061-0.3000031,1.1999969-0.8000031,1.3999939c0.6000061,0.1999969,1,0.6999969,1,1.6999969
			c0,1.3000031-0.6000061,2.3000031-2.6000061,2.3000031h-2.6999969L171.3000031,151.8499908L171.3000031,151.8499908z
			 M173.8999939,153.1499939h-1V154.75h1c0.6999969,0,0.8000031-0.5,0.8000031-0.8000031
			S174.5999908,153.1499939,173.8999939,153.1499939z M172.8999939,157.9499969H174
			c0.6999969,0,0.8999939-0.3999939,0.8999939-0.8999939c0-0.6000061-0.3000031-0.8999939-0.8999939-0.8999939h-1.1000061
			V157.9499969z"/>
	</g>
	<g>
		<path class="st2" d="M177.3000031,156.9499969v-5.1000061h1.6000061v5c0,1,0.6000061,1.1000061,1.1999969,1.1000061
			c0.6000061,0,1.1999969-0.1999969,1.1999969-1.1000061v-5h1.6000061v5.1000061c0,2.1000061-1.6000061,2.5-2.8000031,2.5
			C178.8999939,159.4499969,177.3000031,158.9499969,177.3000031,156.9499969z"/>
	</g>
	<g>
		<path class="st2" d="M183.8000031,159.3499908v-7.5h1.6000061v7.5H183.8000031z"/>
	</g>
	<g>
		<path class="st2" d="M188.0999908,157.8499908h3v1.5h-4.6000061v-7.5h1.6000061V157.8499908L188.0999908,157.8499908z"/>
	</g>
	<g>
		<path class="st2" d="M191.6999969,159.3499908v-7.5h2.3999939c2.5,0,3.1999969,1.6000061,3.1999969,3.6999969
			s-0.6999969,3.6999969-3.1999969,3.6999969h-2.3999939V159.3499908z M193.3000031,157.8499908h0.8999939
			c1.1999969,0,1.5-0.8000031,1.5-2.3000031c0-1.3999939-0.3000031-2.3000031-1.5-2.3000031h-0.8999939V157.8499908z"/>
	</g>
	<g>
		<path class="st2" d="M45.8999977,170.1499939h-2.9000015v1.6999969h3.2000008v1.5h-4.7999992v-7.5h4.7999992v1.5h-3.2000008
			v1.3999939h2.9000015V170.1499939z"/>
	</g>
	<g>
		<path class="st2" d="M51.4999962,170.2499847h-2.7999992v3.1000061h-1.5999985v-7.5h4.7000008v1.5h-3.1000023v1.6000061h2.7999992
			C51.4999962,168.8499908,51.4999962,170.2499847,51.4999962,170.2499847z"/>
	</g>
	<g>
		<path class="st2" d="M56.7999954,170.2499847h-2.7999992v3.1000061h-1.5999985v-7.5h4.7000008v1.5H54v1.6000061h2.7999992
			C56.7999954,168.8499908,56.7999954,170.2499847,56.7999954,170.2499847z"/>
	</g>
	<g>
		<path class="st2" d="M62.2999954,170.1499939h-2.9000015v1.6999969h3.2000008v1.5h-4.7999992v-7.5h4.7999992v1.5h-3.2000008
			v1.3999939h2.9000015V170.1499939z"/>
	</g>
	<g>
		<path class="st2" d="M66.5999985,165.6499939c0.9000015,0,1.3000031,0.1999969,1.5999985,0.3000031v1.5
			c-0.4000015-0.1999969-0.8000031-0.3000031-1.4000015-0.3000031c-1.1999969,0-1.8000031,0.5-1.8000031,2.3999939
			s0.5999985,2.3999939,1.8000031,2.3999939c0.5999985,0,0.9000015-0.1000061,1.4000015-0.3000031v1.5
			c-0.3000031,0.1000061-0.6999969,0.3000031-1.5999985,0.3000031c-2.1999969,0-3.1999969-1.1000061-3.1999969-3.8999939
			C63.2999954,166.7499847,64.3999939,165.6499939,66.5999985,165.6499939z"/>
	</g>
	<g>
		<path class="st2" d="M71.8999939,167.2499847v6h-1.5999985v-6h-1.8000031v-1.5h5.2000046v1.5H71.8999939z"/>
	</g>
	<g>
		<path class="st2" d="M74.3999939,173.3499908v-7.5h1.5999985v7.5H74.3999939z"/>
	</g>
	<g>
		<path class="st2" d="M82.7999954,165.8499908l-2.0999985,7.5h-1.8000031l-2.0999985-7.5h1.6999969l1.3000031,5.6999969
			l1.3000031-5.6999969H82.7999954z"/>
	</g>
	<g>
		<path class="st2" d="M87.8999939,170.1499939h-2.9000015v1.6999969h3.1999969v1.5h-4.8000031v-7.5h4.8000031v1.5h-3.1999969
			v1.3999939h2.9000015V170.1499939z"/>
	</g>
	<g>
		<path class="st2" d="M88.5999985,174.5499878l0.3000031-2.6999969h1.6999969l-0.9000015,2.6999969H88.5999985z"/>
	</g>
	<g>
		<path class="st2" d="M93.1999969,173.3499908l2.0999985-7.5h1.8000031l2.0999985,7.5H97.5l-0.3000031-1.5h-1.9000015
			l-0.3000031,1.5H93.1999969z M95.5999985,170.4499969h1.3000031l-0.5999985-2.8000031L95.5999985,170.4499969z"/>
	</g>
	<g>
		<path class="st2" d="M102.7999954,165.6499939c0.9000015,0,1.3000031,0.1999969,1.5999985,0.3000031v1.5
			c-0.4000015-0.1999969-0.8000031-0.3000031-1.4000015-0.3000031c-1.1999969,0-1.8000031,0.5-1.8000031,2.3999939
			s0.5999985,2.3999939,1.8000031,2.3999939c0.5999985,0,0.9000015-0.1000061,1.4000015-0.3000031v1.5
			c-0.3000031,0.1000061-0.6999969,0.3000031-1.5999985,0.3000031c-2.1999969,0-3.1999969-1.1000061-3.1999969-3.8999939
			C99.5999985,166.7499847,100.6999969,165.6499939,102.7999954,165.6499939z"/>
	</g>
	<g>
		<path class="st2" d="M108.5,165.6499939c0.9000015,0,1.3000031,0.1999969,1.5999985,0.3000031v1.5
			c-0.4000015-0.1999969-0.8000031-0.3000031-1.4000015-0.3000031c-1.1999969,0-1.8000031,0.5-1.8000031,2.3999939
			s0.5999985,2.3999939,1.8000031,2.3999939c0.5999985,0,0.9000015-0.1000061,1.4000015-0.3000031v1.5
			c-0.3000031,0.1000061-0.6999969,0.3000031-1.5999985,0.3000031c-2.1999969,0-3.1999969-1.1000061-3.1999969-3.8999939
			C105.1999969,166.7499847,106.2999954,165.6499939,108.5,165.6499939z"/>
	</g>
	<g>
		<path class="st2" d="M110.7999954,169.5499878c0-2.3000031,0.5999985-3.8999939,3-3.8999939s3,1.6000061,3,3.8999939
			s-0.5999985,3.8999939-3,3.8999939C111.5,173.4499969,110.7999954,171.8499908,110.7999954,169.5499878z M112.5,169.5499878
			c0,1.6999969,0.4000015,2.3999939,1.4000015,2.3999939s1.4000015-0.6999969,1.4000015-2.3999939
			s-0.4000015-2.3999939-1.4000015-2.3999939C112.7999954,167.1499939,112.5,167.8499908,112.5,169.5499878z"/>
	</g>
	<g>
		<path class="st2" d="M117.5999985,170.9499969v-5.1000061h1.5999985v5c0,1,0.5999985,1.1000061,1.1999969,1.1000061
			s1.1999969-0.1999969,1.1999969-1.1000061v-5h1.5999985v5.1000061c0,2.1000061-1.5999985,2.5-2.8000031,2.5
			S117.5999985,172.9499969,117.5999985,170.9499969z"/>
	</g>
	<g>
		<path class="st2" d="M128.0999908,173.3499908l-2.4000015-4.5v4.5h-1.5999985v-7.5h1.5999985l2.4000015,4.5v-4.5h1.6000061v7.5
			H128.0999908z"/>
	</g>
	<g>
		<path class="st2" d="M133.6999969,167.2499847v6h-1.6000061v-6h-1.8000031v-1.5h5.1999969v1.5H133.6999969z"/>
	</g>
	<g>
		<path class="st2" d="M135,173.3499908l2.1000061-7.5h1.8000031l2.1000061,7.5h-1.6999969l-0.3999939-1.5h-1.8999939
			l-0.3000336,1.5H135z M137.3999939,170.4499969h1.3000031l-0.6000061-2.8000031L137.3999939,170.4499969z"/>
	</g>
	<g>
		<path class="st2" d="M141.6999969,165.8499908h2.6999969c1.8999939,0,2.3999939,0.8999939,2.3999939,2.1000061
			c0,0.6000061-0.3000031,1.1999969-0.8000031,1.3999939c0.6000061,0.1999969,1,0.6999969,1,1.6999969
			c0,1.3000031-0.6000061,2.3000031-2.6000061,2.3000031h-2.6999817V165.8499908L141.6999969,165.8499908z M144.3000031,167.1499939
			h-1V168.75h1c0.6999969,0,0.8000031-0.5,0.8000031-0.8000031C145.0999908,167.6499939,145,167.1499939,144.3000031,167.1499939z
			 M143.3000031,171.9499969h1.1000061c0.6999969,0,0.8999939-0.3999939,0.8999939-0.8999939
			c0-0.6000061-0.3000031-0.8999939-0.8999939-0.8999939h-1.1000061V171.9499969z"/>
	</g>
	<g>
		<path class="st2" d="M149.3000031,171.8499908h3v1.5h-4.6000061v-7.5h1.6000061V171.8499908L149.3000031,171.8499908z"/>
	</g>
	<g>
		<path class="st2" d="M157.3999939,170.1499939H154.5v1.6999969h3.1999969v1.5h-4.8000031v-7.5h4.8000031v1.5H154.5v1.3999939
			h2.8999939V170.1499939z"/>
	</g>
	<g>
		<path class="st2" d="M160.1999969,173.3499908l2.1000061-7.5h1.8000031l2.1000061,7.5h-1.6999969l-0.3999939-1.5h-1.8999939
			l-0.3999939,1.5H160.1999969z M162.5999908,170.4499969h1.3000031l-0.6000061-2.8000031L162.5999908,170.4499969z"/>
	</g>
	<g>
		<path class="st2" d="M170.8000031,173.3499908l-2.3999939-4.5v4.5h-1.6000061v-7.5h1.6000061l2.3999939,4.5v-4.5h1.6000061v7.5
			H170.8000031z"/>
	</g>
	<g>
		<path class="st2" d="M173.3000031,173.3499908v-7.5h2.3999939c2.5,0,3.1999969,1.6000061,3.1999969,3.6999969
			c0,2.1000061-0.6999969,3.6999969-3.1999969,3.6999969h-2.3999939V173.3499908z M174.8999939,171.8499908h0.8999939
			c1.1999969,0,1.5-0.8000031,1.5-2.3000031c0-1.3999939-0.3000031-2.3000031-1.5-2.3000031h-0.8999939V171.8499908z"/>
	</g>
	<g>
		<path class="st2" d="M54.8999977,187.3499908v-7.5h1.5999985v7.5H54.8999977z"/>
	</g>
	<g>
		<path class="st2" d="M61.4999962,187.3499908l-2.4000015-4.5v4.5h-1.5999985v-7.5h1.5999985l2.4000015,4.5v-4.5h1.6000023v7.5
			H61.4999962z"/>
	</g>
	<g>
		<path class="st2" d="M67.1999969,179.6499939c0.9000015,0,1.3000031,0.1999969,1.5999985,0.3000031v1.5
			c-0.4000015-0.1999969-0.8000031-0.3000031-1.4000015-0.3000031c-1.1999969,0-1.8000031,0.5-1.8000031,2.3999939
			s0.5999985,2.3999939,1.8000031,2.3999939c0.5999985,0,0.9000015-0.1000061,1.4000015-0.3000031v1.5
			c-0.3000031,0.1000061-0.6999969,0.3000031-1.5999985,0.3000031C65,187.4499817,64,186.3499756,64,183.5499878
			C64,180.7499847,65,179.6499939,67.1999969,179.6499939z"/>
	</g>
	<g>
		<path class="st2" d="M71.1999969,185.8499908h3v1.5h-4.5999985v-7.5h1.5999985V185.8499908z"/>
	</g>
	<g>
		<path class="st2" d="M74.7999954,184.9499969v-5.1000061h1.5999985v5c0,1,0.5999985,1.1000061,1.1999969,1.1000061
			s1.1999969-0.1999969,1.1999969-1.1000061v-5h1.5999985v5.1000061c0,2.1000061-1.5999985,2.5-2.8000031,2.5
			S74.7999954,186.9499969,74.7999954,184.9499969z"/>
	</g>
	<g>
		<path class="st2" d="M86.3999939,184.9499969c0,1.8999939-1.1999969,2.5-2.9000015,2.5
			c-0.8000031,0-1.8000031-0.1000061-2.3000031-0.5v-1.6000061c0.3000031,0.1999969,1.1999969,0.6000061,2.1999969,0.6000061
			c1.0999985,0,1.5-0.3999939,1.5-0.8999939c0-0.6000061-0.1999969-0.8000031-1-0.8999939
			c-1.9000015-0.1999969-2.5999985-0.8000031-2.5999985-2.3000031c0-1.3999939,0.8000031-2.3000031,2.8000031-2.3000031
			c1,0,1.8000031,0.1999969,2.0999985,0.3999939v1.5c-0.4000015-0.1999969-1.1999969-0.3999939-2-0.3999939
			s-1.3000031,0.3000031-1.3000031,0.6999969c0,0.5,0.3000031,0.6999969,1.0999985,0.8000031
			C85.5,182.9499969,86.3999939,183.3499908,86.3999939,184.9499969z"/>
	</g>
	<g>
		<path class="st2" d="M87.2999954,187.3499908v-7.5h1.5999985v7.5H87.2999954z"/>
	</g>
	<g>
		<path class="st2" d="M95.6999969,179.8499908l-2.0999985,7.5h-1.9000015l-2.0999985-7.5h1.6999969l1.3000031,5.6999969
			l1.3000031-5.6999969H95.6999969z"/>
	</g>
	<g>
		<path class="st2" d="M100.7999954,184.1499939h-2.9000015v1.6999969h3.1999969v1.5h-4.8000031v-7.5h4.8000031v1.5h-3.1999969
			v1.3999939h2.9000015V184.1499939z"/>
	</g>
	<g>
		<path class="st2" d="M104,187.3499908v-7.5h1.5999985v7.5H104z"/>
	</g>
	<g>
		<path class="st2" d="M110.5999985,187.3499908l-2.4000015-4.5v4.5h-1.5v-7.5h1.5999985l2.4000015,4.5v-4.5h1.5999985v7.5
			H110.5999985z"/>
	</g>
	<g>
		<path class="st2" d="M118.2999954,184.9499969c0,1.8999939-1.1999969,2.5-2.9000015,2.5
			c-0.8000031,0-1.8000031-0.1000061-2.3000031-0.5v-1.6000061c0.3000031,0.1999969,1.1999969,0.6000061,2.1999969,0.6000061
			c1.0999985,0,1.5-0.3999939,1.5-0.8999939c0-0.6000061-0.1999969-0.8000031-1-0.8999939
			c-1.9000015-0.1999969-2.5999985-0.8000031-2.5999985-2.3000031c0-1.3999939,0.8000031-2.3000031,2.8000031-2.3000031
			c1,0,1.8000031,0.1999969,2.0999985,0.3999939v1.5c-0.4000015-0.1999969-1.1999969-0.3999939-2-0.3999939
			s-1.3000031,0.3000031-1.3000031,0.6999969c0,0.5,0.3000031,0.6999969,1.0999985,0.8000031
			C117.3999939,182.9499969,118.2999954,183.3499908,118.2999954,184.9499969z"/>
	</g>
	<g>
		<path class="st2" d="M121.8999939,181.2499847v6h-1.5999985v-6h-1.8000031v-1.5h5.1999969v1.5H121.8999939z"/>
	</g>
	<g>
		<path class="st2" d="M124.3999939,187.3499908v-7.5h1.5999985v7.5H124.3999939z"/>
	</g>
	<g>
		<path class="st2" d="M130.0999908,181.2499847v6h-1.6000061v-6h-1.7999878v-1.5h5.1999969v1.5H130.0999908z"/>
	</g>
	<g>
		<path class="st2" d="M132.5,184.9499969v-5.1000061h1.6000061v5c0,1,0.6000061,1.1000061,1.1999969,1.1000061
			S136.5,185.75,136.5,184.8499908v-5h1.6000061v5.1000061c0,2.1000061-1.6000061,2.5-2.8000031,2.5
			S132.5,186.9499969,132.5,184.9499969z"/>
	</g>
	<g>
		<path class="st2" d="M142.0999908,181.2499847v6h-1.6000061v-6h-1.8000031v-1.5h5.1999969v1.5H142.0999908z"/>
	</g>
	<g>
		<path class="st2" d="M144.5999908,187.3499908v-7.5h1.6000061v7.5H144.5999908z"/>
	</g>
	<g>
		<path class="st2" d="M147.1999969,183.5499878c0-2.3000031,0.6000061-3.8999939,3-3.8999939s3,1.6000061,3,3.8999939
			c0,2.3000031-0.6000061,3.8999939-3,3.8999939C147.8000031,187.4499969,147.1999969,185.8499908,147.1999969,183.5499878z
			 M148.8000031,183.5499878c0,1.6999969,0.3999939,2.3999939,1.3999939,2.3999939s1.3999939-0.6999969,1.3999939-2.3999939
			s-0.3999939-2.3999939-1.3999939-2.3999939S148.8000031,181.8499908,148.8000031,183.5499878z"/>
	</g>
	<g>
		<path class="st2" d="M158,187.3499908l-2.3999939-4.5v4.5H154v-7.5h1.6000061l2.3999939,4.5v-4.5h1.6000061v7.5H158z"/>
	</g>
	<g>
		<path class="st2" d="M165.6999969,184.9499969c0,1.8999939-1.1999969,2.5-2.8999939,2.5
			c-0.8000031,0-1.8000031-0.1000061-2.3000031-0.5v-1.6000061c0.3000031,0.1999969,1.1999969,0.6000061,2.1999969,0.6000061
			c1.1000061,0,1.5-0.3999939,1.5-0.8999939c0-0.6000061-0.1999969-0.8000031-1-0.8999939
			c-1.8999939-0.1999969-2.6000061-0.8000031-2.6000061-2.3000031c0-1.3999939,0.8000031-2.3000031,2.8000031-2.3000031
			c1,0,1.8000031,0.1999969,2.1000061,0.3999939v1.5c-0.3999939-0.1999969-1.1999969-0.3999939-2-0.3999939
			s-1.3000031,0.3000031-1.3000031,0.6999969c0,0.5,0.3000031,0.6999969,1.1000061,0.8000031
			C164.6999969,182.9499969,165.6999969,183.3499908,165.6999969,184.9499969z"/>
	</g>
	<g>
		<path class="st2" d="M77.6999969,201.3499908l2.0999985-7.5h1.8000031l2.0999985,7.5H82l-0.3000031-1.5h-2l-0.3000031,1.5
			H77.6999969z M80,198.4499969h1.3000031l-0.5999985-2.8000031L80,198.4499969z"/>
	</g>
	<g>
		<path class="st2" d="M86.5,195.2499847v6h-1.5999985v-6h-1.8000031v-1.5h5.1999969v1.5H86.5z"/>
	</g>
	<g>
		<path class="st2" d="M90.2999954,201.3499908l2.0999985-7.5h1.8000031l2.0999985,7.5h-1.6999969l-0.3000031-1.5h-1.9000015
			l-0.3000031,1.5H90.2999954z M92.6999969,198.4499969H94l-0.5999985-2.8000031L92.6999969,198.4499969z"/>
	</g>
	<g>
		<path class="st2" d="M98.5999985,199.8499908h3v1.5H97v-7.5h1.5999985V199.8499908z"/>
	</g>
	<g>
		<path class="st2" d="M103.7999954,199.8499908h3v1.5h-4.5999985v-7.5h1.5999985V199.8499908z"/>
	</g>
	<g>
		<path class="st2" d="M111,199.8499908h3v1.5h-4.5999985v-7.5H111V199.8499908z"/>
	</g>
	<g>
		<path class="st2" d="M119.0999985,198.1499939h-2.9000015v1.6999969h3.1999969v1.5h-4.8000031v-7.5h4.8000031v1.5h-3.1999969
			v1.3999939h2.9000015V198.1499939z"/>
	</g>
	<g>
		<path class="st2" d="M125.8999939,193.8499908l-2.0999985,7.5h-1.8000031l-2.0999985-7.5h1.6999969l1.3000031,5.6999969
			l1.3000031-5.6999969H125.8999939z"/>
	</g>
	<g>
		<path class="st2" d="M131.0999908,198.1499939h-2.8999939v1.6999969h3.1999969v1.5h-4.8000031v-7.5h4.8000031v1.5h-3.1999969
			v1.3999939h2.8999939V198.1499939z"/>
	</g>
	<g>
		<path class="st2" d="M133.8000031,199.8499908h3v1.5h-4.6000061v-7.5h1.6000061V199.8499908z"/>
	</g>
	<g>
		<path class="st2" d="M142.5999908,198.9499969c0,1.8999939-1.1999969,2.5-2.8999939,2.5
			c-0.8000031,0-1.8000031-0.1000061-2.3000031-0.5v-1.6000061c0.3999939,0.1999969,1.1999969,0.6000061,2.1999969,0.6000061
			c1.1000061,0,1.5-0.3999939,1.5-0.8999939c0-0.6000061-0.1999969-0.8000031-1-0.8999939
			c-1.8999939-0.1999969-2.6000061-0.8000031-2.6000061-2.3000031c0-1.3999939,0.8000031-2.3000031,2.8000031-2.3000031
			c1,0,1.8000031,0.1999969,2.1000061,0.3999939v1.5c-0.3999939-0.1999969-1.1999969-0.3999939-2-0.3999939
			s-1.3000031,0.3000031-1.3000031,0.6999969c0,0.5,0.3000031,0.6999969,1.1000061,0.8000031
			C141.5999908,196.9499969,142.5999908,197.3499908,142.5999908,198.9499969z"/>
	</g>
</g>
</svg>
