<?xml version="1.0" encoding="utf-8"?>
<!-- Generator: Adobe Illustrator 16.0.0, SVG Export Plug-In . SVG Version: 6.00 Build 0)  -->
<!DOCTYPE svg PUBLIC "-//W3C//DTD SVG 1.1//EN" "http://www.w3.org/Graphics/SVG/1.1/DTD/svg11.dtd">
<svg version="1.1" id="Layer_1" xmlns="http://www.w3.org/2000/svg" xmlns:xlink="http://www.w3.org/1999/xlink" x="0px" y="0px"
	 width="218px" height="218px" viewBox="0 0 218 218" enable-background="new 0 0 218 218" xml:space="preserve">
<g>
	<circle fill="#DD1768" cx="109.382" cy="108.939" r="108"/>
</g>
<g>
	<path fill="#FFFFFF" d="M55.356,32.457v31.952h-8V40.408l-5.55,0.2v-5.55l9.55-2.601H55.356z"/>
	<path fill="#FFFFFF" d="M61.205,48.758c0-12.451,3.75-16.301,12.751-16.301s12.75,3.851,12.75,16.301s-3.75,16.351-12.75,16.351
		S61.205,61.209,61.205,48.758z M69.056,48.758c0,7.4,1.25,9.101,4.9,9.101s4.9-1.7,4.9-9.101c0-7.25-1.25-9.051-4.9-9.051
		S69.056,41.508,69.056,48.758z"/>
</g>
<g>
	<path fill="#FFFFFF" d="M96.197,44.718h-2.561V32.713h4.082c3.233,0,4.29,1.473,4.29,3.762c0,1.488-0.417,2.625-1.681,3.233
		l2.129,5.01h-2.993l-1.617-4.498h-1.648V44.718z M96.197,37.899h1.745c1.137,0,1.281-0.768,1.281-1.424
		c0-0.672-0.144-1.425-1.281-1.425h-1.745V37.899z"/>
	<path fill="#FFFFFF" d="M110.503,39.66h-4.626v2.721h5.09v2.337h-7.651V32.713h7.651v2.337h-5.09v2.321h4.626V39.66z"/>
	<path fill="#FFFFFF" d="M112.276,44.718V32.713h3.89c4.065,0,5.122,2.593,5.122,6.002s-1.057,6.002-5.122,6.002H112.276z
		 M114.837,42.381h1.377c1.873,0,2.417-1.345,2.417-3.666c0-2.305-0.544-3.666-2.417-3.666h-1.377V42.381z"/>
	<path fill="#FFFFFF" d="M122.517,40.924v-8.211h2.561v8.083c0,1.552,1.009,1.825,1.905,1.825s1.904-0.272,1.904-1.825v-8.083h2.562
		v8.211c0,3.297-2.641,4.018-4.466,4.018S122.517,44.222,122.517,40.924z"/>
	<path fill="#FFFFFF" d="M137.943,32.489c1.393,0,2.017,0.256,2.497,0.448v2.417c-0.721-0.288-1.281-0.464-2.241-0.464
		c-1.953,0-2.85,0.785-2.85,3.826s0.896,3.826,2.85,3.826c0.96,0,1.521-0.176,2.241-0.464v2.417
		c-0.48,0.192-1.104,0.448-2.497,0.448c-3.506,0-5.171-1.713-5.187-6.227C132.772,34.202,134.438,32.489,137.943,32.489z"/>
	<path fill="#FFFFFF" d="M149.015,39.66h-4.626v2.721h5.091v2.337h-7.651V32.713h7.651v2.337h-5.091v2.321h4.626V39.66z"/>
	<path fill="#FFFFFF" d="M150.788,44.718V32.713h3.89c4.065,0,5.122,2.593,5.122,6.002s-1.057,6.002-5.122,6.002H150.788z
		 M153.349,42.381h1.377c1.873,0,2.417-1.345,2.417-3.666c0-2.305-0.544-3.666-2.417-3.666h-1.377V42.381z"/>
	<path fill="#FFFFFF" d="M93.813,63.918V51.913h2.561v12.005H93.813z"/>
	<path fill="#FFFFFF" d="M104.358,63.918l-3.874-7.171l0.064,7.171H98.02V51.913h2.529l3.874,7.171l-0.064-7.171h2.529v12.005
		H104.358z"/>
	<path fill="#FFFFFF" d="M115.543,58.86h-4.626v2.721h5.09v2.337h-7.651V51.913h7.651v2.337h-5.09v2.321h4.626V58.86z"/>
	<path fill="#FFFFFF" d="M124.951,63.358l2.833,0.576v2.577l-7.555-2.609c-2.337-0.816-2.993-2.929-2.993-5.986
		c0-3.666,0.992-6.227,4.786-6.227c3.777,0,4.786,2.561,4.786,6.227c0,2.433-0.449,4.402-1.857,5.426V63.358z M119.829,57.916
		c0,2.801,0.608,3.906,2.193,3.906c1.584,0,2.192-1.104,2.192-3.906s-0.608-3.906-2.192-3.906
		C120.438,54.01,119.829,55.114,119.829,57.916z"/>
	<path fill="#FFFFFF" d="M128.116,60.125v-8.211h2.562v8.083c0,1.552,1.008,1.825,1.904,1.825s1.904-0.272,1.904-1.825v-8.083h2.562
		v8.211c0,3.297-2.641,4.018-4.466,4.018S128.116,63.422,128.116,60.125z"/>
	<path fill="#FFFFFF" d="M137.7,63.918l3.329-12.069h2.945l3.329,12.069h-2.721l-0.561-2.465h-3.041l-0.561,2.465H137.7z
		 M141.478,59.42h2.049l-1.024-4.545L141.478,59.42z"/>
	<path fill="#FFFFFF" d="M150.917,61.581h4.851v2.337h-7.411V51.913h2.561V61.581z"/>
	<path fill="#FFFFFF" d="M156.853,63.918V51.913h2.562v12.005H156.853z"/>
	<path fill="#FFFFFF" d="M166.021,54.25v9.668h-2.561V54.25h-2.897v-2.337h8.355v2.337H166.021z"/>
	<path fill="#FFFFFF" d="M170.067,63.918V51.913h2.562v12.005H170.067z"/>
	<path fill="#FFFFFF" d="M181.462,58.86h-4.626v2.721h5.091v2.337h-7.651V51.913h7.651v2.337h-5.091v2.321h4.626V58.86z"/>
	<path fill="#FFFFFF" d="M191.526,60.092c0,2.978-1.872,4.05-4.706,4.05c-1.296,0-2.881-0.224-3.745-0.736v-2.625
		c0.561,0.32,1.905,0.928,3.489,0.928c1.809,0,2.337-0.56,2.337-1.376c0-0.913-0.4-1.216-1.616-1.376
		c-3.041-0.4-4.21-1.296-4.21-3.649c0-2.177,1.328-3.618,4.498-3.618c1.633,0,2.833,0.288,3.394,0.592v2.481
		c-0.656-0.32-1.985-0.64-3.201-0.64c-1.329,0-2.065,0.416-2.065,1.185c0,0.864,0.464,1.136,1.713,1.313
		C190.07,56.987,191.526,57.531,191.526,60.092z"/>
</g>
<g enable-background="new    ">
	<path fill="#FFFFFF" d="M39.3,168.5h-1.6V161h2.5c2,0,2.7,0.9,2.7,2.3c0,0.9-0.3,1.601-1,2l1.3,3.101h-1.9l-1-2.801h-1V168.5
		L39.3,168.5z M39.3,164.3h1.1c0.7,0,0.8-0.5,0.8-0.899c0-0.4-0.1-0.9-0.8-0.9h-1.1V164.3z"/>
	<path fill="#FFFFFF" d="M48.2,165.4h-2.9v1.699h3.2v1.5h-4.8v-7.5h4.8v1.5h-3.2v1.4h2.9V165.4z"/>
	<path fill="#FFFFFF" d="M49.3,168.5V161h2.4c2.5,0,3.2,1.6,3.2,3.7c0,2.1-0.7,3.7-3.2,3.7h-2.4V168.5z M50.9,167.1h0.9
		c1.2,0,1.5-0.8,1.5-2.3c0-1.399-0.3-2.3-1.5-2.3h-0.9V167.1z"/>
	<path fill="#FFFFFF" d="M55.7,166.2V161.1h1.6v5c0,1,0.6,1.101,1.2,1.101s1.2-0.2,1.2-1.101v-5h1.6v5.101c0,2.1-1.6,2.5-2.8,2.5
		S55.7,168.2,55.7,166.2z"/>
	<path fill="#FFFFFF" d="M65.4,160.9c0.9,0,1.3,0.199,1.6,0.3v1.5c-0.4-0.2-0.8-0.3-1.4-0.3c-1.2,0-1.8,0.5-1.8,2.399
		c0,1.9,0.6,2.4,1.8,2.4c0.6,0,0.9-0.101,1.4-0.3v1.5c-0.3,0.1-0.7,0.3-1.6,0.3c-2.2,0-3.2-1.101-3.2-3.9
		C62.1,162,63.2,160.9,65.4,160.9z"/>
	<path fill="#FFFFFF" d="M72.3,165.4h-2.9v1.699h3.2v1.5h-4.8v-7.5h4.8v1.5h-3.2v1.4h2.9V165.4z"/>
	<path fill="#FFFFFF" d="M75.5,168.5V161h1.6v7.5H75.5z"/>
	<path fill="#FFFFFF" d="M82.1,168.5l-2.4-4.5v4.5h-1.6V161h1.6l2.4,4.5V161h1.6v7.5H82.1z"/>
	<path fill="#FFFFFF" d="M89.1,165.4h-2.9v1.699h3.2v1.5h-4.8v-7.5h4.8v1.5h-3.2v1.4h2.9V165.4z"/>
	<path fill="#FFFFFF" d="M95,168.2l1.8,0.399v1.601l-4.7-1.601c-1.5-0.5-1.9-1.8-1.9-3.699c0-2.301,0.6-3.9,3-3.9c2.4,0,3,1.6,3,3.9
		C96.1,166.3,95.8,167.5,95,168.2L95,168.2L95,168.2z M91.8,164.8c0,1.7,0.4,2.4,1.4,2.4s1.4-0.7,1.4-2.4s-0.4-2.399-1.4-2.399
		C92.1,162.4,91.8,163.1,91.8,164.8z"/>
	<path fill="#FFFFFF" d="M96.9,166.2V161.1h1.6v5c0,1,0.6,1.101,1.2,1.101c0.6,0,1.2-0.2,1.2-1.101v-5h1.6v5.101
		c0,2.1-1.6,2.5-2.8,2.5C98.5,168.7,96.9,168.2,96.9,166.2z"/>
	<path fill="#FFFFFF" d="M102.9,168.5l2.1-7.5h1.8l2.1,7.5h-1.7l-0.3-1.5H105l-0.3,1.5H102.9z M105.3,165.7h1.3l-0.6-2.8
		L105.3,165.7z"/>
	<path fill="#FFFFFF" d="M111.2,167.1h3v1.5H109.6v-7.5h1.601V167.1z"/>
	<path fill="#FFFFFF" d="M114.9,168.5V161h1.6v7.5H114.9z"/>
	<path fill="#FFFFFF" d="M120.6,162.5v6H119v-6h-1.8V161h5.2v1.5H120.6z"/>
	<path fill="#FFFFFF" d="M126.7,165.6v2.9H125.1v-2.9L122.7,161h1.8l1.4,3.1l1.399-3.1h1.8L126.7,165.6z"/>
	<path fill="#FFFFFF" d="M136.3,161.1l0.8,5.2l0.601-5.2h1.7l-1.2,7.5H136.1l-1-5.6l-1,5.6H132l-1.2-7.5h1.7l0.6,5.2l0.801-5.2
		H136.3z"/>
	<path fill="#FFFFFF" d="M140.2,168.5V161h1.6v7.5H140.2z"/>
	<path fill="#FFFFFF" d="M146,162.5v6h-1.6v-6H142.6V161h5.2v1.5H146z"/>
	<path fill="#FFFFFF" d="M152.3,168.5v-3.1H150v3.1h-1.6V161h1.6v2.9h2.3V161h1.601v7.5H152.3z"/>
	<path fill="#FFFFFF" d="M154.9,168.5V161h1.6v7.5H154.9z"/>
	<path fill="#FFFFFF" d="M161.5,168.5l-2.4-4.5v4.5h-1.6V161h1.6l2.4,4.5V161h1.6v7.5H161.5z"/>
	<path fill="#FFFFFF" d="M165.7,168.5l2.1-7.5h1.8l2.101,7.5H170l-0.4-1.5H167.7l-0.4,1.5H165.7z M168.1,165.7h1.301l-0.601-2.8
		L168.1,165.7z"/>
	<path fill="#FFFFFF" d="M176.3,168.5L173.9,164v4.5H172.3V161h1.601l2.399,4.5V161h1.601v7.5H176.3z"/>
	<path fill="#FFFFFF" d="M178.8,168.5V161h2.4c2.5,0,3.2,1.6,3.2,3.7c0,2.1-0.7,3.7-3.2,3.7h-2.4V168.5z M180.4,167.1h0.899
		c1.2,0,1.5-0.8,1.5-2.3c0-1.399-0.3-2.3-1.5-2.3H180.4V167.1z"/>
</g>
<g enable-background="new    ">
	<path fill="#FFFFFF" d="M69,180.5l2-7.5h1.8l2.1,7.5h-1.7l-0.3-1.5H71l-0.3,1.5H69z M71.3,177.7h1.3l-0.6-2.8L71.3,177.7z"/>
	<path fill="#FFFFFF" d="M79.9,179.6h-1.6l-1.2-3.699l0.1,4.6h-1.6V173h2l1.5,4.7l1.5-4.7h2v7.5H81l0.1-4.6L79.9,179.6z"/>
	<path fill="#FFFFFF" d="M83.5,176.8c0-2.3,0.6-3.899,3-3.899s3,1.6,3,3.899s-0.6,3.9-3,3.9S83.5,179.1,83.5,176.8z M85.1,176.8
		c0,1.7,0.4,2.4,1.4,2.4s1.4-0.7,1.4-2.4s-0.4-2.399-1.4-2.399S85.1,175.1,85.1,176.8z"/>
	<path fill="#FFFFFF" d="M94.3,180.5l-2.4-4.5v4.5h-1.6V173h1.6l2.4,4.5V173h1.6v7.5H94.3z"/>
	<path fill="#FFFFFF" d="M96.7,176.8c0-2.6,0.9-3.899,3.2-3.899c1,0,1.8,0.1,2.2,0.399v1.601c-0.6-0.301-1.3-0.4-1.9-0.4
		c-1.4,0-1.9,0.6-1.9,2.4c0,1.899,0.5,2.399,1.9,2.399c0.2,0,0.3,0,0.5,0v-1.5h-1.1V176.4h2.7v4c-0.4,0.3-1.3,0.5-2.4,0.5
		C97.7,180.7,96.7,179.4,96.7,176.8z"/>
	<path fill="#FFFFFF" d="M108.4,172.9c0.9,0,1.3,0.199,1.6,0.3v1.5c-0.4-0.2-0.8-0.3-1.4-0.3c-1.2,0-1.8,0.5-1.8,2.399
		c0,1.9,0.6,2.4,1.8,2.4c0.6,0,0.9-0.101,1.4-0.3v1.5c-0.3,0.1-0.7,0.3-1.6,0.3c-2.2,0-3.2-1.101-3.2-3.9S106.2,172.9,108.4,172.9z"
		/>
	<path fill="#FFFFFF" d="M110.8,176.8c0-2.3,0.601-3.899,3-3.899c2.4,0,3,1.6,3,3.899s-0.6,3.9-3,3.9
		C111.4,180.7,110.8,179.1,110.8,176.8z M112.4,176.8c0,1.7,0.399,2.4,1.399,2.4s1.4-0.7,1.4-2.4s-0.4-2.399-1.4-2.399
		S112.4,175.1,112.4,176.8z"/>
	<path fill="#FFFFFF" d="M117.6,178.2V173.1h1.601v5c0,1,0.6,1.101,1.2,1.101c0.6,0,1.199-0.2,1.199-1.101v-5h1.601v5.101
		c0,2.1-1.601,2.5-2.8,2.5C119.2,180.7,117.6,180.2,117.6,178.2z"/>
	<path fill="#FFFFFF" d="M128,180.5l-2.4-4.5v4.5H124V173h1.6l2.4,4.5V173h1.6v7.5H128z"/>
	<path fill="#FFFFFF" d="M133.6,174.5v6H132v-6h-1.8V173h5.2v1.5H133.6z"/>
	<path fill="#FFFFFF" d="M137.6,180.5H136V173h2.5c2,0,2.7,0.9,2.7,2.3c0,0.9-0.3,1.601-1.101,2l1.301,3.101h-1.9l-1-2.801h-1
		L137.6,180.5L137.6,180.5z M137.6,176.3h1.101c0.7,0,0.8-0.5,0.8-0.899c0-0.4-0.1-0.9-0.8-0.9H137.6V176.3z"/>
	<path fill="#FFFFFF" d="M142.2,180.5V173h1.6v7.5H142.2z"/>
	<path fill="#FFFFFF" d="M149.3,177.4H146.4v1.699h3.199v1.5h-4.8v-7.5h4.8v1.5H146.4v1.4h2.899V177.4L149.3,177.4z"/>
	<path fill="#FFFFFF" d="M155.6,178.2c0,1.899-1.199,2.5-2.899,2.5c-0.8,0-1.8-0.101-2.3-0.5V178.6
		c0.399,0.2,1.199,0.601,2.199,0.601c1.101,0,1.5-0.4,1.5-0.9c0-0.6-0.199-0.8-1-0.899c-1.899-0.2-2.6-0.801-2.6-2.301
		c0-1.399,0.8-2.3,2.8-2.3c1,0,1.8,0.2,2.101,0.4v1.5c-0.4-0.2-1.2-0.4-2-0.4c-0.801,0-1.301,0.3-1.301,0.7
		c0,0.5,0.301,0.7,1.101,0.8C154.7,176.2,155.6,176.6,155.6,178.2z"/>
</g>
<g>
	<path fill-rule="evenodd" clip-rule="evenodd" fill="#FEFEFD" d="M108.656,108.377c-4.477,0-8.953-0.024-13.429,0.02
		c-0.946,0.009-1.213-0.303-1.191-1.219c0.055-2.349,0.04-4.7,0.006-7.05c-0.011-0.729,0.152-1.09,0.977-1.089
		c9.103,0.02,18.204,0.018,27.307,0.001c0.741-0.001,0.97,0.283,0.961,0.992c-0.026,2.425-0.036,4.85,0.005,7.273
		c0.015,0.83-0.261,1.093-1.094,1.087C117.684,108.358,113.17,108.377,108.656,108.377z"/>
	<path fill-rule="evenodd" clip-rule="evenodd" fill="#FEFEFD" d="M108.825,117.356c4.406,0,8.812,0.029,13.217-0.022
		c1.003-0.011,1.282,0.305,1.255,1.278c-0.063,2.275-0.053,4.555-0.004,6.831c0.02,0.894-0.217,1.242-1.182,1.239
		c-8.961-0.032-17.922-0.032-26.882-0.002c-0.943,0.003-1.217-0.308-1.193-1.226c0.057-2.202,0.018-4.406,0.019-6.608
		c0-1.487,0.001-1.489,1.442-1.489C99.939,117.356,104.383,117.356,108.825,117.356z"/>
	<path fill-rule="evenodd" clip-rule="evenodd" fill="#FEFEFD" d="M82.314,112.961c0,4.217,0.003,8.434-0.006,12.65
		c-0.001,0.358,0.176,0.854-0.186,1.041c-0.415,0.217-0.618-0.3-0.859-0.54c-4.179-4.159-8.334-8.342-12.527-12.487
		c-0.592-0.586-0.607-0.92-0.006-1.515c4.216-4.175,8.394-8.388,12.591-12.581c0.221-0.221,0.418-0.661,0.788-0.483
		c0.338,0.162,0.199,0.605,0.199,0.929C82.316,104.303,82.314,108.633,82.314,112.961z"/>
	<path fill-rule="evenodd" clip-rule="evenodd" fill="#FEFEFD" d="M135.05,112.873c-0.001-4.292-0.004-8.585,0.007-12.877
		c0.001-0.317-0.176-0.763,0.157-0.929c0.434-0.216,0.632,0.283,0.872,0.522c4.174,4.166,8.326,8.354,12.514,12.506
		c0.577,0.572,0.646,0.904,0.029,1.515c-4.223,4.17-8.405,8.381-12.609,12.569c-0.22,0.22-0.41,0.664-0.786,0.488
		c-0.351-0.165-0.176-0.604-0.177-0.917C135.046,121.459,135.05,117.166,135.05,112.873z"/>
	<path fill-rule="evenodd" clip-rule="evenodd" fill="#FEFEFD" d="M108.6,86.463c-4.256,0-8.512,0.004-12.767-0.006
		c-0.321,0-0.771,0.165-0.937-0.154c-0.227-0.434,0.284-0.624,0.521-0.863c4.161-4.18,8.346-8.337,12.492-12.531
		c0.58-0.586,0.905-0.624,1.508-0.015c4.144,4.197,8.328,8.354,12.494,12.529c0.229,0.23,0.655,0.443,0.55,0.782
		c-0.145,0.461-0.644,0.248-0.982,0.249C117.186,86.469,112.893,86.463,108.6,86.463z"/>
	<path fill-rule="evenodd" clip-rule="evenodd" fill="#FEFEFD" d="M108.632,139.257c4.287,0,8.574-0.003,12.861,0.006
		c0.319,0.001,0.765-0.165,0.931,0.156c0.225,0.435-0.285,0.625-0.522,0.864c-4.155,4.174-8.333,8.327-12.475,12.515
		c-0.571,0.578-0.886,0.643-1.495,0.025c-4.162-4.22-8.369-8.396-12.553-12.595c-0.219-0.219-0.667-0.398-0.516-0.771
		c0.151-0.373,0.597-0.192,0.908-0.193C100.058,139.253,104.345,139.257,108.632,139.257z"/>
</g>
</svg>
