<?xml version="1.0" encoding="utf-8"?>
<!-- Generator: Adobe Illustrator 20.1.0, SVG Export Plug-In . SVG Version: 6.00 Build 0)  -->
<svg version="1.1" id="Layer_1" xmlns="http://www.w3.org/2000/svg" xmlns:xlink="http://www.w3.org/1999/xlink" x="0px" y="0px"
	 width="218px" height="218px" viewBox="0 0 218 218" style="enable-background:new 0 0 218 218;" xml:space="preserve">
<style type="text/css">
	.st0{fill:#EF402B;}
	.st1{fill:#FFFFFF;}
	.st2{enable-background:new    ;}
</style>
<g>
	<circle class="st0" cx="109.3821716" cy="108.9393158" r="108"/>
</g>
<g>
	<path class="st1" d="M59.2553711,63.659668V56.559082c1.9501953,0.7998047,5.6005859,1.5,8.6005859,1.5
		c3.8500977,0,6.5004883-1.1000977,6.5004883-5.2504883c0-4.25-2.4501953-4.7998047-6.0004883-4.7998047h-8.1503906V27.1572266
		h21.0014648v7.5004883H67.9560547v6.050293h2.9003906c5.550293,0,11.4506836,1.6000977,11.4506836,12.1005859
		c0,10.7509766-6.9506836,12.5507812-14.1508789,12.5507812C64.605957,65.359375,61.5058594,64.7597656,59.2553711,63.659668z"/>
</g>
<g>
	<path class="st1" d="M94.6943359,34.6176758c0-4.1777344,1.5043945-6.2265625,5.1542969-6.2265625
		c1.6323242,0,2.8168945,0.2402344,3.5371094,0.5600586v2.4970703c-0.9921875-0.4160156-2.0649414-0.65625-3.0571289-0.65625
		c-2.2890625,0-3.0410156,1.0244141-3.0410156,3.8256836c0,2.9931641,0.815918,3.8256836,3.0410156,3.8256836
		c0.2402344,0,0.5600586-0.0161133,0.7363281-0.0483398v-2.4326172h-1.6967773v-2.2890625h4.2578125v6.3544922
		c-0.7202148,0.4482422-2.1289062,0.8164062-3.8574219,0.8164062
		C96.1987305,40.8442383,94.6943359,38.7954102,94.6943359,34.6176758z"/>
	<path class="st1" d="M112.2167969,35.5620117h-4.6254883v2.7211914h5.0893555v2.3369141h-7.6503906V28.6152344h7.6503906v2.3369141
		h-5.0893555v2.3208008h4.6254883V35.5620117z"/>
	<path class="st1" d="M120.328125,40.6201172l-3.8730469-7.1708984l0.0634766,7.1708984h-2.5283203V28.6152344h2.5283203
		l3.8740234,7.1708984l-0.0644531-7.1708984h2.5292969v12.0048828H120.328125z"/>
	<path class="st1" d="M124.3261719,40.6201172V28.6152344h3.8896484c4.0654297,0,5.1220703,2.5932617,5.1220703,6.0024414
		s-1.0566406,6.0024414-5.1220703,6.0024414H124.3261719z M126.8867188,38.2832031h1.3769531
		c1.8730469,0,2.4169922-1.3447266,2.4169922-3.6655273c0-2.3046875-0.5439453-3.6655273-2.4169922-3.6655273h-1.3769531V38.2832031
		z"/>
	<path class="st1" d="M141.8330078,35.5620117h-4.6259766v2.7211914h5.0908203v2.3369141h-7.6513672V28.6152344h7.6513672v2.3369141
		h-5.0908203v2.3208008h4.6259766V35.5620117z"/>
	<path class="st1" d="M146.1660156,40.6201172h-2.5605469V28.6152344H147.6875c3.2324219,0,4.2890625,1.4726562,4.2890625,3.7617188
		c0,1.4882812-0.4160156,2.625-1.6806641,3.2329102l2.1289062,5.0102539h-2.9931641l-1.6162109-4.4980469h-1.6494141V40.6201172z
		 M146.1660156,33.8012695h1.7451172c1.1367188,0,1.2802734-0.7680664,1.2802734-1.4243164
		c0-0.6723633-0.1435547-1.4248047-1.2802734-1.4248047h-1.7451172V33.8012695z"/>
	<path class="st1" d="M101.9614258,54.762207h-4.6259766v2.7211914h5.0898438v2.3369141h-7.6508789V47.8154297h7.6508789v2.3369141
		h-5.0898438v2.3208008h4.6259766V54.762207z"/>
	<path class="st1" d="M111.3691406,59.2602539l2.8330078,0.5761719v2.5771484l-7.5546875-2.609375
		c-2.3369141-0.8164062-2.9931641-2.9291992-2.9931641-5.9863281c0-3.6655273,0.9921875-6.2265625,4.7861328-6.2265625
		c3.7773438,0,4.7851562,2.5610352,4.7851562,6.2265625c0,2.4331055-0.4482422,4.4018555-1.8564453,5.4262695V59.2602539z
		 M106.2475586,53.8178711c0,2.8012695,0.6079102,3.9057617,2.1928711,3.9057617
		c1.5839844,0,2.1923828-1.1044922,2.1923828-3.9057617s-0.6083984-3.9057617-2.1923828-3.9057617
		C106.8554688,49.9121094,106.2475586,51.0166016,106.2475586,53.8178711z"/>
	<path class="st1" d="M114.5341797,56.0268555v-8.2114258h2.5605469v8.0834961c0,1.5522461,1.0087891,1.824707,1.9052734,1.824707
		s1.9042969-0.2724609,1.9042969-1.824707v-8.0834961h2.5615234v8.2114258c0,3.2973633-2.6416016,4.0175781-4.4658203,4.0175781
		C117.1748047,60.0444336,114.5341797,59.3242188,114.5341797,56.0268555z"/>
	<path class="st1" d="M124.1181641,59.8203125l3.3291016-12.0688477h2.9453125l3.3291016,12.0688477h-2.7207031
		l-0.5605469-2.4648438h-3.0410156l-0.5605469,2.4648438H124.1181641z M127.8955078,55.3222656h2.0488281l-1.0244141-4.5454102
		L127.8955078,55.3222656z"/>
	<path class="st1" d="M137.3349609,57.4833984h4.8505859v2.3369141h-7.4111328V47.8154297h2.5605469V57.4833984z"/>
	<path class="st1" d="M143.2695312,59.8203125V47.8154297h2.5615234v12.0048828H143.2695312z"/>
	<path class="st1" d="M152.4404297,50.1523438v9.6679688h-2.5605469v-9.6679688h-2.8974609v-2.3369141h8.3554688v2.3369141
		H152.4404297z"/>
	<path class="st1" d="M162.1201172,55.1625977v4.6577148h-2.59375v-4.6577148l-3.8085938-7.347168h2.9287109l2.1767578,5.0102539
		L163,47.8154297h2.9296875L162.1201172,55.1625977z"/>
</g>
<g>
	<path class="st1" d="M137.3631592,74.9110031h-17.776001c-0.1220016,0-0.2259979,0.0849991-0.2259979,0.1910019v4.9889984
		c0,0.1070023,0.1039963,0.1920013,0.2259979,0.1920013h7.0780029l-7.8590012,6.6389999
		c-3.9589996-2.6269989-8.9400024-4.1989975-14.3539963-4.1989975c-12.8359985,0-23.2819977,8.8209991-23.2819977,19.663002
		c0,9.9830017,8.8560028,18.2430038,20.2770004,19.4930038v5.7480011h-7.0110016
		c-0.1299973,0-0.2289963,0.0849991-0.2289963,0.1900024v5.3470001c0,0.1060028,0.098999,0.1909943,0.2289963,0.1909943h7.0110016
		v5.6569977c0,0.1060028,0.1009979,0.1909943,0.2259979,0.1909943h6.3280029c0.1259995,0,0.2289963-0.0850067,0.2289963-0.1909943
		v-5.6569977h7.0100021c0.125,0,0.2259979-0.0850067,0.2259979-0.1909943v-5.3470001
		c0-0.1050034-0.1009979-0.1900024-0.2259979-0.1900024h-7.0100021v-5.8420029
		c11.0459976-1.5299988,19.5029984-9.6439972,19.5029984-19.4000015c0-4.2080002-1.5770035-8.1080017-4.2519989-11.3099976
		l7.7470016-6.5439987v5.5830002c0,0.1060028,0.1040039,0.1910019,0.2290039,0.1910019h5.9060059
		c0.1269989,0,0.2310028-0.0849991,0.2310028-0.1910019V75.0999985
		C137.594162,74.9960022,137.4901581,74.9110031,137.3631592,74.9110031 M104.4521561,116.8590012
		c-9.4489975,0-17.1350021-6.4930038-17.1350021-14.4729996c0-7.9810028,7.685997-14.4729996,17.1350021-14.4729996
		c9.4499969,0,17.1380005,6.4919968,17.1380005,14.4729996C121.5901566,110.3659973,113.902153,116.8590012,104.4521561,116.8590012
		"/>
	<path class="st1" d="M114.9201584,96.4449997H94.1341553c-0.125,0-0.2259979,0.0780029-0.2259979,0.1709976v4.25
		c0,0.0999985,0.1009979,0.1740036,0.2259979,0.1740036h20.7859955c0.1289978,0,0.2300034-0.0749969,0.2300034-0.1740036v-4.25
		C115.1501541,96.5230026,115.0491562,96.4449997,114.9201584,96.4449997"/>
	<path class="st1" d="M114.9201584,104.0339966H94.1341553c-0.125,0-0.2259979,0.0800018-0.2259979,0.177002v4.25
		c0,0.0950012,0.1009979,0.1719971,0.2259979,0.1719971h20.7859955c0.1289978,0,0.2300034-0.0759964,0.2300034-0.1719971v-4.25
		C115.1501541,104.1139984,115.0491562,104.0339966,114.9201584,104.0339966"/>
</g>
<g class="st2">
	<path class="st1" d="M36.5859985,162.3560028l2.0789986-7.5359955h1.8390007l2.0789986,7.5359955h-1.6990013l-0.3499985-1.5390015
		h-1.8989983l-0.3499985,1.5390015H36.5859985z M38.9440002,159.5480042h1.2789993l-0.6399994-2.8379974L38.9440002,159.5480042z"/>
	<path class="st1" d="M46.2340012,154.720993c0.8689995,0,1.2589989,0.1600037,1.5589981,0.2799988v1.5090027
		c-0.4490013-0.1799927-0.7989998-0.2899933-1.3979988-0.2899933c-1.2200012,0-1.7789993,0.4900055-1.7789993,2.3890076
		s0.5600014,2.3890076,1.7789993,2.3890076c0.5999985,0,0.9490013-0.1089935,1.3979988-0.2899933v1.5099945
		c-0.2999992,0.1199951-0.6889992,0.279007-1.5589981,0.279007c-2.1889992,0-3.2290001-1.0690002-3.237999-3.8880005
		C43.0060005,155.7899933,44.0449982,154.720993,46.2340012,154.720993z"/>
	<path class="st1" d="M52.5439987,162.3560028v-3.1389923h-2.2779999v3.1390076h-1.5999985v-7.4960022h1.5999985v2.897995h2.2779999
		v-2.897995h1.598999v7.4960022h-1.598999V162.3560028z"/>
	<path class="st1" d="M55.1759987,162.3560028v-7.4960022h1.5999985v7.4960022H55.1759987z"/>
	<path class="st1" d="M62.2929993,159.197998h-2.8880005v1.6990051h3.1780014v1.4589996h-4.7770004v-7.4960022h4.7770004v1.4589996
		h-3.1780014v1.4490051h2.8880005V159.197998z"/>
	<path class="st1" d="M69.1429977,154.8600006l-2.0790024,7.5359955h-1.8389969l-2.0790024-7.5359955h1.6989975l1.3000031,5.7070007
		l1.2990036-5.7070007H69.1429977z"/>
	<path class="st1" d="M74.2929993,159.197998h-2.8880005v1.6990051h3.1780014v1.4589996h-4.7770004v-7.4960022h4.7770004v1.4589996
		h-3.1780014v1.4490051h2.8880005V159.197998z"/>
	<path class="st1" d="M77.3550034,158.6080017c0-2.6080017,0.939003-3.8880005,3.2190018-3.8880005
		c1.0199966,0,1.7590027,0.1490021,2.2089996,0.3500061v1.5599976c-0.6200027-0.2599945-1.2900009-0.4100037-1.9089966-0.4100037
		c-1.4300003,0-1.8990021,0.6399994-1.8990021,2.3890076c0,1.8690033,0.5100021,2.3890076,1.8990021,2.3890076
		c0.1490021,0,0.3499985-0.0099945,0.4599991-0.0299988v-1.5189972h-1.0599976v-1.4299927h2.6579971v3.9680023
		c-0.4489975,0.2799988-1.3290024,0.5099945-2.4079971,0.5099945
		C78.2949982,162.4960022,77.3550034,161.2169952,77.3550034,158.6080017z"/>
	<path class="st1" d="M88.3030014,159.197998h-2.8880005v1.6990051h3.1780014v1.4589996h-4.7770004v-7.4960022h4.7770004v1.4589996
		h-3.1780014v1.4490051h2.8880005V159.197998z"/>
	<path class="st1" d="M93.3730011,162.3560028l-2.4179993-4.4779968l0.0400009,4.4779968h-1.5790024v-7.4960022h1.5790024
		l2.4179993,4.4779968l-0.0400009-4.4779968h1.5790024v7.4960022H93.3730011z"/>
	<path class="st1" d="M95.8759995,162.3560028v-7.4960022h2.4280014c2.5390015,0,3.197998,1.6190033,3.197998,3.7480011
		s-0.6589966,3.7480011-3.197998,3.7480011H95.8759995z M97.4749985,160.8970032h0.8590012
		c1.1699982,0,1.5100021-0.8399963,1.5100021-2.2890015c0-1.4389954-0.3399963-2.2890015-1.5100021-2.2890015h-0.8590012
		V160.8970032z"/>
	<path class="st1" d="M106.8119965,159.197998h-2.8880005v1.6990051h3.1780014v1.4589996h-4.7770004v-7.4960022h4.7770004v1.4589996
		h-3.1780014v1.4490051h2.8880005V159.197998z"/>
	<path class="st1" d="M109.5240021,162.3560028h-1.598999v-7.4960022h2.5479965c2.0199966,0,2.6790009,0.9199982,2.6790009,2.348999
		c0,0.9299927-0.2600021,1.6399994-1.0500031,2.0200043l1.3300018,3.128006h-1.8690033l-1.0100021-2.8090057h-1.0289993
		C109.5239944,159.5480042,109.5239944,162.3560028,109.5240021,162.3560028z M109.5240021,158.098999h1.0899963
		c0.7089996,0,0.7990036-0.4790039,0.7990036-0.8899994c0-0.4199982-0.0899963-0.8899994-0.7990036-0.8899994h-1.0899963V158.098999
		z"/>
	<path class="st1" d="M120.4629974,159.197998h-2.8889999v1.6990051h3.1790009v1.4589996h-4.7770004v-7.4960022h4.7770004v1.4589996
		h-3.1790009v1.4490051h2.8889999V159.197998z"/>
	<path class="st1" d="M126.3430023,162.0070038l1.7689972,0.3589935v1.6089935l-4.7170029-1.6289978
		c-1.4599991-0.5099945-1.8690033-1.8289948-1.8690033-3.7380066c0-2.2890015,0.6190033-3.8880005,2.987999-3.8880005
		c2.3580017,0,2.9880066,1.598999,2.9880066,3.8880005c0,1.5200043-0.2799988,2.7489929-1.1589966,3.3889923V162.0070038z
		 M123.1449966,158.6080017c0,1.7489929,0.3799973,2.4380035,1.3690033,2.4380035s1.3690033-0.6889954,1.3690033-2.4380035
		s-0.3799973-2.4380035-1.3690033-2.4380035S123.1449966,156.8589935,123.1449966,158.6080017z"/>
	<path class="st1" d="M128.3249969,159.9869995v-5.1269989h1.598999v5.0480042c0,0.9689941,0.6300049,1.1390076,1.1889954,1.1390076
		s1.1889954-0.1699982,1.1889954-1.1390076v-5.0480042h1.6000061v5.1269989c0,2.0599976-1.6490021,2.5090027-2.7890015,2.5090027
		C129.9750061,162.4960022,128.3249969,162.0469971,128.3249969,159.9869995z"/>
	<path class="st1" d="M134.3150024,162.3560028l2.0789948-7.5359955h1.8390045l2.0789948,7.5359955h-1.6990051l-0.3500061-1.5390015
		h-1.8990021l-0.3500061,1.5390015H134.3150024z M136.673996,159.5480042h1.279007l-0.6399994-2.8379974L136.673996,159.5480042z"/>
	<path class="st1" d="M142.5740051,160.8970032h3.0279999v1.4589996h-4.6269989v-7.4960022h1.598999V160.8970032z"/>
	<path class="st1" d="M146.2850037,162.3560028v-7.4960022h1.6000061v7.4960022H146.2850037z"/>
	<path class="st1" d="M152.0140076,156.3190002v6.0370026h-1.6000061v-6.0370026h-1.8090057v-1.4589996h5.2169952v1.4589996
		H152.0140076z"/>
	<path class="st1" d="M158.0619965,159.447998v2.9080048h-1.6190033v-2.9080048l-2.3789978-4.5879974h1.8289948l1.3589935,3.1289978
		l1.3589935-3.1289978h1.8289948L158.0619965,159.447998z"/>
	<path class="st1" d="M162.5350037,162.3560028l2.0789948-7.5359955h1.8390045l2.0789948,7.5359955h-1.6990051l-0.3500061-1.5390015
		h-1.8990021l-0.3500061,1.5390015H162.5350037z M164.8939972,159.5480042h1.279007l-0.6399994-2.8379974L164.8939972,159.5480042z"
		/>
	<path class="st1" d="M173.1519928,162.3560028l-2.4179993-4.4779968l0.0399933,4.4779968h-1.5789948v-7.4960022h1.5789948
		l2.4179993,4.4779968l-0.0399933-4.4779968h1.5789948v7.4960022H173.1519928z"/>
	<path class="st1" d="M175.6549988,162.3560028v-7.4960022h2.4279938c2.5390015,0,3.197998,1.6190033,3.197998,3.7480011
		s-0.6589966,3.7480011-3.197998,3.7480011H175.6549988z M177.2539978,160.8970032h0.8589935
		c1.1699982,0,1.5099945-0.8399963,1.5099945-2.2890015c0-1.4389954-0.3399963-2.2890015-1.5099945-2.2890015h-0.8589935
		V160.8970032z"/>
</g>
<g class="st2">
	<path class="st1" d="M38.8580017,171.197998h-2.8880005v1.6990051h3.1780014v1.4589996h-4.7770004v-7.4960022h4.7770004v1.4589996
		h-3.1780014v1.4490051h2.8880005V171.197998z"/>
	<path class="st1" d="M44.2789993,173.4470062h-1.6189995L41.5,169.7680054l0.0509987,4.5879974h-1.5789986v-7.4960022h2.0089989
		l1.4889984,4.6679993l1.487999-4.6679993h2.0099983v7.4960022h-1.5789986l0.0499992-4.5879974L44.2789993,173.4470062z"/>
	<path class="st1" d="M49.4900017,174.3560028h-1.598999v-7.4960022h2.5379982c1.9990005,0,2.6879997,1.1699982,2.6879997,2.4490051
		c0,1.298996-0.6889992,2.447998-2.6879997,2.447998h-0.9389992V174.3560028z M49.4900017,170.3179932h0.9490013
		c0.7999992,0,0.9500008-0.6089935,0.9500008-0.9989929s-0.1500015-1-0.9500008-1h-0.9490013V170.3179932z"/>
	<path class="st1" d="M53.6409988,170.6080017c0-2.2890015,0.6300011-3.8880005,2.987999-3.8880005
		c2.3590012,0,2.9889984,1.598999,2.9889984,3.8880005s-0.6300011,3.8880005-2.9889984,3.8880005
		C54.2709999,174.4960022,53.6409988,172.8970032,53.6409988,170.6080017z M55.2599983,170.6080017
		c0,1.7489929,0.3800011,2.4380035,1.3689995,2.4380035c0.9900017,0,1.3699989-0.6889954,1.3699989-2.4380035
		s-0.3800011-2.4380035-1.3699989-2.4380035C55.6399994,168.1699982,55.2599983,168.8589935,55.2599983,170.6080017z"/>
	<path class="st1" d="M65.5279999,166.8600006l0.8290024,5.2279968l0.6090012-5.2279968h1.7089996l-1.1589966,7.5359955h-2.0780029
		l-0.9599991-5.6269989l-0.9589996,5.6269989h-2.0790062l-1.1590004-7.5359955h1.7089996l0.6090012,5.2279968l0.8290024-5.2279968
		H65.5279999z"/>
	<path class="st1" d="M73.8779984,171.197998h-2.8880005v1.6990051h3.1780014v1.4589996h-4.7770004v-7.4960022h4.7770004v1.4589996
		h-3.1780014v1.4490051h2.8880005V171.197998z"/>
	<path class="st1" d="M76.5899963,174.3560028h-1.598999v-7.4960022h2.5479965c2.0199966,0,2.6790009,0.9199982,2.6790009,2.348999
		c0,0.9299927-0.2600021,1.6399994-1.0500031,2.0200043l1.3300018,3.128006h-1.8690033l-1.0100021-2.8090057h-1.0289917V174.3560028
		z M76.5899963,170.098999h1.0899963c0.7089996,0,0.7990036-0.4790039,0.7990036-0.8899994
		c0-0.4199982-0.0899963-0.8899994-0.7990036-0.8899994h-1.0899963V170.098999z"/>
	<path class="st1" d="M82.7799988,174.3560028l2.0790024-7.5359955h1.8389969l2.0790024,7.5359955h-1.6989975l-0.3499985-1.5390015
		h-1.8990021l-0.3499985,1.5390015H82.7799988z M85.1399994,171.5480042h1.2789993l-0.6399994-2.8379974L85.1399994,171.5480042z"/>
	<path class="st1" d="M91.0400009,172.8970032h3.0279999v1.4589996h-4.6279984v-7.4960022h1.5999985V172.8970032z"/>
	<path class="st1" d="M96.2399979,172.8970032h3.0279999v1.4589996h-4.6279984v-7.4960022h1.5999985V172.8970032z"/>
	<path class="st1" d="M106.6780014,166.8600006l0.8300018,5.2279968l0.6090012-5.2279968h1.7089996l-1.1589966,7.5359955h-2.0790024
		l-0.9589996-5.6269989l-0.9599991,5.6269989h-2.0790024l-1.1589966-7.5359955h1.7089996l0.6090012,5.2279968l0.8300018-5.2279968
		H106.6780014z"/>
	<path class="st1" d="M110.4899979,170.6080017c0-2.2890015,0.6299973-3.8880005,2.987999-3.8880005
		c2.3590012,0,2.9889984,1.598999,2.9889984,3.8880005s-0.6299973,3.8880005-2.9889984,3.8880005
		C111.1200027,174.4960022,110.4899979,172.8970032,110.4899979,170.6080017z M112.1090012,170.6080017
		c0,1.7489929,0.3799973,2.4380035,1.3690033,2.4380035c0.9899979,0,1.3700027-0.6889954,1.3700027-2.4380035
		s-0.3799973-2.4380035-1.3700027-2.4380035C112.4889984,168.1699982,112.1090012,168.8589935,112.1090012,170.6080017z"/>
	<path class="st1" d="M121.6480026,173.4470062h-1.6190033l-1.1600037-3.6790009l0.0510025,4.5879974h-1.5790024v-7.4960022
		h2.0090027l1.4889984,4.6679993l1.487999-4.6679993h2.0100021v7.4960022h-1.5790024l0.0500031-4.5879974L121.6480026,173.4470062z"
		/>
	<path class="st1" d="M129.7480011,171.197998h-2.8889999v1.6990051h3.1789932v1.4589996h-4.7770004v-7.4960022h4.7770004v1.4589996
		h-3.1790009v1.4490051h2.8889923v1.4299927H129.7480011z"/>
	<path class="st1" d="M134.8179932,174.3560028l-2.4190063-4.4779968l0.0399933,4.4779968h-1.5789948v-7.4960022h1.5789948
		l2.4190063,4.4779968l-0.0399933-4.4779968h1.5789948v7.4960022H134.8179932z"/>
	<path class="st1" d="M139.0610046,174.3560028l2.0789948-7.5359955h1.8390045l2.0789948,7.5359955h-1.6990051l-0.3500061-1.5390015
		h-1.8990021l-0.3500061,1.5390015H139.0610046z M141.4190063,171.5480042h1.279007l-0.6399994-2.8379974L141.4190063,171.5480042z"
		/>
	<path class="st1" d="M149.6779938,174.3560028l-2.4179993-4.4779968l0.0399933,4.4779968h-1.5789948v-7.4960022h1.5789948
		l2.4179993,4.4779968l-0.0399933-4.4779968h1.5789948v7.4960022H149.6779938z"/>
	<path class="st1" d="M152.1809998,174.3560028v-7.4960022h2.4279938c2.5390015,0,3.197998,1.6190033,3.197998,3.7480011
		s-0.6589966,3.7480011-3.197998,3.7480011H152.1809998z M153.779007,172.8970032h0.8589935
		c1.1699982,0,1.5099945-0.8399963,1.5099945-2.2890015c0-1.4389954-0.3399963-2.2890015-1.5099945-2.2890015h-0.8589935
		V172.8970032z"/>
	<path class="st1" d="M160.5800018,170.6080017c0-2.6080017,0.9389954-3.8880005,3.2180023-3.8880005
		c1.0200043,0,1.7599945,0.1490021,2.2089996,0.3500061v1.5599976c-0.6190033-0.2599945-1.2890015-0.4100037-1.9089966-0.4100037
		c-1.4290009,0-1.897995,0.6399994-1.897995,2.3890076c0,1.8690033,0.5099945,2.3890076,1.897995,2.3890076
		c0.1499939,0,0.3509979-0.0099945,0.4600067-0.0299988v-1.5189972h-1.0599976v-1.4299927h2.6589966v3.9680023
		c-0.4499969,0.2799988-1.3300018,0.5099945-2.4089966,0.5099945
		C161.5200043,174.4960022,160.5800018,173.2169952,160.5800018,170.6080017z"/>
	<path class="st1" d="M167.1499939,174.3560028v-7.4960022h1.598999v7.4960022H167.1499939z"/>
	<path class="st1" d="M171.3789978,174.3560028h-1.598999v-7.4960022h2.5480042c2.0200043,0,2.6790009,0.9199982,2.6790009,2.348999
		c0,0.9299927-0.2599945,1.6399994-1.0500031,2.0200043l1.3300018,3.128006h-1.8690033l-1.0099945-2.8090057h-1.029007V174.3560028z
		 M171.3789978,170.098999h1.0899963c0.7089996,0,0.798996-0.4790039,0.798996-0.8899994
		c0-0.4199982-0.0899963-0.8899994-0.798996-0.8899994h-1.0899963V170.098999z"/>
	<path class="st1" d="M177.4299927,172.8970032h3.0279999v1.4589996h-4.628006v-7.4960022h1.6000061V172.8970032z"/>
	<path class="st1" d="M186.2070007,171.9680023c0,1.8589935-1.1690063,2.5279999-2.9380035,2.5279999
		c-0.8099976,0-1.798996-0.1399994-2.3390045-0.4600067v-1.6390076c0.3500061,0.1999969,1.1889954,0.5800018,2.1790009,0.5800018
		c1.1300049,0,1.4589996-0.3509979,1.4589996-0.8589935c0-0.5700073-0.2489929-0.7599945-1.0090027-0.8600006
		c-1.8990021-0.25-2.6289978-0.8099976-2.6289978-2.2779999c0-1.3589935,0.8300018-2.2590027,2.8090057-2.2590027
		c1.0200043,0,1.7700043,0.1799927,2.1190033,0.3699951v1.548996c-0.4100037-0.1999969-1.2389984-0.3990021-1.9989929-0.3990021
		c-0.8300018,0-1.2890015,0.2599945-1.2890015,0.7389984c0,0.5399933,0.2890015,0.7100067,1.0690002,0.8190002
		C185.2980042,170.029007,186.2070007,170.3679962,186.2070007,171.9680023z"/>
</g>
</svg>
