<?xml version="1.0" encoding="utf-8"?>
<!-- Generator: Adobe Illustrator 20.1.0, SVG Export Plug-In . SVG Version: 6.00 Build 0)  -->
<svg version="1.1" id="Layer_1" xmlns="http://www.w3.org/2000/svg" xmlns:xlink="http://www.w3.org/1999/xlink" x="0px" y="0px"
	 width="218px" height="218px" viewBox="0 0 218 218" style="enable-background:new 0 0 218 218;" xml:space="preserve">
<style type="text/css">
	.st0{fill:#27BDE2;}
	.st1{fill:#FFFFFF;}
	.st2{enable-background:new    ;}
</style>
<g>
	<circle class="st0" cx="109.3821716" cy="108.9393158" r="108"/>
</g>
<g>
	<path class="st1" d="M44.1557617,48.8081055c1.7504883-2.4501953,4.9003906-3.1005859,7.7504883-3.1005859
		c9.1005859,0,10.6010742,6.6503906,10.6010742,12.2509766c0,5.550293-1.6503906,12.1508789-12.6508789,12.1508789
		c-10.4506836,0-13.3510742-5.550293-13.3510742-16.7011719c0-13.1005859,2.4003906-22.2011719,15.2509766-22.2011719
		c4.300293,0,7.8505859,1.0498047,9.3007812,1.7998047v7.4003906c-2.300293-1.199707-5.0004883-1.8500977-8.4003906-1.8500977
		C45.4560547,38.5571289,44.40625,42.6074219,44.1557617,48.8081055z M50.206543,52.8081055
		c-4.1005859,0-5.6503906,1.5-5.6503906,5.1503906s1.5498047,5.1503906,5.050293,5.1503906c3.5,0,5.1000977-1.5,5.1000977-5.1503906
		S53.1567383,52.8081055,50.206543,52.8081055z"/>
</g>
<path class="st1" d="M133.8999939,77c-0.1000061-0.0999985-0.3000031-0.1999969-0.3999939-0.1999969h-46
	c-0.1999969,0-0.3000031,0.0999985-0.4000015,0.1999969C87,77.1999969,87,77.3000031,87,77.5l7.6999969,46.5999985
	c0,0.3000031,0.3000031,0.4000015,0.5,0.4000015h9.5l0.5999985,7.6000061h-4l9.3000031,9.3000031l9.3000031-9.3000031h-4
	L116.5,124.5000076h9.5999985c0.3000031,0,0.5-0.1999969,0.5-0.5l7.2000046-46.5999985
	C134,77.3000031,134,77.1999969,133.8999939,77z M116.0999985,114.4000015c0,0-2.0999985,2.0999985-5.5,1.9000015
	c-3.4000015,0.1999969-5.5-1.9000015-5.5-1.9000015c-3.4000015-3.4000015-2.1999969-7.6999969-1-9.9000015
	c0.6999969-1.4000015,6-9.3000031,6.5-10v-0.0999985l0,0l0,0V94.5c0.4000015,0.6999969,5.6999969,8.5999985,6.5,10
	C118.3000031,106.6999969,119.5,110.9000015,116.0999985,114.4000015z M130.6999969,86.9000015
	c-1.1999969-0.5-2.8000031-0.4000015-4.3000031,0.3000031c-5.6999969,2.3000031-9.5999985,3.0999985-15.5999985,1.3000031
	c-3.8000031-1.1999969-7.3000031-3.6999969-11.5-2.0999985c-2.8000031,1-5.3000031,1.9000015-8.5,1.9000015L89,78.9000015h43
	L130.6999969,86.9000015z"/>
<g class="st2">
	<path class="st1" d="M23.1000004,155.3000031h-2.8999996V157h3.2000008v1.5h-4.7999992V151h4.7999992v1.5h-3.2000008v1.3999939
		h2.8999996V155.3000031z"/>
	<path class="st1" d="M28.2000008,158.5l-2.3999996-4.5v4.5h-1.6000004V151h1.6000004l2.3999996,4.5V151h1.6000004v7.5H28.2000008z"
		/>
	<path class="st1" d="M35.9000015,156.1000061c0,1.8999939-1.2000008,2.5-2.9000015,2.5
		c-0.7999992,0-1.7999992-0.1000061-2.2999992-0.5V156.5c0.2999992,0.1999969,1.2000008,0.6000061,2.2000008,0.6000061
		c1.0999985,0,1.5-0.3999939,1.5-0.8999939c0-0.6000061-0.2000008-0.8000031-1-0.8999939
		c-1.9000015-0.1999969-2.5999985-0.8000031-2.5999985-2.3000031c0-1.3999939,0.7999992-2.3000031,2.7999992-2.3000031
		c1,0,1.7999992,0.1999969,2.0999985,0.3999939v1.5c-0.4000015-0.1999969-1.2000008-0.3999939-2-0.3999939
		s-1.2999992,0.3000031-1.2999992,0.6999969c0,0.5,0.2999992,0.6999969,1.0999985,0.8000031
		C35,154.1999969,35.9000015,154.5,35.9000015,156.1000061z"/>
	<path class="st1" d="M36.5999985,156.1000061V151h1.5999985v5c0,1,0.5999985,1.1000061,1.2000008,1.1000061
		S40.5999985,156.9000092,40.5999985,156v-5h1.5999985v5.1000061c0,2.1000061-1.5999985,2.5-2.7999992,2.5
		S36.5999985,158.1999969,36.5999985,156.1000061z"/>
	<path class="st1" d="M44.7000008,158.5h-1.5999985V151h2.5c2,0,2.7000008,0.8999939,2.7000008,2.3000031
		c0,0.8999939-0.2999992,1.6000061-1,2l1.2999992,3.1000061h-1.9000015l-1-2.8000031h-1V158.5L44.7000008,158.5z
		 M44.7000008,154.1999969h1.0999985c0.7000008,0,0.7999992-0.5,0.7999992-0.8999939S46.5,152.4000092,45.7999992,152.4000092
		h-1.0999985V154.1999969z"/>
	<path class="st1" d="M53.5999985,155.3000031h-2.9000015V157h3.2000008v1.5h-4.7999992V151h4.7999992v1.5h-3.2000008v1.3999939
		h2.9000015V155.3000031z"/>
	<path class="st1" d="M56.4000015,158.5L58.5,151h1.7999992l2.1000023,7.5h-1.7000008l-0.2999992-1.5H58.5l-0.2999992,1.5
		H56.4000015z M58.7999992,155.6999969h1.2999992L59.5,152.8999939L58.7999992,155.6999969z"/>
	<path class="st1" d="M67.9000015,151l-2.0999985,7.5H64l-2.0999985-7.5h1.6999969l1.3000031,5.6999969L66.2000046,151H67.9000015z"
		/>
	<path class="st1" d="M67.4000015,158.5L69.5,151h1.8000031l2.0999985,7.5h-1.6999969l-0.3000031-1.5H69.5l-0.3000031,1.5
		H67.4000015z M69.8000031,155.6999969h1.3000031l-0.5999985-2.8000031L69.8000031,155.6999969z"/>
	<path class="st1" d="M74.1999969,158.5V151h1.5999985v7.5H74.1999969z"/>
	<path class="st1" d="M78.4000015,157h3v1.5h-4.5999985V151h1.5999985V157z"/>
	<path class="st1" d="M81.8000031,158.5l2.0999985-7.5h1.8000031l2.0999985,7.5h-1.6999969l-0.3000031-1.5h-1.9000015
		l-0.3000031,1.5H81.8000031z M84.0999985,155.6999969h1.3000031l-0.5999985-2.8000031L84.0999985,155.6999969z"/>
	<path class="st1" d="M88.4000015,151h2.6999969C93,151,93.5,151.8999939,93.5,153.1000061
		c0,0.6000061-0.3000031,1.1999969-0.8000031,1.3999939c0.5999985,0.1999969,1,0.6999969,1,1.6999969
		C93.6999969,157.5,93.0999985,158.5,91.0999985,158.5h-2.6999969V151L88.4000015,151z M91.0999985,152.3999939h-1V154h1
		c0.6999969,0,0.8000031-0.5,0.8000031-0.8000031C91.9000015,152.8000031,91.6999969,152.3999939,91.0999985,152.3999939z
		 M90,157.1000061h1.0999985c0.6999969,0,0.9000015-0.3999939,0.9000015-0.8999939
		c0-0.6000061-0.3000031-0.8999939-0.9000015-0.8999939H90V157.1000061z"/>
	<path class="st1" d="M94.5999985,158.5V151h1.5999985v7.5H94.5999985z"/>
	<path class="st1" d="M98.8000031,157h3v1.5h-4.5999985V151h1.5999985V157z"/>
	<path class="st1" d="M102.5,158.5V151h1.5999985v7.5H102.5z"/>
	<path class="st1" d="M108.1999969,152.5v6h-1.5999985v-6h-1.8000031V151h5.1999969v1.5H108.1999969z"/>
	<path class="st1" d="M114.3000031,155.6000061V158.5h-1.5999985v-2.8999939L110.3000031,151h1.8000031l1.4000015,3.1000061
		L114.9000092,151h1.8000031L114.3000031,155.6000061z"/>
	<path class="st1" d="M118.8000031,158.5l2.0999985-7.5h1.8000031l2.0999985,7.5h-1.6999969l-0.3000031-1.5h-1.9000015
		l-0.3000031,1.5H118.8000031z M121.0999985,155.6999969h1.3000031l-0.5999985-2.8000031L121.0999985,155.6999969z"/>
	<path class="st1" d="M129.3999939,158.5L127,154v4.5h-1.5999985V151H127l2.3999939,4.5V151H131v7.5H129.3999939z"/>
	<path class="st1" d="M131.8999939,158.5V151h2.3999939c2.5,0,3.1999969,1.6000061,3.1999969,3.6999969
		s-0.6999969,3.6999969-3.1999969,3.6999969h-2.3999939V158.5z M133.5,157h0.8999939c1.1999969,0,1.5-0.8000031,1.5-2.3000031
		c0-1.3999939-0.3000031-2.3000031-1.5-2.3000031H133.5V157z"/>
	<path class="st1" d="M145.5,156.1000061c0,1.8999939-1.1999969,2.5-2.8999939,2.5c-0.8000031,0-1.8000031-0.1000061-2.3000031-0.5
		V156.5c0.3999939,0.1999969,1.1999969,0.6000061,2.1999969,0.6000061c1.1000061,0,1.5-0.3999939,1.5-0.8999939
		c0-0.6000061-0.1999969-0.8000031-1-0.8999939c-1.8999939-0.1999969-2.6000061-0.8000031-2.6000061-2.3000031
		c0-1.3999939,0.8000031-2.3000031,2.8000031-2.3000031c1,0,1.8000031,0.1999969,2.1000061,0.3999939v1.5
		c-0.3999939-0.1999969-1.1999969-0.3999939-2-0.3999939S142,152.5000153,142,152.9000092
		c0,0.5,0.3000031,0.6999969,1.1000061,0.8000031C144.6000061,154.1999969,145.5,154.5,145.5,156.1000061z"/>
	<path class="st1" d="M146.1999969,156.1000061V151h1.6000061v5c0,1,0.6000061,1.1000061,1.1999969,1.1000061
		s1.1999969-0.1999969,1.1999969-1.1000061v-5h1.6000061v5.1000061c0,2.1000061-1.6000061,2.5-2.8000031,2.5
		C147.8999939,158.6000061,146.1999969,158.1999969,146.1999969,156.1000061z"/>
	<path class="st1" d="M157.8999939,156.1000061c0,1.8999939-1.1999969,2.5-2.8999939,2.5
		c-0.8000031,0-1.8000031-0.1000061-2.3000031-0.5V156.5c0.3999939,0.1999969,1.1999969,0.6000061,2.1999969,0.6000061
		c1.1000061,0,1.5-0.3999939,1.5-0.8999939c0-0.6000061-0.1999969-0.8000031-1-0.8999939
		c-1.8999939-0.1999969-2.6000061-0.8000031-2.6000061-2.3000031c0-1.3999939,0.8000031-2.3000031,2.8000031-2.3000031
		c1,0,1.8000031,0.1999969,2.1000061,0.3999939v1.5c-0.3999939-0.1999969-1.1999969-0.3999939-2-0.3999939
		s-1.3000031,0.3000031-1.3000031,0.6999969c0,0.5,0.3000031,0.6999969,1.1000061,0.8000031
		C156.8999939,154.1999969,157.8999939,154.5,157.8999939,156.1000061z"/>
	<path class="st1" d="M161.3999939,152.5v6h-1.6000061v-6H158V151h5.1999969v1.5H161.3999939z"/>
	<path class="st1" d="M162.8000031,158.5l2.1000061-7.5h1.8000031l2.1000061,7.5h-1.6999969l-0.3999939-1.5h-1.8999939
		l-0.3999939,1.5H162.8000031z M165.1000061,155.6999969h1.3000031l-0.6000061-2.8000031L165.1000061,155.6999969z"/>
	<path class="st1" d="M169.6000061,158.5V151h1.6000061v7.5H169.6000061z"/>
	<path class="st1" d="M176.1000061,158.5l-2.3999939-4.5v4.5h-1.6000061V151h1.6000061l2.3999939,4.5V151h1.6000061v7.5H176.1000061
		z"/>
	<path class="st1" d="M178.3999939,158.5L180.5,151h1.8000031l2.1000061,7.5h-1.6999969l-0.3999939-1.5h-1.8999939l-0.3999939,1.5
		H178.3999939z M180.6999969,155.6999969H182l-0.6000061-2.8000031L180.6999969,155.6999969z"/>
	<path class="st1" d="M185,151h2.6999969c1.8999939,0,2.3999939,0.8999939,2.3999939,2.1000061
		c0,0.6000061-0.3000031,1.1999969-0.8000031,1.3999939c0.6000061,0.1999969,1,0.6999969,1,1.6999969
		c0,1.3000031-0.6000061,2.3000031-2.6000061,2.3000031H185V151L185,151z M187.6999969,152.3999939h-1V154h1
		c0.6999969,0,0.8000031-0.5,0.8000031-0.8000031C188.5,152.8000031,188.3000031,152.3999939,187.6999969,152.3999939z
		 M186.6000061,157.1000061h1.1000061c0.6999969,0,0.8999939-0.3999939,0.8999939-0.8999939
		c0-0.6000061-0.3000031-0.8999939-0.8999939-0.8999939h-1.1000061V157.1000061z"/>
	<path class="st1" d="M192.6999969,157h3v1.5h-4.6000061V151h1.6000061V157z"/>
	<path class="st1" d="M200.6999969,155.3000031h-2.8999939V157H201v1.5h-4.8000031V151H201v1.5h-3.1999969v1.3999939h2.8999939
		V155.3000031z"/>
</g>
<g class="st2">
	<path class="st1" d="M48.7999992,169.6000061h-1.5999985L46,165.9000092v4.6000061h-1.5999985V163h2l1.5,4.6999969l1.5-4.6999969h2
		v7.5h-1.5999985v-4.6000061L48.7999992,169.6000061z"/>
	<path class="st1" d="M52.0999985,170.5l2.0999985-7.5h1.7999992l2.0999985,7.5h-1.7000008l-0.2999992-1.5h-1.9000015
		l-0.2999992,1.5H52.0999985z M54.5,167.6999969h1.2999992l-0.5999985-2.8000031L54.5,167.6999969z"/>
	<path class="st1" d="M62.8000031,170.5l-2.4000015-4.5v4.5h-1.5999985V163h1.5999985l2.4000015,4.5V163h1.5999985v7.5H62.8000031z"
		/>
	<path class="st1" d="M65,170.5l2.0999985-7.5h1.8000031L71,170.5h-1.6999969L69,169h-1.9000015l-0.3000031,1.5H65z
		 M67.4000015,167.6999969h1.3000031l-0.5999985-2.8000031L67.4000015,167.6999969z"/>
	<path class="st1" d="M71.4000015,166.6999969c0-2.6000061,0.9000015-3.8999939,3.1999969-3.8999939
		c1,0,1.8000031,0.1000061,2.1999969,0.3999939v1.6000061c-0.5999985-0.3000031-1.3000031-0.3999939-1.9000015-0.3999939
		c-1.4000015,0-1.9000015,0.6000061-1.9000015,2.3999939c0,1.8999939,0.5,2.3999939,1.9000015,2.3999939
		c0.1999969,0,0.3000031,0,0.5,0v-1.5h-1.0999985v-1.3999939H77v4c-0.4000015,0.3000031-1.3000031,0.5-2.4000015,0.5
		C72.4000015,170.6000061,71.4000015,169.3999939,71.4000015,166.6999969z"/>
	<path class="st1" d="M82.4000015,167.3000031H79.5V169h3.1999969v1.5h-4.8000031V163h4.8000031v1.5H79.5v1.3999939h2.9000015
		V167.3000031z"/>
	<path class="st1" d="M87.8000031,169.6000061h-1.5999985l-1.1999969-3.6999969l0.0999985,4.6000061h-1.5999985V163h2l1.5,4.6999969
		l1.5-4.6999969h2v7.5h-1.5999985l0.0999985-4.6000061L87.8000031,169.6000061z"/>
	<path class="st1" d="M95.9000015,167.3000031H93V169h3.1999969v1.5h-4.8000031V163h4.8000031v1.5H93v1.3999939h2.9000015
		V167.3000031z"/>
	<path class="st1" d="M101,170.5l-2.4000015-4.5v4.5H97V163h1.5999985L101,167.5V163h1.5999985v7.5H101z"/>
	<path class="st1" d="M106.5999985,164.5v6H105v-6h-1.8000031V163h5.1999969v1.5H106.5999985z"/>
	<path class="st1" d="M110.5999985,166.6999969c0-2.3000031,0.5999985-3.8999939,3-3.8999939s3,1.6000061,3,3.8999939
		s-0.5999985,3.8999939-3,3.8999939C111.3000031,170.6000061,110.5999985,169,110.5999985,166.6999969z M112.1999969,166.6999969
		c0,1.6999969,0.4000015,2.3999939,1.4000015,2.3999939S115,168.3999939,115,166.6999969s-0.4000015-2.3999939-1.4000015-2.3999939
		S112.1999969,165,112.1999969,166.6999969z"/>
	<path class="st1" d="M121.9000015,167.3999939h-2.8000031V170.5H117.5V163h4.6999969v1.5h-3.0999985v1.6000061h2.8000031
		V167.3999939z"/>
	<path class="st1" d="M129.6999969,163L130.5,168.1999969L131.1000061,163h1.6999969l-1.1999969,7.5H129.5l-1-5.6000061L127.5,170.5
		h-2.0999985l-1.1999969-7.5h1.6999969L126.5,168.1999969L127.3000031,163H129.6999969z"/>
	<path class="st1" d="M132.6999969,170.5l2.1000061-7.5h1.8000031l2.1000061,7.5H137l-0.3999939-1.5h-1.8999939l-0.3999939,1.5
		H132.6999969z M135,167.6999969h1.3000031l-0.6000061-2.8000031L135,167.6999969z"/>
	<path class="st1" d="M141.5,164.5v6h-1.6000061v-6h-1.8000031V163h5.1999969v1.5H141.5z"/>
	<path class="st1" d="M148.3999939,167.3000031H145.5V169h3.1999969v1.5h-4.8000031V163h4.8000031v1.5H145.5v1.3999939h2.8999939
		V167.3000031L148.3999939,167.3000031z"/>
	<path class="st1" d="M151.1000061,170.5H149.5V163h2.5c2,0,2.6999969,0.8999939,2.6999969,2.3000031
		c0,0.8999939-0.3000031,1.6000061-1.1000061,2l1.3000031,3.1000061H153l-1-2.8000031h-1L151.1000061,170.5L151.1000061,170.5z
		 M151.1000061,166.1999969h1.1000061c0.6999969,0,0.8000031-0.5,0.8000031-0.8999939s-0.1000061-0.8999939-0.8000031-0.8999939
		h-1.1000061V166.1999969z"/>
	<path class="st1" d="M157.3000031,170.5l2.1000061-7.5h1.8000031l2.1000061,7.5h-1.6999969l-0.3999939-1.5h-1.8999939
		l-0.3999939,1.5H157.3000031z M159.6999969,167.6999969H161l-0.6000061-2.8000031L159.6999969,167.6999969z"/>
	<path class="st1" d="M167.8999939,170.5L165.5,166v4.5H164V163h1.6000061L168,167.5V163h1.6000061v7.5H167.8999939z"/>
	<path class="st1" d="M170.3999939,170.5V163h2.3999939c2.5,0,3.1999969,1.6000061,3.1999969,3.6999969
		s-0.6999969,3.6999969-3.1999969,3.6999969h-2.3999939V170.5z M172,169h0.8999939c1.1999969,0,1.5-0.8000031,1.5-2.3000031
		c0-1.3999939-0.3000031-2.3000031-1.5-2.3000031H172V169z"/>
</g>
<g class="st2">
	<path class="st1" d="M70,180.1000061c0,1.8999939-1.1999969,2.5-2.9000015,2.5c-0.8000031,0-1.8000031-0.1000061-2.3000031-0.5
		V180.5c0.3000031,0.1999969,1.1999969,0.6000061,2.1999969,0.6000061c1.0999985,0,1.5-0.3999939,1.5-0.8999939
		c0-0.6000061-0.1999969-0.8000031-1-0.8999939c-1.9000015-0.1999969-2.5999985-0.8000031-2.5999985-2.3000031
		c0-1.3999939,0.8000031-2.3000031,2.8000031-2.3000031c1,0,1.8000031,0.1999969,2.0999985,0.3999939v1.5
		c-0.4000015-0.1999969-1.1999969-0.3999939-2-0.3999939s-1.3000031,0.3000031-1.3000031,0.6999969
		c0,0.5,0.3000031,0.6999969,1.0999985,0.8000031C69.0999985,178.1999969,70,178.5,70,180.1000061z"/>
	<path class="st1" d="M70.3000031,182.5l2.0999985-7.5h1.8000031l2.0999985,7.5h-1.6999969l-0.3000031-1.5h-1.9000015
		l-0.3000031,1.5H70.3000031z M72.6999969,179.6999969H74l-0.5999985-2.8000031L72.6999969,179.6999969z"/>
	<path class="st1" d="M80.9000015,182.5L78.5,178v4.5H77V175h1.5999985L81,179.5V175h1.5999985v7.5H80.9000015z"/>
	<path class="st1" d="M83.5,182.5V175h1.5999985v7.5H83.5z"/>
	<path class="st1" d="M89.1999969,176.5v6h-1.5999985v-6h-1.8000031V175h5.1999969v1.5H89.1999969z"/>
	<path class="st1" d="M90.5999985,182.5l2.0999985-7.5H94.5l2.0999985,7.5h-1.6999969l-0.3000031-1.5h-1.9000015l-0.3000031,1.5
		H90.5999985z M93,179.6999969h1.3000031l-0.5999985-2.8000031L93,179.6999969z"/>
	<path class="st1" d="M99.4000015,176.5v6h-1.5999985v-6H96V175h5.1999969v1.5H99.4000015z"/>
	<path class="st1" d="M102,182.5V175h1.5999985v7.5H102z"/>
	<path class="st1" d="M104.5,178.6999969c0-2.3000031,0.5999985-3.8999939,3-3.8999939s3,1.6000061,3,3.8999939
		s-0.5999985,3.8999939-3,3.8999939C105.1999969,182.6000061,104.5,181,104.5,178.6999969z M106.1999969,178.6999969
		c0,1.6999969,0.4000015,2.3999939,1.4000015,2.3999939S109,180.3999939,109,178.6999969s-0.4000015-2.3999939-1.4000015-2.3999939
		C106.5,176.3000031,106.1999969,177,106.1999969,178.6999969z"/>
	<path class="st1" d="M115.3000031,182.5l-2.4000015-4.5v4.5h-1.5999985V175h1.5999985l2.4000015,4.5V175h1.5999985v7.5H115.3000031
		z"/>
	<path class="st1" d="M124.3000031,179.3999939H121.5V182.5h-1.5999985V175h4.6999969v1.5H121.5v1.6000061h2.8000031V179.3999939
		L124.3000031,179.3999939z"/>
	<path class="st1" d="M125.1999969,178.6999969c0-2.3000031,0.5999985-3.8999939,3-3.8999939c2.3999939,0,3,1.6000061,3,3.8999939
		s-0.6000061,3.8999939-3,3.8999939C125.8000031,182.6000061,125.1999969,181,125.1999969,178.6999969z M126.8000031,178.6999969
		c0,1.6999969,0.3999939,2.3999939,1.3999939,2.3999939s1.3999939-0.6999969,1.3999939-2.3999939
		s-0.3999939-2.3999939-1.3999939-2.3999939C127.1000061,176.3000031,126.8000031,177,126.8000031,178.6999969z"/>
	<path class="st1" d="M133.6000061,182.5H132V175h2.5c2,0,2.6999969,0.8999939,2.6999969,2.3000031
		c0,0.8999939-0.3000031,1.6000061-1,2L137.5,182.4000092h-1.8999939l-1-2.8000031h-1V182.5z M133.6000061,178.1999969h1.1000061
		c0.6999969,0,0.8000031-0.5,0.8000031-0.8999939s-0.1000061-0.8999939-0.8000031-0.8999939h-1.1000061V178.1999969z"/>
	<path class="st1" d="M139.8000031,182.5l2.1000061-7.5h1.8000031l2.1000061,7.5h-1.6999969l-0.3999939-1.5h-1.8999939
		l-0.3999939,1.5H139.8000031z M142.1000061,179.6999969h1.3000031l-0.6000061-2.8000031L142.1000061,179.6999969z"/>
	<path class="st1" d="M148.1000061,181h3v1.5H146.5V175h1.6000061V181z"/>
	<path class="st1" d="M153.3000031,181h3v1.5h-4.6000061V175h1.6000061V181z"/>
</g>
<g>
	<path class="st1" d="M74.0419922,32.7709961c1.3925781,0,2.0170898,0.2563477,2.4970703,0.4482422v2.4169922
		c-0.7202148-0.2880859-1.2802734-0.4643555-2.2407227-0.4643555c-1.953125,0-2.8491211,0.784668-2.8491211,3.8256836
		s0.8959961,3.8256836,2.8491211,3.8256836c0.9604492,0,1.5205078-0.1762695,2.2407227-0.4643555v2.4169922
		c-0.4799805,0.1918945-1.1044922,0.4482422-2.4970703,0.4482422c-3.5053711,0-5.1699219-1.7128906-5.1860352-6.2265625
		C68.8720703,34.4838867,70.5366211,32.7709961,74.0419922,32.7709961z"/>
	<path class="st1" d="M80.4892578,42.6630859h4.8500977V45h-7.4111328V32.9951172h2.5610352V42.6630859z"/>
	<path class="st1" d="M93.4345703,39.9418945h-4.6259766v2.7211914h5.0898438V45h-7.6508789V32.9951172h7.6508789v2.3369141
		h-5.0898438v2.3208008h4.6259766V39.9418945z"/>
	<path class="st1" d="M94.7915039,45l3.3291016-12.0688477h2.9453125L104.3950195,45h-2.7207031l-0.5605469-2.4648438h-3.0410156
		L97.512207,45H94.7915039z M98.5688477,40.5019531h2.0488281l-1.0244141-4.5454102L98.5688477,40.5019531z"/>
	<path class="st1" d="M111.7866211,45l-3.8740234-7.1708984L107.9770508,45h-2.5292969V32.9951172h2.5292969l3.8730469,7.1708984
		l-0.0634766-7.1708984h2.5288086V45H111.7866211z"/>
	<path class="st1" d="M126.7314453,32.9951172l1.328125,8.371582l0.9765625-8.371582h2.7373047l-1.8564453,12.0688477h-3.3300781
		l-1.5361328-9.0117188l-1.5371094,9.0117188h-3.3291016l-1.8564453-12.0688477h2.7373047l0.9755859,8.371582l1.3291016-8.371582
		H126.7314453z"/>
	<path class="st1" d="M131.5283203,45l3.3291016-12.0688477h2.9453125L141.1318359,45h-2.7207031l-0.5605469-2.4648438h-3.0410156
		L134.2490234,45H131.5283203z M135.3056641,40.5019531h2.0488281l-1.0244141-4.5454102L135.3056641,40.5019531z"/>
	<path class="st1" d="M145.6259766,35.3320312V45h-2.5605469v-9.6679688h-2.8974609v-2.3369141h8.3554688v2.3369141H145.6259766z"/>
	<path class="st1" d="M156.6826172,39.9418945h-4.6259766v2.7211914h5.0908203V45h-7.6513672V32.9951172h7.6513672v2.3369141
		h-5.0908203v2.3208008h4.6259766V39.9418945z"/>
	<path class="st1" d="M161.0166016,45h-2.5605469V32.9951172h4.0820312c3.2324219,0,4.2890625,1.4726562,4.2890625,3.7617188
		c0,1.4882812-0.4160156,2.625-1.6806641,3.2329102L167.2753906,45h-2.9931641l-1.6162109-4.4980469h-1.6494141V45z
		 M161.0166016,38.1811523h1.7451172c1.1367188,0,1.2802734-0.7680664,1.2802734-1.4243164
		c0-0.6723633-0.1435547-1.4248047-1.2802734-1.4248047h-1.7451172V38.1811523z"/>
	<path class="st1" d="M173.0009766,38.2133789c-0.2880859-0.7045898-0.4482422-1.4248047-0.4482422-2.1611328
		c0-1.4404297,0.8320312-3.28125,3.296875-3.28125c2.4335938,0,3.1210938,1.3125,3.1210938,3.0253906
		c0,1.5683594-0.8798828,2.4331055-2.4804688,3.2490234c0.5761719,0.7363281,1.2802734,1.4726562,2.0966797,2.1289062
		c0.7041016-1.0405273,1.0566406-2.5126953,1.0566406-4.1777344h2.5927734c0,2.3051758-0.6083984,4.1777344-1.5849609,5.5385742
		c0.6083984,0.3198242,1.2167969,0.5600586,1.8408203,0.7202148l-0.9443359,2.1928711
		c-0.8642578-0.3203125-1.7441406-0.7363281-2.625-1.2324219c-1.0078125,0.6723633-2.1767578,1.0083008-3.4091797,1.0083008
		c-2.8173828,0-4.3857422-1.2646484-4.3857422-3.4736328C171.1279297,39.9580078,171.7685547,38.965332,173.0009766,38.2133789z
		 M176.6337891,42.6791992c-0.9277344-0.7363281-1.7607422-1.5366211-2.4326172-2.4169922
		c-0.3203125,0.3198242-0.4804688,0.6723633-0.4804688,1.1044922c0,1.0244141,0.8164062,1.456543,1.8564453,1.456543
		C175.9453125,42.8232422,176.2978516,42.7749023,176.6337891,42.6791992z M175.3691406,37.125
		c0.7050781-0.3203125,1.1845703-0.65625,1.1845703-1.296875c0-0.4482422-0.1601562-0.65625-0.671875-0.65625
		c-0.5439453,0-0.7363281,0.2724609-0.7363281,0.8486328C175.1455078,36.3564453,175.2255859,36.7246094,175.3691406,37.125z"/>
	<path class="st1" d="M77.2275391,60.3745117c0,2.9775391-1.8730469,4.0498047-4.7060547,4.0498047
		c-1.2963867,0-2.8813477-0.2241211-3.7456055-0.7363281v-2.625c0.5600586,0.3198242,1.9047852,0.9282227,3.4892578,0.9282227
		c1.809082,0,2.3369141-0.5600586,2.3369141-1.3764648c0-0.9125977-0.3999023-1.2163086-1.6162109-1.3764648
		c-3.0415039-0.4003906-4.2099609-1.2963867-4.2099609-3.6494141c0-2.1772461,1.3286133-3.6176758,4.4980469-3.6176758
		c1.6323242,0,2.8330078,0.2880859,3.3930664,0.5922852v2.480957c-0.65625-0.3198242-1.9848633-0.6401367-3.2011719-0.6401367
		c-1.3286133,0-2.0649414,0.4160156-2.0649414,1.1845703c0,0.8642578,0.4643555,1.1362305,1.7128906,1.3125
		C75.7709961,57.2695312,77.2275391,57.8134766,77.2275391,60.3745117z"/>
	<path class="st1" d="M77.7202148,64.2001953l3.3291016-12.0688477h2.9453125l3.3291016,12.0688477h-2.7207031l-0.5605469-2.4648438
		h-3.0410156l-0.5605469,2.4648438H77.7202148z M81.4975586,59.7021484h2.0488281l-1.0244141-4.5454102L81.4975586,59.7021484z"/>
	<path class="st1" d="M94.7143555,64.2001953l-3.8735352-7.1708984l0.0639648,7.1708984h-2.5288086V52.1953125h2.5288086
		l3.8735352,7.1708984l-0.0639648-7.1708984h2.5292969v12.0048828H94.7143555z"/>
	<path class="st1" d="M98.8881836,64.2001953V52.1953125h2.5610352v12.0048828H98.8881836z"/>
	<path class="st1" d="M108.0571289,54.5322266v9.6679688h-2.5605469v-9.6679688h-2.8974609v-2.3369141h8.3554688v2.3369141
		H108.0571289z"/>
	<path class="st1" d="M110.2319336,64.2001953l3.3295898-12.0688477h2.9453125l3.3291016,12.0688477h-2.7207031
		l-0.5605469-2.4648438h-3.0410156l-0.5605469,2.4648438H110.2319336z M114.0097656,59.7021484h2.0488281l-1.0244141-4.5454102
		L114.0097656,59.7021484z"/>
	<path class="st1" d="M124.3300781,54.5322266v9.6679688h-2.5605469v-9.6679688h-2.8974609v-2.3369141h8.3554688v2.3369141
		H124.3300781z"/>
	<path class="st1" d="M128.3759766,64.2001953V52.1953125H130.9375v12.0048828H128.3759766z"/>
	<path class="st1" d="M132.5039062,58.1977539c0-3.6655273,1.0087891-6.2265625,4.7861328-6.2265625
		s4.7861328,2.5610352,4.7861328,6.2265625s-1.0087891,6.2265625-4.7861328,6.2265625
		S132.5039062,61.8632812,132.5039062,58.1977539z M135.0966797,58.1977539c0,2.8012695,0.6083984,3.9057617,2.1933594,3.9057617
		c1.5839844,0,2.1923828-1.1044922,2.1923828-3.9057617s-0.6083984-3.9057617-2.1923828-3.9057617
		C135.7050781,54.2919922,135.0966797,55.3964844,135.0966797,58.1977539z"/>
	<path class="st1" d="M149.8027344,64.2001953l-3.8740234-7.1708984l0.0644531,7.1708984h-2.5292969V52.1953125h2.5292969
		l3.8730469,7.1708984l-0.0634766-7.1708984h2.5283203v12.0048828H149.8027344z"/>
</g>
</svg>
