<?xml version="1.0" encoding="utf-8"?>
<!-- Generator: Adobe Illustrator 20.1.0, SVG Export Plug-In . SVG Version: 6.00 Build 0)  -->
<svg version="1.1" id="Layer_1" xmlns="http://www.w3.org/2000/svg" xmlns:xlink="http://www.w3.org/1999/xlink" x="0px" y="0px"
	 width="218px" height="218px" viewBox="0 0 218 218" style="enable-background:new 0 0 218 218;" xml:space="preserve">
<style type="text/css">
	.st0{fill:#F26A2B;}
	.st1{fill:#FFFFFF;}
	.st2{enable-background:new    ;}
</style>
<g>
	<circle class="st0" cx="109.3821716" cy="108.9393158" r="108"/>
</g>
<g>
	<path class="st1" d="M55.6064453,56.7583008c-1.75,2.4501953-4.8500977,3.1005859-7.7001953,3.1005859
		c-9.1005859,0-10.6508789-6.6503906-10.6508789-12.2509766c0-5.550293,1.6503906-12.1508789,12.6508789-12.1508789
		c10.5004883,0,13.3510742,5.5507812,13.3510742,16.7011719c0,13.1010742-2.3505859,22.2011719-15.2011719,22.2011719
		c-4.3500977,0-8.3505859-1.0498047-9.8007812-1.7998047v-7.4003906c2.300293,1.199707,5.5004883,1.8500977,8.8505859,1.8500977
		C54.3564453,67.0092773,55.3564453,62.9589844,55.6064453,56.7583008z M49.6064453,52.7583008
		c4.050293,0,5.6503906-1.5,5.6503906-5.1503906s-1.6000977-5.1503906-5.1005859-5.1503906c-3.5,0-5.050293,1.5-5.050293,5.1503906
		S46.65625,52.7583008,49.6064453,52.7583008z"/>
</g>
<g>
	<path class="st1" d="M69.8125,35.7177734V23.7128906h2.5610352v12.0048828H69.8125z"/>
	<path class="st1" d="M80.3583984,35.7177734l-3.8735352-7.1708984l0.0639648,7.1708984h-2.5288086V23.7128906h2.5288086
		l3.8735352,7.1708984l-0.0639648-7.1708984h2.5292969v12.0048828H80.3583984z"/>
	<path class="st1" d="M84.355957,35.7177734V23.7128906h3.8896484c4.0654297,0,5.1220703,2.5932617,5.1220703,6.0024414
		s-1.0566406,6.0024414-5.1220703,6.0024414H84.355957z M86.9169922,33.3808594h1.3764648
		c1.8730469,0,2.4169922-1.3447266,2.4169922-3.6655273c0-2.3046875-0.5439453-3.6655273-2.4169922-3.6655273h-1.3764648V33.3808594
		z"/>
	<path class="st1" d="M94.5957031,31.9243164v-8.2114258h2.5610352v8.0834961c0,1.5522461,1.0083008,1.824707,1.9047852,1.824707
		s1.9047852-0.2724609,1.9047852-1.824707v-8.0834961h2.5605469v8.2114258c0,3.2973633-2.640625,4.0175781-4.465332,4.0175781
		S94.5957031,35.2216797,94.5957031,31.9243164z"/>
	<path class="st1" d="M113.2070312,31.8920898c0,2.9775391-1.8720703,4.0498047-4.706543,4.0498047
		c-1.2958984,0-2.8808594-0.2241211-3.7451172-0.7363281v-2.625c0.5605469,0.3198242,1.9052734,0.9282227,3.4892578,0.9282227
		c1.809082,0,2.3374023-0.5600586,2.3374023-1.3764648c0-0.9125977-0.4003906-1.2163086-1.6166992-1.3764648
		c-3.0410156-0.4003906-4.2099609-1.2963867-4.2099609-3.6494141c0-2.1772461,1.328125-3.6176758,4.4980469-3.6176758
		c1.6333008,0,2.8334961,0.2880859,3.394043,0.5922852v2.480957c-0.65625-0.3198242-1.9853516-0.6401367-3.2016602-0.6401367
		c-1.3291016,0-2.0654297,0.4160156-2.0654297,1.1845703c0,0.8642578,0.4638672,1.1362305,1.7128906,1.3125
		C111.7509766,28.7871094,113.2070312,29.3310547,113.2070312,31.8920898z"/>
	<path class="st1" d="M118.9179688,26.0498047v9.6679688h-2.5605469v-9.6679688h-2.8974609v-2.3369141h8.3554688v2.3369141
		H118.9179688z"/>
	<path class="st1" d="M125.3486328,35.7177734h-2.5605469V23.7128906h4.0820312
		c3.2324219,0,4.2890625,1.4726562,4.2890625,3.7617188c0,1.4882812-0.4160156,2.625-1.6806641,3.2329102l2.1289062,5.0102539
		h-2.9931641l-1.6162109-4.4980469h-1.6494141V35.7177734z M125.3486328,28.8989258h1.7451172
		c1.1367188,0,1.2802734-0.7680664,1.2802734-1.4243164c0-0.6723633-0.1435547-1.4248047-1.2802734-1.4248047h-1.7451172V28.8989258
		z"/>
	<path class="st1" d="M137.6386719,31.0600586v4.6577148h-2.59375v-4.6577148l-3.8085938-7.347168h2.9287109l2.1767578,5.0102539
		l2.1767578-5.0102539h2.9296875L137.6386719,31.0600586z"/>
	<path class="st1" d="M139.7314453,37.71875l0.4960938-4.4018555h2.7207031l-1.4726562,4.4018555H139.7314453z"/>
	<path class="st1" d="M69.8125,54.9179688V42.9130859h2.5610352v12.0048828H69.8125z"/>
	<path class="st1" d="M80.3583984,54.9179688l-3.8735352-7.1708984l0.0639648,7.1708984h-2.5288086V42.9130859h2.5288086
		l3.8735352,7.1708984l-0.0639648-7.1708984h2.5292969v12.0048828H80.3583984z"/>
	<path class="st1" d="M90.6943359,54.9179688l-3.8735352-7.1708984l0.0639648,7.1708984H84.355957V42.9130859h2.5288086
		l3.8735352,7.1708984l-0.0639648-7.1708984h2.5292969v12.0048828H90.6943359z"/>
	<path class="st1" d="M94.6118164,48.9155273c0-3.6655273,1.0083008-6.2265625,4.7861328-6.2265625
		c3.7773438,0,4.7861328,2.5610352,4.7861328,6.2265625s-1.0087891,6.2265625-4.7861328,6.2265625
		C95.6201172,55.1420898,94.6118164,52.5810547,94.6118164,48.9155273z M97.2050781,48.9155273
		c0,2.8012695,0.6079102,3.9057617,2.1928711,3.9057617c1.5844727,0,2.1928711-1.1044922,2.1928711-3.9057617
		s-0.6083984-3.9057617-2.1928711-3.9057617C97.8129883,45.0097656,97.2050781,46.1142578,97.2050781,48.9155273z"/>
	<path class="st1" d="M114.4404297,42.9130859l-3.3291016,12.0688477h-2.9458008l-3.3291016-12.0688477h2.7207031
		l2.0810547,9.1396484l2.081543-9.1396484H114.4404297z"/>
	<path class="st1" d="M113.6367188,54.9179688l3.3291016-12.0688477h2.9453125l3.3291016,12.0688477h-2.7207031
		l-0.5605469-2.4648438h-3.0410156l-0.5605469,2.4648438H113.6367188z M117.4140625,50.4199219h2.0488281l-1.0244141-4.5454102
		L117.4140625,50.4199219z"/>
	<path class="st1" d="M127.734375,45.25v9.6679688h-2.5605469V45.25h-2.8974609v-2.3369141h8.3554688V45.25H127.734375z"/>
	<path class="st1" d="M131.7802734,54.9179688V42.9130859h2.5615234v12.0048828H131.7802734z"/>
	<path class="st1" d="M135.9082031,48.9155273c0-3.6655273,1.0087891-6.2265625,4.7861328-6.2265625
		s4.7861328,2.5610352,4.7861328,6.2265625s-1.0087891,6.2265625-4.7861328,6.2265625
		S135.9082031,52.5810547,135.9082031,48.9155273z M138.5009766,48.9155273c0,2.8012695,0.6083984,3.9057617,2.1933594,3.9057617
		c1.5839844,0,2.1923828-1.1044922,2.1923828-3.9057617s-0.6083984-3.9057617-2.1923828-3.9057617
		C139.109375,45.0097656,138.5009766,46.1142578,138.5009766,48.9155273z"/>
	<path class="st1" d="M153.2070312,54.9179688l-3.8740234-7.1708984l0.0644531,7.1708984h-2.5292969V42.9130859h2.5292969
		l3.8730469,7.1708984l-0.0634766-7.1708984h2.5283203v12.0048828H153.2070312z"/>
	<path class="st1" d="M159.9882812,54.9179688l3.3291016-12.0688477h2.9453125l3.3291016,12.0688477h-2.7207031
		l-0.5605469-2.4648438h-3.0410156l-0.5605469,2.4648438H159.9882812z M163.765625,50.4199219h2.0488281l-1.0244141-4.5454102
		L163.765625,50.4199219z"/>
	<path class="st1" d="M176.9824219,54.9179688l-3.8740234-7.1708984l0.0644531,7.1708984h-2.5292969V42.9130859h2.5292969
		l3.8730469,7.1708984l-0.0634766-7.1708984h2.5283203v12.0048828H176.9824219z"/>
	<path class="st1" d="M180.9794922,54.9179688V42.9130859h3.8896484c4.0654297,0,5.1220703,2.5932617,5.1220703,6.0024414
		s-1.0566406,6.0024414-5.1220703,6.0024414H180.9794922z M183.5400391,52.5810547h1.3769531
		c1.8730469,0,2.4169922-1.3447266,2.4169922-3.6655273c0-2.3046875-0.5439453-3.6655273-2.4169922-3.6655273h-1.3769531V52.5810547
		z"/>
	<path class="st1" d="M69.8125,74.1176758V62.112793h2.5610352v12.0048828H69.8125z"/>
	<path class="st1" d="M80.3583984,74.1176758l-3.8735352-7.1708984l0.0639648,7.1708984h-2.5288086V62.112793h2.5288086
		l3.8735352,7.1708984l-0.0639648-7.1708984h2.5292969v12.0048828H80.3583984z"/>
	<path class="st1" d="M91.4467773,69.2197266h-4.5297852v4.8979492H84.355957V62.112793h7.5708008v2.3369141h-5.0097656v2.480957
		h4.5297852V69.2197266z"/>
	<path class="st1" d="M95.4931641,74.1176758h-2.5610352V62.112793h4.081543c3.2333984,0,4.2900391,1.4726562,4.2900391,3.7617188
		c0,1.4882812-0.4165039,2.625-1.6811523,3.2329102l2.1289062,5.0102539h-2.9931641l-1.6166992-4.4980469h-1.6484375V74.1176758z
		 M95.4931641,67.2988281h1.7446289c1.1367188,0,1.2807617-0.7680664,1.2807617-1.4243164
		c0-0.6723633-0.144043-1.4248047-1.2807617-1.4248047h-1.7446289V67.2988281z"/>
	<path class="st1" d="M102.1958008,74.1176758l3.3291016-12.0688477h2.9453125l3.3295898,12.0688477h-2.7211914
		l-0.5605469-2.4648438h-3.0410156l-0.5605469,2.4648438H102.1958008z M105.9731445,69.6196289h2.0488281l-1.0244141-4.5454102
		L105.9731445,69.6196289z"/>
	<path class="st1" d="M120.8232422,70.2919922c0,2.9775391-1.8720703,4.0498047-4.7060547,4.0498047
		c-1.2958984,0-2.8808594-0.2241211-3.7451172-0.7363281v-2.625c0.5605469,0.3203125,1.9052734,0.9282227,3.4892578,0.9282227
		c1.8085938,0,2.3369141-0.5600586,2.3369141-1.3764648c0-0.9125977-0.4003906-1.2163086-1.6162109-1.3764648
		c-3.0410156-0.4003906-4.2099609-1.2963867-4.2099609-3.6494141c0-2.1772461,1.328125-3.6176758,4.4980469-3.6176758
		c1.6328125,0,2.8330078,0.2880859,3.3935547,0.5922852v2.480957c-0.65625-0.3203125-1.9853516-0.6401367-3.2011719-0.6401367
		c-1.3291016,0-2.0654297,0.4160156-2.0654297,1.1845703c0,0.8642578,0.4638672,1.1362305,1.7128906,1.3125
		C119.3671875,67.1870117,120.8232422,67.730957,120.8232422,70.2919922z"/>
	<path class="st1" d="M126.5341797,64.449707v9.6679688h-2.5605469V64.449707h-2.8974609V62.112793h8.3554688v2.3369141H126.5341797
		z"/>
	<path class="st1" d="M132.9648438,74.1176758h-2.5605469V62.112793h4.0820312c3.2324219,0,4.2890625,1.4726562,4.2890625,3.7617188
		c0,1.4882812-0.4160156,2.625-1.6806641,3.2329102l2.1289062,5.0102539h-2.9931641l-1.6162109-4.4980469h-1.6494141V74.1176758z
		 M132.9648438,67.2988281h1.7451172c1.1367188,0,1.2802734-0.7680664,1.2802734-1.4243164
		c0-0.6723633-0.1435547-1.4248047-1.2802734-1.4248047h-1.7451172V67.2988281z"/>
	<path class="st1" d="M140.0039062,70.3242188V62.112793h2.5615234v8.0834961c0,1.5522461,1.0078125,1.824707,1.9042969,1.824707
		s1.9042969-0.2724609,1.9042969-1.824707V62.112793h2.5615234v8.2114258c0,3.2973633-2.640625,4.0175781-4.4658203,4.0175781
		S140.0039062,73.621582,140.0039062,70.3242188z"/>
	<path class="st1" d="M155.4306641,61.8886719c1.3925781,0,2.0166016,0.2563477,2.4970703,0.4482422v2.4169922
		c-0.7207031-0.2880859-1.28125-0.4643555-2.2412109-0.4643555c-1.953125,0-2.8496094,0.784668-2.8496094,3.8256836
		s0.8964844,3.8256836,2.8496094,3.8256836c0.9599609,0,1.5205078-0.1762695,2.2412109-0.4643555v2.4169922
		c-0.4804688,0.1918945-1.1044922,0.4482422-2.4970703,0.4482422c-3.5058594,0-5.1708984-1.7128906-5.1865234-6.2265625
		C150.2597656,63.6015625,151.9248047,61.8886719,155.4306641,61.8886719z"/>
	<path class="st1" d="M163.9580078,64.449707v9.6679688h-2.5605469V64.449707H158.5V62.112793h8.3554688v2.3369141H163.9580078z"/>
	<path class="st1" d="M167.7480469,70.3242188V62.112793h2.5615234v8.0834961c0,1.5522461,1.0078125,1.824707,1.9042969,1.824707
		s1.9042969-0.2724609,1.9042969-1.824707V62.112793h2.5615234v8.2114258c0,3.2973633-2.640625,4.0175781-4.4658203,4.0175781
		S167.7480469,73.621582,167.7480469,70.3242188z"/>
	<path class="st1" d="M180.6279297,74.1176758h-2.5605469V62.112793h4.0820312c3.2324219,0,4.2890625,1.4726562,4.2890625,3.7617188
		c0,1.4882812-0.4160156,2.625-1.6806641,3.2329102l2.1289062,5.0102539h-2.9931641l-1.6162109-4.4980469h-1.6494141V74.1176758z
		 M180.6279297,67.2988281h1.7451172c1.1367188,0,1.2802734-0.7680664,1.2802734-1.4243164
		c0-0.6723633-0.1435547-1.4248047-1.2802734-1.4248047h-1.7451172V67.2988281z"/>
	<path class="st1" d="M194.9345703,69.0595703h-4.6259766v2.7211914h5.0908203v2.3369141h-7.6513672V62.112793h7.6513672v2.3369141
		h-5.0908203v2.3208008h4.6259766V69.0595703z"/>
</g>
<path class="st1" d="M136.2017365,112.021286l-12.5111084-6.8661346V91.4196701c0-0.289856-0.1625137-0.5580978-0.426918-0.7030258
	l-12.933815-7.1015472c-0.2644043-0.1441345-0.5885849-0.1441345-0.8529892,0l-12.9355011,7.1015472
	c-0.2644043,0.144928-0.426918,0.4131699-0.426918,0.7030258v13.7354813l-12.5085831,6.8661346
	c-0.2644043,0.144928-0.426918,0.4131699-0.426918,0.7030258v14.2054977c0,0.2898712,0.1625137,0.5580978,0.426918,0.7030334
	l12.9355011,7.0999451c0.1322021,0.0720673,0.278717,0.108902,0.426918,0.108902
	c0.1473618,0,0.2947159-0.0368347,0.4269257-0.108902l12.5085754-6.8661346l12.5077438,6.8661346
	c0.1321945,0.0720673,0.278717,0.108902,0.426918,0.108902c0.1473618,0,0.2947159-0.036026,0.426918-0.108902l12.9371872-7.0999451
	c0.264389-0.1449356,0.4269257-0.4131775,0.4269257-0.7030334v-14.2054977
	C136.6278229,112.4344635,136.466156,112.1662216,136.2017365,112.021286z M109.0499954,125.5237656l-10.375679-5.6970901
	l10.375679-5.6970978V125.5237656z M121.1299744,105.6243668l-10.3739929,5.6938934V99.9264755L121.1299744,105.6243668z
	 M109.0499954,111.3190613l-10.3748398-5.6946945l10.3748398-5.6970901V111.3190613z M111.6098175,112.7243195l11.2269897-6.1631088
	l11.2303619,6.1631088l-11.2303619,6.1655121L111.6098175,112.7243195z M121.9838104,104.2183151l-10.3739929-5.6970901
	l10.3739929-5.695488V104.2183151z M108.1961594,98.521225l-10.3748398,5.6970901V92.8257294L108.1961594,98.521225z
	 M96.1144943,132.6245117l-11.2286682-6.1631088v-12.3310242l11.2286682,6.1663132V132.6245117z M97.8204803,132.6245117
	v-11.3917847l10.3748398,5.6970901L97.8204803,132.6245117z M134.9218445,126.4614029l-11.2312012,6.1631088v-12.3286285
	l11.2312012-6.1663132V126.4614029z"/>
<g class="st2">
	<path class="st1" d="M33.9260025,145.7779999h2.6879997c1.8989983,0,2.4179993,0.8990021,2.4179993,2.1190033
		c0,0.6399994-0.3199997,1.1589966-0.8100014,1.4190063c0.5600014,0.1900024,1.0289993,0.7400055,1.0289993,1.6690063
		c0,1.3000031-0.5890007,2.2890015-2.5979996,2.2890015h-2.7290001v-7.4960175H33.9260025z M36.5540009,147.1369934h-1.0289993
		v1.6089935h1.0289993c0.6599998,0,0.7789993-0.4600067,0.7789993-0.8000031
		C37.3330002,147.5970001,37.223999,147.1369934,36.5540009,147.1369934z M35.5250015,151.9149933h1.1090012
		c0.6689987,0,0.9189987-0.3899994,0.9189987-0.9389954c0-0.5599976-0.2599983-0.9299927-0.9189987-0.9299927h-1.1090012
		V151.9149933z"/>
	<path class="st1" d="M39.8849983,150.9049988v-5.1269989h1.598999v5.0480042c0,0.9689941,0.6300011,1.1390076,1.1889992,1.1390076
		s1.1889992-0.1699982,1.1889992-1.1390076v-5.0480042h1.598999v5.1269989c0,2.0599976-1.6489983,2.5090027-2.7890015,2.5090027
		S39.8849983,152.9640045,39.8849983,150.9049988z"/>
	<path class="st1" d="M46.4459991,153.2740021v-7.4960022h1.598999v7.4960022H46.4459991z"/>
	<path class="st1" d="M50.6749992,151.8150024h3.0279999v1.4589996h-4.6269989v-7.4960022h1.598999V151.8150024z"/>
	<path class="st1" d="M54.2750015,153.2740021v-7.4960022h2.4280014c2.5390015,0,3.197998,1.6190033,3.197998,3.7480011
		s-0.6590004,3.7480011-3.197998,3.7480011H54.2750015z M55.875,151.8150024h0.8590012
		c1.1689987,0,1.5089989-0.8399963,1.5089989-2.2890015c0-1.4389954-0.3400002-2.2890015-1.5089989-2.2890015H55.875V151.8150024z"
		/>
	<path class="st1" d="M64.3249969,153.2740021h-1.5989952v-7.4960022h2.5480003c2.0189972,0,2.6790009,0.9199982,2.6790009,2.348999
		c0,0.9299927-0.2600021,1.6399994-1.0490036,2.0200043l1.3290024,3.128006h-1.8690033l-1.0090027-2.8090057H64.326004v2.8079987
		H64.3249969z M64.3249969,149.0160065h1.0890045c0.7089996,0,0.7990036-0.4790039,0.7990036-0.8899994
		c0-0.4199982-0.0899963-0.8899994-0.7990036-0.8899994h-1.0889969
		C64.3250046,147.2360077,64.3250046,149.0160065,64.3249969,149.0160065z"/>
	<path class="st1" d="M73.2630005,150.1159973H70.375v1.6990051h3.1780014v1.4589996H68.776001v-7.4960022h4.7770004v1.4589996
		H70.375v1.4490051h2.8880005V150.1159973z"/>
	<path class="st1" d="M79.552002,150.8849945c0,1.8589935-1.1689987,2.5279999-2.9380035,2.5279999
		c-0.8099976,0-1.7990036-0.1399994-2.3389969-0.4600067v-1.6390076c0.3499985,0.1999969,1.189003,0.5800018,2.1790009,0.5800018
		c1.1289978,0,1.4589996-0.3509979,1.4589996-0.8589935c0-0.5700073-0.25-0.7599945-1.0090027-0.8600006
		c-1.8990021-0.25-2.6279984-0.8099976-2.6279984-2.2779999c0-1.3589935,0.8300018-2.2590027,2.8089981-2.2590027
		c1.0189972,0,1.7689972,0.1799927,2.1190033,0.3699951v1.548996c-0.4100037-0.1999969-1.2389984-0.3990021-1.9990005-0.3990021
		c-0.8300018,0-1.2890015,0.2599945-1.2890015,0.7389984c0,0.5399933,0.2900009,0.7100067,1.0690002,0.8190002
		C78.6429977,148.9470062,79.552002,149.2859955,79.552002,150.8849945z"/>
	<path class="st1" d="M80.4349976,153.2740021v-7.4960022h1.598999v7.4960022H80.4349976z"/>
	<path class="st1" d="M84.6640015,151.8150024h3.0279999v1.4589996h-4.6269989v-7.4960022h1.598999V151.8150024z"/>
	<path class="st1" d="M88.375,153.2740021v-7.4960022h1.598999v7.4960022H88.375z"/>
	<path class="st1" d="M95.4919968,150.1159973h-2.8880005v1.6990051h3.1780014v1.4589996h-4.7770004v-7.4960022h4.7770004v1.4589996
		h-3.1780014v1.4490051h2.8880005V150.1159973z"/>
	<path class="st1" d="M100.5619965,153.2740021l-2.4179993-4.4779968l0.0400009,4.4779968h-1.5790024v-7.4960022h1.5790024
		l2.4179993,4.4779968l-0.0400009-4.4779968h1.5790024v7.4960022H100.5619965z"/>
	<path class="st1" d="M106.163002,147.2369995v6.0370026h-1.598999v-6.0370026h-1.8089981v-1.4589996h5.2170029v1.4589996
		H106.163002z"/>
	<path class="st1" d="M110.3949966,153.2740021v-7.4960022h1.598999v7.4960022H110.3949966z"/>
	<path class="st1" d="M116.9820023,153.2740021l-2.4179993-4.4779968l0.0400009,4.4779968h-1.5790024v-7.4960022h1.5790024
		l2.4179993,4.4779968l-0.0400009-4.4779968h1.5790024v7.4960022H116.9820023z"/>
	<path class="st1" d="M123.9120026,150.2149963h-2.8280029v3.0590057h-1.598999v-7.4960022h4.7269974v1.4589996h-3.1269989
		v1.5500031h2.8280029v1.4279938H123.9120026z"/>
	<path class="st1" d="M126.4430008,153.2740021h-1.5999985v-7.4960022h2.5490036
		c2.0190048,0,2.6789932,0.9199982,2.6789932,2.348999c0,0.9299927-0.2599945,1.6399994-1.0500031,2.0200043l1.3289948,3.128006
		h-1.8690033l-1.0090027-2.8090057h-1.0289993v2.8079987H126.4430008z M126.4430008,149.0160065h1.0889969
		c0.7100067,0,0.8000031-0.4790039,0.8000031-0.8899994c0-0.4199982-0.0899963-0.8899994-0.8000031-0.8899994h-1.0889969
		V149.0160065z"/>
	<path class="st1" d="M130.6340027,153.2740021l2.0789948-7.5359955h1.8390045l2.0789948,7.5359955h-1.6990051l-0.3500061-1.5390015
		h-1.8990021l-0.3500061,1.5390015H130.6340027z M132.9929962,150.4649963h1.279007l-0.6399994-2.8379974L132.9929962,150.4649963z"
		/>
	<path class="st1" d="M142.2709961,150.8849945c0,1.8589935-1.1690063,2.5279999-2.9380035,2.5279999
		c-0.8099976,0-1.8000031-0.1399994-2.3390045-0.4600067v-1.6390076c0.3500061,0.1999969,1.1889954,0.5800018,2.1790009,0.5800018
		c1.1289978,0,1.4589996-0.3509979,1.4589996-0.8589935c0-0.5700073-0.25-0.7599945-1.0099945-0.8600006
		c-1.897995-0.25-2.628006-0.8099976-2.628006-2.2779999c0-1.3589935,0.8289948-2.2590027,2.8090057-2.2590027
		c1.0189972,0,1.7689972,0.1799927,2.1179962,0.3699951v1.548996c-0.4089966-0.1999969-1.2389984-0.3990021-1.9989929-0.3990021
		c-0.8289948,0-1.2890015,0.2599945-1.2890015,0.7389984c0,0.5399933,0.2899933,0.7100067,1.0690002,0.8190002
		C141.3609924,148.9470062,142.2709961,149.2859955,142.2709961,150.8849945z"/>
	<path class="st1" d="M145.8419952,147.2369995v6.0370026h-1.598999v-6.0370026h-1.8099976v-1.4589996h5.2180023v1.4589996
		H145.8419952z"/>
	<path class="st1" d="M149.8630066,153.2740021h-1.6000061v-7.4960022h2.548996c2.0189972,0,2.6790009,0.9199982,2.6790009,2.348999
		c0,0.9299927-0.2599945,1.6399994-1.0500031,2.0200043l1.3289948,3.128006h-1.8690033l-1.0090027-2.8090057h-1.029007v2.8079987
		H149.8630066z M149.8630066,149.0160065h1.0890045c0.7100067,0,0.8000031-0.4790039,0.8000031-0.8899994
		c0-0.4199982-0.0899963-0.8899994-0.8000031-0.8899994h-1.0890045V149.0160065z"/>
	<path class="st1" d="M154.2640076,150.9049988v-5.1269989h1.598999v5.0480042c0,0.9689941,0.6300049,1.1390076,1.1889954,1.1390076
		s1.1889954-0.1699982,1.1889954-1.1390076v-5.0480042h1.6000061v5.1269989c0,2.0599976-1.6490021,2.5090027-2.7890015,2.5090027
		C155.9129944,153.4140015,154.2640076,152.9640045,154.2640076,150.9049988z"/>
	<path class="st1" d="M163.901001,145.6380005c0.8699951,0,1.2599945,0.1600037,1.5599976,0.2799988v1.5090027
		c-0.4499969-0.1799927-0.8000031-0.2899933-1.3990021-0.2899933c-1.2200012,0-1.779007,0.4900055-1.779007,2.3889923
		c0,1.8990021,0.5599976,2.3890076,1.779007,2.3890076c0.6000061,0,0.9490051-0.1089935,1.3990021-0.2899933v1.5099945
		c-0.3000031,0.1199951-0.6889954,0.279007-1.5599976,0.279007c-2.1880035,0-3.2279968-1.0690002-3.2380066-3.8880005
		C160.673996,146.7079926,161.7129974,145.6380005,163.901001,145.6380005z"/>
	<path class="st1" d="M169.2319946,147.2369995v6.0370026h-1.6000061v-6.0370026h-1.8090057v-1.4589996h5.2169952v1.4589996
		H169.2319946z"/>
	<path class="st1" d="M171.6040039,150.9049988v-5.1269989h1.6000061v5.0480042
		c0,0.9689941,0.6300049,1.1390076,1.1889954,1.1390076s1.1889954-0.1699982,1.1889954-1.1390076v-5.0480042h1.598999v5.1269989
		c0,2.0599976-1.6490021,2.5090027-2.7879944,2.5090027C173.253006,153.4140015,171.6040039,152.9640045,171.6040039,150.9049988z"
		/>
	<path class="st1" d="M179.6529999,153.2740021h-1.6000061v-7.4960022h2.548996c2.0189972,0,2.6790009,0.9199982,2.6790009,2.348999
		c0,0.9299927-0.2599945,1.6399994-1.0500031,2.0200043l1.3289948,3.128006h-1.8690033l-1.0090027-2.8090057h-1.029007v2.8079987
		H179.6529999z M179.6529999,149.0160065h1.0890045c0.7100067,0,0.8000031-0.4790039,0.8000031-0.8899994
		c0-0.4199982-0.0899963-0.8899994-0.8000031-0.8899994h-1.0890045V149.0160065z"/>
	<path class="st1" d="M188.5910034,150.1159973h-2.8880005v1.6990051h3.1779938v1.4589996h-4.7769928v-7.4960022h4.7769928
		v1.4589996h-3.1779938v1.4490051h2.8880005V150.1159973z"/>
	<path class="st1" d="M189.2839966,154.522995l0.3099976-2.7480011h1.6990051l-0.9199982,2.7480011H189.2839966z"/>
</g>
<g class="st2">
	<path class="st1" d="M57.6599998,165.272995h-1.598999v-7.4960022h2.5390015c1.9990005,0,2.6879997,1.1699982,2.6879997,2.4490051
		c0,1.298996-0.6899986,2.447998-2.6879997,2.447998h-0.9400024V165.272995z M57.6599998,161.2359924h0.9490013
		c0.7999992,0,0.9500008-0.6089935,0.9500008-0.9989929s-0.1500015-1-0.9500008-1h-0.9490013V161.2359924z"/>
	<path class="st1" d="M63.4589996,165.272995h-1.598999v-7.4960022h2.5480042c2.0189972,0,2.6789932,0.9199982,2.6789932,2.348999
		c0,0.9299927-0.2600021,1.6399994-1.0490036,2.0189972l1.3290024,3.128006h-1.8689957l-1.0090027-2.8090057h-1.0289993v2.8090057
		H63.4589996z M63.4589996,161.0160065h1.0890045c0.7089996,0,0.798996-0.4790039,0.798996-0.8899994
		c0-0.4199982-0.0899963-0.8899994-0.798996-0.8899994h-1.0890045V161.0160065z"/>
	<path class="st1" d="M67.8600006,161.526001c0-2.2890015,0.6299973-3.8880005,2.987999-3.8880005
		c2.3590012,0,2.9889984,1.598999,2.9889984,3.8880005s-0.6299973,3.8869934-2.9889984,3.8869934
		C68.4899979,165.4129944,67.8600006,163.8139954,67.8600006,161.526001z M69.4789963,161.526001
		c0,1.7489929,0.3799973,2.4380035,1.3690033,2.4380035c0.9899979,0,1.3700027-0.6889954,1.3700027-2.4380035
		c0-1.7489929-0.3799973-2.4380035-1.3700027-2.4380035C69.8590012,159.0870056,69.4789963,159.7769928,69.4789963,161.526001z"/>
	<path class="st1" d="M79.0179977,164.3639984h-1.6190033l-1.1600037-3.6779938l0.0500031,4.5870056h-1.5789948v-7.4960022
		h2.0090027l1.4889984,4.6669922l1.4889984-4.6669922h2.0090027v7.4960022h-1.5790024l0.0500031-4.5870056L79.0179977,164.3639984z"
		/>
	<path class="st1" d="M82.5800018,161.526001c0-2.2890015,0.6299973-3.8880005,2.987999-3.8880005
		c2.3590012,0,2.9889984,1.598999,2.9889984,3.8880005s-0.6299973,3.8869934-2.9889984,3.8869934
		C83.2099991,165.4129944,82.5800018,163.8139954,82.5800018,161.526001z M84.1989975,161.526001
		c0,1.7489929,0.3799973,2.4380035,1.3690033,2.4380035c0.9899979,0,1.3700027-0.6889954,1.3700027-2.4380035
		c0-1.7489929-0.3799973-2.4380035-1.3700027-2.4380035C84.5790024,159.0870056,84.1989975,159.7769928,84.1989975,161.526001z"/>
	<path class="st1" d="M92.1279984,159.2369995v6.0370026h-1.598999v-6.0370026h-1.8089981v-1.4589996h5.2170029v1.4589996
		H92.1279984z"/>
	<path class="st1" d="M99.038002,162.1150055h-2.8880005v1.6990051h3.1780014v1.4589996h-4.7779999v-7.4960022h4.7770004v1.4589996
		h-3.1780014v1.4490051h2.8880005v1.4299927H99.038002z"/>
	<path class="st1" d="M102.2600021,165.272995v-7.4960022h1.598999v7.4960022H102.2600021z"/>
	<path class="st1" d="M108.8470001,165.272995l-2.4179993-4.477005l0.0400009,4.477005h-1.5790024v-7.4960022h1.5790024
		l2.4179993,4.477005l-0.0400009-4.477005h1.5790024v7.4960022H108.8470001z"/>
	<path class="st1" d="M114.538002,157.6380005c0.8700027,0,1.2590027,0.1600037,1.5589981,0.2799988v1.5090027
		c-0.4499969-0.1799927-0.7990036-0.2899933-1.3990021-0.2899933c-1.2200012,0-1.7789993,0.4900055-1.7789993,2.3889923
		c0,1.8990021,0.5599976,2.3880005,1.7789993,2.3880005c0.5999985,0,0.9489975-0.1089935,1.3990021-0.2899933v1.5099945
		c-0.3000031,0.1199951-0.689003,0.279007-1.5589981,0.279007c-2.189003,0-3.2279968-1.0690002-3.237999-3.8869934
		C111.3099976,158.7079926,112.348999,157.6380005,114.538002,157.6380005z"/>
	<path class="st1" d="M118.5690002,163.8139954h3.0279999v1.4589996h-4.6269989v-7.4960022h1.598999V163.8139954z"/>
	<path class="st1" d="M122.1200027,162.904007v-5.1260071h1.598999v5.0469971c0,0.9689941,0.6299973,1.1390076,1.189003,1.1390076
		s1.189003-0.1699982,1.189003-1.1390076v-5.0469971h1.5999985v5.1260071c0,2.0599976-1.6490021,2.5090027-2.7890015,2.5090027
		C123.7689972,165.4129944,122.1200027,164.9640045,122.1200027,162.904007z"/>
	<path class="st1" d="M133.746994,162.8849945c0,1.8589935-1.1690063,2.5279999-2.9380035,2.5279999
		c-0.8099976,0-1.7990112-0.1399994-2.3389893-0.4600067v-1.6390076c0.3499908,0.1999969,1.1889954,0.5800018,2.1789856,0.5800018
		c1.1300049,0,1.4589996-0.3509979,1.4589996-0.8589935c0-0.5700073-0.2489929-0.7599945-1.0090027-0.8600006
		c-1.8990021-0.25-2.6289978-0.8090057-2.6289978-2.2779999c0-1.3589935,0.8300018-2.2590027,2.8090057-2.2590027
		c1.0200043,0,1.7700043,0.1799927,2.1190033,0.3699951v1.548996c-0.4100037-0.1999969-1.2389984-0.3990021-1.9989929-0.3990021
		c-0.8300018,0-1.2890015,0.2599945-1.2890015,0.7389984c0,0.5399933,0.2890015,0.7100067,1.0690002,0.8190002
		C132.8379974,160.9470062,133.746994,161.2859955,133.746994,162.8849945z"/>
	<path class="st1" d="M134.6300049,165.272995v-7.4960022h1.598999v7.4960022H134.6300049z"/>
	<path class="st1" d="M142.9960022,157.7779999l-2.0789948,7.5359955h-1.8390045l-2.0789948-7.5359955h1.6990051
		l1.3000031,5.7070007l1.298996-5.7070007H142.9960022z"/>
	<path class="st1" d="M148.1459961,162.1150055h-2.8880005v1.6990051h3.1779938v1.4589996h-4.7769928v-7.4960022h4.7769928
		v1.4589996h-3.1779938v1.4490051h2.8880005V162.1150055z"/>
	<path class="st1" d="M150.9989929,165.272995l2.0789948-7.5359955h1.8390045l2.0789948,7.5359955h-1.6990051l-0.3500061-1.5390015
		h-1.8990021l-0.3500061,1.5390015H150.9989929z M153.3580017,162.4649963h1.279007l-0.6399994-2.8370056L153.3580017,162.4649963z"
		/>
	<path class="st1" d="M161.6170044,165.272995l-2.4190063-4.477005l0.0399933,4.477005h-1.5789948v-7.4960022h1.5789948
		l2.4190063,4.477005l-0.0399933-4.477005h1.5789948v7.4960022H161.6170044z"/>
	<path class="st1" d="M164.1190033,165.272995v-7.4960022h2.4290009c2.5390015,0,3.197998,1.6190033,3.197998,3.7480011
		c0,2.128006-0.6589966,3.7480011-3.197998,3.7480011H164.1190033z M165.7189941,163.8139954h0.8589935
		c1.1690063,0,1.5090027-0.8399963,1.5090027-2.2890015c0-1.4389954-0.3399963-2.2890015-1.5090027-2.2890015h-0.8589935
		V163.8139954z"/>
</g>
<g class="st2">
	<path class="st1" d="M40.9480019,174.8849945c0,1.8589935-1.1689987,2.5279999-2.9379997,2.5279999
		c-0.8100014,0-1.7989998-0.1399994-2.3390007-0.4600067v-1.6390076c0.3499985,0.1999969,1.1889992,0.5800018,2.1790009,0.5800018
		c1.1290016,0,1.4589996-0.3509979,1.4589996-0.8589935c0-0.5700073-0.25-0.7599945-1.0099983-0.8600006
		c-1.8989983-0.25-2.6279984-0.8099976-2.6279984-2.2779999c0-1.3589935,0.8300018-2.2590027,2.8089981-2.2590027
		c1.019001,0,1.769001,0.1799927,2.1189995,0.3699951v1.548996c-0.4099998-0.1999969-1.2389984-0.3990021-1.9990005-0.3990021
		c-0.8300018,0-1.2890015,0.2599945-1.2890015,0.7389984c0,0.5399933,0.2900009,0.7100067,1.0690002,0.8190002
		C40.0390015,172.9459991,40.9480019,173.2850037,40.9480019,174.8849945z"/>
	<path class="st1" d="M41.6699982,174.904007v-5.1269989h1.598999v5.0480042c0,0.9689941,0.6300011,1.1390076,1.1889992,1.1390076
		s1.1889992-0.1699982,1.1889992-1.1390076v-5.0480042h1.598999v5.1269989c0,2.0599976-1.6489983,2.5090027-2.7890015,2.5090027
		S41.6699982,176.9640045,41.6699982,174.904007z"/>
	<path class="st1" d="M53.2970009,174.8849945c0,1.8589935-1.1689987,2.5279999-2.9379997,2.5279999
		c-0.8100014,0-1.7989998-0.1399994-2.3390007-0.4600067v-1.6390076c0.3499985,0.1999969,1.1889992,0.5800018,2.1790009,0.5800018
		c1.1290016,0,1.4589996-0.3509979,1.4589996-0.8589935c0-0.5700073-0.25-0.7599945-1.0099983-0.8600006
		c-1.8989983-0.25-2.6279984-0.8099976-2.6279984-2.2779999c0-1.3589935,0.8300018-2.2590027,2.8089981-2.2590027
		c1.019001,0,1.769001,0.1799927,2.1189995,0.3699951v1.548996c-0.4099998-0.1999969-1.2389984-0.3990021-1.9990005-0.3990021
		c-0.8300018,0-1.2890015,0.2599945-1.2890015,0.7389984c0,0.5399933,0.2900009,0.7100067,1.0690002,0.8190002
		C52.3880005,172.9459991,53.2970009,173.2850037,53.2970009,174.8849945z"/>
	<path class="st1" d="M56.8689995,171.2359924v6.0370026h-1.598999v-6.0370026h-1.8100014v-1.4589996h5.2169991v1.4589996
		H56.8689995z"/>
	<path class="st1" d="M58.2299995,177.272995l2.0789986-7.5359955h1.8390007l2.0789986,7.5359955h-1.6990013l-0.3499985-1.5390015
		h-1.8989983l-0.3499985,1.5390015H58.2299995z M60.5890007,174.4649963H61.868l-0.6399994-2.8379974L60.5890007,174.4649963z"/>
	<path class="st1" d="M65,177.272995v-7.4960022h1.5999985v7.4960022H65z"/>
	<path class="st1" d="M71.5879974,177.272995l-2.4179993-4.4779968l0.0400009,4.4779968h-1.5800018v-7.4960022h1.5790024
		l2.4179993,4.4779968l-0.0400009-4.4779968h1.5790024v7.4960022H71.5879974z"/>
	<path class="st1" d="M73.8300018,177.272995l2.0790024-7.5359955h1.8389969l2.0790024,7.5359955H78.128006l-0.3499985-1.5390015
		h-1.8990021l-0.3499985,1.5390015H73.8300018z M76.189003,174.4649963h1.2789993l-0.6399994-2.8379974L76.189003,174.4649963z"/>
	<path class="st1" d="M80.4909973,169.7769928h2.6880035c1.8990021,0,2.4179993,0.8990021,2.4179993,2.1190033
		c0,0.6399994-0.3199997,1.1589966-0.8099976,1.4190063c0.5599976,0.1900024,1.0289993,0.7400055,1.0289993,1.6690063
		c0,1.3000031-0.5889969,2.2890015-2.5979996,2.2890015h-2.7290039v-7.4960175H80.4909973z M83.1190033,171.1369934h-1.029007
		v1.6089935h1.0289993c0.6600037,0,0.7789993-0.4600067,0.7789993-0.8000031
		C83.8980026,171.5970001,83.7890015,171.1369934,83.1190033,171.1369934z M82.0899963,175.9140015h1.1090012
		c0.6689987,0,0.9189987-0.3899994,0.9189987-0.9389954c0-0.5599976-0.2600021-0.9299927-0.9189987-0.9299927h-1.1090012
		V175.9140015z"/>
	<path class="st1" d="M88.0999985,175.8139954h3.0279999v1.4589996H86.5v-7.4960022h1.5999985V175.8139954z"/>
	<path class="st1" d="M96.1880035,174.1150055h-2.8880005v1.6990051h3.1780014v1.4589996h-4.7780075v-7.4960022h4.7770004v1.4589996
		H93.298996v1.4490051h2.8880005v1.4299927H96.1880035z"/>
	<path class="st1" d="M99.4100037,177.272995v-7.4960022h1.598999v7.4960022H99.4100037z"/>
	<path class="st1" d="M105.9980011,177.272995l-2.4179993-4.4779968l0.0400009,4.4779968h-1.5790024v-7.4960022h1.5790024
		l2.4179993,4.4779968l-0.0400009-4.4779968h1.5790024v7.4960022H105.9980011z"/>
	<path class="st1" d="M108.5,177.272995v-7.4960022h2.4280014c2.5390015,0,3.197998,1.6190033,3.197998,3.7480011
		s-0.6589966,3.7480011-3.197998,3.7480011H108.5z M110.098999,175.8139954h0.8590012
		c1.1689987,0,1.5090027-0.8399963,1.5090027-2.2890015c0-1.4389954-0.3399963-2.2890015-1.5090027-2.2890015h-0.8590012
		V175.8139954z"/>
	<path class="st1" d="M114.9000015,174.904007v-5.1269989h1.598999v5.0480042c0,0.9689941,0.6299973,1.1390076,1.189003,1.1390076
		s1.189003-0.1699982,1.189003-1.1390076v-5.0480042h1.598999v5.1269989c0,2.0599976-1.6490021,2.5090027-2.7890015,2.5090027
		S114.9000015,176.9640045,114.9000015,174.904007z"/>
	<path class="st1" d="M126.526001,174.8849945c0,1.8589935-1.1689987,2.5279999-2.9380035,2.5279999
		c-0.8099976,0-1.7990036-0.1399994-2.3389969-0.4600067v-1.6390076c0.3499985,0.1999969,1.189003,0.5800018,2.1790009,0.5800018
		c1.1289978,0,1.4589996-0.3509979,1.4589996-0.8589935c0-0.5700073-0.25-0.7599945-1.0090027-0.8600006
		c-1.8990021-0.25-2.6279984-0.8099976-2.6279984-2.2779999c0-1.3589935,0.8300018-2.2590027,2.8089981-2.2590027
		c1.0189972,0,1.7689972,0.1799927,2.1180038,0.3699951v1.548996c-0.4089966-0.1999969-1.2389984-0.3990021-1.9990005-0.3990021
		c-0.8290024,0-1.2890015,0.2599945-1.2890015,0.7389984c0,0.5399933,0.2900009,0.7100067,1.0690002,0.8190002
		C125.6169968,172.9459991,126.526001,173.2850037,126.526001,174.8849945z"/>
	<path class="st1" d="M130.0980072,171.2359924v6.0370026h-1.598999v-6.0370026h-1.8099976v-1.4589996h5.2180023v1.4589996
		H130.0980072z"/>
	<path class="st1" d="M134.1190033,177.272995h-1.6000061v-7.4960022h2.548996c2.0189972,0,2.6790009,0.9199982,2.6790009,2.348999
		c0,0.9299927-0.2599945,1.6399994-1.0500031,2.0200043l1.3289948,3.128006h-1.8690033l-1.0090027-2.8090057h-1.029007v2.8079987
		H134.1190033z M134.1190033,173.0160065h1.0890045c0.7100067,0,0.8000031-0.4790039,0.8000031-0.8899994
		c0-0.4199982-0.0899963-0.8899994-0.8000031-0.8899994h-1.0890045V173.0160065z"/>
	<path class="st1" d="M138.6799927,177.272995v-7.4960022h1.598999v7.4960022H138.6799927z"/>
	<path class="st1" d="M141.048996,177.272995l2.0789948-7.5359955h1.8390045l2.0789948,7.5359955h-1.6990051l-0.3500061-1.5390015
		h-1.8990021l-0.3500061,1.5390015H141.048996z M143.4080048,174.4649963h1.279007l-0.6399994-2.8379974L143.4080048,174.4649963z"
		/>
	<path class="st1" d="M149.3090057,175.8139954h3.0279999v1.4589996h-4.628006v-7.4960022h1.6000061V175.8139954z"/>
	<path class="st1" d="M153.0200043,177.272995v-7.4960022h1.598999v7.4960022H153.0200043z"/>
	<path class="st1" d="M155.4889984,177.272995v-1.0599976l3.3480072-4.8970032l-3.0480042,0.0299988v-1.5690002h5.2369995v1.0599976
		l-3.348999,4.8970032l3.4980011-0.0299988v1.5690002H155.4889984z"/>
	<path class="st1" d="M161.6790009,177.272995l2.0789948-7.5359955h1.8390045l2.0789948,7.5359955h-1.6990051l-0.3500061-1.5390015
		h-1.8990021l-0.3500061,1.5390015H161.6790009z M164.0379944,174.4649963h1.279007l-0.6399994-2.8379974L164.0379944,174.4649963z"
		/>
	<path class="st1" d="M170.4869995,171.2359924v6.0370026h-1.598999v-6.0370026h-1.8099976v-1.4589996h5.2180023v1.4589996
		H170.4869995z"/>
	<path class="st1" d="M173.0189972,177.272995v-7.4960022h1.6000061v7.4960022H173.0189972z"/>
	<path class="st1" d="M175.598999,173.5249939c0-2.2890015,0.6300049-3.8880005,2.9880066-3.8880005
		c2.3589935,0,2.9889984,1.598999,2.9889984,3.8880005s-0.6300049,3.8880005-2.9889984,3.8880005
		C176.2290039,177.4129944,175.598999,175.8139954,175.598999,173.5249939z M177.2180023,173.5249939
		c0,1.7489929,0.3800049,2.4380035,1.3690033,2.4380035c0.9900055,0,1.3699951-0.6889954,1.3699951-2.4380035
		s-0.3800049-2.4380035-1.3699951-2.4380035C177.5980072,171.0870056,177.2180023,171.776001,177.2180023,173.5249939z"/>
	<path class="st1" d="M186.4060059,177.272995l-2.4179993-4.4779968l0.0399933,4.4779968h-1.5789948v-7.4960022h1.5789948
		l2.4179993,4.4779968l-0.0399933-4.4779968h1.5789948v7.4960022H186.4060059z"/>
</g>
<g class="st2">
	<path class="st1" d="M56.5690002,189.272995l2.0789986-7.5359955h1.8390007l2.0789986,7.5359955h-1.6990013l-0.3499985-1.5390015
		H58.618l-0.3499985,1.5390015H56.5690002z M58.9280014,186.4649963h1.2789993l-0.6399994-2.8379974L58.9280014,186.4649963z"/>
	<path class="st1" d="M67.1869965,189.272995l-2.4179993-4.4779968l0.0400009,4.4779968h-1.5789986v-7.4960022h1.5789986
		l2.4179993,4.4779968l-0.0400009-4.4779968h1.5790024v7.4960022H67.1869965z"/>
	<path class="st1" d="M69.689003,189.272995v-7.4960022h2.4280014c2.5390015,0,3.197998,1.6190033,3.197998,3.7480011
		s-0.6589966,3.7480011-3.197998,3.7480011H69.689003z M71.2890015,187.8139954h0.8590012
		c1.1689987,0,1.5090027-0.8399963,1.5090027-2.2890015c0-1.4389954-0.3399963-2.2890015-1.5090027-2.2890015h-0.8590012
		V187.8139954z"/>
	<path class="st1" d="M82.5660019,186.2149963H79.737999v3.0590057h-1.598999v-7.4960022h4.7269974v1.4589996H79.737999v1.5500031
		h2.8280029V186.2149963z"/>
	<path class="st1" d="M83.4489975,185.5249939c0-2.2890015,0.6299973-3.8880005,2.987999-3.8880005
		c2.3590012,0,2.9889984,1.598999,2.9889984,3.8880005s-0.6299973,3.8880005-2.9889984,3.8880005
		C84.0790024,189.4129944,83.4489975,187.8139954,83.4489975,185.5249939z M85.0680008,185.5249939
		c0,1.7489929,0.3799973,2.4380035,1.3690033,2.4380035c0.9899979,0,1.3700027-0.6889954,1.3700027-2.4380035
		s-0.3799973-2.4380035-1.3700027-2.4380035C85.447998,183.0870056,85.0680008,183.776001,85.0680008,185.5249939z"/>
	<path class="st1" d="M95.4759979,186.8849945c0,1.8589935-1.1689987,2.5279999-2.9380035,2.5279999
		c-0.8099976,0-1.7990036-0.1399994-2.3389969-0.4600067v-1.6390076c0.3499985,0.1999969,1.189003,0.5800018,2.1790009,0.5800018
		c1.1289978,0,1.4589996-0.3509979,1.4589996-0.8589935c0-0.5700073-0.25-0.7599945-1.0100021-0.8600006
		c-1.8990021-0.25-2.6279984-0.8099976-2.6279984-2.2779999c0-1.3589935,0.8300018-2.2590027,2.8089981-2.2590027
		c1.0189972,0,1.7689972,0.1799927,2.1190033,0.3699951v1.548996c-0.4100037-0.1999969-1.2389984-0.3990021-1.9990005-0.3990021
		c-0.8300018,0-1.2890015,0.2599945-1.2890015,0.7389984c0,0.5399933,0.2900009,0.7100067,1.0690002,0.8190002
		C94.5670013,184.9459991,95.4759979,185.2850037,95.4759979,186.8849945z"/>
	<path class="st1" d="M99.0469971,183.2359924v6.0370026h-1.598999v-6.0370026h-1.8089981v-1.4589996h5.2170029v1.4589996
		H99.0469971z"/>
	<path class="st1" d="M105.9570007,186.1150055h-2.8880005v1.6990051h3.1780014v1.4589996h-4.7770004v-7.4960022h4.7770004
		v1.4589996h-3.1780014v1.4490051h2.8880005V186.1150055z"/>
	<path class="st1" d="M108.6679993,189.272995h-1.598999v-7.4960022h2.5479965c2.0189972,0,2.6790009,0.9199982,2.6790009,2.348999
		c0,0.9299927-0.2600021,1.6399994-1.0490036,2.0200043l1.3290024,3.128006h-1.8690033l-1.0090027-2.8090057h-1.0289993v2.8079987
		H108.6679993z M108.6679993,185.0160065h1.0889969c0.7089996,0,0.7990036-0.4790039,0.7990036-0.8899994
		c0-0.4199982-0.0899963-0.8899994-0.7990036-0.8899994h-1.0889969V185.0160065z"/>
	<path class="st1" d="M115.2289963,189.272995v-7.4960022h1.598999v7.4960022H115.2289963z"/>
	<path class="st1" d="M121.8160019,189.272995l-2.4179993-4.4779968l0.0400009,4.4779968h-1.5790024v-7.4960022h1.5790024
		l2.4179993,4.4779968l-0.0400009-4.4779968h1.5790024v7.4960022H121.8160019z"/>
	<path class="st1" d="M128.276001,189.272995l-2.4179993-4.4779968l0.0400009,4.4779968h-1.5790024v-7.4960022h1.5790024
		l2.4180069,4.4779968l-0.0400085-4.4779968h1.57901v7.4960022H128.276001z"/>
	<path class="st1" d="M130.7290039,185.5249939c0-2.2890015,0.6300049-3.8880005,2.9880066-3.8880005
		c2.3589935,0,2.9889984,1.598999,2.9889984,3.8880005s-0.6300049,3.8880005-2.9889984,3.8880005
		C131.3580017,189.4129944,130.7290039,187.8139954,130.7290039,185.5249939z M132.3480072,185.5249939
		c0,1.7489929,0.3800049,2.4380035,1.3690033,2.4380035c0.9900055,0,1.3699951-0.6889954,1.3699951-2.4380035
		s-0.3800049-2.4380035-1.3699951-2.4380035C132.7279968,183.0870056,132.3480072,183.776001,132.3480072,185.5249939z"/>
	<path class="st1" d="M143.1159973,181.7769928l-2.0789948,7.5359955h-1.8390045l-2.0789948-7.5359955h1.6990051l1.298996,5.7070007
		l1.3000031-5.7070007H143.1159973z"/>
	<path class="st1" d="M142.6190033,189.272995l2.0789948-7.5359955h1.8390045l2.0789948,7.5359955h-1.6990051l-0.3500061-1.5390015
		h-1.8990021l-0.3500061,1.5390015H142.6190033z M144.9779968,186.4649963h1.279007l-0.6399994-2.8379974L144.9779968,186.4649963z"
		/>
	<path class="st1" d="M151.4279938,183.2359924v6.0370026h-1.6000061v-6.0370026h-1.8090057v-1.4589996h5.2169952v1.4589996
		H151.4279938z"/>
	<path class="st1" d="M153.9589996,189.272995v-7.4960022h1.598999v7.4960022H153.9589996z"/>
	<path class="st1" d="M156.5390015,185.5249939c0-2.2890015,0.6300049-3.8880005,2.9880066-3.8880005
		s2.9880066,1.598999,2.9880066,3.8880005s-0.6300049,3.8880005-2.9880066,3.8880005
		S156.5390015,187.8139954,156.5390015,185.5249939z M158.1580048,185.5249939c0,1.7489929,0.3800049,2.4380035,1.3690033,2.4380035
		s1.3690033-0.6889954,1.3690033-2.4380035s-0.3800049-2.4380035-1.3690033-2.4380035
		S158.1580048,183.776001,158.1580048,185.5249939z"/>
	<path class="st1" d="M167.3470001,189.272995l-2.4190063-4.4779968l0.0399933,4.4779968h-1.5789948v-7.4960022h1.5789948
		l2.4190063,4.4779968l-0.0399933-4.4779968h1.5789948v7.4960022H167.3470001z"/>
</g>
</svg>
