<?xml version="1.0" encoding="utf-8"?>
<!-- Generator: Adobe Illustrator 20.1.0, SVG Export Plug-In . SVG Version: 6.00 Build 0)  -->
<svg version="1.1" id="Layer_1" xmlns="http://www.w3.org/2000/svg" xmlns:xlink="http://www.w3.org/1999/xlink" x="0px" y="0px"
	 width="218px" height="218px" viewBox="0 0 218 218" style="enable-background:new 0 0 218 218;" xml:space="preserve">
<style type="text/css">
	.st0{fill:#5CBA47;}
	.st1{fill:#FFFFFF;}
</style>
<g>
	<circle class="st0" cx="109.3821716" cy="108.9393158" r="108"/>
</g>
<g>
	<path class="st1" d="M67.3564453,22.4570312v31.9521484H59.355957V30.4077148l-5.550293,0.2001953v-5.550293l9.550293-2.6005859
		H67.3564453z"/>
	<path class="st1" d="M73.2050781,59.659668V52.559082c1.9501953,0.7998047,5.6005859,1.5,8.6005859,1.5
		c3.8500977,0,6.5004883-1.1000977,6.5004883-5.2504883c0-4.25-2.4501953-4.7998047-6.0004883-4.7998047h-8.1503906V23.1572266
		h21.0014648v7.5004883H81.9057617v6.050293h2.9003906c5.550293,0,11.4506836,1.6000977,11.4506836,12.1005859
		c0,10.7509766-6.9506836,12.5507812-14.1508789,12.5507812C78.5556641,61.359375,75.4555664,60.7597656,73.2050781,59.659668z"/>
</g>
<g>
	<path class="st1" d="M110.1972656,31.3808594h4.8505859v2.3369141h-7.4116211V21.7128906h2.5610352V31.3808594z"/>
	<path class="st1" d="M116.1328125,33.7177734V21.7128906h2.5605469v12.0048828H116.1328125z"/>
	<path class="st1" d="M127.4306641,28.8198242h-4.5292969v4.8979492h-2.5615234V21.7128906h7.5712891v2.3369141h-5.0097656v2.480957
		h4.5292969V28.8198242z"/>
	<path class="st1" d="M136.1025391,28.659668h-4.6259766v2.7211914h5.0898438v2.3369141h-7.6503906V21.7128906h7.6503906v2.3369141
		h-5.0898438v2.3208008h4.6259766V28.659668z"/>
	<path class="st1" d="M140.9960938,27.715332c0-3.6655273,1.0087891-6.2265625,4.7861328-6.2265625
		s4.7861328,2.5610352,4.7861328,6.2265625s-1.0087891,6.2265625-4.7861328,6.2265625S140.9960938,31.3808594,140.9960938,27.715332
		z M143.5888672,27.715332c0,2.8012695,0.6083984,3.9057617,2.1933594,3.9057617
		c1.5839844,0,2.1923828-1.1044922,2.1923828-3.9057617s-0.6083984-3.9057617-2.1923828-3.9057617
		C144.1972656,23.8095703,143.5888672,24.9140625,143.5888672,27.715332z"/>
	<path class="st1" d="M158.2949219,33.7177734l-3.8740234-7.1708984l0.0644531,7.1708984h-2.5292969V21.7128906h2.5292969
		l3.8730469,7.1708984l-0.0634766-7.1708984h2.5283203v12.0048828H158.2949219z"/>
	<path class="st1" d="M110.1972656,50.5810547h4.8505859v2.3369141h-7.4116211V40.9130859h2.5610352V50.5810547z"/>
	<path class="st1" d="M115.5400391,52.9179688l3.3291016-12.0688477h2.9453125l3.3291016,12.0688477h-2.7207031
		l-0.5605469-2.4648438h-3.0410156l-0.5605469,2.4648438H115.5400391z M119.3173828,48.4199219h2.0488281l-1.0244141-4.5454102
		L119.3173828,48.4199219z"/>
	<path class="st1" d="M132.5341797,52.9179688l-3.8730469-7.1708984l0.0634766,7.1708984h-2.5283203V40.9130859h2.5283203
		l3.8740234,7.1708984l-0.0644531-7.1708984h2.5292969v12.0048828H132.5341797z"/>
	<path class="st1" d="M136.5322266,52.9179688V40.9130859h3.8896484c4.0654297,0,5.1220703,2.5932617,5.1220703,6.0024414
		s-1.0566406,6.0024414-5.1220703,6.0024414H136.5322266z M139.0927734,50.5810547h1.3769531
		c1.8730469,0,2.4169922-1.3447266,2.4169922-3.6655273c0-2.3046875-0.5439453-3.6655273-2.4169922-3.6655273h-1.3769531V50.5810547
		z"/>
</g>
<g>
	<path class="st1" d="M102.0801163,96.7783127c0.0933762,0,0.1867447,0.0933685,0.1867447,0.1867447v7.0030136
		c0,0.0933685-0.0933685,0.1867447-0.1867447,0.1867447h-2.894577c-0.0933685,0-0.1867447-0.0933762-0.1867447-0.1867447v-7.0030136
		c0-0.0933762,0.0933762-0.1867447,0.1867447-0.1867447H102.0801163z"/>
	<path class="st1" d="M133.4536285,107.2361526H86.4867477c-0.0933762,0-0.1867447,0.0933685-0.1867447,0.1867371v2.8945847
		c0,0.0933685,0.0933685,0.1867371,0.1867447,0.1867371h46.9668808c0.0933685,0,0.1867371-0.0933685,0.1867371-0.1867371v-2.8945847
		C133.6403656,107.3295212,133.5469818,107.2361526,133.4536285,107.2361526"/>
	<path class="st1" d="M133.4536285,112.9319305H86.4867477c-0.0933762,0-0.1867447,0.0933762-0.1867447,0.1867447v2.894577
		c0,0.0933762,0.0933685,0.1867447,0.1867447,0.1867447h46.9668808c0.0933685,0,0.1867371-0.0933685,0.1867371-0.1867447v-2.894577
		C133.6403656,113.0253067,133.5469818,112.9319305,133.4536285,112.9319305"/>
	<path class="st1" d="M124.4897614,88.9349442c-0.5602417-0.4668655-2.1475983-1.4939728-4.0150681-1.4939728
		c-1.4005966,0-2.6144562,0.5602417-3.7349396,1.5873413c-0.0933685,0.0933762-0.0933685,0.1867447-0.0933685,0.2801285v0.2801132
		c0,0.0933762,0,0.2801285,0.0933685,0.2801285c0.0933762,0.0933685,0.1867447,0.0933685,0.373497,0.0933685h0.0933762
		c0.0933685,0,0.1867447-0.0933685,0.2801208-0.1867447c0.2801208-0.1867447,0.9337311-0.373497,1.8674698-0.373497
		c1.0271072,0,2.9879456,0.2801285,4.8554153,2.0542145l0,0c0.0933762,0.0933762,0.2801285,0.1867447,0.373497,0.1867447
		c0.1867447,0,0.2801285-0.0933685,0.373497-0.1867447l0,0c1.8674698-1.7740936,3.8283157-2.0542145,4.8554153-2.0542145
		c0.9337463,0,1.6807251,0.1867447,1.8674774,0.373497c0.0933685,0.0933762,0.1867371,0.0933762,0.2801208,0.1867447
		c0,0,0.1867371,0,0.2801208,0c0.1867523-0.0933685,0.2801208-0.1867447,0.2801208-0.373497v-0.1867447
		c0-0.0933685,0-0.1867447-0.0933685-0.2801208c-1.1204834-1.1204758-2.4277191-1.6807251-3.8283234-1.6807251
		C126.637352,87.4409637,125.0500031,88.4680786,124.4897614,88.9349442"/>
	<path class="st1" d="M121.5951843,70.2602463c-0.0933762,0.0933685-0.1867447,0.0933685-0.1867447,0.2801208l-0.0933762,0.1867447
		c0,0.0933685,0,0.2801208,0.0933762,0.373497c0.0933685,0.0933685,0.1867447,0.1867447,0.2801208,0.1867447c0,0,0,0,0.0933762,0
		c0.0933685,0,0.1867447,0,0.1867447-0.0933762c0,0,0.0933685,0,0.2801208,0c0.1867447,0,2.1475906,0.0933762,3.3614426,2.1475983
		l0,0c0.0933762,0.0933685,0.1867447,0.1867371,0.2801208,0.2801208c0,0,0.0933762,0,0.1867447,0
		c0.0933762,0,0.1867523,0,0.2801208-0.0933762l0,0c0.6536102-0.3734894,1.4006042-0.5602341,2.0542068-0.5602341
		c1.2138672,0,1.9608612,0.4668655,2.1475983,0.6536102c0,0.0933685,0.0933838,0.0933685,0.1867523,0.1867447
		c0,0,0.0933685,0.0933685,0.1867371,0.0933685c0,0,0,0,0.0933838,0l0,0c0.0933685,0,0.0933685,0,0.1867371-0.0933685
		c0.0933838-0.0933762,0.1867523-0.0933762,0.1867523-0.2801285v-0.0933685v-0.0933685c0-0.0933762,0-0.1867447-0.0933838-0.1867447
		c-0.9337311-1.5873489-2.2409668-1.9608459-3.1746979-1.9608459c-0.7469864,0-1.3072205,0.1867447-1.6807251,0.2801208
		c-0.4668655-0.5602341-1.4939728-1.7740936-3.1746979-1.7740936
		C122.7156677,69.7933731,122.1554184,69.9801178,121.5951843,70.2602463"/>
	<path class="st1" d="M111.6042175,77.4499969v0.1867447c0,0.0933762,0.0933762,0.2801285,0.1867447,0.2801285
		c0.0933762,0.0933685,0.1867447,0.0933685,0.2801285,0.0933685h0.0933685c0.0933762,0,0.1867447-0.0933685,0.1867447-0.1867447
		c0.1867447-0.1867447,0.8403625-0.373497,1.7741013-0.373497c0.9337311,0,2.3343353,0.2801285,3.7349396,1.4006042l0,0
		c0.0933685,0.0933762,0.1867447,0.0933762,0.3734894,0.0933762l0,0c0.1867447,0,0.2801285-0.0933762,0.373497-0.1867447l0,0
		c1.5873489-1.6807251,3.268074-1.8674698,4.1084366-1.8674698c0.6536102,0,1.0271072,0.0933685,1.2138596,0.1867447
		c0.0933685,0.0933685,0.1867447,0.0933685,0.2801208,0.0933685c0,0,0.0933762,0,0.1867447,0h0.0933762
		c0.1867447-0.0933685,0.2801208-0.1867447,0.2801208-0.373497v-0.1867447c0-0.0933685-0.0933685-0.1867371-0.1867447-0.2801208
		c-0.9337311-0.7469864-1.9608383-1.2138596-2.9879456-1.2138596c-1.6807251,0-2.9879532,0.9337387-3.5482025,1.4939804
		c-0.4668655-0.373497-1.6807251-1.0271072-3.1746979-1.0271072c-1.2138596,0-2.3343353,0.5602341-3.3614426,1.4939728
		C111.6975937,77.2632599,111.6042175,77.3566284,111.6042175,77.4499969"/>
	<path class="st1" d="M87.887352,81.1849442c0-2.8012085,2.2409668-5.1355438,5.1355438-5.1355438
		c0.0933685,0,0.1867371,0,0.2801208,0c0.2801208-3.5481949,3.268074-6.3494034,6.8162689-6.3494034
		c3.8283081,0,6.9096375,3.0813293,6.9096375,6.9096375c0,1.1204834-0.2801208,2.0542145-0.6536102,2.9879532
		c3.4548187,0.746994,6.0692749,3.8283081,6.0692749,7.4698792c0,4.2951813-3.4548111,7.6566238-7.6566238,7.6566238
		c-0.2801208,0-10.27108-0.0933685-10.27108-0.0933685l0,0c-2.9879532,0-5.4156723-2.4277115-5.4156723-5.4156723
		c0-1.4005966,0.5602417-2.8012009,1.4939804-3.7349396C88.9144592,84.733139,87.887352,83.1457825,87.887352,81.1849442z"/>
</g>
<g>
	<g>
		<path class="st1" d="M7,132.8999939H5.4000001v-7.5h2.4999995c1.8999996,0,2.6000004,1.1999969,2.6000004,2.3999939
			c0,1.3000031-0.6999998,2.3999939-2.6000004,2.3999939H7V132.8999939z M7,128.8999939h0.8999996
			c0.8000002,0,0.8999996-0.6000061,0.8999996-1s-0.1000004-1-0.8999996-1H7V128.8999939z"/>
	</g>
	<g>
		<path class="st1" d="M12.6000004,132.8999939H11v-7.5h2.5c2,0,2.6000004,0.8999939,2.6000004,2.3000031
			c0,0.8999939-0.2999992,1.6000061-1,2l1.2999992,3.1000061h-1.8000002l-1-2.8000031h-1
			C12.6000004,130,12.6000004,132.8999939,12.6000004,132.8999939z M12.6000004,128.6000061h1.1000004
			c0.6999998,0,0.8000002-0.5,0.8000002-0.8999939s-0.1000004-0.8999939-0.8000002-0.8999939h-1.1000004V128.6000061z"/>
	</g>
	<g>
		<path class="st1" d="M16.8999996,129.1999969c0-2.3000031,0.6000004-3.8999939,2.8999996-3.8999939
			s2.8999996,1.6000061,2.8999996,3.8999939s-0.6000004,3.8999939-2.8999996,3.8999939
			S16.8999996,131.3999939,16.8999996,129.1999969z M18.3999996,129.1999969c0,1.6999969,0.3999996,2.3999939,1.2999992,2.3999939
			s1.2999992-0.6999969,1.2999992-2.3999939s-0.3999996-2.3999939-1.2999992-2.3999939
			S18.3999996,127.3999939,18.3999996,129.1999969z"/>
	</g>
	<g>
		<path class="st1" d="M26.2000008,126.8999939v6h-1.6000004v-6h-1.7999992v-1.5h5.1000004v1.5H26.2000008z"/>
	</g>
	<g>
		<path class="st1" d="M32.9000015,129.6999969h-2.7999992v1.6999969h3.0999985v1.5h-4.6000004v-7.5h4.6000004v1.5h-3.1000004
			v1.3999939h2.8000011V129.6999969z"/>
	</g>
	<g>
		<path class="st1" d="M37.0999985,125.3000031c0.7999992,0,1.2000008,0.1999969,1.5,0.3000031v1.5
			c-0.4000015-0.1999969-0.7999992-0.3000031-1.4000015-0.3000031c-1.2000008,0-1.7000008,0.5-1.7000008,2.3999939
			s0.5,2.3999939,1.7000008,2.3999939c0.5999985,0,0.9000015-0.1000061,1.4000015-0.3000031v1.5
			c-0.2999992,0.1000061-0.7000008,0.3000031-1.5,0.3000031C35,133.0999908,34,131.9999847,34,129.1999969
			C33.9000015,126.3000031,34.9000015,125.3000031,37.0999985,125.3000031z"/>
	</g>
	<g>
		<path class="st1" d="M42.2000008,126.8999939v6h-1.5999985v-6h-1.7999992v-1.5H44v1.5H42.2000008z"/>
	</g>
	<g>
		<path class="st1" d="M43.2999992,134.1000061l0.2999992-2.6999969h1.7000008l-0.9000015,2.6999969H43.2999992z"/>
	</g>
	<g>
		<path class="st1" d="M49.5999985,132.8999939H48v-7.5h2.5c2,0,2.5999985,0.8999939,2.5999985,2.3000031
			c0,0.8999939-0.2999992,1.6000061-1,2l1.2999992,3.1000061h-1.7999992l-1-2.8000031h-1V132.8999939z M49.5999985,128.6000061
			h1.0999985c0.7000008,0,0.7999992-0.5,0.7999992-0.8999939s-0.0999985-0.8999939-0.7999992-0.8999939h-1.0999985V128.6000061z"/>
	</g>
	<g>
		<path class="st1" d="M58.2000008,129.6999969h-2.7999992v1.6999969H58.5v1.5h-4.5999985v-7.5H58.5v1.5h-3.0999985v1.3999939
			h2.7999992V129.6999969z"/>
	</g>
	<g>
		<path class="st1" d="M64.4000015,130.5c0,1.8999939-1.0999985,2.5-2.9000015,2.5c-0.7999992,0-1.7000008-0.1000061-2.2999992-0.5
			v-1.6000061C59.5,131.0999908,60.4000015,131.5,61.2999992,131.5c1.0999985,0,1.4000015-0.3999939,1.4000015-0.8999939
			c0-0.6000061-0.2000008-0.8000031-1-0.8999939c-1.7999992-0.1999969-2.5999985-0.8000031-2.5999985-2.3000031
			c0-1.3999939,0.7999992-2.3000031,2.7000008-2.3000031c1,0,1.6999969,0.1999969,2.0999985,0.3999939v1.5
			C63.5,126.8000031,62.7000008,126.6000061,62,126.6000061c-0.7999992,0-1.2999992,0.3000031-1.2999992,0.6999969
			c0,0.5,0.2999992,0.6999969,1,0.8000031C63.5,128.6000061,64.4000015,128.8999939,64.4000015,130.5z"/>
	</g>
	<g>
		<path class="st1" d="M67.8000031,126.8999939v6h-1.5999985v-6h-1.8000031v-1.5H69.5v1.5H67.8000031z"/>
	</g>
	<g>
		<path class="st1" d="M69.9000015,129.1999969c0-2.3000031,0.5999985-3.8999939,2.9000015-3.8999939
			s2.9000015,1.6000061,2.9000015,3.8999939s-0.5999985,3.8999939-2.9000015,3.8999939
			S69.9000015,131.3999939,69.9000015,129.1999969z M71.4000015,129.1999969c0,1.6999969,0.4000015,2.3999939,1.3000031,2.3999939
			s1.3000031-0.6999969,1.3000031-2.3999939s-0.4000015-2.3999939-1.3000031-2.3999939
			S71.4000015,127.3999939,71.4000015,129.1999969z"/>
	</g>
	<g>
		<path class="st1" d="M78.0999985,132.8999939H76.5v-7.5H79c2,0,2.5999985,0.8999939,2.5999985,2.3000031
			c0,0.8999939-0.3000031,1.6000061-1,2l1.3000031,3.1000061h-1.8000031l-1-2.8000031h-1V132.8999939z M78.0999985,128.6000061
			h1.0999985c0.6999969,0,0.8000031-0.5,0.8000031-0.8999939s-0.0999985-0.8999939-0.8000031-0.8999939h-1.0999985V128.6000061z"/>
	</g>
	<g>
		<path class="st1" d="M86.8000031,129.6999969H84v1.6999969h3v1.5h-4.5999985v-7.5H87v1.5h-3v1.3999939h2.8000031V129.6999969z"/>
	</g>
	<g>
		<path class="st1" d="M89.5,132.8999939l2-7.5h1.8000031l2,7.5h-1.6999969l-0.3000031-1.5H91.5l-0.3000031,1.5H89.5z
			 M91.8000031,130.1000061H93l-0.5999985-2.8000031L91.8000031,130.1000061z"/>
	</g>
	<g>
		<path class="st1" d="M99.9000015,132.8999939l-2.4000015-4.5v4.5H96v-7.5h1.5l2.4000015,4.5v-4.5h1.5v7.5H99.9000015z"/>
	</g>
	<g>
		<path class="st1" d="M102.3000031,132.8999939v-7.5h2.4000015c2.5,0,3.0999985,1.6000061,3.0999985,3.6999969
			c0,2.1000061-0.5999985,3.6999969-3.0999985,3.6999969h-2.4000015V132.8999939z M103.8000031,131.3999939h0.8000031
			c1.0999985,0,1.5-0.8000031,1.5-2.3000031c0-1.3999939-0.3000031-2.3000031-1.5-2.3000031h-0.8000031V131.3999939z"/>
	</g>
	<g>
		<path class="st1" d="M112.0999985,132.8999939H110.5v-7.5h2.5c1.9000015,0,2.5999985,1.1999969,2.5999985,2.3999939
			c0,1.3000031-0.6999969,2.3999939-2.5999985,2.3999939h-0.9000015V132.8999939z M112.0999985,128.8999939H113
			c0.8000031,0,0.9000015-0.6000061,0.9000015-1s-0.0999985-1-0.9000015-1h-0.9000015V128.8999939z"/>
	</g>
	<g>
		<path class="st1" d="M117.6999969,132.8999939h-1.5999985v-7.5h2.5c2,0,2.5999985,0.8999939,2.5999985,2.3000031
			c0,0.8999939-0.3000031,1.6000061-1,2L121.5,132.8000031h-1.8000031l-1-2.8000031h-1V132.8999939z M117.6999969,128.6000061
			h1.0999985c0.6999969,0,0.8000031-0.5,0.8000031-0.8999939s-0.0999985-0.8999939-0.8000031-0.8999939h-1.0999985V128.6000061z"/>
	</g>
	<g>
		<path class="st1" d="M122,129.1999969c0-2.3000031,0.5999985-3.8999939,2.9000015-3.8999939
			c2.2999954,0,2.9000015,1.6000061,2.9000015,3.8999939s-0.6000061,3.8999939-2.9000015,3.8999939S122,131.3999939,122,129.1999969
			z M123.5999985,129.1999969c0,1.6999969,0.4000015,2.3999939,1.3000031,2.3999939s1.3000031-0.6999969,1.3000031-2.3999939
			s-0.4000015-2.3999939-1.3000031-2.3999939S123.5999985,127.3999939,123.5999985,129.1999969z"/>
	</g>
	<g>
		<path class="st1" d="M132.8000031,132h-1.6000061l-1.1000061-3.6999969v4.6000061h-1.5v-7.5h2l1.3999939,4.6999969
			l1.3999939-4.6999969h2v7.5h-1.5v-4.6000061L132.8000031,132z"/>
	</g>
	<g>
		<path class="st1" d="M136.3000031,129.1999969c0-2.3000031,0.6000061-3.8999939,2.8999939-3.8999939
			s2.8999939,1.6000061,2.8999939,3.8999939s-0.6000061,3.8999939-2.8999939,3.8999939
			S136.3000031,131.3999939,136.3000031,129.1999969z M137.8999939,129.1999969
			c0,1.6999969,0.3999939,2.3999939,1.3000031,2.3999939S140.5,130.8999939,140.5,129.1999969
			s-0.3999939-2.3999939-1.3000031-2.3999939S137.8999939,127.3999939,137.8999939,129.1999969z"/>
	</g>
	<g>
		<path class="st1" d="M145.6000061,126.8999939v6H144v-6h-1.8000031v-1.5h5.1000061v1.5H145.6000061z"/>
	</g>
	<g>
		<path class="st1" d="M152.3000031,129.6999969H149.5v1.6999969h3.1000061v1.5H148v-7.5h4.6000061v1.5H149.5v1.3999939h2.8000031
			V129.6999969z"/>
	</g>
	<g>
		<path class="st1" d="M160.3999939,130.5c0,1.8999939-1.1000061,2.5-2.8999939,2.5c-0.8000031,0-1.6999969-0.1000061-2.3000031-0.5
			v-1.6000061C155.5,131.0999908,156.3999939,131.5,157.3000031,131.5c1.1000061,0,1.3999939-0.3999939,1.3999939-0.8999939
			c0-0.6000061-0.1999969-0.8000031-1-0.8999939c-1.8000031-0.1999969-2.6000061-0.8000031-2.6000061-2.3000031
			c0-1.3999939,0.8000031-2.3000031,2.6999969-2.3000031c1,0,1.6999969,0.1999969,2.1000061,0.3999939v1.5
			C159.5,126.8000031,158.6999969,126.6000061,158,126.6000061c-0.8000031,0-1.3000031,0.3000031-1.3000031,0.6999969
			c0,0.5,0.3000031,0.6999969,1,0.8000031C159.5,128.6000061,160.3999939,128.8999939,160.3999939,130.5z"/>
	</g>
	<g>
		<path class="st1" d="M161.1000061,130.5v-5.1000061h1.6000061v5c0,1,0.6000061,1.1000061,1.1999969,1.1000061
			s1.1999969-0.1999969,1.1999969-1.1000061v-5h1.6000061V130.5c0,2.1000061-1.6000061,2.5-2.6999969,2.5
			S161.1000061,132.6000061,161.1000061,130.5z"/>
	</g>
	<g>
		<path class="st1" d="M172.3999939,130.5c0,1.8999939-1.1000061,2.5-2.8999939,2.5c-0.8000031,0-1.6999969-0.1000061-2.3000031-0.5
			v-1.6000061C167.5,131.0999908,168.3999939,131.5,169.3000031,131.5c1.1000061,0,1.3999939-0.3999939,1.3999939-0.8999939
			c0-0.6000061-0.1999969-0.8000031-1-0.8999939c-1.8000031-0.1999969-2.6000061-0.8000031-2.6000061-2.3000031
			c0-1.3999939,0.8000031-2.3000031,2.6999969-2.3000031c1,0,1.6999969,0.1999969,2.1000061,0.3999939v1.5
			C171.5,126.8000031,170.6999969,126.6000061,170,126.6000061c-0.8000031,0-1.3000031,0.3000031-1.3000031,0.6999969
			c0,0.5,0.3000031,0.6999969,1,0.8000031C171.5,128.6000061,172.3999939,128.8999939,172.3999939,130.5z"/>
	</g>
	<g>
		<path class="st1" d="M175.8000031,126.8999939v6h-1.6000061v-6h-1.8000031v-1.5H177.5v1.5H175.8000031z"/>
	</g>
	<g>
		<path class="st1" d="M177.1999969,132.8999939l2-7.5H181l2,7.5h-1.6999969l-0.3000031-1.5h-1.8000031l-0.3000031,1.5H177.1999969z
			 M179.5,130.1000061h1.1999969l-0.6000061-2.8000031L179.5,130.1000061z"/>
	</g>
	<g>
		<path class="st1" d="M183.8000031,132.8999939v-7.5h1.6000061v7.5H183.8000031z"/>
	</g>
	<g>
		<path class="st1" d="M190.1999969,132.8999939l-2.3999939-4.5v4.5h-1.5v-7.5h1.5l2.3999939,4.5v-4.5h1.5v7.5H190.1999969z"/>
	</g>
	<g>
		<path class="st1" d="M192.3000031,132.8999939l2-7.5h1.8000031l2,7.5h-1.6999969l-0.3000031-1.5h-1.8000031l-0.3000031,1.5
			H192.3000031z M194.6000061,130.1000061h1.1999969l-0.6000061-2.8000031L194.6000061,130.1000061z"/>
	</g>
	<g>
		<path class="st1" d="M198.8000031,125.3999939h2.6000061c1.8000031,0,2.3999939,0.8999939,2.3999939,2.1000061
			c0,0.6000061-0.3000031,1.1999969-0.8000031,1.3999939c0.5,0.1999969,1,0.6999969,1,1.6999969
			c0,1.3000031-0.6000061,2.3000031-2.5,2.3000031h-2.6999969V125.3999939z M201.3999939,126.8000031h-1v1.6000061h1
			c0.6000061,0,0.8000031-0.5,0.8000031-0.8000031C202.1000061,127.1999969,202,126.8000031,201.3999939,126.8000031z
			 M200.3999939,131.5H201.5c0.6999969,0,0.8999939-0.3999939,0.8999939-0.8999939
			c0-0.6000061-0.3000031-0.8999939-0.8999939-0.8999939h-1.1000061V131.5z"/>
	</g>
	<g>
		<path class="st1" d="M206.1999969,131.3999939h2.8999939v1.5h-4.5v-7.5h1.6000061V131.3999939z"/>
	</g>
	<g>
		<path class="st1" d="M214.1000061,129.6999969h-2.8000031v1.6999969h3.1000061v1.5h-4.6000061v-7.5h4.6000061v1.5h-3.1000061
			v1.3999939h2.8000031V129.6999969z"/>
	</g>
	<g>
		<path class="st1" d="M32.7999992,142.5v-5.1000061h1.5999985v5c0,1,0.5999985,1.1000061,1.2000008,1.1000061
			s1.2000008-0.1999969,1.2000008-1.1000061v-5h1.5999985V142.5c0,2.1000061-1.5999985,2.5-2.7000008,2.5
			S32.7999992,144.6000061,32.7999992,142.5z"/>
	</g>
	<g>
		<path class="st1" d="M44.2000008,142.5c0,1.8999939-1.0999985,2.5-2.9000015,2.5C40.5,145,39.5999985,144.8999939,39,144.5
			v-1.6000061C39.2999992,143.0999908,40.2000008,143.5,41.0999985,143.5C42.1999969,143.5,42.5,143.1000061,42.5,142.6000061
			c0-0.6000061-0.2000008-0.8000031-1-0.8999939c-1.7999992-0.1999969-2.5999985-0.8000031-2.5999985-2.3000031
			c0-1.3999939,0.7999992-2.3000031,2.7000008-2.3000031c1,0,1.7000008,0.1999969,2.0999985,0.3999939v1.5
			c-0.4000015-0.1999969-1.2000008-0.3999939-1.9000015-0.3999939C41,138.6000061,40.5,138.9000092,40.5,139.3000031
			c0,0.5,0.2999992,0.6999969,1,0.8000031C43.2999992,140.6000061,44.2000008,140.8999939,44.2000008,142.5z"/>
	</g>
	<g>
		<path class="st1" d="M49.2999992,141.6999969H46.5v1.6999969h3.0999985v1.5H45v-7.5h4.5999985v1.5H46.5v1.3999939h2.7999992
			V141.6999969z"/>
	</g>
	<g>
		<path class="st1" d="M52.2000008,141.1999969c0-2.3000031,0.5999985-3.8999939,2.9000015-3.8999939
			s2.9000015,1.6000061,2.9000015,3.8999939s-0.5999985,3.8999939-2.9000015,3.8999939
			S52.2000008,143.3999939,52.2000008,141.1999969z M53.7999992,141.1999969c0,1.6999969,0.4000015,2.3999939,1.2999992,2.3999939
			s1.2999992-0.6999969,1.2999992-2.3999939s-0.4000015-2.3999939-1.2999992-2.3999939
			S53.7999992,139.3999939,53.7999992,141.1999969z"/>
	</g>
	<g>
		<path class="st1" d="M63.1999969,141.8000031h-2.7999992v3.1000061h-1.5999985v-7.5h4.6000023v1.5h-3v1.5h2.8000031
			C63.1999969,140.3999939,63.1999969,141.8000031,63.1999969,141.8000031z"/>
	</g>
	<g>
		<path class="st1" d="M68.8000031,138.8999939v6h-1.5999985v-6h-1.8000031v-1.5H70.5v1.5H68.8000031z"/>
	</g>
	<g>
		<path class="st1" d="M75.5,141.6999969h-2.8000031v1.6999969h3.0999985v1.5h-4.5999985v-7.5h4.5999985v1.5h-3.0999985v1.3999939
			H75.5V141.6999969z"/>
	</g>
	<g>
		<path class="st1" d="M78.0999985,144.8999939H76.5v-7.5H79c2,0,2.5999985,0.8999939,2.5999985,2.3000031
			c0,0.8999939-0.3000031,1.6000061-1,2l1.3000031,3.1000061h-1.8000031l-1-2.8000031h-1V144.8999939z M78.0999985,140.6000061
			h1.0999985c0.6999969,0,0.8000031-0.5,0.8000031-0.8999939s-0.0999985-0.8999939-0.8000031-0.8999939h-1.0999985V140.6000061z"/>
	</g>
	<g>
		<path class="st1" d="M84,144.8999939h-1.5999985v-7.5h2.5c2,0,2.5999985,0.8999939,2.5999985,2.3000031
			c0,0.8999939-0.3000031,1.6000061-1,2l1.3000031,3.1000061H86L85,142h-1V144.8999939z M84,140.6000061h1.0999985
			c0.6999969,0,0.8000031-0.5,0.8000031-0.8999939s-0.0999985-0.8999939-0.8000031-0.8999939H84V140.6000061z"/>
	</g>
	<g>
		<path class="st1" d="M92.6999969,141.6999969h-2.8000031v1.6999969H93v1.5h-4.5999985v-7.5H93v1.5h-3.0999985v1.3999939h2.8000031
			C92.6999969,140.3000031,92.6999969,141.6999969,92.6999969,141.6999969z"/>
	</g>
	<g>
		<path class="st1" d="M98.8000031,142.5c0,1.8999939-1.0999985,2.5-2.9000015,2.5c-0.8000031,0-1.6999969-0.1000061-2.3000031-0.5
			v-1.6000061C93.9000015,143.0999908,94.7999954,143.5,95.6999969,143.5c1.0999985,0,1.4000015-0.3999939,1.4000015-0.8999939
			c0-0.6000061-0.1999969-0.8000031-1-0.8999939C94.2999954,141.5000153,93.5,140.9000092,93.5,139.4000092
			c0-1.3999939,0.8000031-2.3000031,2.6999969-2.3000031c1,0,1.6999969,0.1999969,2.0999985,0.3999939v1.5
			c-0.4000015-0.1999969-1.1999969-0.3999939-1.9000015-0.3999939c-0.8000031,0-1.3000031,0.3000031-1.3000031,0.6999969
			c0,0.5,0.3000031,0.6999969,1,0.8000031C97.9000015,140.6000061,98.8000031,140.8999939,98.8000031,142.5z"/>
	</g>
	<g>
		<path class="st1" d="M102.3000031,138.8999939v6h-1.5999985v-6H99v-1.5h5.0999985v1.5H102.3000031z"/>
	</g>
	<g>
		<path class="st1" d="M106.1999969,144.8999939h-1.5999985v-7.5h2.5c2,0,2.5999985,0.8999939,2.5999985,2.3000031
			c0,0.8999939-0.3000031,1.6000061-1,2L110,144.8000031h-1.8000031l-1-2.8000031h-1V144.8999939z M106.1999969,140.6000061
			h1.0999985c0.6999969,0,0.8000031-0.5,0.8000031-0.8999939S108,138.8000183,107.2999954,138.8000183h-1.0999985V140.6000061z"/>
	</g>
	<g>
		<path class="st1" d="M110.6999969,144.8999939v-7.5h1.5999985v7.5H110.6999969z"/>
	</g>
	<g>
		<path class="st1" d="M113,144.8999939l2-7.5h1.8000031l2,7.5h-1.6999969l-0.3000031-1.5H115l-0.3000031,1.5H113z
			 M115.1999969,142.1000061h1.1999969l-0.5999985-2.8000031L115.1999969,142.1000061z"/>
	</g>
	<g>
		<path class="st1" d="M121,143.3999939h2.9000015v1.5h-4.5v-7.5H121V143.3999939z"/>
	</g>
	<g>
		<path class="st1" d="M130.8000031,141.6999969H128v1.6999969h3.1000061v1.5h-4.5999985v-7.5h4.5999985v1.5H128v1.3999939
			h2.8000031V141.6999969z"/>
	</g>
	<g>
		<path class="st1" d="M135,137.3000031c0.8000031,0,1.1999969,0.1999969,1.5,0.3000031v1.5
			c-0.3999939-0.1999969-0.8000031-0.3000031-1.3999939-0.3000031c-1.1999969,0-1.6999969,0.5-1.6999969,2.3999939
			s0.5,2.3999939,1.6999969,2.3999939c0.6000061,0,0.8999939-0.1000061,1.3999939-0.3000031v1.5
			c-0.3000031,0.1000061-0.6999969,0.3000031-1.5,0.3000031c-2.1000061,0-3.1000061-1.1000061-3.1000061-3.8999939
			C131.8000031,138.3000031,132.8999939,137.3000031,135,137.3000031z"/>
	</g>
	<g>
		<path class="st1" d="M137.3000031,141.1999969c0-2.3000031,0.6000061-3.8999939,2.8999939-3.8999939
			s2.8999939,1.6000061,2.8999939,3.8999939s-0.6000061,3.8999939-2.8999939,3.8999939
			S137.3000031,143.3999939,137.3000031,141.1999969z M138.8999939,141.1999969
			c0,1.6999969,0.3999939,2.3999939,1.3000031,2.3999939S141.5,142.8999939,141.5,141.1999969
			s-0.3999939-2.3999939-1.3000031-2.3999939S138.8999939,139.3999939,138.8999939,141.1999969z"/>
	</g>
	<g>
		<path class="st1" d="M149,142.5c0,1.8999939-1.1000061,2.5-2.8999939,2.5c-0.8000031,0-1.6999969-0.1000061-2.3000031-0.5
			v-1.6000061C144.1000061,143.0999908,145,143.5,145.9000092,143.5c1.1000061,0,1.3999939-0.3999939,1.3999939-0.8999939
			c0-0.6000061-0.1999969-0.8000031-1-0.8999939c-1.8000031-0.1999969-2.6000061-0.8000031-2.6000061-2.3000031
			c0-1.3999939,0.8000031-2.3000031,2.6999969-2.3000031c1,0,1.6999969,0.1999969,2.1000061,0.3999939v1.5
			c-0.3999939-0.1999969-1.1999969-0.3999939-1.8999939-0.3999939c-0.8000031,0-1.3000031,0.3000031-1.3000031,0.6999969
			c0,0.5,0.3000031,0.6999969,1,0.8000031C148.1000061,140.6000061,149,140.8999939,149,142.5z"/>
	</g>
	<g>
		<path class="st1" d="M153,142v2.8999939h-1.6000061V142l-2.3000031-4.6000061h1.8000031L152.1999969,140.5L153.5,137.3999939
			h1.8000031L153,142z"/>
	</g>
	<g>
		<path class="st1" d="M160.6000061,142.5c0,1.8999939-1.1000061,2.5-2.8999939,2.5c-0.8000031,0-1.6999969-0.1000061-2.3000031-0.5
			v-1.6000061c0.3000031,0.1999969,1.1999969,0.6000061,2.1000061,0.6000061c1.1000061,0,1.3999939-0.3999939,1.3999939-0.8999939
			c0-0.6000061-0.1999969-0.8000031-1-0.8999939c-1.8000031-0.1999969-2.6000061-0.8000031-2.6000061-2.3000031
			c0-1.3999939,0.8000031-2.3000031,2.6999969-2.3000031c1,0,1.6999969,0.1999969,2.1000061,0.3999939v1.5
			c-0.3999939-0.1999969-1.1999969-0.3999939-1.8999939-0.3999939c-0.8000031,0-1.3000031,0.3000031-1.3000031,0.6999969
			c0,0.5,0.3000031,0.6999969,1,0.8000031C159.6999969,140.6000061,160.6000061,140.8999939,160.6000061,142.5z"/>
	</g>
	<g>
		<path class="st1" d="M164,138.8999939v6h-1.6000061v-6h-1.8000031v-1.5h5.1000061v1.5H164z"/>
	</g>
	<g>
		<path class="st1" d="M170.8000031,141.6999969H168v1.6999969h3.1000061v1.5H166.5v-7.5h4.6000061v1.5H168v1.3999939h2.8000031
			V141.6999969z"/>
	</g>
	<g>
		<path class="st1" d="M176,144h-1.6000061l-1.1000061-3.6999969v4.6000061h-1.5v-7.5h2l1.3999939,4.6999969l1.3999939-4.6999969h2
			v7.5h-1.5v-4.6000061L176,144z"/>
	</g>
	<g>
		<path class="st1" d="M184.6000061,142.5c0,1.8999939-1.1000061,2.5-2.8999939,2.5c-0.8000031,0-1.6999969-0.1000061-2.3000031-0.5
			v-1.6000061c0.3000031,0.1999969,1.1999969,0.6000061,2.1000061,0.6000061c1.1000061,0,1.3999939-0.3999939,1.3999939-0.8999939
			c0-0.6000061-0.1999969-0.8000031-1-0.8999939c-1.8000031-0.1999969-2.6000061-0.8000031-2.6000061-2.3000031
			c0-1.3999939,0.8000031-2.3000031,2.6999969-2.3000031c1,0,1.6999969,0.1999969,2.1000061,0.3999939v1.5
			c-0.3999939-0.1999969-1.1999969-0.3999939-1.8999939-0.3999939c-0.8000031,0-1.3000031,0.3000031-1.3000031,0.6999969
			c0,0.5,0.3000031,0.6999969,1,0.8000031C183.6999969,140.6000061,184.6000061,140.8999939,184.6000061,142.5z"/>
	</g>
	<g>
		<path class="st1" d="M184.8999939,146.1000061l0.3000031-2.6999969h1.6999969L186,146.1000061H184.8999939z"/>
	</g>
	<g>
		<path class="st1" d="M25.7999992,154.5c0,1.8999939-1.1000004,2.5-2.8999996,2.5c-0.7999992,0-1.7000008-0.1000061-2.2999992-0.5
			v-1.6000061C20.8999996,155.0999908,21.8000011,155.5,22.7000008,155.5c1.1000004,0,1.3999996-0.3999939,1.3999996-0.8999939
			c0-0.6000061-0.2000008-0.8000031-1-0.8999939C21.3000011,153.5000153,20.5,152.9000092,20.5,151.4000092
			c0-1.3999939,0.7999992-2.3000031,2.7000008-2.3000031c1,0,1.7000008,0.1999969,2.1000004,0.3999939v1.5
			c-0.3999996-0.1999969-1.2000008-0.3999939-1.8999996-0.3999939c-0.7999992,0-1.2999992,0.3000031-1.2999992,0.6999969
			c0,0.5,0.2999992,0.6999969,1,0.8000031C24.8999996,152.6000061,25.7999992,152.8999939,25.7999992,154.5z"/>
	</g>
	<g>
		<path class="st1" d="M26.5,154.5v-5.1000061H28v5c0,1,0.6000004,1.1000061,1.2000008,1.1000061
			s1.2000008-0.1999969,1.2000008-1.1000061v-5H32V154.5c0,2.1000061-1.6000004,2.5-2.7000008,2.5S26.5,156.6000061,26.5,154.5z"/>
	</g>
	<g>
		<path class="st1" d="M37.7999992,154.5c0,1.8999939-1.0999985,2.5-2.9000015,2.5c-0.7999992,0-1.7000008-0.1000061-2.2999992-0.5
			v-1.6000061C32.8999977,155.0999908,33.7999992,155.5,34.6999969,155.5c1.0999985,0,1.4000015-0.3999939,1.4000015-0.8999939
			c0-0.6000061-0.2000008-0.8000031-1-0.8999939C33.2999992,153.5000153,32.5,152.9000092,32.5,151.4000092
			c0-1.3999939,0.7999992-2.3000031,2.7000008-2.3000031c1,0,1.7000008,0.1999969,2.0999985,0.3999939v1.5
			c-0.4000015-0.1999969-1.2000008-0.3999939-1.9000015-0.3999939c-0.7999992,0-1.2999992,0.3000031-1.2999992,0.6999969
			c0,0.5,0.2999992,0.6999969,1,0.8000031C36.9000015,152.6000061,37.7999992,152.8999939,37.7999992,154.5z"/>
	</g>
	<g>
		<path class="st1" d="M41.2000008,150.8999939v6h-1.5999985v-6h-1.7999992v-1.5H43v1.5H41.2000008z"/>
	</g>
	<g>
		<path class="st1" d="M42.5999985,156.8999939l2-7.5h1.7999992l2,7.5h-1.7000008l-0.2999992-1.5h-1.7999992l-0.2999992,1.5
			H42.5999985z M44.9000015,154.1000061h1.2000008l-0.5999985-2.8000031L44.9000015,154.1000061z"/>
	</g>
	<g>
		<path class="st1" d="M49.2000008,156.8999939v-7.5h1.5999985v7.5H49.2000008z"/>
	</g>
	<g>
		<path class="st1" d="M55.5999985,156.8999939l-2.4000015-4.5v4.5h-1.5v-7.5h1.5l2.4000015,4.5v-4.5h1.5v7.5H55.5999985z"/>
	</g>
	<g>
		<path class="st1" d="M57.7000008,156.8999939l2-7.5H61.5l2,7.5h-1.7000008l-0.2999992-1.5h-1.7999992l-0.2999992,1.5H57.7000008z
			 M60,154.1000061h1.2000008l-0.5999985-2.8000031L60,154.1000061z"/>
	</g>
	<g>
		<path class="st1" d="M64.1999969,149.3999939h2.5999985c1.8000031,0,2.4000015,0.8999939,2.4000015,2.1000061
			c0,0.6000061-0.3000031,1.1999969-0.8000031,1.3999939c0.5,0.1999969,1,0.6999969,1,1.6999969
			c0,1.3000031-0.5999985,2.3000031-2.5,2.3000031h-2.6999969V149.3999939z M66.8000031,150.8000031h-1v1.6000061h1
			c0.5999985,0,0.8000031-0.5,0.8000031-0.8000031C67.5,151.1999969,67.4000015,150.8000031,66.8000031,150.8000031z
			 M65.8000031,155.5h1.0999985c0.6999969,0,0.9000015-0.3999939,0.9000015-0.8999939
			c0-0.6000061-0.3000031-0.8999939-0.9000015-0.8999939h-1.0999985V155.5z"/>
	</g>
	<g>
		<path class="st1" d="M71.5999985,155.3999939H74.5v1.5H70v-7.5h1.5999985V155.3999939z"/>
	</g>
	<g>
		<path class="st1" d="M77.1999969,154v2.8999939h-1.5999985V154l-2.3000031-4.6000061h1.8000031L76.4000015,152.5
			l1.3000031-3.1000061h1.8000031L77.1999969,154z"/>
	</g>
	<g>
		<path class="st1" d="M86,156h-1.5999985l-1.0999985-3.6999969v4.6000061h-1.5v-7.5h2l1.4000015,4.6999969l1.4000015-4.6999969h2
			v7.5h-1.5v-4.6000061L86,156z"/>
	</g>
	<g>
		<path class="st1" d="M89.3000031,156.8999939l2-7.5h1.8000031l2,7.5h-1.6999969l-0.3000031-1.5h-1.8000031l-0.3000031,1.5
			H89.3000031z M91.5999985,154.1000061h1.1999969l-0.5999985-2.8000031L91.5999985,154.1000061z"/>
	</g>
	<g>
		<path class="st1" d="M99.5999985,156.8999939l-2.4000015-4.5v4.5h-1.5v-7.5h1.5l2.4000015,4.5v-4.5h1.5v7.5H99.5999985z"/>
	</g>
	<g>
		<path class="st1" d="M101.8000031,156.8999939l2-7.5h1.8000031l2,7.5H106l-0.3000031-1.5h-1.8000031l-0.3000031,1.5H101.8000031z
			 M104.0999985,154.1000061h1.1999969l-0.5999985-2.8000031L104.0999985,154.1000061z"/>
	</g>
	<g>
		<path class="st1" d="M108,153.1999969c0-2.6000061,0.9000015-3.8999939,3.0999985-3.8999939
			c1,0,1.6999969,0.1000061,2.0999985,0.3000031v1.6000061c-0.5999985-0.3000031-1.3000031-0.3999939-1.9000015-0.3999939
			c-1.4000015,0-1.8000031,0.6000061-1.8000031,2.3999939c0,1.8999939,0.5,2.3999939,1.8000031,2.3999939
			c0.0999985,0,0.3000031,0,0.4000015,0v-1.5h-1v-1.3999939h2.5999985v4c-0.4000015,0.3000031-1.3000031,0.5-2.3000031,0.5
			C108.9000015,157,108,155.8000031,108,153.1999969z"/>
	</g>
	<g>
		<path class="st1" d="M118.6999969,153.6999969h-2.8000031v1.6999969h3.0999985v1.5h-4.5999985v-7.5h4.5999985v1.5h-3.0999985
			v1.3999939h2.8000031V153.6999969z"/>
	</g>
	<g>
		<path class="st1" d="M126,153.8000031h-2.8000031v3.1000061h-1.5999985v-7.5h4.5999985v1.5h-3v1.5H126V153.8000031z"/>
	</g>
	<g>
		<path class="st1" d="M126.9000015,153.1999969c0-2.3000031,0.5999985-3.8999939,2.9000015-3.8999939
			s2.8999939,1.6000061,2.8999939,3.8999939s-0.6000061,3.8999939-2.8999939,3.8999939
			S126.9000015,155.3999939,126.9000015,153.1999969z M128.3999939,153.1999969
			c0,1.6999969,0.3999939,2.3999939,1.3000031,2.3999939S131,154.8999939,131,153.1999969s-0.3999939-2.3999939-1.3000031-2.3999939
			S128.3999939,151.3999939,128.3999939,153.1999969z"/>
	</g>
	<g>
		<path class="st1" d="M135.1000061,156.8999939H133.5v-7.5h2.5c2,0,2.6000061,0.8999939,2.6000061,2.3000031
			c0,0.8999939-0.3000031,1.6000061-1,2l1.3000031,3.1000061h-1.8000031l-1-2.8000031h-1V156.8999939z M135.1000061,152.6000061
			h1.1000061c0.6999969,0,0.8000031-0.5,0.8000031-0.8999939s-0.1000061-0.8999939-0.8000031-0.8999939h-1.1000061V152.6000061z"/>
	</g>
	<g>
		<path class="st1" d="M143.8000031,153.6999969H141v1.6999969h3.1000061v1.5H139.5v-7.5h4.6000061v1.5H141v1.3999939h2.8000031
			V153.6999969z"/>
	</g>
	<g>
		<path class="st1" d="M149.8999939,154.5c0,1.8999939-1.1000061,2.5-2.8999939,2.5c-0.8000031,0-1.6999969-0.1000061-2.3000031-0.5
			v-1.6000061C145,155.0999908,145.8999939,155.5,146.8000031,155.5c1.1000061,0,1.3999939-0.3999939,1.3999939-0.8999939
			c0-0.6000061-0.1999969-0.8000031-1-0.8999939c-1.8000031-0.1999969-2.6000061-0.8000031-2.6000061-2.3000031
			c0-1.3999939,0.8000031-2.3000031,2.6999969-2.3000031c1,0,1.6999969,0.1999969,2.1000061,0.3999939v1.5
			C149,150.8000031,148.1999969,150.6000061,147.5,150.6000061c-0.8000031,0-1.3000031,0.3000031-1.3000031,0.6999969
			c0,0.5,0.3000031,0.6999969,1,0.8000031C149,152.6000061,149.8999939,152.8999939,149.8999939,154.5z"/>
	</g>
	<g>
		<path class="st1" d="M153.3999939,150.8999939v6h-1.6000061v-6H150v-1.5h5.1000061v1.5H153.3999939z"/>
	</g>
	<g>
		<path class="st1" d="M160.6999969,154.5c0,1.8999939-1.1000061,2.5-2.8999939,2.5C157,157,156.1000061,156.8999939,155.5,156.5
			v-1.6000061c0.3000031,0.1999969,1.1999969,0.6000061,2.1000061,0.6000061C158.7000122,155.5,159,155.1000061,159,154.6000061
			c0-0.6000061-0.1999969-0.8000031-1-0.8999939c-1.8000031-0.1999969-2.6000061-0.8000031-2.6000061-2.3000031
			c0-1.3999939,0.8000031-2.3000031,2.6999969-2.3000031c1,0,1.6999969,0.1999969,2.1000061,0.3999939v1.5
			c-0.3999939-0.1999969-1.1999969-0.3999939-1.8999939-0.3999939C157.5,150.6000061,157,150.9000092,157,151.3000031
			c0,0.5,0.3000031,0.6999969,1,0.8000031C159.8999939,152.6000061,160.6999969,152.8999939,160.6999969,154.5z"/>
	</g>
	<g>
		<path class="st1" d="M161.1000061,158.1000061l0.3000031-2.6999969h1.6999969l-0.8999939,2.6999969H161.1000061z"/>
	</g>
	<g>
		<path class="st1" d="M168.8999939,149.3000031c0.8000031,0,1.1999969,0.1999969,1.5,0.3000031v1.5
			C170,150.9000092,169.5999908,150.8000031,169,150.8000031c-1.1999969,0-1.6999969,0.5-1.6999969,2.3999939
			s0.5,2.3999939,1.6999969,2.3999939c0.6000061,0,0.8999939-0.1000061,1.3999939-0.3000031v1.5
			c-0.3000031,0.1000061-0.6999969,0.3000031-1.5,0.3000031c-2.1000061,0-3.1000061-1.1000061-3.1000061-3.8999939
			C165.6999969,150.3000031,166.8000031,149.3000031,168.8999939,149.3000031z"/>
	</g>
	<g>
		<path class="st1" d="M171.1999969,153.1999969c0-2.3000031,0.6000061-3.8999939,2.8999939-3.8999939
			s2.8999939,1.6000061,2.8999939,3.8999939s-0.6000061,3.8999939-2.8999939,3.8999939
			S171.1999969,155.3999939,171.1999969,153.1999969z M172.8000031,153.1999969
			c0,1.6999969,0.3999939,2.3999939,1.3000031,2.3999939s1.3000031-0.6999969,1.3000031-2.3999939
			s-0.3999939-2.3999939-1.3000031-2.3999939S172.8000031,151.3999939,172.8000031,153.1999969z"/>
	</g>
	<g>
		<path class="st1" d="M182,156h-1.6000061l-1.1000061-3.6999969v4.6000061h-1.5v-7.5h2l1.3999939,4.6999969l1.3999939-4.6999969h2
			v7.5h-1.5v-4.6000061L182,156z"/>
	</g>
	<g>
		<path class="st1" d="M185.6000061,149.3999939h2.6000061c1.8000031,0,2.3999939,0.8999939,2.3999939,2.1000061
			c0,0.6000061-0.3000031,1.1999969-0.8000031,1.3999939c0.5,0.1999969,1,0.6999969,1,1.6999969
			c0,1.3000031-0.6000061,2.3000031-2.5,2.3000031h-2.6999969V149.3999939z M188.1000061,150.8000031h-1v1.6000061h1
			c0.6000061,0,0.8000031-0.5,0.8000031-0.8000031C188.8999939,151.1999969,188.8000031,150.8000031,188.1000061,150.8000031z
			 M187.1000061,155.5h1.1000061c0.6999969,0,0.8999939-0.3999939,0.8999939-0.8999939
			c0-0.6000061-0.3000031-0.8999939-0.8999939-0.8999939h-1.1000061V155.5z"/>
	</g>
	<g>
		<path class="st1" d="M191.1000061,156.8999939l2-7.5h1.8000031l2,7.5h-1.6999969l-0.3000031-1.5h-1.8000031l-0.3000031,1.5
			H191.1000061z M193.3999939,154.1000061h1.1999969l-0.6000061-2.8000031L193.3999939,154.1000061z"/>
	</g>
	<g>
		<path class="st1" d="M199.6999969,150.8999939v6h-1.6000061v-6h-1.8000031v-1.5h5.1000061v1.5H199.6999969z"/>
	</g>
	<g>
		<path class="st1" d="M39.5999985,168.8999939v-7.5H42c2.5,0,3.0999985,1.6000061,3.0999985,3.6999969
			c0,2.1000061-0.7000008,3.8000031-3.0999985,3.8000031H39.5999985z M41.2000008,167.3999939H42
			c1.0999985,0,1.5-0.8000031,1.5-2.3000031c0-1.3999939-0.2999992-2.3000031-1.5-2.3000031h-0.7999992V167.3999939z"/>
	</g>
	<g>
		<path class="st1" d="M50.2999992,165.6999969H47.5v1.6999969h3.0999985v1.5H46v-7.5h4.5999985v1.5H47.5v1.3999939h2.7999992
			V165.6999969z"/>
	</g>
	<g>
		<path class="st1" d="M56.4000015,166.5c0,1.8999939-1.0999985,2.5-2.9000015,2.5c-0.7999992,0-1.7000008-0.1000061-2.2999992-0.5
			v-1.6000061C51.5,167.0999908,52.4000015,167.5,53.2999992,167.5c1.0999985,0,1.4000015-0.3999939,1.4000015-0.8999939
			c0-0.6000061-0.2000008-0.8000031-1-0.8999939c-1.7999992-0.1999969-2.5999985-0.8000031-2.5999985-2.3000031
			c0-1.3999939,0.7999992-2.3000031,2.7000008-2.3000031c1,0,1.7000008,0.1999969,2.0999985,0.3999939v1.5
			C55.5,162.8000031,54.7000008,162.6000061,54,162.6000061c-0.7999992,0-1.2999992,0.3000031-1.2999992,0.6999969
			c0,0.5,0.2999992,0.6999969,1,0.8000031C55.5,164.6000061,56.4000015,164.8999939,56.4000015,166.5z"/>
	</g>
	<g>
		<path class="st1" d="M61.5,165.6999969h-2.7999992v1.6999969h3.0999985v1.5h-4.5999985v-7.5h4.5999985v1.5h-3.0999985v1.3999939
			H61.5V165.6999969z"/>
	</g>
	<g>
		<path class="st1" d="M64.0999985,168.8999939H62.5v-7.5H65c2,0,2.5999985,0.8999939,2.5999985,2.3000031
			c0,0.8999939-0.3000031,1.6000061-1,2l1.3000031,3.1000061h-1.8000031l-1-2.8000031h-1V168.8999939z M64.0999985,164.6000061
			h1.0999985c0.6999969,0,0.8000031-0.5,0.8000031-0.8999939s-0.0999985-0.8999939-0.8000031-0.8999939h-1.0999985V164.6000061z"/>
	</g>
	<g>
		<path class="st1" d="M71.0999985,162.8999939v6H69.5v-6h-1.8000031v-1.5h5.0999985v1.5H71.0999985z"/>
	</g>
	<g>
		<path class="st1" d="M73.5,168.8999939v-7.5h1.5999985v7.5H73.5z"/>
	</g>
	<g>
		<path class="st1" d="M80.4000015,165.8000031h-2.8000031v3.1000061H76v-7.5h4.5999985v1.5h-3v1.5h2.8000031V165.8000031z"/>
	</g>
	<g>
		<path class="st1" d="M81.4000015,168.8999939v-7.5H83v7.5H81.4000015z"/>
	</g>
	<g>
		<path class="st1" d="M87.0999985,161.3000031c0.8000031,0,1.1999969,0.1999969,1.5,0.3000031v1.5
			c-0.4000015-0.1999969-0.8000031-0.3000031-1.4000015-0.3000031c-1.1999969,0-1.6999969,0.5-1.6999969,2.3999939
			s0.5,2.3999939,1.6999969,2.3999939c0.5999985,0,0.9000015-0.1000061,1.4000015-0.3000031v1.5
			c-0.3000031,0.1000061-0.6999969,0.3000031-1.5,0.3000031C85,169.0999908,84,167.9999847,84,165.1999969
			C83.9000015,162.3000031,84.9000015,161.3000031,87.0999985,161.3000031z"/>
	</g>
	<g>
		<path class="st1" d="M89.0999985,168.8999939l2-7.5h1.8000031l2,7.5h-1.6999969l-0.3000031-1.5h-1.8000031l-0.3000031,1.5
			H89.0999985z M91.4000015,166.1000061h1.1999969L92,163.3000031L91.4000015,166.1000061z"/>
	</g>
	<g>
		<path class="st1" d="M97.5999985,162.8999939v6H96v-6h-1.8000031v-1.5h5.0999985v1.5H97.5999985z"/>
	</g>
	<g>
		<path class="st1" d="M100.0999985,168.8999939v-7.5h1.5999985v7.5H100.0999985z"/>
	</g>
	<g>
		<path class="st1" d="M102.5999985,165.1999969c0-2.3000031,0.5999985-3.8999939,2.9000015-3.8999939
			s2.9000015,1.6000061,2.9000015,3.8999939s-0.5999985,3.8999939-2.9000015,3.8999939
			S102.5999985,167.3999939,102.5999985,165.1999969z M104.1999969,165.1999969
			c0,1.6999969,0.4000015,2.3999939,1.3000031,2.3999939s1.3000031-0.6999969,1.3000031-2.3999939
			s-0.4000015-2.3999939-1.3000031-2.3999939S104.1999969,163.3999939,104.1999969,165.1999969z"/>
	</g>
	<g>
		<path class="st1" d="M113.0999985,168.8999939l-2.4000015-4.5v4.5h-1.5v-7.5h1.5l2.4000015,4.5v-4.5h1.5v7.5H113.0999985z"/>
	</g>
	<g>
		<path class="st1" d="M115.1999969,170.1000061L115.5,167.4000092h1.6999969l-0.9000015,2.6999969H115.1999969z"/>
	</g>
	<g>
		<path class="st1" d="M119.5999985,168.8999939l2-7.5h1.8000031l2,7.5h-1.6999969l-0.3000031-1.5h-1.8000031l-0.3000031,1.5
			H119.5999985z M121.9000015,166.1000061h1.1999969L122.5,163.3000031L121.9000015,166.1000061z"/>
	</g>
	<g>
		<path class="st1" d="M129.8999939,168.8999939l-2.3999939-4.5v4.5H126v-7.5h1.5l2.3999939,4.5v-4.5h1.5v7.5H129.8999939z"/>
	</g>
	<g>
		<path class="st1" d="M132.3000031,168.8999939v-7.5h2.3999939c2.5,0,3.1000061,1.6000061,3.1000061,3.6999969
			c0,2.1000061-0.6000061,3.6999969-3.1000061,3.6999969h-2.3999939V168.8999939z M133.8999939,167.3999939h0.8000031
			c1.1000061,0,1.5-0.8000031,1.5-2.3000031c0-1.3999939-0.3000031-2.3000031-1.5-2.3000031h-0.8000031V167.3999939z"/>
	</g>
	<g>
		<path class="st1" d="M144.3000031,168.8999939v-3.1000061h-2.1999969v3.1000061H140.5v-7.5h1.6000061v2.8999939h2.1999969
			v-2.8999939h1.6000061v7.5H144.3000031z"/>
	</g>
	<g>
		<path class="st1" d="M146.5,168.8999939l2-7.5h1.8000031l2,7.5h-1.6999969l-0.3000031-1.5H148.5l-0.3000031,1.5H146.5z
			 M148.8000031,166.1000061H150l-0.6000061-2.8000031L148.8000031,166.1000061z"/>
	</g>
	<g>
		<path class="st1" d="M154.6000061,167.3999939H157.5v1.5H153v-7.5h1.6000061V167.3999939z"/>
	</g>
	<g>
		<path class="st1" d="M160.1000061,162.8999939v6H158.5v-6h-1.8000031v-1.5h5.1000061v1.5H160.1000061z"/>
	</g>
	<g>
		<path class="st1" d="M163.8999939,168.8999939l2-7.5h1.8000031l2,7.5H168l-0.3000031-1.5h-1.8000031l-0.3000031,1.5H163.8999939z
			 M166.1999969,166.1000061h1.1999969l-0.6000061-2.8000031L166.1999969,166.1000061z"/>
	</g>
	<g>
		<path class="st1" d="M174.1999969,168.8999939l-2.3999939-4.5v4.5h-1.5v-7.5h1.5l2.3999939,4.5v-4.5h1.5v7.5H174.1999969z"/>
	</g>
	<g>
		<path class="st1" d="M176.6000061,168.8999939v-7.5H179c2.5,0,3.1000061,1.6000061,3.1000061,3.6999969
			c0,2.1000061-0.6000061,3.6999969-3.1000061,3.6999969h-2.3999939V168.8999939z M178.1999969,167.3999939H179
			c1.1000061,0,1.5-0.8000031,1.5-2.3000031c0-1.3999939-0.3000031-2.3000031-1.5-2.3000031h-0.8000031V167.3999939z"/>
	</g>
	<g>
		<path class="st1" d="M36.4000015,180.8999939h-1.5999985v-7.5h2.5c2,0,2.5999985,0.8999939,2.5999985,2.3000031
			c0,0.8999939-0.2999992,1.6000061-1,2l1.2999992,3.1000061h-1.7999992l-1-2.8000031h-1V180.8999939z M36.4000015,176.6000061H37.5
			c0.7000008,0,0.7999992-0.5,0.7999992-0.8999939S38.2000008,174.8000183,37.5,174.8000183h-1.0999985V176.6000061z"/>
	</g>
	<g>
		<path class="st1" d="M45.0999985,177.6999969h-2.7999992v1.6999969h3.0999985v1.5h-4.5999985v-7.5h4.5999985v1.5h-3.0999985
			v1.3999939h2.7999992V177.6999969z"/>
	</g>
	<g>
		<path class="st1" d="M51.7999992,173.3999939l-2,7.5H48l-2-7.5h1.7000008L49,179.0999908l1.2999992-5.6999969H51.7999992z"/>
	</g>
	<g>
		<path class="st1" d="M56.7999992,177.6999969H54v1.6999969h3.0999985v1.5H52.5v-7.5h4.5999985v1.5H54v1.3999939h2.7999992
			V177.6999969z"/>
	</g>
	<g>
		<path class="st1" d="M59.4000015,180.8999939h-1.5999985v-7.5h2.5c2,0,2.5999985,0.8999939,2.5999985,2.3000031
			c0,0.8999939-0.2999992,1.6000061-1,2l1.3000031,3.1000061h-1.7999992l-1-2.8000031h-1
			C59.4000015,178,59.4000015,180.8999939,59.4000015,180.8999939z M59.4000015,176.6000061H60.5
			c0.7000008,0,0.7999992-0.5,0.7999992-0.8999939S61.2000008,174.8000183,60.5,174.8000183h-1.0999985V176.6000061z"/>
	</g>
	<g>
		<path class="st1" d="M68.8000031,178.5c0,1.8999939-1.0999985,2.5-2.9000015,2.5c-0.8000031,0-1.6999969-0.1000061-2.3000031-0.5
			v-1.6000061C63.9000015,179.0999908,64.7999954,179.5,65.6999969,179.5c1.0999985,0,1.4000015-0.3999939,1.4000015-0.8999939
			c0-0.6000061-0.1999969-0.8000031-1-0.8999939C64.2999954,177.5000153,63.5,176.9000092,63.5,175.4000092
			c0-1.3999939,0.8000031-2.3000031,2.6999969-2.3000031c1,0,1.6999969,0.1999969,2.0999985,0.3999939v1.5
			c-0.4000015-0.1999969-1.1999969-0.3999939-1.9000015-0.3999939c-0.8000031,0-1.3000031,0.3000031-1.3000031,0.6999969
			c0,0.5,0.3000031,0.6999969,1,0.8000031C67.9000015,176.6000061,68.8000031,176.8999939,68.8000031,178.5z"/>
	</g>
	<g>
		<path class="st1" d="M73.9000015,177.6999969h-2.8000031v1.6999969h3.0999985v1.5h-4.5999985v-7.5h4.5999985v1.5h-3.0999985
			v1.3999939h2.8000031V177.6999969z"/>
	</g>
	<g>
		<path class="st1" d="M78.5,179.3999939h2.9000015v1.5h-4.5v-7.5H78.5V179.3999939z"/>
	</g>
	<g>
		<path class="st1" d="M81.6999969,180.8999939l2-7.5H85.5l2,7.5h-1.6999969l-0.3000031-1.5h-1.8000031l-0.3000031,1.5H81.6999969z
			 M84,178.1000061h1.1999969l-0.5999985-2.8000031L84,178.1000061z"/>
	</g>
	<g>
		<path class="st1" d="M92.0999985,180.8999939l-2.4000015-4.5v4.5h-1.5v-7.5h1.5l2.4000015,4.5v-4.5h1.5v7.5H92.0999985z"/>
	</g>
	<g>
		<path class="st1" d="M94.5,180.8999939v-7.5h2.4000015c2.5,0,3.0999985,1.6000061,3.0999985,3.6999969
			c0,2.1000061-0.5999985,3.6999969-3.0999985,3.6999969H94.5V180.8999939z M96,179.3999939h0.8000031
			c1.0999985,0,1.5-0.8000031,1.5-2.3000031c0-1.3999939-0.3000031-2.3000031-1.5-2.3000031H96V179.3999939z"/>
	</g>
	<g>
		<path class="st1" d="M102.6999969,180.8999939v-7.5h2.4000015c2.5,0,3.0999985,1.6000061,3.0999985,3.6999969
			c0,2.1000061-0.5999985,3.6999969-3.0999985,3.6999969h-2.4000015V180.8999939z M104.3000031,179.3999939h0.8000031
			c1.0999985,0,1.5-0.8000031,1.5-2.3000031c0-1.3999939-0.3000031-2.3000031-1.5-2.3000031h-0.8000031V179.3999939z"/>
	</g>
	<g>
		<path class="st1" d="M113.3000031,177.6999969H110.5v1.6999969h3.0999985v1.5H109v-7.5h4.5999985v1.5H110.5v1.3999939h2.8000031
			V177.6999969z"/>
	</g>
	<g>
		<path class="st1" d="M114.4000015,177.1999969c0-2.6000061,0.9000015-3.8999939,3.0999985-3.8999939
			c1,0,1.6999969,0.1000061,2.0999985,0.3000031v1.6000061c-0.5999985-0.3000031-1.3000031-0.3999939-1.9000015-0.3999939
			c-1.4000015,0-1.8000031,0.6000061-1.8000031,2.3999939c0,1.8999939,0.5,2.3999939,1.8000031,2.3999939
			c0.0999985,0,0.3000031,0,0.4000015,0v-1.5h-1v-1.3999939h2.5999985v4c-0.4000015,0.3000031-1.3000031,0.5-2.3000031,0.5
			C115.3000031,181,114.4000015,179.8000031,114.4000015,177.1999969z"/>
	</g>
	<g>
		<path class="st1" d="M122.1999969,180.8999939h-1.5999985v-7.5h2.5c2,0,2.5999985,0.8999939,2.5999985,2.3000031
			c0,0.8999939-0.3000031,1.6000061-1,2L126,180.8000031h-1.8000031l-1-2.8000031h-1V180.8999939z M122.1999969,176.6000061
			h1.0999985c0.6999969,0,0.8000031-0.5,0.8000031-0.8999939S124,174.8000183,123.2999954,174.8000183h-1.0999985V176.6000061z"/>
	</g>
	<g>
		<path class="st1" d="M126.3000031,180.8999939l2-7.5h1.8000031l2,7.5h-1.6999969l-0.3000031-1.5h-1.8000031l-0.3000031,1.5
			H126.3000031z M128.6000061,178.1000061h1.1999969l-0.6000061-2.8000031L128.6000061,178.1000061z"/>
	</g>
	<g>
		<path class="st1" d="M132.8000031,180.8999939v-7.5h2.3999939c2.5,0,3.1000061,1.6000061,3.1000061,3.6999969
			c0,2.1000061-0.6000061,3.6999969-3.1000061,3.6999969h-2.3999939V180.8999939z M134.3000031,179.3999939h0.8000031
			c1.1000061,0,1.5-0.8000031,1.5-2.3000031c0-1.3999939-0.3000031-2.3000031-1.5-2.3000031h-0.8000031V179.3999939z"/>
	</g>
	<g>
		<path class="st1" d="M138.5,180.8999939l2-7.5h1.8000031l2,7.5h-1.6999969l-0.3000031-1.5H140.5l-0.3000031,1.5H138.5z
			 M140.8000031,178.1000061H142l-0.6000061-2.8000031L140.8000031,178.1000061z"/>
	</g>
	<g>
		<path class="st1" d="M147.1000061,174.8999939v6H145.5v-6h-1.8000031v-1.5h5.1000061v1.5H147.1000061z"/>
	</g>
	<g>
		<path class="st1" d="M149.5,180.8999939v-7.5h1.6000061v7.5H149.5z"/>
	</g>
	<g>
		<path class="st1" d="M152,177.1999969c0-2.3000031,0.6000061-3.8999939,2.8999939-3.8999939
			s2.8999939,1.6000061,2.8999939,3.8999939s-0.6000061,3.8999939-2.8999939,3.8999939S152,179.3999939,152,177.1999969z
			 M153.6000061,177.1999969c0,1.6999969,0.3999939,2.3999939,1.3000031,2.3999939s1.3000031-0.6999969,1.3000031-2.3999939
			s-0.3999939-2.3999939-1.3000031-2.3999939S153.6000061,175.3999939,153.6000061,177.1999969z"/>
	</g>
	<g>
		<path class="st1" d="M162.5,180.8999939l-2.3999939-4.5v4.5h-1.5v-7.5h1.5l2.3999939,4.5v-4.5h1.5v7.5H162.5z"/>
	</g>
	<g>
		<path class="st1" d="M166.6999969,180.8999939l2-7.5H170.5l2,7.5h-1.6999969l-0.3000031-1.5h-1.8000031l-0.3000031,1.5
			H166.6999969z M169,178.1000061h1.1999969l-0.6000061-2.8000031L169,178.1000061z"/>
	</g>
	<g>
		<path class="st1" d="M177,180.8999939l-2.3999939-4.5v4.5h-1.5v-7.5h1.5l2.3999939,4.5v-4.5h1.5v7.5H177z"/>
	</g>
	<g>
		<path class="st1" d="M179.3999939,180.8999939v-7.5h2.3999939c2.5,0,3.1000061,1.6000061,3.1000061,3.6999969
			c0,2.1000061-0.6000061,3.6999969-3.1000061,3.6999969h-2.3999939V180.8999939z M181,179.3999939h0.8000031
			c1.1000061,0,1.5-0.8000031,1.5-2.3000031c0-1.3999939-0.3000031-2.3000031-1.5-2.3000031H181V179.3999939z"/>
	</g>
	<g>
		<path class="st1" d="M60.0999985,192.8999939v-3.1000061h-2.2000008v3.1000061h-1.5999985v-7.5h1.5999985v2.8999939h2.2000008
			v-2.8999939h1.5999985v7.5H60.0999985z"/>
	</g>
	<g>
		<path class="st1" d="M62.2999992,192.8999939l2.0000038-7.5h1.8000031l2,7.5h-1.6999969l-0.3000031-1.5h-1.8000031l-0.3000031,1.5
			H62.2999992z M64.5999985,190.1000061h1.1999969l-0.5999985-2.8000031L64.5999985,190.1000061z"/>
	</g>
	<g>
		<path class="st1" d="M70.3000031,191.3999939h2.9000015v1.5h-4.5v-7.5h1.5999985V191.3999939z"/>
	</g>
	<g>
		<path class="st1" d="M75.9000015,186.8999939v6h-1.5999985v-6H72.5v-1.5h5.0999985v1.5H75.9000015z"/>
	</g>
	<g>
		<path class="st1" d="M79.9000015,185.3999939H82.5c1.8000031,0,2.4000015,0.8999939,2.4000015,2.1000061
			c0,0.6000061-0.3000031,1.1999969-0.8000031,1.3999939c0.5,0.1999969,1,0.6999969,1,1.6999969
			c0,1.3000031-0.5999985,2.3000031-2.5,2.3000031h-2.6999969V185.3999939z M82.4000015,186.8000031h-1v1.6000061h1
			c0.5999985,0,0.8000031-0.5,0.8000031-0.8000031C83.1999969,187.1999969,83.0999985,186.8000031,82.4000015,186.8000031z
			 M81.4000015,191.5H82.5c0.6999969,0,0.9000015-0.3999939,0.9000015-0.8999939
			c0-0.6000061-0.3000031-0.8999939-0.9000015-0.8999939h-1.0999985V191.5z"/>
	</g>
	<g>
		<path class="st1" d="M85.8000031,192.8999939v-7.5h1.5999985v7.5H85.8000031z"/>
	</g>
	<g>
		<path class="st1" d="M88.3000031,189.1999969c0-2.3000031,0.5999985-3.8999939,2.9000015-3.8999939
			s2.9000015,1.6000061,2.9000015,3.8999939s-0.5999985,3.8999939-2.9000015,3.8999939
			S88.3000031,191.3999939,88.3000031,189.1999969z M89.9000015,189.1999969c0,1.6999969,0.4000015,2.3999939,1.3000031,2.3999939
			s1.3000031-0.6999969,1.3000031-2.3999939s-0.4000015-2.3999939-1.3000031-2.3999939
			S89.9000015,187.3999939,89.9000015,189.1999969z"/>
	</g>
	<g>
		<path class="st1" d="M95,192.8999939v-7.5h2.4000015c2.5,0,3.0999985,1.6000061,3.0999985,3.6999969
			c0,2.1000061-0.5999985,3.6999969-3.0999985,3.6999969H95V192.8999939z M96.5999985,191.3999939h0.8000031
			c1.0999985,0,1.5-0.8000031,1.5-2.3000031c0-1.3999939-0.3000031-2.3000031-1.5-2.3000031h-0.8000031V191.3999939z"/>
	</g>
	<g>
		<path class="st1" d="M101.4000015,192.8999939v-7.5H103v7.5H101.4000015z"/>
	</g>
	<g>
		<path class="st1" d="M109.5,185.3999939l-2,7.5h-1.8000031l-2-7.5h1.6999969l1.3000031,5.6999969L108,185.3999939H109.5z"/>
	</g>
	<g>
		<path class="st1" d="M114.5,189.6999969h-2.8000031v1.6999969h3.0999985v1.5h-4.5999985v-7.5h4.5999985v1.5h-3.0999985v1.3999939
			H114.5V189.6999969z"/>
	</g>
	<g>
		<path class="st1" d="M117.1999969,192.8999939h-1.5999985v-7.5h2.5c2,0,2.5999985,0.8999939,2.5999985,2.3000031
			c0,0.8999939-0.3000031,1.6000061-1,2L121,192.8000031h-1.8000031l-1-2.8000031h-1V192.8999939z M117.1999969,188.6000061
			h1.0999985c0.6999969,0,0.8000031-0.5,0.8000031-0.8999939S119,186.8000183,118.2999954,186.8000183h-1.0999985V188.6000061z"/>
	</g>
	<g>
		<path class="st1" d="M126.5,190.5c0,1.8999939-1.0999985,2.5-2.9000015,2.5c-0.8000031,0-1.6999969-0.1000061-2.3000031-0.5
			v-1.6000061c0.3000031,0.1999969,1.1999969,0.6000061,2.0999985,0.6000061c1.0999985,0,1.4000015-0.3999939,1.4000015-0.8999939
			c0-0.6000061-0.1999969-0.8000031-1-0.8999939c-1.8000031-0.1999969-2.5999985-0.8000031-2.5999985-2.3000031
			c0-1.3999939,0.8000031-2.3000031,2.6999969-2.3000031c1,0,1.6999969,0.1999969,2.0999985,0.3999939v1.5
			c-0.4000015-0.1999969-1.1999969-0.3999939-1.9000015-0.3999939c-0.8000031,0-1.3000031,0.3000031-1.3000031,0.6999969
			c0,0.5,0.3000031,0.6999969,1,0.8000031C125.5999985,188.6000061,126.5,188.8999939,126.5,190.5z"/>
	</g>
	<g>
		<path class="st1" d="M127.3999939,192.8999939v-7.5H129v7.5H127.3999939z"/>
	</g>
	<g>
		<path class="st1" d="M132.8999939,186.8999939v6h-1.6000061v-6h-1.8000031v-1.5h5.1000061v1.5H132.8999939z"/>
	</g>
	<g>
		<path class="st1" d="M138.8000031,190v2.8999939h-1.6000061V190l-2.3000031-4.6000061h1.8000031L138,188.5l1.3000031-3.1000061
			h1.8000031L138.8000031,190z"/>
	</g>
	<g>
		<path class="st1" d="M145,191.3999939h2.8999939v1.5h-4.5v-7.5H145V191.3999939z"/>
	</g>
	<g>
		<path class="st1" d="M148,189.1999969c0-2.3000031,0.6000061-3.8999939,2.8999939-3.8999939
			s2.8999939,1.6000061,2.8999939,3.8999939s-0.6000061,3.8999939-2.8999939,3.8999939S148,191.3999939,148,189.1999969z
			 M149.5,189.1999969c0,1.6999969,0.3999939,2.3999939,1.3000031,2.3999939s1.3000031-0.6999969,1.3000031-2.3999939
			s-0.3999939-2.3999939-1.3000031-2.3999939S149.5,187.3999939,149.5,189.1999969z"/>
	</g>
	<g>
		<path class="st1" d="M159.6000061,190.5c0,1.8999939-1.1000061,2.5-2.8999939,2.5c-0.8000031,0-1.6999969-0.1000061-2.3000031-0.5
			v-1.6000061c0.3000031,0.1999969,1.1999969,0.6000061,2.1000061,0.6000061c1.1000061,0,1.3999939-0.3999939,1.3999939-0.8999939
			c0-0.6000061-0.1999969-0.8000031-1-0.8999939c-1.8000031-0.1999969-2.6000061-0.8000031-2.6000061-2.3000031
			c0-1.3999939,0.8000031-2.3000031,2.6999969-2.3000031c1,0,1.6999969,0.1999969,2.1000061,0.3999939v1.5
			c-0.3999939-0.1999969-1.1999969-0.3999939-1.8999939-0.3999939c-0.8000031,0-1.3000031,0.3000031-1.3000031,0.6999969
			c0,0.5,0.3000031,0.6999969,1,0.8000031C158.8000031,188.6000061,159.6000061,188.8999939,159.6000061,190.5z"/>
	</g>
	<g>
		<path class="st1" d="M165.3999939,190.5c0,1.8999939-1.1000061,2.5-2.8999939,2.5c-0.8000031,0-1.6999969-0.1000061-2.3000031-0.5
			v-1.6000061C160.5,191.0999908,161.3999939,191.5,162.3000031,191.5c1.1000061,0,1.3999939-0.3999939,1.3999939-0.8999939
			c0-0.6000061-0.1999969-0.8000031-1-0.8999939c-1.8000031-0.1999969-2.6000061-0.8000031-2.6000061-2.3000031
			c0-1.3999939,0.8000031-2.3000031,2.6999969-2.3000031c1,0,1.6999969,0.1999969,2.1000061,0.3999939v1.5
			C164.5,186.8000031,163.6999969,186.6000061,163,186.6000061c-0.8000031,0-1.3000031,0.3000031-1.3000031,0.6999969
			c0,0.5,0.3000031,0.6999969,1,0.8000031C164.6000061,188.6000061,165.3999939,188.8999939,165.3999939,190.5z"/>
	</g>
</g>
</svg>
