<?xml version="1.0" encoding="utf-8"?>
<!-- Generator: Adobe Illustrator 20.1.0, SVG Export Plug-In . SVG Version: 6.00 Build 0)  -->
<svg version="1.1" id="Layer_1" xmlns="http://www.w3.org/2000/svg" xmlns:xlink="http://www.w3.org/1999/xlink" x="0px" y="0px"
	 width="218px" height="218px" viewBox="0 0 218 218" style="enable-background:new 0 0 218 218;" xml:space="preserve">
<style type="text/css">
	.st0{fill:#3F7F44;}
	.st1{fill:#FFFFFF;}
	.st2{fill:#F7F7F9;}
</style>
<g>
	<circle class="st0" cx="109.3821716" cy="108.9393158" r="108"/>
</g>
<g>
	<path class="st1" d="M67.3564453,30.4570312v31.9521484H59.355957V38.4077148l-5.550293,0.2001953v-5.550293l9.550293-2.6005859
		H67.3564453z"/>
	<path class="st1" d="M73.3051758,39.5078125v-7.4506836c2.1000977-1,6.300293-1.6000977,9.6508789-1.6000977
		c8.6503906,0,11.7504883,3.800293,11.7504883,10.4008789c0,4.050293-1.75,6.550293-4.050293,8.0004883
		c2.6503906,0.8999023,5.1503906,3.5,5.1503906,8.4003906c0,7.300293-3.4003906,12.1005859-13.1010742,12.1005859
		c-3.3999023,0-6.9003906-0.5-9.5004883-1.6499023V60.309082c2.8500977,1.2001953,5.6005859,1.7001953,9.0004883,1.7001953
		c4.3505859,0,5.4506836-2.0004883,5.4506836-4.7504883c0-3.1499023-1.8500977-4.4501953-5.1503906-4.4501953h-5.6503906v-7.050293
		h5.8500977c2.300293,0,3.800293-1.2001953,3.800293-4.050293c0-2.6000977-1.25-3.9501953-4.800293-3.9501953
		C78.5556641,37.7578125,76.0551758,38.4077148,73.3051758,39.5078125z"/>
</g>
<g>
	<path class="st1" d="M107.7421875,30.4887695c1.3925781,0,2.0170898,0.2563477,2.4970703,0.4482422v2.4169922
		c-0.7202148-0.2880859-1.2802734-0.4643555-2.2407227-0.4643555c-1.953125,0-2.8491211,0.784668-2.8491211,3.8256836
		s0.8959961,3.8256836,2.8491211,3.8256836c0.9604492,0,1.5205078-0.1762695,2.2407227-0.4643555v2.4169922
		c-0.4799805,0.1918945-1.1044922,0.4482422-2.4970703,0.4482422c-3.5053711,0-5.1699219-1.7128906-5.1860352-6.2265625
		C102.5722656,32.2016602,104.2368164,30.4887695,107.7421875,30.4887695z"/>
	<path class="st1" d="M114.1894531,40.3808594h4.8505859v2.3369141h-7.4111328V30.7128906h2.5605469V40.3808594z"/>
	<path class="st1" d="M120.1240234,42.7177734V30.7128906h2.5615234v12.0048828H120.1240234z"/>
	<path class="st1" d="M131.2304688,41.2612305h-2.5927734l-1.8574219-5.890625l0.0800781,7.347168h-2.5283203V30.7128906h3.2167969
		l2.3847656,7.4750977l2.3857422-7.4750977h3.2167969v12.0048828h-2.5292969l0.0800781-7.347168L131.2304688,41.2612305z"/>
	<path class="st1" d="M136.5878906,42.7177734l3.3291016-12.0688477h2.9453125l3.3291016,12.0688477h-2.7207031
		l-0.5605469-2.4648438h-3.0410156l-0.5605469,2.4648438H136.5878906z M140.3652344,38.2197266h2.0488281l-1.0244141-4.5454102
		L140.3652344,38.2197266z"/>
	<path class="st1" d="M150.6865234,33.0498047v9.6679688h-2.5605469v-9.6679688h-2.8974609v-2.3369141h8.3554688v2.3369141
		H150.6865234z"/>
	<path class="st1" d="M161.7421875,37.659668h-4.6259766v2.7211914h5.0908203v2.3369141h-7.6513672V30.7128906h7.6513672v2.3369141
		h-5.0908203v2.3208008h4.6259766V37.659668z"/>
	<path class="st1" d="M102.2202148,61.9179688l3.3291016-12.0688477h2.9453125l3.3295898,12.0688477h-2.7211914
		l-0.5605469-2.4648438h-3.0410156l-0.5605469,2.4648438H102.2202148z M105.9975586,57.4199219h2.0488281l-1.0244141-4.5454102
		L105.9975586,57.4199219z"/>
	<path class="st1" d="M117.6621094,49.6889648c1.3925781,0,2.0175781,0.2563477,2.4970703,0.4482422v2.4169922
		c-0.7197266-0.2880859-1.2802734-0.4643555-2.2402344-0.4643555c-1.953125,0-2.8496094,0.784668-2.8496094,3.8256836
		s0.8964844,3.8256836,2.8496094,3.8256836c0.9599609,0,1.5205078-0.1762695,2.2402344-0.4643555v2.4169922
		c-0.4794922,0.1918945-1.1044922,0.4482422-2.4970703,0.4482422c-3.5048828,0-5.1699219-1.7128906-5.1855469-6.2265625
		C112.4921875,51.4018555,114.1572266,49.6889648,117.6621094,49.6889648z"/>
	<path class="st1" d="M126.1904297,52.25v9.6679688h-2.5605469V52.25h-2.8974609v-2.3369141h8.3554688V52.25H126.1904297z"/>
	<path class="st1" d="M130.2363281,61.9179688V49.9130859h2.5615234v12.0048828H130.2363281z"/>
	<path class="st1" d="M134.3642578,55.9155273c0-3.6655273,1.0078125-6.2265625,4.7861328-6.2265625
		c3.7773438,0,4.7861328,2.5610352,4.7861328,6.2265625s-1.0087891,6.2265625-4.7861328,6.2265625
		C135.3720703,62.1420898,134.3642578,59.5810547,134.3642578,55.9155273z M136.9570312,55.9155273
		c0,2.8012695,0.6083984,3.9057617,2.1933594,3.9057617c1.5839844,0,2.1923828-1.1044922,2.1923828-3.9057617
		s-0.6083984-3.9057617-2.1923828-3.9057617C137.5654297,52.0097656,136.9570312,53.1142578,136.9570312,55.9155273z"/>
	<path class="st1" d="M151.6630859,61.9179688l-3.8740234-7.1708984l0.0644531,7.1708984h-2.5292969V49.9130859h2.5292969
		l3.8730469,7.1708984l-0.0634766-7.1708984h2.5283203v12.0048828H151.6630859z"/>
</g>
<path class="st1" d="M158.0911713,108.3918152c-3.4960022-4.9029999-19.3099976-24.4810028-48.7049942-24.4810028
	c-29.4000015,0-45.2089996,19.5780029-48.7100029,24.4810028c-0.1489983,0.2099991-0.2770004,0.3919983-0.382,0.5459976
	c0.1040001,0.1579971,0.2330017,0.3389969,0.382,0.5510025c3.5010033,4.901001,19.3100014,24.4790039,48.7100029,24.4790039
	c29.3949966,0,45.2080002-19.5780029,48.7049942-24.4790039c0.1529999-0.211998,0.2779999-0.3929977,0.3789978-0.5510025
	C158.3691711,108.7828217,158.2441711,108.6018219,158.0911713,108.3918152 M92.9881821,96.2898178
	c0.2649994-0.3889999,1.1449966-1.4990005,1.2519989-1.6389999c0.2259979-0.2919998,0.6750031-0.3519974,0.9909973-0.4069977
	c0.3119965-0.060997,0.7279968,0.1149979,0.7779999,0.3499985c0.0540009,0.2350006-0.1210022,1.1460037-0.2740021,1.302002
	c-0.4309998,0.4469986-1.5540009,1.0790024-2.1719971,0.9789963C93.0851822,96.8018188,92.8971863,96.4318161,92.9881821,96.2898178
	 M91.9381866,98.3788147c0.0459976-0.0559998,0.0879974-0.1019974,0.1060028-0.1240005
	c0.3700027-0.4219971,1.1060028-0.512001,1.6149979-0.5910034c0.5100021-0.0879974,1.189003,0.1689987,1.2710037,0.5080032
	c0.086998,0.336998-1.2779999,0.9550018-1.5270004,1.1869965c-0.7070007,0.6520004-1.814003,1.9789963-2.461998,2.1220016
	c-0.211998,0.0479965-0.3860016,0.0159988-0.5289993-0.0559998C90.8381882,100.3628159,91.3471832,99.3428192,91.9381866,98.3788147
	 M102.9391861,120.9478149c-0.3980026,1.5650024-0.8619995,2.1299973-1.2590027,2.6240005
	c-0.3949966,0.5-1.8610001,1.1360016-2.7919998,1.0680008c-0.9319992-0.0699997-1.060997-2.5559998-1.060997-3.8339996
	c0-0.4410019-0.625,0.8669968-0.9509964-1.7929993c-0.2080002-1.7030029-1.302002,0.1780014-1.3779984-0.9580002
	c-0.0780029-1.1340027-0.6240005-0.9079971-1.1989975-1.6159973c-0.5709991-0.7080002-1.2839966,0.0690002-2.0830002,0.427002
	c-0.7939987,0.3539963-0.4670029,0.5390015-1.5970001,0.1839981c-0.0289993-0.0090027-0.0429993-0.0179977-0.0719986-0.0270004
	c-1.0360031-2.4509964-1.6090012-5.1439972-1.6090012-7.9710007c0-0.6920013,0.0370026-1.3720016,0.1019974-2.0439987
	c0.0390015-0.0680008,0.0790024-0.1350021,0.1259995-0.1910019c1.0830002-1.2799988,1.0589981-1.5810013,1.0589981-1.5810013
	l1.197998-0.4150009c0,0,1.9140015,0.2949982,3.3550034,0.8379974c1.1869965,0.4449997,3.0569992,1.4520035,4.1439972,1.0090027
	c0.7860031-0.322998,1.401001-0.7539978,1.3270035-1.4079971c-0.0889969-0.8199997-0.7350006-1.0169983-1.5179977-0.4629974
	c-0.2890015,0.2040024-0.9039993-1.2369995-1.387001-1.1650009c-0.4820023,0.072998,0.5970001,1.6940002,0.1880035,1.7630005
	c-0.4110031,0.0699997-1.2350006-1.689003-1.3759995-1.9749985c-0.1389999-0.2839966-0.7750015-0.9909973-1.3470001-0.4509964
	c-1.2080002,1.1470032-3.1699982,1.0770035-3.5630035,1.3720016c-1.1989975,0.8970032-1.5159988-0.2949982-1.4889984-1.0210037
	c0.0479965-0.1650009,0.0970001-0.3330002,0.1500015-0.4970016c0.3919983-0.4319992,1.7959976-0.5749969,2.2789993-0.2529984
	c0.5299988,0.3539963,0.9100037-0.0910034,1.1169968-0.3059998c0.2099991-0.2099991,0.1360016-0.5510025,0.0039978-0.8330002
	c-0.1350021-0.2839966,0.2649994-0.4929962,0.5390015-0.5650024c0.276001-0.0739975,1.189003-0.711998,1.5530014-0.9260025
	c0.3679962-0.2109985,2.2610016-0.4410019,3.1100006-0.0169983c0.8479996,0.427002,1.6259995,0.0780029,2.0439987-0.413002
	c0.5230026-0.6200027,1.189003-1.0940018,1.4840012-1.2369995c0.2969971-0.1389999-0.7300034-1.098999-1.5749969-0.0530014
	c-0.8470001,1.0410004-1.2779999,1.137001-1.6760025,1.137001s-2.762001-0.5899963-3.0540009-1.336998
	c-0.288002-0.7460022,0.7389984-1.3050003,1.6119995-1.7289963c0.8720016-0.4150009,3.2600021-0.4100037,3.8700027-0.5479965
	c1.2409973-0.2720032,2.8270035-0.8960037,3.625-0.3529968c0.7959976,0.5350037-3.336998,1.4769974-1.9789963,2.2099991
	c0.4830017,0.2659988,2.6679993-1.2569962,3.4169998-1.6460037c1.7610016-0.9079971-1.7080002-1.2089996-1.2580032-3.0559998
	c0.5090027-2.086998-4.2549973-1.2789993-6.6289978-1.1019974c3.1849976-2.0410004,6.9670029-3.2279968,11.0279999-3.2279968
	c9.6610031,0,17.7529984,6.6920013,19.9119873,15.6920013c0.0149994,0.4449997-0.0549927,0.7659988-0.1000061,0.947998
	c-0.1860046,0.7369995-1.5859909,1.3720016-2.3979874,0.1839981c-0.2070007-0.2990036-1.0849991-1.1289978-1.0559998,0.2900009
	c0.0279999,1.4199982,1.3800049,1.564003,0.0699997,2.4169998c-1.3079987,0.8519974-1.5479965,0.6460037-2.1520004,0.8600006
	c-0.6039963,0.2139969-1.1880035,1.6760025-1.0449982,2.4580002c0.1460037,0.7819977,2.0139999,2.9160004,0.6279984,2.8290024
	c-0.3239975-0.0240021-2.7710037-1.6959991-3.1760025-2.7709961c-0.4260025-1.1320038-0.8919983-2.237999-1.2220001-3.0920029
	c-0.3339996-0.8509979-1.1969986-1.0680008-1.9290009-0.5670013c-0.7289963,0.4990005,0.2030029,0.9960022-0.3209991,2.0630035
	c-0.5210037,1.064003-0.8960037,2.0169983-1.6660004,1.1360016c-1.9990005-2.2910004-4.9029999-1.1600037-5.3580017-3.7089996
	c-0.2460022-1.3830032-1.435997-1.2490005-2.4300003-2.0319977c-1-0.7779999-1.5569992-1.2009964-1.7259979-0.6380005
	c-0.1480026,0.4940033,3.1309967,3.0930023,3.3639984,3.7600021c0.3479996,0.9889984-0.9820023,1.8610001-1.9550018,2.0960007
	c-0.9690018,0.2320023-1.3970032-0.5459976-2.3509979-1.5400009c-0.9540024-0.9919968-1.3720016-1.7020035-1.4380035-0.9219971
	c-0.0960007,1.1259995,0.9059982,2.7809982,1.8779984,3.3990021c0.8290024,0.5250015,1.7570038,0.7630005,1.4889984,1.6149979
	c-0.2699966,0.8539963-0.0049973,0.3700027-0.9339981,1.288002c-0.9300003,0.9240036-1.1070023,1.2210007-1.0400009,2.4950027
	c0.0660019,1.2789993-0.2659988,1.3529968-0.4660034,2.4150009
	C103.8021851,120.308815,103.3411865,119.3888168,102.9391861,120.9478149 M124.9071884,112.7818146
	c0.6880035-0.0559998,1.7230072,0.8980026,1.3179932,1.2649994c-0.4029999,0.362999-1.435997,0.2300034-1.9530029-0.1750031
	C123.7571869,113.4708176,124.5981827,112.808815,124.9071884,112.7818146 M124.0371857,112.1518173
	c-0.2210007-0.0820007-0.4160004-0.2910004-0.5830002-0.7939987c-0.1669998-0.5019989,0.2559967-0.7890015,0.6689987-0.5879974
	c0.4199982,0.2149963,0.9649963,0.8410034,0.9649963,1.1760025S124.2621841,112.2408218,124.0371857,112.1518173
	 M114.9991837,112.1168213c-0.4039993,0.3600006-1.4400024,0.2289963-1.9580002-0.1760025
	c-0.5139999-0.4000015,0.3270035-1.064003,0.6350021-1.0889969
	C114.3651886,110.7898178,115.4001846,111.7528152,114.9991837,112.1168213 M106.6361847,116.183815
	c-0.2819977,0.4609985-1.052002,3.9059982-1.5690002,3.5049973c-0.5189972-0.4020004,0.2089996-3.9950027,0.3590012-4.2689972
	C106.2351837,113.936821,107.9851837,114.009819,106.6361847,116.183815 M109.4211884,129.5318146
	c-2.0009995,0-3.9309998-0.2920074-5.7569962-0.8249969c-0.262001-0.2140045-0.4120026-0.5709991-0.2480011-1.0009995
	c0.6340027-1.6520004,2.5209961-2.2990036,4.0110016-2.4420013c3.3199997-0.322998,7.6849976,2.1559982,8.3789978,1.7559967
	c0.6969986-0.3990021,2.0999985-2.2249985,4.1600037-2.1480026c1.4059982,0.0540009,1.3960037,0.2900009,1.8679962,0.4680023
	C118.389183,127.9668198,114.0891876,129.5318146,109.4211884,129.5318146 M123.8631821,123.5698166
	c-0.2050018-0.0569992-0.4150009-0.1240005-0.6429977-0.2369995c-1.1180038-0.5680008-0.9840012,0.3399963-1.5329971,0.1399994
	c-0.5540009-0.2050018,0.6200027-1.4800034-1.0319977-0.4020004c-1.6439972,1.0759964-1.1989975-0.1660004-1.9169998-1.987999
	c-0.7249985-1.8239975,0.8249969-3.9039993,2.1190033-4.3759995c1.7789993-0.6449966,2.8840027-0.7750015,3.7180023-0.9810028
	c2.4610062-0.6139984,2.9800034-2.0739975,3.4269867-1.185997c0.0850067,0.1660004,0.1660004,0.3239975,0.2400055,0.473999
	c0.1439972,0.2659988,0.3090057,0.8030014,0.3159943,1.3339996
	C127.5131912,119.0838165,125.9021835,121.5418167,123.8631821,123.5698166 M129.473175,113.2308197
	c-0.5500031-0.1490021-2.8499985-3.3290024-1.0310059-5.4209976c0.302002-0.3440018-0.609993-1.3560028-0.3600006-1.375
	c0.9940033-0.0780029,1.522995,0.5390015,1.7839966,1.4290009c0.0209961,0.3929977,0.0350037,0.788002,0.0350037,1.1880035
	C129.9011841,110.4838181,129.7511749,111.8818207,129.473175,113.2308197"/>
<g>
	<path class="st2" d="M39.0099983,154.9600067v6.0370026h-1.598999v-6.0370026h-1.8090019v-1.4589996h5.2169991v1.4589996
		H39.0099983z"/>
	<path class="st2" d="M40.3720016,160.996994l2.0789986-7.5359955h1.8390007l2.0789986,7.5359955h-1.6990013l-0.3499985-1.5390015
		h-1.9000015l-0.3499985,1.5390015H40.3720016z M42.7299995,158.1880035h1.2789993l-0.6399994-2.8379974L42.7299995,158.1880035z"/>
	<path class="st2" d="M49.1599998,158.048996l-0.5489998,0.6999969v2.2489929h-1.5789986v-7.4960022h1.5789986v3.197998
		l2.2290001-3.197998h1.9290009l-2.598999,3.2779999l2.7779999,4.2180023h-1.9889984L49.1599998,158.048996z"/>
	<path class="st2" d="M57.9690018,157.8390045h-2.8880005v1.6990051h3.1780014v1.4589996h-4.7770004v-7.4960022h4.7770004v1.4589996
		h-3.1780014v1.4490051h2.8880005V157.8390045z"/>
	<path class="st2" d="M61.0309982,158.628006v-5.1269989h1.598999v5.0469971c0,0.9700012,0.6299973,1.1399994,1.189003,1.1399994
		s1.189003-0.1699982,1.189003-1.1399994v-5.0469971h1.598999v5.1269989c0,2.0590057-1.6490021,2.5090027-2.7890015,2.5090027
		S61.0309982,160.6869965,61.0309982,158.628006z"/>
	<path class="st2" d="M69.0810013,160.996994h-1.598999v-7.4960022h2.5479965c2.0189972,0,2.6790009,0.9199982,2.6790009,2.348999
		c0,0.9290009-0.2600021,1.6390076-1.0490036,2.0189972l1.3290024,3.128006h-1.8690033l-1.0090027-2.8090057h-1.0289993v2.8090057
		H69.0810013z M69.0810013,156.7389984h1.0889969c0.7089996,0,0.7990036-0.4790039,0.7990036-0.8890076
		c0-0.4199982-0.0899963-0.8899994-0.7990036-0.8899994h-1.0889969V156.7389984z"/>
	<path class="st2" d="M73.4810028,157.2489929c0-2.6080017,0.939003-3.8880005,3.2180023-3.8880005
		c1.0199966,0,1.7590027,0.1499939,2.2089996,0.3500061v1.5590057c-0.6200027-0.2599945-1.2900009-0.4100037-1.9089966-0.4100037
		c-1.4290009,0-1.8990021,0.6399994-1.8990021,2.3889923c0,1.8690033,0.5100021,2.3890076,1.8990021,2.3890076
		c0.1500015,0,0.3499985-0.0099945,0.4599991-0.0299988v-1.5189972h-1.0599976v-1.4290009h2.6589966v3.9680023
		c-0.4499969,0.2799988-1.3300018,0.5099945-2.4089966,0.5099945
		C74.4199982,161.1369934,73.4810028,159.8580017,73.4810028,157.2489929z"/>
	<path class="st2" d="M84.4290009,157.8390045h-2.8880005v1.6990051h3.1780014v1.4589996h-4.7770004v-7.4960022h4.7770004v1.4589996
		h-3.1780014v1.4490051h2.8880005V157.8390045z"/>
	<path class="st2" d="M89.4990005,160.996994l-2.4179993-4.4779968l0.0400009,4.4779968h-1.5790024v-7.4960022h1.5790024
		l2.4179993,4.4779968l-0.0400009-4.4779968h1.5790024v7.4960022H89.4990005z"/>
	<path class="st2" d="M95.0999985,154.9600067v6.0370026H93.5v-6.0370026h-1.8089981v-1.4589996h5.2170029v1.4589996H95.0999985z"/>
	<path class="st2" d="M98.9609985,160.996994l2.0790024-7.5359955h1.8389969l2.0790024,7.5359955h-1.6989975l-0.3499985-1.5390015
		h-1.8990021l-0.3499985,1.5390015H98.9609985z M101.3199997,158.1880035h1.2789993l-0.6399994-2.8379974L101.3199997,158.1880035z"
		/>
	<path class="st2" d="M108.6090012,153.3609924c0.8700027,0,1.2590027,0.1600037,1.5589981,0.2799988v1.5090027
		c-0.4499969-0.1799927-0.7990036-0.2899933-1.3990021-0.2899933c-1.2200012,0-1.7789993,0.4900055-1.7789993,2.3889923
		s0.5599976,2.3890076,1.7789993,2.3890076c0.5999985,0,0.9489975-0.1100006,1.3990021-0.2899933v1.5090027
		c-0.3000031,0.1199951-0.689003,0.2799988-1.5589981,0.2799988c-2.189003,0-3.2279968-1.0700073-3.237999-3.8880005
		C105.3809967,154.4309998,106.4199982,153.3609924,108.6090012,153.3609924z"/>
	<path class="st2" d="M113.939003,154.9600067v6.0370026h-1.598999v-6.0370026h-1.8089981v-1.4589996h5.2170029v1.4589996
		H113.939003z"/>
	<path class="st2" d="M116.4710007,160.996994v-7.4960022h1.598999v7.4960022H116.4710007z"/>
	<path class="st2" d="M119.0510025,157.2489929c0-2.2890015,0.6299973-3.8880005,2.987999-3.8880005
		c2.3590012,0,2.9889984,1.598999,2.9889984,3.8880005s-0.6299973,3.8880005-2.9889984,3.8880005
		C119.6809998,161.1369934,119.0510025,159.5379944,119.0510025,157.2489929z M120.6699982,157.2489929
		c0,1.7489929,0.3799973,2.4389954,1.3690033,2.4389954c0.9899979,0,1.3700027-0.6900024,1.3700027-2.4389954
		s-0.3799973-2.4380035-1.3700027-2.4380035C121.0500031,154.8110046,120.6699982,155.5,120.6699982,157.2489929z"/>
	<path class="st2" d="M129.8580017,160.996994l-2.4179993-4.4779968l0.0399933,4.4779968h-1.5790024v-7.4960022h1.5790024
		l2.4179993,4.4779968l-0.0399933-4.4779968h1.5789948v7.4960022H129.8580017z"/>
	<path class="st2" d="M137.1589966,154.9600067v6.0370026h-1.598999v-6.0370026h-1.8090057v-1.4589996h5.2169952v1.4589996
		H137.1589966z"/>
	<path class="st2" d="M139.2299957,157.2489929c0-2.2890015,0.6300049-3.8880005,2.9880066-3.8880005
		c2.3589935,0,2.9889984,1.598999,2.9889984,3.8880005s-0.6300049,3.8880005-2.9889984,3.8880005
		C139.8600006,161.1369934,139.2299957,159.5379944,139.2299957,157.2489929z M140.8500061,157.2489929
		c0,1.7489929,0.3800049,2.4389954,1.3690033,2.4389954c0.9900055,0,1.3699951-0.6900024,1.3699951-2.4389954
		s-0.3800049-2.4380035-1.3699951-2.4380035C141.2290039,154.8110046,140.8500061,155.5,140.8500061,157.2489929z"/>
	<path class="st2" d="M151.2689972,153.3609924c0.8699951,0,1.2590027,0.1600037,1.5590057,0.2799988v1.5090027
		c-0.4499969-0.1799927-0.798996-0.2899933-1.3990021-0.2899933c-1.2200012,0-1.779007,0.4900055-1.779007,2.3889923
		s0.5599976,2.3890076,1.779007,2.3890076c0.6000061,0,0.9490051-0.1100006,1.3990021-0.2899933v1.5090027
		c-0.3000031,0.1199951-0.6889954,0.2799988-1.5590057,0.2799988c-2.1889954,0-3.2279968-1.0700073-3.2380066-3.8880005
		C148.0410004,154.4309998,149.0800018,153.3609924,151.2689972,153.3609924z"/>
	<path class="st2" d="M153.6499939,157.2489929c0-2.2890015,0.6300049-3.8880005,2.9880066-3.8880005
		c2.3589935,0,2.9889984,1.598999,2.9889984,3.8880005s-0.6300049,3.8880005-2.9889984,3.8880005
		C154.2799988,161.1369934,153.6499939,159.5379944,153.6499939,157.2489929z M155.2700043,157.2489929
		c0,1.7489929,0.3800049,2.4389954,1.3690033,2.4389954c0.9900055,0,1.3699951-0.6900024,1.3699951-2.4389954
		s-0.3800049-2.4380035-1.3699951-2.4380035C155.6490021,154.8110046,155.2700043,155.5,155.2700043,157.2489929z"/>
	<path class="st2" d="M164.8079987,160.0870056h-1.6190033l-1.1600037-3.6779938l0.0500031,4.5870056H160.5v-7.4960022h2.0090027
		l1.4889984,4.6670074l1.4889984-4.6669922h2.0090027v7.4960022h-1.5789948l0.0500031-4.5870056L164.8079987,160.0870056z"/>
	<path class="st2" d="M168.4199982,153.5010071h2.6880035c1.8990021,0,2.4179993,0.8999939,2.4179993,2.1190033
		c0,0.6399994-0.3200073,1.1589966-0.8099976,1.4190063c0.5599976,0.1900024,1.029007,0.7400055,1.029007,1.6690063
		c0,1.298996-0.5890045,2.2890015-2.5980072,2.2890015h-2.7290039v-7.4960175H168.4199982z M171.048996,154.8600006h-1.029007
		v1.6089935h1.029007c0.6600037,0,0.779007-0.4600067,0.779007-0.8000031
		C171.8280029,155.3200073,171.7180023,154.8600006,171.048996,154.8600006z M170.0200043,159.6380005h1.1089935
		c0.6690063,0,0.9190063-0.3899994,0.9190063-0.9389954c0-0.5599976-0.2599945-0.9290009-0.9190063-0.9290009h-1.1089935
		V159.6380005z"/>
	<path class="st2" d="M174.1699982,160.996994l2.0789948-7.5359955h1.8390045l2.0789948,7.5359955h-1.6990051l-0.3500061-1.5390015
		h-1.8990021l-0.3500061,1.5390015H174.1699982z M176.529007,158.1880035h1.279007l-0.6399994-2.8379974L176.529007,158.1880035z"/>
	<path class="st2" d="M182.9790039,154.9600067v6.0370026h-1.598999v-6.0370026h-1.8090057v-1.4589996h5.2169952v1.4589996
		H182.9790039z"/>
	<path class="st2" d="M37.0639992,167.3609924c0.8699989,0,1.2589989,0.1600037,1.5590019,0.2799988v1.5090027
		c-0.4500008-0.1799927-0.7989998-0.2899933-1.3989983-0.2899933c-1.2200012,0-1.7789993,0.4900055-1.7789993,2.3889923
		s0.5600014,2.3890076,1.7789993,2.3890076c0.5999985,0,0.9490013-0.1100006,1.3989983-0.2899933v1.5090027
		c-0.2999992,0.1199951-0.6889992,0.2799988-1.5589981,0.2799988c-2.1889992,0-3.2280006-1.0700073-3.237999-3.8880005
		C33.8359985,168.4309998,34.875,167.3609924,37.0639992,167.3609924z"/>
	<path class="st2" d="M41.0960007,173.5379944h3.0279999v1.4589996h-4.6269989v-7.4960022h1.598999V173.5379944z"/>
	<path class="st2" d="M44.8059998,174.996994v-7.4960022h1.598999v7.4960022H44.8059998z"/>
	<path class="st2" d="M51.7439995,174.0870056H50.125l-1.1599998-3.6779938l0.0499992,4.5870056h-1.5789986v-7.4960022h2.0089989
		l1.4889984,4.6670074l1.4889984-4.6669922h2.0089989v7.4960022h-1.5789986l0.0499992-4.5870056L51.7439995,174.0870056z"/>
	<path class="st2" d="M55.0960007,174.996994l2.0789986-7.5359955h1.8390007l2.0789986,7.5359955h-1.6990013l-0.3499985-1.5390015
		h-1.8989983l-0.3499985,1.5390015H55.0960007z M57.4550018,172.1880035h1.2789993l-0.6399994-2.8379974L57.4550018,172.1880035z"/>
	<path class="st2" d="M63.9039993,168.9600067v6.0370026h-1.598999v-6.0370026h-1.8089981v-1.4589996h5.2170029v1.4589996
		H63.9039993z"/>
	<path class="st2" d="M70.8130035,171.8390045h-2.8880005v1.6990051h3.1780014v1.4589996H66.326004v-7.4960022h4.7770004v1.4589996
		h-3.1780014v1.4490051h2.8880005V171.8390045z"/>
	<path class="st2" d="M77.1139984,167.3609924c0.8700027,0,1.2590027,0.1600037,1.5589981,0.2799988v1.5090027
		c-0.4499969-0.1799927-0.7990036-0.2899933-1.3990021-0.2899933c-1.2200012,0-1.7789993,0.4900055-1.7789993,2.3889923
		s0.5599976,2.3890076,1.7789993,2.3890076c0.5999985,0,0.9489975-0.1100006,1.3990021-0.2899933v1.5090027
		c-0.3000031,0.1199951-0.689003,0.2799988-1.5589981,0.2799988c-2.189003,0-3.2279968-1.0700073-3.237999-3.8880005
		C73.8860016,168.4309998,74.9250031,167.3609924,77.1139984,167.3609924z"/>
	<path class="st2" d="M83.4229965,174.996994v-3.1380005h-2.2779999v3.1380005h-1.598999v-7.4960022h1.598999v2.897995h2.2779999
		v-2.897995h1.598999v7.4960022H83.4229965z"/>
	<path class="st2" d="M85.685997,174.996994l2.0790024-7.5359955h1.8389969l2.0790024,7.5359955h-1.6989975l-0.3499985-1.5390015
		h-1.8990021l-0.3499985,1.5390015H85.685997z M88.0439987,172.1880035h1.2789993l-0.6399994-2.8379974L88.0439987,172.1880035z"/>
	<path class="st2" d="M96.3040009,174.996994l-2.4179993-4.4779968l0.0400009,4.4779968h-1.5790024v-7.4960022h1.5790024
		l2.4179993,4.4779968l-0.0400009-4.4779968h1.5790024v7.4960022H96.3040009z"/>
	<path class="st2" d="M98.7559967,171.2489929c0-2.6080017,0.939003-3.8880005,3.2180023-3.8880005
		c1.0199966,0,1.7590027,0.1499939,2.2089996,0.3500061v1.5590057c-0.6200027-0.2599945-1.2900009-0.4100037-1.9089966-0.4100037
		c-1.4290009,0-1.8990021,0.6399994-1.8990021,2.3889923c0,1.8690033,0.5100021,2.3890076,1.8990021,2.3890076
		c0.1500015,0,0.3499985-0.0099945,0.4599991-0.0299988v-1.5189972h-1.0599976v-1.4290009h2.6589966v3.9680023
		c-0.4499969,0.2799988-1.3300018,0.5099945-2.4089966,0.5099945
		C99.6949997,175.1369934,98.7559967,173.8580017,98.7559967,171.2489929z"/>
	<path class="st2" d="M109.7030029,171.8390045h-2.8880005v1.6990051h3.1780014v1.4589996h-4.7770004v-7.4960022h4.7770004
		v1.4589996h-3.1780014v1.4490051h2.8880005V171.8390045z"/>
	<path class="st2" d="M112.5559998,174.996994l2.0790024-7.5359955h1.8389969l2.0790024,7.5359955h-1.6989975l-0.3499985-1.5390015
		h-1.8990021l-0.3499985,1.5390015H112.5559998z M114.9150009,172.1880035h1.2789993l-0.6399994-2.8379974L114.9150009,172.1880035z
		"/>
	<path class="st2" d="M123.1729965,174.996994l-2.4179993-4.4779968l0.0400009,4.4779968h-1.5790024v-7.4960022h1.5790024
		l2.4179993,4.4779968l-0.0400009-4.4779968h1.5790024v7.4960022H123.1729965z"/>
	<path class="st2" d="M125.6760025,174.996994v-7.4960022h2.4280014c2.5390015,0,3.197998,1.6190033,3.197998,3.7480011
		s-0.6589966,3.7480011-3.197998,3.7480011H125.6760025z M127.2749939,173.5379944h0.8589935
		c1.1690063,0,1.5090027-0.8399963,1.5090027-2.2890015c0-1.4389954-0.3399963-2.2890015-1.5090027-2.2890015h-0.8589935
		V173.5379944z"/>
	<path class="st2" d="M134.2350006,174.996994v-7.4960022h1.598999v7.4960022H134.2350006z"/>
	<path class="st2" d="M139.9640045,168.9600067v6.0370026h-1.598999v-6.0370026h-1.8090057v-1.4589996h5.2169952v1.4589996
		H139.9640045z"/>
	<path class="st2" d="M147.5619965,172.6080017c0,1.8589935-1.1690063,2.529007-2.9380035,2.529007
		c-0.8099976,0-1.798996-0.1399994-2.3390045-0.4600067v-1.6390076c0.3500061,0.1999969,1.1889954,0.5800018,2.1790009,0.5800018
		c1.1289978,0,1.4589996-0.3500061,1.4589996-0.8589935c0-0.5700073-0.25-0.7599945-1.0090027-0.8589935
		c-1.8990021-0.25-2.628006-0.8099976-2.628006-2.279007c0-1.3589935,0.8300018-2.2590027,2.8090057-2.2590027
		c1.0189972,0,1.7689972,0.1799927,2.1190033,0.3699951v1.548996c-0.4100037-0.1999969-1.2389984-0.3999939-1.9989929-0.3999939
		c-0.8300018,0-1.2890015,0.2599945-1.2890015,0.7400055c0,0.5399933,0.2899933,0.7089996,1.0690002,0.8190002
		C146.6529999,170.6690063,147.5619965,171.0090027,147.5619965,172.6080017z"/>
	<path class="st2" d="M150.4450073,174.996994v-7.4960022h1.598999v7.4960022H150.4450073z"/>
	<path class="st2" d="M157.3829956,174.0870056h-1.6190033l-1.1600037-3.6779938l0.0500031,4.5870056h-1.5789948v-7.4960022
		h2.0090027l1.4889984,4.6670074l1.4889984-4.6669922h2.0090027v7.4960022h-1.5789948l0.0500031-4.5870056L157.3829956,174.0870056z
		"/>
	<path class="st2" d="M162.5939941,174.996994h-1.598999v-7.4960022h2.5390015c1.9989929,0,2.6880035,1.1690063,2.6880035,2.4490051
		c0,1.298996-0.6900024,2.4490051-2.6880035,2.4490051h-0.9389954v2.5979919H162.5939941z M162.5939941,170.9589996h0.9490051
		c0.8000031,0,0.9499969-0.6100006,0.9499969-1s-0.1499939-1-0.9499969-1h-0.9490051V170.9589996z"/>
	<path class="st2" d="M165.7850037,174.996994l2.0789948-7.5359955h1.8390045l2.0789948,7.5359955h-1.6990051l-0.3500061-1.5390015
		h-1.8990021l-0.3500061,1.5390015H165.7850037z M168.1439972,172.1880035h1.279007l-0.6399994-2.8379974L168.1439972,172.1880035z"
		/>
	<path class="st2" d="M175.4329987,167.3609924c0.8699951,0,1.2590027,0.1600037,1.5590057,0.2799988v1.5090027
		c-0.4499969-0.1799927-0.798996-0.2899933-1.3990021-0.2899933c-1.2200012,0-1.779007,0.4900055-1.779007,2.3889923
		s0.5599976,2.3890076,1.779007,2.3890076c0.6000061,0,0.9490051-0.1100006,1.3990021-0.2899933v1.5090027
		c-0.3000031,0.1199951-0.6889954,0.2799988-1.5590057,0.2799988c-2.1889954,0-3.2279968-1.0700073-3.2380066-3.8880005
		C172.2050018,168.4309998,173.2440033,167.3609924,175.4329987,167.3609924z"/>
	<path class="st2" d="M180.7630005,168.9600067v6.0370026h-1.598999v-6.0370026h-1.8090057v-1.4589996h5.2169952v1.4589996
		H180.7630005z"/>
	<path class="st2" d="M188.3619995,172.6080017c0,1.8589935-1.1690063,2.529007-2.9380035,2.529007
		c-0.8099976,0-1.798996-0.1399994-2.3390045-0.4600067v-1.6390076c0.3500061,0.1999969,1.1889954,0.5800018,2.1790009,0.5800018
		c1.1289978,0,1.4589996-0.3500061,1.4589996-0.8589935c0-0.5700073-0.25-0.7599945-1.0090027-0.8589935
		c-1.8990021-0.25-2.628006-0.8099976-2.628006-2.279007c0-1.3589935,0.8300018-2.2590027,2.8090057-2.2590027
		c1.0189972,0,1.7689972,0.1799927,2.1190033,0.3699951v1.548996c-0.4100037-0.1999969-1.2389984-0.3999939-1.9989929-0.3999939
		c-0.8300018,0-1.2890015,0.2599945-1.2890015,0.7400055c0,0.5399933,0.2899933,0.7089996,1.0690002,0.8190002
		C187.4530029,170.6690063,188.3619995,171.0090027,188.3619995,172.6080017z"/>
</g>
</svg>
