<?xml version="1.0" encoding="utf-8"?>
<!-- Generator: Adobe Illustrator 20.1.0, SVG Export Plug-In . SVG Version: 6.00 Build 0)  -->
<svg version="1.1" id="Layer_1" xmlns="http://www.w3.org/2000/svg" xmlns:xlink="http://www.w3.org/1999/xlink" x="0px" y="0px"
	 width="218px" height="218px" viewBox="0 0 218 218" style="enable-background:new 0 0 218 218;" xml:space="preserve">
<style type="text/css">
	.st0{fill:#17496B;}
	.st1{fill:#FFFFFF;}
	.st2{fill:#F8F4F9;}
</style>
<g>
	<circle class="st0" cx="109.3821716" cy="108.9393158" r="108"/>
</g>
<g>
	<path class="st1" d="M56.0615234,26.5664062v26.8427734H49.340332V33.2456055l-4.6625977,0.1679688v-4.6625977l8.0229492-2.1845703
		H56.0615234z"/>
	<path class="st1" d="M61.8134766,58.6601562l11.5942383-25.456543l-13.6948242,0.1259766v-6.175293h20.0375977v4.1171875
		L69.4169922,58.6601562H61.8134766z"/>
</g>
<g>
	<path class="st1" d="M88.7856445,36.7177734h-2.2412109V26.2119141h3.5576172c2.8017578,0,3.7680664,1.6391602,3.7680664,3.4321289
		c0,1.8208008-0.9663086,3.4316406-3.7680664,3.4316406h-1.3164062V36.7177734z M88.7856445,31.0585938h1.3305664
		c1.1206055,0,1.3305664-0.8544922,1.3305664-1.4003906c0-0.5463867-0.2099609-1.4008789-1.3305664-1.4008789h-1.3305664V31.0585938
		z"/>
	<path class="st1" d="M93.25,36.7177734L96.1635742,26.15625h2.5771484l2.9135742,10.5615234h-2.3813477l-0.4902344-2.1572266
		H96.121582l-0.4902344,2.1572266H93.25z M96.5556641,32.7817383h1.7929688l-0.8964844-3.9780273L96.5556641,32.7817383z"/>
	<path class="st1" d="M104.8154297,36.7177734h-2.2412109V26.2119141h3.5717773
		c2.8295898,0,3.7539062,1.2890625,3.7539062,3.2919922c0,1.3027344-0.3642578,2.2973633-1.4707031,2.8295898l1.862793,4.3842773
		h-2.6191406l-1.4150391-3.9360352h-1.4423828V36.7177734z M104.8154297,30.7504883h1.5268555
		c0.9941406,0,1.1206055-0.6723633,1.1206055-1.246582c0-0.5883789-0.1264648-1.246582-1.1206055-1.246582h-1.5268555V30.7504883z"
		/>
	<path class="st1" d="M114.8271484,28.2573242v8.4604492h-2.2412109v-8.4604492h-2.5361328v-2.0454102h7.3125v2.0454102H114.8271484
		z"/>
	<path class="st1" d="M123.7587891,36.7177734l-3.3896484-6.2753906l0.0566406,6.2753906h-2.2138672V26.2119141h2.2138672
		l3.3896484,6.2753906l-0.0566406-6.2753906h2.2138672v10.5058594H123.7587891z"/>
	<path class="st1" d="M133.5458984,32.2915039h-4.0478516v2.3813477h4.4541016v2.0449219h-6.6953125V26.2119141h6.6953125v2.0454102
		h-4.4541016v2.0307617h4.0478516V32.2915039z"/>
	<path class="st1" d="M137.3378906,36.7177734h-2.2412109V26.2119141h3.5712891
		c2.8300781,0,3.7548828,1.2890625,3.7548828,3.2919922c0,1.3027344-0.3642578,2.2973633-1.4707031,2.8295898l1.8623047,4.3842773
		h-2.6191406l-1.4150391-3.9360352h-1.4423828V36.7177734z M137.3378906,30.7504883h1.5263672
		c0.9951172,0,1.1210938-0.6723633,1.1210938-1.246582c0-0.5883789-0.1259766-1.246582-1.1210938-1.246582h-1.5263672V30.7504883z"
		/>
	<path class="st1" d="M150.8222656,33.3701172c0,2.6054688-1.6386719,3.5439453-4.1181641,3.5439453
		c-1.1347656,0-2.5214844-0.1962891-3.2783203-0.6445312V33.972168c0.4902344,0.2802734,1.6669922,0.8125,3.0537109,0.8125
		c1.5830078,0,2.0449219-0.4902344,2.0449219-1.2045898c0-0.7983398-0.3496094-1.0644531-1.4140625-1.2045898
		c-2.6621094-0.3500977-3.6845703-1.1347656-3.6845703-3.1938477c0-1.9047852,1.1630859-3.1655273,3.9365234-3.1655273
		c1.4287109,0,2.4794922,0.2519531,2.9697266,0.5180664v2.1713867c-0.5742188-0.2802734-1.7373047-0.5605469-2.8017578-0.5605469
		c-1.1621094,0-1.8066406,0.3642578-1.8066406,1.0366211c0,0.7563477,0.40625,0.9946289,1.4990234,1.1484375
		C149.5478516,30.6523438,150.8222656,31.1289062,150.8222656,33.3701172z"/>
	<path class="st1" d="M157.3310547,36.7177734v-4.3984375h-3.1933594v4.3984375h-2.2412109V26.2119141h2.2412109v4.0625h3.1933594
		v-4.0625h2.2412109v10.5058594H157.3310547z"/>
	<path class="st1" d="M161.0107422,36.7177734V26.2119141h2.2412109v10.5058594H161.0107422z"/>
	<path class="st1" d="M166.9335938,36.7177734h-2.2412109V26.2119141H168.25c2.8017578,0,3.7685547,1.6391602,3.7685547,3.4321289
		c0,1.8208008-0.9667969,3.4316406-3.7685547,3.4316406h-1.3164062V36.7177734z M166.9335938,31.0585938h1.3300781
		c1.1210938,0,1.3310547-0.8544922,1.3310547-1.4003906c0-0.5463867-0.2099609-1.4008789-1.3310547-1.4008789h-1.3300781V31.0585938
		z"/>
	<path class="st1" d="M92.7495117,49.2314453h-3.9638672v4.2861328h-2.2412109V43.0117188h6.6254883v2.0454102h-4.3842773v2.1708984
		h3.9638672V49.2314453z"/>
	<path class="st1" d="M93.9780273,48.2646484c0-3.2075195,0.8828125-5.4487305,4.1884766-5.4487305
		s4.1879883,2.2412109,4.1879883,5.4487305c0,3.2080078-0.8823242,5.4492188-4.1879883,5.4492188
		S93.9780273,51.4726562,93.9780273,48.2646484z M96.2475586,48.2646484c0,2.4511719,0.5322266,3.4179688,1.9189453,3.4179688
		s1.9189453-0.9667969,1.9189453-3.4179688s-0.5322266-3.4179688-1.9189453-3.4179688S96.2475586,45.8134766,96.2475586,48.2646484z
		"/>
	<path class="st1" d="M105.8095703,53.5175781h-2.2412109V43.0117188h3.5717773
		c2.8295898,0,3.7543945,1.2890625,3.7543945,3.2919922c0,1.3027344-0.3642578,2.2973633-1.4711914,2.8295898l1.862793,4.3842773
		h-2.6191406l-1.4150391-3.9360352h-1.4423828V53.5175781z M105.8095703,47.550293h1.5268555
		c0.9941406,0,1.1206055-0.6723633,1.1206055-1.246582c0-0.5883789-0.1264648-1.246582-1.1206055-1.246582h-1.5268555V47.550293z"/>
	<path class="st1" d="M118.7607422,45.0571289v8.4604492h-2.2412109v-8.4604492h-2.5361328v-2.0454102h7.3125v2.0454102H118.7607422
		z"/>
	<path class="st1" d="M127.5810547,53.5175781v-4.3984375h-3.1933594v4.3984375h-2.2412109V43.0117188h2.2412109v4.0625h3.1933594
		v-4.0625h2.2412109v10.5058594H127.5810547z"/>
	<path class="st1" d="M137.3955078,49.0913086h-4.0478516v2.3813477h4.4541016v2.0449219h-6.6953125V43.0117188h6.6953125v2.0454102
		h-4.4541016v2.0307617h4.0478516V49.0913086z"/>
	<path class="st1" d="M141.6757812,48.2646484c0-3.6557617,1.3164062-5.4487305,4.5107422-5.4487305
		c1.4287109,0,2.4648438,0.2099609,3.0957031,0.4902344v2.1850586c-0.8691406-0.3642578-1.8076172-0.5742188-2.6757812-0.5742188
		c-2.0029297,0-2.6611328,0.8964844-2.6611328,3.3476562c0,2.6196289,0.7138672,3.3476562,2.6611328,3.3476562
		c0.2099609,0,0.4902344-0.0136719,0.6445312-0.0419922v-2.1289062h-1.4853516v-2.0029297h3.7265625v5.5610352
		c-0.6308594,0.3920898-1.8632812,0.7143555-3.3759766,0.7143555
		C142.9921875,53.7138672,141.6757812,51.9208984,141.6757812,48.2646484z"/>
	<path class="st1" d="M150.6503906,48.2646484c0-3.2075195,0.8828125-5.4487305,4.1884766-5.4487305
		s4.1884766,2.2412109,4.1884766,5.4487305c0,3.2080078-0.8828125,5.4492188-4.1884766,5.4492188
		S150.6503906,51.4726562,150.6503906,48.2646484z M152.9199219,48.2646484c0,2.4511719,0.5322266,3.4179688,1.9189453,3.4179688
		s1.9189453-0.9667969,1.9189453-3.4179688s-0.5322266-3.4179688-1.9189453-3.4179688
		S152.9199219,45.8134766,152.9199219,48.2646484z"/>
	<path class="st1" d="M159.5957031,53.5175781l2.9130859-10.5615234h2.578125L168,53.5175781h-2.3808594l-0.4902344-2.1572266
		h-2.6621094l-0.4902344,2.1572266H159.5957031z M162.9013672,49.581543h1.7929688l-0.8964844-3.9780273L162.9013672,49.581543z"/>
	<path class="st1" d="M171.1611328,51.4726562h4.2441406v2.0449219h-6.4853516V43.0117188h2.2412109V51.4726562z"/>
	<path class="st1" d="M183.4560547,50.1699219c0,2.6054688-1.6386719,3.5439453-4.1181641,3.5439453
		c-1.1347656,0-2.5214844-0.1962891-3.2783203-0.6445312v-2.2973633c0.4902344,0.2802734,1.6669922,0.8125,3.0537109,0.8125
		c1.5830078,0,2.0458984-0.4902344,2.0458984-1.2045898c0-0.7983398-0.3505859-1.0644531-1.4150391-1.2045898
		c-2.6621094-0.3500977-3.6845703-1.1347656-3.6845703-3.1938477c0-1.9047852,1.1630859-3.1655273,3.9365234-3.1655273
		c1.4287109,0,2.4794922,0.2519531,2.9697266,0.5180664v2.1713867c-0.5742188-0.2802734-1.7373047-0.5605469-2.8017578-0.5605469
		c-1.1621094,0-1.8066406,0.3642578-1.8066406,1.0366211c0,0.7563477,0.40625,0.9946289,1.4990234,1.1484375
		C182.1816406,47.4521484,183.4560547,47.9287109,183.4560547,50.1699219z"/>
</g>
<path class="st1" d="M142.8730011,94.4489975c0-9.6539993-7.6790009-17.5400009-17.2449951-17.8880005
	c-2.4609985-6.9499969-9.0979996-11.9420013-16.8799973-11.9420013S94.3310089,69.6119995,91.8670044,76.560997
	c-9.5670013,0.3490067-17.2430038,8.2350006-17.2430038,17.8880005c0,5.7269974,2.7080002,10.8320007,6.9089966,14.1119995
	c-0.4560013,1.5790024-0.7080002,3.2450027-0.7080002,4.9690018c0,9.8690033,8.0319977,17.8999939,17.9049988,17.8999939
	c3.7460022,0,7.2259979-1.1589966,10.1040039-3.1349945c2.8450012,1.9029999,6.2610016,3.0160065,9.9329987,3.0160065
	c9.871994,0,17.9029999-8.0319977,17.9029999-17.9000015c0-1.6880035-0.2389984-3.3209991-0.6779938-4.8700027
	C140.1750031,105.2600021,142.8730011,100.1650009,142.8730011,94.4489975 M123.0459976,82.5210037
	c0,7.1660004-5.3040009,13.098999-12.1900024,14.1240005c-0.1119995-0.7180023-0.185997-1.447998-0.185997-2.1959991
	c0-7.1689987,5.3040009-13.1029968,12.189003-14.125C122.9720001,81.0400009,123.0459976,81.7710037,123.0459976,82.5210037
	 M108.8130035,123.6529999c-2.677002-2.598999-4.3460007-6.2279968-4.3460007-10.2419968
	c0-3.9520035,1.6149979-7.5360031,4.2139969-10.125c2.6750031,2.598999,4.3460007,6.2279968,4.3460007,10.2450027
	C113.0279999,117.4810028,111.4150009,121.0630035,108.8130035,123.6529999 M94.6360016,80.322998
	c6.8850021,1.0230026,12.1910019,6.9570007,12.1910019,14.1259995c0,0.7480011-0.0759964,1.4779968-0.1880035,2.1959991
	c-6.8860016-1.0240021-12.1900024-6.9580002-12.1900024-14.1240005
	C94.4489975,81.7710037,94.5240021,81.0400009,94.6360016,80.322998 M105.2969971,100.8440018
	c-2.3529968,4.677002-7.185997,7.9029999-12.7700043,7.9029999c-2.3679962,0-4.5999985-0.5899963-6.5680008-1.612999
	c2.3529968-4.6780014,7.1880035-7.9020004,12.7710037-7.9020004
	C101.098999,99.2320023,103.3280029,99.8199997,105.2969971,100.8440018 M112.1520004,100.7480011
	c1.9810028-1.0390015,4.2269974-1.6360016,6.6149979-1.6360016c5.6220016,0,10.4810028,3.2709961,12.8179932,8
	c-1.9819946,1.0400009-4.2310028,1.6360016-6.6149979,1.6360016
	C119.3470001,108.7470016,114.4860001,105.4769974,112.1520004,100.7480011 M108.7470016,68.2229996
	c5.8590012,0,10.9000015,3.5429993,13.1080017,8.5979996c-5.8170013,1.026001-10.6729965,4.8639984-13.1080017,10.0589981
	c-2.4319992-5.1949997-7.2900009-9.0340042-13.1060028-10.0589981
	C97.848999,71.7659988,102.8889999,68.2229996,108.7470016,68.2229996 M78.2279968,94.4489975
	c0-7.3690033,5.5999985-13.447998,12.7659988-14.215004c-0.0950012,0.7490005-0.1500015,1.512001-0.1500015,2.288002
	c0,5.2330017,2.2590027,9.947998,5.8499985,13.223999c-5.9380035,0.677002-11.0049973,4.2659988-13.7279968,9.302002
	C80.0660019,102.4300003,78.2279968,98.6539993,78.2279968,94.4489975 M84.4300003,113.5299988
	c0-1.0169983,0.1080017-2.0070038,0.3130035-2.9629974c2.3550034,1.1429977,4.9960022,1.7829971,7.7839966,1.7829971
	c3.1350021,0,6.0800018-0.8119965,8.6449966-2.2320023c-0.1989975,1.0670013-0.3089981,2.1689987-0.3089981,3.2929993
	c0,4.8349991,1.9339981,9.2279968,5.060997,12.4519958c-2.1169968,1.2389984-4.5709991,1.9629974-7.1930008,1.9629974
	C90.8430023,127.826004,84.4300003,121.413002,84.4300003,113.5299988 M133.0659943,113.4110031
	c0,7.8819962-6.4149933,14.2970047-14.298996,14.2970047c-2.5660019,0-4.9670029-0.6880035-7.0500031-1.8769989
	c3.0410004-3.2080002,4.9169998-7.5410004,4.9169998-12.3010025c0-1.1719971-0.1190033-2.3160019-0.3330002-3.4260025
	c2.5709991,1.4290009,5.526001,2.2460022,8.6699982,2.2460022c2.7969971,0,5.4470062-0.6460037,7.8059998-1.7969971
	C132.9660034,111.4789963,133.0659943,112.4339981,133.0659943,113.4110031 M120.913002,95.6399994
	c3.526001-3.2709961,5.739006-7.9410019,5.739006-13.1190033c0-0.7750015-0.0549927-1.5390015-0.1499939-2.288002
	c7.1660004,0.7669983,12.7669983,6.8460007,12.7669983,14.215004c0,4.1849976-1.8190002,7.9449997-4.697998,10.5619965
	C131.8760071,99.9629974,126.8350067,96.3529968,120.913002,95.6399994"/>
<g>
	<g>
		<path class="st2" d="M51.7410011,145.7400055c0,1.8580017-1.1689987,2.5279999-2.9379997,2.5279999
			c-0.8100014,0-1.7989998-0.1399994-2.3390007-0.4600067v-1.6390076c0.3499985,0.1990051,1.1889992,0.5789948,2.1790009,0.5789948
			c1.1290016,0,1.4589996-0.3500061,1.4589996-0.8589935c0-0.5690002-0.25-0.7599945-1.0089989-0.8589935
			c-1.8989983-0.25-2.6279984-0.8090057-2.6279984-2.2779999c0-1.3589935,0.8300018-2.2599945,2.8089981-2.2599945
			c1.019001,0,1.769001,0.1799927,2.1189995,0.3699951v1.5500031c-0.4099998-0.201004-1.2389984-0.3999939-1.9990005-0.3999939
			c-0.8300018,0-1.2890015,0.2599945-1.2890015,0.7400055c0,0.5390015,0.2900009,0.7089996,1.0690002,0.8179932
			C50.8320007,143.8009949,51.7410011,144.1410065,51.7410011,145.7400055z"/>
	</g>
	<g>
		<path class="st2" d="M55.3120003,142.0919952v6.0370026h-1.598999v-6.0370026h-1.8090019v-1.4589996h5.2169991v1.4589996
			H55.3120003z"/>
	</g>
	<g>
		<path class="st2" d="M59.3330002,148.1289978h-1.598999v-7.4960022h2.5480003c2.019001,0,2.678997,0.9199982,2.678997,2.348999
			c0,0.9290009-0.2600021,1.6390076-1.0499992,2.0189972l1.329998,3.128006h-1.8689995l-1.0089989-2.8090057h-1.0289993v2.8090057
			H59.3330002z M59.3330002,143.871994h1.0890007c0.7089996,0,0.7989998-0.4799957,0.7989998-0.8899994
			c0-0.4199982-0.0900002-0.8899994-0.7989998-0.8899994h-1.0890007V143.871994z"/>
	</g>
	<g>
		<path class="st2" d="M68.2710037,144.970993h-2.8880005v1.6990051h3.1780014v1.4589996h-4.7770004v-7.4960022h4.7770004v1.4589996
			h-3.1780014v1.4490051h2.8880005V144.970993z"/>
	</g>
	<g>
		<path class="st2" d="M73.3410034,148.1289978l-2.4179993-4.4779968l0.0400009,4.4779968h-1.5790024v-7.4960022h1.5790024
			l2.4179993,4.4759979l-0.0400009-4.4759979h1.5790024v7.4960022H73.3410034z"/>
	</g>
	<g>
		<path class="st2" d="M75.7929993,144.3809967c0-2.6089935,0.939003-3.8889923,3.2180023-3.8889923
			c1.0199966,0,1.7590027,0.1499939,2.2089996,0.3500061v1.5599976c-0.6200027-0.2599945-1.2900009-0.4089966-1.9089966-0.4089966
			c-1.4290009,0-1.8990021,0.6390076-1.8990021,2.3890076c0,1.8690033,0.5100021,2.3880005,1.8990021,2.3880005
			c0.1500015,0,0.3499985-0.0099945,0.4599991-0.0299988v-1.5189972h-1.0599976v-1.4290009h2.6589966v3.9669952
			c-0.4499969,0.2799988-1.3300018,0.5099945-2.4089966,0.5099945
			C76.7330017,148.2689972,75.7929993,146.9889984,75.7929993,144.3809967z"/>
	</g>
	<g>
		<path class="st2" d="M85.1520004,142.0919952v6.0370026h-1.598999v-6.0370026h-1.8089981v-1.4589996h5.2170029v1.4589996
			H85.1520004z"/>
	</g>
	<g>
		<path class="st2" d="M91.4509964,148.1289978v-3.1380005h-2.2779999v3.1380005h-1.598999v-7.4960022h1.598999v2.897995h2.2779999
			v-2.897995h1.598999v7.4960022H91.4509964z"/>
	</g>
	<g>
		<path class="st2" d="M98.4609985,144.970993H95.572998v1.6990051h3.1780014v1.4589996H93.973999v-7.4960022h4.7770004v1.4589996
			H95.572998v1.4490051h2.8880005V144.970993z"/>
	</g>
	<g>
		<path class="st2" d="M103.5309982,148.1289978l-2.4179993-4.4779968l0.0400009,4.4779968h-1.5790024v-7.4960022h1.5790024
			l2.4179993,4.4759979l-0.0400009-4.4759979h1.5790024v7.4960022H103.5309982z"/>
	</g>
	<g>
		<path class="st2" d="M110.8320007,142.0919952v6.0370026h-1.598999v-6.0370026h-1.8089981v-1.4589996h5.2170029v1.4589996
			H110.8320007z"/>
	</g>
	<g>
		<path class="st2" d="M117.1309967,148.1289978v-3.1380005h-2.2779999v3.1380005h-1.598999v-7.4960022h1.598999v2.897995h2.2779999
			v-2.897995h1.598999v7.4960022H117.1309967z"/>
	</g>
	<g>
		<path class="st2" d="M124.1409988,144.970993h-2.8889999v1.6990051h3.1790009v1.4589996h-4.7770004v-7.4960022h4.7770004
			v1.4589996h-3.1790009v1.4490051h2.8889999V144.970993z"/>
	</g>
	<g>
		<path class="st2" d="M131.5610046,147.2189941h-1.6190033l-1.1589966-3.677002l0.0500031,4.5870056h-1.5780029v-7.4960022
			h2.0079956l1.4900055,4.6669922l1.4880066-4.6669922h2.0099945v7.4960022h-1.5800018l0.0509949-4.5870056L131.5610046,147.2189941
			z"/>
	</g>
	<g>
		<path class="st2" d="M139.6600037,144.970993h-2.8880005v1.6990051h3.1790009v1.4589996h-4.7769928v-7.4960022h4.7769928
			v1.4589996h-3.1790009v1.4490051h2.8880005V144.970993z"/>
	</g>
	<g>
		<path class="st2" d="M140.5130005,148.1289978l2.0780029-7.5359955h1.8399963l2.0780029,7.5359955h-1.6990051
			l-0.3500061-1.5390015h-1.897995l-0.3500061,1.5390015H140.5130005z M142.871994,145.3200073h1.279007l-0.6399994-2.8379974
			L142.871994,145.3200073z"/>
	</g>
	<g>
		<path class="st2" d="M151.1300049,148.1289978l-2.4170074-4.4779968l0.0390015,4.4779968h-1.5780029v-7.4960022h1.5780029
			l2.4179993,4.4759979l-0.0399933-4.4759979h1.5789948v7.4960022H151.1300049z"/>
	</g>
	<g>
		<path class="st2" d="M158.8099976,145.7400055c0,1.8580017-1.1699982,2.5279999-2.9380035,2.5279999
			c-0.8099976,0-1.8000031-0.1399994-2.3390045-0.4600067v-1.6390076c0.3500061,0.1990051,1.1889954,0.5789948,2.1790009,0.5789948
			c1.1300049,0,1.4600067-0.3500061,1.4600067-0.8589935c0-0.5690002-0.25-0.7599945-1.0099945-0.8589935
			c-1.8990021-0.25-2.6289978-0.8090057-2.6289978-2.2779999c0-1.3589935,0.8300018-2.2599945,2.8090057-2.2599945
			c1.0200043,0,1.7700043,0.1799927,2.1190033,0.3699951v1.5500031c-0.4100037-0.201004-1.2400055-0.3999939-2-0.3999939
			c-0.8289948,0-1.2890015,0.2599945-1.2890015,0.7400055c0,0.5390015,0.2899933,0.7089996,1.0700073,0.8179932
			C157.8990021,143.8009949,158.8099976,144.1410065,158.8099976,145.7400055z"/>
	</g>
	<g>
		<path class="st2" d="M161.5319977,144.3809967c0-2.2890015,0.6289978-3.8889923,2.9880066-3.8889923
			c2.3580017,0,2.9880066,1.6000061,2.9880066,3.8890076s-0.6300049,3.8869934-2.9880066,3.8869934
			C162.1609955,148.2689972,161.5319977,146.6699982,161.5319977,144.3809967z M163.151001,144.3809967
			c0,1.7480011,0.3789978,2.4380035,1.3690033,2.4380035c0.9889984,0,1.3690033-0.6900024,1.3690033-2.4380035
			c0-1.75-0.3800049-2.4389954-1.3690033-2.4389954C163.5299988,141.9420013,163.151001,142.6309967,163.151001,144.3809967z"/>
	</g>
	<g>
		<path class="st2" d="M172.8090057,145.0700073h-2.8280029v3.0590057h-1.6000061v-7.4960022h4.7259979v1.4589996h-3.1260071
			v1.548996h2.8280029v1.4290009H172.8090057z"/>
	</g>
	<g>
		<path class="st2" d="M23.6639996,162.128006v-7.4960022h1.5990009v7.4960022H23.6639996z"/>
	</g>
	<g>
		<path class="st2" d="M30.6020012,161.2180023h-1.6189995l-1.1599998-3.6779938l0.0499992,4.5879974h-1.5790005v-7.4960022
			h2.0090008l1.4890003,4.6670074l1.4890003-4.6669922h2.0089989v7.4960022h-1.5789986l0.0499992-4.5879974L30.6020012,161.2180023z
			"/>
	</g>
	<g>
		<path class="st2" d="M35.8129997,162.128006h-1.598999v-7.4960022h2.5390015c1.9990005,0,2.6879997,1.1679993,2.6879997,2.447998
			c0,1.3000031-0.6899986,2.447998-2.6879997,2.447998H35.814003v2.6000061H35.8129997z M35.8129997,158.0899963h0.9490013
			c0.7999992,0,0.9500008-0.6100006,0.9500008-0.9989929c0-0.3910065-0.1500015-1-0.9500008-1h-0.9490013V158.0899963z"/>
	</g>
	<g>
		<path class="st2" d="M41.612999,160.6690063h3.0279999v1.4589996h-4.6269989v-7.4960022h1.598999V160.6690063z"/>
	</g>
	<g>
		<path class="st2" d="M49.7010002,158.9700012h-2.8880005v1.6990051h3.1780014v1.4589996h-4.7770004v-7.4960022h4.7770004
			v1.4579926h-3.1780014v1.4490051h2.8880005V158.9700012z"/>
	</g>
	<g>
		<path class="st2" d="M55.1209984,161.2180023h-1.6189995l-1.1599998-3.6779938l0.0499992,4.5879974h-1.5789986v-7.4960022
			h2.0089989l1.4889984,4.6670074l1.4889984-4.6669922h2.0089989v7.4960022h-1.5789948l0.0499992-4.5879974L55.1209984,161.2180023z
			"/>
	</g>
	<g>
		<path class="st2" d="M63.2210007,158.9700012h-2.8880005v1.6990051h3.1780014v1.4589996h-4.7770004v-7.4960022h4.7770004
			v1.4579926h-3.1780014v1.4490051h2.8880005V158.9700012z"/>
	</g>
	<g>
		<path class="st2" d="M68.2910004,162.128006l-2.4179993-4.4790039l0.0400009,4.4790039h-1.5790024v-7.4960022h1.5790024
			l2.4179993,4.4759979l-0.0400009-4.4759979h1.5790024v7.4960022H68.2910004z"/>
	</g>
	<g>
		<path class="st2" d="M73.8919983,156.0910034v6.0370026h-1.598999v-6.0370026h-1.8089981v-1.4579926h5.2170029v1.4579926
			H73.8919983z"/>
	</g>
	<g>
		<path class="st2" d="M75.2529984,162.128006l2.0790024-7.5359955h1.8389969L81.25,162.128006h-1.6989975l-0.3499985-1.5390015
			H77.302002l-0.3499985,1.5390015H75.2529984z M77.6119995,159.3200073h1.2789993l-0.6399994-2.8390045L77.6119995,159.3200073z"/>
	</g>
	<g>
		<path class="st2" d="M84.0619965,156.0910034v6.0370026h-1.598999v-6.0370026h-1.8089981v-1.4579926h5.2170029v1.4579926
			H84.0619965z"/>
	</g>
	<g>
		<path class="st2" d="M86.5940018,162.128006v-7.4960022h1.598999v7.4960022H86.5940018z"/>
	</g>
	<g>
		<path class="st2" d="M89.1729965,158.3800049c0-2.2890015,0.6299973-3.8880005,2.987999-3.8880005
			c2.3590012,0,2.9889984,1.598999,2.9889984,3.8880005s-0.6299973,3.8880005-2.9889984,3.8880005
			C89.8030014,162.2680054,89.1729965,160.6690063,89.1729965,158.3800049z M90.7919998,158.3800049
			c0,1.7480011,0.3799973,2.4380035,1.3690033,2.4380035c0.9899979,0,1.3700027-0.6900024,1.3700027-2.4380035
			c0-1.75-0.3799973-2.4389954-1.3700027-2.4389954C91.1719971,155.9409943,90.7919998,156.6300049,90.7919998,158.3800049z"/>
	</g>
	<g>
		<path class="st2" d="M99.9810028,162.128006l-2.4179993-4.4790039l0.0400009,4.4790039h-1.5790024v-7.4960022h1.5790024
			l2.4179993,4.4759979l-0.0400009-4.4759979h1.5790024v7.4960022H99.9810028z"/>
	</g>
	<g>
		<path class="st2" d="M104.2229996,162.128006l2.0790024-7.5359955h1.8389969l2.0790024,7.5359955h-1.6989975l-0.3499985-1.5390015
			h-1.8990021l-0.3499985,1.5390015H104.2229996z M106.5820007,159.3200073h1.2789993l-0.6399994-2.8390045L106.5820007,159.3200073
			z"/>
	</g>
	<g>
		<path class="st2" d="M114.8410034,162.128006l-2.4179993-4.4790039l0.0400009,4.4790039h-1.5790024v-7.4960022h1.5790024
			l2.4179993,4.4759979l-0.0400009-4.4759979h1.5790024v7.4960022H114.8410034z"/>
	</g>
	<g>
		<path class="st2" d="M117.3430023,162.128006v-7.4960022h2.4280014c2.5400009,0,3.197998,1.6190033,3.197998,3.7480011
			s-0.6579971,3.7480011-3.197998,3.7480011H117.3430023z M118.9420013,160.6690063h0.8590012
			c1.1689987,0,1.5090027-0.8399963,1.5090027-2.2890015c0-1.4389954-0.3399963-2.2890015-1.5090027-2.2890015h-0.8590012
			V160.6690063z"/>
	</g>
	<g>
		<path class="st2" d="M127.3919983,162.128006h-1.598999v-7.4960022h2.5480042
			c2.0180054,0,2.6779938,0.9190063,2.6779938,2.3480072c0,0.9290009-0.2599945,1.6390076-1.0480042,2.0189972l1.3280029,3.1289978
			h-1.8690033l-1.0090027-2.8090057h-1.029007v2.8090057H127.3919983z M127.3919983,157.8710022h1.0890045
			c0.7100067,0,0.8000031-0.4799957,0.8000031-0.8899994c0-0.4199982-0.0899963-0.8899994-0.8000031-0.8899994h-1.0890045
			V157.8710022z"/>
	</g>
	<g>
		<path class="st2" d="M136.3300018,158.9700012h-2.8889923v1.6990051h3.1779938v1.4589996h-4.7769928v-7.4960022h4.7769928
			v1.4579926h-3.1779938v1.4490051h2.8890076v1.4309998H136.3300018z"/>
	</g>
	<g>
		<path class="st2" d="M143.1790009,154.6329956l-2.0800018,7.5350037h-1.8370056l-2.0800018-7.5350037h1.6990051
			l1.298996,5.7070007l1.3000031-5.7070007H143.1790009z"/>
	</g>
	<g>
		<path class="st2" d="M143.9519958,162.128006v-7.4960022h1.598999v7.4960022H143.9519958z"/>
	</g>
	<g>
		<path class="st2" d="M149.6790009,156.0910034v6.0370026h-1.598999v-6.0370026h-1.8099976v-1.4579926h5.2169952v1.4579926
			H149.6790009z"/>
	</g>
	<g>
		<path class="st2" d="M151.0399933,162.128006l2.0800018-7.5359955h1.8379974l2.0800018,7.5359955h-1.6990051l-0.3500061-1.5390015
			h-1.8999939l-0.3500061,1.5390015H151.0399933z M153.3990021,159.3200073h1.279007l-0.6399994-2.8390045L153.3990021,159.3200073z
			"/>
	</g>
	<g>
		<path class="st2" d="M159.3000031,160.6690063h3.0279999v1.4589996h-4.628006v-7.4960022h1.6000061V160.6690063z"/>
	</g>
	<g>
		<path class="st2" d="M163.0099945,162.128006v-7.4960022h1.598999v7.4960022H163.0099945z"/>
	</g>
	<g>
		<path class="st2" d="M165.4790039,162.128006v-1.0610046l3.348999-4.8959961l-3.0480042,0.029007v-1.5679932h5.2359924v1.0579987
			l-3.3470001,4.897995l3.4980011-0.0310059v1.5700073h-5.6879883V162.128006z"/>
	</g>
	<g>
		<path class="st2" d="M176.4160004,158.9700012h-2.8880005v1.6990051h3.1790009v1.4589996h-4.7769928v-7.4960022h4.7769928
			v1.4579926h-3.1790009v1.4490051h2.8880005V158.9700012z"/>
	</g>
	<g>
		<path class="st2" d="M182.3280029,156.0910034v6.0370026h-1.6000061v-6.0370026h-1.8079987v-1.4579926h5.2160034v1.4579926
			H182.3280029z"/>
	</g>
	<g>
		<path class="st2" d="M188.6260071,162.128006v-3.1389923h-2.2779999v3.1390076h-1.598999v-7.4960022h1.598999v2.897995h2.2779999
			v-2.897995h1.598999v7.4960022h-1.598999V162.128006z"/>
	</g>
	<g>
		<path class="st2" d="M195.6360016,158.9700012h-2.8889923v1.6990051h3.1790009v1.4589996h-4.7769928v-7.4960022h4.7769928
			v1.4579926h-3.1790009v1.4490051h2.8890076v1.4309998H195.6360016z"/>
	</g>
	<g>
		<path class="st2" d="M50.4290009,172.3800049c0-2.6089935,0.9389992-3.8890076,3.2179985-3.8890076
			c1.0200005,0,1.7589989,0.1499939,2.2089996,0.3500061v1.5599976c-0.6199989-0.2599945-1.2900009-0.4089966-1.9090004-0.4089966
			c-1.4290009,0-1.8989983,0.6390076-1.8989983,2.3890076c0,1.8690033,0.5099983,2.3890076,1.8989983,2.3890076
			c0.1500015,0,0.3499985-0.0099945,0.4599991-0.0299988v-1.5189972h-1.0600014v-1.4299927h2.6590004v3.9669952
			c-0.4500008,0.2799988-1.3300018,0.5099945-2.4090004,0.5099945
			C51.368,176.2669983,50.4290009,174.9880066,50.4290009,172.3800049z"/>
	</g>
	<g>
		<path class="st2" d="M58.487999,174.6690063h3.0279999v1.4579926h-4.6269989v-7.4960022h1.598999V174.6690063z"/>
	</g>
	<g>
		<path class="st2" d="M61.5379982,172.3800049c0-2.2890015,0.6300011-3.8890076,2.9880028-3.8890076
			c2.3590012,0,2.9889984,1.6000061,2.9889984,3.8890076s-0.6299973,3.8869934-2.9889984,3.8869934
			C62.1679993,176.2669983,61.5379982,174.6690063,61.5379982,172.3800049z M63.1569977,172.3800049
			c0,1.7480011,0.3799973,2.4380035,1.3690033,2.4380035c0.9899979,0,1.3700027-0.6900024,1.3700027-2.4380035
			c0-1.75-0.3799973-2.4389954-1.3700027-2.4389954C63.5370026,169.9400024,63.1569977,170.6300049,63.1569977,172.3800049z"/>
	</g>
	<g>
		<path class="st2" d="M68.3880005,168.6320038h2.6880035c1.8990021,0,2.4179993,0.8990021,2.4179993,2.1190033
			c0,0.6390076-0.3199997,1.1580048-0.8099976,1.4179993c0.5599976,0.1900024,1.0289993,0.7400055,1.0289993,1.6699982
			c0,1.2980042-0.5889969,2.2890015-2.5979996,2.2890015h-2.7290039v-7.4960022H68.3880005z M71.0169983,169.9909973H69.987999
			v1.6089935h1.0289993c0.6600037,0,0.7789993-0.4609985,0.7789993-0.8009949
			C71.7959976,170.4499969,71.685997,169.9909973,71.0169983,169.9909973z M69.9869995,174.7689972h1.1090012
			c0.6689987,0,0.9189987-0.3910065,0.9189987-0.9389954c0-0.5610046-0.2600021-0.9299927-0.9189987-0.9299927h-1.1090012
			V174.7689972z"/>
	</g>
	<g>
		<path class="st2" d="M74.1380005,176.1269989l2.0790024-7.5359955h1.8389969l2.0790024,7.5359955h-1.6989975l-0.3499985-1.5390015
			h-1.8990021l-0.3499985,1.5390015H74.1380005z M76.4970016,173.3190002h1.2789993l-0.6399994-2.8390045L76.4970016,173.3190002z"
			/>
	</g>
	<g>
		<path class="st2" d="M82.3970032,174.6690063h3.0279999v1.4579926h-4.6269989v-7.4960022h1.598999V174.6690063z"/>
	</g>
	<g>
		<path class="st2" d="M89.5970001,176.1269989h-1.598999v-7.4960022h2.5390015c1.9990005,0,2.6880035,1.1690063,2.6880035,2.447998
			c0,1.3000031-0.6900024,2.447998-2.6880035,2.447998h-0.939003v2.6000061H89.5970001z M89.5970001,172.0899963h0.9489975
			c0.8000031,0,0.9499969-0.6100006,0.9499969-0.9989929c0-0.3910065-0.1500015-1-0.9499969-1h-0.9489975V172.0899963z"/>
	</g>
	<g>
		<path class="st2" d="M92.7870026,176.1269989l2.0790024-7.5359955h1.8389969l2.0790024,7.5359955h-1.6989975l-0.3499985-1.5390015
			h-1.8990021l-0.3499985,1.5390015H92.7870026z M95.1460037,173.3190002h1.2789993l-0.6399994-2.8390045L95.1460037,173.3190002z"
			/>
	</g>
	<g>
		<path class="st2" d="M101.0459976,176.1269989h-1.598999v-7.4960022h2.5479965
			c2.0189972,0,2.6790009,0.9199982,2.6790009,2.348999c0,0.9290009-0.2600021,1.6390076-1.0490036,2.0189972l1.3290024,3.128006
			h-1.8690033l-1.0090027-2.8079987h-1.0289993v2.8079987H101.0459976z M101.0459976,171.8699951h1.0889969
			c0.7089996,0,0.7990036-0.4799957,0.7990036-0.8899994c0-0.4199982-0.0899963-0.8899994-0.7990036-0.8899994h-1.0889969
			V171.8699951z"/>
	</g>
	<g>
		<path class="st2" d="M108.1949997,170.0910034v6.0370026h-1.598999v-6.0370026h-1.8089981v-1.4589996h5.2170029v1.4589996
			H108.1949997z"/>
	</g>
	<g>
		<path class="st2" d="M114.5749969,176.1269989l-2.4179993-4.4779968l0.0400009,4.4779968h-1.5790024v-7.4960022h1.5790024
			l2.4179993,4.477005l-0.0400009-4.477005h1.5790024v7.4960022H114.5749969z"/>
	</g>
	<g>
		<path class="st2" d="M121.5650024,172.9700012h-2.8889999v1.6990051h3.1780014v1.4579926h-4.7770004v-7.4960022h4.7770004
			v1.4589996h-3.1780014v1.4490051h2.8889999V172.9700012z"/>
	</g>
	<g>
		<path class="st2" d="M124.276001,176.1269989h-1.598999v-7.4960022h2.5479965c2.0199966,0,2.6800003,0.9199982,2.6800003,2.348999
			c0,0.9290009-0.2599945,1.6390076-1.0509949,2.0189972l1.3300018,3.128006h-1.8690033l-1.0100021-2.8079987h-1.0289993
			V176.1269989z M124.276001,171.8699951h1.0899963c0.7089996,0,0.798996-0.4799957,0.798996-0.8899994
			c0-0.4199982-0.0899963-0.8899994-0.7990036-0.8899994h-1.0899963
			C124.2759933,170.0899963,124.2759933,171.8699951,124.276001,171.8699951z"/>
	</g>
	<g>
		<path class="st2" d="M133.9029999,173.7389984c0,1.8580017-1.1690063,2.5279999-2.9380035,2.5279999
			c-0.8090057,0-1.7980042-0.1399994-2.3370056-0.4600067v-1.6380005c0.3500061,0.1990051,1.1889954,0.5789948,2.177002,0.5789948
			c1.1300049,0,1.4589996-0.3500061,1.4589996-0.8589935c0-0.5690002-0.2489929-0.7599945-1.0090027-0.8589935
			c-1.8990021-0.25-2.6269989-0.8099976-2.6269989-2.2779999c0-1.3589935,0.8289948-2.2599945,2.8079987-2.2599945
			c1.0189972,0,1.7689972,0.1799927,2.1179962,0.3699951v1.5500031c-0.4089966-0.201004-1.2389984-0.3999939-1.9989929-0.3999939
			c-0.8300018,0-1.2890015,0.2599945-1.2890015,0.7400055c0,0.5390015,0.2890015,0.7089996,1.0690002,0.8179932
			C132.9940033,171.8000031,133.9029999,172.1399994,133.9029999,173.7389984z"/>
	</g>
	<g>
		<path class="st2" d="M138.5540009,176.1269989v-3.1380005h-2.2779999v3.1380005h-1.6000061v-7.4960022h1.6000061v2.897995
			h2.2779999v-2.897995h1.5980072v7.4960022H138.5540009z"/>
	</g>
	<g>
		<path class="st2" d="M141.1849976,176.1269989v-7.4960022h1.6000061v7.4960022H141.1849976z"/>
	</g>
	<g>
		<path class="st2" d="M145.4149933,176.1269989h-1.598999v-7.4960022h2.5379944
			c1.9989929,0,2.6880035,1.1690063,2.6880035,2.447998c0,1.3000031-0.6889954,2.447998-2.6880035,2.447998h-0.9389954V176.1269989z
			 M145.4149933,172.0899963h0.9490051c0.8000031,0,0.9499969-0.6100006,0.9499969-0.9989929c0-0.3910065-0.1499939-1-0.9499969-1
			h-0.9490051V172.0899963z"/>
	</g>
	<g>
		<path class="st2" d="M156.0420074,173.0690002h-2.8280029v3.0579987h-1.6000061v-7.4960022h4.7279968v1.4589996h-3.128006
			v1.548996h2.8280029v1.4300079H156.0420074z"/>
	</g>
	<g>
		<path class="st2" d="M156.9250031,172.3800049c0-2.2890015,0.6289978-3.8890076,2.9880066-3.8890076
			c2.3580017,0,2.9880066,1.6000061,2.9880066,3.8890076s-0.6300049,3.8869934-2.9880066,3.8869934
			C157.5540009,176.2669983,156.9250031,174.6690063,156.9250031,172.3800049z M158.5440063,172.3800049
			c0,1.7480011,0.3789978,2.4380035,1.3690033,2.4380035c0.9889984,0,1.3690033-0.6900024,1.3690033-2.4380035
			c0-1.75-0.3800049-2.4389954-1.3690033-2.4389954C158.9230042,169.9400024,158.5440063,170.6300049,158.5440063,172.3800049z"/>
	</g>
	<g>
		<path class="st2" d="M165.3739929,176.1269989h-1.6000061v-7.4960022h2.548996
			c2.0189972,0,2.6779938,0.9199982,2.6779938,2.348999c0,0.9290009-0.2599945,1.6390076-1.048996,2.0189972l1.3289948,3.128006
			h-1.8690033l-1.0090027-2.8079987h-1.029007v2.8079987H165.3739929z M165.3739929,171.8699951h1.0890045
			c0.7100067,0,0.8000031-0.4799957,0.8000031-0.8899994c0-0.4199982-0.0899963-0.8899994-0.8000031-0.8899994h-1.0890045
			V171.8699951z"/>
	</g>
	<g>
		<path class="st2" d="M51.2910004,187.7380066c0,1.8580017-1.1689987,2.5279999-2.9379997,2.5279999
			c-0.8100014,0-1.7989998-0.1399994-2.3390007-0.4600067v-1.6390076c0.3499985,0.1990051,1.1889992,0.5789948,2.1790009,0.5789948
			c1.1290016,0,1.4589996-0.3500061,1.4589996-0.8589935c0-0.5690002-0.25-0.7599945-1.0089989-0.8589935
			c-1.8989983-0.25-2.6279984-0.8099976-2.6279984-2.2779999c0-1.3589935,0.8300018-2.2599945,2.8090019-2.2599945
			c1.019001,0,1.769001,0.1799927,2.1189995,0.3699951v1.5500031c-0.4099998-0.201004-1.2389984-0.3999939-1.9990005-0.3999939
			c-0.8300018,0-1.2890015,0.2599945-1.2890015,0.7400055c0,0.5390015,0.2900009,0.7079926,1.0690002,0.8179932
			C50.3810005,185.798996,51.2910004,186.1390076,51.2910004,187.7380066z"/>
	</g>
	<g>
		<path class="st2" d="M52.0130005,187.7579956v-5.1260071h1.598999v5.0460052c0,0.9700012,0.6300011,1.1399994,1.1889992,1.1399994
			s1.1889992-0.1699982,1.1889992-1.1399994v-5.0460052h1.598999v5.1260071c0,2.0590057-1.6489983,2.5090027-2.7890015,2.5090027
			S52.0130005,189.8159943,52.0130005,187.7579956z"/>
	</g>
	<g>
		<path class="st2" d="M63.6399994,187.7380066c0,1.8580017-1.1689987,2.5279999-2.9379997,2.5279999
			c-0.8100014,0-1.7989998-0.1399994-2.3390007-0.4600067v-1.6390076c0.3499985,0.1990051,1.1889992,0.5789948,2.1790009,0.5789948
			c1.1290016,0,1.4589996-0.3500061,1.4589996-0.8589935c0-0.5690002-0.25-0.7599945-1.0089989-0.8589935
			c-1.8989983-0.25-2.6279984-0.8099976-2.6279984-2.2779999c0-1.3589935,0.8300018-2.2599945,2.8090019-2.2599945
			c1.0189972,0,1.7689972,0.1799927,2.1190033,0.3699951v1.5500031c-0.4100037-0.201004-1.2389984-0.3999939-1.9990005-0.3999939
			c-0.8300018,0-1.2890015,0.2599945-1.2890015,0.7400055c0,0.5390015,0.2900009,0.7079926,1.0690002,0.8179932
			C62.7310028,185.798996,63.6399994,186.1390076,63.6399994,187.7380066z"/>
	</g>
	<g>
		<path class="st2" d="M67.2109985,184.0899963v6.0370026h-1.598999v-6.0370026h-1.8089981v-1.4589996h5.2170029v1.4589996
			H67.2109985z"/>
	</g>
	<g>
		<path class="st2" d="M68.572998,190.1269989l2.0790024-7.5359955h1.8389969l2.0790024,7.5359955h-1.6989975l-0.3499985-1.5390015
			h-1.8990021l-0.3499985,1.5390015H68.572998z M70.9319992,187.3179932h1.2789993l-0.6399994-2.8379974L70.9319992,187.3179932z"/>
	</g>
	<g>
		<path class="st2" d="M75.3430023,190.1269989v-7.4960022h1.598999v7.4960022H75.3430023z"/>
	</g>
	<g>
		<path class="st2" d="M81.9300003,190.1269989l-2.4179993-4.4790039l0.0400009,4.4790039h-1.5790024v-7.4960022h1.5790024
			l2.4179993,4.4759979l-0.0400009-4.4759979h1.5790024v7.4960022H81.9300003z"/>
	</g>
	<g>
		<path class="st2" d="M84.1719971,190.1269989l2.0790024-7.5359955h1.8389969l2.0790024,7.5359955h-1.6989975l-0.3499985-1.5390015
			h-1.8990021l-0.3499985,1.5390015H84.1719971z M86.5309982,187.3179932h1.2789993l-0.6399994-2.8379974L86.5309982,187.3179932z"
			/>
	</g>
	<g>
		<path class="st2" d="M90.8330002,182.6309967h2.6880035c1.8990021,0,2.4179993,0.8990021,2.4179993,2.1190033
			c0,0.6380005-0.3199997,1.1580048-0.8099976,1.4170074c0.5599976,0.1900024,1.0289993,0.7400055,1.0289993,1.6699982
			c0,1.298996-0.5889969,2.2890015-2.5979996,2.2890015h-2.7289963v-7.4950104H90.8330002z M93.4609985,183.9909973h-1.0289993
			v1.6089935h1.0289993c0.6600037,0,0.7789993-0.4609985,0.7789993-0.8000031
			C94.2409973,184.4499969,94.1309967,183.9909973,93.4609985,183.9909973z M92.4319992,188.7680054h1.1090012
			c0.6689987,0,0.9189987-0.3910065,0.9189987-0.9389954c0-0.5610046-0.2600021-0.9299927-0.9189987-0.9299927h-1.1090012
			V188.7680054z"/>
	</g>
	<g>
		<path class="st2" d="M98.4420013,188.6679993h3.0279999v1.4589996h-4.6269989v-7.4960022h1.598999V188.6679993z"/>
	</g>
	<g>
		<path class="st2" d="M106.5289993,186.9689941h-2.8880005v1.6990051h3.1780014v1.4589996h-4.7770004v-7.4960022h4.7770004
			v1.4589996h-3.1780014v1.4490051h2.8880005V186.9689941z"/>
	</g>
	<g>
		<path class="st2" d="M109.6429977,190.1269989v-7.4960022h2.4280014c2.5390015,0,3.197998,1.6190033,3.197998,3.7480011
			s-0.6589966,3.7480011-3.197998,3.7480011H109.6429977z M111.2419968,188.6679993h0.8590012
			c1.1689987,0,1.5090027-0.8399963,1.5090027-2.2890015c0-1.4389954-0.3399963-2.2890015-1.5090027-2.2890015h-0.8590012
			V188.6679993z"/>
	</g>
	<g>
		<path class="st2" d="M120.5790024,186.9689941h-2.8880005v1.6990051h3.1790009v1.4589996h-4.7779999v-7.4960022h4.7779999
			v1.4589996h-3.1790009v1.4490051h2.8880005V186.9689941z"/>
	</g>
	<g>
		<path class="st2" d="M127.4290009,182.6309967l-2.0790024,7.5350037h-1.8389969l-2.0790024-7.5350037h1.6989975
			l1.2990036,5.7070007l1.3000031-5.7070007H127.4290009z"/>
	</g>
	<g>
		<path class="st2" d="M132.5780029,186.9689941h-2.8869934v1.6990051h3.1779938v1.4589996h-4.7769928v-7.4960022h4.7769928
			v1.4589996h-3.1779938v1.4490051h2.8869934V186.9689941z"/>
	</g>
	<g>
		<path class="st2" d="M135.2910004,188.6679993h3.0279999v1.4589996h-4.628006v-7.4960022h1.6000061V188.6679993z"/>
	</g>
	<g>
		<path class="st2" d="M138.3419952,186.3789978c0-2.2890015,0.6289978-3.8880005,2.9880066-3.8880005
			c2.3580017,0,2.9880066,1.6000061,2.9880066,3.8880005c0,2.2890015-0.6300049,3.8880005-2.9880066,3.8880005
			C138.970993,190.2669983,138.3419952,188.6679993,138.3419952,186.3789978z M139.9609985,186.3789978
			c0,1.7480011,0.378006,2.4380035,1.3690033,2.4380035c0.9889984,0,1.3690033-0.6900024,1.3690033-2.4380035
			c0-1.75-0.3800049-2.4389954-1.3690033-2.4389954C140.3390045,183.9400024,139.9609985,184.6289978,139.9609985,186.3789978z"/>
	</g>
	<g>
		<path class="st2" d="M146.7910004,190.1269989h-1.6000061v-7.4960022h2.5390015
			c1.9980011,0,2.6869965,1.1690063,2.6869965,2.447998c0,1.3000031-0.6889954,2.447998-2.6869965,2.447998h-0.9389954V190.1269989z
			 M146.7910004,186.0890045h0.9490051c0.798996,0,0.9490051-0.6100006,0.9490051-0.9989929c0-0.3899994-0.1499939-1-0.9490051-1
			h-0.9490051V186.0890045z"/>
	</g>
	<g>
		<path class="st2" d="M155.2980042,189.2169952h-1.6190033l-1.1600037-3.6779938l0.0509949,4.5879974h-1.5789948v-7.4960022H153
			l1.4889984,4.6670074l1.4889984-4.6669922h2.0090027v7.4960022h-1.5789948l0.0500031-4.5879974L155.2980042,189.2169952z"/>
	</g>
	<g>
		<path class="st2" d="M163.3970032,186.9689941h-2.8890076v1.6990051h3.1790009v1.4589996h-4.7769928v-7.4960022h4.7769928
			v1.4589996h-3.1790009v1.4490051h2.8890076V186.9689941z"/>
	</g>
	<g>
		<path class="st2" d="M168.4669952,190.1269989l-2.4179993-4.4790039l0.0390015,4.4790039h-1.5780029v-7.4960022h1.5780029
			l2.4190063,4.4759979l-0.0399933-4.4759979h1.5789948v7.4960022H168.4669952z"/>
	</g>
	<g>
		<path class="st2" d="M174.0670013,184.0899963v6.0370026h-1.598999v-6.0370026h-1.8099976v-1.4589996h5.2180023v1.4589996
			H174.0670013z"/>
	</g>
</g>
</svg>
