<?xml version="1.0" encoding="utf-8"?>
<!-- Generator: Adobe Illustrator 20.1.0, SVG Export Plug-In . SVG Version: 6.00 Build 0)  -->
<svg version="1.1" id="Layer_1" xmlns="http://www.w3.org/2000/svg" xmlns:xlink="http://www.w3.org/1999/xlink" x="0px" y="0px"
	 width="218px" height="218px" viewBox="0 0 218 218" style="enable-background:new 0 0 218 218;" xml:space="preserve">
<style type="text/css">
	.st0{fill:#F99D27;}
	.st1{fill:#FFFFFF;}
	.st2{fill:#F7F7F9;}
</style>
<g>
	<circle class="st0" cx="109.3821716" cy="108.9393158" r="108"/>
</g>
<g>
	<path class="st1" d="M55.3564453,28.4570312v31.9521484H47.355957V36.4077148l-5.550293,0.2001953v-5.550293l9.550293-2.6005859
		H55.3564453z"/>
	<path class="st1" d="M73.3061523,28.4570312v31.9521484h-8.0004883V36.4077148l-5.5507812,0.2001953v-5.550293l9.5507812-2.6005859
		H73.3061523z"/>
</g>
<g>
	<path class="st1" d="M86.9277344,36.8920898c0,2.9775391-1.8730469,4.0498047-4.7060547,4.0498047
		c-1.2963867,0-2.8813477-0.2241211-3.7456055-0.7363281v-2.625c0.5600586,0.3198242,1.9047852,0.9282227,3.4892578,0.9282227
		c1.809082,0,2.3369141-0.5600586,2.3369141-1.3764648c0-0.9125977-0.3999023-1.2163086-1.6162109-1.3764648
		c-3.0415039-0.4003906-4.2099609-1.2963867-4.2099609-3.6494141c0-2.1772461,1.3286133-3.6176758,4.4980469-3.6176758
		c1.6323242,0,2.8330078,0.2880859,3.3930664,0.5922852v2.480957c-0.65625-0.3198242-1.9848633-0.6401367-3.2011719-0.6401367
		c-1.3286133,0-2.0649414,0.4160156-2.0649414,1.1845703c0,0.8642578,0.4643555,1.1362305,1.7128906,1.3125
		C85.4711914,33.7871094,86.9277344,34.3310547,86.9277344,36.8920898z"/>
	<path class="st1" d="M88.0756836,36.9243164v-8.2114258h2.5610352v8.0834961c0,1.5522461,1.0083008,1.824707,1.9047852,1.824707
		s1.9047852-0.2724609,1.9047852-1.824707v-8.0834961h2.5610352v8.2114258c0,3.2973633-2.6411133,4.0175781-4.4658203,4.0175781
		S88.0756836,40.2216797,88.0756836,36.9243164z"/>
	<path class="st1" d="M106.6875,36.8920898c0,2.9775391-1.8730469,4.0498047-4.7060547,4.0498047
		c-1.2963867,0-2.8813477-0.2241211-3.7456055-0.7363281v-2.625c0.5600586,0.3198242,1.9047852,0.9282227,3.4892578,0.9282227
		c1.809082,0,2.3369141-0.5600586,2.3369141-1.3764648c0-0.9125977-0.3999023-1.2163086-1.6162109-1.3764648
		c-3.0415039-0.4003906-4.2099609-1.2963867-4.2099609-3.6494141c0-2.1772461,1.3286133-3.6176758,4.4980469-3.6176758
		c1.6323242,0,2.8330078,0.2880859,3.3930664,0.5922852v2.480957c-0.65625-0.3198242-1.9848633-0.6401367-3.2011719-0.6401367
		c-1.3286133,0-2.0649414,0.4160156-2.0649414,1.1845703c0,0.8642578,0.4643555,1.1362305,1.7128906,1.3125
		C105.230957,33.7871094,106.6875,34.3310547,106.6875,36.8920898z"/>
	<path class="st1" d="M112.3984375,31.0498047v9.6679688h-2.5615234v-9.6679688h-2.8969727v-2.3369141h8.355957v2.3369141
		H112.3984375z"/>
	<path class="st1" d="M114.5722656,40.7177734l3.3291016-12.0688477h2.9453125l3.3291016,12.0688477h-2.7207031
		l-0.5605469-2.4648438h-3.0410156l-0.5605469,2.4648438H114.5722656z M118.3496094,36.2197266h2.0488281l-1.0244141-4.5454102
		L118.3496094,36.2197266z"/>
	<path class="st1" d="M125.4042969,40.7177734V28.7128906h2.5615234v12.0048828H125.4042969z"/>
	<path class="st1" d="M135.9511719,40.7177734l-3.8740234-7.1708984l0.0644531,7.1708984h-2.5292969V28.7128906h2.5292969
		l3.8730469,7.1708984l-0.0634766-7.1708984h2.5283203v12.0048828H135.9511719z"/>
	<path class="st1" d="M139.5322266,40.7177734l3.3291016-12.0688477h2.9453125l3.3291016,12.0688477h-2.7207031
		l-0.5605469-2.4648438h-3.0410156l-0.5605469,2.4648438H139.5322266z M143.3095703,36.2197266h2.0488281l-1.0244141-4.5454102
		L143.3095703,36.2197266z"/>
	<path class="st1" d="M150.1884766,28.7128906h4.3056641c3.0410156,0,3.8740234,1.4404297,3.8740234,3.3935547
		c0,1.0244141-0.5126953,1.8564453-1.296875,2.2729492c0.8964844,0.3037109,1.6484375,1.184082,1.6484375,2.6728516
		c0,2.0810547-0.9443359,3.6655273-4.1611328,3.6655273h-4.3701172V28.7128906z M154.3984375,30.8896484h-1.6494141v2.5771484
		h1.6494141c1.0556641,0,1.2480469-0.7363281,1.2480469-1.2802734
		C155.6464844,31.6259766,155.4707031,30.8896484,154.3984375,30.8896484z M152.7490234,38.5410156h1.7773438
		c1.0722656,0,1.4726562-0.6245117,1.4726562-1.5048828c0-0.8959961-0.4160156-1.4882812-1.4726562-1.4882812h-1.7773438V38.5410156
		z"/>
	<path class="st1" d="M162.3642578,38.3808594h4.8505859v2.3369141h-7.4111328V28.7128906h2.5605469V38.3808594z"/>
	<path class="st1" d="M175.3105469,35.659668h-4.6259766v2.7211914h5.0908203v2.3369141h-7.6513672V28.7128906h7.6513672v2.3369141
		h-5.0908203v2.3208008h4.6259766V35.659668z"/>
	<path class="st1" d="M83.7421875,47.6889648c1.3925781,0,2.0170898,0.2563477,2.4970703,0.4482422v2.4169922
		c-0.7202148-0.2880859-1.2802734-0.4643555-2.2407227-0.4643555c-1.953125,0-2.8491211,0.784668-2.8491211,3.8256836
		s0.8959961,3.8256836,2.8491211,3.8256836c0.9604492,0,1.5205078-0.1762695,2.2407227-0.4643555v2.4169922
		c-0.4799805,0.1918945-1.1044922,0.4482422-2.4970703,0.4482422c-3.5053711,0-5.1699219-1.7128906-5.1860352-6.2265625
		C78.5722656,49.4018555,80.2368164,47.6889648,83.7421875,47.6889648z"/>
	<path class="st1" d="M87.8046875,59.9179688V47.9130859h2.5610352v12.0048828H87.8046875z"/>
	<path class="st1" d="M96.9741211,50.25v9.6679688h-2.5610352V50.25h-2.8969727v-2.3369141h8.3554688V50.25H96.9741211z"/>
	<path class="st1" d="M101.0200195,59.9179688V47.9130859h2.5610352v12.0048828H101.0200195z"/>
	<path class="st1" d="M112.4150391,54.8598633h-4.6264648v2.7211914h5.090332v2.3369141h-7.6513672V47.9130859h7.6513672V50.25
		h-5.090332v2.3208008h4.6264648V54.8598633z"/>
	<path class="st1" d="M122.4794922,56.0922852c0,2.9775391-1.8720703,4.0498047-4.7060547,4.0498047
		c-1.2958984,0-2.8808594-0.2241211-3.7451172-0.7363281v-2.625c0.5605469,0.3198242,1.9052734,0.9282227,3.4892578,0.9282227
		c1.8085938,0,2.3369141-0.5600586,2.3369141-1.3764648c0-0.9125977-0.4003906-1.2163086-1.6162109-1.3764648
		c-3.0410156-0.4003906-4.2099609-1.2963867-4.2099609-3.6494141c0-2.1772461,1.328125-3.6176758,4.4980469-3.6176758
		c1.6328125,0,2.8330078,0.2880859,3.3935547,0.5922852v2.480957c-0.65625-0.3198242-1.9853516-0.6401367-3.2011719-0.6401367
		c-1.3291016,0-2.0654297,0.4160156-2.0654297,1.1845703c0,0.8642578,0.4638672,1.1362305,1.7128906,1.3125
		C121.0234375,52.9873047,122.4794922,53.53125,122.4794922,56.0922852z"/>
	<path class="st1" d="M126.4912109,59.9179688l3.3291016-12.0688477h2.9453125l3.3291016,12.0688477h-2.7207031
		l-0.5605469-2.4648438h-3.0410156l-0.5605469,2.4648438H126.4912109z M130.2685547,55.4199219h2.0488281l-1.0244141-4.5454102
		L130.2685547,55.4199219z"/>
	<path class="st1" d="M143.4863281,59.9179688l-3.8740234-7.1708984l0.0644531,7.1708984h-2.5292969V47.9130859h2.5292969
		l3.8730469,7.1708984l-0.0634766-7.1708984h2.5283203v12.0048828H143.4863281z"/>
	<path class="st1" d="M147.4833984,59.9179688V47.9130859h3.8896484c4.0654297,0,5.1220703,2.5932617,5.1220703,6.0024414
		s-1.0566406,6.0024414-5.1220703,6.0024414H147.4833984z M150.0439453,57.5810547h1.3769531
		c1.8730469,0,2.4169922-1.3447266,2.4169922-3.6655273c0-2.3046875-0.5439453-3.6655273-2.4169922-3.6655273h-1.3769531V57.5810547
		z"/>
	<path class="st1" d="M83.7421875,66.8886719c1.3925781,0,2.0170898,0.2563477,2.4970703,0.4482422v2.4169922
		c-0.7202148-0.2880859-1.2802734-0.4643555-2.2407227-0.4643555c-1.953125,0-2.8491211,0.784668-2.8491211,3.8256836
		s0.8959961,3.8256836,2.8491211,3.8256836c0.9604492,0,1.5205078-0.1762695,2.2407227-0.4643555v2.4169922
		c-0.4799805,0.1918945-1.1044922,0.4482422-2.4970703,0.4482422c-3.5053711,0-5.1699219-1.7128906-5.1860352-6.2265625
		C78.5722656,68.6015625,80.2368164,66.8886719,83.7421875,66.8886719z"/>
	<path class="st1" d="M87.5483398,73.1152344c0-3.6655273,1.0083008-6.2265625,4.7861328-6.2265625
		c3.7773438,0,4.7856445,2.5610352,4.7856445,6.2265625s-1.0083008,6.2265625-4.7856445,6.2265625
		C88.5566406,79.3417969,87.5483398,76.7807617,87.5483398,73.1152344z M90.1416016,73.1152344
		c0,2.8012695,0.6079102,3.9057617,2.1928711,3.9057617c1.5844727,0,2.1928711-1.1044922,2.1928711-3.9057617
		s-0.6083984-3.9057617-2.1928711-3.9057617C90.7495117,69.2094727,90.1416016,70.3139648,90.1416016,73.1152344z"/>
	<path class="st1" d="M105.4072266,77.6611328h-2.5932617l-1.8569336-5.890625l0.0800781,7.347168h-2.5288086V67.112793h3.2172852
		l2.3847656,7.4750977l2.3852539-7.4750977h3.2172852v12.0048828h-2.5292969l0.0800781-7.347168L105.4072266,77.6611328z"/>
	<path class="st1" d="M118.0791016,77.6611328h-2.5927734l-1.8564453-5.890625l0.0800781,7.347168h-2.5292969V67.112793h3.2167969
		l2.3857422,7.4750977l2.3847656-7.4750977h3.2167969v12.0048828h-2.5283203l0.0800781-7.347168L118.0791016,77.6611328z"/>
	<path class="st1" d="M123.7724609,75.3242188V67.112793h2.5615234v8.0834961c0,1.5522461,1.0078125,1.824707,1.9042969,1.824707
		s1.9042969-0.2724609,1.9042969-1.824707V67.112793h2.5615234v8.2114258c0,3.2973633-2.640625,4.0175781-4.4658203,4.0175781
		S123.7724609,78.621582,123.7724609,75.3242188z"/>
	<path class="st1" d="M140.4316406,79.1176758l-3.8740234-7.1708984l0.0644531,7.1708984h-2.5292969V67.112793h2.5292969
		l3.8730469,7.1708984l-0.0634766-7.1708984h2.5283203v12.0048828H140.4316406z"/>
	<path class="st1" d="M144.6044922,79.1176758V67.112793h2.5615234v12.0048828H144.6044922z"/>
	<path class="st1" d="M153.7734375,69.449707v9.6679688h-2.5605469V69.449707h-2.8974609V67.112793h8.3554688v2.3369141H153.7734375
		z"/>
	<path class="st1" d="M157.8193359,79.1176758V67.112793h2.5615234v12.0048828H157.8193359z"/>
	<path class="st1" d="M169.2138672,74.0595703h-4.6259766v2.7211914h5.0908203v2.3369141h-7.6513672V67.112793h7.6513672v2.3369141
		h-5.0908203v2.3208008h4.6259766V74.0595703z"/>
	<path class="st1" d="M179.2783203,75.2919922c0,2.9775391-1.8720703,4.0498047-4.7060547,4.0498047
		c-1.2958984,0-2.8808594-0.2241211-3.7451172-0.7363281v-2.625c0.5605469,0.3203125,1.9052734,0.9282227,3.4892578,0.9282227
		c1.8085938,0,2.3369141-0.5600586,2.3369141-1.3764648c0-0.9125977-0.4003906-1.2163086-1.6162109-1.3764648
		c-3.0410156-0.4003906-4.2099609-1.2963867-4.2099609-3.6494141c0-2.1772461,1.328125-3.6176758,4.4980469-3.6176758
		c1.6328125,0,2.8330078,0.2880859,3.3935547,0.5922852v2.480957c-0.65625-0.3203125-1.9853516-0.6401367-3.2011719-0.6401367
		c-1.3291016,0-2.0654297,0.4160156-2.0654297,1.1845703c0,0.8642578,0.4638672,1.1362305,1.7128906,1.3125
		C177.8222656,72.1870117,179.2783203,72.730957,179.2783203,75.2919922z"/>
</g>
<g>
	<g>
		<path class="st1" d="M75.04673,126.2630692h0.1571503h15.0957489c0.2058182,0,0.3741455-0.1683273,0.3741455-0.3749466
			c0-0.095726-0.0382919-0.1826782-0.0989227-0.2488937l-0.0207443-0.0223312l-7.5889511-9.8194504l-0.0733948-0.0813675
			c-0.0694046-0.0757904-0.1667328-0.1212616-0.2768173-0.1212616c-0.0941315,0-0.1786957,0.039093-0.2457047,0.0957336
			l-0.0462723,0.0526505l-0.0709991,0.080574l-7.4038696,9.715744l-0.1140823,0.1388092
			c-0.0406799,0.0590286-0.0646133,0.1316299-0.0646133,0.2098083
			C74.6717911,126.0947418,74.8401108,126.2630692,75.04673,126.2630692z"/>
		<path class="st1" d="M90.2541504,127.6487503H74.9701462c-0.2066193,0-0.3741455,0.1675262-0.3741455,0.3741379V139.98349
			c0,0.2066193,0.1675262,0.374939,0.3741455,0.374939h4.919693v-7.5243378c0-0.2089996,0.1659317-0.3741455,0.3741455-0.3741455
			h4.5662994c0.2066116,0,0.3741379,0.1651459,0.3741379,0.3741455v7.5243378h5.049736
			c0.2058182,0,0.3741455-0.1683197,0.3741455-0.374939v-11.9613953
			C90.6282959,127.8162766,90.4599686,127.6487503,90.2541504,127.6487503z"/>
	</g>
	<path class="st1" d="M143.0760803,124.5167999h-15.1276474c-0.2042236,0-0.3693542,0.1587524-0.3693542,0.3597794v15.274437
		c0,0.1986237,0.1651306,0.3589783,0.3693542,0.3589783h15.1276474c0.2050171,0,0.370163-0.1603546,0.370163-0.3589783v-15.2744446
		C143.446228,124.6755524,143.2810974,124.5167999,143.0760803,124.5167999 M134.799469,134.4894257
		c0,0.1994324-0.1643372,0.3613739-0.3685608,0.3613739h-4.5192261c-0.2066193,0-0.3725433-0.1619415-0.3725433-0.3613739
		v-2.7458496c0-0.2010193,0.1659241-0.3613739,0.3725433-0.3613739h4.5192261c0.2042236,0,0.3685608,0.1603546,0.3685608,0.3613739
		V134.4894257z M134.799469,129.4141693c0,0.1978455-0.1643372,0.359787-0.3685608,0.359787h-4.5192261
		c-0.2066193,0-0.3725433-0.1619415-0.3725433-0.359787v-2.7490311c0-0.1970444,0.1659241-0.3581924,0.3725433-0.3581924h4.5192261
		c0.2042236,0,0.3685608,0.1611481,0.3685608,0.3581924V129.4141693z M141.7063446,134.4894257
		c0,0.1994324-0.1643372,0.3613739-0.370163,0.3613739h-4.5184326c-0.2050171,0-0.3709412-0.1619415-0.3709412-0.3613739v-2.7458496
		c0-0.2010193,0.1659241-0.3613739,0.3709412-0.3613739h4.5184326c0.2058258,0,0.370163,0.1603546,0.370163,0.3613739V134.4894257z
		 M141.7063446,129.4141693c0,0.1978455-0.1643372,0.359787-0.370163,0.359787h-4.5184326
		c-0.2050171,0-0.3709412-0.1619415-0.3709412-0.359787v-2.7490311c0-0.1970444,0.1659241-0.3581924,0.3709412-0.3581924h4.5184326
		c0.2058258,0,0.370163,0.1611481,0.370163,0.3581924V129.4141693z"/>
	<path class="st1" d="M107.9122467,89.060997H93.1084824c-0.1978378,0-0.362175,0.1611481-0.362175,0.3629761v50.5922318
		c0,0.1994324,0.1643372,0.3613739,0.362175,0.3613739h14.8037643c0.1978455,0,0.3637772-0.1619415,0.3637772-0.3613739V89.4239731
		C108.2760239,89.2221451,108.1100922,89.060997,107.9122467,89.060997 M99.1059341,134.6138611
		c0,0.1076965-0.0869522,0.1946564-0.1938477,0.1946564h-3.390419c-0.1069031,0-0.1946487-0.0869446-0.1946487-0.1946564v-3.7765198
		c0-0.1069031,0.0877457-0.1930542,0.1946487-0.1930542h3.390419c0.1069031,0,0.1938477,0.0861511,0.1938477,0.1930542V134.6138611z
		 M99.1059341,125.938385c0,0.1092911-0.0869522,0.1946564-0.1938477,0.1946564h-3.390419
		c-0.1069031,0-0.1946487-0.0853653-0.1946487-0.1946564v-3.7749329c0-0.1100922,0.0877457-0.1946487,0.1946487-0.1946487h3.390419
		c0.1069031,0,0.1938477,0.0845566,0.1938477,0.1946487V125.938385z M99.1059341,117.2652969
		c0,0.1068954-0.0869522,0.1946487-0.1938477,0.1946487h-3.390419c-0.1069031,0-0.1946487-0.0877533-0.1946487-0.1946487v-3.7773285
		c0-0.1076965,0.0877457-0.1946487,0.1946487-0.1946487h3.390419c0.1069031,0,0.1938477,0.0869522,0.1938477,0.1946487V117.2652969z
		 M99.1059341,108.5898132c0,0.1068954-0.0869522,0.1946487-0.1938477,0.1946487h-3.390419
		c-0.1069031,0-0.1946487-0.0877533-0.1946487-0.1946487v-3.7773285c0-0.1076965,0.0877457-0.1922531,0.1946487-0.1922531h3.390419
		c0.1069031,0,0.1938477,0.0845642,0.1938477,0.1922531V108.5898132z M99.1059341,99.9175186
		c0,0.106102-0.0869522,0.1938477-0.1938477,0.1938477h-3.390419c-0.1069031,0-0.1946487-0.0877533-0.1946487-0.1938477v-3.778923
		c0-0.10849,0.0877457-0.1938477,0.1946487-0.1938477h3.390419c0.1069031,0,0.1938477,0.0853577,0.1938477,0.1938477V99.9175186z
		 M105.7535477,134.6138611c0,0.1076965-0.0869522,0.1946564-0.1954498,0.1946564h-3.3888245
		c-0.10849,0-0.1938477-0.0869446-0.1938477-0.1946564v-3.7765198c0-0.1069031,0.0853577-0.1930542,0.1938477-0.1930542h3.3888245
		c0.1084976,0,0.1954498,0.0861511,0.1954498,0.1930542V134.6138611z M105.7535477,125.938385
		c0,0.1092911-0.0869522,0.1946564-0.1954498,0.1946564h-3.3888245c-0.10849,0-0.1938477-0.0853653-0.1938477-0.1946564v-3.7749329
		c0-0.1100922,0.0853577-0.1946487,0.1938477-0.1946487h3.3888245c0.1084976,0,0.1954498,0.0845566,0.1954498,0.1946487V125.938385z
		 M105.7535477,117.2652969c0,0.1068954-0.0869522,0.1946487-0.1954498,0.1946487h-3.3888245
		c-0.10849,0-0.1938477-0.0877533-0.1938477-0.1946487v-3.7773285c0-0.1076965,0.0853577-0.1946487,0.1938477-0.1946487h3.3888245
		c0.1084976,0,0.1954498,0.0869522,0.1954498,0.1946487V117.2652969z M105.7535477,108.5898132
		c0,0.1068954-0.0869522,0.1946487-0.1954498,0.1946487h-3.3888245c-0.10849,0-0.1938477-0.0877533-0.1938477-0.1946487v-3.7773285
		c0-0.1076965,0.0853577-0.1922531,0.1938477-0.1922531h3.3888245c0.1084976,0,0.1954498,0.0845642,0.1954498,0.1922531V108.5898132
		z M105.7535477,99.9175186c0,0.106102-0.0869522,0.1938477-0.1954498,0.1938477h-3.3888245
		c-0.10849,0-0.1938477-0.0877533-0.1938477-0.1938477v-3.778923c0-0.10849,0.0853577-0.1938477,0.1938477-0.1938477h3.3888245
		c0.1084976,0,0.1954498,0.0853577,0.1954498,0.1938477V99.9175186z"/>
	<path class="st1" d="M143.4294739,122.9803467c0,0.1691208-0.1348267,0.3047409-0.3031464,0.3047409h-15.2273636
		c-0.1659241,0-0.3039398-0.1356125-0.3039398-0.3047409v-3.0449982c0-0.1667252,0.1380157-0.3039398,0.3039398-0.3039398
		h15.2273636c0.1683197,0,0.3031464,0.1372147,0.3031464,0.3039398V122.9803467z"/>
	<path class="st1" d="M125.7929153,98.6147995c-0.0494614-0.1619415-0.1930618-0.2823944-0.3717499-0.2823944
		c-0.0797806,0-0.1491776,0.0295181-0.2122116,0.0701981c-0.0087738,0.0063858-0.0175476,0.0111694-0.0271149,0.0183487
		l-0.1252441,0.1571579l-14.5492859,18.4558411l-0.067009,0.0901489c-0.0749893,0.0733948-0.1228561,0.1747055-0.1260452,0.2879868
		v0.0239334V140.09198c0,0.1978455,0.1627426,0.359787,0.3629761,0.359787h14.7886047
		c0.2010345,0,0.362175-0.1619415,0.362175-0.359787V98.7671661
		C125.8280182,98.7121201,125.8152542,98.6610718,125.7929153,98.6147995z M119.6678314,108.6384735l0.1044998-0.1308365
		c0.9955902-1.2779846,2.6732407-3.3417587,3.4909439-4.3445206l0.1076889-0.1284409
		c0.078186-0.0933304,0.1930542-0.1539612,0.3254852-0.1539612c0.2018356,0,0.3637619,0.1467819,0.403656,0.3390427v0.1635437
		v0.1332169v4.3724518c0,0.2249603-0.1794968,0.4052505-0.4028702,0.4156265c-0.0063782,0-0.0119629,0.0047836-0.0175476,0.0047836
		c-0.0055923,0-0.0119705-0.0047836-0.0175552-0.0047836h-3.45504h-0.1810837c-0.0071793,0-0.012764,0.0047836-0.0183487,0.0047836
		s-0.0119705-0.0047836-0.0191498-0.0047836c-0.2209778-0.010376-0.4004669-0.1898651-0.4004669-0.4156265
		C119.5864563,108.7948303,119.6159744,108.7086792,119.6678314,108.6384735z M117.366333,134.4862366
		c0,0.2010345-0.1611481,0.3621674-0.3621826,0.3621674h-4.412323c-0.2002411,0-0.3613815-0.1611328-0.3613815-0.3621674v-2.7610016
		c0-0.2002411,0.1611404-0.3613739,0.3613815-0.3613739h4.412323c0.2010345,0,0.3621826,0.1611328,0.3621826,0.3613739V134.4862366z
		 M117.366333,129.3830566c0,0.2010345-0.1611481,0.3621674-0.3621826,0.3621674h-4.412323
		c-0.2002411,0-0.3613815-0.1611328-0.3613815-0.3621674v-2.761795c0-0.2010345,0.1611404-0.3613815,0.3613815-0.3613815h4.412323
		c0.2010345,0,0.3621826,0.1603394,0.3621826,0.3613815V129.3830566z M117.366333,124.2814636
		c0,0.1978455-0.1611481,0.3597794-0.3621826,0.3597794h-4.412323c-0.2002411,0-0.3613815-0.1619415-0.3613815-0.3597794v-2.7625885
		c0-0.2010345,0.1611404-0.3629761,0.3613815-0.3629761h4.412323c0.2010345,0,0.3621826,0.1619415,0.3621826,0.3629761V124.2814636z
		 M117.3782959,113.0978699v0.132431v5.9511795c0,0.2010345-0.1635361,0.362175-0.3613815,0.362175h-4.4115295
		c-0.201828,0-0.3645706-0.1611404-0.3645706-0.362175v-0.7347183v-0.0303192
		c0.0015945-0.0486603,0.0111694-0.0933304,0.0271225-0.1356125c0.0071793-0.0143585,0.0095749-0.0199509,0.0223312-0.0422821
		c0.0095749-0.0167618,0.0215454-0.0327072,0.0327148-0.0478668c0.0111618-0.0175476,0.0279236-0.0398865,0.041481-0.0582352
		c0.564003-0.8081131,3.1088181-3.9424591,4.1769943-5.253952l0.1076965-0.1292343
		c0.0773849-0.0933304,0.1946564-0.1539612,0.3254776-0.1539612c0.2026291,0,0.3645706,0.1483765,0.403656,0.3390427
		C117.3782883,112.9343414,117.3782883,113.0978699,117.3782959,113.0978699z M124.1096725,134.4862366
		c0,0.2010345-0.1635437,0.3621674-0.3613815,0.3621674h-4.4107361c-0.201828,0-0.3637695-0.1611328-0.3637695-0.3621674v-2.7610016
		c0-0.2002411,0.1619415-0.3613739,0.3637695-0.3613739h4.4107361c0.1978378,0,0.3613815,0.1611328,0.3613815,0.3613739V134.4862366
		z M124.1096725,129.3830566c0,0.2010345-0.1635437,0.3621674-0.3613815,0.3621674h-4.4107361
		c-0.201828,0-0.3637695-0.1611328-0.3637695-0.3621674v-2.761795c0-0.2010345,0.1619415-0.3613815,0.3637695-0.3613815h4.4107361
		c0.1978378,0,0.3613815,0.1603394,0.3613815,0.3613815V129.3830566z M124.1096725,124.2814636
		c0,0.1978455-0.1635437,0.3597794-0.3613815,0.3597794h-4.4107361c-0.201828,0-0.3637695-0.1619415-0.3637695-0.3597794v-2.7625885
		c0-0.2010345,0.1619415-0.3629761,0.3637695-0.3629761h4.4107361c0.1978378,0,0.3613815,0.1619415,0.3613815,0.3629761V124.2814636
		z M124.1096725,119.1774902c0,0.19944-0.1635437,0.359787-0.3613815,0.359787h-4.4107361
		c-0.201828,0-0.3637695-0.160347-0.3637695-0.359787v-2.7617874c0-0.2010345,0.1619415-0.3613815,0.3637695-0.3613815h4.4107361
		c0.1978378,0,0.3613815,0.1603394,0.3613815,0.3613815V119.1774902z M124.1096725,114.0727158
		c0,0.2010345-0.1635437,0.3621826-0.3613815,0.3621826h-4.4107361c-0.201828,0-0.3637695-0.1611481-0.3637695-0.3621826v-2.760994
		c0-0.2026291,0.1619415-0.3629761,0.3637695-0.3629761h4.4107361c0.1978378,0,0.3613815,0.160347,0.3613815,0.3629761V114.0727158z
		"/>
</g>
<g>
	<path class="st2" d="M24.6800003,161.0870056h-1.6189995l-1.1599998-3.6779938l0.0499992,4.5870056h-1.5790005v-7.4960022
		h2.0090008l1.4890003,4.6670074l1.4890003-4.6669922h2.0090008v7.4960022h-1.5790005l0.0499992-4.5870056L24.6800003,161.0870056z"
		/>
	<path class="st2" d="M28.0319996,161.996994l2.0790005-7.5359955h1.8390007l2.0789986,7.5359955h-1.6989975l-0.3499985-1.5390015
		h-1.8990002l-0.3500004,1.5390015H28.0319996z M30.3910007,159.1880035h1.2790012l-0.6399994-2.8379974L30.3910007,159.1880035z"/>
	<path class="st2" d="M36.8199997,159.048996l-0.5489998,0.6999969v2.2489929h-1.5789986v-7.4960022h1.5789986v3.197998
		L38.5,154.5019836h1.9290009l-2.598999,3.2779999l2.7779999,4.2180023h-1.9880028L36.8199997,159.048996z"/>
	<path class="st2" d="M45.6290016,158.8390045h-2.8880005v1.6990051h3.1780014v1.4589996h-4.7770004v-7.4960022h4.7770004v1.4589996
		h-3.1780014v1.4490051h2.8880005V158.8390045z"/>
	<path class="st2" d="M51.9300003,154.3609924c0.8699989,0,1.2589989,0.1600037,1.5589981,0.2799988v1.5090027
		c-0.4500008-0.1799927-0.7989998-0.2899933-1.3989983-0.2899933c-1.2200012,0-1.7789993,0.4900055-1.7789993,2.3889923
		s0.5600014,2.3890076,1.7789993,2.3890076c0.5999985,0,0.9490013-0.1100006,1.3989983-0.2899933v1.5090027
		c-0.2999992,0.1199951-0.6889992,0.2799988-1.5589981,0.2799988c-2.1889992,0-3.2280006-1.0700073-3.237999-3.8880005
		C48.7019997,155.4309998,49.7410011,154.3609924,51.9300003,154.3609924z"/>
	<path class="st2" d="M54.4720001,161.996994v-7.4960022h1.598999v7.4960022H54.4720001z"/>
	<path class="st2" d="M60.2000008,155.9600067v6.0370026h-1.598999v-6.0370026h-1.8090019v-1.4589996h5.2169991v1.4589996
		H60.2000008z"/>
	<path class="st2" d="M62.730999,161.996994v-7.4960022h1.5990028v7.4960022H62.730999z"/>
	<path class="st2" d="M69.848999,158.8390045h-2.8889999v1.6990051h3.1780014v1.4589996h-4.7770004v-7.4960022h4.7770004v1.4589996
		h-3.1780014v1.4490051h2.8880005v1.4299927H69.848999z"/>
	<path class="st2" d="M76.1380005,159.6080017c0,1.8589935-1.1689987,2.529007-2.9380035,2.529007
		c-0.8099976,0-1.7990036-0.1399994-2.3389969-0.4600067v-1.6390076c0.3499985,0.1999969,1.189003,0.5800018,2.1790009,0.5800018
		c1.1289978,0,1.4589996-0.3500061,1.4589996-0.8589935c0-0.5700073-0.25-0.7599945-1.0090027-0.8589935
		c-1.8990021-0.25-2.6279984-0.8099976-2.6279984-2.279007c0-1.3589935,0.8300018-2.2590027,2.8089981-2.2590027
		c1.0189972,0,1.7689972,0.1799927,2.1190033,0.3699951v1.548996c-0.4100037-0.1999969-1.2389984-0.3999939-1.9990005-0.3999939
		c-0.8300018,0-1.2890015,0.2599945-1.2890015,0.7400055c0,0.5399933,0.2900009,0.7089996,1.0690002,0.8190002
		C75.2289963,157.6690063,76.1380005,158.0090027,76.1380005,159.6080017z"/>
	<path class="st2" d="M78.651001,161.996994l2.0790024-7.5359955h1.8389969l2.0790024,7.5359955h-1.6989975l-0.3499985-1.5390015
		h-1.8990097l-0.3499985,1.5390015H78.651001z M81.0100021,159.1880035h1.2789993l-0.6399994-2.8379974L81.0100021,159.1880035z"/>
	<path class="st2" d="M89.2689972,161.996994l-2.4179993-4.4779968l0.0400009,4.4779968h-1.5790024v-7.4960022h1.5790024
		l2.4179993,4.4779968l-0.0400009-4.4779968h1.5790024v7.4960022H89.2689972z"/>
	<path class="st2" d="M91.7710037,161.996994v-7.4960022h2.4280014c2.5390015,0,3.197998,1.6190033,3.197998,3.7480011
		s-0.6589966,3.7480011-3.197998,3.7480011H91.7710037z M93.3700027,160.5379944h0.8590012
		c1.1689987,0,1.5090027-0.8399963,1.5090027-2.2890015c0-1.4389954-0.3399963-2.2890015-1.5090027-2.2890015h-0.8590012
		V160.5379944z"/>
	<path class="st2" d="M104.098999,161.996994v-3.1380005h-2.2779999v3.1380005h-1.598999v-7.4960022h1.598999v2.897995h2.2779999
		v-2.897995h1.598999v7.4960022H104.098999z"/>
	<path class="st2" d="M106.5709991,159.628006v-5.1269989h1.598999v5.0469971c0,0.9700012,0.6299973,1.1399994,1.189003,1.1399994
		s1.189003-0.1699982,1.189003-1.1399994v-5.0469971h1.598999v5.1269989c0,2.0590057-1.6490021,2.5090027-2.7890015,2.5090027
		S106.5709991,161.6869965,106.5709991,159.628006z"/>
	<path class="st2" d="M117.3290024,161.0870056h-1.6190033l-1.1600037-3.6779938l0.0500031,4.5870056h-1.5790024v-7.4960022
		h2.0090027l1.4889984,4.6670074l1.4889984-4.6669922h2.0090027v7.4960022h-1.5790024l0.0500031-4.5870056L117.3290024,161.0870056z
		"/>
	<path class="st2" d="M120.6809998,161.996994l2.0790024-7.5359955h1.8389969l2.0790024,7.5359955h-1.6989975l-0.3499985-1.5390015
		h-1.8990021l-0.3499985,1.5390015H120.6809998z M123.0400009,159.1880035h1.2789993l-0.6399994-2.8379974L123.0400009,159.1880035z
		"/>
	<path class="st2" d="M131.2980042,161.996994l-2.4179993-4.4779968l0.0399933,4.4779968h-1.5789948v-7.4960022h1.5789948
		l2.4179993,4.4779968l-0.0399933-4.4779968h1.5789948v7.4960022H131.2980042z"/>
	<path class="st2" d="M140.9779968,159.6080017c0,1.8589935-1.1690063,2.529007-2.9380035,2.529007
		c-0.8099976,0-1.798996-0.1399994-2.3390045-0.4600067v-1.6390076c0.3500061,0.1999969,1.1889954,0.5800018,2.1790009,0.5800018
		c1.1289978,0,1.4589996-0.3500061,1.4589996-0.8589935c0-0.5700073-0.25-0.7599945-1.0099945-0.8589935
		c-1.8990021-0.25-2.628006-0.8099976-2.628006-2.279007c0-1.3589935,0.8300018-2.2590027,2.8090057-2.2590027
		c1.0189972,0,1.7689972,0.1799927,2.1190033,0.3699951v1.548996c-0.4100037-0.1999969-1.2389984-0.3999939-1.9989929-0.3999939
		c-0.8300018,0-1.2890015,0.2599945-1.2890015,0.7400055c0,0.5399933,0.2899933,0.7089996,1.0690002,0.8190002
		C140.0679932,157.6690063,140.9779968,158.0090027,140.9779968,159.6080017z"/>
	<path class="st2" d="M146.2380066,158.8390045h-2.8880005v1.6990051h3.1779938v1.4589996h-4.7769928v-7.4960022h4.7769928
		v1.4589996h-3.1779938v1.4490051h2.8880005V158.8390045z"/>
	<path class="st2" d="M150.4490051,155.9600067v6.0370026h-1.598999v-6.0370026h-1.8090057v-1.4589996h5.2169952v1.4589996
		H150.4490051z"/>
	<path class="st2" d="M155.9689941,155.9600067v6.0370026h-1.598999v-6.0370026h-1.8090057v-1.4589996h5.2169952v1.4589996
		H155.9689941z"/>
	<path class="st2" d="M159.9900055,160.5379944h3.0279999v1.4589996h-4.6269989v-7.4960022h1.598999V160.5379944z"/>
	<path class="st2" d="M168.0780029,158.8390045h-2.8880005v1.6990051h3.1779938v1.4589996h-4.7769928v-7.4960022h4.7769928
		v1.4589996h-3.1779938v1.4490051h2.8880005V158.8390045z"/>
	<path class="st2" d="M173.4980011,161.0870056h-1.6190033l-1.1600037-3.6779938l0.0500031,4.5870056h-1.5789948v-7.4960022
		h2.0090027l1.4889984,4.6670074l1.4889984-4.6669922h2.0090027v7.4960022h-1.5789948l0.0500031-4.5870056L173.4980011,161.0870056z
		"/>
	<path class="st2" d="M181.5980072,158.8390045h-2.8880005v1.6990051h3.1779938v1.4589996h-4.7769928v-7.4960022h4.7769928
		v1.4589996h-3.1779938v1.4490051h2.8880005V158.8390045z"/>
	<path class="st2" d="M186.6670074,161.996994l-2.4179993-4.4779968l0.0399933,4.4779968h-1.5789948v-7.4960022h1.5789948
		l2.4179993,4.4779968l-0.0399933-4.4779968h1.5789948v7.4960022H186.6670074z"/>
	<path class="st2" d="M192.2680054,155.9600067v6.0370026h-1.598999v-6.0370026h-1.8090057v-1.4589996h5.2169952v1.4589996
		H192.2680054z"/>
	<path class="st2" d="M199.8670044,159.6080017c0,1.8589935-1.1690063,2.529007-2.9380035,2.529007
		c-0.8099976,0-1.798996-0.1399994-2.3390045-0.4600067v-1.6390076c0.3500061,0.1999969,1.1889954,0.5800018,2.1790009,0.5800018
		c1.1289978,0,1.4589996-0.3500061,1.4589996-0.8589935c0-0.5700073-0.25-0.7599945-1.0090027-0.8589935
		c-1.8990021-0.25-2.628006-0.8099976-2.628006-2.279007c0-1.3589935,0.8300018-2.2590027,2.8090057-2.2590027
		c1.0189972,0,1.7689972,0.1799927,2.1190033,0.3699951v1.548996c-0.4100037-0.1999969-1.2389984-0.3999939-1.9989929-0.3999939
		c-0.8300018,0-1.2890015,0.2599945-1.2890015,0.7400055c0,0.5399933,0.2899933,0.7089996,1.0690002,0.8190002
		C198.9579926,157.6690063,199.8670044,158.0090027,199.8670044,159.6080017z"/>
	<path class="st2" d="M48.3269997,175.996994v-7.4960022h1.598999v7.4960022H48.3269997z"/>
	<path class="st2" d="M54.9140015,175.996994l-2.4179993-4.4779968l0.0400009,4.4779968h-1.5789986v-7.4960022h1.5789986
		l2.4179993,4.4779968l-0.0400009-4.4779968H56.493v7.4960022H54.9140015z"/>
	<path class="st2" d="M60.6040001,168.3609924c0.8699989,0,1.2589989,0.1600037,1.5590019,0.2799988v1.5090027
		c-0.4500008-0.1799927-0.7989998-0.2899933-1.3989983-0.2899933c-1.2200012,0-1.7789993,0.4900055-1.7789993,2.3889923
		s0.5600014,2.3890076,1.7789993,2.3890076c0.5999985,0,0.9490013-0.1100006,1.3989983-0.2899933v1.5090027
		c-0.2999992,0.1199951-0.6889992,0.2799988-1.5589981,0.2799988c-2.1889992,0-3.2280006-1.0700073-3.237999-3.8880005
		C57.3759995,169.4309998,58.4160004,168.3609924,60.6040001,168.3609924z"/>
	<path class="st2" d="M64.6360016,174.5379944h3.0279999v1.4589996h-4.6269989v-7.4960022h1.598999V174.5379944z"/>
	<path class="st2" d="M68.185997,173.628006v-5.1269989h1.598999v5.0469971c0,0.9700012,0.6299973,1.1399994,1.189003,1.1399994
		s1.189003-0.1699982,1.189003-1.1399994v-5.0469971h1.598999v5.1269989c0,2.0590057-1.6490021,2.5090027-2.7890015,2.5090027
		S68.185997,175.6869965,68.185997,173.628006z"/>
	<path class="st2" d="M79.8130035,173.6080017c0,1.8589935-1.1689987,2.529007-2.9380035,2.529007
		c-0.8099976,0-1.7990036-0.1399994-2.3389969-0.4600067v-1.6390076c0.3499985,0.1999969,1.189003,0.5800018,2.1790009,0.5800018
		c1.1289978,0,1.4589996-0.3500061,1.4589996-0.8589935c0-0.5700073-0.25-0.7599945-1.0100021-0.8589935
		c-1.8990021-0.25-2.6279984-0.8099976-2.6279984-2.279007c0-1.3589935,0.8300018-2.2590027,2.8089981-2.2590027
		c1.0189972,0,1.7689972,0.1799927,2.1190033,0.3699951v1.548996c-0.4100037-0.1999969-1.2389984-0.3999939-1.9990005-0.3999939
		c-0.8300018,0-1.2890015,0.2599945-1.2890015,0.7400055c0,0.5399933,0.2900009,0.7089996,1.0690002,0.8190002
		C78.9039993,171.6690063,79.8130035,172.0090027,79.8130035,173.6080017z"/>
	<path class="st2" d="M80.6959991,175.996994v-7.4960022h1.598999v7.4960022H80.6959991z"/>
	<path class="st2" d="M89.0630035,168.5010071l-2.0790024,7.5359955h-1.8389969l-2.0790024-7.5359955h1.6989975l1.2990036,5.7070007
		l1.2990036-5.7070007H89.0630035z"/>
	<path class="st2" d="M94.2129974,172.8390045h-2.8880005v1.6990051h3.1780014v1.4589996h-4.7770004v-7.4960022h4.7770004v1.4589996
		h-3.1780014v1.4490051h2.8880005V172.8390045z"/>
	<path class="st2" d="M94.9059982,177.246994l0.3099976-2.7489929h1.6989975l-0.9189987,2.7489929H94.9059982z"/>
	<path class="st2" d="M104.9029999,173.6080017c0,1.8589935-1.1689987,2.529007-2.9380035,2.529007
		c-0.8099976,0-1.7990036-0.1399994-2.3389969-0.4600067v-1.6390076c0.3499985,0.1999969,1.189003,0.5800018,2.1790009,0.5800018
		c1.1289978,0,1.4589996-0.3500061,1.4589996-0.8589935c0-0.5700073-0.25-0.7599945-1.0090027-0.8589935
		c-1.8990021-0.25-2.6279984-0.8099976-2.6279984-2.279007c0-1.3589935,0.8300018-2.2590027,2.8089981-2.2590027
		c1.0189972,0,1.7689972,0.1799927,2.1190033,0.3699951v1.548996c-0.4100037-0.1999969-1.2389984-0.3999939-1.9990005-0.3999939
		c-0.8300018,0-1.2890015,0.2599945-1.2890015,0.7400055c0,0.5399933,0.2900009,0.7089996,1.0690002,0.8190002
		C103.9940033,171.6690063,104.9029999,172.0090027,104.9029999,173.6080017z"/>
	<path class="st2" d="M105.2160034,175.996994l2.0790024-7.5359955h1.8389969l2.0790024,7.5359955h-1.6989975l-0.3499985-1.5390015
		h-1.8990021l-0.3499985,1.5390015H105.2160034z M107.5749969,173.1880035h1.2789993l-0.6399994-2.8379974L107.5749969,173.1880035z
		"/>
	<path class="st2" d="M116.3030014,172.9389954h-2.8280029v3.0579987h-1.598999v-7.4960022h4.7269974v1.4589996h-3.1279984v1.548996
		h2.8280029V172.9389954z"/>
	<path class="st2" d="M121.7229996,172.8390045h-2.8880005v1.6990051h3.1780014v1.4589996h-4.7770004v-7.4960022h4.7770004
		v1.4589996h-3.1780014v1.4490051h2.8880005V172.8390045z"/>
	<path class="st2" d="M122.4160004,177.246994l0.3099976-2.7489929h1.6989975l-0.9189987,2.7489929H122.4160004z"/>
	<path class="st2" d="M128.8350067,175.996994h-1.598999v-7.4960022h2.5480042c2.0189972,0,2.6790009,0.9199982,2.6790009,2.348999
		c0,0.9290009-0.2599945,1.6390076-1.0500031,2.0189972l1.3300018,3.128006h-1.8690033l-1.0090027-2.8090057h-1.029007v2.8090057
		H128.8350067z M128.8350067,171.7389984h1.0890045c0.7089996,0,0.798996-0.4790039,0.798996-0.8890076
		c0-0.4199982-0.0899963-0.8899994-0.798996-0.8899994h-1.0890045V171.7389984z"/>
	<path class="st2" d="M137.772995,172.8390045h-2.8880005v1.6990051h3.1779938v1.4589996h-4.7769928v-7.4960022h4.7769928v1.4589996
		h-3.1779938v1.4490051h2.8880005V172.8390045z"/>
	<path class="st2" d="M144.0630035,173.6080017c0,1.8589935-1.1690063,2.529007-2.9380035,2.529007
		c-0.8099976,0-1.798996-0.1399994-2.3390045-0.4600067v-1.6390076c0.3500061,0.1999969,1.1889954,0.5800018,2.1790009,0.5800018
		c1.1289978,0,1.4589996-0.3500061,1.4589996-0.8589935c0-0.5700073-0.25-0.7599945-1.0099945-0.8589935
		c-1.8990021-0.25-2.628006-0.8099976-2.628006-2.279007c0-1.3589935,0.8300018-2.2590027,2.8090057-2.2590027
		c1.0189972,0,1.7689972,0.1799927,2.1190033,0.3699951v1.548996c-0.4100037-0.1999969-1.2389984-0.3999939-1.9989929-0.3999939
		c-0.8300018,0-1.2890015,0.2599945-1.2890015,0.7400055c0,0.5399933,0.2899933,0.7089996,1.0690002,0.8190002
		C143.1529999,171.6690063,144.0630035,172.0090027,144.0630035,173.6080017z"/>
	<path class="st2" d="M144.9450073,175.996994v-7.4960022h1.598999v7.4960022H144.9450073z"/>
	<path class="st2" d="M149.1750031,174.5379944h3.0279999v1.4589996h-4.6269989v-7.4960022h1.598999V174.5379944z"/>
	<path class="st2" d="M152.8849945,175.996994v-7.4960022h1.598999v7.4960022H152.8849945z"/>
	<path class="st2" d="M160.0019989,172.8390045h-2.8880005v1.6990051h3.1779938v1.4589996h-4.7769928v-7.4960022h4.7769928
		v1.4589996h-3.1779938v1.4490051h2.8880005V172.8390045z"/>
	<path class="st2" d="M165.072998,175.996994l-2.4179993-4.4779968l0.0399933,4.4779968h-1.5789948v-7.4960022h1.5789948
		l2.4179993,4.4779968l-0.0399933-4.4779968h1.5789948v7.4960022H165.072998z"/>
	<path class="st2" d="M170.6730042,169.9600067v6.0370026h-1.598999v-6.0370026h-1.8090057v-1.4589996h5.2169952v1.4589996
		H170.6730042z"/>
	<path class="st2" d="M69.8259964,189.996994l2.0790024-7.5359955h1.8389969l2.0790024,7.5359955h-1.6989975l-0.3499985-1.5390015
		H71.875l-0.3499985,1.5390015H69.8259964z M72.1849976,187.1880035h1.2789993l-0.6399994-2.8379974L72.1849976,187.1880035z"/>
	<path class="st2" d="M80.4440002,189.996994l-2.4179993-4.4779968l0.0400009,4.4779968h-1.5790024v-7.4960022h1.5790024
		l2.4179993,4.4779968l-0.0400009-4.4779968h1.5790024v7.4960022H80.4440002z"/>
	<path class="st2" d="M82.9459991,189.996994v-7.4960022h2.4280014c2.5390015,0,3.197998,1.6190033,3.197998,3.7480011
		s-0.6589966,3.7480011-3.197998,3.7480011H82.9459991z M84.5449982,188.5379944h0.8590012
		c1.1689987,0,1.5090027-0.8399963,1.5090027-2.2890015c0-1.4389954-0.3399963-2.2890015-1.5090027-2.2890015h-0.8590012
		V188.5379944z"/>
	<path class="st2" d="M96.572998,187.6080017c0,1.8589935-1.1689987,2.529007-2.9380035,2.529007
		c-0.8099976,0-1.7990036-0.1399994-2.3389969-0.4600067v-1.6390076c0.3499985,0.1999969,1.189003,0.5800018,2.1790009,0.5800018
		c1.1289978,0,1.4589996-0.3500061,1.4589996-0.8589935c0-0.5700073-0.25-0.7599945-1.0100021-0.8589935
		c-1.8990021-0.25-2.6279984-0.8099976-2.6279984-2.279007c0-1.3589935,0.8300018-2.2590027,2.8089981-2.2590027
		c1.0189972,0,1.7689972,0.1799927,2.1190033,0.3699951v1.548996c-0.4100037-0.1999969-1.2389984-0.3999939-1.9990005-0.3999939
		c-0.8300018,0-1.2890015,0.2599945-1.2890015,0.7400055c0,0.5399933,0.2900009,0.7089996,1.0690002,0.8190002
		C95.6640015,185.6690063,96.572998,186.0090027,96.572998,187.6080017z"/>
	<path class="st2" d="M97.2959976,187.628006v-5.1269989h1.598999v5.0469971c0,0.9700012,0.6299973,1.1399994,1.189003,1.1399994
		s1.189003-0.1699982,1.189003-1.1399994v-5.0469971h1.598999v5.1269989c0,2.0590057-1.6490021,2.5090027-2.7890015,2.5090027
		S97.2959976,189.6869965,97.2959976,187.628006z"/>
	<path class="st2" d="M108.9229965,187.6080017c0,1.8589935-1.1689987,2.529007-2.9380035,2.529007
		c-0.8099976,0-1.7990036-0.1399994-2.3389969-0.4600067v-1.6390076c0.3499985,0.1999969,1.189003,0.5800018,2.1790009,0.5800018
		c1.1289978,0,1.4589996-0.3500061,1.4589996-0.8589935c0-0.5700073-0.25-0.7599945-1.0100021-0.8589935
		c-1.8990021-0.25-2.6279984-0.8099976-2.6279984-2.279007c0-1.3589935,0.8300018-2.2590027,2.8089981-2.2590027
		c1.0189972,0,1.7689972,0.1799927,2.1190033,0.3699951v1.548996c-0.4100037-0.1999969-1.2389984-0.3999939-1.9990005-0.3999939
		c-0.8300018,0-1.2890015,0.2599945-1.2890015,0.7400055c0,0.5399933,0.2900009,0.7089996,1.0690002,0.8190002
		C108.0139999,185.6690063,108.9229965,186.0090027,108.9229965,187.6080017z"/>
	<path class="st2" d="M112.4940033,183.9600067v6.0370026h-1.598999v-6.0370026h-1.8089981v-1.4589996h5.2170029v1.4589996
		H112.4940033z"/>
	<path class="st2" d="M113.8560028,189.996994l2.0790024-7.5359955h1.8389969l2.0790024,7.5359955h-1.6989975l-0.3499985-1.5390015
		h-1.8990021l-0.3499985,1.5390015H113.8560028z M116.2149963,187.1880035h1.2789993l-0.6399994-2.8379974L116.2149963,187.1880035z
		"/>
	<path class="st2" d="M120.6259995,189.996994v-7.4960022h1.598999v7.4960022H120.6259995z"/>
	<path class="st2" d="M127.2129974,189.996994l-2.4179993-4.4779968l0.0400009,4.4779968h-1.5790024v-7.4960022h1.5790024
		l2.4180069,4.4779968l-0.0399933-4.4779968h1.5789948v7.4960022H127.2129974z"/>
	<path class="st2" d="M129.4559937,189.996994l2.0789948-7.5359955h1.8390045l2.0789948,7.5359955h-1.6990051l-0.3500061-1.5390015
		h-1.8990021l-0.3500061,1.5390015H129.4559937z M131.8139954,187.1880035h1.279007l-0.6399994-2.8379974L131.8139954,187.1880035z"
		/>
	<path class="st2" d="M136.1159973,182.5010071h2.6880035c1.8990021,0,2.4179993,0.8999939,2.4179993,2.1190033
		c0,0.6399994-0.3200073,1.1589966-0.8099976,1.4190063c0.5599976,0.1900024,1.029007,0.7400055,1.029007,1.6690063
		c0,1.298996-0.5890045,2.2890015-2.5980072,2.2890015h-2.7290039v-7.4960175H136.1159973z M138.7440033,183.8600006h-1.029007
		v1.6089935h1.029007c0.6600037,0,0.779007-0.4600067,0.779007-0.8000031
		C139.522995,184.3200073,139.4140015,183.8600006,138.7440033,183.8600006z M137.7149963,188.6380005h1.1089935
		c0.6690063,0,0.9190063-0.3899994,0.9190063-0.9389954c0-0.5599976-0.2599945-0.9290009-0.9190063-0.9290009h-1.1089935
		V188.6380005z"/>
	<path class="st2" d="M143.7250061,188.5379944h3.0279999v1.4589996h-4.6269989v-7.4960022h1.598999V188.5379944z"/>
	<path class="st2" d="M151.8130035,186.8390045h-2.8880005v1.6990051h3.1779938v1.4589996h-4.7769928v-7.4960022h4.7769928
		v1.4589996h-3.1779938v1.4490051h2.8880005V186.8390045z"/>
</g>
</svg>
