<?xml version="1.0" encoding="utf-8"?>
<!-- Generator: Adobe Illustrator 20.1.0, SVG Export Plug-In . SVG Version: 6.00 Build 0)  -->
<svg version="1.1" id="Layer_1" xmlns="http://www.w3.org/2000/svg" xmlns:xlink="http://www.w3.org/1999/xlink" x="0px" y="0px"
	 width="218px" height="218px" viewBox="0 0 218 218" style="enable-background:new 0 0 218 218;" xml:space="preserve">
<style type="text/css">
	.st0{fill:#A21C43;}
	.st1{fill:#FFFFFF;}
	.st2{enable-background:new    ;}
</style>
<g>
	<circle class="st0" cx="109.3821716" cy="108.9393158" r="108"/>
</g>
<g>
	<path class="st1" d="M26.7553711,65.5083008c0-4.800293,3.0004883-7.9501953,5.2001953-8.9003906
		c-1.8500977-1.0498047-4.0498047-3.6000977-4.0498047-7.7504883c0-6.800293,3.7001953-10.6503906,12.1005859-10.6503906
		s12.1005859,3.8500977,12.1005859,10.6503906c0,4.1503906-2.2001953,6.7006836-4.050293,7.7504883
		c2.2001953,0.9501953,5.2006836,4.1000977,5.2006836,8.9003906c0,7.8007812-5.0004883,11.6010742-13.2509766,11.6010742
		S26.7553711,73.309082,26.7553711,65.5083008z M45.7568359,65.4086914c0-3.1503906-1.7504883-5.2504883-5.7504883-5.2504883
		c-4.0004883,0-5.7504883,2.1000977-5.7504883,5.2504883c0,2.3500977,1.3500977,4.8500977,5.7504883,4.8500977
		S45.7568359,67.7587891,45.7568359,65.4086914z M44.2563477,49.3574219c0-2.8500977-1.949707-4.3500977-4.25-4.3500977
		s-4.2504883,1.5-4.2504883,4.3500977c0,2.6503906,1.550293,4.5004883,4.2504883,4.5004883
		S44.2563477,52.0078125,44.2563477,49.3574219z"/>
</g>
<g>
	<path class="st1" d="M55.6362305,53.7177734V41.7128906h3.8896484c4.0654297,0,5.1220703,2.5932617,5.1220703,6.0024414
		s-1.0566406,6.0024414-5.1220703,6.0024414H55.6362305z M58.1972656,51.3808594h1.3764648
		c1.8730469,0,2.4169922-1.3447266,2.4169922-3.6655273c0-2.3046875-0.5439453-3.6655273-2.4169922-3.6655273h-1.3764648V51.3808594
		z"/>
	<path class="st1" d="M73.1430664,48.659668h-4.6259766v2.7211914h5.0898438v2.3369141h-7.6508789V41.7128906h7.6508789v2.3369141
		h-5.0898438v2.3208008h4.6259766V48.659668z"/>
	<path class="st1" d="M80.0219727,41.4887695c1.3925781,0,2.0170898,0.2563477,2.4970703,0.4482422v2.4169922
		c-0.7202148-0.2880859-1.2802734-0.4643555-2.2407227-0.4643555c-1.953125,0-2.8491211,0.784668-2.8491211,3.8256836
		s0.8959961,3.8256836,2.8491211,3.8256836c0.9604492,0,1.5205078-0.1762695,2.2407227-0.4643555v2.4169922
		c-0.4799805,0.1918945-1.1044922,0.4482422-2.4970703,0.4482422c-3.5053711,0-5.1699219-1.7128906-5.1860352-6.2265625
		C74.8520508,43.2016602,76.5166016,41.4887695,80.0219727,41.4887695z"/>
	<path class="st1" d="M91.0942383,48.659668H86.46875v2.7211914h5.090332v2.3369141h-7.6513672V41.7128906h7.6513672v2.3369141
		H86.46875v2.3208008h4.6254883V48.659668z"/>
	<path class="st1" d="M99.206543,53.7177734l-3.8740234-7.1708984l0.0644531,7.1708984h-2.5292969V41.7128906h2.5292969
		l3.8730469,7.1708984l-0.0634766-7.1708984h2.5283203v12.0048828H99.206543z"/>
	<path class="st1" d="M108.1655273,44.0498047v9.6679688h-2.5605469v-9.6679688h-2.8974609v-2.3369141h8.355957v2.3369141
		H108.1655273z"/>
	<path class="st1" d="M122.5039062,41.7128906l1.328125,8.371582l0.9765625-8.371582h2.7373047l-1.8564453,12.0688477h-3.3300781
		l-1.5361328-9.0117188l-1.5371094,9.0117188h-3.3291016l-1.8564453-12.0688477h2.7373047l0.9755859,8.371582l1.3291016-8.371582
		H122.5039062z"/>
	<path class="st1" d="M128.5966797,47.715332c0-3.6655273,1.0087891-6.2265625,4.7861328-6.2265625
		s4.7861328,2.5610352,4.7861328,6.2265625s-1.0087891,6.2265625-4.7861328,6.2265625S128.5966797,51.3808594,128.5966797,47.715332
		z M131.1894531,47.715332c0,2.8012695,0.6083984,3.9057617,2.1933594,3.9057617
		c1.5839844,0,2.1923828-1.1044922,2.1923828-3.9057617s-0.6083984-3.9057617-2.1923828-3.9057617
		C131.7978516,43.8095703,131.1894531,44.9140625,131.1894531,47.715332z"/>
	<path class="st1" d="M142.1162109,53.7177734h-2.5605469V41.7128906h4.0820312
		c3.2324219,0,4.2890625,1.4726562,4.2890625,3.7617188c0,1.4882812-0.4160156,2.625-1.6806641,3.2329102L148.375,53.7177734
		h-2.9931641l-1.6162109-4.4980469h-1.6494141V53.7177734z M142.1162109,46.8989258h1.7451172
		c1.1367188,0,1.2802734-0.7680664,1.2802734-1.4243164c0-0.6723633-0.1435547-1.4248047-1.2802734-1.4248047h-1.7451172V46.8989258
		z"/>
	<path class="st1" d="M152.6455078,48.9960938l-0.8798828,1.1201172v3.6015625h-2.5292969V41.7128906h2.5292969v5.1220703
		l3.5693359-5.1220703h3.0888672l-4.1611328,5.25l4.4492188,6.7548828h-3.1855469L152.6455078,48.9960938z"/>
	<path class="st1" d="M162.3398438,53.7177734l3.3291016-12.0688477h2.9453125l3.3291016,12.0688477h-2.7207031
		l-0.5605469-2.4648438h-3.0410156l-0.5605469,2.4648438H162.3398438z M166.1171875,49.2197266h2.0488281l-1.0244141-4.5454102
		L166.1171875,49.2197266z"/>
	<path class="st1" d="M179.3349609,53.7177734l-3.8740234-7.1708984l0.0644531,7.1708984h-2.5292969V41.7128906h2.5292969
		l3.8730469,7.1708984l-0.0634766-7.1708984h2.5283203v12.0048828H179.3349609z"/>
	<path class="st1" d="M183.3320312,53.7177734V41.7128906h3.8896484c4.0654297,0,5.1220703,2.5932617,5.1220703,6.0024414
		s-1.0566406,6.0024414-5.1220703,6.0024414H183.3320312z M185.8925781,51.3808594h1.3769531
		c1.8730469,0,2.4169922-1.3447266,2.4169922-3.6655273c0-2.3046875-0.5439453-3.6655273-2.4169922-3.6655273h-1.3769531V51.3808594
		z"/>
	<path class="st1" d="M62.8232422,67.8598633h-4.6259766v2.7211914h5.0898438v2.3369141h-7.6508789V60.9130859h7.6508789V63.25
		h-5.0898438v2.3208008h4.6259766V67.8598633z"/>
	<path class="st1" d="M69.7021484,60.6889648c1.3925781,0,2.0170898,0.2563477,2.4970703,0.4482422v2.4169922
		c-0.7202148-0.2880859-1.2802734-0.4643555-2.2407227-0.4643555c-1.953125,0-2.8491211,0.784668-2.8491211,3.8256836
		s0.8959961,3.8256836,2.8491211,3.8256836c0.9604492,0,1.5205078-0.1762695,2.2407227-0.4643555v2.4169922
		c-0.4799805,0.1918945-1.1044922,0.4482422-2.4970703,0.4482422c-3.5053711,0-5.1699219-1.7128906-5.1860352-6.2265625
		C64.5322266,62.4018555,66.1967773,60.6889648,69.7021484,60.6889648z"/>
	<path class="st1" d="M73.5083008,66.9155273c0-3.6655273,1.0083008-6.2265625,4.7861328-6.2265625
		c3.7773438,0,4.7856445,2.5610352,4.7856445,6.2265625s-1.0083008,6.2265625-4.7856445,6.2265625
		C74.5166016,73.1420898,73.5083008,70.5810547,73.5083008,66.9155273z M76.1015625,66.9155273
		c0,2.8012695,0.6079102,3.9057617,2.1928711,3.9057617c1.5844727,0,2.1928711-1.1044922,2.1928711-3.9057617
		s-0.6083984-3.9057617-2.1928711-3.9057617C76.7094727,63.0097656,76.1015625,64.1142578,76.1015625,66.9155273z"/>
	<path class="st1" d="M90.8071289,72.9179688l-3.8740234-7.1708984l0.0639648,7.1708984h-2.5288086V60.9130859h2.5288086
		l3.8735352,7.1708984l-0.0634766-7.1708984h2.5283203v12.0048828H90.8071289z"/>
	<path class="st1" d="M94.7241211,66.9155273c0-3.6655273,1.0087891-6.2265625,4.7861328-6.2265625
		s4.7861328,2.5610352,4.7861328,6.2265625s-1.0087891,6.2265625-4.7861328,6.2265625S94.7241211,70.5810547,94.7241211,66.9155273z
		 M97.3168945,66.9155273c0,2.8012695,0.6083984,3.9057617,2.1933594,3.9057617
		c1.5839844,0,2.1923828-1.1044922,2.1923828-3.9057617s-0.6083984-3.9057617-2.1923828-3.9057617
		C97.925293,63.0097656,97.3168945,64.1142578,97.3168945,66.9155273z"/>
	<path class="st1" d="M112.5830078,71.4614258h-2.5932617l-1.8564453-5.890625l0.0800781,7.347168h-2.5292969V60.9130859h3.2167969
		l2.3862305,7.4750977l2.3847656-7.4750977h3.2167969v12.0048828h-2.5283203l0.0800781-7.347168L112.5830078,71.4614258z"/>
	<path class="st1" d="M118.5322266,72.9179688V60.9130859h2.5615234v12.0048828H118.5322266z"/>
	<path class="st1" d="M127.8466797,60.6889648c1.3925781,0,2.0166016,0.2563477,2.4970703,0.4482422v2.4169922
		c-0.7207031-0.2880859-1.28125-0.4643555-2.2412109-0.4643555c-1.953125,0-2.8496094,0.784668-2.8496094,3.8256836
		s0.8964844,3.8256836,2.8496094,3.8256836c0.9599609,0,1.5205078-0.1762695,2.2412109-0.4643555v2.4169922
		c-0.4804688,0.1918945-1.1044922,0.4482422-2.4970703,0.4482422c-3.5058594,0-5.1708984-1.7128906-5.1865234-6.2265625
		C122.6757812,62.4018555,124.3408203,60.6889648,127.8466797,60.6889648z"/>
	<path class="st1" d="M134.8515625,66.9155273c0-4.1777344,1.5048828-6.2265625,5.1542969-6.2265625
		c1.6328125,0,2.8173828,0.2402344,3.5371094,0.5600586v2.4970703c-0.9921875-0.4160156-2.0644531-0.65625-3.0566406-0.65625
		c-2.2890625,0-3.0419922,1.0244141-3.0419922,3.8256836c0,2.9931641,0.8164062,3.8256836,3.0419922,3.8256836
		c0.2392578,0,0.5595703-0.0161133,0.7353516-0.0483398v-2.4326172h-1.6962891v-2.2890625h4.2578125v6.3544922
		c-0.7207031,0.4482422-2.1289062,0.8164062-3.8574219,0.8164062
		C136.3564453,73.1420898,134.8515625,71.0932617,134.8515625,66.9155273z"/>
	<path class="st1" d="M147.7480469,72.9179688H145.1875V60.9130859h4.0820312c3.2324219,0,4.2890625,1.4726562,4.2890625,3.7617188
		c0,1.4882812-0.4160156,2.625-1.6806641,3.2329102l2.1289062,5.0102539h-2.9931641l-1.6162109-4.4980469h-1.6494141V72.9179688z
		 M147.7480469,66.0991211h1.7451172c1.1367188,0,1.2802734-0.7680664,1.2802734-1.4243164
		c0-0.6723633-0.1435547-1.4248047-1.2802734-1.4248047h-1.7451172V66.0991211z"/>
	<path class="st1" d="M154.7880859,66.9155273c0-3.6655273,1.0087891-6.2265625,4.7861328-6.2265625
		s4.7861328,2.5610352,4.7861328,6.2265625s-1.0087891,6.2265625-4.7861328,6.2265625
		S154.7880859,70.5810547,154.7880859,66.9155273z M157.3808594,66.9155273c0,2.8012695,0.6083984,3.9057617,2.1933594,3.9057617
		c1.5839844,0,2.1923828-1.1044922,2.1923828-3.9057617s-0.6083984-3.9057617-2.1923828-3.9057617
		C157.9892578,63.0097656,157.3808594,64.1142578,157.3808594,66.9155273z"/>
	<path class="st1" d="M173.8144531,60.9130859l1.328125,8.371582l0.9765625-8.371582h2.7373047L177,72.9819336h-3.3300781
		l-1.5361328-9.0117188l-1.5371094,9.0117188h-3.3291016l-1.8564453-12.0688477h2.7373047l0.9755859,8.371582l1.3291016-8.371582
		H173.8144531z"/>
	<path class="st1" d="M184.9492188,63.25v9.6679688h-2.5605469V63.25h-2.8974609v-2.3369141h8.3554688V63.25H184.9492188z"/>
	<path class="st1" d="M195.0302734,72.9179688v-5.0258789h-3.6503906v5.0258789h-2.5605469V60.9130859h2.5605469v4.6420898
		h3.6503906v-4.6420898h2.5605469v12.0048828H195.0302734z"/>
</g>
<g>
	<path class="st1" d="M130.3705444,91.4528656l-11.0560303,10.484169c-0.3812408,0.3812408-0.6671677,0.7624817-0.6671677,1.6202774
		v29.4509735c0,0.3812561,0.2859344,0.6671753,0.6671677,0.6671753h11.4372864c0.3812256,0,0.66716-0.2859344,0.66716-0.6671753
		V91.7388C131.4189606,91.3575516,131.1330261,90.7856903,130.3705444,91.4528656"/>
	<path class="st1" d="M98.6321106,105.177597l-11.0560303,10.4841614c-0.3812408,0.3812485-0.6671677,0.7624893-0.6671677,1.6202774
		v15.7262497c0,0.3812561,0.2859344,0.6671753,0.6671677,0.6671753h11.4372787c0.3812408,0,0.6671677-0.2859344,0.6671677-0.6671753
		v-27.6400757C99.5852203,105.082283,99.2992859,104.4151077,98.6321106,105.177597"/>
	<path class="st1" d="M135.4220123,78.6812363c0-0.0953064,0-0.1906128-0.0953217-0.2859344
		c-0.0953064-0.0953064-0.0953064-0.0953064-0.1906128-0.0953064h-0.0953217h-0.0953064l-8.4826508,1.9062119h-0.1906204
		c-0.0953064,0-0.0953064,0-0.1906204,0.0953064c-0.0953064,0.095314-0.0953064,0.2859344,0,0.4765549l0.095314,0.095314
		l1.9062119,1.9062119l-19.1574326,19.1574326l-8.8638916-8.8638916c-0.095314-0.095314-0.2859344-0.095314-0.3812485,0
		l-2.3827591,2.3827667l0,0l-14.2012863,14.2012787c-0.0953064,0.095314-0.0953064,0.2859344,0,0.3812485l2.3827667,2.3827591
		c0.0953064,0.095314,0.2859344,0.095314,0.3812408,0l14.0106583-14.0106583l6.3858109,6.3858109l0,0l2.3827667,2.3827667
		c0.0953064,0.0953064,0.2859344,0.0953064,0.3812408,0l21.921463-21.5401917l2.0015259,2.0015259
		c0.0953217,0.0953064,0.2859344,0.0953064,0.4765625,0c0.0953064-0.095314,0.0953064-0.095314,0.0953064-0.1906204l0,0
		L135.4220123,78.6812363L135.4220123,78.6812363z"/>
	<path class="st1" d="M114.5489807,106.9884949l-5.3373871,5.3373947c-0.095314,0.0953064-0.2859344,0.0953064-0.3812485,0
		l-4.8608398-4.9561462c-0.8577957-0.8578033-1.0484161-0.1906204-1.0484161,0.1906128v25.352623
		c0,0.3812408,0.2859344,0.6671753,0.6671753,0.6671753h11.4372711c0.3812485,0,0.6671753-0.2859344,0.6671753-0.6671753
		v-25.7338638C115.5973969,106.7978745,115.31147,106.2260056,114.5489807,106.9884949"/>
</g>
<g class="st2">
	<path class="st1" d="M27.6000004,152.5H26V145h2.5c2,0,2.7000008,1.1999969,2.7000008,2.3999939
		c0,1.3000031-0.7000008,2.3999939-2.7000008,2.3999939h-0.8999996V152.5L27.6000004,152.5z M27.6000004,148.5H28.5
		c0.7999992,0,1-0.6000061,1-1s-0.1000004-1-1-1h-0.8999996V148.5z"/>
	<path class="st1" d="M33.4000015,152.5h-1.6000023V145h2.5c2,0,2.7000008,0.8999939,2.7000008,2.3000031
		c0,0.8999939-0.2999992,1.6000061-1,2l1.2999992,3.1000061h-1.8999977l-1-2.8000031h-1V152.5L33.4000015,152.5z
		 M33.4000015,148.3000031H34.5c0.7000008,0,0.7999992-0.5,0.7999992-0.8999939S35.1999969,146.5000153,34.5,146.5000153h-1.0999985
		V148.3000031z"/>
	<path class="st1" d="M37.7999992,148.8000031c0-2.3000031,0.5999985-3.8999939,3-3.8999939s3,1.6000061,3,3.8999939
		s-0.5999985,3.8999939-3,3.8999939C38.5,152.6999969,37.7999992,151.1000061,37.7999992,148.8000031z M39.5,148.8000031
		c0,1.6999969,0.4000015,2.3999939,1.4000015,2.3999939s1.4000015-0.6999969,1.4000015-2.3999939
		s-0.4000015-2.3999939-1.4000015-2.3999939C39.7999992,146.3000031,39.5,147,39.5,148.8000031z"/>
	<path class="st1" d="M49,151.6000061h-1.5999985l-1.2000008-3.6999969v4.6000061h-1.5999985V145h2l1.5,4.6999969l1.5-4.6999969h2
		v7.5h-1.5999985v-4.6000061L49,151.6000061z"/>
	<path class="st1" d="M52.5999985,148.8000031c0-2.3000031,0.5999985-3.8999939,3-3.8999939s3,1.6000061,3,3.8999939
		s-0.5999985,3.8999939-3,3.8999939C53.2000008,152.6999969,52.5999985,151.1000061,52.5999985,148.8000031z
		 M54.2000008,148.8000031c0,1.6999969,0.4000015,2.3999939,1.4000015,2.3999939s1.4000015-0.6999969,1.4000015-2.3999939
		s-0.4000015-2.3999939-1.4000015-2.3999939C54.5999985,146.3000031,54.2000008,147,54.2000008,148.8000031z"/>
	<path class="st1" d="M62.0999985,146.5v6H60.5v-6h-1.7999992V145h5.2000008v1.5H62.0999985z"/>
	<path class="st1" d="M69,149.3999939h-2.9000015v1.6999969h3.1999969v1.5H64.5V145h4.7999954v1.5h-3.2000046v1.3999939H69
		V149.3999939z"/>
	<path class="st1" d="M77.3000031,150.1000061c0,1.8999939-1.1999969,2.5-2.9000015,2.5
		c-0.8000031,0-1.8000031-0.1000061-2.3000031-0.5V150.5c0.3000031,0.1999969,1.1999969,0.6000061,2.1999969,0.6000061
		c1.0999985,0,1.5-0.3999939,1.5-0.8999939c0-0.6000061-0.1999969-0.8000031-1-0.8999939
		c-1.9000015-0.1999969-2.5999985-0.8000031-2.5999985-2.3000031c0-1.3999939,0.8000031-2.3000031,2.8000031-2.3000031
		c1,0,1.8000031,0.1999969,2.0999985,0.3999939v1.5c-0.4000015-0.1999969-1.1999969-0.3999939-2-0.3999939
		s-1.3000031,0.3000031-1.3000031,0.6999969c0,0.5,0.3000031,0.6999969,1.0999985,0.8000031
		C76.4000015,148.1999969,77.3000031,148.5,77.3000031,150.1000061z"/>
	<path class="st1" d="M78,150.1999969V145h1.5999985v5c0,1,0.5999985,1.1000061,1.1999969,1.1000061
		S81.9999924,150.9000092,81.9999924,150v-5h1.5999985v5.1000061c0,2.1000061-1.5999985,2.5-2.8000031,2.5
		S78,152.1999969,78,150.1999969z"/>
	<path class="st1" d="M89.6999969,150.1000061c0,1.8999939-1.1999969,2.5-2.9000015,2.5
		c-0.8000031,0-1.8000031-0.1000061-2.3000031-0.5V150.5c0.3000031,0.1999969,1.1999969,0.6000061,2.1999969,0.6000061
		c1.0999985,0,1.5-0.3999939,1.5-0.8999939c0-0.6000061-0.1999969-0.8000031-1-0.8999939
		c-1.9000015-0.1999969-2.5999985-0.8000031-2.5999985-2.3000031c0-1.3999939,0.8000031-2.3000031,2.8000031-2.3000031
		c1,0,1.8000031,0.1999969,2.0999985,0.3999939v1.5c-0.4000015-0.1999969-1.1999969-0.3999939-2-0.3999939
		s-1.3000031,0.3000031-1.3000031,0.6999969c0,0.5,0.3000031,0.6999969,1.0999985,0.8000031
		C88.8000031,148.1999969,89.6999969,148.5,89.6999969,150.1000061z"/>
	<path class="st1" d="M93.1999969,146.5v6h-1.5999985v-6h-1.8000031V145H95v1.5H93.1999969z"/>
	<path class="st1" d="M94.5999985,152.5l2.0999985-7.5H98.5l2.0999985,7.5h-1.6999969l-0.3000031-1.5h-1.9000015l-0.3000031,1.5
		H94.5999985z M97,149.6999969h1.3000031l-0.5999985-2.8000031L97,149.6999969z"/>
	<path class="st1" d="M101.4000015,152.5V145H103v7.5H101.4000015z"/>
	<path class="st1" d="M108,152.5l-2.4000015-4.5v4.5H104V145h1.5999985L108,149.5V145h1.5999985v7.5H108z"/>
	<path class="st1" d="M114.9000015,149.3999939H112v1.6999969h3.1999969v1.5h-4.8000031V145h4.8000031v1.5H112v1.3999939h2.9000015
		V149.3999939z"/>
	<path class="st1" d="M116.0999985,152.5V145H118.5c2.5,0,3.1999969,1.6000061,3.1999969,3.6999969
		S121,152.3999939,118.5,152.3999939h-2.4000015V152.5z M117.6999969,151.1000061h0.9000015
		c1.1999969,0,1.5-0.8000031,1.5-2.3000031c0-1.3999939-0.3000031-2.3000031-1.5-2.3000031h-0.9000015V151.1000061z"/>
	<path class="st1" d="M122.0999985,153.8000031l0.3000031-2.6999969h1.6999969l-0.9000015,2.6999969H122.0999985z"/>
	<path class="st1" d="M127,152.5V145h1.6000061v7.5H127z"/>
	<path class="st1" d="M133.6000061,152.5l-2.3999939-4.5v4.5h-1.6000061V145h1.6000061l2.3999939,4.5V145h1.6000061v7.5H133.6000061
		z"/>
	<path class="st1" d="M139.3000031,144.8999939c0.8999939,0,1.3000031,0.1999969,1.6000061,0.3000031v1.5
		c-0.3999939-0.1999969-0.8000031-0.3000031-1.3999939-0.3000031c-1.1999969,0-1.8000031,0.5-1.8000031,2.3999939
		s0.6000061,2.3999939,1.8000031,2.3999939c0.6000061,0,0.8999939-0.1000061,1.3999939-0.3000031v1.5
		c-0.3000031,0.1000061-0.6999969,0.3000031-1.6000061,0.3000031c-2.1999969,0-3.1999969-1.1000061-3.1999969-3.8999939
		S137.1000061,144.8999939,139.3000031,144.8999939z"/>
	<path class="st1" d="M143.3000031,151.1000061h3v1.5h-4.6000061V145h1.6000061V151.1000061z"/>
	<path class="st1" d="M146.8999939,150.1999969V145H148.5v5c0,1,0.6000061,1.1000061,1.1999969,1.1000061
		s1.1999969-0.1999969,1.1999969-1.1000061v-5H152.5v5.1000061c0,2.1000061-1.6000061,2.5-2.8000031,2.5
		C148.5,152.6999969,146.8999939,152.1999969,146.8999939,150.1999969z"/>
	<path class="st1" d="M158.5,150.1000061c0,1.8999939-1.1999969,2.5-2.8999939,2.5c-0.8000031,0-1.8000031-0.1000061-2.3000031-0.5
		V150.5c0.3999939,0.1999969,1.1999969,0.6000061,2.1999969,0.6000061c1.1000061,0,1.5-0.3999939,1.5-0.8999939
		c0-0.6000061-0.1999969-0.8000031-1-0.8999939c-1.8999939-0.1999969-2.6000061-0.8000031-2.6000061-2.3000031
		c0-1.3999939,0.8000031-2.3000031,2.8000031-2.3000031c1,0,1.8000031,0.1999969,2.1000061,0.3999939v1.5
		c-0.3999939-0.1999969-1.1999969-0.3999939-2-0.3999939S155,146.5000153,155,146.9000092
		c0,0.5,0.3000031,0.6999969,1.1000061,0.8000031C157.6000061,148.1999969,158.5,148.5,158.5,150.1000061z"/>
	<path class="st1" d="M159.3999939,152.5V145H161v7.5H159.3999939z"/>
	<path class="st1" d="M167.6999969,145l-2.1000061,7.5h-1.8000031l-2.1000061-7.5h1.6999969l1.3000031,5.6999969L165.9999847,145
		H167.6999969z"/>
	<path class="st1" d="M172.8999939,149.3999939H170v1.6999969h3.1999969v1.5h-4.8000031V145h4.8000031v1.5H170v1.3999939h2.8999939
		V149.3999939z"/>
	<path class="st1" d="M175.8000031,152.5l2.1000061-7.5h1.8000031l2.1000061,7.5H180l-0.3999939-1.5h-1.8999939l-0.3999939,1.5
		H175.8000031z M178.1000061,149.6999969h1.3000031l-0.6000061-2.8000031L178.1000061,149.6999969z"/>
	<path class="st1" d="M186.3999939,152.5L184,148v4.5h-1.6000061V145H184l2.3999939,4.5V145H188v7.5H186.3999939z"/>
	<path class="st1" d="M188.8999939,152.5V145h2.3999939c2.5,0,3.1999969,1.6000061,3.1999969,3.6999969
		s-0.6999969,3.6999969-3.1999969,3.6999969h-2.3999939V152.5z M190.5,151.1000061h0.8999939
		c1.1999969,0,1.5-0.8000031,1.5-2.3000031c0-1.3999939-0.3000031-2.3000031-1.5-2.3000031H190.5V151.1000061z"/>
</g>
<g class="st2">
	<path class="st1" d="M38.2999992,162.1000061c0,1.8999939-1.2000008,2.5-2.8999977,2.5
		c-0.8000031,0-1.8000031-0.1000061-2.3000031-0.5V162.5c0.3000031,0.1999969,1.2000046,0.6000061,2.2000046,0.6000061
		c1.0999985,0,1.5-0.3999939,1.5-0.8999939c0-0.6000061-0.2000008-0.8000031-1-0.8999939
		c-1.9000015-0.1999969-2.5999985-0.8000031-2.5999985-2.3000031c0-1.3999939,0.7999954-2.3000031,2.7999992-2.3000031
		c1,0,1.7999992,0.1999969,2.0999985,0.3999939v1.5c-0.4000015-0.1999969-1.2000008-0.3999939-2-0.3999939
		s-1.2999992,0.3000031-1.2999992,0.6999969c0,0.5,0.2999992,0.6999969,1.0999985,0.8000031
		C37.4000015,160.1999969,38.2999992,160.5,38.2999992,162.1000061z"/>
	<path class="st1" d="M39,162.1999969V157h1.5999985v5c0,1,0.5999985,1.1000061,1.2000008,1.1000061S43,162.9000092,43,162v-5
		h1.5999985v5.1000061c0,2.1000061-1.5999985,2.5-2.7999992,2.5S39,164.1999969,39,162.1999969z"/>
	<path class="st1" d="M50.5999985,162.1000061c0,1.8999939-1.2000008,2.5-2.9000015,2.5
		c-0.7999992,0-1.7999992-0.1000061-2.2999992-0.5V162.5c0.2999992,0.1999969,1.2000008,0.6000061,2.2000008,0.6000061
		c1.0999985,0,1.5-0.3999939,1.5-0.8999939c0-0.6000061-0.2000008-0.8000031-1-0.8999939
		C46.1999969,161.1000214,45.5,160.5000153,45.5,159.0000153c0-1.3999939,0.7999992-2.3000031,2.7999992-2.3000031
		c1,0,1.7999992,0.1999969,2.0999985,0.3999939v1.5c-0.4000015-0.1999969-1.2000008-0.3999939-2-0.3999939
		s-1.2999992,0.3000031-1.2999992,0.6999969c0,0.5,0.2999992,0.6999969,1.0999985,0.8000031
		C49.7000008,160.1999969,50.5999985,160.5,50.5999985,162.1000061z"/>
	<path class="st1" d="M54.2000008,158.5v6h-1.5999985v-6h-1.7999992V157H56v1.5H54.2000008z"/>
	<path class="st1" d="M55.5999985,164.5l2.0999985-7.5h1.7999992l2.0999985,7.5h-1.7000008l-0.2999992-1.5h-1.9000015
		l-0.2999992,1.5H55.5999985z M57.9000015,161.6999969h1.2999992l-0.5999985-2.8000031L57.9000015,161.6999969z"/>
	<path class="st1" d="M62.2999992,164.5V157h1.5999985v7.5H62.2999992z"/>
	<path class="st1" d="M68.9000015,164.5L66.5,160v4.5H65V157h1.5999985L69,161.5V157h1.5999985v7.5H68.9000015z"/>
	<path class="st1" d="M71.1999969,164.5l2.0999985-7.5h1.8000031l2.0999985,7.5H75.5l-0.3000031-1.5h-1.9000015l-0.3000031,1.5
		H71.1999969z M73.5,161.6999969h1.3000031l-0.5999985-2.8000031L73.5,161.6999969z"/>
	<path class="st1" d="M77.8000031,157H80.5c1.9000015,0,2.4000015,0.8999939,2.4000015,2.1000061
		c0,0.6000061-0.3000031,1.1999969-0.8000031,1.3999939c0.5999985,0.1999969,1,0.6999969,1,1.6999969
		C83.0999985,163.5,82.5,164.5,80.5,164.5h-2.6999969V157L77.8000031,157z M80.4000015,158.3999939h-1V160h1
		c0.6999969,0,0.8000031-0.5,0.8000031-0.8000031C81.1999969,158.8999939,81.0999985,158.3999939,80.4000015,158.3999939z
		 M79.4000015,163.1999969H80.5c0.6999969,0,0.9000015-0.3999939,0.9000015-0.8999939
		c0-0.6000061-0.3000031-0.8999939-0.9000015-0.8999939h-1.0999985V163.1999969z"/>
	<path class="st1" d="M85.4000015,163.1000061h3v1.5h-4.5999985V157h1.5999985V163.1000061z"/>
	<path class="st1" d="M93.5,161.3999939h-2.9000015v1.6999969h3.1999969v1.5H89V157h4.8000031v1.5h-3.1999969v1.3999939h2.9000015
		C93.5000076,159.8999939,93.5000076,161.3999939,93.5,161.3999939z"/>
	<path class="st1" d="M101.0999985,161.3999939h-2.9000015v1.6999969h3.1999969v1.5h-4.8000031V157h4.8000031v1.5h-3.1999969
		v1.3999939h2.9000015V161.3999939z"/>
	<path class="st1" d="M105.4000015,156.8999939c0.9000015,0,1.3000031,0.1999969,1.5999985,0.3000031v1.5
		c-0.4000015-0.1999969-0.8000031-0.3000031-1.4000015-0.3000031c-1.1999969,0-1.8000031,0.5-1.8000031,2.3999939
		s0.5999985,2.3999939,1.8000031,2.3999939c0.5999985,0,0.9000015-0.1000061,1.4000015-0.3000031v1.5
		c-0.3000031,0.1000061-0.6999969,0.3000031-1.5999985,0.3000031c-2.1999969,0-3.1999969-1.1000061-3.1999969-3.8999939
		C102.1999969,158,103.1999969,156.8999939,105.4000015,156.8999939z"/>
	<path class="st1" d="M107.8000031,160.8000031c0-2.3000031,0.5999985-3.8999939,3-3.8999939s3,1.6000061,3,3.8999939
		s-0.5999985,3.8999939-3,3.8999939S107.8000031,163.1000061,107.8000031,160.8000031z M109.4000015,160.8000031
		c0,1.6999969,0.4000015,2.3999939,1.4000015,2.3999939s1.4000015-0.6999969,1.4000015-2.3999939
		s-0.4000015-2.3999939-1.4000015-2.3999939C109.8000031,158.3000031,109.4000015,159,109.4000015,160.8000031z"/>
	<path class="st1" d="M118.5999985,164.5l-2.4000015-4.5v4.5h-1.5999985V157h1.5999985l2.4000015,4.5V157h1.5999985v7.5H118.5999985
		z"/>
	<path class="st1" d="M121.0999985,160.8000031c0-2.3000031,0.5999985-3.8999939,3-3.8999939s3,1.6000061,3,3.8999939
		s-0.5999985,3.8999939-3,3.8999939S121.0999985,163.1000061,121.0999985,160.8000031z M122.6999969,160.8000031
		c0,1.6999969,0.4000015,2.3999939,1.4000015,2.3999939S125.5,162.5,125.5,160.8000031s-0.4000015-2.3999939-1.4000015-2.3999939
		C123.0999985,158.3000031,122.6999969,159,122.6999969,160.8000031z"/>
	<path class="st1" d="M132.1999969,163.6000061h-1.5999908l-1.2000122-3.6999969L129.5,164.5000153h-1.5999985V157h1.9999924
		l1.5,4.6999969l1.5-4.6999969h2v7.5h-1.6000061l0.1000061-4.6000061L132.1999969,163.6000061z"/>
	<path class="st1" d="M135.8999939,164.5V157H137.5v7.5H135.8999939z"/>
	<path class="st1" d="M141.8000031,156.8999939c0.8999939,0,1.3000031,0.1999969,1.6000061,0.3000031v1.5
		c-0.3999939-0.1999969-0.8000031-0.3000031-1.3999939-0.3000031c-1.1999969,0-1.8000031,0.5-1.8000031,2.3999939
		s0.6000061,2.3999939,1.8000031,2.3999939c0.6000061,0,0.8999939-0.1000061,1.3999939-0.3000031v1.5
		c-0.3000031,0.1000061-0.6999969,0.3000031-1.6000061,0.3000031c-2.1999969,0-3.1999969-1.1000061-3.1999969-3.8999939
		C138.5,158,139.6000061,156.8999939,141.8000031,156.8999939z"/>
	<path class="st1" d="M146.1000061,160.8000031c0-2.6000061,0.8999939-3.8999939,3.1999969-3.8999939
		c1,0,1.8000031,0.1000061,2.1999969,0.3999939v1.6000061c-0.6000061-0.3000031-1.3000031-0.3999939-1.8999939-0.3999939
		c-1.3999939,0-1.8999939,0.6000061-1.8999939,2.3999939c0,1.8999939,0.5,2.3999939,1.8999939,2.3999939
		c0.1000061,0,0.3999939,0,0.5,0v-1.5H149v-1.3999939h2.6999969v4c-0.3999939,0.3000031-1.3000031,0.5-2.3999939,0.5
		C147.1000061,164.6999969,146.1000061,163.3999939,146.1000061,160.8000031z"/>
	<path class="st1" d="M154.1999969,164.5h-1.6000061V157h2.5c2,0,2.6999969,0.8999939,2.6999969,2.3000031
		c0,0.8999939-0.3000031,1.6000061-1.1000061,2l1.3000031,3.1000061h-1.8999939l-1-2.8000031h-1V164.5H154.1999969z
		 M154.1999969,160.3000031h1.1000061c0.6999969,0,0.8000031-0.5,0.8000031-0.8999939S156,158.5000153,155.3000031,158.5000153
		h-1.1000061V160.3000031z"/>
	<path class="st1" d="M158.6000061,160.8000031c0-2.3000031,0.6000061-3.8999939,3-3.8999939s3,1.6000061,3,3.8999939
		s-0.6000061,3.8999939-3,3.8999939S158.6000061,163.1000061,158.6000061,160.8000031z M160.1999969,160.8000031
		c0,1.6999969,0.3999939,2.3999939,1.3999939,2.3999939s1.3999939-0.6999969,1.3999939-2.3999939
		s-0.3999939-2.3999939-1.3999939-2.3999939S160.1999969,159,160.1999969,160.8000031z"/>
	<path class="st1" d="M170.5,157l0.8000031,5.1999969L171.9000092,157h1.6999969l-1.1999969,7.5h-2.1000061l-1-5.6000061
		l-1,5.6000061h-2.1000061L165,157h1.6999969l0.6000061,5.1999969L168.1000061,157H170.5z"/>
	<path class="st1" d="M177.3999939,158.5v6h-1.6000061v-6H174V157h5.1999969v1.5H177.3999939z"/>
	<path class="st1" d="M183.6999969,164.5v-3.1000061h-2.3000031V164.5h-1.6000061V157h1.6000061v2.8999939h2.3000031V157h1.6000061
		v7.5H183.6999969z"/>
	<path class="st1" d="M185.8000031,165.8000031l0.3000031-2.6999969h1.6999969l-0.8999939,2.6999969H185.8000031z"/>
</g>
<g class="st2">
	<path class="st1" d="M31.7000008,173.5h-2.7999992v3.1000061h-1.6000004V169H32v1.5h-3.1000004v1.6000061h2.7999992
		C31.7000008,172,31.7000008,173.5,31.7000008,173.5z"/>
	<path class="st1" d="M32.5999985,174.1999969V169h1.6000023v5c0,1,0.6000023,1.1000061,1.2000008,1.1000061
		S36.6000023,174.9000092,36.6000023,174v-5h1.5999985v5.1000061c0,2.1000061-1.5999985,2.5-2.7999992,2.5
		S32.5999985,176.1999969,32.5999985,174.1999969z"/>
	<path class="st1" d="M40.7000008,175.1000061h3v1.5h-4.5999985V169h1.5999985V175.1000061z"/>
	<path class="st1" d="M45.9000015,175.1000061h3v1.5h-4.5999985V169h1.5999985V175.1000061z"/>
	<path class="st1" d="M51.2000008,176.5l2.0999985-7.5h1.7999992l2.0999985,7.5h-1.7000008l-0.2999992-1.5h-1.9000015
		l-0.2999992,1.5H51.2000008z M53.5999985,173.6999969h1.2999992l-0.5999985-2.8000031L53.5999985,173.6999969z"/>
	<path class="st1" d="M61.7999992,176.5l-2.4000015-4.5v4.5h-1.5999985V169h1.5999985l2.4000015,4.5V169h1.5999985v7.5H61.7999992z"
		/>
	<path class="st1" d="M64.3000031,176.5V169h2.3999939c2.5,0,3.2000046,1.6000061,3.2000046,3.6999969
		s-0.6999969,3.6999969-3.2000046,3.6999969h-2.3999939V176.5z M65.9000015,175.1000061h0.9000015
		c1.1999969,0,1.5-0.8000031,1.5-2.3000031c0-1.3999939-0.3000031-2.3000031-1.5-2.3000031h-0.9000015V175.1000061z"/>
	<path class="st1" d="M74.4000015,176.5h-1.5999985V169h2.5c2,0,2.6999969,1.1999969,2.6999969,2.3999939
		c0,1.3000031-0.6999969,2.3999939-2.6999969,2.3999939h-0.9000015V176.5L74.4000015,176.5z M74.4000015,172.5h0.9000015
		c0.8000031,0,0.9000015-0.6000061,0.9000015-1s-0.1999969-1-0.9000015-1h-0.9000015V172.5z"/>
	<path class="st1" d="M80.1999969,176.5h-1.5999985V169h2.5c2,0,2.6999969,0.8999939,2.6999969,2.3000031
		c0,0.8999939-0.3000031,1.6000061-1,2l1.3000031,3.1000061h-1.9000015l-1-2.8000031h-1V176.5L80.1999969,176.5z
		 M80.1999969,172.3000031h1.0999985c0.6999969,0,0.8000031-0.5,0.8000031-0.8999939S82,170.5000153,81.2999954,170.5000153
		h-1.0999985V172.3000031z"/>
	<path class="st1" d="M84.5999985,172.8000031c0-2.3000031,0.5999985-3.8999939,3-3.8999939s3,1.6000061,3,3.8999939
		s-0.5999985,3.8999939-3,3.8999939S84.5999985,175.1000061,84.5999985,172.8000031z M86.1999969,172.8000031
		c0,1.6999969,0.4000015,2.3999939,1.4000015,2.3999939S89,174.5,89,172.8000031s-0.4000015-2.3999939-1.4000015-2.3999939
		C86.5999985,170.3000031,86.1999969,171,86.1999969,172.8000031z"/>
	<path class="st1" d="M91.4000015,176.5V169h2.4000015C96.3000031,169,97,170.6000061,97,172.6999969
		s-0.6999969,3.6999969-3.1999969,3.6999969h-2.4000015V176.5z M93,175.1000061h0.9000015c1.1999969,0,1.5-0.8000031,1.5-2.3000031
		c0-1.3999939-0.3000031-2.3000031-1.5-2.3000031H93V175.1000061z"/>
	<path class="st1" d="M97.8000031,174.1999969V169h1.5999985v5c0,1,0.5999985,1.1000061,1.1999969,1.1000061
		s1.1999969-0.1999969,1.1999969-1.1000061v-5h1.5999985v5.1000061c0,2.1000061-1.5999985,2.5-2.8000031,2.5
		S97.8000031,176.1999969,97.8000031,174.1999969z"/>
	<path class="st1" d="M107.5,168.8999939c0.9000015,0,1.3000031,0.1999969,1.5999985,0.3000031v1.5
		c-0.4000015-0.1999969-0.8000031-0.3000031-1.4000015-0.3000031c-1.1999969,0-1.8000031,0.5-1.8000031,2.3999939
		s0.5999985,2.3999939,1.8000031,2.3999939c0.5999985,0,0.9000015-0.1000061,1.4000015-0.3000031v1.5
		c-0.3000031,0.1000061-0.6999969,0.3000031-1.5999985,0.3000031c-2.1999969,0-3.1999969-1.1000061-3.1999969-3.8999939
		C104.1999969,170,105.3000031,168.8999939,107.5,168.8999939z"/>
	<path class="st1" d="M112.8000031,170.5v6h-1.5999985v-6h-1.8000031V169h5.1999969v1.5H112.8000031z"/>
	<path class="st1" d="M115.3000031,176.5V169h1.5999985v7.5H115.3000031z"/>
	<path class="st1" d="M123.6999969,169l-2.0999985,7.5h-1.8000031l-2.0999985-7.5h1.6999969l1.3000031,5.6999969L122,169
		H123.6999969z"/>
	<path class="st1" d="M128.8999939,173.3999939H126v1.6999969h3.1999969v1.5h-4.8000031V169h4.8000031v1.5H126v1.3999939h2.8999939
		V173.3999939z"/>
	<path class="st1" d="M136.5,173.3999939h-2.8999939v1.6999969h3.1999969v1.5H132V169h4.8000031v1.5h-3.1999969v1.3999939H136.5
		V173.3999939z"/>
	<path class="st1" d="M141.8999939,175.6000061h-1.6000061l-1.1999969-3.6999969l0.1000061,4.6000061h-1.6000061V169h2
		l1.5,4.6999969l1.5-4.6999969h2v7.5H143l0.1000061-4.6000061L141.8999939,175.6000061z"/>
	<path class="st1" d="M147.1000061,176.5H145.5V169h2.5c2,0,2.6999969,1.1999969,2.6999969,2.3999939
		c0,1.3000031-0.6999969,2.3999939-2.6999969,2.3999939h-0.8999939V176.5L147.1000061,176.5z M147.1000061,172.5H148
		c0.8000031,0,0.8999939-0.6000061,0.8999939-1s-0.1000061-1-0.8999939-1h-0.8999939V172.5z"/>
	<path class="st1" d="M152.8999939,175.1000061h3v1.5h-4.6000061V169h1.6000061V175.1000061z"/>
	<path class="st1" d="M155.8999939,172.8000031c0-2.3000031,0.6000061-3.8999939,3-3.8999939s3,1.6000061,3,3.8999939
		s-0.6000061,3.8999939-3,3.8999939S155.8999939,175.1000061,155.8999939,172.8000031z M157.6000061,172.8000031
		C157.6000061,174.5,158,175.1999969,159,175.1999969s1.3999939-0.6999969,1.3999939-2.3999939S160,170.4000092,159,170.4000092
		S157.6000061,171,157.6000061,172.8000031z"/>
	<path class="st1" d="M166.1000061,173.6000061V176.5H164.5v-2.8999939L162.1000061,169h1.8000031l1.3999939,3.1000061
		L166.6999969,169H168.5L166.1000061,173.6000061z"/>
	<path class="st1" d="M173.3999939,175.6000061h-1.6000061l-1.1999969-3.6999969l0.1000061,4.6000061H169V169h2l1.5,4.6999969
		L174,169h2v7.5h-1.6000061L174.5,171.8999939L173.3999939,175.6000061z"/>
	<path class="st1" d="M181.5,173.3999939h-2.8999939v1.6999969h3.1999969v1.5H177V169h4.8000031v1.5h-3.1999969v1.3999939H181.5
		V173.3999939L181.5,173.3999939z"/>
	<path class="st1" d="M186.5,176.5l-2.3999939-4.5v4.5H182.5V169h1.6000061L186.5,173.5V169h1.6000061v7.5H186.5z"/>
	<path class="st1" d="M192.1000061,170.5v6H190.5v-6h-1.8000031V169h5.1999969v1.5H192.1000061z"/>
</g>
<g class="st2">
	<path class="st1" d="M49.2999992,188.5l2.0999985-7.5h1.7999992l2.0999985,7.5h-1.7000008l-0.2999992-1.5h-1.9000015
		l-0.2999992,1.5H49.2999992z M51.5999985,185.6999969h1.2999992l-0.5999985-2.8000031L51.5999985,185.6999969z"/>
	<path class="st1" d="M59.9000015,188.5L57.5,184v4.5h-1.5999985V181H57.5l2.4000015,4.5V181H61.5v7.5H59.9000015z"/>
	<path class="st1" d="M62.4000015,188.5V181h2.4000015C67.3000031,181,68,182.6000061,68,184.6999969
		s-0.6999969,3.6999969-3.1999969,3.6999969h-2.4000015V188.5z M64,187.1000061h0.9000015c1.2000046,0,1.5-0.8000031,1.5-2.3000031
		c0-1.3999939-0.2999954-2.3000031-1.5-2.3000031H64V187.1000061z"/>
	<path class="st1" d="M70.9000015,188.5V181h2.4000015c2.5,0,3.1999969,1.6000061,3.1999969,3.6999969
		s-0.6999969,3.6999969-3.1999969,3.6999969h-2.4000015V188.5z M72.5,187.1000061h0.9000015
		c1.1999969,0,1.5-0.8000031,1.5-2.3000031c0-1.3999939-0.3000031-2.3000031-1.5-2.3000031H72.5V187.1000061z"/>
	<path class="st1" d="M81.8000031,185.3999939h-2.9000015v1.6999969h3.1999969v1.5h-4.8000031V181h4.8000031v1.5h-3.1999969
		v1.3999939h2.9000015V185.3999939z"/>
	<path class="st1" d="M86.0999985,180.8999939c0.9000015,0,1.3000031,0.1999969,1.5999985,0.3000031v1.5
		c-0.4000015-0.1999969-0.8000031-0.3000031-1.4000015-0.3000031c-1.1999969,0-1.8000031,0.5-1.8000031,2.3999939
		s0.5999985,2.3999939,1.8000031,2.3999939c0.5999985,0,0.9000015-0.1000061,1.4000015-0.3000031v1.5
		c-0.3000031,0.1000061-0.6999969,0.3000031-1.5999985,0.3000031c-2.1999969,0-3.1999969-1.1000061-3.1999969-3.8999939
		S83.9000015,180.8999939,86.0999985,180.8999939z"/>
	<path class="st1" d="M93,185.3999939h-2.9000015v1.6999969h3.1999969v1.5h-4.8000031V181h4.8000031v1.5h-3.1999969v1.3999939H93
		V185.3999939z"/>
	<path class="st1" d="M98.0999985,188.5l-2.4000015-4.5v4.5h-1.5999985V181h1.5999985l2.4000015,4.5V181h1.5999985v7.5H98.0999985z"
		/>
	<path class="st1" d="M103.6999969,182.5v6h-1.5999985v-6h-1.8000031V181h5.1999969v1.5H103.6999969z"/>
	<path class="st1" d="M112.5999985,181l0.8000031,5.1999969L114,181h1.6999969L114.5,188.5h-2.0999985l-1-5.6000061l-1,5.6000061
		h-2.0999985l-1.1999969-7.5h1.6999969l0.5999985,5.1999969L110.2000046,181H112.5999985z"/>
	<path class="st1" d="M116.5,184.8000031c0-2.3000031,0.5999985-3.8999939,3-3.8999939s3,1.6000061,3,3.8999939
		s-0.5999985,3.8999939-3,3.8999939S116.5,187.1000061,116.5,184.8000031z M118.0999985,184.8000031
		c0,1.6999969,0.4000015,2.3999939,1.4000015,2.3999939s1.4000015-0.6999969,1.4000015-2.3999939
		S120.5,182.4000092,119.5,182.4000092C118.5,182.3000031,118.0999985,183,118.0999985,184.8000031z"/>
	<path class="st1" d="M124.9000015,188.5h-1.5999985V181h2.5c2,0,2.6999969,0.8999939,2.6999969,2.3000031
		c0,0.8999939-0.3000031,1.6000061-1.0999985,2l1.3000107,3.1000061h-1.9000092l-1-2.8000031h-1L124.9000015,188.5
		L124.9000015,188.5z M124.9000015,184.3000031H126c0.6999969,0,0.8000031-0.5,0.8000031-0.8999939
		S126.7000046,182.5000153,126,182.5000153h-1.0999985V184.3000031z"/>
	<path class="st1" d="M131.5,185.6000061l-0.5,0.6999969V188.5h-1.6000061V181H131v3.1999969L133.1999969,181h1.8999939
		l-2.6000061,3.3000031L135.2999878,188.5h-2L131.5,185.6000061z"/>
	<path class="st1" d="M142.1999969,185.5h-2.8000031v3.1000061h-1.6000061V181h4.6999969v1.5h-3.1000061v1.6000061h2.8000031V185.5
		H142.1999969z"/>
	<path class="st1" d="M143.1000061,184.8000031c0-2.3000031,0.6000061-3.8999939,3-3.8999939s3,1.6000061,3,3.8999939
		s-0.6000061,3.8999939-3,3.8999939C143.6999969,188.6999969,143.1000061,187.1000061,143.1000061,184.8000031z
		 M144.6999969,184.8000031c0,1.6999969,0.3999939,2.3999939,1.3999939,2.3999939s1.3999939-0.6999969,1.3999939-2.3999939
		s-0.3999939-2.3999939-1.3999939-2.3999939C145.1000061,182.3000031,144.6999969,183,144.6999969,184.8000031z"/>
	<path class="st1" d="M151.6000061,188.5H150V181h2.5c2,0,2.6999969,0.8999939,2.6999969,2.3000031
		c0,0.8999939-0.3000031,1.6000061-1.1000061,2l1.3000031,3.1000061H153.5l-1-2.8000031h-1L151.6000061,188.5L151.6000061,188.5z
		 M151.6000061,184.3000031h1.1000061c0.6999969,0,0.8000031-0.5,0.8000031-0.8999939s-0.1000061-0.8999939-0.8000031-0.8999939
		h-1.1000061V184.3000031z"/>
	<path class="st1" d="M157.8000031,188.5l2.1000061-7.5h1.8000031l2.1000061,7.5h-1.6999969l-0.3999939-1.5h-1.8999939
		l-0.3999939,1.5H157.8000031z M160.1000061,185.6999969h1.3000031l-0.6000061-2.8000031L160.1000061,185.6999969z"/>
	<path class="st1" d="M166,187.1000061h3v1.5h-4.6000061V181H166V187.1000061z"/>
	<path class="st1" d="M171.1999969,187.1000061h3v1.5h-4.6000061V181h1.6000061V187.1000061z"/>
</g>
</svg>
