<?xml version="1.0" encoding="utf-8"?>
<!-- Generator: Adobe Illustrator 20.1.0, SVG Export Plug-In . SVG Version: 6.00 Build 0)  -->
<svg version="1.1" id="Layer_1" xmlns="http://www.w3.org/2000/svg" xmlns:xlink="http://www.w3.org/1999/xlink" x="0px" y="0px"
	 width="218px" height="218px" viewBox="0 0 218 218" style="enable-background:new 0 0 218 218;" xml:space="preserve">
<style type="text/css">
	.st0{fill:#4BA146;}
	.st1{fill:#FFFFFF;}
	.st2{enable-background:new    ;}
</style>
<g>
	<circle class="st0" cx="109.6031647" cy="108.9393158" r="108"/>
</g>
<g>
	<path class="st1" d="M41.3554688,40.5078125v-7.4506836c2.1000977-1,6.300293-1.6000977,9.6503906-1.6000977
		c8.6508789,0,11.7509766,3.800293,11.7509766,10.4008789c0,4.050293-1.75,6.550293-4.050293,8.0004883
		c2.6503906,0.8999023,5.1503906,3.5,5.1503906,8.4003906c0,7.300293-3.4003906,12.1005859-13.1010742,12.1005859
		c-3.3999023,0-6.9003906-0.5-9.5004883-1.6499023V61.309082c2.8500977,1.2001953,5.6005859,1.7001953,9.0004883,1.7001953
		c4.3505859,0,5.4506836-2.0004883,5.4506836-4.7504883c0-3.1499023-1.8500977-4.4501953-5.1503906-4.4501953h-5.6503906v-7.050293
		h5.8500977c2.300293,0,3.800293-1.2001953,3.800293-4.050293c0-2.6000977-1.25-3.9501953-4.800293-3.9501953
		C46.605957,38.7578125,44.1054688,39.4077148,41.3554688,40.5078125z"/>
</g>
<g>
	<path class="st1" d="M70.6943359,40.6176758c0-4.1777344,1.5043945-6.2265625,5.1542969-6.2265625
		c1.6323242,0,2.8168945,0.2402344,3.5371094,0.5600586v2.4970703c-0.9921875-0.4160156-2.0649414-0.65625-3.0571289-0.65625
		c-2.2890625,0-3.0410156,1.0244141-3.0410156,3.8256836c0,2.9931641,0.815918,3.8256836,3.0410156,3.8256836
		c0.2402344,0,0.5600586-0.0161133,0.7363281-0.0483398v-2.4326172h-1.6967773v-2.2890625h4.2578125v6.3544922
		c-0.7202148,0.4482422-2.1289062,0.8164062-3.8574219,0.8164062
		C72.1987305,46.8442383,70.6943359,44.7954102,70.6943359,40.6176758z"/>
	<path class="st1" d="M80.9501953,40.6176758c0-3.6655273,1.0083008-6.2265625,4.7861328-6.2265625
		c3.7773438,0,4.7856445,2.5610352,4.7856445,6.2265625s-1.0083008,6.2265625-4.7856445,6.2265625
		C81.9584961,46.8442383,80.9501953,44.2832031,80.9501953,40.6176758z M83.543457,40.6176758
		c0,2.8012695,0.6079102,3.9057617,2.1928711,3.9057617c1.5844727,0,2.1928711-1.1044922,2.1928711-3.9057617
		s-0.6083984-3.9057617-2.1928711-3.9057617C84.1513672,36.7119141,83.543457,37.8164062,83.543457,40.6176758z"/>
	<path class="st1" d="M91.8300781,40.6176758c0-3.6655273,1.0083008-6.2265625,4.7861328-6.2265625
		c3.7773438,0,4.7856445,2.5610352,4.7856445,6.2265625s-1.0083008,6.2265625-4.7856445,6.2265625
		C92.8383789,46.8442383,91.8300781,44.2832031,91.8300781,40.6176758z M94.4233398,40.6176758
		c0,2.8012695,0.6079102,3.9057617,2.1928711,3.9057617c1.5844727,0,2.1928711-1.1044922,2.1928711-3.9057617
		s-0.6083984-3.9057617-2.1928711-3.9057617C95.03125,36.7119141,94.4233398,37.8164062,94.4233398,40.6176758z"/>
	<path class="st1" d="M102.7900391,46.6201172V34.6152344h3.8896484c4.0654297,0,5.1220703,2.5932617,5.1220703,6.0024414
		s-1.0566406,6.0024414-5.1220703,6.0024414H102.7900391z M105.3505859,44.2832031h1.3769531
		c1.8730469,0,2.4169922-1.3447266,2.4169922-3.6655273c0-2.3046875-0.5439453-3.6655273-2.4169922-3.6655273h-1.3769531V44.2832031
		z"/>
	<path class="st1" d="M122.5205078,46.6201172v-5.0258789h-3.6503906v5.0258789h-2.5605469V34.6152344h2.5605469v4.6420898
		h3.6503906v-4.6420898h2.5605469v12.0048828H122.5205078z"/>
	<path class="st1" d="M133.7363281,41.5620117h-4.6259766v2.7211914h5.0908203v2.3369141h-7.6513672V34.6152344h7.6513672v2.3369141
		h-5.0908203v2.3208008h4.6259766V41.5620117z"/>
	<path class="st1" d="M135.09375,46.6201172l3.3291016-12.0688477h2.9453125l3.3291016,12.0688477h-2.7207031l-0.5605469-2.4648438
		H138.375l-0.5605469,2.4648438H135.09375z M138.8710938,42.1220703h2.0488281l-1.0244141-4.5454102L138.8710938,42.1220703z"/>
	<path class="st1" d="M148.3105469,44.2832031h4.8505859v2.3369141H145.75V34.6152344h2.5605469V44.2832031z"/>
	<path class="st1" d="M157.4316406,36.9521484v9.6679688h-2.5605469v-9.6679688h-2.8974609v-2.3369141h8.3554688v2.3369141
		H157.4316406z"/>
	<path class="st1" d="M167.5126953,46.6201172v-5.0258789h-3.6503906v5.0258789h-2.5605469V34.6152344h2.5605469v4.6420898
		h3.6503906v-4.6420898h2.5605469v12.0048828H167.5126953z"/>
	<path class="st1" d="M70.3583984,65.8203125L73.6875,53.7514648h2.9453125l3.3291016,12.0688477h-2.7207031l-0.5605469-2.4648438
		h-3.0410156l-0.5605469,2.4648438H70.3583984z M74.1357422,61.3222656h2.0488281l-1.0244141-4.5454102L74.1357422,61.3222656z"/>
	<path class="st1" d="M87.3530273,65.8203125l-3.8735352-7.1708984l0.0639648,7.1708984h-2.5288086V53.8154297h2.5288086
		l3.8735352,7.1708984l-0.0639648-7.1708984h2.5292969v12.0048828H87.3530273z"/>
	<path class="st1" d="M91.3505859,65.8203125V53.8154297h3.8896484c4.0654297,0,5.1220703,2.5932617,5.1220703,6.0024414
		s-1.0566406,6.0024414-5.1220703,6.0024414H91.3505859z M93.9116211,63.4833984h1.3764648
		c1.8730469,0,2.4169922-1.3447266,2.4169922-3.6655273c0-2.3046875-0.5439453-3.6655273-2.4169922-3.6655273h-1.3764648V63.4833984
		z"/>
	<path class="st1" d="M112.6181641,53.8154297l1.328125,8.371582l0.9765625-8.371582h2.7373047l-1.8564453,12.0688477h-3.3300781
		L110.9375,56.8725586l-1.5371094,9.0117188h-3.3291016l-1.8564453-12.0688477h2.7373047l0.9755859,8.371582l1.3291016-8.371582
		H112.6181641z"/>
	<path class="st1" d="M125.9765625,60.762207h-4.6259766v2.7211914h5.0908203v2.3369141h-7.6513672V53.8154297h7.6513672v2.3369141
		h-5.0908203v2.3208008h4.6259766V60.762207z"/>
	<path class="st1" d="M130.3105469,63.4833984h4.8505859v2.3369141H127.75V53.8154297h2.5605469V63.4833984z"/>
	<path class="st1" d="M138.6308594,63.4833984h4.8505859v2.3369141h-7.4111328V53.8154297h2.5605469V63.4833984z"/>
	<path class="st1" d="M148.2949219,61.8188477h-4.1611328v-2.2089844h4.1611328V61.8188477z"/>
	<path class="st1" d="M149.5097656,53.8154297h4.3056641c3.0410156,0,3.8740234,1.4404297,3.8740234,3.3935547
		c0,1.0244141-0.5126953,1.8564453-1.296875,2.2729492c0.8964844,0.3037109,1.6484375,1.184082,1.6484375,2.6728516
		c0,2.0810547-0.9443359,3.6655273-4.1611328,3.6655273h-4.3701172V53.8154297z M153.7197266,55.9921875h-1.6494141v2.5771484
		h1.6494141c1.0556641,0,1.2480469-0.7363281,1.2480469-1.2802734
		C154.9677734,56.7285156,154.7919922,55.9921875,153.7197266,55.9921875z M152.0703125,63.6435547h1.7773438
		c1.0722656,0,1.4726562-0.6245117,1.4726562-1.5048828c0-0.8959961-0.4160156-1.4882812-1.4726562-1.4882812h-1.7773438V63.6435547
		z"/>
	<path class="st1" d="M166.3125,60.762207h-4.6259766v2.7211914h5.0908203v2.3369141h-7.6513672V53.8154297h7.6513672v2.3369141
		h-5.0908203v2.3208008H166.3125V60.762207z"/>
	<path class="st1" d="M168.2617188,65.8203125V53.8154297h2.5615234v12.0048828H168.2617188z"/>
	<path class="st1" d="M178.8085938,65.8203125l-3.8740234-7.1708984l0.0644531,7.1708984h-2.5292969V53.8154297h2.5292969
		l3.8730469,7.1708984l-0.0634766-7.1708984h2.5283203v12.0048828H178.8085938z"/>
	<path class="st1" d="M182.7255859,59.8178711c0-4.1777344,1.5048828-6.2265625,5.1542969-6.2265625
		c1.6328125,0,2.8173828,0.2402344,3.5371094,0.5600586v2.4970703c-0.9921875-0.4160156-2.0644531-0.65625-3.0566406-0.65625
		c-2.2890625,0-3.0419922,1.0244141-3.0419922,3.8256836c0,2.9931641,0.8164062,3.8256836,3.0419922,3.8256836
		c0.2392578,0,0.5595703-0.0161133,0.7353516-0.0483398v-2.4326172h-1.6962891v-2.2890625h4.2578125v6.3544922
		c-0.7207031,0.4482422-2.1289062,0.8164062-3.8574219,0.8164062
		C184.2304688,66.0444336,182.7255859,63.9956055,182.7255859,59.8178711z"/>
</g>
<g>
	<path class="st1" d="M150.4031677,109.8000031c0-3.4000015-2.1999969-6.1999969-5.5-6.1999969
		c-1.6999969,0-3.6999969,1.8000031-4.8000031,2.9000015c-1.1000061-1.0999985-3-2.9000015-4.6000061-2.9000015
		c-3.3000031,0-5.6999969,2.8000031-5.6999969,6.1999969c0,1.6999969,0.6999969,3.3000031,1.8000031,4.4000015l0,0l8.5,8.5l8.5-8.5
		l0,0C149.7031555,113,150.4031677,111.5,150.4031677,109.8000031z"/>
	<g>
		<path class="st1" d="M114.1031647,136.6000061C114.0031586,136.6000061,114.0031586,136.6000061,114.1031647,136.6000061
			c-0.6999969,0-1.3000031-0.5-1.4000015-1.1999969l-4.3000031-25.1999969l-6.5999985,12.1999969
			c-0.3000031,0.5-0.9000015,0.8000031-1.5,0.6999969c-0.5999985-0.0999985-1.0999985-0.5999985-1.0999985-1.1999969
			l-2.8000031-19.5l-5.0999985,11.4000015c-0.1999969,0.5-0.6999969,0.8000031-1.3000031,0.8000031H70.2031631
			c-0.8000031,0-1.4000015-0.5999985-1.4000015-1.4000015s0.5999985-1.4000015,1.4000015-1.4000015h18.9000015l6.6999969-15
			c0.3000031-0.5999985,0.9000015-0.9000015,1.5-0.8000031s1.0999985,0.5999985,1.1999969,1.1999969l2.9000015,20.0999985l6.5-12
			c0.3000031-0.5,0.9000015-0.8000031,1.5-0.6999969c0.5999985,0.0999985,1.0999985,0.5999985,1.1999969,1.0999985l4,23.4000015
			l14.5999985-48.5c0.1999969-0.5999985,0.6999969-0.9000015,1.1999969-1c0.6000061,0,1.1000061,0.3000031,1.3999939,0.8000031
			l7.6999969,15.9000015c0.3000031,0.6999969,0,1.5-0.6999969,1.9000015c-0.6999969,0.3000031-1.5,0-1.8999939-0.6999969
			l-6.1000061-12.6999969l-15.3000031,50.8000031C115.2031631,136.1999969,114.7031631,136.6000061,114.1031647,136.6000061z"/>
	</g>
</g>
<g class="st2">
	<path class="st1" d="M28.2000008,162.1999969h-2.8999996v1.6999969H28.5v1.5h-4.7999992v-7.5H28.5v1.5h-3.2000008v1.3999939
		h2.9000015V162.1999969z"/>
	<path class="st1" d="M33.2999992,165.3000031l-2.4000015-4.5v4.5h-1.5999985v-7.5h1.5999985l2.4000015,4.5v-4.5h1.5999985v7.5
		H33.2999992z"/>
	<path class="st1" d="M40.9000015,162.8999939c0,1.8999939-1.2000008,2.5-2.9000015,2.5
		c-0.7999992,0-1.7999992-0.1000061-2.2999992-0.5v-1.6000061c0.2999992,0.1999969,1.2000008,0.6000061,2.2000008,0.6000061
		c1.0999985,0,1.5-0.3999939,1.5-0.8999939c0-0.6000061-0.2000008-0.8000031-1-0.8999939
		c-1.9000015-0.1999969-2.5999985-0.8000031-2.5999985-2.3000031c0-1.3999939,0.7999992-2.3000031,2.7999992-2.3000031
		c1,0,1.7999992,0.1999969,2.0999985,0.3999939v1.5C40.2999992,159.1999969,39.5,159,38.7000008,159
		s-1.2999992,0.3000031-1.2999992,0.6999969c0,0.5,0.2999992,0.6999969,1.0999985,0.8000031
		C40,161,40.9000015,161.3000031,40.9000015,162.8999939z"/>
	<path class="st1" d="M41.7000008,162.8999939v-5.1000061h1.5999985v5c0,1,0.5999985,1.1000061,1.2000008,1.1000061
		s1.2000008-0.1999969,1.2000008-1.1000061v-5h1.5999985v5.1000061c0,2.1000061-1.5999985,2.5-2.7999992,2.5
		S41.7000008,165,41.7000008,162.8999939z"/>
	<path class="st1" d="M49.7000008,165.3000031h-1.5999985v-7.5h2.5c2,0,2.7000008,0.8999939,2.7000008,2.3000031
		c0,0.8999939-0.2999992,1.6000061-1,2l1.2999992,3.1000061h-1.9000015l-1-2.8000031h-1V165.3000031L49.7000008,165.3000031z
		 M49.7000008,161.1000061h1.0999985c0.7000008,0,0.7999992-0.5,0.7999992-0.8999939S51.5,159.3000183,50.7999992,159.3000183
		h-1.0999985V161.1000061z"/>
	<path class="st1" d="M58.5999985,162.1999969h-2.9000015v1.6999969h3.2000008v1.5h-4.7999992v-7.5h4.7999992v1.5h-3.2000008
		v1.3999939h2.9000015V162.1999969z"/>
	<path class="st1" d="M65.5999985,165.3000031v-3.1000061h-2.3000031v3.1000061h-1.5999985v-7.5h1.5999985v2.8999939h2.3000031
		v-2.8999939h1.5999985v7.5H65.5999985z"/>
	<path class="st1" d="M72.5999985,162.1999969h-2.9000015v1.6999969h3.1999969v1.5h-4.8000031v-7.5h4.8000031v1.5h-3.1999969
		v1.3999939h2.9000015V162.1999969z"/>
	<path class="st1" d="M73.5,165.3000031l2.0999985-7.5h1.8000031l2.0999985,7.5h-1.6999969l-0.3000031-1.5h-1.9000015
		l-0.4000015,1.5H73.5z M75.9000015,162.5h1.3000031l-0.5999985-2.8000031L75.9000015,162.5z"/>
	<path class="st1" d="M81.8000031,163.8999939h3v1.5h-4.5999985v-7.5h1.5999985V163.8999939z"/>
	<path class="st1" d="M87.5,159.3000031v6h-1.5999985v-6h-1.8000031v-1.5h5.1999969v1.5H87.5z"/>
	<path class="st1" d="M93.8000031,165.3000031v-3.1000061H91.5v3.1000061h-1.5999985v-7.5H91.5v2.8999939h2.3000031v-2.8999939
		h1.5999985v7.5H93.8000031z"/>
	<path class="st1" d="M99.9000015,162.3999939v2.8999939h-1.5999985v-2.8999939l-2.4000015-4.6000061h1.8000031l1.4000015,3.1000061
		l1.4000015-3.1000061h1.8000031L99.9000015,162.3999939z"/>
	<path class="st1" d="M106.1999969,163.8999939h3v1.5h-4.5999985v-7.5h1.5999985V163.8999939z"/>
	<path class="st1" d="M109.9000015,165.3000031v-7.5H111.5v7.5H109.9000015z"/>
	<path class="st1" d="M118.3000031,157.8000031l-2.0999985,7.5h-1.8000031l-2.0999985-7.5H114L115.3000031,163.5
		l1.3000031-5.6999969H118.3000031z"/>
	<path class="st1" d="M123.5,162.1999969h-2.9000015v1.6999969h3.2000046v1.5H119v-7.5h4.8000031v1.5h-3.1999969v1.3999939H123.5
		V162.1999969z"/>
	<path class="st1" d="M129.8000031,162.8999939c0,1.8999939-1.1999969,2.5-2.8999939,2.5
		c-0.8000031,0-1.8000031-0.1000061-2.3000031-0.5v-1.6000061c0.3000031,0.1999969,1.1999969,0.6000061,2.1999969,0.6000061
		c1.1000061,0,1.5-0.3999939,1.5-0.8999939c0-0.6000061-0.1999969-0.8000031-1-0.8999939
		c-1.8999939-0.1999969-2.6000061-0.8000031-2.6000061-2.3000031C124.6999969,158.4000092,125.5,157.5,127.5,157.5
		c1,0,1.8000031,0.1999969,2.1000061,0.3999939v1.5c-0.3999939-0.1999969-1.1999969-0.3999939-2-0.3999939
		s-1.3000031,0.3000031-1.3000031,0.6999969c0,0.5,0.3000031,0.6999969,1.1000061,0.8000031
		C128.8000031,161,129.8000031,161.3000031,129.8000031,162.8999939z"/>
	<path class="st1" d="M132.3000031,165.3000031l2.1000061-7.5h1.8000031l2.1000061,7.5h-1.6999969l-0.3999939-1.5h-1.8999939
		l-0.3999939,1.5H132.3000031z M134.6000061,162.5h1.3000031l-0.6000061-2.8000031L134.6000061,162.5z"/>
	<path class="st1" d="M142.8999939,165.3000031l-2.3999939-4.5v4.5h-1.6000061v-7.5H140.5l2.3999939,4.5v-4.5H144.5v7.5H142.8999939
		z"/>
	<path class="st1" d="M145.3999939,165.3000031v-7.5h2.3999939c2.5,0,3.1999969,1.6000061,3.1999969,3.6999969
		s-0.6999969,3.6999969-3.1999969,3.6999969h-2.3999939V165.3000031z M147,163.8999939h0.8999939
		c1.1999969,0,1.5-0.8000031,1.5-2.3000031c0-1.3999939-0.3000031-2.3000031-1.5-2.3000031H147V163.8999939z"/>
	<path class="st1" d="M155.3999939,165.3000031h-1.6000061v-7.5h2.5c2,0,2.6999969,1.1999969,2.6999969,2.3999939
		c0,1.3000031-0.6999969,2.3999939-2.6999969,2.3999939h-0.8999939V165.3000031L155.3999939,165.3000031z M155.3999939,161.3000031
		h0.8999939c0.8000031,0,0.8999939-0.6000061,0.8999939-1s-0.1000061-1-0.8999939-1h-0.8999939V161.3000031z"/>
	<path class="st1" d="M161.1999969,165.3000031h-1.6000061v-7.5h2.5c2,0,2.6999969,0.8999939,2.6999969,2.3000031
		c0,0.8999939-0.3000031,1.6000061-1,2l1.3000031,3.1000061h-1.8999939l-1-2.8000031h-1V165.3000031L161.1999969,165.3000031z
		 M161.1999969,161.1000061h1.1000061c0.6999969,0,0.8000031-0.5,0.8000031-0.8999939S163,159.3000183,162.3000031,159.3000183
		h-1.1000061V161.1000061z"/>
	<path class="st1" d="M165.6000061,161.6000061c0-2.3000031,0.6000061-3.8999939,3-3.8999939s3,1.6000061,3,3.8999939
		S171,165.5,168.6000061,165.5C166.3000031,165.5,165.6000061,163.8999939,165.6000061,161.6000061z M167.3000031,161.6000061
		c0,1.6999969,0.3999939,2.3999939,1.3999939,2.3999939s1.3999939-0.6999969,1.3999939-2.3999939
		s-0.3999939-2.3999939-1.3999939-2.3999939C167.6000061,159.1000061,167.3000031,159.8000031,167.3000031,161.6000061z"/>
	<path class="st1" d="M176.8000031,164.3999939h-1.6000061L174,160.6999969l0.1000061,4.6000061H172.5v-7.5h2L176,162.5
		l1.5-4.6999969h2v7.5h-1.6000061L178,160.6999969L176.8000031,164.3999939z"/>
	<path class="st1" d="M180.3999939,161.6000061c0-2.3000031,0.6000061-3.8999939,3-3.8999939s3,1.6000061,3,3.8999939
		s-0.6000061,3.8999939-3,3.8999939S180.3999939,163.8999939,180.3999939,161.6000061z M182,161.6000061
		C182,163.3000031,182.3999939,164,183.3999939,164s1.3999939-0.6999969,1.3999939-2.3999939
		s-0.3999939-2.3999939-1.3999939-2.3999939C182.3999939,159.1000061,182,159.8000031,182,161.6000061z"/>
	<path class="st1" d="M189.8999939,159.3000031v6h-1.6000061v-6h-1.8000031v-1.5h5.1999969v1.5H189.8999939z"/>
	<path class="st1" d="M196.8000031,162.1999969h-2.8999939v1.6999969h3.1999969v1.5h-4.8000031v-7.5h4.8000031v1.5h-3.1999969
		v1.3999939h2.8999939V162.1999969z"/>
</g>
<g class="st2">
	<path class="st1" d="M40.9000015,169.8000031L41.7000008,175l0.5999985-5.1999969H44l-1.2000008,7.5h-2.0999985l-1-5.6000061
		l-1,5.6000061h-2.0999985l-1.2000008-7.5h1.7000008L38,175l0.7999992-5.1999969H40.9000015z"/>
	<path class="st1" d="M49.2999992,174.1999969h-2.9000015v1.6999969h3.2000008v1.5h-4.7999992v-7.5h4.7999992v1.5h-3.2000008
		v1.3999939h2.9000015V174.1999969z"/>
	<path class="st1" d="M52,175.8999939h3v1.5h-4.5999985v-7.5H52V175.8999939z"/>
	<path class="st1" d="M57.2000008,175.8999939h2.9999962v1.5h-4.5999985v-7.5h1.5999985
		C57.1999969,169.8999939,57.1999969,175.8999939,57.2000008,175.8999939z"/>
	<path class="st1" d="M63.1999969,174.8000031h-2.5999985v-1.3999939h2.5999985V174.8000031z"/>
	<path class="st1" d="M64,169.8000031h2.6999969c1.9000015,0,2.4000015,0.8999939,2.4000015,2.1000061
		c0,0.6000061-0.3000031,1.1999969-0.8000031,1.3999939c0.5999985,0.1999969,1,0.6999969,1,1.6999969
		c0,1.3000031-0.5999985,2.3000031-2.5999985,2.3000031H64V169.8000031L64,169.8000031z M66.5999985,171.1999969h-1v1.6000061h1
		c0.6999969,0,0.8000031-0.5,0.8000031-0.8000031C67.4000015,171.6000061,67.3000031,171.1999969,66.5999985,171.1999969z
		 M65.5999985,176h1.0999985c0.6999969,0,0.9000015-0.3999939,0.9000015-0.8999939
		c0-0.6000061-0.3000031-0.8999939-0.9000015-0.8999939h-1.0999985V176z"/>
	<path class="st1" d="M74.5,174.1999969h-2.9000015v1.6999969h3.1999969v1.5H70v-7.5h4.8000031v1.5h-3.1999969v1.3999939h2.9000015
		C74.5000076,172.7999878,74.5000076,174.1999969,74.5,174.1999969z"/>
	<path class="st1" d="M75.6999969,177.3000031v-7.5h1.5999985v7.5H75.6999969z"/>
	<path class="st1" d="M82.3000031,177.3000031l-2.4000015-4.5v4.5h-1.5999985v-7.5h1.5999985l2.4000015,4.5v-4.5h1.5999985v7.5
		H82.3000031z"/>
	<path class="st1" d="M84.8000031,173.6000061c0-2.6000061,0.9000015-3.8999939,3.1999969-3.8999939
		c1,0,1.8000031,0.1000061,2.1999969,0.3999939v1.6000061c-0.5999985-0.3000031-1.3000031-0.3999939-1.9000015-0.3999939
		c-1.4000015,0-1.9000015,0.6000061-1.9000015,2.3999939c0,1.8999939,0.5,2.3999939,1.9000015,2.3999939
		c0.0999985,0,0.3000031,0,0.5,0v-1.5h-1.0999985V173h2.6999969v4c-0.4000015,0.3000031-1.3000031,0.5-2.4000015,0.5
		C85.6999969,177.5,84.8000031,176.1999969,84.8000031,173.6000061z"/>
	<path class="st1" d="M97.6999969,174.3000031h-2.8000031v3.1000061h-1.5999985v-7.5h4.6999969v1.5h-3.0999985v1.6000061h2.8000031
		V174.3000031z"/>
	<path class="st1" d="M98.5,173.6000061c0-2.3000031,0.5999985-3.8999939,3-3.8999939s3,1.6000061,3,3.8999939
		S103.9000015,177.5,101.5,177.5C99.1999969,177.5,98.5,175.8999939,98.5,173.6000061z M100.1999969,173.6000061
		c0,1.6999969,0.4000015,2.3999939,1.4000015,2.3999939S103,175.3000031,103,173.6000061s-0.4000015-2.3999939-1.4000015-2.3999939
		C100.5,171.1000061,100.1999969,171.8000031,100.1999969,173.6000061z"/>
	<path class="st1" d="M107,177.3000031h-1.5999985v-7.5h2.5c2,0,2.6999969,0.8999939,2.6999969,2.3000031
		c0,0.8999939-0.3000031,1.6000061-1.0999985,2l1.3000031,3.1000061H109l-1-2.8000031h-1V177.3000031L107,177.3000031z
		 M107,173.1000061h1.0999985c0.6999969,0,0.8000031-0.5,0.8000031-0.8999939s-0.0999985-0.8999939-0.8000031-0.8999939H107
		V173.1000061z"/>
	<path class="st1" d="M113.1999969,177.3000031l2.0999985-7.5h1.8000031l2.0999985,7.5H117.5l-0.3000031-1.5h-1.9000015
		l-0.4000015,1.5H113.1999969z M115.5,174.5h1.3000031l-0.5999985-2.8000031L115.5,174.5z"/>
	<path class="st1" d="M121.4000015,175.8999939h2.9999924v1.5h-4.5999985v-7.5h1.5999985
		C121.3999939,169.8999939,121.3999939,175.8999939,121.4000015,175.8999939z"/>
	<path class="st1" d="M126.6000061,175.8999939h3v1.5H125v-7.5h1.6000061V175.8999939z"/>
	<path class="st1" d="M132,177.3000031l2.1000061-7.5h1.8000031l2.1000061,7.5h-1.6999969l-0.3999939-1.5H134l-0.3999939,1.5H132z
		 M134.3000031,174.5h1.3000031L135,171.6999969L134.3000031,174.5z"/>
	<path class="st1" d="M140.8000031,171.3000031v6h-1.6000061v-6h-1.8000031v-1.5h5.1999969v1.5H140.8000031z"/>
	<path class="st1" d="M144.6000061,177.3000031l2.1000061-7.5h1.8000031l2.1000061,7.5h-1.6999969l-0.3999939-1.5h-1.8999939
		l-0.3999939,1.5H144.6000061z M147,174.5h1.3000031l-0.6000061-2.8000031L147,174.5z"/>
	<path class="st1" d="M152.8999939,175.8999939h3v1.5h-4.6000061v-7.5h1.6000061V175.8999939z"/>
	<path class="st1" d="M158.1000061,175.8999939h3v1.5H156.5v-7.5h1.6000061V175.8999939z"/>
	<path class="st1" d="M163.3999939,177.3000031l2.1000061-7.5h1.8000031l2.1000061,7.5h-1.6999969l-0.3999939-1.5h-1.8999939
		l-0.3999939,1.5H163.3999939z M165.8000031,174.5h1.3000031L166.5,171.6999969L165.8000031,174.5z"/>
	<path class="st1" d="M169.8999939,173.6000061c0-2.6000061,0.8999939-3.8999939,3.1999969-3.8999939
		c1,0,1.8000031,0.1000061,2.1999969,0.3999939v1.6000061c-0.6000061-0.3000031-1.3000031-0.3999939-1.8999939-0.3999939
		C172,171.3000183,171.5,171.9000244,171.5,173.7000122c0,1.8999939,0.5,2.3999939,1.8999939,2.3999939
		c0.1000061,0,0.3999939,0,0.5,0v-1.5h-1.1000061V173h2.6999969v4c-0.3999939,0.3000031-1.3000031,0.5-2.3999939,0.5
		C170.8000031,177.5,169.8999939,176.1999969,169.8999939,173.6000061z"/>
	<path class="st1" d="M180.8000031,174.1999969h-2.8999939v1.6999969h3.1999969v1.5h-4.8000031v-7.5h4.8000031v1.5h-3.1999969
		v1.3999939h2.8999939V174.1999969z"/>
	<path class="st1" d="M187.1000061,174.8999939c0,1.8999939-1.1999969,2.5-2.8999939,2.5
		c-0.8000031,0-1.8000031-0.1000061-2.3000031-0.5v-1.6000061c0.3999939,0.1999969,1.1999969,0.6000061,2.1999969,0.6000061
		c1.1000061,0,1.5-0.3999939,1.5-0.8999939c0-0.6000061-0.1999969-0.8000031-1-0.8999939
		C182.7000122,173.9000092,182,173.3000031,182,171.8000031c0-1.3999939,0.8000031-2.3000031,2.8000031-2.3000031
		c1,0,1.8000031,0.1999969,2.1000061,0.3999939v1.5c-0.3999939-0.1999969-1.1999969-0.3999939-2-0.3999939
		s-1.3000031,0.3000031-1.3000031,0.6999969c0,0.5,0.3000031,0.6999969,1.1000061,0.8000031
		C186.1999969,173,187.1000061,173.3000031,187.1000061,174.8999939z"/>
</g>
</svg>
