<?xml version="1.0" encoding="utf-8"?>
<!-- Generator: Adobe Illustrator 20.1.0, SVG Export Plug-In . SVG Version: 6.00 Build 0)  -->
<svg version="1.1" id="Layer_1" xmlns="http://www.w3.org/2000/svg" xmlns:xlink="http://www.w3.org/1999/xlink" x="0px" y="0px"
	 width="218px" height="218px" viewBox="0 0 218 218" style="enable-background:new 0 0 218 218;" xml:space="preserve">
<style type="text/css">
	.st0{fill:#E4243E;}
	.st1{fill:#FFFFFF;}
	.st2{fill:none;stroke:#FFFFFF;stroke-width:1.3067;stroke-linecap:round;stroke-miterlimit:10;}
	.st3{enable-background:new    ;}
</style>
<g>
	<circle class="st0" cx="109.4063339" cy="108.9393158" r="108"/>
</g>
<g>
	<path class="st1" d="M80.3564453,24.4570312v31.9521484H72.355957V32.4077148l-5.550293,0.2001953v-5.550293l9.550293-2.6005859
		H80.3564453z"/>
</g>
<g>
	<path class="st1" d="M100.409668,37.6201172l-3.8735352-7.1708984l0.0639648,7.1708984h-2.5288086V25.6152344h2.5288086
		l3.8735352,7.1708984l-0.0639648-7.1708984h2.5292969v12.0048828H100.409668z"/>
	<path class="st1" d="M104.3271484,31.6176758c0-3.6655273,1.0083008-6.2265625,4.7861328-6.2265625
		c3.7773438,0,4.7851562,2.5610352,4.7851562,6.2265625s-1.0078125,6.2265625-4.7851562,6.2265625
		C105.3354492,37.8442383,104.3271484,35.2832031,104.3271484,31.6176758z M106.9204102,31.6176758
		c0,2.8012695,0.6079102,3.9057617,2.1928711,3.9057617c1.5839844,0,2.1933594-1.1044922,2.1933594-3.9057617
		s-0.609375-3.9057617-2.1933594-3.9057617C107.5283203,27.7119141,106.9204102,28.8164062,106.9204102,31.6176758z"/>
	<path class="st1" d="M96.6323242,56.8203125h-2.5610352V44.8154297h4.0654297c3.2016602,0,4.3061523,1.8725586,4.3061523,3.9213867
		c0,2.0810547-1.1044922,3.921875-4.3061523,3.921875h-1.5043945V56.8203125z M96.6323242,50.3535156h1.5205078
		c1.2807617,0,1.5205078-0.9760742,1.5205078-1.6005859c0-0.6240234-0.2397461-1.6005859-1.5205078-1.6005859h-1.5205078V50.3535156
		z"/>
	<path class="st1" d="M103.2709961,50.8178711c0-3.6655273,1.0083008-6.2265625,4.7861328-6.2265625
		c3.7768555,0,4.7856445,2.5610352,4.7856445,6.2265625s-1.0087891,6.2265625-4.7856445,6.2265625
		C104.2792969,57.0444336,103.2709961,54.4833984,103.2709961,50.8178711z M105.8642578,50.8178711
		c0,2.8012695,0.6079102,3.9057617,2.1928711,3.9057617c1.5844727,0,2.1928711-1.1044922,2.1928711-3.9057617
		s-0.6083984-3.9057617-2.1928711-3.9057617C106.472168,46.9121094,105.8642578,48.0166016,105.8642578,50.8178711z"/>
	<path class="st1" d="M123.0986328,44.8154297l-3.3291016,12.0688477h-2.9453125l-3.3291016-12.0688477h2.7207031
		l2.0810547,9.1396484l2.0810547-9.1396484H123.0986328z"/>
	<path class="st1" d="M131.3378906,51.762207h-4.625v2.7211914h5.0898438v2.3369141h-7.6513672V44.8154297h7.6513672v2.3369141
		h-5.0898438v2.3208008h4.625V51.762207z"/>
	<path class="st1" d="M135.671875,56.8203125h-2.5605469V44.8154297h4.0820312c3.2324219,0,4.2890625,1.4726562,4.2890625,3.7617188
		c0,1.4882812-0.4160156,2.625-1.6806641,3.2329102l2.1289062,5.0102539H138.9375l-1.6162109-4.4980469h-1.6494141V56.8203125z
		 M135.671875,50.0014648h1.7451172c1.1367188,0,1.2802734-0.7680664,1.2802734-1.4243164
		c0-0.6723633-0.1435547-1.4248047-1.2802734-1.4248047h-1.7451172V50.0014648z"/>
	<path class="st1" d="M147.1132812,47.1523438v9.6679688h-2.5605469v-9.6679688h-2.8974609v-2.3369141h8.3554688v2.3369141
		H147.1132812z"/>
	<path class="st1" d="M156.7929688,52.1625977v4.6577148h-2.59375v-4.6577148l-3.8085938-7.347168h2.9287109l2.1767578,5.0102539
		l2.1767578-5.0102539h2.9296875L156.7929688,52.1625977z"/>
</g>
<g>
	<path class="st1" d="M158.0149994,81.4530029c0-2.4629974,1.996994-4.4570007,4.4579926-4.4570007
		c2.4570007,0,4.447998,1.9940033,4.447998,4.4570007c0,2.4599991-1.9909973,4.4560013-4.447998,4.4560013
		C160.0119934,85.9089966,158.0149994,83.9140015,158.0149994,81.4530029"/>
	<path class="st1" d="M167.6730042,87.6269989c3.022995,0.2730026,5.3919983,2.8160019,5.3919983,5.9169998v1.4800034v0.6470032
		v10.2220001c0,0.9499969-0.772995,1.7259979-1.7250061,1.7259979c-0.9579926,0-1.7290039-0.776001-1.7290039-1.7259979V95.2870026
		c0-0.3980026-0.1150055-0.935997-0.8430023-0.935997c-0.503006,0-0.6069946,0.5329971-0.6260071,0.8720016v31.7899933
		c0,1.3659973-1.1060028,2.4810028-2.4790039,2.4810028c-1.3739929,0-2.4860077-1.1150055-2.4860077-2.4810028v-18.3199997
		c-0.0070038-0.2020035-0.0740051-0.7269974-0.7039948-0.7269974h-0.003006c-0.6329956,0-0.7100067,0.5250015-0.7169952,0.7269974
		v18.3199997c0,1.3659973-1.1049957,2.4810028-2.4779968,2.4810028c-1.3760071,0-2.4819946-1.1150055-2.4819946-2.4810028
		V95.2229996c-0.0169983-0.3389969-0.125-0.8720016-0.6239929-0.8720016c-0.7310028,0-0.8419952,0.538002-0.8419952,0.935997
		v10.6060028c0,0.9499969-0.7740021,1.7259979-1.7290039,1.7259979s-1.7250061-0.776001-1.7250061-1.7259979V95.6709976v-0.6470032
		v-1.4800034c0-3.1009979,2.3710022-5.6429977,5.397995-5.9169998c0.098999-0.0130005,0.2070007-0.0270004,0.326004-0.0270004h4.875
		h4.8609924C167.4620056,87.598999,167.5670013,87.6139984,167.6730042,87.6269989"/>
</g>
<g>
	<path class="st1" d="M131.5230103,83.7929993c0-2.3300018-1.8840027-4.2229996-4.2150116-4.2229996
		c-2.3320007,0-4.2210007,1.8929977-4.2210007,4.2229996c0,2.3310013,1.8889999,4.2190018,4.2210007,4.2190018
		C129.6390076,88.012001,131.5230103,86.1240005,131.5230103,83.7929993"/>
	<path class="st1" d="M118.8069992,93.348999l-3.5069962,11.4160004c0,0-0.625,2.0930023,1.1500015,2.6149979
		c1.7669983,0.5230026,2.3030014-1.5199966,2.3030014-1.5199966l2.8280029-9.5279999c0,0,0.1529999-0.7330017,0.7040024-0.5739975
		c0.552002,0.1579971,0.3450012,0.9420013,0.3450012,0.9420013l-4.9219971,17.8550034h4.5770035v12.7890015
		c0,1.2100067,0.9850006,2.1950073,2.1999969,2.1950073c1.2129974,0,2.1940002-0.9850006,2.1940002-2.1950073v-12.7890015h0.6279984
		h0.6210022v12.7890015c0,1.2100067,0.9789963,2.1950073,2.1960068,2.1950073c1.2179871,0,2.2009888-0.9850006,2.2009888-2.1950073
		v-12.7890015h4.5749969l-4.9179993-17.8549957c0,0-0.2070007-0.7839966,0.3430023-0.9420013
		c0.552002-0.1589966,0.7050018,0.5739975,0.7050018,0.5739975l2.8269958,9.5279999c0,0,0.5379944,2.0429993,2.302002,1.5199966
		c1.779007-0.5220032,1.151001-2.6149979,1.151001-2.6149979l-3.5070038-11.4160004c0,0-1.253006-3.3000031-4.0279999-3.3000031
		h-4.4690018h-4.4710007C120.0630035,90.0490036,118.8069992,93.348999,118.8069992,93.348999"/>
</g>
<g>
	<path class="st1" d="M106.2559967,83.7929993c0-2.3300018-1.887001-4.2229996-4.2170029-4.2229996
		c-2.3320007,0-4.2190018,1.8929977-4.2190018,4.2229996c0,2.3310013,1.887001,4.2190018,4.2190018,4.2190018
		C104.3700027,88.012001,106.2559967,86.1240005,106.2559967,83.7929993"/>
	<path class="st1" d="M93.538002,93.348999l-3.5049973,11.4160004c0,0-0.6269989,2.0930023,1.1490021,2.6149979
		c1.7659988,0.5230026,2.302002-1.5199966,2.302002-1.5199966l2.8280029-9.5279999c0,0,0.1529999-0.7330017,0.7040024-0.5739975
		c0.5530014,0.1579971,0.3440018,0.9420013,0.3440018,0.9420013l-4.9199982,17.8550034h4.576004v12.7890015
		c0,1.2100067,0.987999,2.1950073,2.1999969,2.1950073c1.2149963,0,2.1959991-0.9850006,2.1959991-2.1950073v-12.7890015h0.6299973
		h0.6190033v12.7890015c0,1.2100067,0.9769974,2.1950073,2.1969986,2.1950073c1.2180023,0,2.197998-0.9850006,2.197998-2.1950073
		v-12.7890015h4.5770035l-4.9169998-17.8549957c0,0-0.2089996-0.7839966,0.3399963-0.9420013
		c0.5510025-0.1589966,0.7060013,0.5739975,0.7060013,0.5739975l2.8249969,9.5279999c0,0,0.538002,2.0429993,2.3030014,1.5199966
		c1.7779999-0.5220032,1.1500015-2.6149979,1.1500015-2.6149979L110.53302,93.3490067c0,0-1.25-3.3000031-4.026001-3.3000031
		h-4.4660034h-4.473999C94.7959976,90.0490036,93.538002,93.348999,93.538002,93.348999"/>
</g>
<g>
	<path class="st1" d="M145.6909943,107.4039993c1.9420013,0,3.5099945-1.5719986,3.5099945-3.5149994
		c0-1.9410019-1.5670013-3.5080032-3.5099945-3.5080032s-3.5119934,1.5670013-3.5119934,3.5080032
		C142.1790009,105.8320007,143.7480011,107.4039993,145.6909943,107.4039993"/>
	<path class="st1" d="M137.2720032,118.3130035c-0.1719971,0.4110031-0.3119965,1.2809982,0.5119934,1.6610031
		c0.9669952,0.4440002,1.5050049-0.4899979,1.5050049-0.4899979l1.9089966-6.086998c0,0,0.3309937-0.4079971,0.3309937,0.0139999
		v14.3309937h0.0090027c0,0.996994,0.8029938,1.802002,1.802002,1.802002c0.9960022,0,1.8009949-0.8040009,1.8009949-1.802002
		v-5.6549988c0,0-0.1040039-0.7990036,0.5399933-0.7990036c0.6450043,0,0.5449982,0.7990036,0.5449982,0.7990036v5.6549988
		c0,0.996994,0.8090057,1.802002,1.8049927,1.802002c0.9940033,0,1.8059998-0.8040009,1.8059998-1.802002v-14.3310013
		c0-0.4209976,0.2230072-0.1210022,0.2230072-0.1210022l1.4960022,4.1689987c0,0,0.6490021,1.862999,0.8500061,1.9449997
		c0.6750031,0.2839966,1.4550018-0.0390015,1.7400055-0.7200012c0.1860046-0.4440002,0.1150055-0.9209976-0.1430054-1.2809982
		l0.0130005-0.0130005c-0.0429993-0.1350021-2.2359924-5.5130005-2.4940033-6.2679977
		c-0.7920074-2.3119965-2.2330017-2.2919998-3.6210022-2.3300018c-1.3890076-0.0329971-2.2189941,0-2.2189941,0
		s-0.8869934-0.0360031-2.7200012,0.0179977c-1.8289948,0.0579987-2.4069977,0.9950027-4.4259949,6.189003
		c-0.2879944,0.7480011-1.2630005,3.1679993-1.2749939,3.3130035L137.2720032,118.3130035z"/>
</g>
<g>
	<g>
		<path class="st1" d="M68.5800018,81.4530029c0-2.4629974-1.9990005-4.4570007-4.4589996-4.4570007
			c-2.4580002,0-4.4490013,1.9940033-4.4490013,4.4570007c0,2.4599991,1.9910011,4.4560013,4.4490013,4.4560013
			C66.5810013,85.9089966,68.5800018,83.9140015,68.5800018,81.4530029"/>
		<path class="st1" d="M58.9199982,87.6269989c-3.0209999,0.2730026-5.394001,2.8160019-5.394001,5.9169998v1.4800034v0.6470032
			v10.2220001c0,0.9499969,0.7739983,1.7259979,1.7280006,1.7259979c0.9550018,0,1.7280006-0.776001,1.7280006-1.7259979V95.2870026
			c0-0.3980026,0.1150017-0.935997,0.8429985-0.935997c0.5019989,0,0.605999,0.5329971,0.6279984,0.8720016v31.7899933
			c0,1.3659973,1.1040001,2.4810028,2.4790001,2.4810028c1.3720016,0,2.480999-1.1150055,2.480999-2.4810028v-18.3199997
			c0.0110016-0.2020035,0.0769997-0.7269974,0.7080002-0.7269974h0.0019989c0.6330032,0,0.7099991,0.5250015,0.7159958,0.7269974
			v18.3199997c0,1.3659973,1.1070023,2.4810028,2.4790039,2.4810028c1.375,0,2.4820023-1.1150055,2.4820023-2.4810028V95.2229996
			c0.0149994-0.3389969,0.1279984-0.8720016,0.6259995-0.8720016c0.7320023,0,0.8410034,0.538002,0.8410034,0.935997v10.6060028
			c0,0.9499969,0.7740021,1.7259979,1.7279968,1.7259979s1.7259979-0.776001,1.7259979-1.7259979V95.6709976v-0.6470032v-1.4800034
			c0-3.1009979-2.3700027-5.6429977-5.3970032-5.9169998c-0.1009979-0.0130005-0.2070007-0.0270004-0.3269958-0.0270004h-4.875
			h-4.8610039C59.132,87.598999,59.026001,87.6139984,58.9199982,87.6269989"/>
	</g>
	<line class="st2" x1="55.0359993" y1="107.6880035" x2="51.0800018" y2="128.6569977"/>
</g>
<g>
	<path class="st1" d="M76.8359985,105.564003c-0.2300034-0.3600006-0.6269989-0.5999985-1.0839996-0.5999985
		c-0.7050018,0-1.2789993,0.5739975-1.2789993,1.276001c0,0.2040024,0.125,0.560997,0.125,0.560997l3.5400009,6.4059982
		c0,0,0.2170029,0.4410019,0.2170029,0.8450012v13.7559967h0.0070038c0,0.9600067,0.7740021,1.7299957,1.7310028,1.7299957
		c0.9550018,0,1.7259979-0.7709961,1.7259979-1.7299957v-5.4290009c0,0-0.0979996-0.7679977,0.5220032-0.7679977
		c0.6179962,0,0.5220032,0.7679977,0.5220032,0.7679977v5.4290009c0,0.9600067,0.776001,1.7299957,1.7320023,1.7299957
		c0.9550018,0,1.7330017-0.7709961,1.7330017-1.7299957V114.052002c0-0.4029999,0.2139969-0.8450012,0.2139969-0.8450012
		l3.2720032-5.9140015c0,0,0.4000015-0.8499985,0.4000015-1.0540009c0-0.7020035-0.5719986-1.276001-1.2799988-1.276001
		c-0.4629974,0-0.8580017,0.2399979-1.0830002,0.5999985l-0.0149994-0.0070038
		c-0.1029968,0.0879974-1.7409973,3.0069962-2.2819977,3.5469971c-0.5719986,0.5770035-1.0839996,0.5130005-1.0839996,0.5130005
		h-2.1299973h-2.125c0,0-0.5159988,0.064003-1.0849991-0.5130005c-0.5479965-0.5400009-2.1800003-3.4589996-2.2839966-3.5469971
		L76.8359985,105.564003z"/>
	<path class="st1" d="M82.3410034,107.4039993c1.9420013,0,3.5100021-1.5719986,3.5100021-3.5149994
		c0-1.9410019-1.5670013-3.5080032-3.5100021-3.5080032c-1.9410019,0-3.5100021,1.5670013-3.5100021,3.5080032
		C78.8310013,105.8320007,80.4000015,107.4039993,82.3410034,107.4039993"/>
	<polygon class="st1" points="82.3470001,112.3330002 86.3160019,115.2269974 88.2020035,122.1719971 82.3470001,122.1719971 
		76.487999,122.1719971 78.3779984,115.2269974 	"/>
</g>
<g class="st3">
	<path class="st1" d="M62.5359993,159.4989929h-2.8880005v1.6990051h3.1780014v1.4589996h-4.7770004v-7.4960022h4.7770004v1.4589996
		h-3.1780014v1.4490051h2.8880005V159.4989929z"/>
	<path class="st1" d="M67.6060028,162.6569977l-2.4179993-4.4779968l0.0399933,4.4779968h-1.5789948v-7.4960022h1.5789948
		l2.4179993,4.4779968l-0.0399933-4.4779968h1.5789948v7.4960022H67.6060028z"/>
	<path class="st1" d="M70.1090012,162.6569977v-7.4960022h2.4280014c2.5390015,0,3.197998,1.6190033,3.197998,3.7480011
		s-0.6589966,3.7480011-3.197998,3.7480011H70.1090012z M71.7080002,161.197998h0.8590012
		c1.1689987,0,1.5090027-0.8399963,1.5090027-2.2890015c0-1.4389954-0.3399963-2.2890015-1.5090027-2.2890015h-0.8590012V161.197998
		z"/>
	<path class="st1" d="M80.1569977,162.6569977h-1.598999v-7.4960022h2.5390015c1.9990005,0,2.6880035,1.1699982,2.6880035,2.4490051
		c0,1.298996-0.6900024,2.447998-2.6880035,2.447998h-0.939003v2.598999H80.1569977z M80.1569977,158.6190033h0.9489975
		c0.8000031,0,0.9499969-0.6089935,0.9499969-0.9989929s-0.1500015-1-0.9499969-1h-0.9489975V158.6190033z"/>
	<path class="st1" d="M84.3079987,158.9089966c0-2.2890015,0.6299973-3.8880005,2.987999-3.8880005
		c2.3590012,0,2.9889984,1.598999,2.9889984,3.8880005s-0.6299973,3.8880005-2.9889984,3.8880005
		C84.9380035,162.7969971,84.3079987,161.197998,84.3079987,158.9089966z M85.927002,158.9089966
		c0,1.7489929,0.3799973,2.4380035,1.3690033,2.4380035c0.9899979,0,1.3700027-0.6889954,1.3700027-2.4380035
		s-0.3799973-2.4380035-1.3700027-2.4380035C86.3069992,156.470993,85.927002,157.1600037,85.927002,158.9089966z"/>
	<path class="st1" d="M96.6949997,155.1609955l-2.0790024,7.5359955h-1.8389969l-2.0790024-7.5359955h1.6989975l1.2990036,5.7070007
		l1.2990036-5.7070007H96.6949997z"/>
	<path class="st1" d="M101.8450012,159.4989929h-2.8880005v1.6990051h3.1780014v1.4589996h-4.7770004v-7.4960022h4.7770004
		v1.4589996h-3.1780014v1.4490051h2.8880005V159.4989929z"/>
	<path class="st1" d="M104.5569992,162.6569977h-1.598999v-7.4960022h2.5479965c2.0189972,0,2.6790009,0.9199982,2.6790009,2.348999
		c0,0.9299927-0.2600021,1.6399994-1.0500031,2.0200043l1.3300018,3.128006h-1.8690033l-1.0090027-2.8090057h-1.0289993v2.8079987
		H104.5569992z M104.5569992,158.3990021h1.0889969c0.7089996,0,0.7990036-0.4790039,0.7990036-0.8899994
		c0-0.4199982-0.0899963-0.8899994-0.7990036-0.8899994h-1.0889969V158.3990021z"/>
	<path class="st1" d="M111.7060013,156.6199951v6.0370026h-1.598999v-6.0370026h-1.8089981v-1.4589996h5.2170029v1.4589996
		H111.7060013z"/>
	<path class="st1" d="M117.7559967,159.7489929v2.9080048h-1.6190033v-2.9080048l-2.3789978-4.5879974h1.8290024
		l1.3590012,3.1289978l1.3590012-3.1289978h1.8290024L117.7559967,159.7489929z"/>
	<path class="st1" d="M122.5979996,162.6569977v-7.4960022h1.598999v7.4960022H122.5979996z"/>
	<path class="st1" d="M129.1849976,162.6569977l-2.4179993-4.4779968l0.0400009,4.4779968h-1.5790024v-7.4960022h1.5790024
		l2.4180069,4.4779968l-0.0400085-4.4779968h1.57901v7.4960022H129.1849976z"/>
	<path class="st1" d="M133.427002,162.6569977l2.0789948-7.5359955h1.8390045l2.0789948,7.5359955h-1.6990051l-0.3500061-1.5390015
		h-1.8990021l-0.3500061,1.5390015H133.427002z M135.7859955,159.848999h1.279007l-0.6399994-2.8379974L135.7859955,159.848999z"/>
	<path class="st1" d="M141.6869965,161.197998h3.0279999v1.4589996h-4.6269989v-7.4960022h1.598999V161.197998z"/>
	<path class="st1" d="M146.8869934,161.197998h3.0279999v1.4589996h-4.6269989v-7.4960022h1.598999V161.197998z"/>
	<path class="st1" d="M152.5970001,162.6569977v-7.4960022h1.598999v7.4960022H152.5970001z"/>
	<path class="st1" d="M158.3249969,156.6199951v6.0370026h-1.598999v-6.0370026h-1.8090057v-1.4589996h5.2169952v1.4589996
		H158.3249969z"/>
	<path class="st1" d="M165.923996,160.2689972c0,1.8589935-1.1690063,2.5279999-2.9380035,2.5279999
		c-0.8099976,0-1.798996-0.1399994-2.3390045-0.4600067v-1.6390076c0.3500061,0.1999969,1.1889954,0.5800018,2.1790009,0.5800018
		c1.1289978,0,1.4589996-0.3509979,1.4589996-0.8589935c0-0.5700073-0.25-0.7599945-1.0090027-0.8600006
		c-1.8990021-0.25-2.628006-0.8099976-2.628006-2.2779999c0-1.3589935,0.8300018-2.2590027,2.8090057-2.2590027
		c1.0189972,0,1.7689972,0.1799927,2.1190033,0.3699951v1.548996c-0.4100037-0.1999969-1.2389984-0.3990021-1.9989929-0.3990021
		c-0.8300018,0-1.2890015,0.2599945-1.2890015,0.7389984c0,0.5399933,0.2899933,0.7100067,1.0690002,0.8190002
		C165.0149994,158.3300018,165.923996,158.6690063,165.923996,160.2689972z"/>
</g>
<g class="st3">
	<path class="st1" d="M69.7809982,171.598999h-2.8279953v3.0590057h-1.598999v-7.4960022h4.7269974v1.4589996h-3.1279984v1.5500031
		h2.8280029C69.7810059,170.1710052,69.7810059,171.598999,69.7809982,171.598999z"/>
	<path class="st1" d="M70.663002,170.9089966c0-2.2890015,0.6299973-3.8880005,2.987999-3.8880005
		c2.3590012,0,2.9889984,1.598999,2.9889984,3.8880005s-0.6299973,3.8880005-2.9889984,3.8880005
		C71.2929993,174.7969971,70.663002,173.197998,70.663002,170.9089966z M72.2819977,170.9089966
		c0,1.7489929,0.3799973,2.4380035,1.3690033,2.4380035c0.9899979,0,1.3700027-0.6889954,1.3700027-2.4380035
		s-0.3799973-2.4380035-1.3700027-2.4380035C72.6620026,168.470993,72.2819977,169.1600037,72.2819977,170.9089966z"/>
	<path class="st1" d="M79.1119995,174.6569977h-1.598999v-7.4960022h2.5479965c2.0189972,0,2.6790009,0.9199982,2.6790009,2.348999
		c0,0.9299927-0.2600021,1.6399994-1.0500031,2.0200043l1.3300018,3.128006h-1.8690033l-1.0090027-2.8090057h-1.0289993v2.8079987
		H79.1119995z M79.1119995,170.3990021h1.0889969c0.7089996,0,0.7990036-0.4790039,0.7990036-0.8899994
		c0-0.4199982-0.0899963-0.8899994-0.7990036-0.8899994h-1.0889969V170.3990021z"/>
	<path class="st1" d="M87.8710022,173.7480011h-1.6190033l-1.1600037-3.6790009l0.0500031,4.5879974h-1.5790024v-7.4960022
		h2.0090027l1.4889984,4.6679993l1.4889984-4.6679993h2.0090027v7.4960022h-1.5790024l0.0500031-4.5879974L87.8710022,173.7480011z"
		/>
	<path class="st1" d="M96.6600037,172.2689972c0,1.8589935-1.1689987,2.5279999-2.9380035,2.5279999
		c-0.8099976,0-1.7990036-0.1399994-2.3389969-0.4600067v-1.6390076c0.3499985,0.1999969,1.189003,0.5800018,2.1790009,0.5800018
		c1.1289978,0,1.4589996-0.3509979,1.4589996-0.8589935c0-0.5700073-0.25-0.7599945-1.0100021-0.8600006
		c-1.8990021-0.25-2.6279984-0.8099976-2.6279984-2.2779999c0-1.3589935,0.8300018-2.2590027,2.8089981-2.2590027
		c1.0189972,0,1.7689972,0.1799927,2.1190033,0.3699951v1.548996c-0.4100037-0.1999969-1.2389984-0.3990021-1.9990005-0.3990021
		c-0.8300018,0-1.2890015,0.2599945-1.2890015,0.7389984c0,0.5399933,0.2900009,0.7100067,1.0690002,0.8190002
		C95.7509995,170.3300018,96.6600037,170.6690063,96.6600037,172.2689972z"/>
	<path class="st1" d="M103.9209976,171.4989929h-2.8880005v1.6990051h3.1780014v1.4589996h-4.7770004v-7.4960022h4.7770004
		v1.4589996h-3.1780014v1.4490051h2.8880005V171.4989929z"/>
	<path class="st1" d="M110.7699966,167.1609955l-2.0790024,7.5359955h-1.8389969l-2.0790024-7.5359955h1.6989975
		l1.2990036,5.7070007l1.2990036-5.7070007H110.7699966z"/>
	<path class="st1" d="M115.9209976,171.4989929h-2.8880005v1.6990051h3.1780014v1.4589996h-4.7770004v-7.4960022h4.7770004
		v1.4589996h-3.1780014v1.4490051h2.8880005V171.4989929z"/>
	<path class="st1" d="M118.6320038,174.6569977h-1.598999v-7.4960022h2.5479965c2.0189972,0,2.6790009,0.9199982,2.6790009,2.348999
		c0,0.9299927-0.2600021,1.6399994-1.0490036,2.0200043l1.3290024,3.128006h-1.8690033l-1.0090027-2.8090057h-1.0289993v2.8079987
		H118.6320038z M118.6320038,170.3990021h1.0889969c0.7089996,0,0.7990036-0.4790039,0.7990036-0.8899994
		c0-0.4199982-0.0899963-0.8899994-0.7990036-0.8899994h-1.0889969V170.3990021z"/>
	<path class="st1" d="M126.310997,171.7489929v2.9080048h-1.6190033v-2.9080048l-2.3789978-4.5879974h1.8290024l1.3590012,3.1289978
		l1.3590012-3.1289978h1.8289948L126.310997,171.7489929z"/>
	<path class="st1" d="M134.2799988,167.1609955l0.8300018,5.2279968l0.6089935-5.2279968h1.7089996l-1.1589966,7.5359955h-2.0789948
		l-0.9589996-5.6269989l-0.9589996,5.6269989h-2.07901l-1.1589966-7.5359955h1.7090149l0.6089935,5.2279968l0.8300018-5.2279968
		H134.2799988z"/>
	<path class="st1" d="M142.0209961,174.6569977v-3.1389923h-2.2779999v3.1390076h-1.598999v-7.4960022h1.598999v2.897995h2.2779999
		v-2.897995h1.598999v7.4960022h-1.598999V174.6569977z"/>
	<path class="st1" d="M149.0299988,171.4989929h-2.8880005v1.6990051h3.1779938v1.4589996h-4.7769928v-7.4960022h4.7769928
		v1.4589996h-3.1779938v1.4490051h2.8880005V171.4989929z"/>
	<path class="st1" d="M151.7420044,174.6569977h-1.598999v-7.4960022h2.5480042c2.0189972,0,2.6790009,0.9199982,2.6790009,2.348999
		c0,0.9299927-0.2599945,1.6399994-1.0500031,2.0200043l1.3300018,3.128006h-1.8690033l-1.0090027-2.8090057h-1.029007v2.8079987
		H151.7420044z M151.7420044,170.3990021h1.0890045c0.7089996,0,0.798996-0.4790039,0.798996-0.8899994
		c0-0.4199982-0.0899963-0.8899994-0.798996-0.8899994h-1.0890045V170.3990021z"/>
	<path class="st1" d="M160.6799927,171.4989929h-2.8880005v1.6990051h3.1779938v1.4589996h-4.7769928v-7.4960022h4.7769928
		v1.4589996h-3.1779938v1.4490051h2.8880005V171.4989929z"/>
</g>
</svg>
