<?xml version="1.0" encoding="utf-8"?>
<!-- Generator: Adobe Illustrator 20.1.0, SVG Export Plug-In . SVG Version: 6.00 Build 0)  -->
<svg version="1.1" id="Layer_1" xmlns="http://www.w3.org/2000/svg" xmlns:xlink="http://www.w3.org/1999/xlink" x="0px" y="0px"
	 width="218px" height="218px" viewBox="0 0 218 218" style="enable-background:new 0 0 218 218;" xml:space="preserve">
<style type="text/css">
	.st0{fill:#FAC313;}
	.st1{fill:#FFFFFF;}
	.st2{enable-background:new    ;}
</style>
<g>
	<circle class="st0" cx="109.3821716" cy="108.9393158" r="108"/>
</g>
<g>
	<path class="st1" d="M44.2553711,70.659668l13.8012695-30.3017578l-16.3012695,0.1499023v-7.3505859h23.8515625v4.9003906
		L53.3061523,70.659668H44.2553711z"/>
</g>
<g>
	<path class="st1" d="M70.3583984,45.6201172L73.6875,33.5512695h2.9453125l3.3291016,12.0688477h-2.7207031l-0.5605469-2.4648438
		h-3.0410156l-0.5605469,2.4648438H70.3583984z M74.1357422,41.1220703h2.0488281l-1.0244141-4.5454102L74.1357422,41.1220703z"/>
	<path class="st1" d="M88.1054688,40.722168h-4.5297852v4.8979492h-2.5610352V33.6152344h7.5708008v2.3369141h-5.0097656v2.480957
		h4.5297852V40.722168z"/>
	<path class="st1" d="M96.6811523,40.722168h-4.5297852v4.8979492H89.590332V33.6152344h7.5708008v2.3369141h-5.0097656v2.480957
		h4.5297852V40.722168z"/>
	<path class="st1" d="M98.0859375,39.6176758c0-3.6655273,1.0083008-6.2265625,4.7861328-6.2265625
		c3.7773438,0,4.7861328,2.5610352,4.7861328,6.2265625s-1.0087891,6.2265625-4.7861328,6.2265625
		C99.0942383,45.8442383,98.0859375,43.2832031,98.0859375,39.6176758z M100.6791992,39.6176758
		c0,2.8012695,0.6079102,3.9057617,2.1928711,3.9057617c1.5839844,0,2.1923828-1.1044922,2.1923828-3.9057617
		s-0.6083984-3.9057617-2.1923828-3.9057617C101.2871094,35.7119141,100.6791992,36.8164062,100.6791992,39.6176758z"/>
	<path class="st1" d="M111.6064453,45.6201172h-2.5605469V33.6152344h4.0820312
		c3.2324219,0,4.2890625,1.4726562,4.2890625,3.7617188c0,1.4882812-0.4160156,2.625-1.6806641,3.2329102l2.1289062,5.0102539
		h-2.9931641l-1.6162109-4.4980469h-1.6494141V45.6201172z M111.6064453,38.8012695h1.7451172
		c1.1367188,0,1.2802734-0.7680664,1.2802734-1.4243164c0-0.6723633-0.1435547-1.4248047-1.2802734-1.4248047h-1.7451172V38.8012695
		z"/>
	<path class="st1" d="M118.7265625,45.6201172V33.6152344h3.8896484c4.0654297,0,5.1220703,2.5932617,5.1220703,6.0024414
		s-1.0566406,6.0024414-5.1220703,6.0024414H118.7265625z M121.2871094,43.2832031h1.3769531
		c1.8730469,0,2.4169922-1.3447266,2.4169922-3.6655273c0-2.3046875-0.5439453-3.6655273-2.4169922-3.6655273h-1.3769531V43.2832031
		z"/>
	<path class="st1" d="M128.1503906,45.6201172l3.3291016-12.0688477h2.9453125l3.3291016,12.0688477h-2.7207031
		l-0.5605469-2.4648438h-3.0410156l-0.5605469,2.4648438H128.1503906z M131.9277344,41.1220703h2.0488281l-1.0244141-4.5454102
		L131.9277344,41.1220703z"/>
	<path class="st1" d="M138.8056641,33.6152344h4.3056641c3.0410156,0,3.8740234,1.4404297,3.8740234,3.3935547
		c0,1.0244141-0.5126953,1.8564453-1.296875,2.2729492c0.8964844,0.3037109,1.6484375,1.184082,1.6484375,2.6728516
		c0,2.0810547-0.9443359,3.6655273-4.1611328,3.6655273h-4.3701172V33.6152344z M143.015625,35.7919922h-1.6494141v2.5771484
		h1.6494141c1.0556641,0,1.2480469-0.7363281,1.2480469-1.2802734
		C144.2636719,36.5283203,144.0878906,35.7919922,143.015625,35.7919922z M141.3662109,43.4433594h1.7773438
		c1.0722656,0,1.4726562-0.6245117,1.4726562-1.5048828c0-0.8959961-0.4160156-1.4882812-1.4726562-1.4882812h-1.7773438V43.4433594
		z"/>
	<path class="st1" d="M150.9824219,43.2832031h4.8505859v2.3369141h-7.4111328V33.6152344h2.5605469V43.2832031z"/>
	<path class="st1" d="M163.9287109,40.5620117h-4.6259766v2.7211914h5.0908203v2.3369141h-7.6513672V33.6152344h7.6513672v2.3369141
		h-5.0908203v2.3208008h4.6259766V40.5620117z"/>
	<path class="st1" d="M170.5664062,38.8334961c-0.2880859-0.7045898-0.4482422-1.4248047-0.4482422-2.1611328
		c0-1.4404297,0.8320312-3.28125,3.296875-3.28125c2.4326172,0,3.1210938,1.3125,3.1210938,3.0253906
		c0,1.5683594-0.8798828,2.4331055-2.4804688,3.2490234c0.5761719,0.7363281,1.2802734,1.4726562,2.0966797,2.1289062
		c0.7041016-1.0405273,1.0566406-2.5126953,1.0566406-4.1777344h2.5927734c0,2.3051758-0.6083984,4.1777344-1.5849609,5.5385742
		c0.6083984,0.3198242,1.2167969,0.5600586,1.8408203,0.7202148l-0.9443359,2.1928711
		c-0.8642578-0.3203125-1.7441406-0.7363281-2.625-1.2324219c-1.0078125,0.6723633-2.1767578,1.0083008-3.4091797,1.0083008
		c-2.8173828,0-4.3857422-1.2646484-4.3857422-3.4736328C168.6933594,40.578125,169.3339844,39.5854492,170.5664062,38.8334961z
		 M174.1992188,43.2993164c-0.9277344-0.7363281-1.7607422-1.5366211-2.4326172-2.4169922
		c-0.3203125,0.3198242-0.4804688,0.6723633-0.4804688,1.1044922c0,1.0244141,0.8164062,1.456543,1.8564453,1.456543
		C173.5107422,43.4433594,173.8632812,43.3950195,174.1992188,43.2993164z M172.9345703,37.7451172
		c0.7050781-0.3203125,1.1845703-0.65625,1.1845703-1.296875c0-0.4482422-0.1601562-0.65625-0.671875-0.65625
		c-0.5439453,0-0.7363281,0.2724609-0.7363281,0.8486328C172.7109375,36.9765625,172.7910156,37.3447266,172.9345703,37.7451172z"/>
	<path class="st1" d="M75.8803711,52.5913086c1.3925781,0,2.0170898,0.2563477,2.4970703,0.4482422v2.4169922
		c-0.7202148-0.2880859-1.2802734-0.4643555-2.2407227-0.4643555c-1.953125,0-2.8491211,0.784668-2.8491211,3.8256836
		s0.8959961,3.8256836,2.8491211,3.8256836c0.9604492,0,1.5205078-0.1762695,2.2407227-0.4643555v2.4169922
		c-0.4799805,0.1918945-1.1044922,0.4482422-2.4970703,0.4482422c-3.5053711,0-5.1699219-1.7128906-5.1860352-6.2265625
		C70.7104492,54.3041992,72.375,52.5913086,75.8803711,52.5913086z"/>
	<path class="st1" d="M82.3276367,62.4833984h4.8500977v2.3369141h-7.4111328V52.8154297h2.5610352V62.4833984z"/>
	<path class="st1" d="M95.2729492,59.762207h-4.6259766v2.7211914h5.0898438v2.3369141h-7.6508789V52.8154297h7.6508789v2.3369141
		h-5.0898438v2.3208008h4.6259766V59.762207z"/>
	<path class="st1" d="M96.6298828,64.8203125l3.3291016-12.0688477h2.9453125l3.3291016,12.0688477h-2.7207031l-0.5605469-2.4648438
		h-3.0410156l-0.5605469,2.4648438H96.6298828z M100.4072266,60.3222656h2.0488281l-1.0244141-4.5454102L100.4072266,60.3222656z"/>
	<path class="st1" d="M113.625,64.8203125l-3.8740234-7.1708984l0.0644531,7.1708984h-2.5292969V52.8154297h2.5292969
		l3.8730469,7.1708984L113.625,52.8154297h2.5283203v12.0048828H113.625z"/>
	<path class="st1" d="M128.0087891,59.762207h-4.6259766v2.7211914h5.0908203v2.3369141h-7.6513672V52.8154297h7.6513672v2.3369141
		h-5.0908203v2.3208008h4.6259766V59.762207z"/>
	<path class="st1" d="M136.1210938,64.8203125l-3.8740234-7.1708984l0.0644531,7.1708984h-2.5292969V52.8154297h2.5292969
		l3.8730469,7.1708984l-0.0634766-7.1708984h2.5283203v12.0048828H136.1210938z"/>
	<path class="st1" d="M147.3046875,59.762207h-4.6259766v2.7211914h5.0908203v2.3369141h-7.6513672V52.8154297h7.6513672v2.3369141
		h-5.0908203v2.3208008h4.6259766V59.762207z"/>
	<path class="st1" d="M151.6386719,64.8203125h-2.5605469V52.8154297h4.0820312
		c3.2324219,0,4.2890625,1.4726562,4.2890625,3.7617188c0,1.4882812-0.4160156,2.625-1.6806641,3.2329102l2.1289062,5.0102539
		h-2.9931641l-1.6162109-4.4980469h-1.6494141V64.8203125z M151.6386719,58.0014648h1.7451172
		c1.1367188,0,1.2802734-0.7680664,1.2802734-1.4243164c0-0.6723633-0.1435547-1.4248047-1.2802734-1.4248047h-1.7451172V58.0014648
		z"/>
	<path class="st1" d="M158.6777344,58.8178711c0-4.1777344,1.5048828-6.2265625,5.1542969-6.2265625
		c1.6328125,0,2.8173828,0.2402344,3.5371094,0.5600586v2.4970703c-0.9921875-0.4160156-2.0644531-0.65625-3.0566406-0.65625
		c-2.2890625,0-3.0419922,1.0244141-3.0419922,3.8256836c0,2.9931641,0.8164062,3.8256836,3.0419922,3.8256836
		c0.2392578,0,0.5595703-0.0161133,0.7353516-0.0483398v-2.4326172h-1.6962891v-2.2890625h4.2578125v6.3544922
		c-0.7207031,0.4482422-2.1289062,0.8164062-3.8574219,0.8164062
		C160.1826172,65.0444336,158.6777344,62.9956055,158.6777344,58.8178711z"/>
	<path class="st1" d="M174.5039062,60.1625977v4.6577148h-2.59375v-4.6577148l-3.8085938-7.347168h2.9287109l2.1767578,5.0102539
		l2.1767578-5.0102539h2.9296875L174.5039062,60.1625977z"/>
</g>
<g>
	<path class="st1" d="M110.5999985,92.1999969c-9.0999985,0-16.4000015,7.3000031-16.4000015,16.4000015S101.5,125,110.5999985,125
		S127,117.6999969,127,108.5999985S119.6999969,92.1999969,110.5999985,92.1999969 M109.4000015,98.6999969
		c0-0.5,0.5-1.0999985,1.1999969-1.0999985s1.1999969,0.5999985,1.1999969,1.0999985v5.5999985
		c0,0.5-0.5,1.0999985-1.1999969,1.0999985s-1.1999969-0.5999985-1.1999969-1.0999985V98.6999969z M110.5999985,117
		c-4.6999969,0-8.5-3.8000031-8.5-8.5c0-3.8000031,2.5-7.0999985,6-8.0999985v3.1999969c-1.8000031,0.9000015-3,2.8000031-3,5
		c0,3.0999985,2.5,5.5999985,5.5999985,5.5999985s5.5999985-2.5,5.5999985-5.5999985c0-2.1999969-1.1999969-4.0999985-3.0999985-5
		v-3.1999969c3.5,1.0999985,6,4.3000031,6,8.1999969C119.0999985,113.1999969,115.3000031,117,110.5999985,117"/>
	<path class="st1" d="M91.8000031,108.4000015c0-0.6999969-0.6999969-1.3000031-1.3000031-1.3000031h-7.1999969
		c-0.5999985,0-1.3000031,0.5999985-1.3000031,1.3000031c0,0.6999969,0.6999969,1.4000015,1.3000031,1.4000015H90.5
		C91.0999985,109.8000031,91.8000031,109.1999969,91.8000031,108.4000015"/>
	<path class="st1" d="M139.1999969,108.4000015c0-0.6999969-0.6999969-1.3000031-1.3000031-1.3000031h-7.1999969
		c-0.6000061,0-1.3000031,0.5999985-1.3000031,1.3000031c0,0.6999969,0.6999969,1.4000015,1.3000031,1.4000015h7.1999969
		C138.5,109.8000031,139.1999969,109.1999969,139.1999969,108.4000015"/>
	<path class="st1" d="M110.5999985,89.5999985c0.6999969,0,1.3000031-0.6999969,1.3000031-1.3000031v-7.1999969
		c0-0.5999985-0.5999985-1.3000031-1.3000031-1.3000031c-0.6999969,0-1.4000015,0.6999969-1.4000015,1.3000031v7.1999969
		C109.3000031,88.9000015,109.9000015,89.5999985,110.5999985,89.5999985"/>
	<path class="st1" d="M110.5999985,137c0.6999969,0,1.3000031-0.6999969,1.3000031-1.3000031V128.5
		c0-0.5999985-0.5999985-1.3000031-1.3000031-1.3000031c-0.6999969,0-1.4000015,0.6999969-1.4000015,1.3000031v7.1999969
		C109.3000031,136.3000031,109.9000015,137,110.5999985,137"/>
	<path class="st1" d="M94.3000031,99.0999985c0.4000015-0.5999985,0.0999985-1.5-0.4000015-1.8000031l-6.1999969-3.5999985
		c-0.5-0.3000031-1.4000015-0.0999985-1.8000031,0.5s-0.0999985,1.5,0.4000015,1.8000031L92.5,99.5999985
		C93,99.9000015,93.9000015,99.6999969,94.3000031,99.0999985"/>
	<path class="st1" d="M135.3999939,122.5999985C135.7999878,122,135.5,121.0999985,135,120.7999954l-6.1999969-3.5999985
		c-0.5-0.3000031-1.4000015-0.0999985-1.8000031,0.5s-0.0999985,1.5,0.4000015,1.8000031l6.2000046,3.5999985
		C134.1000061,123.5,135,123.3000031,135.3999939,122.5999985"/>
	<path class="st1" d="M120,92.0999985c0.5999985,0.4000015,1.5,0.0999985,1.8000031-0.4000015L125.4000015,85.5
		c0.3000031-0.5,0.0999985-1.4000015-0.5-1.8000031s-1.5-0.0999985-1.8000031,0.4000015L119.5,90.2999954
		C119.0999985,90.8000031,119.3000031,91.6999969,120,92.0999985"/>
	<path class="st1" d="M96.4000015,133.1999969c0.5999985,0.3999939,1.5,0.1000061,1.8000031-0.3999939l3.5999985-6.1999969
		c0.3000031-0.5,0.0999985-1.4000015-0.5-1.8000031s-1.5-0.0999985-1.8000031,0.4000015l-3.5999985,6.2000046
		C95.5999985,132,95.8000031,132.8000031,96.4000015,133.1999969"/>
	<path class="st1" d="M101.1999969,92.0999985c0.5999985-0.4000015,0.8000031-1.1999969,0.5-1.8000031l-3.5999985-6.1999969
		c-0.3000031-0.5-1.1999969-0.8000031-1.8000031-0.4000015c-0.5999985,0.4000015-0.8000031,1.1999969-0.5,1.8000031
		l3.5999985,6.1999969C99.6999969,92.1999969,100.5999985,92.5,101.1999969,92.0999985"/>
	<path class="st1" d="M124.8000031,133.1999969c0.5999985-0.3999939,0.8000031-1.1999969,0.5-1.8000031l-3.5999985-6.1999969
		c-0.3000031-0.5-1.1999969-0.8000031-1.8000031-0.4000015c-0.5999985,0.4000015-0.8000031,1.1999969-0.5,1.8000031L123,132.8000031
		C123.3000031,133.3000031,124.1999969,133.5,124.8000031,133.1999969"/>
	<path class="st1" d="M126.9000015,99c0.4000015,0.5999985,1.2000046,0.8000031,1.7999954,0.5l6.1999969-3.5999985
		c0.5-0.3000031,0.8000031-1.1999969,0.3999939-1.8000031c-0.3999939-0.5999985-1.1999969-0.8000031-1.8000031-0.5
		l-6.1999969,3.5999985C126.8000031,97.5,126.5999985,98.4000015,126.9000015,99"/>
	<path class="st1" d="M85.9000015,122.6999969c0.4000015,0.5999985,1.1999969,0.8000031,1.8000031,0.5l6.1999969-3.5999985
		c0.5-0.3000031,0.8000031-1.1999969,0.4000015-1.8000031c-0.4000015-0.5999985-1.1999969-0.8000031-1.8000031-0.5
		l-6.1999969,3.5999985C85.8000031,121.1999969,85.5,122,85.9000015,122.6999969"/>
</g>
<g class="st2">
	<path class="st1" d="M39.4000015,159.6000061H36.5v1.6999969h3.2000008v1.5h-4.7999992v-7.5h4.7999992v1.5H36.5v1.3999939
		h2.9000015V159.6000061z"/>
	<path class="st1" d="M44.5,162.8000031l-2.4000015-4.5v4.5H40.5v-7.5h1.5999985l2.4000015,4.5v-4.5H46v7.5H44.5z"/>
	<path class="st1" d="M52.0999985,160.3999939c0,1.8999939-1.2000008,2.5-2.9000015,2.5
		c-0.7999992,0-1.7999992-0.1000061-2.2999992-0.5v-1.6000061c0.2999992,0.1999969,1.2000008,0.6000061,2.2000008,0.6000061
		c1.0999985,0,1.5-0.3999939,1.5-0.8999939c0-0.6000061-0.2000008-0.8000031-1-0.8999939
		C47.6999969,159.4000092,47,158.8000031,47,157.3000031C47,155.9000092,47.7999992,155,49.7999992,155
		c1,0,1.7999992,0.1999969,2.0999985,0.3999939v1.5c-0.4000015-0.1999969-1.2000008-0.3999939-2-0.3999939
		s-1.2999992,0.3000031-1.2999992,0.6999969c0,0.5,0.2999992,0.6999969,1.0999985,0.8000031
		C51.2000008,158.5,52.0999985,158.8000031,52.0999985,160.3999939z"/>
	<path class="st1" d="M52.9000015,160.3999939v-5.1000061H54.5v5c0,1,0.5999985,1.1000061,1.2000008,1.1000061
		s1.2000008-0.1999969,1.2000008-1.1000061v-5H58.5v5.1000061c0,2.1000061-1.5999985,2.5-2.7999992,2.5
		S52.9000015,162.5,52.9000015,160.3999939z"/>
	<path class="st1" d="M60.9000015,162.8000031h-1.5999985v-7.5h2.5c2,0,2.6999969,0.8999939,2.6999969,2.3000031
		c0,0.8999939-0.3000031,1.6000061-1,2l1.3000031,3.1000061H63l-1-2.8000031h-1v2.8999939H60.9000015z M60.9000015,158.5H62
		c0.6999969,0,0.8000031-0.5,0.8000031-0.8999939S62.7000046,156.7000122,62,156.7000122h-1.0999985V158.5z"/>
	<path class="st1" d="M69.9000015,159.6000061H67v1.6999969h3.1999969v1.5h-4.8000031v-7.5h4.8000031v1.5H67v1.3999939h2.9000015
		V159.6000061z"/>
	<path class="st1" d="M72.6999969,162.8000031l2.0999985-7.5h1.8000031l2.0999985,7.5H77l-0.3000031-1.5h-1.9000015l-0.3000031,1.5
		H72.6999969z M75.0999985,160h1.3000031l-0.5999985-2.8000031L75.0999985,160z"/>
	<path class="st1" d="M82.4000015,155.1999969c0.9000015,0,1.3000031,0.1999969,1.5999985,0.3000031v1.5
		c-0.4000015-0.1999969-0.8000031-0.3000031-1.4000015-0.3000031c-1.1999969,0-1.8000031,0.5-1.8000031,2.3999939
		s0.5999985,2.3999939,1.8000031,2.3999939c0.5999985,0,0.9000015-0.1000061,1.4000015-0.3000031v1.5
		c-0.3000031,0.1000061-0.6999969,0.3000031-1.5999985,0.3000031c-2.1999969,0-3.1999969-1.1000061-3.1999969-3.8999939
		C79.0999985,156.1999969,80.1999969,155.1999969,82.4000015,155.1999969z"/>
	<path class="st1" d="M88,155.1999969c0.9000015,0,1.3000031,0.1999969,1.5999985,0.3000031v1.5
		c-0.4000015-0.1999969-0.8000031-0.3000031-1.4000015-0.3000031c-1.1999969,0-1.8000031,0.5-1.8000031,2.3999939
		s0.5999985,2.3999939,1.8000031,2.3999939c0.5999985,0,0.9000015-0.1000061,1.4000015-0.3000031v1.5
		c-0.3000031,0.1000061-0.6999969,0.3000031-1.5999985,0.3000031c-2.1999969,0-3.1999969-1.1000061-3.1999969-3.8999939
		C84.8000031,156.1999969,85.8000031,155.1999969,88,155.1999969z"/>
	<path class="st1" d="M94.9000015,159.6000061H92v1.6999969h3.1999969v1.5h-4.8000031v-7.5h4.8000031v1.5H92v1.3999939h2.9000015
		V159.6000061z"/>
	<path class="st1" d="M101.1999969,160.3999939c0,1.8999939-1.1999969,2.5-2.9000015,2.5
		c-0.8000031,0-1.8000031-0.1000061-2.3000031-0.5v-1.6000061c0.3000031,0.1999969,1.1999969,0.6000061,2.1999969,0.6000061
		c1.0999985,0,1.5-0.3999939,1.5-0.8999939c0-0.6000061-0.1999969-0.8000031-1-0.8999939
		c-1.9000015-0.1999969-2.5999985-0.8000031-2.5999985-2.3000031c0-1.3999939,0.8000031-2.3000031,2.8000031-2.3000031
		c1,0,1.8000031,0.1999969,2.0999985,0.3999939v1.5c-0.4000015-0.1999969-1.1999969-0.3999939-2-0.3999939
		s-1.3000031,0.3000031-1.3000031,0.6999969c0,0.5,0.3000031,0.6999969,1.0999985,0.8000031
		C100.3000031,158.5,101.1999969,158.8000031,101.1999969,160.3999939z"/>
	<path class="st1" d="M107.0999985,160.3999939c0,1.8999939-1.1999969,2.5-2.9000015,2.5
		c-0.8000031,0-1.8000031-0.1000061-2.3000031-0.5v-1.6000061c0.3000031,0.1999969,1.1999969,0.6000061,2.1999969,0.6000061
		c1.0999985,0,1.5-0.3999939,1.5-0.8999939c0-0.6000061-0.1999969-0.8000031-1-0.8999939
		c-1.9000015-0.1999969-2.5999985-0.8000031-2.5999985-2.3000031c0-1.3999939,0.8000031-2.3000031,2.8000031-2.3000031
		c1,0,1.8000031,0.1999969,2.0999985,0.3999939v1.5c-0.4000015-0.1999969-1.1999969-0.3999939-2-0.3999939
		s-1.3000031,0.3000031-1.3000031,0.6999969c0,0.5,0.3000031,0.6999969,1.0999985,0.8000031
		C106.1999969,158.5,107.0999985,158.8000031,107.0999985,160.3999939z"/>
	<path class="st1" d="M112.6999969,156.8000031v6h-1.5999985v-6h-1.8000031v-1.5h5.1999969v1.5H112.6999969z"/>
	<path class="st1" d="M114.8000031,159c0-2.3000031,0.5999985-3.8999939,3-3.8999939s3,1.6000061,3,3.8999939
		s-0.5999985,3.8999939-3,3.8999939S114.8000031,161.3000031,114.8000031,159z M116.4000015,159
		c0,1.6999969,0.4000015,2.3999939,1.4000015,2.3999939s1.4000015-0.6999969,1.4000015-2.3999939
		s-0.4000015-2.3999939-1.4000015-2.3999939S116.4000015,157.3000031,116.4000015,159z"/>
	<path class="st1" d="M123.4000015,162.8000031l2.0999985-7.5h1.8000031l2.1000061,7.5h-1.6999969l-0.3000031-1.5h-1.8999939
		l-0.3999939,1.5H123.4000015z M125.6999969,160H127l-0.6000061-2.8000031L125.6999969,160z"/>
	<path class="st1" d="M134.5,159.6999969h-2.8000031v3.1000061H130v-7.5h4.6999969v1.5h-3.1000061v1.6000061h2.8000031
		L134.5,159.6999969L134.5,159.6999969z"/>
	<path class="st1" d="M139.8000031,159.6999969H137v3.1000061h-1.6000061v-7.5h4.6999969v1.5H137v1.6000061h2.8000031V159.6999969z"
		/>
	<path class="st1" d="M140.6999969,159c0-2.3000031,0.6000061-3.8999939,3-3.8999939s3,1.6000061,3,3.8999939
		s-0.6000061,3.8999939-3,3.8999939S140.6999969,161.3000031,140.6999969,159z M142.3000031,159
		c0,1.6999969,0.3999939,2.3999939,1.3999939,2.3999939s1.3999939-0.6999969,1.3999939-2.3999939
		s-0.3999939-2.3999939-1.3999939-2.3999939S142.3000031,157.3000031,142.3000031,159z"/>
	<path class="st1" d="M149.1000061,162.8000031H147.5v-7.5h2.5c2,0,2.6999969,0.8999939,2.6999969,2.3000031
		c0,0.8999939-0.3000031,1.6000061-1.1000061,2l1.3000031,3.1000061H151l-1-2.8000031h-1v2.8999939H149.1000061z M149.1000061,158.5
		h1.1000061c0.6999969,0,0.8000031-0.5,0.8000031-0.8999939s-0.1000061-0.8999939-0.8000031-0.8999939h-1.1000061V158.5z"/>
	<path class="st1" d="M153.6000061,162.8000031v-7.5H156c2.5,0,3.1999969,1.6000061,3.1999969,3.6999969
		S158.5,162.6999969,156,162.6999969h-2.3999939V162.8000031z M155.1999969,161.3000031h0.8999939
		c1.1999969,0,1.5-0.8000031,1.5-2.3000031c0-1.3999939-0.3000031-2.3000031-1.5-2.3000031h-0.8999939V161.3000031z"/>
	<path class="st1" d="M159.5,162.8000031l2.1000061-7.5h1.8000031l2.1000061,7.5h-1.6999969l-0.3999939-1.5h-1.8999939
		l-0.3999939,1.5H159.5z M161.8000031,160h1.3000031L162.5,157.1999969L161.8000031,160z"/>
	<path class="st1" d="M166.1000061,155.3000031h2.6999969c1.8999939,0,2.3999939,0.8999939,2.3999939,2.1000061
		c0,0.6000061-0.3000031,1.1999969-0.8000031,1.3999939c0.6000061,0.1999969,1,0.6999969,1,1.6999969
		c0,1.3000031-0.6000061,2.3000031-2.6000061,2.3000031h-2.6999969L166.1000061,155.3000031L166.1000061,155.3000031z
		 M168.8000031,156.6999969h-1v1.6000061h1c0.6999969,0,0.8000031-0.5,0.8000031-0.8000031
		C169.6000061,157.1000061,169.3999939,156.6999969,168.8000031,156.6999969z M167.6999969,161.3999939h1.1000061
		c0.6999969,0,0.8999939-0.3999939,0.8999939-0.8999939c0-0.6000061-0.3000031-0.8999939-0.8999939-0.8999939h-1.1000061
		V161.3999939z"/>
	<path class="st1" d="M173.8000031,161.3000031h3v1.5h-4.6000061v-7.5h1.6000061V161.3000031z"/>
	<path class="st1" d="M181.8000031,159.6000061H179v1.6999969h3.1999969v1.5h-4.8000031v-7.5h4.8000031v1.5H179v1.3999939h2.8999939
		L181.8000031,159.6000061L181.8000031,159.6000061z"/>
	<path class="st1" d="M182.5,164l0.3000031-2.6999969H184.5L183.6000061,164H182.5z"/>
</g>
<g class="st2">
	<path class="st1" d="M47.7000008,174.8000031h-1.5999985v-7.5h2.5c2,0,2.7000008,0.8999939,2.7000008,2.3000031
		c0,0.8999939-0.2999992,1.6000061-1,2l1.2999992,3.1000061h-1.9000015l-1-2.8000031h-1V174.8000031L47.7000008,174.8000031z
		 M47.7000008,170.5h1.0999985c0.7000008,0,0.7999992-0.5,0.7999992-0.8999939S49.5,168.7000122,48.7999992,168.7000122h-1.0999985
		V170.5z"/>
	<path class="st1" d="M56.7000008,171.6000061h-2.9000015v1.6999969H57v1.5h-4.7999992v-7.5H57v1.5h-3.2000008v1.3999939h2.9000015
		V171.6000061z"/>
	<path class="st1" d="M59.4000015,173.3000031h3v1.5h-4.5999985v-7.5h1.5999985V173.3000031z"/>
	<path class="st1" d="M63.0999985,174.8000031v-7.5h1.5999985v7.5H63.0999985z"/>
	<path class="st1" d="M65.4000015,174.8000031l2.0999985-7.5h1.8000031l2.0999985,7.5h-1.6999969l-0.3000031-1.5H67.5
		l-0.3000031,1.5H65.4000015z M67.8000031,172h1.3000031l-0.5999985-2.8000031L67.8000031,172z"/>
	<path class="st1" d="M72.0999985,167.3000031h2.6999969c1.9000015,0,2.4000015,0.8999939,2.4000015,2.1000061
		c0,0.6000061-0.3000031,1.1999969-0.8000031,1.3999939c0.5999985,0.1999969,1,0.6999969,1,1.6999969
		c0,1.3000031-0.5999985,2.3000031-2.5999985,2.3000031h-2.6999969V167.3000031L72.0999985,167.3000031z M74.6999969,168.6999969h-1
		v1.6000061h1c0.6999969,0,0.8000031-0.5,0.8000031-0.8000031C75.5,169.1000061,75.4000015,168.6999969,74.6999969,168.6999969z
		 M73.6999969,173.3999939h1.0999985c0.6999969,0,0.9000015-0.3999939,0.9000015-0.8999939
		c0-0.6000061-0.3000031-0.8999939-0.9000015-0.8999939h-1.0999985V173.3999939z"/>
	<path class="st1" d="M79.6999969,173.3000031h3v1.5h-4.5999985v-7.5h1.5999985V173.3000031z"/>
	<path class="st1" d="M87.8000031,171.6000061h-2.9000015v1.6999969h3.1999969v1.5h-4.8000031v-7.5h4.8000031v1.5h-3.1999969
		v1.3999939h2.9000015V171.6000061z"/>
	<path class="st1" d="M88.5,176l0.3000031-2.6999969H90.5L89.5999985,176H88.5z"/>
	<path class="st1" d="M98.5,172.3999939c0,1.8999939-1.1999969,2.5-2.9000015,2.5c-0.8000031,0-1.8000031-0.1000061-2.3000031-0.5
		v-1.6000061c0.3000031,0.1999969,1.1999969,0.6000061,2.1999969,0.6000061c1.0999985,0,1.5-0.3999939,1.5-0.8999939
		c0-0.6000061-0.1999969-0.8000031-1-0.8999939c-1.9000015-0.1999969-2.5999985-0.8000031-2.5999985-2.3000031
		c0-1.3999939,0.8000031-2.3000031,2.8000031-2.3000031c1,0,1.8000031,0.1999969,2.0999985,0.3999939v1.5
		c-0.4000015-0.1999969-1.1999969-0.3999939-2-0.3999939s-1.3000031,0.3000031-1.3000031,0.6999969
		c0,0.5,0.3000031,0.6999969,1.0999985,0.8000031C97.5999985,170.5,98.5,170.8000031,98.5,172.3999939z"/>
	<path class="st1" d="M99.1999969,172.3999939v-5.1000061h1.5999985v5c0,1,0.5999985,1.1000061,1.1999969,1.1000061
		s1.1999969-0.1999969,1.1999969-1.1000061v-5h1.5999985v5.1000061c0,2.1000061-1.5999985,2.5-2.8000031,2.5
		S99.1999969,174.5,99.1999969,172.3999939z"/>
	<path class="st1" d="M110.8000031,172.3999939c0,1.8999939-1.1999969,2.5-2.9000015,2.5
		c-0.8000031,0-1.8000031-0.1000061-2.3000031-0.5v-1.6000061c0.3000031,0.1999969,1.1999969,0.6000061,2.1999969,0.6000061
		c1.0999985,0,1.5-0.3999939,1.5-0.8999939c0-0.6000061-0.1999969-0.8000031-1-0.8999939
		c-1.9000015-0.1999969-2.5999985-0.8000031-2.5999985-2.3000031C105.6999969,167.9000092,106.5,167,108.5,167
		c1,0,1.8000031,0.1999969,2.0999985,0.3999939v1.5c-0.4000015-0.1999969-1.1999969-0.3999939-2-0.3999939
		s-1.3000031,0.3000031-1.3000031,0.6999969c0,0.5,0.3000031,0.6999969,1.0999985,0.8000031
		C109.9000015,170.5,110.8000031,170.8000031,110.8000031,172.3999939z"/>
	<path class="st1" d="M114.4000015,168.8000031v6h-1.5999985v-6H111v-1.5h5.1999969v1.5H114.4000015z"/>
	<path class="st1" d="M115.8000031,174.8000031l2.0999985-7.5h1.8000031l2.0999985,7.5h-1.6999969l-0.3000031-1.5h-1.9000015
		l-0.3000031,1.5H115.8000031z M118.0999985,172h1.3000031l-0.5999985-2.8000031L118.0999985,172z"/>
	<path class="st1" d="M122.5,174.8000031v-7.5h1.5999985v7.5H122.5z"/>
	<path class="st1" d="M129.1000061,174.8000031l-2.3999939-4.5v4.5h-1.6000061v-7.5h1.6000061l2.3999939,4.5v-4.5h1.6000061v7.5
		H129.1000061z"/>
	<path class="st1" d="M131.3999939,174.8000031l2.1000061-7.5h1.8000031l2.1000061,7.5h-1.6999969l-0.3999939-1.5h-1.8999939
		l-0.3999939,1.5H131.3999939z M133.6999969,172H135l-0.6000061-2.8000031L133.6999969,172z"/>
	<path class="st1" d="M138,167.3000031h2.6999969c1.8999939,0,2.3999939,0.8999939,2.3999939,2.1000061
		c0,0.6000061-0.3000031,1.1999969-0.8000031,1.3999939c0.6000061,0.1999969,1,0.6999969,1,1.6999969
		c0,1.3000031-0.6000061,2.3000031-2.6000061,2.3000031H138V167.3000031L138,167.3000031z M140.6999969,168.6999969h-1v1.6000061h1
		c0.6999969,0,0.8000031-0.5,0.8000031-0.8000031C141.3999939,169.1000061,141.3000031,168.6999969,140.6999969,168.6999969z
		 M139.6000061,173.3999939h1.1000061c0.6999969,0,0.8999939-0.3999939,0.8999939-0.8999939
		c0-0.6000061-0.3000031-0.8999939-0.8999939-0.8999939h-1.1000061V173.3999939z"/>
	<path class="st1" d="M145.6000061,173.3000031h3v1.5H144v-7.5h1.6000061V173.3000031z"/>
	<path class="st1" d="M153.6999969,171.6000061h-2.8999939v1.6999969H154v1.5h-4.8000031v-7.5H154v1.5h-3.1999969v1.3999939
		h2.8999939V171.6000061z"/>
	<path class="st1" d="M156.6000061,174.8000031l2.1000061-7.5h1.8000031l2.1000061,7.5h-1.6999969l-0.3999939-1.5h-1.8999939
		l-0.3999939,1.5H156.6000061z M158.8999939,172h1.3000031l-0.6000061-2.8000031L158.8999939,172z"/>
	<path class="st1" d="M167.1999969,174.8000031l-2.3999939-4.5v4.5h-1.6000061v-7.5h1.6000061l2.3999939,4.5v-4.5h1.6000061v7.5
		H167.1999969z"/>
	<path class="st1" d="M169.6999969,174.8000031v-7.5h2.3999939c2.5,0,3.1999969,1.6000061,3.1999969,3.6999969
		c0,2.1000061-0.6999969,3.6999969-3.1999969,3.6999969h-2.3999939V174.8000031z M171.3000031,173.3000031h0.8999939
		c1.1999969,0,1.5-0.8000031,1.5-2.3000031c0-1.3999939-0.3000031-2.3000031-1.5-2.3000031h-0.8999939V173.3000031z"/>
</g>
<g class="st2">
	<path class="st1" d="M58.5,185.8999939h-1.5999985l-1.2000008-3.6999969v4.6000061h-1.5999985v-7.5h2l1.5,4.6999969l1.5-4.6999969
		h2.0000038v7.5h-1.5999985v-4.6000061L58.5,185.8999939z"/>
	<path class="st1" d="M62.0999985,183c0-2.3000031,0.5999985-3.8999939,3-3.8999939s3,1.6000061,3,3.8999939
		s-0.5999985,3.8999939-3,3.8999939S62.0999985,185.3000031,62.0999985,183z M63.6999969,183
		c0,1.6999969,0.4000015,2.3999939,1.4000015,2.3999939S66.5,184.6999969,66.5,183s-0.4000015-2.3999939-1.4000015-2.3999939
		S63.6999969,181.3000031,63.6999969,183z"/>
	<path class="st1" d="M68.9000015,186.8000031v-7.5h2.4000015c2.5,0,3.1999969,1.6000061,3.1999969,3.6999969
		s-0.6999969,3.6999969-3.1999969,3.6999969h-2.4000015V186.8000031z M70.5,185.3000031h0.9000015
		c1.1999969,0,1.5-0.8000031,1.5-2.3000031c0-1.3999939-0.3000031-2.3000031-1.5-2.3000031H70.5V185.3000031z"/>
	<path class="st1" d="M79.9000015,183.6000061H77v1.6999969h3.1999969v1.5h-4.8000031v-7.5h4.8000031v1.5H77v1.3999939h2.9000015
		V183.6000061z"/>
	<path class="st1" d="M82.5999985,186.8000031H81v-7.5h2.5c2,0,2.6999969,0.8999939,2.6999969,2.3000031
		c0,0.8999939-0.3000031,1.6000061-1,2L86.5,186.7000122h-1.9000015l-1-2.8000031h-1V186.8000031z M82.5999985,182.5h1.0999985
		C84.3999939,182.5,84.5,182,84.5,181.6000061s-0.0999985-0.8999939-0.8000031-0.8999939h-1.0999985V182.5z"/>
	<path class="st1" d="M91,186.8000031l-2.4000015-4.5v4.5H87v-7.5h1.5999985l2.4000015,4.5v-4.5h1.5999985v7.5H91z"/>
	<path class="st1" d="M100,183.6000061h-2.9000015v1.6999969h3.1999969v1.5h-4.8000031v-7.5h4.8000031v1.5h-3.1999969v1.3999939H100
		V183.6000061z"/>
	<path class="st1" d="M105,186.8000031l-2.4000015-4.5v4.5H101v-7.5h1.5999985l2.4000015,4.5v-4.5h1.5999985v7.5H105z"/>
	<path class="st1" d="M112,183.6000061h-2.9000015v1.6999969h3.1999969v1.5h-4.8000031v-7.5h4.8000031v1.5h-3.1999969v1.3999939H112
		V183.6000061z"/>
	<path class="st1" d="M114.6999969,186.8000031h-1.5999985v-7.5h2.5c2,0,2.6999969,0.8999939,2.6999969,2.3000031
		c0,0.8999939-0.3000031,1.6000061-1.0999985,2L118.5,186.7000122h-1.9000015l-1-2.8000031h-1
		C114.6999969,184,114.6999969,186.8000031,114.6999969,186.8000031z M114.6999969,182.5h1.0999985
		c0.6999969,0,0.8000031-0.5,0.8000031-0.8999939s-0.0999985-0.8999939-0.8000031-0.8999939h-1.0999985V182.5z"/>
	<path class="st1" d="M119.0999985,183c0-2.6000061,0.9000015-3.8999939,3.1999969-3.8999939
		c1,0,1.8000031,0.1000061,2.1999969,0.3999939v1.6000061c-0.5999985-0.3000031-1.3000031-0.3999939-1.9000015-0.3999939
		c-1.4000015,0-1.9000015,0.6000061-1.9000015,2.3999939c0,1.8999939,0.5,2.3999939,1.9000015,2.3999939
		c0.1999969,0,0.4000015,0,0.5,0V184h-1.0999985v-1.3999939h2.6999969v4c-0.4000015,0.3000031-1.3000031,0.5-2.4000015,0.5
		C120.0999985,186.8999939,119.0999985,185.6999969,119.0999985,183z"/>
	<path class="st1" d="M129,183.8999939v2.8999939h-1.6000061v-2.8999939l-2.4000015-4.6000061h1.7999954l1.3999939,3.1000061
		l1.3999939-3.1000061h1.8000031L129,183.8999939z"/>
	<path class="st1" d="M138.1999969,183.6999969h-2.8000031v3.1000061h-1.6000061v-7.5h4.6999969v1.5h-3.1000061v1.6000061h2.8000031
		L138.1999969,183.6999969L138.1999969,183.6999969z"/>
	<path class="st1" d="M139.1000061,183c0-2.3000031,0.6000061-3.8999939,3-3.8999939s3,1.6000061,3,3.8999939
		s-0.6000061,3.8999939-3,3.8999939C139.6999969,186.8999939,139.1000061,185.3000031,139.1000061,183z M140.6999969,183
		c0,1.6999969,0.3999939,2.3999939,1.3999939,2.3999939s1.3999939-0.6999969,1.3999939-2.3999939
		s-0.3999939-2.3999939-1.3999939-2.3999939C141.1000061,180.6000061,140.6999969,181.3000031,140.6999969,183z"/>
	<path class="st1" d="M147.5,186.8000031h-1.6000061v-7.5h2.5c2,0,2.6999969,0.8999939,2.6999969,2.3000031
		c0,0.8999939-0.3000031,1.6000061-1.1000061,2l1.3000031,3.1000061h-1.8999939l-1-2.8000031h-1v2.8999939H147.5z M147.5,182.5
		h1.1000061c0.6999969,0,0.8000031-0.5,0.8000031-0.8999939s-0.1000061-0.8999939-0.8000031-0.8999939H147.5V182.5z"/>
	<path class="st1" d="M153.6999969,186.8000031l2.1000061-7.5h1.8000031l2.1000061,7.5H158l-0.3999939-1.5h-1.8999939
		l-0.3999939,1.5H153.6999969z M156.1000061,184h1.3000031l-0.6000061-2.8000031L156.1000061,184z"/>
	<path class="st1" d="M162,185.3000031h3v1.5h-4.6000061v-7.5H162V185.3000031z"/>
	<path class="st1" d="M167.1999969,185.3000031h3v1.5h-4.6000061v-7.5h1.6000061V185.3000031z"/>
</g>
</svg>
