<svg xmlns="http://www.w3.org/2000/svg" viewBox="0 0 60 60"><defs><style>.a{fill:#fff;}</style></defs><g transform="translate(21 20)"><rect class="a" width="2" height="2"/></g><g transform="translate(21 24)"><rect class="a" width="2" height="2"/></g><g transform="translate(21 28)"><rect class="a" width="2" height="2"/></g><g transform="translate(21 32)"><rect class="a" width="2" height="2"/></g><g transform="translate(25 20)"><rect class="a" width="2" height="2"/></g><g transform="translate(25 24)"><rect class="a" width="2" height="2"/></g><g transform="translate(25 28)"><rect class="a" width="2" height="2"/></g><g transform="translate(25 32)"><rect class="a" width="2" height="2"/></g><g transform="translate(29 20)"><rect class="a" width="2" height="2"/></g><g transform="translate(29 24)"><rect class="a" width="2" height="2"/></g><g transform="translate(29 28)"><rect class="a" width="2" height="2"/></g><g transform="translate(29 32)"><rect class="a" width="2" height="2"/></g><g transform="translate(33 20)"><rect class="a" width="2" height="2"/></g><g transform="translate(25 16)"><rect class="a" width="2" height="2"/></g><g transform="translate(29 16)"><rect class="a" width="2" height="2"/></g><g transform="translate(33 16)"><rect class="a" width="2" height="2"/></g><g transform="translate(33 24)"><rect class="a" width="2" height="2"/></g><g transform="translate(33 28)"><rect class="a" width="2" height="2"/></g><g transform="translate(33 32)"><rect class="a" width="2" height="2"/></g><g transform="translate(37 20)"><rect class="a" width="2" height="2"/></g><g transform="translate(37 24)"><rect class="a" width="2" height="2"/></g><g transform="translate(37 28)"><rect class="a" width="2" height="2"/></g><g transform="translate(37 32)"><rect class="a" width="2" height="2"/></g><g transform="translate(0 0)"><path class="a" d="M59,15H44V1a1,1,0,0,0-1-1H17a1,1,0,0,0-1,1h0V15H1a1,1,0,0,0-1,1H0V52a1,1,0,0,0,1,1H3.09A6,6,0,0,0,3,54v5a1,1,0,0,0,1,1H56a1,1,0,0,0,1-1h0V54a5.975,5.975,0,0,0-.09-1H59a1,1,0,0,0,1-1h0V16A1,1,0,0,0,59,15ZM43,43a2,2,0,1,1-2-2A2,2,0,0,1,43,43ZM19,41a2,2,0,1,1-2,2A2,2,0,0,1,19,41ZM13,58H5V54a4,4,0,1,1,8,0ZM7,46a2,2,0,1,1,2,2A2,2,0,0,1,7,46Zm6.151,3.678a6.028,6.028,0,0,0-1.258-.931,4,4,0,1,0-5.787,0A6.039,6.039,0,0,0,3.812,51H2V17H16V40.382a3.946,3.946,0,0,0,.107,5.365A6.017,6.017,0,0,0,13.151,49.678ZM23,58H15V51a4,4,0,0,1,8,0Zm12,0H25V51a5,5,0,0,1,10,0ZM27,41a3,3,0,1,1,3,3A3,3,0,0,1,27,41Zm9.09,6.562a7.044,7.044,0,0,0-2.869-2.77,5,5,0,1,0-6.442,0,7.044,7.044,0,0,0-2.869,2.77,6.04,6.04,0,0,0-2.016-1.815A3.971,3.971,0,0,0,18,39.142V2H42V39.142a3.982,3.982,0,0,0-3.894,6.6A6.04,6.04,0,0,0,36.09,47.562ZM45,54v4H37V51a4,4,0,0,1,8,0Zm10,4H47V54a4,4,0,0,1,8,0ZM49,46a2,2,0,1,1,2,2A2,2,0,0,1,49,46Zm9,5H56.188a6.039,6.039,0,0,0-2.295-2.253,4,4,0,1,0-5.787,0,6.025,6.025,0,0,0-1.258.931,6.017,6.017,0,0,0-2.955-3.931A3.946,3.946,0,0,0,44,40.382V17H58V51Z" transform="translate(0 0)"/></g><g transform="translate(47 23)"><rect class="a" width="2" height="16"/></g><g transform="translate(53 23)"><rect class="a" width="2" height="16"/></g><g transform="translate(5 23)"><rect class="a" width="2" height="16"/></g><g transform="translate(11 23)"><rect class="a" width="2" height="16"/></g><g transform="translate(23 4)"><path class="a" d="M197,32H185a1,1,0,0,0-1,1h0v8a1,1,0,0,0,1,1h12a1,1,0,0,0,1-1h0V33A1,1,0,0,0,197,32Zm-1,8H186V34h10Z" transform="translate(-184 -32)"/></g></svg>