<svg xmlns="http://www.w3.org/2000/svg" width="75" height="75" viewBox="0 0 75 75"><defs><style>.a{fill:#ffe9d1;}</style></defs><g transform="translate(-766 -141)"><circle class="a" cx="37.5" cy="37.5" r="37.5" transform="translate(766 141)"/><g transform="translate(787.999 163)"><path d="M361.855,91.818a1.361,1.361,0,0,0-.47.065V89.862a1.346,1.346,0,0,0-1.757-1.283,1.348,1.348,0,0,0-1.346-1.321h-.027a1.342,1.342,0,0,1-1.756.58h-.027a1.349,1.349,0,0,0-1.347,1.347v.682a1.346,1.346,0,0,0-.409-.064h-.033a1.352,1.352,0,0,0-1.347,1.329c0,.309-.059,3.381.01,4.611a6.4,6.4,0,0,0,1.218,3.767.772.772,0,0,1,.18.489v1.533h-.01a.783.783,0,0,0-.782.782v1a.688.688,0,0,0-.482.656v9.363a.469.469,0,0,0,.469.469H361.4a.469.469,0,0,0,.469-.469v-9.1a.946.946,0,0,0-.482-.823v-1.094a.782.782,0,0,0-.741-.78v-1.243a.744.744,0,0,1,.283-.588l.094-.076.007-.006a5.939,5.939,0,0,0,2.137-4.579V93.2a1.365,1.365,0,0,0-1.31-1.379Zm-.939,12.405h0a.008.008,0,0,1,.008.008v8.635h-6.519v-8.643Zm-6.025-.938v-.815h5.555v.815Zm7.335-8.243a5.059,5.059,0,0,1-.225,1.5,4.959,4.959,0,0,1-1.583,2.365l-.073.059a1.676,1.676,0,0,0-.64,1.325v1.241h-4.023V100a1.712,1.712,0,0,0-.395-1.086,5.511,5.511,0,0,1-1-3.223c-.067-1.195-.013-4.235-.009-4.546a.41.41,0,0,1,.408-.4h.033a.408.408,0,0,1,.409.409v2.634a.469.469,0,0,0,.938,0v-4.6a.409.409,0,0,1,.409-.409h.027a.409.409,0,0,1,.409.409v4.6a.469.469,0,0,0,.938,0V88.6a.409.409,0,0,1,.409-.409h.027a.409.409,0,0,1,.409.409v5.179a.469.469,0,0,0,.938,0V89.861a.409.409,0,1,1,.817,0v5.427a.2.2,0,0,1-.111.179,4.983,4.983,0,0,0-1.643,1.289.469.469,0,1,0,.739.578,4.138,4.138,0,0,1,1.33-1.031,1.135,1.135,0,0,0,.624-1.015V93.176a.42.42,0,0,1,.436-.42.435.435,0,0,1,.4.442v1.845Zm0,0" transform="translate(-331.23 -81.804)"/><path d="M8.6,156.221a6.4,6.4,0,0,0,1.218-3.767c.069-1.23.047-2.477.025-3.682-.006-.31-.011-.619-.015-.929a1.352,1.352,0,0,0-1.347-1.328H8.448a1.341,1.341,0,0,0-.409.064V145.9a1.348,1.348,0,0,0-1.347-1.347H6.665a1.335,1.335,0,0,0-.57.128,1.348,1.348,0,0,0-1.186-.708H4.883a1.348,1.348,0,0,0-1.346,1.321,1.347,1.347,0,0,0-1.757,1.283v2.021A1.361,1.361,0,0,0,0,149.908v1.845a6,6,0,0,0,.267,1.779,5.939,5.939,0,0,0,1.87,2.8l.007.006.094.076a.744.744,0,0,1,.283.588v1.243a.782.782,0,0,0-.741.78v1.094a.946.946,0,0,0-.482.823v2.124a.469.469,0,0,0,.938,0v-2.124a.008.008,0,0,1,.008-.008H8.755v5.1H2.236v-.775a.469.469,0,0,0-.938,0V166.5a.469.469,0,0,0,.469.469H9.224a.469.469,0,0,0,.469-.469v-5.819a.688.688,0,0,0-.482-.656v-1a.783.783,0,0,0-.782-.782H8.42v-1.533a.77.77,0,0,1,.18-.489ZM8.273,160H2.718v-.815H8.273Zm-.4-4.372a1.712,1.712,0,0,0-.395,1.086v1.533H3.459V157a1.677,1.677,0,0,0-.64-1.325l-.073-.059a4.961,4.961,0,0,1-1.583-2.365,5.057,5.057,0,0,1-.225-1.5v-1.845a.435.435,0,0,1,.4-.442.42.42,0,0,1,.436.42V152a1.135,1.135,0,0,0,.624,1.015,4.138,4.138,0,0,1,1.33,1.031.469.469,0,1,0,.739-.578,4.982,4.982,0,0,0-1.643-1.289A.2.2,0,0,1,2.718,152v-5.427a.409.409,0,1,1,.817,0v3.922a.469.469,0,1,0,.938,0v-5.179a.409.409,0,0,1,.409-.409h.027a.409.409,0,0,1,.409.409v5.179a.469.469,0,0,0,.938,0v-4.6a.409.409,0,0,1,.409-.409h.027a.409.409,0,0,1,.409.409v4.6a.469.469,0,1,0,.938,0v-2.634a.409.409,0,0,1,.409-.409h.033a.41.41,0,0,1,.408.4c0,.311.01.622.015.933.021,1.189.043,2.418-.024,3.613a5.513,5.513,0,0,1-1,3.223Zm0,0" transform="translate(0 -134.971)"/><path d="M178.613,5.117a1.47,1.47,0,0,0-.582.1V2.864A1.453,1.453,0,0,0,176.06,1.5V1.454A1.456,1.456,0,0,0,174.606,0h-.03a1.456,1.456,0,0,0-1.3.813,1.444,1.444,0,0,0-.666-.162h-.03a1.456,1.456,0,0,0-1.454,1.454v.846a1.45,1.45,0,0,0-.516-.095h-.037a1.459,1.459,0,0,0-1.454,1.434c0,.347-.066,3.792.011,5.17a7.122,7.122,0,0,0,1.353,4.194.924.924,0,0,1,.215.585v1.778h-.068a.821.821,0,0,0-.82.82v1.169a.714.714,0,0,0-.541.691V31.531a.469.469,0,0,0,.469.469H178.1a.469.469,0,0,0,.469-.469V22.374a.469.469,0,0,0-.938,0v8.687H170.2V18.922h7.364a.066.066,0,0,1,.066.066V20.2a.469.469,0,1,0,.938,0V18.988a1,1,0,0,0-.541-.89V16.837a.821.821,0,0,0-.82-.82H177.2V14.567a.892.892,0,0,1,.339-.705l.1-.084.007-.006a6.606,6.606,0,0,0,2.378-5.095V6.607a1.474,1.474,0,0,0-1.414-1.49Zm-7.869,12.867V16.955h6.349v1.029Zm8.345-9.307a5.731,5.731,0,0,1-.255,1.7,5.618,5.618,0,0,1-1.793,2.68l-.083.067a1.825,1.825,0,0,0-.7,1.442v1.449h-4.629V14.239a1.865,1.865,0,0,0-.429-1.182,6.236,6.236,0,0,1-1.14-3.649c-.076-1.343-.051-2.723-.027-4.058q.01-.523.017-1.047a.517.517,0,0,1,.516-.508h.037a.517.517,0,0,1,.516.516V7.265a.469.469,0,1,0,.938,0V2.105a.517.517,0,0,1,.516-.516h.03a.517.517,0,0,1,.516.516v5.16a.469.469,0,1,0,.938,0V1.454a.517.517,0,0,1,.516-.516h.03a.517.517,0,0,1,.516.516V7.265a.469.469,0,1,0,.938,0v-4.4a.516.516,0,1,1,1.032,0V8.954a.282.282,0,0,1-.156.252,5.536,5.536,0,0,0-1.825,1.43.469.469,0,1,0,.739.578,4.7,4.7,0,0,1,1.512-1.172,1.216,1.216,0,0,0,.669-1.088V6.583a.529.529,0,0,1,.549-.529.546.546,0,0,1,.51.553Zm0,0" transform="translate(-158.519)"/></g></g></svg>