<svg xmlns="http://www.w3.org/2000/svg" width="75" height="75" viewBox="0 0 75 75"><defs><style>.a{fill:#ffe9d1;}</style></defs><g transform="translate(-1074 -141)"><circle class="a" cx="37.5" cy="37.5" r="37.5" transform="translate(1074 141)"/><g transform="translate(1096 161.313)"><g transform="translate(0 1.688)"><g transform="translate(0 0)"><path d="M254.519,423.194c-.264.066-.533.124-.8.173a1.286,1.286,0,0,0,.469,2.53c.318-.059.638-.128.953-.207a1.286,1.286,0,0,0-.622-2.5Z" transform="translate(-235.287 -394.163)"/><path d="M412.833,138.744a1.286,1.286,0,0,0,2.442-.809c-.1-.307-.214-.616-.335-.916a1.286,1.286,0,1,0-2.389.955C412.653,138.227,412.748,138.486,412.833,138.744Z" transform="translate(-384.087 -126.957)"/><path d="M322.207,394.125c-.227.15-.461.295-.7.431a1.286,1.286,0,1,0,1.286,2.229c.281-.162.559-.334.83-.513a1.286,1.286,0,0,0-1.418-2.147Z" transform="translate(-298.795 -366.931)"/><path d="M430.206,208.547a1.286,1.286,0,1,0-2.571.1c.011.271.013.547.007.818a1.286,1.286,0,1,0,2.572.057C430.222,209.2,430.219,208.871,430.206,208.547Z" transform="translate(-398.218 -193.167)"/><path d="M379.375,344.326a1.286,1.286,0,0,0-1.8.257c-.163.218-.335.433-.511.64a1.287,1.287,0,0,0,.145,1.813c.031.026.062.05.094.073a1.286,1.286,0,0,0,1.719-.218c.21-.247.415-.5.61-.764A1.287,1.287,0,0,0,379.375,344.326Z" transform="translate(-350.84 -320.517)"/><path d="M415.717,279.411a1.286,1.286,0,0,0-1.612.843c-.081.259-.171.519-.269.774a1.286,1.286,0,0,0,2.4.916c.115-.3.223-.613.32-.921A1.287,1.287,0,0,0,415.717,279.411Z" transform="translate(-385.291 -260.252)"/><path d="M13.62,30.9a13.283,13.283,0,0,1-3.3-1.049c-.012-.006-.023-.014-.036-.02-.247-.116-.493-.24-.731-.37l0,0a13.723,13.723,0,0,1-1.28-.8A13.424,13.424,0,0,1,8.326,6.674l.046-.032a13.447,13.447,0,0,1,15.071-.121L22.437,7.974c-.279.4-.108.7.382.655l4.366-.391a.719.719,0,0,0,.651-.941L26.663,3.073c-.131-.474-.467-.53-.747-.126L24.909,4.4A15.887,15.887,0,0,0,13.267,1.927q-.618.107-1.218.26h-.008L12,2.2A15.862,15.862,0,0,0,3.2,8.1c-.019.022-.038.043-.055.067-.073.1-.145.2-.216.3-.116.165-.23.334-.34.5-.014.02-.024.041-.036.062A15.86,15.86,0,0,0,.017,18.382c0,.011,0,.022,0,.033.015.323.04.65.075.972,0,.021.006.04.01.061.036.324.081.648.137.973a15.876,15.876,0,0,0,4.477,8.609l.017.017.006.005a16.209,16.209,0,0,0,2.049,1.713,15.861,15.861,0,0,0,6.379,2.67A1.286,1.286,0,0,0,13.62,30.9Z" transform="translate(0 -1.688)"/><path d="M207.028,83.2a1.041,1.041,0,0,0-1.041,1.041v10.37l9.484,4.9a1.041,1.041,0,0,0,.956-1.849l-8.358-4.321v-9.1A1.041,1.041,0,0,0,207.028,83.2Z" transform="translate(-191.818 -77.591)"/></g></g></g></g></svg>