<svg xmlns="http://www.w3.org/2000/svg" width="75" height="75" viewBox="0 0 75 75"><defs><style>.a{fill:#ffe9d1;}.b{fill:#212529;}</style></defs><g transform="translate(-150 -141)"><circle class="a" cx="37.5" cy="37.5" r="37.5" transform="translate(150 141)"/><g transform="translate(156.396 163)"><path class="b" d="M29.627,148.917l-3.94-3.514a1.819,1.819,0,0,0-.962-.445v-.841a4.755,4.755,0,1,0-3.624-3.737,1.627,1.627,0,0,0-.686.156v-.349a1.906,1.906,0,1,0-3.813,0v4.723a1.536,1.536,0,0,0,.307.918l1.725,2.293a.47.47,0,1,0,.751-.565l-1.725-2.293a.591.591,0,0,1-.118-.353v-4.723a.967.967,0,1,1,1.933,0v4.034a.47.47,0,0,0,.14.335l5.912,5.812a.47.47,0,0,0,.66-.669l-2.337-2.3a.884.884,0,0,1,.072-1.323.883.883,0,0,1,1.138.033L29,149.618a1.4,1.4,0,0,1,.468,1.044v7.158a.47.47,0,1,0,.94,0v-7.158A2.34,2.34,0,0,0,29.627,148.917Zm-3.86-13.249a3.813,3.813,0,1,1-3.813,3.813A3.817,3.817,0,0,1,25.767,135.668Zm-5.351,6.346a.7.7,0,0,1,.7-.7.687.687,0,0,1,.3.071,4.742,4.742,0,0,0,.391.715v3.287l-1.392-1.369Zm2.925,3.319a1.824,1.824,0,0,0-.594.84v-2.661a.516.516,0,0,1,.093-.293,4.759,4.759,0,0,0,.945.578v1.277A1.827,1.827,0,0,0,23.341,145.333Z" transform="translate(0 -126.289)"/><path class="b" d="M67.61,362.248a.47.47,0,0,0-.751.565l2.134,2.836a.84.84,0,0,1,.168.5v4.761a.47.47,0,0,0,.94,0v-4.761a1.785,1.785,0,0,0-.356-1.067Z" transform="translate(-47.02 -339.381)"/><path class="b" d="M184.315,9.5a4.752,4.752,0,1,0-3.547-7.914.47.47,0,0,0,.7.625,3.814,3.814,0,1,1-.864,1.657.47.47,0,1,0-.914-.216A4.751,4.751,0,0,0,184.315,9.5Z" transform="translate(-152.752)"/><path class="b" d="M274.323,462.352a.47.47,0,0,0-.47.47v2.1a.47.47,0,0,0,.94,0v-2.1A.47.47,0,0,0,274.323,462.352Z" transform="translate(-241.136 -433.39)"/><path class="b" d="M284.1,138.28a1.908,1.908,0,0,0-1.906,1.906v.349a1.625,1.625,0,0,0-.686-.156,4.757,4.757,0,1,0-3.624,3.737v.841a1.818,1.818,0,0,0-.962.445l-3.94,3.514a2.34,2.34,0,0,0-.782,1.745v3.057a.47.47,0,1,0,.94,0v-3.057a1.4,1.4,0,0,1,.467-1.044l3.94-3.514a.883.883,0,0,1,1.138-.033.884.884,0,0,1,.072,1.323l-2.337,2.3a.47.47,0,0,0,.66.669l5.912-5.812a.47.47,0,0,0,.14-.335v-4.034a.967.967,0,1,1,1.933,0v4.723a.59.59,0,0,1-.118.353l-5.063,6.73a1.785,1.785,0,0,0-.357,1.067v4.761a.47.47,0,0,0,.94,0v-4.761a.84.84,0,0,1,.168-.5l5.063-6.73a1.536,1.536,0,0,0,.307-.918v-4.723A1.908,1.908,0,0,0,284.1,138.28Zm-2.6,3.039a.7.7,0,0,1,.7.7v2.009l-1.392,1.368v-3.287a4.747,4.747,0,0,0,.391-.715A.688.688,0,0,1,281.5,141.319Zm-8.468-1.838a3.813,3.813,0,1,1,3.813,3.813A3.817,3.817,0,0,1,273.029,139.481Zm5.794,5.594V143.8a4.756,4.756,0,0,0,.945-.578.516.516,0,0,1,.093.293v2.661a1.82,1.82,0,0,0-1.038-1.1Z" transform="translate(-239.482 -126.29)"/></g></g></svg>