<svg xmlns="http://www.w3.org/2000/svg" width="75" height="75" viewBox="0 0 75 75"><defs><style>.a{fill:#ffe9d1;}</style></defs><g transform="translate(-458 -141)"><circle class="a" cx="37.5" cy="37.5" r="37.5" transform="translate(458 141)"/><g transform="translate(480 163)"><path d="M32,6.875a1.878,1.878,0,0,0-1.383-1.809,1.873,1.873,0,0,0-1.25-2.5A1.874,1.874,0,0,0,27.625,0H20.887A9.28,9.28,0,0,0,16.8.966l-.568.284H9.375a1.864,1.864,0,0,0-.691.133,1.875,1.875,0,0,0-3.618,0,1.873,1.873,0,0,0-2.5,1.25A1.874,1.874,0,0,0,0,4.375v6.738a9.712,9.712,0,0,0,1.25,4.66v6.852a1.864,1.864,0,0,0,.133.691,1.875,1.875,0,0,0,0,3.618,1.873,1.873,0,0,0,1.25,2.5A1.874,1.874,0,0,0,4.375,32H5.881a.625.625,0,0,0,0-1.25H4.375a.625.625,0,0,1,0-1.25h1.25a.625.625,0,0,0,0-1.25h-2.5a.625.625,0,0,1,0-1.25h2.5a.625.625,0,0,0,0-1.25H1.875a.625.625,0,0,1,0-1.25h3.75a.625.625,0,0,0,0-1.25h-2.5a.625.625,0,0,1,0-1.25h6.25A.625.625,0,0,0,10,21.375V20.75h1.575a3.867,3.867,0,0,1,3.49,2.153.625.625,0,0,0,.56.347H20.75v5.625a1.866,1.866,0,0,0,.108.625H16.875a.624.624,0,0,0-.279.066l-.7.349a8.02,8.02,0,0,1-3.535.835h-.869a.625.625,0,0,0,0,1.25h.869a9.279,9.279,0,0,0,4.092-.966l.568-.284h5.6a1.864,1.864,0,0,0,.691-.133,1.875,1.875,0,0,0,3.618,0,1.873,1.873,0,0,0,2.5-1.25A1.874,1.874,0,0,0,32,27.625v-7.5a.622.622,0,0,0-.06-.265,9.345,9.345,0,0,0-.906-3.064l-.284-.568V9.375a1.864,1.864,0,0,0-.133-.691A1.878,1.878,0,0,0,32,6.875ZM8.75,20.75H3.125a1.866,1.866,0,0,0-.625.108V15.625a.625.625,0,0,0-.066-.28A8.808,8.808,0,0,1,1.25,11.113V4.375a.625.625,0,0,1,1.25,0v1.25a.625.625,0,0,0,1.25,0v-2.5a.625.625,0,0,1,1.25,0v2.5a.625.625,0,0,0,1.25,0V1.875a.625.625,0,0,1,1.25,0v3.75a.625.625,0,1,0,1.25,0v-2.5a.625.625,0,0,1,1.25,0v6.25a.625.625,0,0,0,.625.625h.625v1.575A3.917,3.917,0,0,1,9.1,15.065a.625.625,0,0,0-.347.56Zm2.825-1.25H10V16a5.11,5.11,0,0,0,2.5-4.421V10H16a5.109,5.109,0,0,0,4.421,2.5H22V16a5.109,5.109,0,0,0-2.5,4.421V22H16a5.11,5.11,0,0,0-4.421-2.5ZM30.75,27.625a.625.625,0,0,1-1.25,0v-1.25a.625.625,0,0,0-1.25,0v2.5a.625.625,0,0,1-1.25,0v-2.5a.625.625,0,0,0-1.25,0v3.75a.625.625,0,0,1-1.25,0v-3.75a.625.625,0,0,0-1.25,0v2.5a.625.625,0,0,1-1.25,0v-6.25A.625.625,0,0,0,21.375,22H20.75V20.425a3.867,3.867,0,0,1,2.153-3.49.625.625,0,0,0,.347-.56V11.25h5.625a1.866,1.866,0,0,0,.625-.108v5.233a.625.625,0,0,0,.066.279l.349.7a8.02,8.02,0,0,1,.835,3.535ZM30.125,7.5h-3.75a.625.625,0,0,0,0,1.25h2.5a.625.625,0,0,1,0,1.25h-6.25a.625.625,0,0,0-.625.625v.625H20.425A3.917,3.917,0,0,1,16.935,9.1a.625.625,0,0,0-.56-.347H11.25V3.125a1.866,1.866,0,0,0-.108-.625h5.233a.625.625,0,0,0,.28-.066A8.808,8.808,0,0,1,20.887,1.25h6.738a.625.625,0,0,1,0,1.25h-1.25a.625.625,0,0,0,0,1.25h2.5a.625.625,0,0,1,0,1.25h-2.5a.625.625,0,0,0,0,1.25h3.75a.625.625,0,0,1,0,1.25Z"/><circle cx="0.625" cy="0.625" r="0.625" transform="translate(8.125 30.563)"/></g></g></svg>