<svg id="Layer_1" data-name="Layer 1" xmlns="http://www.w3.org/2000/svg" viewBox="0 0 30 18.76"><rect width="3.64" height="18.46" rx="1.82" fill="#303d45"/><rect x="4.19" y="5.3" width="3.64" height="12.65" rx="1.82" transform="translate(-7.46 1.03) rotate(-45)" fill="#303d45"/><rect x="12.54" y="5.96" width="3.64" height="8.12" rx="1.82" transform="translate(16.42 20.64) rotate(-135)" fill="#303d45"/><path d="M31,17.83v3.42a3.53,3.53,0,0,1-.13,1.08,1.71,1.71,0,0,1-.5.74,4.33,4.33,0,0,1-.92.63A14,14,0,0,1,26.34,25a12.44,12.44,0,0,1-3.26.4,10.69,10.69,0,0,1-3.75-.63,7.86,7.86,0,0,1-2.88-1.84A8.15,8.15,0,0,1,14.62,20,10.8,10.8,0,0,1,14,16.16a11.28,11.28,0,0,1,.62-3.81,7.8,7.8,0,0,1,1.83-2.93,8,8,0,0,1,2.93-1.84,11.15,11.15,0,0,1,3.92-.64,9.66,9.66,0,0,1,3.18.48,6.82,6.82,0,0,1,2.25,1.21A5.27,5.27,0,0,1,30,10.18a3,3,0,0,1,.44,1.44,1.55,1.55,0,0,1-.5,1.16,1.68,1.68,0,0,1-2,.3,1.64,1.64,0,0,1-.6-.51A16.29,16.29,0,0,0,26.26,11a3.63,3.63,0,0,0-1.25-.9,4.8,4.8,0,0,0-2-.36,5.49,5.49,0,0,0-2.24.43,4.63,4.63,0,0,0-1.69,1.25,5.84,5.84,0,0,0-1.07,2,9.15,9.15,0,0,0-.37,2.64,7.22,7.22,0,0,0,1.44,4.83,5,5,0,0,0,4,1.69,8.57,8.57,0,0,0,2.36-.32,12.37,12.37,0,0,0,2.23-.94v-2.9h-2.8a3.07,3.07,0,0,1-1.52-.3,1.09,1.09,0,0,1-.52-1,1.27,1.27,0,0,1,.43-1,1.7,1.7,0,0,1,1.18-.39h4.09a5.74,5.74,0,0,1,1.28.13,1.46,1.46,0,0,1,.85.6A2.48,2.48,0,0,1,31,17.83Z" transform="translate(-1 -6.62)" fill="#821623"/></svg>