<svg xmlns="http://www.w3.org/2000/svg" width="90.051" height="109.46" viewBox="0 0 90.051 109.46"><g transform="translate(-2.771 0)"><path d="M41.468,17.473a13.428,13.428,0,0,0,7.409,8.6s.21-2.14.8-2.343a1.814,1.814,0,0,1,.868,1.138S52,11.138,45.754,6.015l.021-.074c-13.037-11.51-27.8-2.752-27.8-2.752-10.82,6.961-7.8,22-7.8,22C30.525,27.116,41.149,17.756,41.468,17.473Z" transform="translate(17.55 0)" fill="#3073ba"/><path d="M86.366,44.974c-1.989-4.43-12.375-8.365-15.95-9.609C64.862,23.194,67.86,7.825,67.86,7.825c-.977,4.367-2.238,6.04-2.238,6.04-.977,7.9-7.413,14.406-7.413,14.406a14.937,14.937,0,0,0,.655,5.463C48.916,49.81,40.778,41.4,36.769,34.84a14.273,14.273,0,0,0,1.089-6.569s-6.436-6.506-7.42-14.406c0,0-1.254-1.674-2.238-6.04,0,0,2.99,15.316-2.528,27.481-4.286,1.835-8.593,3.137-8.593,3.137a15.273,15.273,0,0,0-6.615,4.468C3.573,53.108,2.771,75.82,2.771,75.82c.084,5.189,2.315,5.722,2.315,5.722,15.827,7.059,40.644,8.316,40.644,8.316,25.475.539,44.033-7.241,44.033-7.241,2.7-1.7,2.777-3.036,2.777-3.036C94.413,63.3,86.366,44.974,86.366,44.974Z" transform="translate(0 19.575)" fill="#3073ba"/></g></svg>