<?xml version="1.0" encoding="utf-8"?>
<!-- Generator: Adobe Illustrator 16.0.0, SVG Export Plug-In . SVG Version: 6.00 Build 0)  -->
<!DOCTYPE svg PUBLIC "-//W3C//DTD SVG 1.1//EN" "http://www.w3.org/Graphics/SVG/1.1/DTD/svg11.dtd">
<svg version="1.1" xmlns="http://www.w3.org/2000/svg" xmlns:xlink="http://www.w3.org/1999/xlink" x="0px" y="0px" width="16px"
	 height="13.2px" viewBox="0 0 16 13.2" enable-background="new 0 0 16 13.2" xml:space="preserve">
<g id="Layer_2" display="none">
	
		<rect x="-27.334" y="-88.167" display="inline" fill="#421212" stroke="#000000" stroke-width="1.5602" stroke-miterlimit="10" width="675" height="160.666"/>
</g>
<g id="Layer_1">
	
		<rect x="-14.834" y="-83.542" display="none" fill-rule="evenodd" clip-rule="evenodd" fill="#C10C0C" width="655.5" height="106.75"/>
	<g>
		<path fill-rule="evenodd" clip-rule="evenodd" fill="#FFFFFF" d="M14.486,6.155c0.154,0.884,0.464,1.725,0.676,2.594
			c0.052,0.209,0.105,0.418,0.16,0.64c-0.257,0.1-0.499,0.066-0.728,0.049c-0.332-0.023-0.401,0.126-0.396,0.422
			c0.015,0.776,0.005,1.553,0.005,2.328c0,0.12,0.007,0.242-0.002,0.36c-0.034,0.409-0.24,0.63-0.574,0.627
			c-0.33-0.002-0.545-0.23-0.552-0.64c-0.012-0.835-0.004-1.673-0.005-2.51c0-0.139-0.001-0.279-0.01-0.416
			c-0.003-0.06-0.03-0.117-0.096-0.129c-0.103-0.021-0.143,0.05-0.146,0.133c-0.007,0.278-0.008,0.558-0.008,0.836
			c-0.002,0.618,0,1.234-0.002,1.853c0,0.12,0.01,0.241-0.009,0.358c-0.054,0.308-0.285,0.511-0.569,0.515
			c-0.309,0.005-0.548-0.212-0.569-0.566c-0.021-0.377-0.006-0.758-0.006-1.136c-0.001-0.459,0.003-0.916-0.001-1.375
			c-0.006-0.741,0.075-0.644-0.62-0.652c-0.138-0.002-0.276,0-0.481,0c0.211-1.186,0.652-2.271,0.861-3.411
			c0.057-0.26,0.027-0.533,0.109-0.713c-0.01,0.125-0.083,0.303-0.236,0.438c-0.156,0.493-0.301,0.992-0.474,1.479
			c-0.14,0.399-0.239,0.468-0.664,0.366c-0.195-0.045-0.251,0.023-0.32,0.151C9.596,8.174,9.363,8.593,9.132,9.013
			C9.011,9.23,8.989,9.457,9.06,9.701c0.13,0.442,0.241,0.886,0.363,1.327c0.033,0.116,0.083,0.267-0.094,0.273
			c-0.324,0.019-0.32,0.222-0.315,0.455c0.009,0.317,0.015,0.639-0.002,0.957c-0.015,0.296-0.193,0.465-0.438,0.461
			c-0.24-0.004-0.411-0.178-0.426-0.474c-0.016-0.318,0.002-0.639-0.008-0.958c-0.004-0.129,0.065-0.282-0.094-0.379
			c-0.192,0.006-0.138,0.157-0.14,0.256c-0.009,0.359,0.008,0.719-0.009,1.078c-0.015,0.298-0.184,0.47-0.428,0.476
			c-0.248,0.006-0.438-0.153-0.462-0.451c-0.028-0.336-0.008-0.679-0.013-1.017c-0.002-0.134,0.044-0.34-0.123-0.36
			c-0.364-0.045-0.28-0.249-0.218-0.466c0.018-0.056,0.04-0.112,0.055-0.17c0.41-1.527,0.389-1.646-0.488-2.944
			C6.135,7.642,6.079,7.595,5.895,7.639C5.408,7.754,5.249,7.611,5.236,7.091C5.22,6.435,5.232,5.774,5.231,5.116
			c0-0.16-0.001-0.319-0.013-0.478c-0.008-0.101-0.041-0.2-0.175-0.185c-0.1,0.012-0.121,0.094-0.125,0.173
			C4.911,4.786,4.908,4.946,4.908,5.106c-0.001,2.354,0,4.708-0.001,7.063c0,0.16,0.015,0.322-0.014,0.478
			c-0.056,0.312-0.34,0.529-0.64,0.522c-0.273-0.008-0.54-0.213-0.6-0.499c-0.034-0.152-0.022-0.316-0.022-0.477
			C3.63,10.92,3.633,9.64,3.628,8.362C3.627,8.179,3.69,7.968,3.489,7.791c-0.212,0.124-0.144,0.32-0.145,0.476
			c-0.006,1.257-0.002,2.514-0.005,3.771c-0.001,0.2,0,0.402-0.042,0.595c-0.076,0.355-0.369,0.571-0.683,0.535
			c-0.295-0.031-0.53-0.273-0.565-0.603c-0.017-0.157-0.007-0.318-0.007-0.479c0-2.354,0.003-4.709-0.006-7.063
			c0-0.195,0.127-0.548-0.148-0.557c-0.307-0.01-0.167,0.344-0.173,0.534C1.693,5.539,1.716,6.079,1.703,6.616
			C1.695,7.018,1.717,7.384,1.421,7.778c-0.26,0.343-0.223,0.908-0.311,1.378c-0.213,1.136-0.421,2.272-0.632,3.406
			c-0.004,0.021,0,0.045-0.01,0.059c-0.096,0.152,0.013,0.493-0.273,0.44c-0.304-0.058-0.104-0.328-0.073-0.498
			c0.265-1.449,0.543-2.896,0.813-4.343C0.981,7.971,1.06,7.722,0.888,7.47C0.82,7.368,0.841,7.2,0.84,7.063
			C0.836,6.104,0.873,5.146,0.826,4.189c-0.033-0.65,0.521-1.421,1.276-1.485C3.018,2.628,3.939,2.606,4.848,2.71
			c0.789,0.087,1.269,0.678,1.285,1.48C6.15,5.029,6.138,5.867,6.137,6.705c0,0.188-0.005,0.354,0.275,0.331
			c0.174-0.015,0.269,0.146,0.352,0.288c0.091,0.153,0.195,0.3,0.282,0.459c0.148,0.269,0.352,0.425,0.676,0.375
			c0.078-0.014,0.162-0.017,0.238,0c0.603,0.121,0.98-0.14,1.226-0.681C9.289,7.25,9.407,6.992,9.745,7.028
			C9.953,7.05,9.943,6.874,9.981,6.75c0.236-0.762,0.466-1.524,0.704-2.284c0.061-0.189,0.128-0.379,0.222-0.552
			c0.214-0.399,0.532-0.624,1.01-0.612c0.659,0.017,1.318,0.023,1.976-0.003c0.564-0.022,0.944,0.244,1.115,0.729
			c0.344,0.977,0.641,1.968,0.929,2.962c0.104,0.357-0.049,0.603-0.326,0.666c-0.247,0.059-0.449-0.071-0.568-0.409
			c-0.157-0.451-0.29-0.91-0.432-1.366c-0.187-0.154-0.221-0.378-0.242-0.484C14.425,5.569,14.445,5.865,14.486,6.155z M4.587,1.145
			C4.58,0.527,4.105,0.041,3.499,0.025C2.897,0.01,2.337,0.548,2.329,1.152C2.32,1.766,2.846,2.283,3.477,2.282
			C4.124,2.282,4.596,1.799,4.587,1.145z M12.939,0.681c-0.617-0.004-1.096,0.487-1.076,1.104c0.018,0.59,0.496,1.039,1.09,1.026
			c0.588-0.013,1.06-0.49,1.054-1.07C14,1.161,13.52,0.684,12.939,0.681z M7.111,6.763c0.001,0.482,0.438,0.91,0.92,0.901
			c0.475-0.011,0.854-0.391,0.867-0.872c0.013-0.522-0.355-0.91-0.869-0.916C7.526,5.87,7.11,6.271,7.111,6.763z"/>
	</g>
</g>
</svg>
