<svg xmlns="http://www.w3.org/2000/svg" width="524.234" height="521.784" viewBox="0 0 524.234 521.784">
  <g id="noun-graph-1117387" transform="translate(-87.883 -19.111)">
    <path id="Path_2802" data-name="Path 2802" d="M122.61,53.445c6.5,147.47,5.617,295.04,4.371,442.61a13.657,13.657,0,0,0,13.461,13.461q217.9,1.7,435.8-.641c17.312-.187,17.359-27.109,0-26.922q-217.89,2.338-435.8.641L153.9,496.055c1.246-147.57,2.125-295.14-4.371-442.61-.758-17.258-27.688-17.352-26.922,0Z" fill="#3e8beb"/>
    <path id="Path_2803" data-name="Path 2803" d="M552.63,471.02c9.883,8.691,22.031,16.977,30.621,26.926q5.508-6.709-1.066.031l-7.156,6.711q-7.154,6.709-14.309,13.422c-12.664,11.879,6.4,30.891,19.039,19.039,10.9-10.227,34.547-24.523,32.2-41.992-1.144-8.508-7.484-14.2-13.492-19.609-8.836-7.953-17.863-15.711-26.793-23.562-12.965-11.4-32.082,7.566-19.039,19.035Z" fill="#3e8beb"/>
    <path id="Path_2804" data-name="Path 2804" d="M107.58,82.219A118.766,118.766,0,0,0,128.2,65.242a114.707,114.707,0,0,0,7.891-9.457q1.852-2.344,3.52-4.812,4.5-5.742.742-2.293-5.186-.68-10.371-1.355c2.828,1.379,8.8,10.582,11.09,12.965q8.619,8.988,17.289,17.934c12.047,12.5,31.074-6.555,19.039-19.039C169.467,50.957,160.6,43.071,153.5,34.1c-5.137-6.488-9.168-12.379-18.512-11.625-8.676.7-12.836,6.594-17.469,13.125A89.542,89.542,0,0,1,93.99,58.969c-14.316,9.606-.855,32.938,13.59,23.25Z" fill="#3e8beb"/>
    <path id="Path_2805" data-name="Path 2805" d="M186.76,474.38c0,1.5,0,2.992.008,4.484.023,17.324,26.926,17.352,26.922,0q-.012-48.27-.02-96.535L200.209,395.79q30.574-1.506,61.145-3.008-6.492-4.939-12.98-9.883c5.016,15.742,2.121,35.414,2.113,51.684q-.006,27.076-.016,54.152c0,17.324,26.918,17.352,26.922,0q.006-31.242.016-62.484c0-16.66,2.039-34.438-3.078-50.508-1.73-5.434-6.957-10.18-12.98-9.883q-30.574,1.506-61.145,3.008c-7.266.359-13.465,5.879-13.461,13.461q.012,48.27.02,96.535h26.922c0-1.5,0-2.992-.008-4.484-.02-17.324-26.941-17.355-26.918,0Z" fill="#3e8beb"/>
    <path id="Path_2806" data-name="Path 2806" d="M331.64,486.95q2.256-117.657,1.176-235.32l-13.461,13.461a443.15,443.15,0,0,1,67.4-.473l-13.461-13.461q.1,117.445.2,234.89c.016,17.324,26.938,17.352,26.922,0q-.1-117.445-.2-234.89c-.008-7.645-6.18-12.965-13.461-13.461a443.153,443.153,0,0,0-67.4.473c-7.2.594-13.531,5.688-13.461,13.461q1.084,117.673-1.176,235.32C304.386,504.282,331.308,504.282,331.64,486.95Z" fill="#3e8beb"/>
    <path id="Path_2807" data-name="Path 2807" d="M451.75,487.93c-10.117-111.2-1.687-226.13-1.3-337.79L436.992,163.6c21.242-1.336,41.938-1.8,63.215-1.422l-13.461-13.461q1.605,168.21-.184,336.42c-.184,17.328,26.738,17.344,26.922,0q1.787-168.21.184-336.42a13.691,13.691,0,0,0-13.461-13.461c-21.281-.379-41.977.086-63.215,1.422-7.281.457-13.434,5.8-13.461,13.461-.395,111.63-8.82,226.58,1.3,337.79C426.383,505.043,453.32,505.207,451.75,487.93Z" fill="#3e8beb"/>
    <path id="Path_2808" data-name="Path 2808" d="M237.85,196.41c18.52-14.465,51.352-68.84,74.191-57.133,13.68,7.012,14.266,25.438,34,20.039,20.3-5.555,37.664-31.031,52.75-45.426,19.98-19.066,42.352-36.742,57.2-60.293,9.27-14.7-14.02-28.223-23.246-13.59-15.859,25.152-44.461,48.781-67.273,67.9-.5.418-27.605,22.516-26.32,22.582-8.312-.441-12.164-25.1-21.754-28.77-36.082-13.789-74.566,56.887-98.586,75.652-13.641,10.656,5.535,29.59,19.039,19.039Z" fill="#3e8beb"/>
    <path id="Path_2809" data-name="Path 2809" d="M412,48.047q11.443-.457,22.891-.918c6.207-.25,14.871-2.215,20.918-1.1l-8.047-6.187c2.02,4.012,1.6,12.246,1.715,16.73A122.448,122.448,0,0,1,448.4,75.019c-.914,7.273,6.844,13.391,13.461,13.461,8.023.082,12.559-6.277,13.461-13.461a122.092,122.092,0,0,0,.234-29.512c-.9-7.77-1.3-17.84-8.02-23.031-6.77-5.223-17.117-2.891-25.023-2.574q-15.258.609-30.52,1.223c-17.262.691-17.352,27.617,0,26.922Z" fill="#3e8beb"/>
  </g>
</svg>
