<svg xmlns="http://www.w3.org/2000/svg" width="28" height="26.833" viewBox="0 0 28 26.833"><defs><style>.a{fill:#444;}</style></defs><g transform="translate(0 -10.667)"><g transform="translate(0 22.334)"><g transform="translate(0 0)"><path class="a" d="M2.917,224A2.921,2.921,0,0,0,0,226.917v9.333a2.921,2.921,0,0,0,2.917,2.917h3.5a2.9,2.9,0,0,0,1.75-.59V224Z" transform="translate(0 -224)"/></g></g><g transform="translate(9.333 10.667)"><path class="a" d="M189.334,26.709a2.587,2.587,0,0,0-.759-1.836,2.9,2.9,0,0,0,.747-2.227A3.016,3.016,0,0,0,186.278,20h-7.207A16.773,16.773,0,0,0,180,15.334c0-2.531-2.15-4.667-3.5-4.667a3.67,3.67,0,0,0-2.115.711.586.586,0,0,0-.218.456V15.79l-3.36,7.279-.14.071v12.5a7.644,7.644,0,0,0,2.917.69h10.709a2.684,2.684,0,0,0,2.644-2.038,2.624,2.624,0,0,0-.211-1.752,2.613,2.613,0,0,0,1.168-3.5A2.612,2.612,0,0,0,189.334,26.709Z" transform="translate(-170.667 -10.667)"/></g></g></svg>