<svg xmlns="http://www.w3.org/2000/svg" xmlns:xlink="http://www.w3.org/1999/xlink" width="557.649" height="521.093" viewBox="0 0 557.649 521.093"><defs><linearGradient id="a" x1="-0.493" y1="0.925" x2="1.045" y2="0.267" gradientUnits="objectBoundingBox"><stop offset="0" stop-color="#e4f2ff" stop-opacity="0"/><stop offset="0.108" stop-color="#deecfe" stop-opacity="0.141"/><stop offset="0.357" stop-color="#d2e2fc" stop-opacity="0.443"/><stop offset="0.579" stop-color="#c9d9fb" stop-opacity="0.682"/><stop offset="0.767" stop-color="#c2d3fa" stop-opacity="0.855"/><stop offset="0.913" stop-color="#becffa" stop-opacity="0.961"/><stop offset="0.999" stop-color="#bdcefa"/></linearGradient><linearGradient id="b" x1="1.424" y1="0.166" x2="-1.105" y2="1.081" gradientUnits="objectBoundingBox"><stop offset="0" stop-color="#fff"/><stop offset="0.121" stop-color="#f4f7fe" stop-opacity="0.843"/><stop offset="0.366" stop-color="#e1e8fc" stop-opacity="0.549"/><stop offset="0.585" stop-color="#d1ddfb" stop-opacity="0.314"/><stop offset="0.77" stop-color="#c6d4fa" stop-opacity="0.141"/><stop offset="0.914" stop-color="#bfcffa" stop-opacity="0.039"/><stop offset="0.999" stop-color="#bdcefa" stop-opacity="0"/></linearGradient><linearGradient id="c" x1="1.484" y1="-0.291" x2="-1.655" y2="2.232" xlink:href="#b"/><linearGradient id="d" x1="4.01" y1="-0.608" x2="-4.505" y2="2.079" xlink:href="#b"/><linearGradient id="e" x1="3.182" y1="-0.346" x2="-5.333" y2="2.341" xlink:href="#b"/><linearGradient id="f" x1="1.816" y1="-0.641" x2="-1.409" y2="2.155" xlink:href="#b"/><linearGradient id="g" x1="1.839" y1="-0.66" x2="-1.387" y2="2.135" xlink:href="#b"/><linearGradient id="h" x1="1.862" y1="-0.68" x2="-1.364" y2="2.115" xlink:href="#b"/><linearGradient id="i" x1="1.042" y1="-0.009" x2="-0.053" y2="1.019" gradientUnits="objectBoundingBox"><stop offset="0" stop-color="#c3e0fe"/><stop offset="0.056" stop-color="#c0ddfc"/><stop offset="0.648" stop-color="#abc2ed"/><stop offset="0.999" stop-color="#a3b9e8"/></linearGradient><linearGradient id="j" x1="0.791" y1="-0.155" x2="-0.27" y2="0.904" gradientUnits="objectBoundingBox"><stop offset="0" stop-color="#bedaff"/><stop offset="1" stop-color="#fff" stop-opacity="0"/></linearGradient><linearGradient id="k" x1="1.098" y1="-0.068" x2="-0.759" y2="1.695" gradientUnits="objectBoundingBox"><stop offset="0" stop-color="#e4f2ff"/><stop offset="0.056" stop-color="#e1effe"/><stop offset="0.648" stop-color="#c6d7fb"/><stop offset="0.999" stop-color="#bdcefa"/></linearGradient><linearGradient id="l" x1="0.5" x2="0.5" y2="1.08" gradientUnits="objectBoundingBox"><stop offset="0.001" stop-color="#a9bdea"/><stop offset="1" stop-color="#fff" stop-opacity="0"/></linearGradient><linearGradient id="m" x1="0.04" y1="0.21" x2="1.125" y2="0.894" gradientUnits="objectBoundingBox"><stop offset="0" stop-color="#00e9ff"/><stop offset="0.181" stop-color="#00d1ff"/><stop offset="0.546" stop-color="#01a6ff"/><stop offset="0.831" stop-color="#028bff"/><stop offset="0.999" stop-color="#0382ff"/></linearGradient><linearGradient id="n" x1="1.295" y1="-0.689" x2="-0.878" y2="2.561" xlink:href="#b"/><linearGradient id="o" x1="0.966" y1="-0.213" x2="-0.759" y2="2.427" xlink:href="#b"/><linearGradient id="p" x1="0.883" y1="-0.087" x2="-0.842" y2="2.554" xlink:href="#b"/><linearGradient id="q" x1="1.008" y1="-0.07" x2="-0.017" y2="1.08" xlink:href="#k"/><linearGradient id="r" x1="0.787" y1="0.147" x2="-0.252" y2="1.964" xlink:href="#b"/><linearGradient id="s" x1="1.191" y1="0.296" x2="-1.216" y2="1.012" xlink:href="#k"/><linearGradient id="t" x1="0.5" y1="1.206" x2="0.5" y2="-0.087" gradientUnits="objectBoundingBox"><stop offset="0.072" stop-color="#55d1ff"/><stop offset="0.164" stop-color="#4fc3ee" stop-opacity="0.933"/><stop offset="0.347" stop-color="#409fc2" stop-opacity="0.761"/><stop offset="0.602" stop-color="#29667a" stop-opacity="0.482"/><stop offset="0.919" stop-color="#09181a" stop-opacity="0.102"/><stop offset="1" stop-color="#010400" stop-opacity="0"/></linearGradient><linearGradient id="u" x1="0.987" y1="0.012" x2="-0.382" y2="1.412" xlink:href="#k"/><linearGradient id="w" x1="0.974" y1="0.026" x2="-0.395" y2="1.426" xlink:href="#k"/><linearGradient id="y" x1="0.961" y1="0.039" x2="-0.408" y2="1.439" xlink:href="#k"/><linearGradient id="aa" x1="0.948" y1="0.053" x2="-0.421" y2="1.452" xlink:href="#k"/><linearGradient id="ac" x1="0.935" y1="0.066" x2="-0.434" y2="1.466" xlink:href="#k"/><linearGradient id="ae" x1="3.37" y1="0.43" x2="-0.298" y2="0.519" gradientUnits="objectBoundingBox"><stop offset="0" stop-color="#fff"/><stop offset="0.582" stop-color="#dae3fc"/><stop offset="0.999" stop-color="#bdcefa"/></linearGradient><linearGradient id="af" x1="2.076" y1="0.462" x2="-0.641" y2="0.528" xlink:href="#ae"/><linearGradient id="ag" x1="1.975" y1="0.464" x2="-0.742" y2="0.53" xlink:href="#ae"/><linearGradient id="ah" x1="1.873" y1="0.467" x2="-0.843" y2="0.533" xlink:href="#ae"/><linearGradient id="ai" x1="3.735" y1="0.421" x2="-1.984" y2="0.56" xlink:href="#ae"/><linearGradient id="aj" x1="2.656" y1="0.448" x2="-1.012" y2="0.537" xlink:href="#ae"/><linearGradient id="ak" x1="1.47" y1="0.476" x2="-0.939" y2="0.535" xlink:href="#ae"/><linearGradient id="al" x1="1.005" y1="0.5" x2="0.007" y2="0.5" xlink:href="#ae"/><linearGradient id="am" x1="1.021" y1="0.468" x2="-0.004" y2="0.511" xlink:href="#ae"/><linearGradient id="an" x1="0.999" y1="0.552" x2="0.005" y2="0.473" xlink:href="#ae"/><linearGradient id="ao" x1="1.004" y1="0.5" x2="0" y2="0.5" xlink:href="#ae"/><linearGradient id="ap" x1="0.991" y1="0.5" x2="-0.003" y2="0.5" xlink:href="#ae"/><linearGradient id="aq" x1="0.995" y1="0.5" x2="0.015" y2="0.5" xlink:href="#ae"/><linearGradient id="ar" x1="1.538" y1="0.451" x2="-0.528" y2="0.548" xlink:href="#ae"/><linearGradient id="as" x1="1.641" y1="0.446" x2="-0.425" y2="0.544" xlink:href="#ae"/><linearGradient id="at" x1="1.745" y1="0.441" x2="-0.321" y2="0.539" xlink:href="#ae"/><linearGradient id="au" x1="2.795" y1="0.392" x2="-1.554" y2="0.597" xlink:href="#ae"/><linearGradient id="av" x1="1.089" y1="0.472" x2="-0.544" y2="0.549" xlink:href="#ae"/><linearGradient id="aw" x1="1.857" y1="0.436" x2="0.026" y2="0.522" xlink:href="#ae"/><linearGradient id="ax" x1="1.031" y1="0.349" x2="-0.233" y2="0.644" xlink:href="#ae"/><linearGradient id="ay" x1="1.033" y1="0.349" x2="-0.231" y2="0.643" xlink:href="#ae"/><linearGradient id="az" x1="1.036" y1="0.348" x2="-0.229" y2="0.643" xlink:href="#ae"/><linearGradient id="ba" x1="1.495" y1="0.326" x2="0.222" y2="0.506" xlink:href="#a"/><linearGradient id="bb" x1="0" y1="0.5" x2="1" y2="0.5" xlink:href="#m"/><linearGradient id="bc" x1="0.5" y1="0.147" x2="0.5" y2="1.327" gradientUnits="objectBoundingBox"><stop offset="0" stop-color="#fff" stop-opacity="0"/><stop offset="1" stop-color="#00e9ff"/></linearGradient><linearGradient id="bd" x1="0.392" y1="1.504" x2="0.658" y2="-0.968" gradientUnits="objectBoundingBox"><stop offset="0" stop-color="#0382ff" stop-opacity="0"/><stop offset="0.16" stop-color="#208bfe" stop-opacity="0.169"/><stop offset="0.745" stop-color="#8babfe" stop-opacity="0.761"/><stop offset="0.999" stop-color="#b6b9fe"/></linearGradient><linearGradient id="be" x1="0.621" y1="0.311" x2="-0.692" y2="2.369" xlink:href="#b"/><linearGradient id="bf" x1="1.264" y1="-0.63" x2="-1.343" y2="3.229" xlink:href="#b"/><linearGradient id="bg" x1="1.214" y1="-0.159" x2="-0.067" y2="0.984" xlink:href="#ae"/><linearGradient id="bh" x1="5.448" y1="-0.166" x2="-4.321" y2="1.149" xlink:href="#b"/><linearGradient id="bi" x1="4.261" y1="-0.213" x2="-5.508" y2="1.639" xlink:href="#b"/><linearGradient id="bj" x1="4.835" y1="-0.131" x2="-4.932" y2="1.291" xlink:href="#b"/><linearGradient id="bk" x1="4.924" y1="-0.096" x2="-4.842" y2="1.219" xlink:href="#b"/><linearGradient id="bl" x1="2.584" y1="-0.24" x2="-7.182" y2="3.229" xlink:href="#b"/><linearGradient id="bm" y1="0.5" x2="1" y2="0.5" gradientUnits="objectBoundingBox"><stop offset="0.07" stop-color="#8347e2"/><stop offset="0.275" stop-color="#773bd1"/><stop offset="0.676" stop-color="#581ca5"/><stop offset="1" stop-color="#3d007e"/></linearGradient></defs><g transform="translate(-76.548 -58.572)"><g transform="translate(81.391 302.905)"><g transform="translate(321.571)"><path d="M320.264,231.252l-4.872,2.814c-2.54,1.466-2.54,3.844,0,5.31l4.872,2.814a10.171,10.171,0,0,0,9.2,0l4.872-2.814c2.54-1.466,2.54-3.844,0-5.31l-4.872-2.814A10.17,10.17,0,0,0,320.264,231.252Z" transform="translate(-280.039 -230.153)" fill="#bedaff"/><path d="M325.828,275.656h0c2.54,1.466,2.54,3.844,0,5.31l-3.432,1.982c-2.54,1.466-2.54,3.844,0,5.31l4.872,2.814a10.17,10.17,0,0,0,9.2,0l4.872-2.814c2.54-1.466,2.54-3.844,0-5.31l-3.731-2.154c-2.54-1.466-2.54-3.844,0-5.31l17.525-10.118a10.16,10.16,0,0,1,9.2,0l1.187.684a10.159,10.159,0,0,0,9.2,0l4.872-2.812c2.54-1.467,2.54-3.844,0-5.31l-4.872-2.814a10.168,10.168,0,0,0-9.2,0l-3.1,1.787a10.171,10.171,0,0,1-9.2,0l-17.055-9.847a10.168,10.168,0,0,0-9.2,0L320.3,250.9a10.16,10.16,0,0,1-9.2,0l-4.531-2.615a10.16,10.16,0,0,0-9.2,0L292.5,251.1c-2.54,1.467-2.54,3.844,0,5.31l4.53,2.616c2.54,1.466,2.54,3.844,0,5.31l-7.052,4.072c-2.54,1.466-2.54,3.844,0,5.31l10.4,6.005a10.162,10.162,0,0,0,9.2,0l7.052-4.071A10.16,10.16,0,0,1,325.828,275.656Z" transform="translate(-288.073 -225.158)" fill="#bedaff"/></g><g transform="translate(0 162.426)"><path d="M92.125,411.485l5.328-3.077c2.777-1.6,2.777-4.2,0-5.805l-5.328-3.076a11.11,11.11,0,0,0-10.058,0L76.74,402.6c-2.777,1.6-2.777,4.2,0,5.807l5.328,3.076A11.118,11.118,0,0,0,92.125,411.485Z" transform="translate(-33.963 -339.419)" fill="#bedaff"/><path d="M104.6,371.624h0c-2.777-1.6-2.777-4.2,0-5.805l3.754-2.168c2.777-1.6,2.777-4.2,0-5.807l-5.328-3.076a11.118,11.118,0,0,0-10.058,0l-5.328,3.076c-2.777,1.6-2.777,4.2,0,5.807l4.08,2.356c2.777,1.6,2.777,4.2,0,5.805L72.558,382.875a11.116,11.116,0,0,1-10.056,0l-1.3-.749a11.107,11.107,0,0,0-10.056,0L45.82,385.2c-2.778,1.6-2.778,4.2,0,5.807l5.328,3.076a11.115,11.115,0,0,0,10.056,0l3.385-1.954a11.115,11.115,0,0,1,10.056,0L93.294,402.9a11.108,11.108,0,0,0,10.056,0l7.294-4.21a11.116,11.116,0,0,1,10.056,0l4.954,2.86a11.118,11.118,0,0,0,10.058,0l5.328-3.076c2.777-1.6,2.777-4.2,0-5.807l-4.954-2.86c-2.777-1.6-2.777-4.2,0-5.807l7.711-4.451c2.777-1.6,2.777-4.2,0-5.807l-11.374-6.566a11.108,11.108,0,0,0-10.056,0l-7.711,4.451A11.107,11.107,0,0,1,104.6,371.624Z" transform="translate(-43.737 -353.567)" fill="#bedaff"/></g></g><g transform="translate(120.211 111.64)"><g transform="translate(0 93.385)"><path d="M102.293,175.1c-5.439,3.142-9.848,10.779-9.848,17.061s4.409,8.827,9.848,5.687,9.85-10.779,9.85-17.061S107.734,171.957,102.293,175.1Zm0,18.841c-3.571,2.062-6.466.391-6.466-3.734a14.3,14.3,0,0,1,6.466-11.2c3.572-2.062,6.467-.391,6.467,3.734A14.294,14.294,0,0,1,102.293,193.938Z" transform="translate(-67.16 -150.102)" fill="#00e9ff"/><path d="M99.375,207.9a11.9,11.9,0,0,1-5.385,9.327c-2.974,1.718-5.385.326-5.385-3.109a11.9,11.9,0,0,1,5.385-9.329C96.964,203.07,99.375,204.463,99.375,207.9Z" transform="translate(-68.374 -140.524)" fill="#3a55ca"/><path d="M103.618,159.628a11.9,11.9,0,0,1-5.385,9.327c-2.974,1.717-5.385.325-5.385-3.109a11.9,11.9,0,0,1,5.385-9.329C101.207,154.8,103.618,156.193,103.618,159.628Z" transform="translate(-67.033 -155.782)" fill="#3a55ca"/><rect width="15.353" height="8.864" transform="matrix(0.5, -0.866, 0.866, 0.5, 2.713, 59.862)" fill="#0382ff"/><path d="M86.69,174.113,82.2,176.7V171.52c0-.952-.667-1.337-1.492-.861a3.3,3.3,0,0,0-1.492,2.585v5.184l-4.491,2.593a3.3,3.3,0,0,0-1.492,2.585c0,.953.667,1.338,1.492.862l4.491-2.593v5.185c0,.953.667,1.337,1.492.862a3.3,3.3,0,0,0,1.492-2.586v-5.185l4.489-2.591a3.3,3.3,0,0,0,1.494-2.585C88.184,174.022,87.515,173.636,86.69,174.113Z" transform="translate(-73.233 -151.144)" fill="#c3e0fe"/></g><g transform="translate(224.538)"><path d="M273.173,104.626c-5.439,3.142-9.85,10.779-9.85,17.061s4.41,8.827,9.85,5.686,9.85-10.778,9.85-17.059S278.612,101.486,273.173,104.626Zm0,18.841c-3.572,2.062-6.467.391-6.467-3.734a14.294,14.294,0,0,1,6.467-11.2c3.572-2.062,6.467-.391,6.467,3.734A14.3,14.3,0,0,1,273.173,123.467Z" transform="translate(-237.683 -78.992)" fill="#bedaff"/><path d="M267.922,132.653a11.9,11.9,0,0,1-5.385,9.329c-2.974,1.718-5.386.325-5.386-3.109a11.9,11.9,0,0,1,5.386-9.329C265.511,127.827,267.922,129.22,267.922,132.653Z" transform="translate(-239.634 -70.923)" fill="#00e9ff"/><path d="M274.019,88.67A11.9,11.9,0,0,1,268.634,98c-2.974,1.718-5.386.325-5.386-3.11a11.9,11.9,0,0,1,5.386-9.327C271.608,83.844,274.019,85.237,274.019,88.67Z" transform="translate(-237.707 -84.826)" fill="#3a55ca"/><rect width="15.353" height="8.864" transform="matrix(0.5, -0.866, 0.866, 0.5, 0, 54.22)" fill="#0382ff"/><path d="M260.919,98.625l-4.489,2.593V96.033c0-.953-.669-1.338-1.492-.862a3.3,3.3,0,0,0-1.494,2.586v5.183l-4.491,2.593a3.3,3.3,0,0,0-1.492,2.586c0,.952.667,1.337,1.492.861l4.491-2.593v5.185c0,.953.669,1.338,1.494.862a3.3,3.3,0,0,0,1.492-2.585v-5.185l4.489-2.593a3.293,3.293,0,0,0,1.492-2.585C262.411,98.534,261.744,98.149,260.919,98.625Z" transform="translate(-242.698 -81.62)" fill="#c3e0fe"/></g></g><g transform="translate(423.592 58.572)"><path d="M483.921,336.678l-170.03-98.167a20.288,20.288,0,0,1-10.143-17.569V64.821a20.287,20.287,0,0,1,30.431-17.569l170.03,98.167a20.288,20.288,0,0,1,10.143,17.569V319.109A20.287,20.287,0,0,1,483.921,336.678Z" transform="translate(-303.748 -44.504)" fill="url(#a)"/><g transform="translate(6.803 6.803)"><path d="M492.4,330.989a13.27,13.27,0,0,1-6.711-1.837l-170.03-98.166a13.524,13.524,0,0,1-6.742-11.678V63.187a13.546,13.546,0,0,1,13.516-13.514,13.27,13.27,0,0,1,6.71,1.836l170.03,98.168a13.52,13.52,0,0,1,6.742,11.676V317.475A13.544,13.544,0,0,1,492.4,330.989Zm-169.967-280a12.227,12.227,0,0,0-12.2,12.2V219.308a12.2,12.2,0,0,0,6.084,10.537l170.03,98.168a11.994,11.994,0,0,0,6.053,1.66,12.227,12.227,0,0,0,12.2-12.2V161.354a12.2,12.2,0,0,0-6.084-10.537L328.485,52.65A11.974,11.974,0,0,0,322.433,50.989Z" transform="translate(-308.917 -49.673)" fill="url(#b)"/><g transform="translate(20.529 33.107)"><path d="M478.861,176.2,332.04,91.433c-3.278-1.893-5.962-7.017-5.962-11.39h0c0-4.372,2.684-6.4,5.962-4.506L478.861,160.3c3.278,1.893,5.962,7.017,5.962,11.39h0C484.823,176.065,482.139,178.093,478.861,176.2Z" transform="translate(-324.021 -74.828)" fill="url(#c)"/><path d="M380.259,193.491,333.677,166.6c-3.281-1.894-5.966-7.023-5.966-11.4V103.542c0-4.375,2.685-6.4,5.966-4.51l46.582,26.895c3.281,1.9,5.965,7.024,5.965,11.4v51.657C386.224,193.355,383.54,195.385,380.259,193.491Z" transform="translate(-323.505 -67.402)" fill="url(#d)"/><path d="M446.776,231.895,400.194,205c-3.281-1.9-5.966-7.024-5.966-11.4V141.944c0-4.373,2.685-6.4,5.966-4.509l46.582,26.895c3.281,1.894,5.965,7.023,5.965,11.4v51.657C452.741,231.759,450.057,233.789,446.776,231.895Z" transform="translate(-302.478 -55.262)" fill="url(#e)"/><g transform="translate(0 112.328)"><path d="M477.287,252.129,326.213,164.907a4.067,4.067,0,0,1-1.7-3.243h0c0-1.25.761-1.824,1.7-1.283L477.287,247.6a4.068,4.068,0,0,1,1.7,3.243h0C478.983,252.1,478.224,252.67,477.287,252.129Z" transform="translate(-324.515 -160.177)" fill="url(#f)"/><path d="M477.287,258.681,326.213,171.459a4.069,4.069,0,0,1-1.7-3.243h0c0-1.25.761-1.825,1.7-1.283l151.074,87.222a4.064,4.064,0,0,1,1.7,3.243h0C478.983,258.648,478.224,259.222,477.287,258.681Z" transform="translate(-324.515 -158.106)" fill="url(#g)"/><path d="M477.287,265.233,326.213,178.01a4.065,4.065,0,0,1-1.7-3.243h0c0-1.249.761-1.824,1.7-1.283l151.074,87.223a4.064,4.064,0,0,1,1.7,3.243h0C478.983,265.2,478.224,265.774,477.287,265.233Z" transform="translate(-324.515 -156.035)" fill="url(#h)"/></g></g></g></g><g transform="translate(180.195 70.558)"><path d="M124.677,452.45V153.7c0-8.259,5.021-17.853,11.215-21.429L263.91,58.356c6.194-3.576,11.215.22,11.215,8.478V365.587c0,8.26-5.021,17.854-11.216,21.43L135.892,460.929C129.7,464.5,124.677,460.709,124.677,452.45Z" transform="translate(-116.955 -52.536)" fill="url(#i)"/><path d="M236.126,57.648l.005-.012-.23-.132C235.979,57.546,236.05,57.6,236.126,57.648Z" transform="translate(-81.797 -52.38)" fill="#a9bdea"/><path d="M129.593,462c-1.893-1.585-3.061-4.509-3.061-8.48V154.771c0-8.259,5.021-17.853,11.215-21.429L265.765,59.431c2.707-1.564,5.189-1.718,7.127-.707l-6.832-3.893c-2.037-1.6-4.874-1.693-8.016.122L130.025,128.865c-6.194,3.576-11.215,13.17-11.215,21.429V449.048c0,4.951,1.811,8.28,4.591,9.4v.017Z" transform="translate(-118.81 -53.611)" fill="#a9bdea"/><path d="M128.379,364.7l.02.012v0Z" transform="translate(-115.785 44.726)" fill="#a9bdea"/><path d="M129.828,462.06v0l-.02-.009ZM263.092,58.081,135.074,131.992c-6.194,3.577-11.215,13.17-11.215,21.429V452.175c0,3.5.908,6.183,2.419,7.856l1.719.983c-1.893-1.585-3.061-4.509-3.061-8.48V153.78c0-8.259,5.021-17.853,11.215-21.429L264.169,58.44a8.046,8.046,0,0,1,5.742-1.2C268.021,56.4,265.66,56.6,263.092,58.081Zm8.226-.336c.078.041.149.1.225.143l.005-.012Z" transform="translate(-117.214 -52.621)" fill="url(#j)"/><path d="M261.9,62.927,239.809,75.681l-3.315,8.314a19.463,19.463,0,0,1-7.666,9.446l-60.2,34.758c-3.143,1.815-6.054,1.589-7.666-.594l-3.315-4.487-22.089,12.754a15.819,15.819,0,0,0-7.16,12.4V449.1c0,4.566,3.2,6.416,7.16,4.134L261.9,380.288a15.823,15.823,0,0,0,7.16-12.4V67.061C269.058,62.5,265.852,60.645,261.9,62.927Z" transform="translate(-115.78 -50.975)" fill="url(#k)"/><path d="M206.4,86.673l-39.124,22.588c-.7.4-1.274-.029-1.274-.963h0a3.061,3.061,0,0,1,1.274-2.433L206.4,83.276c.7-.4,1.274.029,1.274.963h0A3.065,3.065,0,0,1,206.4,86.673Z" transform="translate(-103.892 -44.281)" fill="#a3b9e8"/><path d="M122.6,197.61l-.192-.111a3.106,3.106,0,0,1-1.292-2.468v-27.4c0-.948.582-1.387,1.292-.977l.192.112a3.1,3.1,0,0,1,1.291,2.466v27.4C123.89,197.581,123.309,198.021,122.6,197.61Z" transform="translate(-118.082 -17.926)" fill="#7b97c9"/><path d="M121.507,197.61l-.192-.111a3.105,3.105,0,0,1-1.291-2.468v-27.4c0-.948.58-1.387,1.291-.977l.192.112a3.1,3.1,0,0,1,1.292,2.466v27.4C122.8,197.581,122.218,198.021,121.507,197.61Z" transform="translate(-118.426 -17.926)" fill="#90a9d6"/><g transform="translate(125.153 9.55)"><path d="M219.3,61.4a1.362,1.362,0,0,1,0,2.58,4.938,4.938,0,0,1-4.467,0,1.361,1.361,0,0,1,0-2.58A4.938,4.938,0,0,1,219.3,61.4Z" transform="translate(-213.904 -60.867)" fill="#90a9d6"/><path d="M219.243,61.4a4.938,4.938,0,0,0-4.467,0,2.094,2.094,0,0,0-.705.625,2.656,2.656,0,0,1,.271-.192,4.938,4.938,0,0,1,4.467,0c.915.529,1.148,1.3.705,1.954C220.455,63.074,220.373,62.054,219.243,61.4Z" transform="translate(-213.851 -60.867)" fill="#7b97c9"/></g><g transform="translate(12.576 10.974)" opacity="0.32"><path d="M269.029,198.015V97.778L128.366,238.441V338.678Z" transform="translate(-128.366 -50.624)" fill="#fff"/><path d="M128.366,220.312,269.029,79.649V67.061c0-4.566-3.2-6.416-7.158-4.134l-11.3,6.527-13.81,13.81-.292.732a19.46,19.46,0,0,1-7.665,9.446l-5.254,3.032-95.179,95.181Z" transform="translate(-128.365 -61.949)" fill="#fff"/><path d="M269.029,248.618v-57.58L128.366,331.7v57.581Z" transform="translate(-128.366 -21.144)" fill="#fff"/><path d="M262.555,277.344V264.172L148.845,377.883l31.164-17.993Z" transform="translate(-121.892 1.974)" fill="#fff"/></g><path d="M228.345,93.441l-60.2,34.758c-3.143,1.815-6.054,1.589-7.666-.594l-3.315-4.487-22.089,12.754a14.709,14.709,0,0,0-5.153,5.509,13.285,13.285,0,0,1,3.717-3.356l22.089-12.754,3.315,4.487c1.614,2.182,4.525,2.407,7.666.594l60.2-34.758a18.294,18.294,0,0,0,6.3-6.653A16.9,16.9,0,0,1,228.345,93.441Zm33.071-30.514L239.327,75.681l-.686,1.72L259.982,65.08c3.954-2.282,7.158-.432,7.158,4.133v300.83a14.526,14.526,0,0,1-2.007,6.889,15.573,15.573,0,0,0,3.443-9.042V67.061C268.576,62.5,265.37,60.645,261.416,62.927Z" transform="translate(-115.298 -50.975)" fill="url(#l)"/><g transform="translate(20.558 47.292)"><g transform="translate(0.111 121.996)"><path d="M178.2,195.9,139.415,218.29c-2.707,1.562-4.9-.1-4.9-3.706h0c0-3.609,2.194-7.8,4.9-9.364L178.2,182.827c2.707-1.562,4.9.1,4.9,3.706h0C183.1,190.142,180.905,194.335,178.2,195.9Z" transform="translate(-134.514 -182.239)" fill="#c3e0fe"/><path d="M192.071,203.635l-52.656,30.4c-2.707,1.564-4.9-.1-4.9-3.7h0c0-3.61,2.194-7.8,4.9-9.365l52.656-30.4c2.707-1.562,4.9.1,4.9,3.706h0C196.972,197.878,194.778,202.071,192.071,203.635Z" transform="translate(-134.514 -179.794)" fill="#c3e0fe"/><path d="M168.937,227.606l-29.522,17.044c-2.707,1.564-4.9-.1-4.9-3.7h0c0-3.609,2.194-7.8,4.9-9.365l29.522-17.045c2.707-1.562,4.9.1,4.9,3.706h0C173.838,221.849,171.644,226.042,168.937,227.606Z" transform="translate(-134.514 -172.217)" fill="#c3e0fe"/></g><path d="M253.5,313.076l-111.2,64.2c-4.326,2.5-7.866-.178-7.866-5.947V310.581c0-5.768,3.54-12.532,7.866-15.03l111.2-64.2c4.327-2.5,7.866.178,7.866,5.947v60.749C261.362,303.815,257.823,310.579,253.5,313.076Z" transform="translate(-134.43 -45.016)" fill="url(#m)"/><g transform="translate(0)"><path d="M261.517,100.416V94.879c0-4.766-3.346-6.7-7.473-4.314L141.9,155.309a16.519,16.519,0,0,0-7.473,12.944v5.536Z" transform="translate(-134.43 -89.545)" fill="#0382ff"/><g transform="translate(7.189 55.184)"><path d="M145.908,142.9a6.647,6.647,0,0,1-3.009,5.21c-1.661.959-3.007.182-3.007-1.737a6.649,6.649,0,0,1,3.007-5.209C144.562,140.2,145.908,140.979,145.908,142.9Z" transform="translate(-139.892 -128.543)" fill="#00e9ff"/><path d="M153.94,138.26a6.649,6.649,0,0,1-3.007,5.209c-1.661.959-3.007.182-3.007-1.736a6.649,6.649,0,0,1,3.007-5.21C152.593,135.564,153.94,136.341,153.94,138.26Z" transform="translate(-137.353 -130.009)" fill="#00e9ff"/><path d="M161.973,133.622a6.649,6.649,0,0,1-3.007,5.21c-1.662.958-3.009.182-3.009-1.737a6.645,6.645,0,0,1,3.009-5.209C160.627,130.926,161.973,131.7,161.973,133.622Z" transform="translate(-134.814 -131.475)" fill="#00e9ff"/></g></g><g transform="translate(0 81.205)"><path d="M154.093,170.539l10.454,13.2c-8.382,10.912-19.493,15.2-25.727,9.926-2.623-2.219-4.154-5.934-4.369-10.61Z" transform="translate(-134.424 -145.147)" fill="#fff"/><path d="M154.1,176.467l-19.643,12.517c-.325-7.054,2.373-15.613,7.25-23,4.7-7.12,10.91-12.365,16.811-14.2Z" transform="translate(-134.43 -151.075)" fill="#00e9ff"/><g transform="translate(19.669)"><path d="M157.337,181.269l4.418-24.682c4.272-1.329,8.094-.782,10.855,1.554,6.8,5.749,5.5,20.921-2.881,33.609-.617.934-1.265,1.844-1.939,2.72Z" transform="translate(-146.858 -149.782)" fill="#0382ff"/><path d="M164.273,157.879l-10.479-6.095-4.419,24.682,10.479,6.095Z" transform="translate(-149.375 -151.075)" fill="#2645b5"/><path d="M168.079,156.974h0Z" transform="translate(-143.463 -149.435)" fill="#335185"/><path d="M172.93,158.785l-10.409-6.054c-2.643-1.662-6.042-1.941-9.789-.775l10.479,6.095C166.925,156.895,170.3,157.161,172.93,158.785Z" transform="translate(-148.314 -151.246)" fill="#3a55ca"/><path d="M159.846,183.716l10.462,6.12-10.454-13.2-10.479-6.095,10.454,13.2Z" transform="translate(-149.375 -145.147)" fill="#3a55ca"/></g></g><g transform="translate(0.972 134.774)"><path d="M261.283,221.983,135.168,294.8v-2.818l126.115-72.812Z" transform="translate(-135.168 -183.345)" fill="#c3e0fe"/><path d="M261.283,194.767,135.168,267.579v-2.818l126.115-72.812Z" transform="translate(-135.168 -191.949)" fill="#c3e0fe"/><g transform="translate(5.677 16.06)"><path d="M197.6,241.354l-22.807,13.168c-1.844,1.065-3.339-.066-3.339-2.524V242.56a8,8,0,0,1,3.339-6.379L197.6,223.013c1.844-1.065,3.339.066,3.339,2.524v9.436A8,8,0,0,1,197.6,241.354Z" transform="translate(-129.375 -198.316)" fill="#bedaff"/><path d="M229.576,222.893l-22.807,13.168c-1.844,1.065-3.339-.064-3.339-2.524V224.1a8,8,0,0,1,3.339-6.38l22.807-13.168c1.845-1.065,3.339.066,3.339,2.524v9.438A7.993,7.993,0,0,1,229.576,222.893Z" transform="translate(-119.268 -204.152)" fill="#bedaff"/><path d="M151.652,281.027a2.042,2.042,0,0,0,2.387-.032l22.808-13.168a7.994,7.994,0,0,0,3.339-6.379v-9.436a3.075,3.075,0,0,0-1.025-2.609l-11.145-7.961a2.046,2.046,0,0,0-2.389.03L142.821,254.64a8,8,0,0,0-3.339,6.38v9.436a3.081,3.081,0,0,0,1.024,2.608Z" transform="translate(-139.482 -192.48)" fill="#9cc0e8"/><path d="M174.153,265.9l-22.808,13.168c-1.844,1.063-3.339-.066-3.339-2.526V267.11a8,8,0,0,1,3.339-6.379l22.808-13.168c1.844-1.065,3.339.065,3.339,2.524v9.436A8,8,0,0,1,174.153,265.9Z" transform="translate(-136.788 -190.556)" fill="#bedaff"/></g></g><g transform="translate(53.597 32.5)"><path d="M244.1,143.092l-64.577,37.284c-2.414,1.394-4.372-.086-4.372-3.3V160.4c0-3.219,1.958-6.96,4.372-8.353L244.1,114.763c2.415-1.394,4.372.086,4.372,3.3V134.74C248.475,137.959,246.518,141.7,244.1,143.092Z" transform="translate(-175.154 -114.238)" fill="#c3e0fe"/><g transform="translate(3.227 26.851)"><path d="M203.1,149.057l-24.443,14.111c-.582.336-1.053-.021-1.053-.8v-.062a2.522,2.522,0,0,1,1.053-2.012L203.1,146.186c.582-.336,1.053.021,1.053.8v.062A2.522,2.522,0,0,1,203.1,149.057Z" transform="translate(-177.606 -131.03)" fill="url(#n)"/><path d="M209.986,141.837l-31.327,18.086c-.582.337-1.053-.02-1.053-.795v-.063a2.52,2.52,0,0,1,1.053-2.011l31.327-18.087c.582-.336,1.054.02,1.054.8v.062A2.525,2.525,0,0,1,209.986,141.837Z" transform="translate(-177.606 -133.313)" fill="url(#o)"/><path d="M209.986,137.637l-31.327,18.087c-.582.336-1.053-.021-1.053-.8v-.062a2.522,2.522,0,0,1,1.053-2.012l31.327-18.087c.582-.336,1.054.021,1.054.8v.062A2.523,2.523,0,0,1,209.986,137.637Z" transform="translate(-177.606 -134.64)" fill="url(#p)"/></g><g transform="translate(50.871 8.428)"><path d="M241.816,142.638l-15.983,9.228V136.922l15.983-9.228Z" transform="translate(-210.005 -118.413)" fill="url(#q)"/><path d="M245.618,129.924l-.1.06-15.724-9.22v-.122l-15.983,9.227v14.943l15.829,9.281V139.151Z" transform="translate(-213.806 -120.642)" fill="#bdcefa"/></g></g><g transform="translate(84.14 76.771)"><path d="M246.082,203.776,213.67,222.49c-2.909,1.679-5.267-.1-5.267-3.983V182.963c0-3.879,2.358-8.384,5.267-10.063l32.412-18.714c2.909-1.679,5.267.1,5.267,3.983v35.544C251.349,197.592,248.99,202.1,246.082,203.776Z" transform="translate(-195.187 -146.082)" fill="#0382ff"/><path d="M211.577,220.3V184.758c0-3.879,2.358-8.384,5.267-10.063l32.412-18.714a3.43,3.43,0,0,1,3.322-.342h0l-13.127-7.425a3.379,3.379,0,0,0-3.41.292L203.628,167.22c-2.909,1.679-5.267,6.184-5.267,10.063v35.544c0,2.2.759,3.722,1.945,4.325l13.128,7.425h0C212.3,223.944,211.577,222.446,211.577,220.3Z" transform="translate(-198.361 -147.877)" fill="#3a55ca"/><path d="M231.232,183.151a17.354,17.354,0,0,0,4.86-11.137c0-4.967-3.486-6.981-7.789-4.5a17.217,17.217,0,0,0-7.789,13.491c0,3.769,2.011,5.832,4.86,5.524-6.641,5.358-11.688,14.88-12,23.092l29.861-17.241C242.921,184.535,237.875,180.84,231.232,183.151Z" transform="translate(-193.615 -142.005)" fill="url(#r)"/></g></g></g><g transform="translate(291.178 270.844)"><path d="M285.2,226.828l-45.631,25.453c-2.02,1.166-5.584,1.019-7.918-.329L205.069,236.6c-2.333-1.348-2.59-3.4-.569-4.571l45.631-25.453c2.02-1.167,5.584-1.02,7.918.328l26.585,15.348C286.968,223.6,287.224,225.661,285.2,226.828Z" transform="translate(-203.137 -205.792)" fill="#fff"/><g transform="translate(0.001 19.418)"><path d="M278.66,344.867V220.547h0a2.522,2.522,0,0,1-1.325,1.617L231.7,247.618a7.189,7.189,0,0,1-3.677.776V373.43a7.176,7.176,0,0,0,3.677-.776L277.335,347.2A2.228,2.228,0,0,0,278.66,344.867Z" transform="translate(-195.27 -220.547)" fill="url(#s)"/><path d="M231.654,245.09l-26.585-15.348a3.534,3.534,0,0,1-1.894-2.239v124.32c-.205,1,.442,2.115,1.894,2.955l26.585,15.348a9.114,9.114,0,0,0,4.241,1.1V246.2A9.131,9.131,0,0,1,231.654,245.09Z" transform="translate(-203.138 -218.348)" fill="url(#t)"/><path d="M231.654,245.09l-26.585-15.348a3.534,3.534,0,0,1-1.894-2.239v124.32c-.205,1,.442,2.115,1.894,2.955l26.585,15.348a9.114,9.114,0,0,0,4.241,1.1V246.2A9.131,9.131,0,0,1,231.654,245.09Z" transform="translate(-203.138 -218.348)" fill="#bdcefa"/></g><g transform="translate(37.97 42.023)"><path d="M302.646,252.336l-45.629,26.2c-2.022,1.167-5.586,1.019-7.919-.328l-15.179-9.055c-2.333-1.346-2.589-3.4-.569-4.571l45.457-26.072c2.02-1.167,5.584-1.02,7.918.328l15.352,8.926C304.411,249.111,304.667,251.17,302.646,252.336Z" transform="translate(-231.987 -237.723)" fill="#fff"/><g transform="translate(0 12.996)"><path d="M298.843,252.069V247.6h0a2.518,2.518,0,0,1-1.325,1.617l-45.629,26.2a7.182,7.182,0,0,1-3.677.776v5.187a7.182,7.182,0,0,0,3.677-.776l45.629-26.2A2.227,2.227,0,0,0,298.843,252.069Z" transform="translate(-226.86 -247.597)" fill="url(#u)"/><path d="M249.1,271.2l-15.179-9.055a3.534,3.534,0,0,1-1.894-2.239v4.471c-.205,1,.442,2.116,1.894,2.955l15.179,9.055a9.151,9.151,0,0,0,4.242,1.1V272.3A9.15,9.15,0,0,1,249.1,271.2Z" transform="translate(-231.988 -243.707)" fill="url(#t)"/><path d="M249.1,271.2l-15.179-9.055a3.534,3.534,0,0,1-1.894-2.239v4.471c-.205,1,.442,2.116,1.894,2.955l15.179,9.055a9.151,9.151,0,0,0,4.242,1.1V272.3A9.15,9.15,0,0,1,249.1,271.2Z" transform="translate(-231.988 -243.707)" fill="#bdcefa"/></g><g transform="translate(19.505 27.179)"><path d="M317.466,272.987l-45.631,26.2c-2.02,1.166-5.584,1.019-7.918-.329L248.739,289.8c-2.333-1.348-2.589-3.4-.569-4.571l45.457-26.073c2.02-1.166,5.584-1.019,7.918.329l15.352,8.926C319.231,269.763,319.487,271.82,317.466,272.987Z" transform="translate(-246.807 -258.373)" fill="#fff"/><g transform="translate(0 12.996)"><path d="M313.663,272.719v-4.471h0a2.518,2.518,0,0,1-1.325,1.617l-45.631,26.2a7.19,7.19,0,0,1-3.677.777v5.187a7.19,7.19,0,0,0,3.677-.776l45.631-26.2A2.23,2.23,0,0,0,313.663,272.719Z" transform="translate(-241.68 -268.248)" fill="url(#w)"/><path d="M263.917,291.846l-15.179-9.053a3.534,3.534,0,0,1-1.894-2.239v4.471c-.205,1,.442,2.116,1.894,2.955l15.179,9.053a9.135,9.135,0,0,0,4.24,1.106v-5.187A9.135,9.135,0,0,1,263.917,291.846Z" transform="translate(-246.808 -264.358)" fill="url(#t)"/><path d="M263.917,291.846l-15.179-9.053a3.534,3.534,0,0,1-1.894-2.239v4.471c-.205,1,.442,2.116,1.894,2.955l15.179,9.053a9.135,9.135,0,0,0,4.24,1.106v-5.187A9.135,9.135,0,0,1,263.917,291.846Z" transform="translate(-246.808 -264.358)" fill="#bdcefa"/></g></g><g transform="translate(39.009 54.356)"><path d="M332.286,293.638l-45.631,26.2c-2.022,1.167-5.584,1.02-7.918-.328l-15.179-9.053c-2.333-1.348-2.59-3.4-.569-4.572l45.456-26.072c2.022-1.167,5.586-1.02,7.919.328l15.352,8.927C334.051,290.414,334.306,292.471,332.286,293.638Z" transform="translate(-261.627 -279.023)" fill="#fff"/><g transform="translate(0.001 12.996)"><path d="M328.483,293.37V288.9h0a2.521,2.521,0,0,1-1.325,1.619l-45.631,26.2a7.163,7.163,0,0,1-3.677.776v5.187a7.176,7.176,0,0,0,3.677-.776l45.631-26.2A2.228,2.228,0,0,0,328.483,293.37Z" transform="translate(-256.5 -288.898)" fill="url(#y)"/><path d="M278.737,312.5l-15.179-9.053a3.539,3.539,0,0,1-1.894-2.24v4.472c-.205,1,.441,2.116,1.894,2.955l15.179,9.054a9.114,9.114,0,0,0,4.241,1.1V313.6A9.114,9.114,0,0,1,278.737,312.5Z" transform="translate(-261.628 -285.008)" fill="url(#t)"/><path d="M278.737,312.5l-15.179-9.053a3.539,3.539,0,0,1-1.894-2.24v4.472c-.205,1,.441,2.116,1.894,2.955l15.179,9.054a9.114,9.114,0,0,0,4.241,1.1V313.6A9.114,9.114,0,0,1,278.737,312.5Z" transform="translate(-261.628 -285.008)" fill="#bdcefa"/></g></g><g transform="translate(58.513 81.535)"><path d="M347.106,314.288l-45.631,26.2c-2.021,1.167-5.584,1.02-7.918-.328l-15.179-9.053c-2.333-1.348-2.59-3.4-.569-4.572l45.456-26.072c2.022-1.167,5.584-1.02,7.919.328l15.352,8.927C348.871,311.063,349.126,313.122,347.106,314.288Z" transform="translate(-276.447 -299.675)" fill="#fff"/><g transform="translate(0.001 12.996)"><path d="M343.3,314.021V309.55h0a2.519,2.519,0,0,1-1.325,1.617l-45.631,26.2a7.176,7.176,0,0,1-3.677.776v5.187a7.176,7.176,0,0,0,3.677-.776l45.631-26.2A2.229,2.229,0,0,0,343.3,314.021Z" transform="translate(-271.32 -309.549)" fill="url(#aa)"/><path d="M293.557,333.149,278.379,324.1a3.539,3.539,0,0,1-1.894-2.24v4.471c-.205,1,.441,2.116,1.894,2.955l15.179,9.055a9.146,9.146,0,0,0,4.241,1.1v-5.187A9.13,9.13,0,0,1,293.557,333.149Z" transform="translate(-276.448 -305.659)" fill="url(#t)"/><path d="M293.557,333.149,278.379,324.1a3.539,3.539,0,0,1-1.894-2.24v4.471c-.205,1,.441,2.116,1.894,2.955l15.179,9.055a9.146,9.146,0,0,0,4.241,1.1v-5.187A9.13,9.13,0,0,1,293.557,333.149Z" transform="translate(-276.448 -305.659)" fill="#bdcefa"/></g></g><g transform="translate(78.018 108.714)"><path d="M361.925,334.939l-45.629,26.2c-2.022,1.167-5.584,1.019-7.919-.328L293.2,351.756c-2.335-1.346-2.59-3.4-.569-4.571l45.456-26.073c2.022-1.166,5.584-1.019,7.919.329l15.351,8.926C363.691,331.714,363.946,333.772,361.925,334.939Z" transform="translate(-291.267 -320.325)" fill="#fff"/><g transform="translate(0.001 12.996)"><path d="M358.122,334.671V330.2h0a2.52,2.52,0,0,1-1.327,1.617l-45.629,26.2a7.176,7.176,0,0,1-3.677.777v5.187a7.19,7.19,0,0,0,3.677-.776L356.8,337A2.227,2.227,0,0,0,358.122,334.671Z" transform="translate(-286.14 -330.2)" fill="url(#ac)"/><path d="M308.376,353.8,293.2,344.745a3.534,3.534,0,0,1-1.894-2.239v4.471c-.205,1,.441,2.116,1.894,2.955l15.177,9.053a9.136,9.136,0,0,0,4.242,1.106V354.9A9.15,9.15,0,0,1,308.376,353.8Z" transform="translate(-291.268 -326.31)" fill="url(#t)"/><path d="M308.376,353.8,293.2,344.745a3.534,3.534,0,0,1-1.894-2.239v4.471c-.205,1,.441,2.116,1.894,2.955l15.177,9.053a9.136,9.136,0,0,0,4.242,1.106V354.9A9.15,9.15,0,0,1,308.376,353.8Z" transform="translate(-291.268 -326.31)" fill="#bdcefa"/></g></g></g></g><g transform="translate(307.155 216.193)"><g transform="translate(16.083 79.787)"><path d="M227.5,228.792c-.064,1.1,1.59,2.632,4.106,4.085,3.348,1.932,4.534,4.381,8.672,1.993,1.184-.684,1.681-1.228,1.71-1.7v-2.573c.116-1.2-2.753-1.941-5.162-3.331-3.347-1.933-6.953-2.985-8.672-1.993a1.129,1.129,0,0,0-.654.948Z" transform="translate(-227.497 -224.891)"/><path d="M231.607,230.278c-3.348-1.932-5.17-4.014-3.452-5.006s5.325.059,8.672,1.993,7.59,2.618,3.452,5.006S234.955,232.211,231.607,230.278Z" transform="translate(-227.498 -224.891)" fill="#2d0d60"/></g><g transform="translate(25.389 73.377)"><path d="M234.57,223.921c-.063,1.1,1.59,2.632,4.106,4.085,3.348,1.933,4.534,4.383,8.673,1.993,1.183-.683,1.679-1.227,1.708-1.7v-2.573c.116-1.2-2.753-1.941-5.16-3.331-3.348-1.933-6.954-2.985-8.672-1.994a1.132,1.132,0,0,0-.655.948Z" transform="translate(-234.568 -220.021)"/><path d="M238.677,225.408c-3.347-1.933-5.17-4.015-3.451-5.008s5.324.061,8.672,1.994,7.59,2.618,3.452,5.006S242.025,227.34,238.677,225.408Z" transform="translate(-234.568 -220.021)" fill="#2d0d60"/></g><g transform="translate(20.428)"><path d="M232.081,164.687h0a2.756,2.756,0,0,1,3.789.863l11.422,18.167a2.755,2.755,0,0,1-.863,3.788h0a2.756,2.756,0,0,1-3.789-.863l-11.422-18.167A2.755,2.755,0,0,1,232.081,164.687Z" transform="translate(-230.799 -164.268)" fill="#fcc4b7"/><path d="M237.462,180.84l3.686,5.862a4.26,4.26,0,0,0,5.858,1.335h0a4.26,4.26,0,0,0,1.336-5.858l-3.685-5.862S240.038,174.579,237.462,180.84Z" transform="translate(-228.692 -160.529)" fill="#0382ff"/></g><g transform="translate(22.328 51.475)"><path d="M240.37,236.222a1.809,1.809,0,0,0,.192-.833V206.68c0-1.815-1.873-3.3-4.16-3.3h0c-2.289,0-4.16,1.486-4.16,3.3V237.9a1.046,1.046,0,0,0,.74,1C234.577,239.384,238.361,240.075,240.37,236.222Z" transform="translate(-232.242 -203.379)" fill="#293677"/></g><g transform="translate(31.011 44.839)"><path d="M247.615,231.086a1.81,1.81,0,0,0,.174-.837l-.629-28.7c-.039-1.815-1.944-3.26-4.231-3.209h0c-2.287.05-4.127,1.575-4.088,3.39l.684,31.211a1.045,1.045,0,0,0,.761.986C241.891,234.375,245.689,234.981,247.615,231.086Z" transform="translate(-238.84 -198.337)" fill="#3a55ca"/></g><path d="M234.594,219.037a.763.763,0,0,0,.351.116c1.84.142,8.452-1.3,15.068-8.753a3.464,3.464,0,0,0,.9-2.144V187.1a3.478,3.478,0,0,0-1.486-3.228l-4.975-2.9a3.472,3.472,0,0,0-3.544.324l-6.785,3.917a11.053,11.053,0,0,0-4.98,8.627v21.281a1.079,1.079,0,0,0,.479,1.019Z" transform="translate(-210.895 -159.1)" fill="#bedaff"/><path d="M234.747,186.7a1.727,1.727,0,0,0,1.025,1.456,5.481,5.481,0,0,0,4.96,0,1.728,1.728,0,0,0,1.025-1.456v-4.609a1.728,1.728,0,0,0-1.025-1.456,5.481,5.481,0,0,0-4.96,0,1.728,1.728,0,0,0-1.025,1.456Z" transform="translate(-209.123 -159.28)" fill="#dd936f"/><circle cx="9.658" cy="9.658" r="9.658" transform="translate(19.472 5.801)" fill="#fcc4b7"/><g transform="translate(0 12.963)"><path d="M215.939,175.07h0a2.754,2.754,0,0,1,3.873-.291l15.516,14.061a2.755,2.755,0,0,1,.291,3.875h0a2.756,2.756,0,0,1-3.875.29l-15.516-14.06A2.756,2.756,0,0,1,215.939,175.07Z" transform="translate(-215.277 -174.117)" fill="#fcc4b7"/><path d="M225.1,189.2l5.247,4.517a4.262,4.262,0,0,0,5.992-.449h0a4.261,4.261,0,0,0-.447-5.992l-5.249-4.517S225.714,182.462,225.1,189.2Z" transform="translate(-212.173 -171.385)" fill="#0382ff"/></g><path d="M245.18,187.8c-3.045,1.775-5.374.426-6.2-.859-2.085-3.231-2.43-1.075-3.672-2.6-1.628-2.674-1.263-6.32-3.521-8-3.239-2.418-2.352-7.231,6.1-9.385,11.353-2.9,15.825,11.409,8.74,19.677A4.48,4.48,0,0,1,245.18,187.8Z" transform="translate(-210.607 -163.538)" fill="#362b1f" fill-rule="evenodd"/><path d="M235.354,181.466a1.1,1.1,0,0,1-2.015-.54,3.994,3.994,0,0,1,.936-3.489,1.1,1.1,0,0,1,2.014.54A3.987,3.987,0,0,1,235.354,181.466Z" transform="translate(-209.598 -160.257)" fill="#fcc4b7"/></g><g transform="translate(223.137 344.507)"><g transform="translate(0 94.484)"><path d="M268.575,371.055l-52.181,30.127c-2.112,1.22-5.837,1.065-8.277-.343l-54.659-31.558c-2.44-1.408-2.707-3.559-.595-4.779l52.181-30.127c2.114-1.22,5.838-1.065,8.277.343l54.66,31.558C270.42,367.685,270.687,369.835,268.575,371.055Z" transform="translate(-151.438 -333.553)" fill="#fefefe"/><g transform="translate(0 32.97)"><path d="M268.575,363.137l-52.181,30.127c-2.112,1.22-5.837,1.065-8.277-.344l-54.659-31.557a3.357,3.357,0,0,1-2.018-2.759h0v2.065c-.043.967.641,2,2.018,2.791l54.659,31.559c2.44,1.408,6.165,1.562,8.277.342l52.181-30.127a2.472,2.472,0,0,0,1.423-2.02v-2.065h0A2.487,2.487,0,0,1,268.575,363.137Z" transform="translate(-151.439 -358.604)" fill="#bdcefa"/></g><g transform="translate(7.644 4.544)"><path d="M195.643,359.115,174.6,371.262a3.13,3.13,0,0,1-2.818-.116l-13.848-8c-.834-.482-.925-1.211-.2-1.627l21.042-12.149a3.131,3.131,0,0,1,2.818.117l13.848,8C196.275,357.97,196.366,358.7,195.643,359.115Z" transform="translate(-157.246 -333.185)" fill="url(#ae)"/><path d="M226.084,348.586,177.3,376.749a2.913,2.913,0,0,1-2.623-.109h0c-.775-.447-.859-1.125-.188-1.514l48.78-28.163a2.911,2.911,0,0,1,2.622.109h0C226.671,347.52,226.755,348.2,226.084,348.586Z" transform="translate(-151.938 -333.941)" fill="url(#af)"/><path d="M230.152,350.935,181.373,379.1a2.913,2.913,0,0,1-2.623-.109h0c-.775-.447-.861-1.125-.188-1.514l48.78-28.163a2.911,2.911,0,0,1,2.622.109h0C230.74,349.869,230.824,350.548,230.152,350.935Z" transform="translate(-150.652 -333.198)" fill="url(#ag)"/><path d="M234.221,353.285l-48.779,28.162a2.917,2.917,0,0,1-2.623-.108h0c-.776-.449-.861-1.127-.188-1.515l48.78-28.162a2.915,2.915,0,0,1,2.622.108h0C234.809,352.219,234.894,352.9,234.221,353.285Z" transform="translate(-149.366 -332.456)" fill="url(#ah)"/><path d="M210.733,367.722l-21.222,12.253a2.917,2.917,0,0,1-2.623-.108h0c-.777-.449-.861-1.127-.188-1.515L207.922,366.1a2.913,2.913,0,0,1,2.623.109h0C211.322,366.656,211.406,367.335,210.733,367.722Z" transform="translate(-148.08 -327.892)" fill="url(#ai)"/><path d="M216.583,347.027l-21.042,12.148a3.131,3.131,0,0,1-2.818-.117l-13.848-8c-.834-.482-.925-1.21-.2-1.627l21.042-12.148a3.13,3.13,0,0,1,2.818.116l13.848,8C217.214,345.881,217.3,346.61,216.583,347.027Z" transform="translate(-150.628 -337.006)" fill="url(#aj)"/><path d="M249.6,362.269,201,390.327a3.131,3.131,0,0,1-2.818-.117l-6.627-3.825c-.833-.482-.924-1.209-.2-1.627l48.6-28.058a3.134,3.134,0,0,1,2.818.116l6.627,3.826C250.234,361.124,250.325,361.852,249.6,362.269Z" transform="translate(-146.617 -330.869)" fill="url(#ak)"/></g><g transform="translate(0 35.957)"><g transform="translate(0 0.753)"><path d="M268.575,365.979l-52.181,30.127c-2.112,1.22-5.837,1.065-8.277-.344L153.458,364.2a3.357,3.357,0,0,1-2.018-2.759h0v2.065c-.043.967.641,2,2.018,2.791l54.659,31.559c2.44,1.408,6.165,1.562,8.277.342l52.181-30.127a2.472,2.472,0,0,0,1.423-2.02v-2.065h0A2.488,2.488,0,0,1,268.575,365.979Z" transform="translate(-151.439 -361.446)" fill="#bdcefa"/></g><path d="M268.57,364.517l-52.181,30.127c-2.112,1.22-5.837,1.066-8.277-.342l-54.659-31.559a4.1,4.1,0,0,1-1.816-1.869c-.526,1.148.088,2.514,1.816,3.511l54.659,31.558c2.44,1.408,6.165,1.564,8.277.344L268.57,366.16a2.241,2.241,0,0,0,1.234-2.928A2.839,2.839,0,0,1,268.57,364.517Z" transform="translate(-151.434 -360.874)" fill="url(#al)"/></g><g transform="translate(0 39.694)"><g transform="translate(0 0.753)"><path d="M268.575,368.818l-52.181,30.127c-2.112,1.22-5.837,1.066-8.277-.344l-54.659-31.558a3.357,3.357,0,0,1-2.018-2.759h0v2.065c-.043.967.641,2,2.018,2.793L208.117,400.7c2.44,1.408,6.165,1.562,8.277.344l52.181-30.127A2.474,2.474,0,0,0,270,368.9v-2.065h0A2.488,2.488,0,0,1,268.575,368.818Z" transform="translate(-151.439 -364.285)" fill="#bdcefa"/></g><path d="M268.57,367.357l-52.181,30.126c-2.112,1.22-5.837,1.066-8.277-.342l-54.659-31.558a4.105,4.105,0,0,1-1.816-1.87c-.526,1.148.088,2.514,1.816,3.511l54.659,31.558c2.44,1.41,6.165,1.564,8.277.344L268.57,369a2.241,2.241,0,0,0,1.234-2.928A2.841,2.841,0,0,1,268.57,367.357Z" transform="translate(-151.434 -363.713)" fill="url(#am)"/></g><g transform="translate(0 43.43)"><g transform="translate(0 0.754)"><path d="M268.575,371.656l-52.181,30.127c-2.112,1.22-5.837,1.066-8.277-.342l-54.659-31.559a3.354,3.354,0,0,1-2.018-2.757h0v2.065c-.043.966.641,2,2.018,2.791l54.659,31.557c2.44,1.408,6.165,1.562,8.277.344l52.181-30.127a2.474,2.474,0,0,0,1.423-2.02V369.67h0A2.487,2.487,0,0,1,268.575,371.656Z" transform="translate(-151.439 -367.125)" fill="#bdcefa"/></g><path d="M268.57,370.2l-52.181,30.127c-2.112,1.22-5.837,1.065-8.277-.344l-54.659-31.558a4.1,4.1,0,0,1-1.816-1.87c-.526,1.149.088,2.514,1.816,3.511l54.659,31.559c2.44,1.408,6.165,1.562,8.277.342l52.181-30.127a2.24,2.24,0,0,0,1.234-2.927A2.846,2.846,0,0,1,268.57,370.2Z" transform="translate(-151.434 -366.552)" fill="url(#an)"/></g><g transform="translate(0 47.168)"><g transform="translate(0 0.753)"><path d="M268.575,374.5l-52.181,30.126c-2.112,1.22-5.837,1.066-8.277-.342l-54.659-31.558a3.357,3.357,0,0,1-2.018-2.759h0v2.065c-.043.966.641,2,2.018,2.791l54.659,31.558c2.44,1.408,6.165,1.564,8.277.344l52.181-30.127a2.472,2.472,0,0,0,1.423-2.02v-2.065h0A2.489,2.489,0,0,1,268.575,374.5Z" transform="translate(-151.439 -369.964)" fill="#bdcefa"/></g><path d="M268.57,373.035l-52.181,30.127c-2.112,1.22-5.837,1.065-8.277-.344l-54.659-31.558a4.1,4.1,0,0,1-1.816-1.869c-.526,1.148.088,2.512,1.816,3.511l54.659,31.558c2.44,1.408,6.165,1.562,8.277.342l52.181-30.126a2.241,2.241,0,0,0,1.234-2.928A2.839,2.839,0,0,1,268.57,373.035Z" transform="translate(-151.434 -369.392)" fill="url(#ao)"/></g><g transform="translate(0 50.904)"><g transform="translate(0 0.753)"><path d="M268.575,377.336l-52.181,30.127c-2.112,1.22-5.837,1.065-8.277-.344l-54.659-31.558a3.357,3.357,0,0,1-2.018-2.759h0v2.065c-.043.966.641,2,2.018,2.791l54.659,31.558c2.44,1.409,6.165,1.563,8.277.343l52.181-30.127a2.472,2.472,0,0,0,1.423-2.02v-2.065h0A2.488,2.488,0,0,1,268.575,377.336Z" transform="translate(-151.439 -372.803)" fill="#bdcefa"/></g><path d="M268.57,375.874,216.389,406c-2.112,1.22-5.837,1.066-8.277-.342L153.453,374.1a4.1,4.1,0,0,1-1.816-1.869c-.526,1.148.088,2.514,1.816,3.511L208.112,407.3c2.44,1.408,6.165,1.564,8.277.344l52.181-30.127a2.241,2.241,0,0,0,1.234-2.928A2.839,2.839,0,0,1,268.57,375.874Z" transform="translate(-151.434 -372.231)" fill="url(#ap)"/></g><g transform="translate(0 54.641)"><g transform="translate(0 0.753)"><path d="M268.575,380.175,216.394,410.3c-2.112,1.22-5.837,1.065-8.277-.344L153.458,378.4a3.357,3.357,0,0,1-2.018-2.759h0v2.065c-.043.967.641,2,2.018,2.793l54.659,31.558c2.44,1.408,6.165,1.562,8.277.342l52.181-30.126A2.474,2.474,0,0,0,270,380.252v-2.065h0A2.487,2.487,0,0,1,268.575,380.175Z" transform="translate(-151.439 -375.642)" fill="#bdcefa"/></g><path d="M268.57,378.713,216.389,408.84c-2.112,1.22-5.837,1.066-8.277-.342l-54.659-31.559a4.1,4.1,0,0,1-1.816-1.869c-.526,1.148.088,2.514,1.816,3.511l54.659,31.557c2.44,1.408,6.165,1.564,8.277.344l52.181-30.127a2.241,2.241,0,0,0,1.234-2.928A2.833,2.833,0,0,1,268.57,378.713Z" transform="translate(-151.434 -375.07)" fill="url(#aq)"/></g></g><g transform="translate(241.583)"><path d="M336.422,299.264,388.6,329.391c2.114,1.22,5.838,1.066,8.277-.342l54.66-31.559c2.439-1.408,2.706-3.559.594-4.777l-52.181-30.127c-2.112-1.22-5.837-1.066-8.277.342l-54.659,31.559C334.577,295.9,334.31,298.046,336.422,299.264Z" transform="translate(-334.997 -261.762)" fill="#fff"/><g transform="translate(0.002 32.97)"><path d="M336.422,291.345,388.6,321.472c2.114,1.22,5.838,1.066,8.277-.342l54.66-31.559a3.354,3.354,0,0,0,2.016-2.757h0v2.065c.043.966-.641,2-2.016,2.791l-54.66,31.558c-2.439,1.408-6.163,1.564-8.277.344l-52.181-30.127a2.472,2.472,0,0,1-1.423-2.02v-2.065h0A2.488,2.488,0,0,0,336.422,291.345Z" transform="translate(-334.999 -286.814)" fill="#bdcefa"/></g><g transform="translate(7.445 4.544)"><path d="M363.047,276.8l48.779,28.162a2.917,2.917,0,0,0,2.623-.108h0c.776-.449.861-1.127.188-1.515l-48.78-28.162a2.915,2.915,0,0,0-2.622.108h0C362.459,275.73,362.375,276.408,363.047,276.8Z" transform="translate(-333.72 -262.15)" fill="url(#ar)"/><path d="M358.978,279.145l48.779,28.163a2.922,2.922,0,0,0,2.623-.109h0c.776-.449.861-1.127.188-1.514l-48.779-28.163a2.914,2.914,0,0,0-2.623.109h0C358.39,278.079,358.306,278.756,358.978,279.145Z" transform="translate(-335.006 -261.408)" fill="url(#as)"/><path d="M354.909,281.494l48.779,28.163a2.913,2.913,0,0,0,2.623-.109h0c.776-.447.861-1.125.188-1.514L357.72,279.871a2.913,2.913,0,0,0-2.623.109h0C354.321,280.428,354.237,281.105,354.909,281.494Z" transform="translate(-336.292 -260.665)" fill="url(#at)"/><path d="M371.778,295.932,393,308.185a2.911,2.911,0,0,0,2.622-.109h0c.776-.447.861-1.125.188-1.514l-21.222-12.253a2.917,2.917,0,0,0-2.623.108h0C371.191,294.866,371.107,295.543,371.778,295.932Z" transform="translate(-330.959 -256.101)" fill="url(#au)"/><path d="M369.279,275.236l48.6,28.1a3.134,3.134,0,0,0,2.818-.116l13.848-8c.834-.482.925-1.211.2-1.628l-48.6-28.1a3.134,3.134,0,0,0-2.819.117l-13.848,8C368.647,274.091,368.557,274.819,369.279,275.236Z" transform="translate(-331.76 -265.215)" fill="url(#av)"/><path d="M341.142,290.479l48.6,28.058a3.133,3.133,0,0,0,2.819-.117l6.625-3.825c.834-.482.924-1.211.2-1.628l-48.6-28.058a3.131,3.131,0,0,0-2.818.117l-6.625,3.825C340.51,289.333,340.42,290.062,341.142,290.479Z" transform="translate(-340.654 -259.079)" fill="url(#aw)"/></g><g transform="translate(0.002 35.958)"><g transform="translate(0 0.753)"><path d="M336.422,294.189,388.6,324.314c2.114,1.22,5.838,1.066,8.277-.342l54.66-31.558a3.358,3.358,0,0,0,2.016-2.759h0v2.065c.043.966-.641,2-2.016,2.791L396.88,326.07c-2.439,1.408-6.163,1.564-8.277.344l-52.181-30.127a2.472,2.472,0,0,1-1.423-2.02V292.2h0A2.494,2.494,0,0,0,336.422,294.189Z" transform="translate(-334.999 -289.656)" fill="#bdcefa"/></g><path d="M336.421,292.727,388.6,322.854c2.114,1.22,5.838,1.065,8.277-.344l54.66-31.558a4.1,4.1,0,0,0,1.816-1.869c.525,1.148-.088,2.512-1.816,3.511l-54.66,31.558c-2.439,1.408-6.163,1.562-8.277.342L336.421,294.37a2.242,2.242,0,0,1-1.234-2.928A2.852,2.852,0,0,0,336.421,292.727Z" transform="translate(-334.998 -289.084)" fill="url(#ax)"/></g><g transform="translate(0.002 39.694)"><g transform="translate(0 0.753)"><path d="M336.422,297.028,388.6,327.155c2.114,1.219,5.838,1.065,8.277-.343l54.66-31.558a3.358,3.358,0,0,0,2.016-2.759h0v2.065c.043.966-.641,2-2.016,2.791l-54.66,31.558c-2.439,1.41-6.163,1.564-8.277.344l-52.181-30.127a2.472,2.472,0,0,1-1.423-2.02V295.04h0A2.492,2.492,0,0,0,336.422,297.028Z" transform="translate(-334.999 -292.495)" fill="#bdcefa"/></g><path d="M336.421,295.566,388.6,325.693c2.114,1.22,5.838,1.065,8.277-.344l54.66-31.558a4.1,4.1,0,0,0,1.816-1.869c.525,1.148-.088,2.514-1.816,3.511l-54.66,31.558c-2.439,1.408-6.163,1.562-8.277.343l-52.181-30.127a2.242,2.242,0,0,1-1.234-2.928A2.846,2.846,0,0,0,336.421,295.566Z" transform="translate(-334.998 -291.923)" fill="url(#ay)"/></g><g transform="translate(0.002 43.431)"><g transform="translate(0 0.753)"><path d="M336.422,299.867,388.6,329.994c2.114,1.22,5.838,1.065,8.277-.344l54.66-31.558a3.358,3.358,0,0,0,2.016-2.758h0V297.4c.043.967-.641,2-2.016,2.791l-54.66,31.559c-2.439,1.408-6.163,1.562-8.277.342l-52.181-30.127a2.472,2.472,0,0,1-1.423-2.02v-2.065h0A2.49,2.49,0,0,0,336.422,299.867Z" transform="translate(-334.999 -295.334)" fill="#bdcefa"/></g><path d="M336.421,298.4,388.6,328.532c2.114,1.22,5.838,1.066,8.277-.342l54.66-31.559a4.1,4.1,0,0,0,1.816-1.869c.525,1.148-.088,2.514-1.816,3.511l-54.66,31.558c-2.439,1.408-6.163,1.564-8.277.344l-52.181-30.127a2.242,2.242,0,0,1-1.234-2.928A2.846,2.846,0,0,0,336.421,298.4Z" transform="translate(-334.998 -294.762)" fill="url(#az)"/></g></g></g><g transform="translate(348.714 373.46)"><g transform="translate(0 165.093)"><ellipse cx="27.084" cy="15.637" rx="27.084" ry="15.637" fill="#fff"/><path d="M293.088,432.118c-10.578,6.107-27.725,6.107-38.3,0-5.247-3.03-7.887-6.992-7.928-10.963v9.651c-.042,4.033,2.6,8.073,7.928,11.15,10.577,6.107,27.725,6.107,38.3,0,5.33-3.077,7.97-7.117,7.928-11.15v-9.651C300.975,425.126,298.335,429.089,293.088,432.118Z" transform="translate(-246.853 -405.425)" fill="url(#ba)"/><path d="M256.452,420.035c9.184-5.3,24.073-5.3,33.257,0,3.421,1.974,5.566,4.406,6.438,6.956,1.47-4.294-.675-8.919-6.438-12.246-9.184-5.3-24.073-5.3-33.257,0-5.763,3.328-7.908,7.952-6.438,12.246C250.886,424.442,253.032,422.01,256.452,420.035Z" transform="translate(-245.997 -408.708)" fill="url(#bb)"/><g transform="translate(4.02 7.35)"><path d="M289.6,418.764c-9.184-5.3-24.073-5.3-33.257,0-3.418,1.974-5.562,4.4-6.436,6.95.871,2.551,3.014,4.984,6.437,6.96,9.182,5.3,24.072,5.3,33.254,0,3.423-1.975,5.566-4.41,6.437-6.96C295.162,423.168,293.02,420.738,289.6,418.764Z" transform="translate(-249.908 -414.787)" fill="#00e9ff"/></g></g><g transform="translate(8.855 55.224)"><path d="M268.13,344.948h-3.082v-3.082a1.025,1.025,0,0,0-2.05,0v3.082h-3.084a1.025,1.025,0,0,0,0,2.05H263v3.084a1.025,1.025,0,0,0,2.05,0V347h3.082a1.025,1.025,0,0,0,0-2.05Z" transform="translate(-251.904 -320.943)" fill="#00e9ff"/><path d="M280.926,364.226h-3.082v-3.082a1.025,1.025,0,0,0-2.05,0v3.082H272.71a1.025,1.025,0,0,0,0,2.049h3.084v3.084a1.025,1.025,0,0,0,2.05,0v-3.084h3.082a1.025,1.025,0,0,0,0-2.049Z" transform="translate(-247.859 -314.85)" fill="#00e9ff"/><path d="M265.89,388.982h-3.082V385.9a1.025,1.025,0,1,0-2.049,0v3.082h-3.084a1.025,1.025,0,1,0,0,2.049h3.084v3.084a1.025,1.025,0,1,0,2.049,0v-3.084h3.082a1.025,1.025,0,1,0,0-2.049Z" transform="translate(-252.612 -307.024)" fill="#00e9ff"/><path d="M276.485,407.388H273.4v-3.082a1.025,1.025,0,1,0-2.049,0v3.082H268.27a1.025,1.025,0,1,0,0,2.049h3.084v3.084a1.025,1.025,0,1,0,2.049,0v-3.084h3.082a1.025,1.025,0,1,0,0-2.049Z" transform="translate(-249.263 -301.206)" fill="#00e9ff"/><circle cx="2.185" cy="2.185" r="2.185" transform="translate(20.931 33.128)" fill="#0382ff"/><path d="M279.955,379.924a2.185,2.185,0,1,1-2.185-2.185A2.185,2.185,0,0,1,279.955,379.924Z" transform="translate(-246.626 -309.28)" fill="#0382ff"/><path d="M267.5,398.245a2.185,2.185,0,1,1-2.185-2.185A2.184,2.184,0,0,1,267.5,398.245Z" transform="translate(-250.563 -303.488)" fill="#0382ff"/><path d="M273.1,385.4a2.185,2.185,0,1,1-2.185-2.185A2.184,2.184,0,0,1,273.1,385.4Z" transform="translate(-248.792 -307.549)" fill="#0382ff"/><path d="M260.367,379.924a2.185,2.185,0,1,1-2.185-2.185A2.184,2.184,0,0,1,260.367,379.924Z" transform="translate(-252.818 -309.28)" fill="#0382ff"/><path d="M266.7,364.923a2.185,2.185,0,1,1-2.185-2.185A2.186,2.186,0,0,1,266.7,364.923Z" transform="translate(-250.815 -314.022)" fill="#0382ff"/><path d="M278.3,340.85a2.185,2.185,0,1,1-2.185-2.185A2.185,2.185,0,0,1,278.3,340.85Z" transform="translate(-247.151 -321.631)" fill="#0382ff"/><path d="M261.6,335.822a2.185,2.185,0,1,1-2.185-2.185A2.184,2.184,0,0,1,261.6,335.822Z" transform="translate(-252.428 -323.221)" fill="#0382ff"/><rect width="7.766" height="7.766" transform="translate(0 42.687) rotate(-45)" fill="#3a55ca"/><rect width="7.766" height="7.766" transform="translate(16.635 5.491) rotate(-45)" fill="#3a55ca"/><rect width="7.766" height="7.766" transform="translate(25.653 87.452) rotate(-45)" fill="#3a55ca"/><rect width="7.766" height="7.766" transform="translate(10.398 63.562) rotate(-45)" fill="#3a55ca"/></g><path d="M249.606,463.929c-.258,3.656,2.006,7.361,6.841,10.154,9.182,5.3,24.072,5.3,33.254,0,4.835-2.793,7.1-6.5,6.842-10.154V297.892c.257-3.656-2.006-7.361-6.842-10.154-9.182-5.3-24.072-5.3-33.254,0-4.835,2.793-7.1,6.5-6.841,10.154Z" transform="translate(-245.99 -283.762)" fill="url(#bc)"/></g><g transform="translate(76.548 290.288)"><path d="M149.836,222.42,53.734,277.9c-7.522,4.343-13.677,15-13.677,23.69v11.537c0,8.686,6.155,12.24,13.677,7.9l71.524-41.294-4.347,22.587,24.749-34.366,4.176-2.411c7.523-4.343,13.678-15,13.678-23.69V230.317C163.514,221.631,157.359,218.077,149.836,222.42Z" transform="translate(-40.057 -220.567)" fill="url(#bd)"/><g transform="translate(13.226 15.768)"><path d="M145.347,237.461,51.871,291.431c-.97.559-1.765-.041-1.765-1.335h0a4.242,4.242,0,0,1,1.765-3.371l93.476-53.968c.97-.561,1.764.039,1.764,1.333h0A4.239,4.239,0,0,1,145.347,237.461Z" transform="translate(-50.106 -232.547)" fill="url(#be)"/><path d="M97.423,267.708,51.639,294.142c-.842.487-1.533-.034-1.533-1.159v-.617a3.687,3.687,0,0,1,1.533-2.928L97.423,263c.844-.487,1.533.034,1.533,1.158v.617A3.681,3.681,0,0,1,97.423,267.708Z" transform="translate(-50.106 -222.978)" fill="url(#bf)"/></g></g><g transform="translate(213.617 277.163)"><g transform="translate(0)"><g transform="translate(22.864 48.412)"><g transform="translate(4.49 22.573)"><path d="M164.992,269.351c-.036.35.245.651.709.948.134.086-.017-1.887.442-1.558.133.095,6.469,5.028,10.005,4.117a.751.751,0,0,0,.529-.761V271.3c.049-.9-1.286-2.266-3.313-4.24-2.233-2.177-3.657-3.535-7-1.608-.954.551-1.337.963-1.342,1.315Z" transform="translate(-164.989 -264.53)"/><path d="M173.356,267.061c2.7,2.628,4.169,4.183,2.784,4.983s-4.154-.405-7-2.552c-2.487-1.879-6.122-2.111-2.784-4.039S171.122,264.884,173.356,267.061Z" transform="translate(-164.98 -264.53)" fill="#484968"/></g><path d="M171.754,270.988l-.176-20.734A2.43,2.43,0,0,0,170.021,248l-1.623-.626-6.821,4.533,3.331,1.7a31.658,31.658,0,0,0,1.013,11.1s1.145,2.336.919,7.776C166.84,272.485,170.479,273.621,171.754,270.988Z" transform="translate(-161.577 -247.378)" fill="#f1ac85"/></g><g transform="translate(14.838 52.945)"><g transform="translate(2.558 23.001)"><path d="M157.426,273.12c-.034.35.246.651.711.948.133.086-.017-1.887.442-1.558.133.095,6.469,5.029,10.005,4.117a.751.751,0,0,0,.529-.761v-.795c.05-.9-1.285-2.266-3.311-4.24-2.233-2.177-3.657-3.535-7-1.608-.953.551-1.336.963-1.341,1.315Z" transform="translate(-157.423 -268.299)"/><path d="M165.791,270.83c2.7,2.628,4.169,4.183,2.784,4.983s-4.154-.405-7-2.552c-2.487-1.879-6.123-2.111-2.785-4.039S163.557,268.653,165.791,270.83Z" transform="translate(-157.414 -268.299)" fill="#484968"/></g><path d="M163.7,275.1l-.2-24.277-8.026,2.6,1.375,3.956a29.236,29.236,0,0,0,1.015,10.639s1.145,2.336.919,7.776C158.788,275.8,161.734,277.47,163.7,275.1Z" transform="translate(-155.479 -250.822)" fill="#f1ac85"/></g><path d="M156.439,237.471s8.94-8.127,3.488-22.588l-4.189,15.01Z" transform="translate(-140.559 -209.237)" fill="#43334a"/><g transform="translate(15.926 18.467)"><path d="M166.847,254.2h0a2.64,2.64,0,0,1-3.268-1.778L156.413,228a2.638,2.638,0,0,1,1.778-3.267h0a2.636,2.636,0,0,1,3.267,1.777l7.166,24.426A2.639,2.639,0,0,1,166.847,254.2Z" transform="translate(-156.306 -224.625)" fill="#f1ac85"/><path d="M159.634,241.966,156.413,228a2.638,2.638,0,0,1,1.778-3.267h0a2.636,2.636,0,0,1,3.267,1.777l4.167,12.27C166.034,240.167,160.045,243.353,159.634,241.966Z" transform="translate(-156.306 -224.625)" fill="#8800bf"/></g><path d="M162.339,242.163s12.006,1.457,15.64,8.767.858,20.1.858,20.1-5.026,2.574-19.492,6.988c0,0,1.1-11.891-2.084-17.653s-7.846-3.678-9.817-7.147S162.339,242.163,162.339,242.163Z" transform="translate(-143.18 -200.614)" fill="#8800bf"/><path d="M149.894,260.2a.742.742,0,0,0,.337.112c1.761.136,8.09-1.242,14.423-8.38a3.312,3.312,0,0,0,.858-2.052V229.625a3.33,3.33,0,0,0-1.421-3.092l-4.763-2.778a3.329,3.329,0,0,0-3.393.311l-6.494,3.75a10.579,10.579,0,0,0-4.768,8.259v20.371a1.031,1.031,0,0,0,.459.974Z" transform="translate(-144.057 -206.538)" fill="#ffffeb"/><path d="M149.187,229.247a1.655,1.655,0,0,0,.982,1.392,5.25,5.25,0,0,0,4.749,0,1.655,1.655,0,0,0,.982-1.392v-4.413a1.655,1.655,0,0,0-.982-1.394,5.25,5.25,0,0,0-4.749,0,1.655,1.655,0,0,0-.982,1.394Z" transform="translate(-142.63 -206.712)" fill="#dd936f"/><circle cx="9.245" cy="9.245" r="9.245" transform="translate(0.668 1.838)" fill="#f1ac85"/><path d="M150.838,232.23s-.857-.981,3.914-15.015l8.56,2.948s2.948-7.3-6.736-9.4c0,0-6.455-1.4-8.7,3.93,0,0-5.192.421-3.227,11.087,0,0-3.45,14.462-.638,18.235C145.6,246.151,143.073,233.167,150.838,232.23Z" transform="translate(-144.205 -210.593)" fill="#43334a"/><path d="M146.87,227.924" transform="translate(-143.362 -205.115)" fill="#1f1f1f"/><path d="M156.524,255.8" transform="translate(-140.31 -196.302)" fill="#54a5f8"/><path d="M26.218,59.5s-.39,14.21-.123,14.472,2.452-.736,2.452-.736Z" fill="rgba(0,0,0,0.2)"/></g><g transform="translate(4.374 30.469)"><path d="M178.3,248.8l-17.416,10.021-13.359-7.283,17.825-10.2Z" transform="translate(-147.528 -231.342)" fill="#bdcefa"/><path d="M175.094,251.207l2.739-17.463L158.5,244.892l-.821,16.336Z" transform="translate(-144.319 -233.744)" fill="url(#bg)"/></g><g transform="translate(0.405 24.771)"><path d="M165.289,253.3h0a2.637,2.637,0,0,1-3.707-.292l-16.443-19.261a2.639,2.639,0,0,1,.292-3.707h0a2.638,2.638,0,0,1,3.709.292l16.443,19.261A2.638,2.638,0,0,1,165.289,253.3Z" transform="translate(-144.512 -229.415)" fill="#f1ac85"/></g><g transform="translate(0 24.313)"><path d="M153.137,243.891l-7.975-9.98a2.738,2.738,0,0,1,.3-3.846h0a2.737,2.737,0,0,1,3.847.3l8.349,9.49C158.635,241,154.111,245.032,153.137,243.891Z" transform="translate(-144.512 -229.414)" fill="#8800bf"/></g></g><g transform="translate(365.72 277.864)"><g transform="translate(4.359 48.264)"><g transform="translate(0 15.342)"><path d="M263.549,260.725c-.312.137-.433.519-.461,1.052-.009.153,1.586-.915,1.527-.37-.017.157-1.161,7.86,1.3,10.412a.727.727,0,0,0,.894.084l.672-.38c.78-.387,1.3-2.166,2-4.82.773-2.924,1.24-4.774-1.979-6.674-.92-.542-1.45-.669-1.749-.505Z" transform="translate(-263.088 -259.455)" fill="#010400"/><path d="M268.965,266.7c-.933,3.532-1.542,5.516-2.88,4.727s-1.639-3.7-1.182-7.124c.4-3-1.137-6.176,2.082-4.277S269.738,263.778,268.965,266.7Z" transform="translate(-262.577 -259.455)" fill="#484968"/></g><path d="M289.459,247.8l-6.609,2.419-2.685,3.049a28.344,28.344,0,0,0-8.5,5.93s-1.427,2.081-6.128,4.484c0,0-.009,3.288,2.931,3.818l18.84-10.845a4.75,4.75,0,0,0,2.353-3.611A21.171,21.171,0,0,0,289.459,247.8Z" transform="translate(-262.314 -247.798)" fill="#e28c66"/></g><g transform="translate(16.342 54.577)"><g transform="translate(1.259 22.306)"><path d="M273.153,274.219c-.034.34.238.633.69.92.129.082-.017-1.831.428-1.512.129.092,6.273,4.876,9.7,3.993a.726.726,0,0,0,.512-.737v-.773c.047-.87-1.246-2.2-3.213-4.111-2.166-2.111-3.547-3.428-6.783-1.56-.925.534-1.3.934-1.3,1.275Z" transform="translate(-273.15 -269.544)" fill="#2d0d60"/><path d="M281.264,272c2.616,2.549,4.044,4.056,2.7,4.831s-4.029-.392-6.785-2.474c-2.412-1.823-5.937-2.048-2.7-3.917S279.1,269.888,281.264,272Z" transform="translate(-273.141 -269.544)" fill="#484968"/></g><path d="M278.945,276.139l-.191-23.544-6.384,2.07-.064,4.289a28.374,28.374,0,0,0,.984,10.318s1.109,2.265.89,7.541C274.179,276.814,277.038,278.438,278.945,276.139Z" transform="translate(-272.193 -252.595)" fill="#f1ac85"/></g><g transform="translate(26.8 17.939)"><path d="M293.846,251.954h0a2.557,2.557,0,0,1-3.376-1.269l-10.105-22.326a2.557,2.557,0,0,1,1.269-3.376h0a2.557,2.557,0,0,1,3.376,1.269l10.105,22.326A2.558,2.558,0,0,1,293.846,251.954Z" transform="translate(-280.139 -224.757)" fill="#e28c66"/></g><g transform="translate(26.8 17.939)"><path d="M288.9,248.579l-8.538-20.219a2.557,2.557,0,0,1,1.269-3.376h0a2.557,2.557,0,0,1,3.376,1.269l9.972,20.173C295.561,247.7,289.483,249.856,288.9,248.579Z" transform="translate(-280.139 -224.757)" fill="#9a9de2"/></g><g transform="translate(25.668 20.703)"><path d="M295.1,248.753l-15.823-9.135v-12.76l15.823,9.135Z" transform="translate(-279.279 -226.857)" fill="#bdcefa"/><g transform="translate(8.867 7.002)"><path d="M288.341,243.2v-9.68l.339.2v9.68Z" transform="translate(-285.281 -231.753)" fill="url(#bh)"/><path d="M287.76,240v-6.813l.339.2v6.813Z" transform="translate(-285.465 -231.859)" fill="url(#bi)"/><path d="M287.178,241.782v-8.933l.339.2v8.934Z" transform="translate(-285.649 -231.965)" fill="url(#bj)"/><path d="M286.6,242.193v-9.68l.339.2v9.68Z" transform="translate(-285.832 -232.072)" fill="url(#bk)"/><path d="M286.016,235.724v-3.547l.339.2v3.547Z" transform="translate(-286.016 -232.178)" fill="url(#bl)"/></g></g><path d="M269.175,250.441l-5.141,15.428s19.053,24.291,28.629,12.158l-3.724-36Z" transform="translate(-256.805 -201.359)" fill="url(#bm)"/><path d="M273.9,259.033a.707.707,0,0,0,.326.108c1.707.132,7.845-1.206,13.986-8.126a3.21,3.21,0,0,0,.833-1.991V229.385a3.23,3.23,0,0,0-1.379-3l-4.618-2.694a3.224,3.224,0,0,0-3.29.3l-6.3,3.636a10.255,10.255,0,0,0-4.623,8.007v19.756a1,1,0,0,0,.445.945Z" transform="translate(-256.911 -207.257)" fill="#b6b9fe"/><path d="M274.041,229.017a1.606,1.606,0,0,0,.953,1.35,5.088,5.088,0,0,0,4.605,0,1.6,1.6,0,0,0,.952-1.35v-4.279a1.606,1.606,0,0,0-.952-1.352,5.1,5.1,0,0,0-4.605,0,1.607,1.607,0,0,0-.953,1.352Z" transform="translate(-255.266 -207.425)" fill="#dd936f"/><g transform="translate(0 22.865)"><path d="M261.174,255.329h0a2.558,2.558,0,0,1-1.125-3.427l11.1-22a2.558,2.558,0,0,1,3.427-1.125h0A2.558,2.558,0,0,1,275.7,232.2l-11.1,22A2.56,2.56,0,0,1,261.174,255.329Z" transform="translate(-259.776 -228.5)" fill="#f9ab83"/></g><g transform="translate(0 22.865)"><path d="M260.142,250.144,271.151,229.9a2.558,2.558,0,0,1,3.427-1.125h0A2.558,2.558,0,0,1,275.7,232.2l-9.679,21.278C265.392,254.729,259.509,251.4,260.142,250.144Z" transform="translate(-259.776 -228.5)" fill="#b6b9fe"/></g><g transform="translate(10.39)"><path d="M284.5,218.194l3.218,12.494a1.457,1.457,0,0,1-1.97,1.71l-7.408-3.082a1.458,1.458,0,0,1-.871-1.628L279.9,215.4a1.457,1.457,0,0,1,2.673-.478l1.762,2.877A1.513,1.513,0,0,1,284.5,218.194Z" transform="translate(-264.58 -210.148)" fill="#312c39"/><path d="M275.048,223.674c0,1.069-.752,1.5-1.677.969a3.708,3.708,0,0,1-1.677-2.9c0-1.069.75-1.5,1.677-.967A3.707,3.707,0,0,1,275.048,223.674Z" transform="translate(-266.398 -208.15)" fill="#f9ab83"/><circle cx="8.966" cy="8.966" r="8.966" transform="translate(2.635 1.457)" fill="#f9ab83"/><path d="M269.918,222.746s7.577,4.155,11.268-6.653c0,0,1.976,4.564,6.9,3.556,0,0,0-7.107-7.335-8.486C280.755,211.163,267.786,209.868,269.918,222.746Z" transform="translate(-267.034 -211.126)" fill="#312c39"/><path d="M274.728,221.179l3.219,12.492a1.458,1.458,0,0,1-1.972,1.71l-7.408-3.081a1.458,1.458,0,0,1-.87-1.628l2.427-12.29a1.458,1.458,0,0,1,2.673-.479l1.762,2.878A1.426,1.426,0,0,1,274.728,221.179Z" transform="translate(-267.67 -209.205)" fill="#312c39"/></g><path d="M23.407,23.494l2.255,25.329,1.569-1.177Z" fill="rgba(0,0,0,0.55)"/></g><g transform="translate(433.307 435.624)"><g transform="translate(0 19.708)"><path d="M312.575,371.453h0a2.473,2.473,0,0,0,3.265-1.227l7.962-17.548a2.473,2.473,0,0,0-1.227-3.265h0a2.473,2.473,0,0,0-3.265,1.227l-7.962,17.548A2.473,2.473,0,0,0,312.575,371.453Z" transform="translate(-311.129 -344.95)" fill="#fcc4b7"/><path d="M315.459,353.868l2.569-5.662a3.827,3.827,0,0,1,5.051-1.9h0a3.827,3.827,0,0,1,1.9,5.051l-2.569,5.662S318.508,359.127,315.459,353.868Z" transform="translate(-309.761 -345.969)" fill="#bdcefa"/></g><g transform="translate(9.993 43.615)"><path d="M326.042,366.817a1.592,1.592,0,0,1,.183.745l-.008,8.376c.025,1.631-1.637,2.988-3.692,3.019h0c-2.053.029-3.753-1.279-3.779-2.91l-.025-10.628a.941.941,0,0,1,.651-.911C320.8,364.055,324.188,363.385,326.042,366.817Z" transform="translate(-318.722 -364.135)" fill="#2d2d4f"/><g transform="translate(0.112 7.633)"><g transform="translate(17.289 10.249)"><path d="M339.37,379.155c.994.428.328,3.007.371,5.5.061,3.471-.684,6.761-2.211,7.678a1.017,1.017,0,0,1-1.027.1l-1.542-.857c-.9-.436-1.512-2.474-2.341-5.513-.913-3.35-1.466-5.468,2.211-7.678,1.052-.632,1.66-.782,2-.6Z" transform="translate(-331.944 -377.721)" fill="#010400"/><path d="M332.619,386.071c1.1,4.046,1.822,6.317,3.348,5.4s1.848-4.263,1.292-8.187c-.487-3.436,1.249-7.1-2.43-4.891S331.706,382.722,332.619,386.071Z" transform="translate(-331.944 -377.722)" fill="#1c1c38"/></g><path d="M336.081,385.4a1.606,1.606,0,0,1-.738-.212l-15.188-8.42c-1.425-.791-1.777-2.909-.78-4.705h0c1-1.8,2.978-2.62,4.4-1.829l17.158,9.513a.941.941,0,0,1,.466,1.019C341.086,382.229,339.98,385.5,336.081,385.4Z" transform="translate(-318.807 -369.934)" fill="#2d2d4f"/></g></g><g transform="translate(12.036 45.036)"><g transform="translate(0 28.796)"><path d="M333.286,392.461c.107,1.077-2.472,1.745-4.634,2.993-3.006,1.736-6.245,2.681-7.787,1.79a1.018,1.018,0,0,1-.588-.846v-1.765c-.055-1,1.431-2.523,3.686-4.721,2.486-2.423,4.072-3.935,7.787-1.79,1.062.613,1.489,1.071,1.492,1.464Z" transform="translate(-320.274 -387.094)" fill="#010400"/><path d="M323.964,389.912c-3,2.926-4.642,4.655-3.1,5.546s4.625-.45,7.787-2.84c2.769-2.093,6.815-2.351,3.1-4.5S326.45,387.489,323.964,389.912Z" transform="translate(-320.275 -387.094)" fill="#1c1c38"/></g><path d="M324.945,394.7a1.61,1.61,0,0,1-.172-.746v-25.78c0-1.631,1.681-2.964,3.735-2.964h0c2.054,0,3.735,1.333,3.735,2.964V396.21a.939.939,0,0,1-.663.9C330.147,397.544,326.75,398.164,324.945,394.7Z" transform="translate(-318.853 -365.214)" fill="#46466c"/></g><path d="M333.033,379.273a.688.688,0,0,1-.316.105c-1.652.128-7.59-1.166-13.53-7.861a3.106,3.106,0,0,1-.805-1.925v-19a3.125,3.125,0,0,1,1.335-2.9l4.467-2.606a3.121,3.121,0,0,1,3.182.292l6.092,3.517a9.922,9.922,0,0,1,4.472,7.747v19.109a.968.968,0,0,1-.43.915Z" transform="translate(-308.837 -326.639)" fill="#fff"/><path d="M329.712,350.239a1.551,1.551,0,0,1-.92,1.307,4.921,4.921,0,0,1-4.455,0,1.553,1.553,0,0,1-.921-1.307V346.1a1.553,1.553,0,0,1,.921-1.307,4.929,4.929,0,0,1,4.455,0,1.551,1.551,0,0,1,.92,1.307Z" transform="translate(-307.246 -326.802)" fill="#e5a89c"/><g transform="translate(24.22 24.571)"><path d="M343.92,374.708h0a2.475,2.475,0,0,0,1.088-3.315l-8.7-17.2A2.473,2.473,0,0,0,333,353.108h0a2.475,2.475,0,0,0-1.088,3.315l8.694,17.2A2.475,2.475,0,0,0,343.92,374.708Z" transform="translate(-328.864 -348.659)" fill="#fcc4b7"/><path d="M332.746,360.747,329.94,355.2a3.828,3.828,0,0,1,1.683-5.128h0a3.826,3.826,0,0,1,5.126,1.683l2.806,5.549S338.755,361.663,332.746,360.747Z" transform="translate(-329.532 -349.664)" fill="#bdcefa"/></g><path d="M319.156,342.724a8.672,8.672,0,1,0,8.672-8.672A8.672,8.672,0,0,0,319.156,342.724Z" transform="translate(-308.592 -330.029)" fill="#fcc4b7"/><path d="M335.33,333.435c7.411,2.544,3.726,13.369-1.665,17.273-2.636-1.44.57-4.018-3.026-2.224-.716-3.485.892-2.424-.083-6.807-3.768,1.965-11.1-.417-12.242-4.05,1.312-.583,2.687-4.31,5.758-5.678C328.023,330.19,333.081,330.966,335.33,333.435Z" transform="translate(-308.858 -330.995)" fill="#362b1f" fill-rule="evenodd"/><path d="M327.946,345.071c0,1.034.726,1.453,1.623.936a3.583,3.583,0,0,0,1.621-2.809c0-1.034-.727-1.453-1.621-.936A3.583,3.583,0,0,0,327.946,345.071Z" transform="translate(-305.814 -327.503)" fill="#fcc4b7"/></g></g></svg>