<svg xmlns="http://www.w3.org/2000/svg" width="87.532" height="109" viewBox="0 0 87.532 109"><g transform="translate(-48.026 0)"><g transform="translate(48.026 0)"><path d="M121.777,250.367c-12.561-4.1-17.783-9.205-17.783-9.205l-.42.4c-3.73,3.511-7.856,5.575-11.615,5.575H91.6c-3.758,0-7.884-2.064-11.614-5.575l-.421-.4s-5.221,5.1-17.783,9.205c-18.543,6.927-12.975,35.117-12.981,35.336.584,3.14.924,4.219,1.221,4.34,18.621,8.29,64.889,8.29,83.51,0,.3-.121.637-1.2,1.221-4.34C134.753,285.485,140.4,257.406,121.777,250.367Z" transform="translate(-48.026 -187.26)" fill="#3073ba"/><path d="M193.063,27.143l-.156-.169a12.908,12.908,0,0,1-.962-.9s1.82-9.182.361-13.525C190.015,5.615,176.331.967,173.586.426c0-.005-1.669-.339-1.776-.34a8.5,8.5,0,0,0-4.661.655c-1.63.627-10.149,4.49-12.567,11.808-1.459,4.342.361,13.525.361,13.525a12.912,12.912,0,0,1-.962.9l-.155.169c-.706.8-.531,3.309.24,5.918a13.539,13.539,0,0,0,1.829,3.929c2.213,10.392,9.91,19.266,17.753,19.266s15.133-8.873,17.346-19.266a13.527,13.527,0,0,0,1.829-3.929C193.594,30.452,193.789,27.772,193.063,27.143Z" transform="translate(-129.833 0)" fill="#3073ba"/></g></g></svg>