<svg version="1.1" id="Layer_1" xmlns="http://www.w3.org/2000/svg" xmlns:xlink="http://www.w3.org/1999/xlink" x="0px" y="0px"
	 viewBox="0 0 35 22" style="enable-background:new 0 0 35 22;" xml:space="preserve">
<style type="text/css">
	.st0{fill:#303D45;}
	.st1{fill:#3073BA;}
</style>
<path class="st0" d="M2.9,0.8L2.9,0.8c1.1,0,2,0.9,2,2v16.5c0,1.1-0.9,2-2,2l0,0c-1.1,0-2-0.9-2-2V2.9C0.8,1.7,1.7,0.8,2.9,0.8z
	 M1.4,1.4L1.4,1.4c0.8-0.8,2.1-0.8,2.9,0l7.1,7.1c0.8,0.8,0.8,2.1,0,2.9l0,0c-0.8,0.8-2.1,0.8-2.9,0L1.4,4.3
	C0.6,3.5,0.6,2.2,1.4,1.4z M12.5,7.8L12.5,7.8c-0.8-0.8-0.8-2.1,0-2.9L16,1.4c0.8-0.8,2.1-0.8,2.9,0l0,0c0.8,0.8,0.8,2.1,0,2.9
	l-3.5,3.5C14.5,8.6,13.3,8.6,12.5,7.8z"/>
<path class="st1" d="M17.4,0.8L17.4,0.8c1.1,0,2,0.9,2,2v16.5c0,1.1-0.9,2-2,2l0,0c-1.1,0-2-0.9-2-2V2.9C15.4,1.7,16.3,0.8,17.4,0.8
	z M23.5,0.9H30c1.1,0,2,0.9,2,2l0,0c0,1.1-0.9,2-2,2h-6.5c-1.1,0-2-0.9-2-2l0,0C21.5,1.8,22.4,0.9,23.5,0.9z M23.5,9.1h0.8
	c1.1,0,2,0.9,2,2l0,0c0,1.1-0.9,2-2,2h-0.8c-1.1,0-2-0.9-2-2l0,0C21.5,10,22.4,9.1,23.5,9.1z"/>
</svg>
