<svg id="Layer_1" data-name="Layer 1" xmlns="http://www.w3.org/2000/svg" viewBox="0 0 549.15 103.18"><path d="M310.13,308.36h-7v31.51q0,6.22-2.74,9.16a9.32,9.32,0,0,1-7.16,3,9.12,9.12,0,0,1-7.36-3.08q-2.61-3.07-2.61-9V264.41q0-6.42,2.88-9.3t9.3-2.87h32.31a98,98,0,0,1,11.44.57,28.79,28.79,0,0,1,8.56,2.3,24.82,24.82,0,0,1,8.16,5.56,24.15,24.15,0,0,1,5.38,8.39,27.94,27.94,0,0,1,1.84,10.14q0,11-6.18,17.52T338.22,306a36.25,36.25,0,0,1,10.1,8.29,83.41,83.41,0,0,1,8.6,11.68,87,87,0,0,1,5.89,11.17q2.1,5,2.1,6.86a7,7,0,0,1-1.23,3.84,8.66,8.66,0,0,1-3.38,3,10.62,10.62,0,0,1-4.95,1.11,9.62,9.62,0,0,1-5.62-1.58,14.82,14.82,0,0,1-3.91-4q-1.65-2.4-4.45-7.09l-8-13.24A74,74,0,0,0,325.75,315a18.89,18.89,0,0,0-6.86-5.21A23.49,23.49,0,0,0,310.13,308.36Zm11.37-41.21H303.17v27H321A50.2,50.2,0,0,0,333,292.88a14.09,14.09,0,0,0,7.45-4.22c1.72-2,2.58-4.72,2.58-8.19a12.72,12.72,0,0,0-2.07-7.2,12.52,12.52,0,0,0-5.76-4.64Q331.73,267.16,321.5,267.15Z" transform="translate(-109.3 -250.23)" fill="#821623"/><path d="M444.72,339.2,440,326.89H400.17l-4.68,12.58q-2.75,7.35-4.69,9.93T384.45,352a9.3,9.3,0,0,1-6.62-2.75A8.38,8.38,0,0,1,375,343a13.66,13.66,0,0,1,.67-4.14q.66-2.14,2.21-6l25.08-63.68q1.06-2.75,2.58-6.59a33.26,33.26,0,0,1,3.21-6.39,13,13,0,0,1,4.48-4.11,13.69,13.69,0,0,1,6.85-1.58,13.88,13.88,0,0,1,6.93,1.58,13.34,13.34,0,0,1,4.48,4,28.39,28.39,0,0,1,2.88,5.32q1.17,2.85,3,7.59l25.63,63.29q3,7.22,3,10.5a8.66,8.66,0,0,1-2.84,6.25,9.32,9.32,0,0,1-6.85,2.85,8.87,8.87,0,0,1-4-.84,8.29,8.29,0,0,1-2.81-2.27,20.82,20.82,0,0,1-2.44-4.42Q445.66,341.48,444.72,339.2ZM405.39,312h29.29L419.9,271.5Z" transform="translate(-109.3 -250.23)" fill="#821623"/><path d="M506.4,262.47l38.19,57.8V261.94c0-3.79.82-6.64,2.44-8.53a8.24,8.24,0,0,1,6.59-2.85,8.48,8.48,0,0,1,6.76,2.85c1.65,1.89,2.48,4.74,2.48,8.53v77.13q0,12.9-10.71,12.91a14.19,14.19,0,0,1-4.81-.77,12.44,12.44,0,0,1-4-2.44,23.73,23.73,0,0,1-3.48-3.92q-1.61-2.24-3.21-4.58l-37.26-57.13V340.6q0,5.63-2.61,8.5a8.62,8.62,0,0,1-6.69,2.88,8.51,8.51,0,0,1-6.75-2.91c-1.7-1.94-2.54-4.76-2.54-8.47V265a21.29,21.29,0,0,1,1.07-7.56,10.74,10.74,0,0,1,4.21-4.92,11.48,11.48,0,0,1,6.36-1.91,10.36,10.36,0,0,1,7.92,3.22,24.44,24.44,0,0,1,3,3.81Q504.79,259.93,506.4,262.47Z" transform="translate(-109.3 -250.23)" fill="#821623"/><path d="M648.28,268.63H626.61v71.24c0,4.1-.92,7.15-2.75,9.13a9.22,9.22,0,0,1-7.09,3,9.36,9.36,0,0,1-7.19-3q-2.77-3-2.78-9.1V268.63H585.13q-5.08,0-7.56-2.24a8.34,8.34,0,0,1,.1-11.95q2.58-2.2,7.46-2.2h63.15c3.43,0,6,.76,7.66,2.27a7.67,7.67,0,0,1,2.51,5.95,7.54,7.54,0,0,1-2.54,5.93Q653.36,268.63,648.28,268.63Z" transform="translate(-109.3 -250.23)" fill="#821623"/><rect width="20" height="101.53" rx="10" fill="#303d45"/><rect x="126.82" y="242.97" width="20" height="69.56" rx="10" transform="translate(-265.62 -72.13) rotate(-45)" fill="#303d45"/><rect x="172.75" y="246.62" width="20" height="44.63" rx="10" transform="translate(12.51 338.1) rotate(-135)" fill="#303d45"/><path d="M274.27,311.87v18.79a19.75,19.75,0,0,1-.74,6,9.6,9.6,0,0,1-2.71,4.05,26.09,26.09,0,0,1-5.05,3.48,79.28,79.28,0,0,1-17.13,7,69,69,0,0,1-17.92,2.21,58.41,58.41,0,0,1-20.61-3.48,43.38,43.38,0,0,1-15.85-10.1,44.64,44.64,0,0,1-10.07-16.06,60,60,0,0,1-3.51-21.07,61.69,61.69,0,0,1,3.41-20.94,43.16,43.16,0,0,1,10-16.12,44.09,44.09,0,0,1,16.13-10.13A61.82,61.82,0,0,1,231.79,252a53.42,53.42,0,0,1,17.52,2.65,38.64,38.64,0,0,1,12.38,6.65,29.91,29.91,0,0,1,7.16,8.5,17.3,17.3,0,0,1,2.4,8,8.49,8.49,0,0,1-2.77,6.39,9.32,9.32,0,0,1-6.66,2.64,8.91,8.91,0,0,1-4.11-1A9.34,9.34,0,0,1,254.4,283a80.16,80.16,0,0,0-6.22-8.7,20.16,20.16,0,0,0-6.86-4.95,26.15,26.15,0,0,0-11-2A30.41,30.41,0,0,0,218,269.69a25.4,25.4,0,0,0-9.27,6.89,31,31,0,0,0-5.88,11.07,48.38,48.38,0,0,0-2.05,14.52q0,17.25,7.93,26.55t22.11,9.3a44.82,44.82,0,0,0,12.94-1.81,65.26,65.26,0,0,0,12.28-5.15V315.14H240.68c-3.7,0-6.5-.55-8.39-1.67s-2.84-3-2.84-5.68a7,7,0,0,1,2.37-5.42,9.26,9.26,0,0,1,6.46-2.14h22.54a28.82,28.82,0,0,1,7,.73,7.89,7.89,0,0,1,4.65,3.28C273.67,305.93,274.27,308.48,274.27,311.87Z" transform="translate(-109.3 -250.23)" fill="#821623"/></svg>