<svg xmlns="http://www.w3.org/2000/svg" viewBox="0 0 50 50"><defs><style>.a{fill:#fff;}</style></defs><path class="a" d="M44.423,42.031,43.6,41.7A25,25,0,0,0,45.67,10.936a.782.782,0,0,0-.125-.179A25.069,25.069,0,0,0,41.19,5.95a.789.789,0,0,0-1.023,1.2,23.509,23.509,0,0,1,3.573,3.8,34.825,34.825,0,0,1-5.916,1.643,28.2,28.2,0,0,0-2.271-5.108,18.084,18.084,0,0,0-4.1-5.007,23.284,23.284,0,0,1,6.639,3.1.789.789,0,1,0,.884-1.308A25,25,0,0,0,6.409,41.712L5.6,42.03a4.485,4.485,0,0,0-2.839,4.351V49.21a.79.79,0,0,0,.789.79H15.169a.783.783,0,0,0,.112-.009.784.784,0,0,0,.112.009H18.6a.789.789,0,1,0,0-1.579H16.182v-2.75A3.859,3.859,0,0,1,18.552,41.9l.036-.013,3.845-1.506.025.027L24.5,42.4a.79.79,0,0,0,.551.224h.012a.788.788,0,0,0,.556-.242l1.962-2.036,3.839,1.54.037.014a3.859,3.859,0,0,1,2.376,3.769v2.75H21.072a.789.789,0,1,0,0,1.579h25.4a.794.794,0,0,0,.789-.8V46.381A4.485,4.485,0,0,0,44.423,42.031Zm-2.389-.958-.778-.312v-.449a4.128,4.128,0,0,0,1.835-2.276,2.23,2.23,0,0,0,1.233-3.953v-1.4A5.327,5.327,0,0,0,39.678,27.4c.03-.535.05-1.075.06-1.614h8.668A23.31,23.31,0,0,1,42.034,41.073ZM39.184,39.3h-.72a2.533,2.533,0,0,1-2.53-2.53V34.678h0a8.162,8.162,0,0,0,4.253-1.643A3.551,3.551,0,0,0,41.714,34.5v2.269A2.533,2.533,0,0,1,39.184,39.3Zm.493,1.548v.438l-.88.913-.827-.8v-.546a4.131,4.131,0,0,0,.493.031h.72A4.11,4.11,0,0,0,39.677,40.844Zm-4.53-7.694h0c-.027,0-.054,0-.081,0l-.025,0-.053.008-.035.009-.04.01-.025.009V32.68a3.746,3.746,0,0,1,3.742-3.741H39a3.745,3.745,0,0,1,3.741,3.741v.508l-.045-.012-.022-.006c-1.1-.25-1.461-1.719-1.463-1.73a.79.79,0,0,0-1.41-.288C38.376,33.127,35.189,33.15,35.147,33.15Zm8.146,3.194V35.281a.652.652,0,0,1,0,1.064ZM44.666,12.28a23.38,23.38,0,0,1,3.74,11.93H39.738a39.85,39.85,0,0,0-1.446-10.1A35.229,35.229,0,0,0,44.666,12.28ZM38.158,24.211H30.076A6.443,6.443,0,0,0,25.789,22.1V15.313a71.181,71.181,0,0,0,10.944-.921A38.168,38.168,0,0,1,38.158,24.211Zm-6.964,8.244a1.016,1.016,0,0,1-.74.976V31.478A1.017,1.017,0,0,1,31.194,32.455Zm-5.4-30.832c3.142.336,6.1,2.667,8.4,6.652a26.478,26.478,0,0,1,2.069,4.6,69.957,69.957,0,0,1-10.464.858V1.623Zm-.5,22.037a4.882,4.882,0,0,1,4.877,4.877V29.5l-.016-.012-.035-.026-.028-.018-.036-.022-.034-.018-.033-.016-.042-.017-.03-.011-.049-.014-.022-.006c-1.5-.341-1.975-2.3-1.979-2.313a.79.79,0,0,0-1.41-.288c-1.849,2.556-5.933,2.582-5.987,2.582h0c-.027,0-.054,0-.081,0l-.025,0-.054.008-.033.009-.042.011-.038.014-.035.013-.042.02-.027.013-.041.025-.024.015-.037.028-.024.018-.021.019v-.984a4.882,4.882,0,0,1,4.877-4.877h.472Zm-13.447.55a38.17,38.17,0,0,1,1.426-9.819,71.256,71.256,0,0,0,10.943.922v6.8a6.445,6.445,0,0,0-4.185,2.105.808.808,0,0,0-.087-.005h-8.1Zm7.831,7.259v1.969a1.014,1.014,0,0,1,0-1.969ZM24.211,1.623V13.734a70,70,0,0,1-10.463-.861,26.489,26.489,0,0,1,2.068-4.6C18.113,4.289,21.069,1.958,24.211,1.623Zm-5.674.864a18.1,18.1,0,0,0-4.089,5,28.2,28.2,0,0,0-2.27,5.107A34.9,34.9,0,0,1,6.27,10.954,23.5,23.5,0,0,1,18.536,2.487Zm-13.2,9.8a35.3,35.3,0,0,0,6.368,1.822,39.845,39.845,0,0,0-1.447,10.1H1.594A23.274,23.274,0,0,1,5.341,12.284Zm5.087,28.561a4.131,4.131,0,0,0,.493.031h.72a4.108,4.108,0,0,0,.493-.031v.438l-.879.913-.827-.8v-.545ZM11.641,39.3h-.72a2.533,2.533,0,0,1-2.53-2.53V34.679a8.158,8.158,0,0,0,4.253-1.644A3.552,3.552,0,0,0,14.171,34.5v2.269A2.533,2.533,0,0,1,11.641,39.3Zm2.031-7.857a.789.789,0,0,0-1.41-.288c-1.431,1.977-4.62,2-4.659,2h0c-.027,0-.054,0-.081,0l-.025,0-.054.008-.033.009-.042.011-.025.009V32.68a3.746,3.746,0,0,1,3.741-3.742h.378A3.745,3.745,0,0,1,15.2,32.68v.508h0l-.046-.013-.021-.006C14.035,32.919,13.675,31.45,13.673,31.439ZM1.594,25.789h8.668c.01.544.031,1.087.061,1.625A5.328,5.328,0,0,0,5.763,32.68v1.4a2.229,2.229,0,0,0,1.251,3.961,4.127,4.127,0,0,0,1.835,2.275v.445l-.862.338A23.3,23.3,0,0,1,1.594,25.789Zm5.219,9.474v1.1a.652.652,0,0,1,0-1.1ZM14.6,45.672v2.749H4.338v-2.04a2.936,2.936,0,0,1,1.788-2.863l.036-.013,2.978-1.166,1.582,1.541a.789.789,0,0,0,.551.224h.012a.788.788,0,0,0,.556-.242l1.495-1.551,1.847.741A5.9,5.9,0,0,0,14.6,45.672Zm7.617-6.9-4.19,1.641A5.033,5.033,0,0,0,16.1,41.72l-2.389-.958v-.449a4.128,4.128,0,0,0,1.835-2.276,2.23,2.23,0,0,0,1.233-3.953v-1.4a5.326,5.326,0,0,0-4.879-5.3c-.03-.527-.051-1.058-.061-1.59h7.135a6.415,6.415,0,0,0-.616,2.748v1.842a2.593,2.593,0,0,0,1.515,4.669,4.962,4.962,0,0,0,2.344,2.92v.805Zm-6.47-2.429V35.28a.652.652,0,0,1,0,1.064Zm10.578,2.979v.051l-1.294,1.342-1.236-1.2V38.52a4.945,4.945,0,0,0,.815.068h.9a4.964,4.964,0,0,0,.814-.068Zm-.814-2.315h-.9a3.366,3.366,0,0,1-3.362-3.362V30.86a9.94,9.94,0,0,0,5.571-2.188,4.3,4.3,0,0,0,2.053,2.008v2.967A3.365,3.365,0,0,1,25.514,37.009Zm8.405,4.716a5.038,5.038,0,0,0-1.929-1.31l-4.083-1.638v-.81a4.962,4.962,0,0,0,2.344-2.921,2.593,2.593,0,0,0,1.493-4.66v-1.85a6.414,6.414,0,0,0-.616-2.748h7.03c-.01.534-.031,1.068-.062,1.6a5.327,5.327,0,0,0-4.791,5.294v1.4a2.229,2.229,0,0,0,1.251,3.96,4.127,4.127,0,0,0,1.835,2.275v.445Zm.436-6.462v1.1a.652.652,0,0,1,0-1.1ZM45.679,48.421H35.414v-2.75a5.9,5.9,0,0,0-.575-2.611l1.843-.722,1.582,1.541a.789.789,0,0,0,.551.224h.012a.789.789,0,0,0,.556-.242l1.495-1.551L43.849,43.5l.036.013a2.936,2.936,0,0,1,1.794,2.865v2.04Z"/></svg>