<?xml version="1.0" standalone="no"?>
<!DOCTYPE svg PUBLIC "-//W3C//DTD SVG 20010904//EN"
 "http://www.w3.org/TR/2001/REC-SVG-20010904/DTD/svg10.dtd">
<svg version="1.0" xmlns="http://www.w3.org/2000/svg"
 width="512.000000pt" height="512.000000pt" viewBox="0 0 512.000000 512.000000"
 preserveAspectRatio="xMidYMid meet">
<metadata>
Created by potrace 1.16, written by Peter Selinger 2001-2019
</metadata>
<g transform="translate(0.000000,512.000000) scale(0.100000,-0.100000)"
fill="#000000" stroke="none">
<path d="M850 4590 l0 -530 -425 0 -425 0 0 -965 0 -965 425 0 425 0 0 -1065
0 -1065 1498 0 1497 0 638 638 637 637 0 1923 0 1922 -2135 0 -2135 0 0 -530z
m4050 -1390 l0 -1700 -640 0 -640 0 0 -640 0 -640 -1275 0 -1275 0 0 955 0
955 1280 0 1280 0 0 965 0 965 -1280 0 -1280 0 0 420 0 420 1915 0 1915 0 0
-1700z m-1490 -105 l0 -745 -1595 0 -1595 0 0 745 0 745 1595 0 1595 0 0 -745z
m1390 -1818 c0 -1 -216 -218 -480 -482 l-480 -480 0 483 0 482 480 0 c264 0
480 -1 480 -3z"/>
<path d="M841 3559 c-24 -5 -61 -20 -81 -34 -105 -73 -135 -186 -128 -481 6
-217 24 -287 88 -352 53 -53 112 -72 218 -72 109 0 156 15 208 65 51 49 79
122 89 228 l7 77 -101 0 -101 0 0 -52 c0 -112 -39 -178 -105 -178 -45 0 -79
32 -96 91 -17 59 -17 418 -1 476 19 64 50 95 95 95 21 0 45 -6 54 -13 23 -20
43 -72 43 -113 0 -65 2 -66 107 -66 l96 0 -7 78 c-12 138 -72 221 -180 249
-56 14 -138 15 -205 2z"/>
<path d="M1625 3561 c-128 -34 -193 -135 -183 -285 5 -76 29 -135 70 -173 23
-22 137 -78 212 -104 59 -21 106 -67 113 -111 11 -73 -35 -128 -107 -128 -69
0 -110 47 -110 126 l0 34 -96 0 -96 0 4 -73 c4 -97 40 -159 113 -196 46 -24
59 -26 180 -25 140 0 173 9 234 60 52 44 74 98 79 196 4 75 1 93 -18 133 -29
59 -86 102 -210 154 -136 58 -157 73 -171 119 -23 78 20 137 99 135 42 -1 82
-39 82 -78 0 -52 6 -55 101 -55 l89 0 0 53 c-1 91 -51 167 -135 203 -44 19
-201 28 -250 15z"/>
<path d="M2230 3388 c20 -90 68 -297 106 -460 l68 -298 123 0 c119 0 123 1
128 23 15 63 205 890 205 893 0 2 -45 4 -100 4 -95 0 -100 -1 -105 -22 -3 -13
-32 -158 -65 -322 -33 -165 -61 -300 -63 -302 -1 -2 -29 137 -61 309 -33 172
-61 318 -64 325 -3 8 -34 12 -107 12 l-102 0 37 -162z"/>
</g>
</svg>
